<svg xmlns="http://www.w3.org/2000/svg" xmlns:xlink="http://www.w3.org/1999/xlink" width="199.58" height="255.277" viewBox="0 0 199.58 255.277"><defs><style>.a,.d{fill:none;}.b{isolation:isolate;}.c{fill:#00b7d1;}.d{stroke:#fff;stroke-width:9.319px;}.d,.e{stroke-linejoin:round;}.e,.h{fill:#fff;}.e{stroke:#155e85;stroke-width:4.66px;}.f{fill:#166fa4;}.g{fill:#08547f;}.i{fill:#166da1;}.j{clip-path:url(#a);}.k{fill:#07527d;}.l{fill:#085480;}.m{fill:#0a5682;}.n{fill:#0c5985;}.o{fill:#0d5b88;}.p{fill:#0f5d8b;}.q{fill:#105f8e;}.r{fill:#116292;}.s{fill:#126495;}.t{fill:#136798;}.u{fill:#14699c;}.v{clip-path:url(#b);}.w{clip-path:url(#c);}.x{clip-path:url(#d);}.y{fill:#156b9f;}.z{clip-path:url(#e);}.aa{clip-path:url(#f);}.ab{clip-path:url(#g);}.ac{fill:#b0b2b2;}.ad{fill:#2d2d2c;}.ae{fill:#6e7072;}.af{fill:#f5f6f6;}</style><clipPath id="a"><path class="a" d="M-526.069,321.955l-.025,8.77c0-.482-.4-.923-1.109-1.333-1.494-.862-3.223-.932-5.339.3l.025-8.77c2.115-1.23,3.845-1.16,5.339-.3C-526.469,321.032-526.068,321.473-526.069,321.955Z"/></clipPath><clipPath id="b"><path class="a" d="M-519.8,322.058l-.025,8.77c0,1.469-1.272,2.955-3.731,4.384l.025-8.77C-521.075,325.013-519.807,323.527-519.8,322.058Z"/></clipPath><clipPath id="c"><path class="a" d="M-550.088,340.693l.024-8.77c0-.519.483-1.087,1.578-1.723l-.025,8.77C-549.606,339.606-550.087,340.174-550.088,340.693Z"/></clipPath><clipPath id="d"><path class="a" d="M-556.637,340.475l.025-8.769c0,1.356,1.069,2.7,3.279,3.976,4.585,2.648,9.684,2.449,14.41-.3l-.025,8.77c-4.725,2.746-9.825,2.944-14.41.3C-555.567,343.177-556.641,341.832-556.637,340.475Z"/></clipPath><clipPath id="e"><path class="a" d="M-475.419,351.573l-.025,8.77c0-.473-.4-.9-1.116-1.317l.025-8.77C-475.822,350.668-475.417,351.1-475.419,351.573Z"/></clipPath><clipPath id="f"><path class="a" d="M-468.843,351.846l-.025,8.77c0,1.431-1.262,2.869-3.7,4.289l.024-8.77C-470.105,354.715-468.847,353.277-468.843,351.846Z"/></clipPath><clipPath id="g"><path class="a" d="M-487.494,364.821l-.024,8.769c-4.743,2.757-9.62,2.925-14.308.219l.024-8.77C-497.114,367.745-492.236,367.577-487.494,364.821Z"/></clipPath></defs><g transform="translate(-1097.896 -3658.912)"><g class="b" transform="translate(1098.58 3715.479)"><path class="c" d="M115.465,17.616l-7.093-4.095L5.974,73.448c-8.918,5.183-8.871,13.617.106,18.8l123.892,70.781,7.047-4.1L13.127,88.152c-5.063-2.923-5.1-7.682-.059-10.609l102.4-59.927"/></g><g transform="translate(1707.756 3521.255)"><path class="d" d="M-573.864,332.218l6.182-2.657,1.186.685-.018,6.215,4.722,2.727,5.17-4.152v.357l-.014,5.082a3.963,3.963,0,0,0,1.8,2.974,11.545,11.545,0,0,0,1.48,1,14.7,14.7,0,0,0,1.852.9c.031.013.062.033.093.045q.626.247,1.259.428c.074.021.149.035.223.055s.156.038.234.058c.167.041.334.089.5.123.272.057.546.1.82.143.09.013.181.02.271.031l.156.017c.11.012.22.028.331.037q.374.031.748.04c.2.005.4,0,.605,0,.03,0,.06,0,.09,0h0c.028,0,.057,0,.086,0,.292-.011.585-.03.877-.06.223-.022.445-.06.668-.094.085-.012.169-.021.253-.035.054-.009.108-.013.161-.023.226-.041.451-.118.677-.171.094-.021.189-.041.284-.065.052-.012.1-.022.156-.036l-.012,4.177v.008h0l12.759,7.366,2.843-1.652-.009,3.288,4.224,2.439,5.841-3.394-.02,6.755,4.809,2.776,3.359-1.952-.011,3.885,7.4,4.274a15.6,15.6,0,0,0,1.944.942c.048.019.094.05.142.068q.635.25,1.273.433c.043.012.086.02.128.031.059.017.118.029.177.044h0c.214.055.429.114.644.158.266.055.532.1.8.139.057.008.115.012.172.02s.088.009.132.015c.124.014.247.029.371.041l.062.007c.12.01.24.013.361.019s.24.017.36.02h0c.165,0,.33,0,.494,0,.04,0,.08,0,.12,0s.09,0,.135,0c.278-.01.557-.028.835-.056.183-.019.365-.051.548-.077l0,.538-.007,2.677,4.293,2.479,6.181-2.657,1.186.685-.018,6.215,1.729,1,2.994,1.729,24.826-19.938.025-8.77-6.852-3.956-10.093,4.246.023-8.01c0,.021-.014.042-.014.062a3.059,3.059,0,0,0-.8-2.043c-.021-.025-.058-.051-.08-.077a6.844,6.844,0,0,0-.974-.933,12.477,12.477,0,0,0-1.508-1.008l-7.4-4.273-3.359,1.952.011-3.885-4.173-2.41-4.824,2.8,0-1.286.013-4.294-5.873-3.39-2.843,1.652.009-3.288-12.759-7.367-6.4,3.722.016-5.726h0c0,.028-.017.056-.018.085h0a3.087,3.087,0,0,0-.762-2.054c-.031-.04-.086-.079-.119-.119a6.515,6.515,0,0,0-.9-.885,11.592,11.592,0,0,0-1.467-.99,14.62,14.62,0,0,0-1.708-.844c-.288-.12-.58-.2-.87-.3s-.571-.212-.86-.289c-.406-.109-.815-.174-1.224-.243-.173-.028-.344-.075-.517-.1a12.863,12.863,0,0,0-1.467-.089c-.093,0-.186-.013-.279-.013a13.642,13.642,0,0,0-1.647.121c-.033.005-.066.005-.1.009a15.506,15.506,0,0,0-5.223,1.759l0-1.623.018-6.008L-540.9,308.2l-2.9-1.672-34.34,14.446-.025,8.769,4.293,2.479Zm104.873,20.3c-.016.055-.018.111-.037.166a.784.784,0,0,1-.044.2c-.007.017-.015.033-.023.05l-.015.03A2.707,2.707,0,0,0-468.991,352.517Zm-.539,1.092c-.073.1-.116.208-.2.312l-.018.019-.019.02C-469.67,353.843-469.613,353.726-469.53,353.609Zm-1.064,1.139c-.043.037-.075.073-.12.11-.024.023-.046.046-.074.069l-.034.028C-470.736,354.886-470.673,354.817-470.594,354.748ZM-514.8,342.154l.009-3.122,1.8-1.044,3.364,1.942-5.172,3.005Zm-5.151-19.39,0,.019a2.784,2.784,0,0,1-.074.342c-.013.031-.029.061-.043.092l-.006.008A2.8,2.8,0,0,0-519.956,322.764Zm-.594,1.187c.019-.026.035-.052.053-.078-.07.1-.116.2-.193.3-.007.009-.009.018-.017.027s-.018.02-.027.03l-.023.024A2.685,2.685,0,0,0-520.55,323.951Zm-1.079,1.14c.028-.023.05-.047.077-.071-.07.062-.122.124-.2.185l-.02.019-.014.011-.032.027C-521.745,325.2-521.688,325.148-521.629,325.091Zm-4.362,20.447.537-.313,3.364,1.942-3.927,2.283.009-3.288h0l-.53-.307Zm-5.074-16.517c.01,0,.021-.011.031-.014L-531,329c.033-.01.062-.007.094-.017a.341.341,0,0,0,.051-.009v.2l-.236-.137A.238.238,0,0,0-531.065,329.021Zm-17.656,1.333-.01.007c-.158.1-.324.2-.452.3C-549.052,330.558-548.884,330.456-548.721,330.354Zm-.648.467.013-.012-.026.024,0,0Zm-.228.2-.025.026c-.008.009-.019.018-.03.028l-.016.014C-549.648,331.068-549.619,331.045-549.6,331.022Zm-5.832,3.056c.088.091.175.181.274.272-.1-.09-.191-.179-.278-.269Z"/><path class="e" d="M-567.682,329.561l1.186.685-.018,6.215,4.722,2.727,5.17-4.152-.015,5.439c0,1.357,1.07,2.7,3.279,3.977a14.572,14.572,0,0,0,1.852.9c.031.013.061.033.093.045q.626.247,1.259.428c.074.021.15.035.224.055s.155.038.232.057c.168.042.335.09.5.124.272.057.546.1.82.143.09.013.18.02.27.03l.158.018c.11.012.22.028.33.037.249.021.5.034.748.04.2.005.4,0,.605,0,.03,0,.06,0,.091,0h.086c.292-.01.585-.029.877-.059.224-.022.448-.06.671-.094.083-.012.166-.021.249-.035.054-.009.108-.013.162-.023.227-.041.452-.119.679-.171.146-.034.293-.063.438-.1l-.011,4.185,12.759,7.366,2.842-1.652-.009,3.288,4.224,2.439,5.841-3.394-.019,6.755,4.808,2.776,3.359-1.952-.011,3.886,7.4,4.273a15.709,15.709,0,0,0,1.942.941c.048.02.1.05.143.069q.635.25,1.273.433c.043.012.085.019.127.031.06.016.121.029.181.045.214.055.429.114.644.158.266.055.532.1.8.139.058.009.116.013.174.02l.13.015c.144.017.289.036.433.048.24.02.481.033.721.039.165,0,.33,0,.495,0,.04,0,.079,0,.119,0s.09,0,.135,0c.278-.01.557-.028.835-.056.183-.019.365-.051.548-.077l-.009,3.215,4.293,2.479,6.181-2.657,1.186.685-.018,6.215,4.723,2.727,24.826-19.938.025-8.77-6.852-3.956-10.093,4.246.023-8.01c0,.021-.014.042-.014.063.039-1.368-1.054-2.73-3.362-4.062l-7.4-4.273-3.359,1.952.011-3.885-4.173-2.41-4.824,2.8.016-5.58-5.873-3.39-2.843,1.652.009-3.288-12.759-7.367-6.4,3.722.016-5.726c0,.028-.017.057-.018.085.049-1.383-1-2.753-3.247-4.049a13.764,13.764,0,0,0-13.894.016l.021-7.63-6.851-3.956-34.34,14.445-.025,8.77,4.293,2.479Zm96.894,25.366-.034.028c.091-.073.156-.146.241-.219C-470.655,354.8-470.709,354.863-470.788,354.927Zm-79.27-23.07,0,.02ZM-531,329c.051-.016.1-.012.145-.026v.2l-.236-.137c.019-.006.041-.021.06-.027Zm-17.729,1.362c-.158.1-.324.2-.452.3.131-.1.3-.2.462-.3Zm-.651.472,0,0,.035-.032Zm-.24.215c-.013.014-.034.029-.046.043.02-.023.049-.046.071-.069Zm-.334.453c.006-.011.01-.022.016-.033Zm24.5,13.724,3.364,1.942-3.927,2.283.009-3.288-.53-.307Zm10.646-2.29.011-3.9,1.8-1.044,3.364,1.942Zm-6.961-17.711-.047.039c.1-.082.175-.165.269-.247C-521.626,325.085-521.684,325.155-521.769,325.224Zm-33.66,8.854c.09.092.178.185.279.276-.1-.091-.194-.182-.283-.273Zm.629.615a11.739,11.739,0,0,0,1.467.989A11.739,11.739,0,0,1-554.8,334.693Zm85.728,18.188c-.011.027-.026.054-.038.08a2.718,2.718,0,0,0,.119-.445A2.775,2.775,0,0,1-469.072,352.881Zm-.455.724c-.075.106-.118.211-.206.316-.011.014-.026.027-.037.04C-469.669,353.842-469.612,353.724-469.527,353.605Zm-5.91-2.076a1.031,1.031,0,0,0-.267-.627A1.04,1.04,0,0,1-475.437,351.529Zm-.308-.665a3.236,3.236,0,0,0-.79-.608A3.236,3.236,0,0,1-475.745,350.864Zm-44.289-27.739c-.013.031-.03.061-.043.092l-.006.009a2.839,2.839,0,0,0,.127-.462A2.78,2.78,0,0,1-520.034,323.125Zm-.463.748c-.077.109-.12.219-.21.328-.015.018-.035.036-.05.054A4.523,4.523,0,0,0-520.5,323.873Zm-5.592-1.965a1.058,1.058,0,0,0-.263-.635A1.058,1.058,0,0,1-526.089,321.908Zm-.306-.676a3.155,3.155,0,0,0-.783-.61A3.155,3.155,0,0,1-526.4,321.232Z"/><g class="b"><path class="f" d="M-545.836,311.412l-.025,8.77-17.212,7.4.025-8.77Z"/><path class="f" d="M-567.658,320.791l-.025,8.77-6.181,2.657.025-8.77Z"/><path class="g" d="M-573.839,323.448l-.025,8.77-4.293-2.479.025-8.77Z"/><path class="g" d="M-561.922,324.1l-.025,8.77-5.736-3.311.025-8.77Z"/><path class="h" d="M-536.94,310.48l-24.827,19.938-4.722-2.727,4.567-3.589-5.736-3.311-6.181,2.657-4.293-2.479,34.34-14.445Zm-26.107,8.328,4.5,2.6,12.712-9.994-17.211,7.4"/><path class="i" d="M-536.94,310.48l-.025,8.77-24.826,19.938.025-8.77Z"/><path class="g" d="M-561.767,330.418l-.025,8.77-4.722-2.726.025-8.77Z"/></g><g class="b"><g class="b"><g class="j"><g class="b"><path class="k" d="M-526.069,321.955l-.025,8.77c0-.482-.4-.923-1.109-1.333a4.991,4.991,0,0,0-.679-.329l.025-8.77a5.167,5.167,0,0,1,.679.329c.709.41,1.11.851,1.109,1.333"/><path class="l" d="M-527.857,320.293l-.025,8.77c-.137-.054-.276-.1-.416-.141l.024-8.77q.211.06.417.141"/><path class="m" d="M-528.274,320.152l-.024,8.77q-.158-.045-.318-.078l.025-8.77c.107.022.213.048.317.078"/><path class="n" d="M-528.591,320.074l-.025,8.77c-.088-.019-.178-.034-.268-.047l.025-8.77c.09.013.18.028.268.047"/><path class="o" d="M-528.859,320.027l-.025,8.77c-.083-.012-.166-.021-.251-.028l.025-8.77c.084.007.168.016.251.028"/><path class="p" d="M-529.11,320l-.025,8.77c-.082-.007-.165-.012-.249-.014l.025-8.769c.083,0,.167.006.249.013"/><path class="q" d="M-529.359,319.986l-.025,8.769c-.087,0-.175,0-.264,0l.025-8.77c.089,0,.177,0,.264,0"/><path class="r" d="M-529.623,319.987l-.025,8.77c-.1,0-.2.01-.3.02l.025-8.77c.1-.01.2-.017.3-.02"/><path class="s" d="M-529.925,320.007l-.025,8.77c-.129.013-.26.031-.393.055l.025-8.769c.133-.025.263-.043.393-.056"/><path class="t" d="M-530.318,320.063l-.025,8.769a5.545,5.545,0,0,0-.709.18l.025-8.77a5.54,5.54,0,0,1,.709-.179"/><path class="u" d="M-531.027,320.242l-.025,8.77a7.557,7.557,0,0,0-1.49.678l.025-8.77a7.614,7.614,0,0,1,1.49-.678"/></g></g></g><g class="b"><g class="v"><g class="b"><path class="n" d="M-519.8,322.058l-.025,8.77v.066l.025-8.77v-.066"/><path class="o" d="M-519.8,322.124l-.025,8.77a2.583,2.583,0,0,1-.051.444l.025-8.77a2.582,2.582,0,0,0,.051-.444"/><path class="p" d="M-519.855,322.568l-.025,8.77a2.851,2.851,0,0,1-.131.455l.025-8.77a2.857,2.857,0,0,0,.131-.455"/><path class="q" d="M-519.986,323.023l-.025,8.77a3.485,3.485,0,0,1-.232.493l.025-8.77a3.473,3.473,0,0,0,.232-.493"/><path class="r" d="M-520.218,323.516l-.025,8.77a4.516,4.516,0,0,1-.4.586l.025-8.77a4.505,4.505,0,0,0,.4-.586"/><path class="s" d="M-520.614,324.1l-.025,8.77a6.6,6.6,0,0,1-.711.76l.025-8.77a6.688,6.688,0,0,0,.711-.76"/><path class="t" d="M-521.325,324.862l-.025,8.77a12.087,12.087,0,0,1-1.961,1.433l.025-8.77a12.085,12.085,0,0,0,1.961-1.433"/><path class="u" d="M-523.286,326.3l-.025,8.77-.248.147.025-8.77.248-.147"/></g></g></g><path class="f" d="M-523.534,326.442l-.025,8.77-2.883,1.676.025-8.77Z"/><path class="g" d="M-526.417,328.118l-.025,8.77-4.43-2.558.025-8.77Z"/><path class="f" d="M-532.517,320.92l-.025,8.77-15.969,9.28.025-8.77Z"/><path class="g" d="M-538.2,329.833l-.025,8.77-2.129-1.229.025-8.77Z"/><g class="b"><g class="w"><g class="b"><path class="u" d="M-548.486,330.2l-.025,8.77-.127.075.024-8.77.128-.075"/><path class="t" d="M-548.614,330.275l-.024,8.77a5.483,5.483,0,0,0-.888.645l.025-8.77a5.516,5.516,0,0,1,.887-.645"/><path class="s" d="M-549.5,330.92l-.025,8.77a2.632,2.632,0,0,0-.276.294l.025-8.769a2.546,2.546,0,0,1,.276-.295"/><path class="r" d="M-549.777,331.215l-.025,8.769a1.751,1.751,0,0,0-.143.211l.025-8.769a1.6,1.6,0,0,1,.143-.211"/><path class="q" d="M-549.92,331.426l-.025,8.769a1.211,1.211,0,0,0-.081.173l.025-8.77a1.154,1.154,0,0,1,.081-.172"/><path class="p" d="M-550,331.6l-.025,8.77a.931.931,0,0,0-.045.155l.025-8.77A.961.961,0,0,1-550,331.6"/><path class="o" d="M-550.046,331.753l-.025,8.77a.842.842,0,0,0-.017.148l.025-8.77a.837.837,0,0,1,.017-.148"/><path class="n" d="M-550.063,331.9l-.025,8.77v.022l.024-8.77V331.9"/></g></g></g><path class="f" d="M-529.539,329.932l-.025,8.77-9.383,5.453.025-8.77Z"/><g class="b"><g class="x"><g class="b"><path class="u" d="M-538.923,335.385l-.025,8.77a16.913,16.913,0,0,1-3.271,1.475l.025-8.77a16.912,16.912,0,0,0,3.271-1.475"/><path class="t" d="M-542.194,336.86l-.025,8.77a14.657,14.657,0,0,1-1.909.481l.025-8.77a14.653,14.653,0,0,0,1.909-.481"/><path class="s" d="M-544.1,337.341l-.025,8.77q-.54.1-1.082.152l.025-8.769c.361-.037.722-.087,1.082-.153"/><path class="r" d="M-545.185,337.494l-.025,8.769c-.292.03-.585.049-.877.059l.025-8.769q.438-.015.877-.059"/><path class="q" d="M-546.062,337.553l-.025,8.769c-.261.009-.521.011-.782,0l.025-8.77q.39.01.782,0"/><path class="p" d="M-546.844,337.556l-.025,8.77q-.375-.009-.748-.04l.025-8.77q.373.031.748.04"/><path class="o" d="M-547.592,337.516l-.025,8.77q-.379-.031-.758-.085l.024-8.77q.379.054.759.085"/><path class="n" d="M-548.351,337.431l-.024,8.77c-.274-.039-.548-.086-.82-.143l.025-8.769c.272.056.546.1.819.142"/><path class="m" d="M-549.17,337.289l-.025,8.769q-.481-.1-.959-.236l.025-8.77q.477.137.959.237"/><path class="l" d="M-550.129,337.052l-.025,8.77q-.633-.182-1.259-.428l.025-8.77q.625.248,1.259.428"/><path class="k" d="M-551.388,336.624l-.025,8.77a14.586,14.586,0,0,1-1.945-.942c-2.209-1.275-3.283-2.62-3.279-3.977l.025-8.769c0,1.356,1.069,2.7,3.279,3.976a14.594,14.594,0,0,0,1.945.942"/></g></g></g><path class="h" d="M-523.068,318.094c4.585,2.647,4.26,5.6-.466,8.348l-2.883,1.676-4.431-2.558,3.174-1.844c2.115-1.23,1.99-2.231.5-3.094s-3.224-.932-5.339.3l-15.969,9.28c-2.115,1.229-1.939,2.2-.445,3.063s3.172.962,5.288-.267l5.442-3.163-2.129-1.23,4.231-2.458,6.56,3.787-9.384,5.453c-4.726,2.746-9.825,2.945-14.41.3-4.6-2.657-4.276-5.611.449-8.357l15.389-8.943C-532.769,315.635-527.67,315.437-523.068,318.094Z"/></g><g class="b"><path class="f" d="M-500.656,331.429l-.025,8.77-4.231,2.459.025-8.77Z"/><path class="g" d="M-504.887,333.888l-.025,8.77-8.088-4.67.025-8.77Z"/><path class="f" d="M-512.975,329.218l-.025,8.77-8.24,4.789.025-8.77Z"/><path class="f" d="M-514.793,337.715l-.025,8.77-4.214,2.449.025-8.77Z"/><path class="g" d="M-519.007,340.164l-.025,8.77-6.422-3.708.025-8.77Z"/><path class="f" d="M-525.429,336.456l-.025,8.77-8.667,5.037.025-8.77Z"/><path class="g" d="M-530.239,348.621l-.025,8.77-12.759-7.366.025-8.77Z"/><path class="f" d="M-526.008,346.162l-.025,8.77-4.231,2.459.025-8.77Z"/><path class="h" d="M-500.656,331.429l-4.231,2.459-8.088-4.67-8.24,4.789,6.422,3.708-4.214,2.449-6.422-3.708-8.667,5.037,8.088,4.67-4.231,2.459L-543,341.254l29.583-17.192Z"/></g><g class="b"><path class="f" d="M-501.753,340.243l-.025,8.77-21.428,12.453.025-8.77Z"/><path class="y" d="M-491.949,336.455l-.025,8.77-12.9,13.067.025-8.77Z"/><path class="g" d="M-523.181,352.7l-.025,8.77-4.224-2.439.025-8.77Z"/><path class="h" d="M-482.968,341.641l-29.583,17.192-4.808-2.776,15.607-15.814L-523.181,352.7l-4.224-2.439,29.583-17.192,5.873,3.391-12.9,13.067,17.709-10.291Z"/><path class="f" d="M-482.968,341.641l-.025,8.77L-512.576,367.6l.025-8.77Z"/><path class="g" d="M-512.551,358.832l-.025,8.77-4.808-2.776.025-8.77Z"/></g><g class="b"><path class="g" d="M-476.535,350.256l-.025,8.77-2.627-1.517.025-8.77Z"/><g class="b"><g class="z"><g class="b"><path class="k" d="M-475.419,351.573l-.025,8.77c0-.473-.4-.9-1.116-1.317l.025-8.77c.713.412,1.118.844,1.116,1.317"/></g></g></g><g class="b"><g class="aa"><g class="b"><path class="n" d="M-468.843,351.846l-.025,8.77v.063l.025-8.769v-.064"/><path class="o" d="M-468.844,351.91l-.025,8.769a2.553,2.553,0,0,1-.049.424l.025-8.77a2.538,2.538,0,0,0,.049-.423"/><path class="p" d="M-468.893,352.333l-.025,8.77a2.824,2.824,0,0,1-.125.433l.025-8.769a2.865,2.865,0,0,0,.125-.434"/><path class="q" d="M-469.018,352.767l-.025,8.769a3.394,3.394,0,0,1-.221.472l.024-8.77a3.334,3.334,0,0,0,.222-.471"/><path class="r" d="M-469.24,353.238l-.024,8.77a4.425,4.425,0,0,1-.381.562l.025-8.769a4.319,4.319,0,0,0,.38-.563"/><path class="s" d="M-469.62,353.8l-.025,8.769a6.472,6.472,0,0,1-.69.738l.025-8.77a6.558,6.558,0,0,0,.69-.737"/><path class="t" d="M-470.31,354.538l-.025,8.77a12.253,12.253,0,0,1-1.98,1.444l.025-8.77a12.234,12.234,0,0,0,1.98-1.444"/><path class="u" d="M-472.29,355.982l-.025,8.77c-.084.051-.171.1-.258.153l.024-8.77c.088-.051.175-.1.259-.153"/></g></g></g><path class="f" d="M-479.163,348.739l-.025,8.77-21.121,12.274.025-8.77Z"/><path class="f" d="M-472.549,356.135l-.025,8.77-14.945,8.685.025-8.77Z"/><path class="g" d="M-501.8,365.039l-.025,8.77-7.4-4.273.025-8.77Z"/><path class="h" d="M-472.219,347.847c4.688,2.707,4.413,5.532-.33,8.288l-14.945,8.686c-4.742,2.756-9.62,2.924-14.308.218l-7.4-4.273,29.583-17.192Zm-20.184,14.4,15.388-8.943c2.116-1.229,1.973-2.181.48-3.044l-2.628-1.517-21.121,12.275,2.628,1.516c1.493.863,3.137.942,5.253-.287"/><g class="b"><g class="ab"><g class="b"><path class="u" d="M-487.494,364.821l-.024,8.769a16.954,16.954,0,0,1-3.287,1.487l.025-8.77a16.975,16.975,0,0,0,3.286-1.486"/><path class="t" d="M-490.78,366.307l-.025,8.77a14.358,14.358,0,0,1-1.839.465l.025-8.77a14.032,14.032,0,0,0,1.839-.465"/><path class="s" d="M-492.619,366.772l-.025,8.77q-.516.093-1.032.145l.025-8.77q.516-.053,1.032-.145"/><path class="r" d="M-493.651,366.917l-.025,8.77c-.278.028-.557.046-.835.056l.024-8.77q.418-.014.836-.056"/><path class="q" d="M-494.487,366.973l-.024,8.77c-.25.009-.5.01-.749,0l.025-8.77c.249.006.5.005.748,0"/><path class="p" d="M-495.235,366.977l-.025,8.77c-.24-.006-.481-.019-.721-.039l.025-8.77c.24.02.481.033.721.039"/><path class="o" d="M-495.956,366.938l-.025,8.77c-.246-.02-.491-.048-.737-.083l.025-8.769c.245.034.491.062.737.082"/><path class="n" d="M-496.693,366.856l-.025,8.769c-.266-.037-.532-.084-.8-.139l.025-8.77q.4.082.8.14"/><path class="m" d="M-497.491,366.716l-.025,8.77c-.317-.065-.635-.144-.952-.234l.025-8.77c.317.091.635.169.952.234"/><path class="l" d="M-498.443,366.482l-.025,8.77q-.638-.183-1.273-.433l.025-8.77q.635.25,1.273.433"/><path class="k" d="M-499.716,366.049l-.025,8.77a15.56,15.56,0,0,1-2.085-1.01l.024-8.77a15.639,15.639,0,0,0,2.086,1.01"/></g></g></g></g><g class="b"><path class="f" d="M-460.816,360.5l-.025,8.77-17.229,7.386.025-8.77Z"/><path class="f" d="M-482.638,369.877l-.025,8.77-6.181,2.657.025-8.77Z"/><path class="g" d="M-488.819,372.534l-.025,8.77-4.293-2.479.025-8.77Z"/><path class="g" d="M-476.9,373.188l-.025,8.77-5.736-3.311.025-8.77Z"/><path class="h" d="M-451.921,359.566-476.747,379.5l-4.723-2.727,4.567-3.589-5.735-3.311-6.181,2.657-4.294-2.479,34.34-14.445Zm-26.124,8.318,4.516,2.608,12.713-9.994-17.229,7.386"/><path class="i" d="M-451.921,359.566l-.025,8.77-24.826,19.938.025-8.77Z"/><path class="g" d="M-476.747,379.5l-.025,8.77-4.722-2.726.025-8.77Z"/></g></g><g transform="translate(1106.524 3618)"><g transform="translate(0 40.912)"><g class="b"><g transform="translate(0.041)"><path class="ac" d="M123.437,20.151c10.458-6.135,27.6-6.177,38.225-.1l68.865,39.423c10.616,6.08,10.748,16.011.285,22.141L162.8,121.479c-10.458,6.135-27.6,6.177-38.225.1L55.712,82.153c-10.62-6.08-10.748-16.011-.285-22.141ZM227.291,61.372,158.426,21.949c-8.813-5.046-23.055-4.991-31.707.081L58.709,61.891c-8.686,5.089-8.575,13.32.238,18.366l68.865,39.423c8.783,5.029,23.021,5.008,31.707-.081l68.01-39.861c8.652-5.072,8.545-13.337-.238-18.366" transform="translate(-47.663 -15.521)"/></g><g transform="translate(4.644 2.674)"><path class="ad" d="M123.2,19.985c8.656-5.072,22.894-5.127,31.707-.081l68.865,39.423c8.783,5.029,8.894,13.294.238,18.366L156,117.555c-8.686,5.089-22.924,5.11-31.707.081L55.427,78.212c-8.813-5.046-8.924-13.277-.238-18.366Z" transform="translate(-48.745 -16.15)"/></g><path class="ae" d="M238.606,28.5c0,.259-.043.519-.064.778a8.393,8.393,0,0,1-.1.863c-.038.23-.111.455-.166.68-.072.272-.14.548-.238.816-.077.221-.179.434-.272.65-.123.285-.247.57-.4.85-.111.2-.238.4-.361.6-.2.319-.4.633-.633.944-.136.183-.285.366-.434.544a16.191,16.191,0,0,1-1.178,1.267c-.136.132-.255.264-.4.4-.259.234-.553.463-.833.689-.247.2-.476.4-.74.587-.306.225-.646.438-.978.655s-.625.425-.969.629l-68.01,39.861a28.924,28.924,0,0,1-3.758,1.8c-.353.14-.71.276-1.076.408-.821.3-1.684.54-2.547.782-.889.251-1.781.485-2.7.676-1.05.217-2.1.412-3.189.553-.293.038-.587.094-.884.123-1.492.162-3,.247-4.511.264-.247,0-.493,0-.74,0-1.5-.009-3-.089-4.485-.238l-.672-.077a43.385,43.385,0,0,1-4.37-.735c-.247-.055-.489-.119-.736-.179a37.619,37.619,0,0,1-3.694-1.114c-.255-.089-.519-.162-.765-.259a29.387,29.387,0,0,1-4.094-1.913L55.744,39.976c-4.03-2.3-6.547-5.165-7.551-8.167a9.352,9.352,0,0,1-.5-3.027l-.043,15.042c-.013,4.06,2.674,8.12,8.048,11.2l68.865,39.419a29.12,29.12,0,0,0,3.809,1.82c.089.038.191.06.281.1.251.094.519.166.774.259.731.259,1.458.531,2.224.748.48.136.978.242,1.467.361.247.06.489.123.736.179.208.047.4.106.612.149.88.183,1.777.34,2.683.468.353.051.718.081,1.076.123.225.026.446.051.672.072.3.03.587.077.884.1.884.077,1.777.123,2.67.145.31.009.621,0,.931,0,.247,0,.489,0,.74,0,.366,0,.736.008,1.105,0,1-.034,2.007-.1,3-.2.136-.013.268-.043.4-.055.3-.034.587-.085.884-.123.727-.094,1.462-.174,2.177-.306.349-.06.667-.179,1.012-.251.923-.191,1.815-.421,2.7-.672.459-.132.948-.2,1.4-.349.4-.128.761-.3,1.148-.438.366-.132.723-.264,1.076-.408a28.38,28.38,0,0,0,3.758-1.8L230.8,54.486l.259-.153c.255-.153.472-.319.714-.48.332-.213.667-.425.974-.646.264-.2.5-.4.744-.6.281-.225.57-.446.825-.68.047-.038.1-.077.14-.115.1-.094.17-.2.268-.289a15.326,15.326,0,0,0,1.173-1.258c.072-.089.17-.17.238-.259s.123-.191.2-.289c.23-.31.438-.621.633-.94.077-.128.183-.255.259-.383.038-.072.064-.149.1-.221.149-.276.272-.561.4-.842.068-.162.162-.319.221-.476a1.483,1.483,0,0,0,.051-.183,8,8,0,0,0,.234-.812c.047-.179.119-.353.153-.531.013-.051.009-.1.017-.153a8.329,8.329,0,0,0,.1-.867c.013-.179.055-.357.06-.536l0-.238h0Z" transform="translate(-47.653 26.669)"/></g></g><g transform="translate(34.288)"><path class="af" d="M127.644,86.629a23.683,23.683,0,0,1-21.585,0L60.182,60.075c-5.952-3.469-5.952-9,0-12.474L106.165,21.03a23.683,23.683,0,0,1,21.585,0L173.627,47.6c5.952,3.469,5.952,9,0,12.474l-32.97,18.961Z" transform="translate(-55.718 34.842)"/></g></g></g></svg>