<svg xmlns="http://www.w3.org/2000/svg" xmlns:xlink="http://www.w3.org/1999/xlink" width="190.953" height="254.869" viewBox="0 0 190.953 254.869"><defs><style>.a,.d{fill:none;}.b{isolation:isolate;}.c{fill:#00b7d1;}.d{stroke:#fff;stroke-width:9.319px;}.d,.e{stroke-linejoin:round;}.e,.h{fill:#fff;}.e{stroke:#155e85;stroke-width:4.66px;}.f{fill:#166fa4;}.g{fill:#08547f;}.i{fill:#166da2;}.j{fill:#156b9f;}.k{clip-path:url(#a);}.l{fill:#07527d;}.m{fill:#085480;}.n{fill:#0a5682;}.o{fill:#0c5985;}.p{fill:#0d5b88;}.q{fill:#0f5d8b;}.r{fill:#105f8e;}.s{fill:#116292;}.t{fill:#126495;}.u{fill:#136798;}.v{fill:#14699c;}.w{clip-path:url(#b);}.x{clip-path:url(#c);}.y{clip-path:url(#d);}.z{fill:#166ca1;}.aa{fill:#166ca0;}.ab{fill:#14689b;}.ac{clip-path:url(#e);}.ad{clip-path:url(#f);}.ae{fill:#b0b2b2;}.af{fill:#2d2d2c;}.ag{fill:#6e7072;}</style><clipPath id="a"><path class="a" d="M-510.47,972.209l-.025,8.77c0-.452-.364-.86-1.013-1.235-1.408-.813-3.086-.852-5.2.377l.024-8.77c2.116-1.229,3.794-1.19,5.2-.377C-510.834,971.349-510.469,971.757-510.47,972.209Z"/></clipPath><clipPath id="b"><path class="a" d="M-504.39,972.12l-.025,8.77c0,1.467-1.312,2.975-3.844,4.446l.025-8.77C-505.7,975.095-504.394,973.587-504.39,972.12Z"/></clipPath><clipPath id="c"><path class="a" d="M-534.3,991.155l.024-8.77c0-.519.5-1.1,1.628-1.754l-.025,8.77C-533.808,990.058-534.3,990.636-534.3,991.155Z"/></clipPath><clipPath id="d"><path class="a" d="M-540.645,991.131l.025-8.77c0,1.272.973,2.513,2.982,3.674,4.328,2.5,9.29,2.22,14.015-.526l-.024,8.77c-4.726,2.746-9.688,3.024-14.016.525C-539.672,993.644-540.649,992.4-540.645,991.131Z"/></clipPath><clipPath id="e"><path class="a" d="M-502.1,1009.791l.025-8.769c0-.515.493-1.088,1.618-1.742l-.025,8.77C-501.605,1008.7-502.1,1009.276-502.1,1009.791Z"/></clipPath><clipPath id="f"><path class="a" d="M-508.436,1009.769l.025-8.77c0,1.272.977,2.513,2.988,3.674,4.328,2.5,9.273,2.231,14.016-.525l-.025,8.77c-4.743,2.756-9.688,3.024-14.015.525C-507.459,1012.282-508.439,1011.041-508.436,1009.769Z"/></clipPath></defs><g transform="translate(-973 -4013.659)"><g class="b" transform="translate(980.684 4068.479)"><path class="c" d="M115.465,17.616l-7.093-4.095L5.974,73.448c-8.918,5.183-8.871,13.617.106,18.8l123.892,70.781,7.047-4.1L13.127,88.152c-5.063-2.923-5.1-7.682-.059-10.609l102.4-59.927"/></g><g transform="translate(1581.832 3220.255)"><path class="d" d="M-431.313,1018.024l.015-5.261h0l-2.773-1.6-2.773-1.6-6.512,3.785.021-7.533-6.457-3.727h0l-2.806,1.2-.931.4.011-3.752-13.635-7.872-1.74,1.011.006-2.005v-.007h0l-4.173-2.409-4.583,2.663.015-5.3-4.413-2.548-1.654.961.005-1.912-4.413-2.548-5.783,1.29.013-4.622-4.413-2.548-6.12,3.557.016-5.456v-.068h0c0,.046-.028.094-.032.14a2.849,2.849,0,0,0-.662-1.946c-.033-.043-.089-.085-.124-.128a5.846,5.846,0,0,0-.8-.813,10.177,10.177,0,0,0-1.361-.927l0,0a12.972,12.972,0,0,0-2.106-.954c-.167-.06-.336-.111-.5-.163a12.343,12.343,0,0,0-2.019-.458c-.05-.007-.1-.02-.151-.026a13.17,13.17,0,0,0-4.943.362h0l.012-3.974-3.933-2.27-4.548,2.643.015-5.261-5.547-3.2-6.512,3.785.021-7.533-6.457-3.727-34.082,14.594-.025,8.77,4.053,2.339,6.129-2.686.826.476-.018,6.216,2.578,1.488,1.887,1.09,2-1.578-.008,2.728,3.967,2.29h0l4.318-2.509,1.212-.7-.018,6.4,4.534,2.618,6.067-3.527-.015,5.465h0a2.96,2.96,0,0,0,.736,1.878,7.973,7.973,0,0,0,2.246,1.8,13.09,13.09,0,0,0,1.7.824c.014.006.028.015.043.021q.576.228,1.162.4c.11.032.223.054.334.082.075.02.15.038.225.056h0l.076.019c.083.019.164.044.247.061q.383.079.77.135c.153.021.307.035.461.051.039,0,.079.01.119.013s.1.012.143.016c.238.02.478.033.718.039s.5.005.754,0l.072-.005.1-.006h0l.034,0c.213-.01.427-.021.641-.042.326-.033.654-.082.981-.138l.08-.012.031,0c.143-.026.286-.078.429-.108.219-.047.438-.1.658-.161l-.012,4.016h0l4.413,2.548,5.669-3.294,0,1.007-.016,5.549h0l4.534,2.617,4.883-6.216-.022,7.509a2.728,2.728,0,0,0,.391,1.3,4.868,4.868,0,0,0,1.282,1.494,10.536,10.536,0,0,0,1.316.885,13.185,13.185,0,0,0,1.7.825c.016.007.032.017.048.023.1.039.2.065.3.1.288.1.576.211.867.295.092.026.185.046.277.068l.048.012.226.056c.111.026.221.059.333.082.255.053.512.1.77.134.148.021.3.035.447.05l.121.014h0c.051,0,.1.013.152.017.238.019.476.032.716.038s.5.005.751,0l.068-.005.094-.006c.227-.011.455-.023.683-.046.324-.032.649-.081.974-.137.027-.005.055-.007.083-.012l.031,0c.148-.027.3-.081.446-.112.458-.1.916-.2,1.374-.347.024-.008.048-.011.071-.018.368-.119.735-.278,1.1-.426.194-.079.39-.139.584-.226.35-.157.7-.351,1.045-.534l-.008,2.909-.013,4.49,4.414,2.548,3.859-2.243-.013,4.464,4.053,2.339,6.147-2.677.825.477-.017,6.215h0l4.447,2.567,2-1.577-.008,2.727h0l3.984,2.3h0l5.513-3.2-.018,6.376,4.533,2.618h0l29.583-17.192.024-8.77h0l-3.932-2.27ZM-508.2,1001.99l.02-.026a3.151,3.151,0,0,0,.235.453A3.479,3.479,0,0,1-508.2,1001.99Zm1.791-26.677-.085.069c.1-.079.174-.158.267-.238C-506.293,975.2-506.342,975.256-506.411,975.313Zm1.169-1.158c-.029.036-.041.072-.071.108-.01.012-.023.023-.033.035l-.054.058c.108-.124.178-.247.269-.371C-505.172,974.041-505.208,974.1-505.242,974.155Zm.615-.97c-.011.026-.025.051-.036.076l-.01.022c-.008.017-.025.033-.033.05a2.829,2.829,0,0,0,.146-.452A2.547,2.547,0,0,1-504.627,973.185Zm1.224,22.7.37-.471.7-.149Zm1.815,4.23-.032.034c-.01.011-.026.022-.036.033h0c.023-.025.05-.05.076-.075h0Zm.2-.173-.01.008c.021-.018.041-.037.064-.055C-501.353,999.906-501.368,999.921-501.387,999.937Zm.678-.491c-.149.094-.3.188-.425.278.129-.094.285-.191.44-.289Z"/><path class="e" d="M-431.313,1018.024l.015-5.261-5.546-3.2-6.513,3.785.022-7.533-6.457-3.727-3.737,1.6.011-3.752-13.635-7.872-1.74,1.011.006-2.012-4.173-2.409-4.583,2.663.015-5.3-4.413-2.548-1.654.961.005-1.912-4.413-2.548-5.783,1.29.013-4.622-4.413-2.548-6.12,3.557.016-5.524c0,.047-.029.094-.032.141.079-1.321-.867-2.612-2.951-3.815a12.647,12.647,0,0,0-9.728-1.241l.011-3.974-3.932-2.27-4.548,2.643.015-5.261-5.547-3.2-6.513,3.785.022-7.533-6.457-3.727-34.082,14.594-.025,8.77,4.053,2.339,6.13-2.686.825.476-.018,6.216,4.465,2.577,2-1.577-.008,2.728,3.967,2.29,5.53-3.214-.018,6.4,4.534,2.618,6.067-3.527-.015,5.465c0,1.272.973,2.513,2.982,3.673a13.083,13.083,0,0,0,1.7.823c.015.006.029.016.044.022q.576.227,1.162.4c.11.031.222.054.333.082.076.02.152.038.228.056.108.026.214.057.323.08q.383.079.77.135c.153.021.307.035.461.051.039,0,.079.01.118.013s.1.013.144.016c.238.02.478.033.718.039s.5.005.754,0l.072,0c.033,0,.067-.006.1-.007.225-.011.449-.023.675-.045.326-.033.653-.081.98-.138.027-.005.054-.007.082-.012l.03,0c.142-.026.285-.077.427-.108.22-.047.44-.1.659-.161l-.011,4.016,4.413,2.548,5.669-3.294-.019,6.556,4.533,2.617,4.884-6.216-.022,7.509c0,1.272.977,2.513,2.989,3.674a13.262,13.262,0,0,0,1.7.826c.016.006.031.016.047.022q.576.228,1.162.4c.108.031.218.052.327.08.074.019.148.038.223.055.111.027.222.059.334.083.255.053.512.1.769.134.149.021.3.035.449.05l.12.014c.051,0,.1.013.152.017.238.019.476.032.716.038s.5.005.751,0l.067-.005.1-.006c.226-.011.453-.023.681-.046.323-.032.647-.08.971-.137l.087-.012.03,0c.144-.026.289-.079.434-.11.462-.1.924-.2,1.387-.35.024-.007.047-.01.07-.017.367-.118.732-.277,1.1-.425.2-.079.392-.139.588-.227.349-.157.7-.351,1.045-.534l-.021,7.4,4.414,2.548,3.859-2.243-.013,4.464,4.053,2.339,6.147-2.677.825.477-.017,6.216,4.447,2.567,2-1.577-.008,2.727,3.984,2.3,5.513-3.2-.018,6.376,4.534,2.618,29.582-17.192.025-8.77-3.932-2.27Zm-70.75-17.11,0,.028Zm1.354-1.468c-.158.1-.325.2-.453.3.134-.1.3-.2.47-.308Zm-.678.491-.012.009.07-.06C-501.35,999.9-501.367,999.92-501.387,999.937Zm-.233.207c-.01.011-.027.023-.037.033.023-.024.052-.05.077-.075Zm-.323.416.006-.014Zm-32.327-18.289,0,.027Zm.123-.358.006-.012Zm28.834-7.65c-.026.032-.061.063-.088.094.109-.124.179-.248.27-.373C-505.2,974.077-505.235,974.17-505.313,974.263Zm-1.1,1.05-.087.071c.1-.082.18-.165.276-.247C-506.29,975.2-506.339,975.254-506.411,975.313Zm3.378,20.1.7-.149-1.069.621Zm-1.594-22.223c-.014.032-.031.065-.046.1-.008.017-.025.034-.033.05a2.928,2.928,0,0,0,.147-.454A2.816,2.816,0,0,1-504.627,973.186Zm-5.865-1.03a.992.992,0,0,0-.234-.576A.992.992,0,0,1-510.492,972.156Zm-.29-.632a2.836,2.836,0,0,0-.7-.55A2.836,2.836,0,0,1-510.782,971.524Zm-28.208,13.589a10.271,10.271,0,0,0,1.352.921A10.271,10.271,0,0,1-538.99,985.113Zm30.808,16.851a3.176,3.176,0,0,0,.236.454,3.5,3.5,0,0,1-.256-.428Zm.466.84a5.692,5.692,0,0,0,.617.633A5.692,5.692,0,0,1-507.716,1002.8Zm.94.948a10.348,10.348,0,0,0,1.353.921A10.348,10.348,0,0,1-506.776,1003.752Z"/><g class="b"><path class="f" d="M-546.282,952.445l-.025,8.77L-563.4,968.68l.025-8.77Z"/><path class="f" d="M-567.95,961.913l-.025,8.77-6.13,2.687.025-8.77Z"/><path class="g" d="M-574.079,964.6l-.025,8.77-4.053-2.34.025-8.77Z"/><path class="g" d="M-562.523,965.046l-.025,8.77-5.426-3.133.025-8.77Z"/><path class="h" d="M-537.593,951.394l-25.084,19.789-4.465-2.578,4.619-3.559-5.427-3.133-6.129,2.687-4.053-2.34,34.082-14.594Zm-25.781,8.516,4.259,2.459,12.833-9.924-17.092,7.465"/><path class="i" d="M-537.593,951.393l-.025,8.77L-562.7,979.953l.025-8.77Z"/><path class="g" d="M-562.677,971.183l-.025,8.77-4.465-2.578.025-8.77Z"/></g><g class="b"><path class="f" d="M-535.29,962.171l-.025,8.77-21.428,12.453.025-8.77Z"/><path class="j" d="M-525.555,958.344l-.025,8.77-13.175,12.909.025-8.77Z"/><path class="g" d="M-556.718,974.623l-.025,8.77-3.967-2.29.025-8.77Z"/><path class="h" d="M-517.09,963.231l-29.583,17.192-4.533-2.617,15.916-15.635-21.428,12.453-3.967-2.29,29.583-17.192,5.547,3.2-13.175,12.909,17.709-10.291Z"/><path class="f" d="M-517.09,963.231l-.025,8.77L-546.7,989.193l.025-8.77Z"/><path class="g" d="M-546.672,980.423l-.025,8.77-4.533-2.617.025-8.77Z"/></g><g class="b"><g class="b"><g class="k"><g class="b"><path class="l" d="M-510.47,972.209l-.025,8.77c0-.452-.364-.86-1.013-1.235a4.636,4.636,0,0,0-.607-.294l.025-8.77a4.648,4.648,0,0,1,.607.294c.649.375,1.014.783,1.013,1.235"/><path class="m" d="M-512.09,970.68l-.025,8.77c-.126-.05-.255-.094-.385-.131l.025-8.77c.13.038.259.081.385.131"/><path class="n" d="M-512.475,970.549l-.025,8.77c-.1-.028-.194-.052-.293-.072l.025-8.77c.1.02.2.044.293.072"/><path class="o" d="M-512.768,970.477l-.025,8.77c-.084-.018-.168-.033-.254-.045l.025-8.77c.086.013.17.027.254.045"/><path class="p" d="M-513.022,970.432l-.025,8.77c-.078-.011-.158-.02-.238-.026l.025-8.77c.08.006.159.015.238.026"/><path class="q" d="M-513.26,970.406l-.025,8.77c-.079-.007-.159-.011-.24-.013l.025-8.77c.081,0,.161.006.24.013"/><path class="r" d="M-513.5,970.393l-.025,8.77c-.084,0-.169,0-.255,0l.025-8.77c.086,0,.171,0,.255,0"/><path class="s" d="M-513.755,970.394l-.025,8.77c-.1,0-.193.01-.291.02l.025-8.77c.1-.01.2-.016.291-.02"/><path class="t" d="M-514.046,970.414l-.025,8.77c-.127.012-.255.03-.385.054l.024-8.77c.131-.023.259-.042.386-.054"/><path class="u" d="M-514.432,970.468l-.024,8.77a5.653,5.653,0,0,0-.713.18l.025-8.769a5.511,5.511,0,0,1,.712-.181"/><path class="v" d="M-515.144,970.649l-.025,8.769a7.936,7.936,0,0,0-1.54.7l.024-8.77a7.9,7.9,0,0,1,1.541-.7"/></g></g></g><g class="b"><g class="w"><g class="b"><path class="o" d="M-504.39,972.12l-.025,8.77v.064l.025-8.77v-.064"/><path class="p" d="M-504.391,972.184l-.025,8.77a2.57,2.57,0,0,1-.05.433l.025-8.77a2.564,2.564,0,0,0,.05-.433"/><path class="q" d="M-504.441,972.617l-.025,8.77a2.937,2.937,0,0,1-.129.448l.024-8.77a2.832,2.832,0,0,0,.13-.448"/><path class="r" d="M-504.571,973.065l-.024,8.77a3.57,3.57,0,0,1-.232.491l.025-8.77a3.393,3.393,0,0,0,.231-.491"/><path class="s" d="M-504.8,973.556l-.025,8.77a4.589,4.589,0,0,1-.392.58l.024-8.77a4.5,4.5,0,0,0,.393-.58"/><path class="t" d="M-505.2,974.136l-.024,8.77a6.86,6.86,0,0,1-.72.771l.025-8.77a6.749,6.749,0,0,0,.719-.771"/><path class="u" d="M-505.914,974.907l-.025,8.77a12.649,12.649,0,0,1-2.054,1.5l.025-8.77a12.694,12.694,0,0,0,2.054-1.5"/><path class="v" d="M-507.968,976.409l-.025,8.77c-.087.052-.176.1-.266.157l.025-8.77c.09-.052.179-.1.266-.157"/></g></g></g><path class="f" d="M-508.234,976.566l-.025,8.77-2.883,1.676.025-8.77Z"/><path class="g" d="M-511.117,978.242l-.025,8.77-4.173-2.409.025-8.77Z"/><path class="f" d="M-516.685,971.351l-.025,8.77-15.969,9.28.025-8.77Z"/><path class="g" d="M-522.643,980.106l-.025,8.77-2.009-1.16.025-8.77Z"/><g class="b"><g class="x"><g class="b"><path class="v" d="M-532.653,980.631l-.025,8.77-.137.081.025-8.77.137-.081"/><path class="u" d="M-532.79,980.712l-.025,8.77a5.75,5.75,0,0,0-.92.667l.025-8.77a5.706,5.706,0,0,1,.92-.667"/><path class="t" d="M-533.71,981.379l-.025,8.77a2.706,2.706,0,0,0-.285.3l.025-8.77a2.7,2.7,0,0,1,.285-.3"/><path class="s" d="M-533.995,981.683l-.025,8.77a1.653,1.653,0,0,0-.142.21l.025-8.77a1.652,1.652,0,0,1,.142-.21"/><path class="r" d="M-534.137,981.893l-.025,8.77a1.171,1.171,0,0,0-.082.173l.025-8.77a1.229,1.229,0,0,1,.082-.173"/><path class="q" d="M-534.219,982.066l-.025,8.77a1.049,1.049,0,0,0-.044.153l.024-8.77a1.048,1.048,0,0,1,.045-.153"/><path class="p" d="M-534.264,982.219l-.024,8.77a.809.809,0,0,0-.017.145l.025-8.77a.907.907,0,0,1,.016-.145"/><path class="o" d="M-534.28,982.364l-.025,8.77v.021l.024-8.77v-.021"/></g></g></g><path class="f" d="M-514.239,980.056l-.025,8.77-9.383,5.453.025-8.77Z"/><g class="b"><g class="y"><g class="b"><path class="v" d="M-523.623,985.509l-.024,8.77a17.632,17.632,0,0,1-3.427,1.545l.025-8.77a17.537,17.537,0,0,0,3.426-1.545"/><path class="u" d="M-527.049,987.054l-.025,8.77a14.8,14.8,0,0,1-1.9.478l.025-8.77a14.642,14.642,0,0,0,1.895-.478"/><path class="t" d="M-528.944,987.532l-.025,8.77q-.547.1-1.092.154l.025-8.77q.545-.054,1.092-.154"/><path class="s" d="M-530.036,987.686l-.025,8.77c-.283.028-.566.047-.847.056l.025-8.769c.281-.01.564-.029.847-.057"/><path class="r" d="M-530.883,987.743l-.025,8.769c-.252.009-.5.01-.754,0l.025-8.77c.25.006.5.005.754,0"/><path class="q" d="M-531.637,987.746l-.025,8.77c-.24-.006-.48-.019-.718-.038l.025-8.77q.357.028.718.038"/><path class="p" d="M-532.355,987.708l-.025,8.77q-.363-.03-.723-.081l.025-8.77q.36.051.723.081"/><path class="o" d="M-533.078,987.627l-.025,8.77q-.387-.055-.77-.135l.024-8.77q.384.079.771.135"/><path class="n" d="M-533.849,987.492l-.024,8.77c-.3-.062-.591-.134-.884-.218l.025-8.77c.292.084.587.157.883.218"/><path class="m" d="M-534.732,987.274l-.025,8.77q-.586-.168-1.162-.4l.025-8.77q.574.228,1.162.395"/><path class="l" d="M-535.894,986.879l-.025,8.77a13.187,13.187,0,0,1-1.744-.845c-2.009-1.16-2.986-2.4-2.982-3.673l.025-8.77c0,1.272.973,2.513,2.982,3.674a13.292,13.292,0,0,0,1.744.844"/></g></g></g><path class="h" d="M-507.373,968.446c4.328,2.5,3.865,5.374-.861,8.12l-2.883,1.676-4.173-2.41,3.173-1.844c2.116-1.229,2.042-2.2.634-3.014s-3.086-.852-5.2.377l-15.968,9.28c-2.116,1.23-2.008,2.181-.6,2.994s3.051.873,5.167-.357l5.442-3.162-2.009-1.16,4.231-2.459,6.182,3.569-9.384,5.453c-4.725,2.746-9.687,3.024-14.015.526s-3.864-5.374.862-8.12l15.388-8.943C-516.662,966.225-511.7,965.948-507.373,968.446Z"/></g><g class="b"><path class="f" d="M-493.873,976.635l-.025,8.77-12.9,7.5.025-8.77Z"/><path class="z" d="M-483.69,982.515l-.025,8.77-19.318,4.125.025-8.77Z"/><path class="aa" d="M-510.31,987.759l-.025,8.77-4.052.783.025-8.77Z"/><path class="f" d="M-514.362,988.543l-.025,8.77-9.093,5.284.025-8.77Z"/><path class="g" d="M-523.456,993.827l-.025,8.77-4.413-2.548.025-8.77Z"/><path class="g" d="M-513.273,999.706l-.025,8.77-4.534-2.617.025-8.77Z"/><path class="h" d="M-483.69,982.515l-19.318,4.125-10.265,13.067-4.533-2.617,7.5-9.33-4.052.783-9.093,5.284-4.413-2.548,29.583-17.192,4.413,2.548-12.9,7.5,18.668-4.164Z"/><path class="ab" d="M-503.008,986.639l-.025,8.77-10.265,13.067.025-8.77Z"/></g><g class="b"><path class="f" d="M-477.628,986.014l-.025,8.77-22.827,13.266.025-8.77Z"/><g class="b"><g class="ac"><g class="b"><path class="v" d="M-500.455,999.28l-.025,8.77-.136.081.025-8.77c.044-.027.089-.054.136-.081"/><path class="u" d="M-500.591,999.361l-.025,8.77a5.672,5.672,0,0,0-.917.664l.025-8.77a5.664,5.664,0,0,1,.917-.664"/><path class="t" d="M-501.508,1000.025l-.025,8.77a2.647,2.647,0,0,0-.282.3l.025-8.77a2.649,2.649,0,0,1,.282-.3"/><path class="s" d="M-501.79,1000.326l-.025,8.77a1.7,1.7,0,0,0-.141.208l.025-8.77a1.592,1.592,0,0,1,.141-.208"/><path class="r" d="M-501.931,1000.534l-.025,8.77a1.193,1.193,0,0,0-.081.171l.025-8.77a1.194,1.194,0,0,1,.081-.171"/><path class="q" d="M-502.012,1000.705l-.025,8.77a1,1,0,0,0-.044.152l.025-8.77a1,1,0,0,1,.044-.152"/><path class="p" d="M-502.056,1000.857l-.025,8.77a.882.882,0,0,0-.017.143l.025-8.769a.881.881,0,0,1,.017-.144"/><path class="o" d="M-502.073,1001l-.025,8.769v.021l.025-8.769V1001"/></g></g></g><path class="f" d="M-468.887,991.061l-.025,8.77-22.52,13.087.025-8.77Z"/><path class="h" d="M-468.887,991.061l-22.52,13.087c-4.743,2.756-9.688,3.024-14.016.525s-3.881-5.363.862-8.119l22.52-13.088,4.413,2.548-22.827,13.266c-2.115,1.229-1.99,2.171-.582,2.984s3.034.883,5.15-.347l22.827-13.265Z"/><g class="b"><g class="ad"><g class="b"><path class="v" d="M-491.407,1004.148l-.025,8.77a17.643,17.643,0,0,1-3.437,1.55l.025-8.77a17.636,17.636,0,0,0,3.437-1.55"/><path class="u" d="M-494.844,1005.7l-.025,8.77a14.792,14.792,0,0,1-1.891.477l.025-8.77a14.631,14.631,0,0,0,1.891-.477"/><path class="t" d="M-496.735,1006.175l-.025,8.77q-.546.1-1.088.153l.024-8.77q.543-.054,1.089-.153"/><path class="s" d="M-497.824,1006.328l-.024,8.77c-.283.028-.564.047-.845.057l.025-8.77q.422-.015.844-.057"/><path class="r" d="M-498.668,1006.385l-.025,8.77c-.251.008-.5.01-.751,0l.024-8.77c.25.007.5.005.752,0"/><path class="q" d="M-499.42,1006.388l-.024,8.77c-.24-.006-.478-.018-.716-.038l.025-8.77q.357.03.715.038"/><path class="p" d="M-500.135,1006.35l-.025,8.77q-.361-.03-.721-.081l.025-8.77q.36.051.721.081"/><path class="o" d="M-500.856,1006.269l-.025,8.77c-.257-.036-.514-.081-.769-.134l.025-8.77c.255.053.512.1.769.134"/><path class="n" d="M-501.625,1006.135l-.025,8.77c-.3-.062-.591-.134-.884-.218l.025-8.77c.293.084.588.156.884.218"/><path class="m" d="M-502.509,1005.917l-.025,8.77q-.586-.168-1.162-.4l.025-8.77q.576.228,1.162.4"/><path class="l" d="M-503.671,1005.522l-.025,8.77a13.288,13.288,0,0,1-1.751-.849c-2.012-1.161-2.992-2.4-2.989-3.674l.025-8.77c0,1.272.977,2.513,2.988,3.674a13.169,13.169,0,0,0,1.752.849"/></g></g></g></g><g class="b"><path class="g" d="M-466.782,997.178l-.025,8.77-4.6-2.657.025-8.77Z"/><path class="g" d="M-457.749,1002.393l-.025,8.77-4.619-2.667.025-8.77Z"/><path class="f" d="M-453.518,999.934l-.025,8.77-4.231,2.459.025-8.77Z"/><path class="f" d="M-452.025,1006.864l-.025,8.77-17.091,7.466.025-8.77Z"/><path class="h" d="M-453.518,999.934l-4.231,2.459-4.619-2.667-25.352,14.733-4.413-2.548,25.352-14.733-4.6-2.657,4.231-2.459Z"/><path class="f" d="M-462.369,999.726l-.025,8.77-25.352,14.733.025-8.77Z"/><path class="g" d="M-487.72,1014.459l-.025,8.77-4.413-2.548.025-8.77Z"/><path class="f" d="M-473.675,1016.343l-.025,8.77-6.147,2.677.025-8.77Z"/><path class="g" d="M-479.821,1019.019l-.025,8.77-4.053-2.34.025-8.77Z"/><path class="g" d="M-468.265,1019.466l-.025,8.77-5.409-3.123.025-8.77Z"/><path class="i" d="M-443.335,1005.813l-.025,8.77-25.084,19.789.025-8.77Z"/><path class="g" d="M-468.419,1025.6l-.025,8.77-4.448-2.568.025-8.77Z"/><path class="h" d="M-443.335,1005.813l-25.084,19.79-4.448-2.568,4.6-3.569-5.41-3.123-6.146,2.676-4.053-2.339,34.082-14.594Zm-25.781,8.517,4.259,2.459,12.833-9.925-17.092,7.466"/></g><g class="b"><path class="f" d="M-441.015,1016.6l-.025,8.77-21.428,12.453.025-8.77Z"/><path class="j" d="M-431.3,1012.763l-.025,8.77-13.175,12.909.025-8.77Z"/><path class="g" d="M-462.443,1029.053l-.025,8.77-3.984-2.3.025-8.77Z"/><path class="h" d="M-422.832,1017.651l-29.583,17.192-4.533-2.617,15.933-15.625-21.428,12.453-3.984-2.3,29.583-17.192,5.547,3.2-13.175,12.909,17.709-10.291Z"/><path class="f" d="M-422.832,1017.651l-.025,8.77-29.583,17.192.025-8.77Z"/><path class="g" d="M-452.415,1034.843l-.025,8.77-4.533-2.617.025-8.77Z"/></g></g><g transform="translate(695 -1955.294)"><g transform="translate(278 5968.953)"><g class="b"><g transform="translate(0.041)"><path class="ae" d="M28.048,67.923c10.458-6.131,27.6-6.173,38.225-.1l68.865,39.423c10.616,6.08,10.748,16.011.285,22.141l-68.01,39.866c-10.459,6.131-27.6,6.173-38.225.094l-68.865-39.423c-10.62-6.08-10.748-16.011-.285-22.141ZM131.9,109.145,63.037,69.721c-8.813-5.046-23.055-4.991-31.707.081l-68.01,39.861c-8.686,5.089-8.575,13.32.238,18.366l68.865,39.423c8.783,5.029,23.021,5.012,31.707-.081l68.01-39.861c8.652-5.072,8.545-13.337-.238-18.366" transform="translate(47.726 -63.297)"/></g><g transform="translate(4.644 2.67)"><path class="af" d="M27.81,67.76c8.652-5.072,22.894-5.127,31.707-.081L128.382,107.1c8.783,5.029,8.894,13.294.238,18.366L60.61,165.33c-8.686,5.093-22.924,5.11-31.707.081l-68.865-39.423c-8.813-5.046-8.924-13.277-.238-18.366Z" transform="translate(46.644 -63.925)"/></g><path class="ag" d="M143.217,76.272c0,.259-.043.519-.064.778a8.378,8.378,0,0,1-.1.863c-.038.23-.111.455-.166.68-.072.272-.14.548-.238.821-.077.217-.179.434-.272.65-.123.285-.247.565-.4.846-.111.2-.238.4-.361.6-.2.315-.4.629-.633.94-.136.183-.285.366-.434.544a15.467,15.467,0,0,1-1.178,1.267c-.136.132-.255.268-.4.4-.259.238-.553.463-.833.689-.247.2-.476.4-.74.591-.306.221-.646.434-.978.65s-.625.425-.969.629l-68.01,39.861a28.384,28.384,0,0,1-3.758,1.8c-.353.14-.71.276-1.076.408-.821.3-1.684.54-2.547.787-.889.247-1.781.48-2.7.672-1.05.217-2.1.417-3.189.557-.293.034-.587.089-.884.123-1.492.162-3,.242-4.511.259-.247,0-.493,0-.74,0-1.5-.008-3-.085-4.485-.238-.225-.021-.446-.047-.672-.077a42.213,42.213,0,0,1-4.37-.736c-.247-.055-.489-.119-.735-.179a36.5,36.5,0,0,1-3.694-1.114c-.255-.089-.519-.162-.765-.259a29.385,29.385,0,0,1-4.094-1.913L-39.646,87.755c-4.03-2.309-6.547-5.17-7.551-8.171a9.333,9.333,0,0,1-.5-3.027L-47.736,91.6c-.013,4.06,2.674,8.12,8.048,11.2L29.177,142.22a29.656,29.656,0,0,0,3.809,1.815c.089.038.191.06.281.1.251.094.519.17.774.259.731.259,1.458.531,2.223.748.48.14.978.242,1.467.361.247.06.489.123.736.183.208.043.4.106.612.149.88.183,1.777.336,2.683.463.353.051.718.081,1.076.123.225.026.446.051.672.072.3.03.587.077.884.1.884.072,1.777.119,2.67.14.31.008.621,0,.931,0,.247,0,.489,0,.74,0,.366,0,.736.009,1.105,0,1-.034,2.007-.1,3-.2.136-.013.268-.042.4-.055.3-.034.587-.085.884-.123.727-.094,1.462-.174,2.177-.3.349-.064.667-.183,1.012-.255.923-.191,1.815-.421,2.7-.672.459-.128.948-.2,1.4-.349.4-.128.761-.3,1.148-.438.366-.132.723-.264,1.076-.408a28.381,28.381,0,0,0,3.758-1.8l68.01-39.861.259-.153c.255-.153.472-.319.714-.476.332-.217.667-.429.974-.65.264-.191.5-.4.744-.6.281-.225.57-.446.825-.68.047-.038.1-.077.14-.115.1-.094.17-.2.268-.289a15.313,15.313,0,0,0,1.173-1.258c.072-.089.17-.17.238-.255s.123-.2.2-.293c.23-.306.438-.621.633-.935.077-.132.183-.255.259-.387.038-.072.064-.149.1-.221.149-.276.272-.561.4-.842.068-.162.162-.315.221-.476a1.407,1.407,0,0,0,.051-.179,8.4,8.4,0,0,0,.234-.816c.047-.179.119-.353.153-.531.013-.051.008-.1.017-.149a8.6,8.6,0,0,0,.1-.867c.013-.179.055-.357.06-.54l0-.234h0Z" transform="translate(47.736 -21.109)"/></g></g></g></g></svg>