<svg xmlns="http://www.w3.org/2000/svg" xmlns:xlink="http://www.w3.org/1999/xlink" width="191" height="231.753" viewBox="0 0 191 231.753"><defs><style>.a,.h{fill:none;}.b{isolation:isolate;}.c{fill:#d10000;}.d{fill:#b0b2b2;}.e{fill:#2d2d2c;}.f{fill:#6e7072;}.g,.u{fill:#991d1b;}.g{stroke:#fff;stroke-width:9.089px;}.g,.h{stroke-linejoin:round;}.h{stroke:#831412;stroke-width:4.545px;}.i{fill:#ac2323;}.j{fill:#831412;}.k{fill:#fff;}.l{fill:#a22;}.m{clip-path:url(#a);}.n{fill:#811310;}.o{fill:#ac2322;}.p{clip-path:url(#b);}.q{fill:#8b1815;}.r{fill:#8e1917;}.s{fill:#921a19;}.t{fill:#951c1a;}.v{fill:#9c1e1d;}.w{fill:#a01f1e;}.x{fill:#a3201f;}.y{clip-path:url(#c);}.z{fill:#871614;}.aa{fill:#841512;}.ab{clip-path:url(#d);}.ac{clip-path:url(#e);}.ad{clip-path:url(#f);}.ae{clip-path:url(#g);}.af{fill:#a82221;}.ag{fill:#a72221;}.ah{fill:#a2201f;}</style><clipPath id="a"><path class="a" d="M606.8-40.456l-.024,8.553c0-.41-.355-.779-.988-1.144l.024-8.553C606.45-41.235,606.806-40.866,606.8-40.456Z"/></clipPath><clipPath id="b"><path class="a" d="M612.944-40.39l-.024,8.553c0,1.394-1.27,2.817-3.724,4.244l.024-8.554C611.675-37.573,612.94-39,612.944-40.39Z"/></clipPath><clipPath id="c"><path class="a" d="M605.476-33.971l-.024,8.553c-4.626,2.688-9.248,2.93-13.552.445l.024-8.553C596.228-31.041,600.851-31.283,605.476-33.971Z"/></clipPath><clipPath id="d"><path class="a" d="M621.725-32.168l-.024,8.554c0-.441-.355-.839-.988-1.2-1.373-.793-3.009-.832-5.072.367L615.665-33c2.063-1.2,3.7-1.16,5.073-.367C621.37-33.006,621.727-32.608,621.725-32.168Z"/></clipPath><clipPath id="e"><path class="a" d="M627.816-32.09l-.024,8.553c0,1.427-1.241,2.893-3.675,4.308l.024-8.554C626.575-29.2,627.812-30.663,627.816-32.09Z"/></clipPath><clipPath id="f"><path class="a" d="M598.459-13.667l.024-8.553c0-.513.49-1.084,1.591-1.724l-.024,8.554C598.948-14.75,598.461-14.18,598.459-13.667Z"/></clipPath><clipPath id="g"><path class="a" d="M592.355-13.73l.024-8.553c0,1.275.978,2.518,2.967,3.667,4.221,2.437,9.161,2.243,13.786-.445l-.024,8.554c-4.625,2.688-9.565,2.881-13.786.444C593.332-11.211,592.351-12.455,592.355-13.73Z"/></clipPath></defs><g transform="translate(-1451 -3902.469)"><g class="b" transform="translate(1451.684 3947.479)"><path class="c" d="M115.465,17.616l-7.093-4.095L5.974,73.448c-8.918,5.183-8.871,13.617.106,18.8l123.892,70.781,7.047-4.1L13.127,88.152c-5.063-2.923-5.1-7.682-.059-10.609l102.4-59.927"/></g><g transform="translate(1450.958 3849.877)"><g transform="translate(0.042 52.592)"><g class="b"><g transform="translate(0.045)"><path class="d" d="M75.84,20.152c10.465-6.136,27.615-6.179,38.237-.1l68.876,39.432c10.622,6.081,10.75,16.014.289,22.146L115.217,121.5c-10.465,6.136-27.615,6.179-38.237.1L8.1,82.168c-10.622-6.081-10.75-16.014-.289-22.146ZM179.718,61.383,110.842,21.95c-8.819-5.048-23.061-4.992-31.714.081L11.1,61.9c-8.688,5.09-8.581,13.323.238,18.37L80.216,119.7c8.79,5.031,23.031,5.009,31.719-.081l68.025-39.87c8.654-5.073,8.547-13.34-.242-18.37" transform="translate(-0.053 -15.521)"/></g><g transform="translate(4.648 2.674)"><path class="e" d="M75.607,19.986c8.654-5.073,22.895-5.128,31.714-.081L176.2,59.337c8.79,5.031,8.9,13.3.242,18.37l-68.025,39.87c-8.688,5.09-22.929,5.111-31.719.081L7.82,78.226C-1,73.179-1.106,64.946,7.582,59.856Z" transform="translate(-1.135 -16.15)"/></g><path class="f" d="M191.042,28.5c0,.259-.043.519-.068.778-.026.289-.047.578-.1.863-.043.23-.111.455-.17.68a8.08,8.08,0,0,1-.234.816c-.077.221-.179.434-.272.651-.123.285-.247.57-.4.85-.106.2-.234.4-.357.6-.2.319-.4.634-.638.944-.136.183-.281.366-.429.544a16.2,16.2,0,0,1-1.178,1.267c-.136.132-.259.264-.4.4-.264.234-.553.464-.838.689-.242.2-.476.4-.736.587-.31.225-.651.438-.978.655s-.625.425-.97.629l-68.025,39.87a29.468,29.468,0,0,1-3.759,1.8c-.353.14-.714.276-1.076.408-.821.3-1.684.54-2.551.782-.884.251-1.782.485-2.7.676-1.05.217-2.109.412-3.189.553-.3.038-.587.094-.884.123-1.493.162-3,.247-4.516.264-.247,0-.489,0-.736,0-1.5-.009-3-.089-4.486-.238l-.672-.077a42.993,42.993,0,0,1-4.371-.736c-.247-.055-.489-.119-.736-.179a37.715,37.715,0,0,1-3.7-1.114c-.251-.089-.515-.162-.765-.259a29.625,29.625,0,0,1-4.1-1.914L8.139,39.978c-4.031-2.3-6.553-5.167-7.556-8.169a9.589,9.589,0,0,1-.5-3.028L.042,43.827c-.009,4.061,2.679,8.122,8.054,11.2L76.972,94.456a29.128,29.128,0,0,0,3.81,1.82c.094.038.191.06.285.1.251.094.515.166.77.259.736.259,1.463.532,2.228.748.476.136.978.242,1.467.361.247.06.485.123.736.179.2.047.4.106.612.149.88.183,1.777.34,2.679.468.357.051.719.081,1.08.123.225.025.446.051.672.072.293.03.587.077.884.1.884.077,1.778.123,2.666.145.315.009.625,0,.936,0,.247,0,.489,0,.736,0,.37,0,.74.009,1.11,0,1-.034,2.007-.1,3-.2.136-.013.268-.043.4-.055.3-.034.587-.085.884-.123.727-.094,1.459-.174,2.173-.306.349-.06.672-.179,1.016-.251.923-.191,1.812-.421,2.7-.672.455-.132.948-.2,1.395-.349.4-.128.765-.3,1.152-.438.366-.132.723-.264,1.076-.408a28.643,28.643,0,0,0,3.759-1.8l68.025-39.87.255-.153c.255-.153.476-.319.719-.481.327-.213.668-.425.97-.646.268-.2.5-.4.748-.6.281-.225.57-.446.825-.68.043-.038.1-.077.14-.115.1-.094.17-.2.268-.289a15.255,15.255,0,0,0,1.169-1.259c.072-.089.17-.17.242-.259s.123-.191.2-.289c.23-.31.434-.621.629-.94.081-.128.187-.255.259-.383.043-.072.064-.149.1-.221a8.847,8.847,0,0,0,.4-.842c.072-.162.166-.319.225-.476.021-.06.03-.123.051-.183.1-.268.162-.54.234-.812.047-.179.115-.353.153-.532.009-.051.009-.1.017-.153.051-.285.072-.574.1-.867.017-.179.055-.357.064-.536l0-.238h0Z" transform="translate(-0.042 26.682)"/></g></g></g><g transform="translate(929.329 4109.978)"><path class="g" d="M567.585-32.515l.822.474L568.39-26l4.337,2.5,2-1.577-.008,2.727,4.3,2.485,10.832-6.3.748.432,1.3.748c.359.207.723.367,1.086.537.084.038.166.087.25.124a3.876,3.876,0,0,0-.659,1.173c-.018.051-.032.1-.046.154a2.528,2.528,0,0,0-.067,1.144h0a2.641,2.641,0,0,1-.085-.443l-.024,8.553c0,1.275.977,2.519,2.967,3.667a12.854,12.854,0,0,0,1.673.81c.018.008.035.019.053.026q.573.227,1.159.394c.1.027.2.047.292.072.077.02.153.038.23.056.122.03.243.065.365.091q.386.08.774.135c.124.017.249.028.373.041l.143.016c.07.007.139.018.208.024q.359.029.718.038c.25.006.5.005.752,0h0c.283-.01.567-.028.851-.057.255-.025.51-.067.765-.107h0c.065-.01.131-.016.2-.027h0c.034-.006.068-.008.1-.014.2-.037.4-.107.6-.153.38-.086.76-.169,1.14-.288.043-.013.086-.018.129-.032.332-.108.661-.251.991-.384.191-.076.382-.136.573-.221.271-.121.54-.271.811-.409h0l-.02,7.024V-3h0l4.3,2.485,6.4-3.72-.007,2.483L618.9,3.165l11.724,6.769L633.3,8.381l-.009,3.09,4.3,2.485,5.545-3.222-.019,6.413L647.54,19.7l9.994-12.754,18.858-4.013.024-8.553h0l-4.3-2.484-5.657,1.257.013-4.516h0l-4.3-2.485L659.492-12.3l.009-3.089h0l-7.433-4.291-4.291-2.477h0L645.9-21.061l.006-2.177-13.314-7.687-4.127,2.4-.014,5.228-.757.439c.017-.06.04-.121.052-.181a2.559,2.559,0,0,0,.05-.432v-.064l.024-8.553c0,.036-.022.074-.024.11h0a2.883,2.883,0,0,0-.679-1.935c-.029-.037-.079-.074-.11-.112a5.728,5.728,0,0,0-.816-.82,10.045,10.045,0,0,0-1.339-.912,12.915,12.915,0,0,0-1.515-.741c-.175-.073-.354-.126-.53-.19-.341-.124-.682-.243-1.028-.337-.219-.058-.439-.1-.66-.148-.31-.065-.62-.124-.933-.165-.243-.032-.485-.054-.73-.072q-.441-.031-.887-.031c-.258,0-.515,0-.774.016-.286.017-.572.051-.859.087-.269.033-.537.061-.807.112s-.555.127-.832.2-.552.124-.827.21c-.472.148-.943.326-1.413.524-.04.017-.08.027-.121.045l.012-4.136c0,.039-.025.078-.027.117a2.743,2.743,0,0,0-.678-1.886c-.026-.033-.071-.065-.1-.1a5.887,5.887,0,0,0-.836-.823A10.7,10.7,0,0,0,609.944-44L603.6-47.663l-6.385,3.711.021-7.184v-.2h0l-6.3-3.636L557.7-40.739l-.024,8.553h0l3.952,2.282ZM645.808-7.291v-.194l.911-.53,1.211-.7,2.711,1.566L645.8-4.34ZM635.768-1.65l2.711,1.565-2.863,1.664-.866.5.008-3.09-.048-.028Zm-8.107-29.725a2.7,2.7,0,0,1-.07.325c-.013.03-.03.06-.043.091,0,.009-.014.019-.019.028A2.764,2.764,0,0,0,627.661-31.375Zm-.539,1.081c-.071.1-.109.2-.192.3-.019.023-.046.047-.066.07A4.371,4.371,0,0,0,627.122-30.294Zm-1.292,1.352c.095-.076.164-.153.251-.229l-.007.007c-.069.059-.117.119-.19.178l-.061.05ZM612.783-39.683c-.026.087-.031.174-.059.261-.005.014,0,.027-.009.041-.013.031-.03.062-.044.094l-.018.026-.006.01A2.693,2.693,0,0,0,612.783-39.683Zm-.753,1.333c.079-.093.134-.186.2-.279-.065.087-.1.174-.174.262-.023.026-.051.052-.074.078C612-38.309,612.014-38.329,612.03-38.35Zm-.864.833.011-.01c-.066.056-.114.112-.184.169-.026.02-.05.042-.077.063C611.01-37.369,611.078-37.443,611.166-37.517ZM599.158-23.3h0l-.005,0Zm-.18.155h0c-.017.017-.03.033-.046.05s-.023.019-.032.028C598.924-23.09,598.952-23.116,598.978-23.142Z"/><path class="h" d="M567.585-32.515l.822.474L568.39-26l4.337,2.5,2-1.577-.008,2.727,4.3,2.485,10.832-6.3,2.044,1.18a13.673,13.673,0,0,0,1.336.661,3.045,3.045,0,0,0-.772,2.472,2.641,2.641,0,0,1-.085-.443l-.024,8.553c0,1.275.977,2.519,2.967,3.667A13.015,13.015,0,0,0,597-9.252c.017.007.034.018.051.025q.573.227,1.159.394c.1.027.2.046.292.072.076.02.153.038.23.057.122.029.243.064.366.09q.384.08.773.135c.123.017.247.027.371.041l.147.017c.069.006.137.017.206.023q.359.029.718.038.375.009.752,0h0q.425-.013.851-.057c.255-.025.51-.067.765-.107.068-.011.135-.017.2-.029.034-.006.068-.008.1-.014.2-.037.4-.107.606-.153.38-.087.76-.169,1.139-.288.043-.013.086-.018.129-.032.334-.108.666-.253,1-.386.188-.076.376-.135.563-.219.273-.121.542-.271.813-.409L608.216-3l4.3,2.485,6.4-3.72-.021,7.4,11.724,6.769L633.3,8.381l-.009,3.09,4.3,2.485,5.545-3.222-.019,6.413L647.54,19.7l9.994-12.754,18.858-4.013.024-8.553-4.3-2.485-5.657,1.257.013-4.516-4.3-2.485L659.492-12.3l.009-3.09-11.724-6.769L645.9-21.061l.006-2.177-13.314-7.687-4.127,2.4-.014,5.228-.757.44c.016-.061.04-.122.052-.182a2.547,2.547,0,0,0,.05-.432v-.064l.024-8.553c0,.037-.022.074-.024.111.062-1.314-.9-2.6-2.944-3.781a12.965,12.965,0,0,0-11.916-.494l.012-4.136c0,.039-.025.078-.027.117.068-1.273-.889-2.522-2.973-3.725L603.6-47.663l-6.385,3.711.021-7.385-6.3-3.636L557.7-40.739l-.024,8.553,3.952,2.282ZM635.768-1.65l2.711,1.565L634.75,2.082l.008-3.09-.048-.028ZM645.8-4.339l.009-3.147,2.122-1.233,2.711,1.566Zm-47.3-18,0,.026Zm.663-.955h0l-.006,0Zm-.535.593,0,0Zm.276-.36c.025-.026.053-.053.08-.079-.018.017-.031.033-.047.05S598.908-23.073,598.9-23.064ZM626.93-30c-.019.024-.046.048-.066.072.106-.125.172-.25.26-.374C627.052-30.2,627.014-30.095,626.93-30Zm-1.045,1.009-.063.051c.1-.081.173-.162.266-.243C626.015-29.114,625.963-29.05,625.885-28.986Zm-13.827-9.381c-.022.026-.05.053-.074.079.1-.114.165-.228.25-.342C612.169-38.543,612.133-38.455,612.058-38.367Zm-1.065,1.009-.078.063c.1-.077.171-.155.263-.232C611.111-37.471,611.063-37.415,610.993-37.358Zm-17.913,16.9a5.686,5.686,0,0,0,.618.629A5.686,5.686,0,0,1,593.08-20.461Zm-.536-.962a3.328,3.328,0,0,0,.309.58A3.328,3.328,0,0,1,592.544-21.423Zm1.469,1.9a10.218,10.218,0,0,0,1.333.907A10.218,10.218,0,0,1,594.013-19.523Zm33.578-11.528c-.013.031-.03.061-.043.092,0,.009-.014.019-.019.029a2.94,2.94,0,0,0,.133-.447A2.923,2.923,0,0,1,627.591-31.051ZM621.7-32.219a.966.966,0,0,0-.227-.561A.966.966,0,0,1,621.7-32.219Zm-.283-.617a2.753,2.753,0,0,0-.684-.535A2.753,2.753,0,0,1,621.421-32.836Zm-8.706-6.545c-.013.031-.03.062-.044.094-.006.012-.019.024-.025.036a2.693,2.693,0,0,0,.138-.434A2.615,2.615,0,0,1,612.715-39.381Zm-5.931-1.124a.886.886,0,0,0-.228-.524A.886.886,0,0,1,606.784-40.505Zm-.284-.577a2.934,2.934,0,0,0-.683-.518A2.961,2.961,0,0,1,606.5-41.082Z"/><g class="b"><path class="i" d="M588.741-50.3l-.024,8.553-16.653,7.271.024-8.553Z"/><path class="i" d="M567.609-41.068l-.024,8.553L561.623-29.9l.024-8.553Z"/><path class="j" d="M561.648-38.457l-.024,8.553-3.953-2.282.024-8.553Z"/><path class="j" d="M572.9-38.013l-.024,8.553-5.292-3.056.024-8.553Z"/><path class="k" d="M597.232-51.337l-24.481,19.29-4.337-2.5,4.487-3.462-5.292-3.055-5.961,2.611L557.7-40.739l33.24-14.234Zm-25.143,8.306,4.153,2.4,12.5-9.669-16.652,7.271"/><path class="l" d="M597.232-51.337l-.024,8.553L572.727-23.493l.024-8.553Z"/><path class="j" d="M572.751-32.047l-.024,8.553L568.389-26l.024-8.553Z"/></g><g class="b"><path class="j" d="M605.817-41.6l-.024,8.553-2.043-1.18.024-8.553Z"/><g class="b"><g class="m"><g class="b"><path class="n" d="M606.8-40.456l-.024,8.553c0-.41-.355-.779-.988-1.144l.024-8.553c.633.365.989.734.988,1.144"/></g></g></g><path class="o" d="M603.774-42.78l-.024,8.553-9.767,5.676.024-8.553Z"/><g class="b"><g class="p"><g class="b"><path class="q" d="M612.944-40.39l-.024,8.553v.06l.024-8.553v-.06"/><path class="r" d="M612.943-40.33l-.024,8.553a2.4,2.4,0,0,1-.047.4l.025-8.553a2.385,2.385,0,0,0,.046-.4"/><path class="s" d="M612.9-39.928l-.025,8.553a2.62,2.62,0,0,1-.12.417l.024-8.553a2.619,2.619,0,0,0,.121-.417"/><path class="t" d="M612.776-39.511l-.024,8.553a3.147,3.147,0,0,1-.216.457l.025-8.553a3.245,3.245,0,0,0,.215-.457"/><path class="u" d="M612.561-39.054l-.025,8.553a4.3,4.3,0,0,1-.366.542l.024-8.553a4.385,4.385,0,0,0,.367-.542"/><path class="v" d="M612.194-38.512l-.024,8.553a6.38,6.38,0,0,1-.686.733l.025-8.553a6.455,6.455,0,0,0,.685-.733"/><path class="w" d="M611.509-37.779l-.025,8.553a12.358,12.358,0,0,1-2.017,1.472l.024-8.553a12.37,12.37,0,0,0,2.018-1.472"/><path class="x" d="M609.491-36.307l-.024,8.553c-.089.054-.179.107-.271.161l.024-8.554c.092-.053.182-.106.271-.16"/></g></g></g><path class="o" d="M609.22-36.147l-.024,8.553-3.744,2.176.024-8.553Z"/><path class="j" d="M591.924-33.526l-.024,8.553-2.043-1.18.024-8.553Z"/><g class="b"><g class="y"><g class="b"><path class="x" d="M605.476-33.971l-.024,8.553a17.19,17.19,0,0,1-3.364,1.521l.025-8.553a17.18,17.18,0,0,0,3.363-1.521"/><path class="w" d="M602.113-32.45l-.025,8.553a13.751,13.751,0,0,1-1.771.447L600.342-32a13.833,13.833,0,0,0,1.771-.447"/><path class="v" d="M600.342-32l-.025,8.553q-.507.093-1.013.143l.024-8.553c.337-.034.675-.081,1.014-.143"/><path class="u" d="M599.328-31.86l-.024,8.553c-.265.027-.529.044-.793.053l.025-8.553q.395-.014.792-.053"/><path class="t" d="M598.536-31.807l-.025,8.553q-.351.012-.7,0l.024-8.553q.351.009.7,0"/><path class="s" d="M597.833-31.8l-.024,8.553q-.336-.008-.672-.036l.025-8.553q.335.029.671.036"/><path class="r" d="M597.162-31.84l-.025,8.553c-.227-.018-.454-.044-.68-.076l.024-8.553c.226.032.453.058.681.076"/><path class="q" d="M596.481-31.916l-.024,8.553q-.369-.052-.737-.128l.025-8.553c.244.05.49.093.736.128"/><path class="z" d="M595.745-32.044l-.025,8.553q-.432-.09-.861-.213l.024-8.553q.429.123.862.213"/><path class="aa" d="M594.883-32.257l-.024,8.553q-.576-.165-1.146-.39l.024-8.553q.57.225,1.146.39"/><path class="n" d="M593.737-32.647l-.024,8.553a13.464,13.464,0,0,1-1.813-.879l.024-8.553a13.585,13.585,0,0,0,1.813.879"/></g></g></g><path class="o" d="M589.881-34.706l-.024,8.553-10.832,6.295.024-8.553Z"/><path class="k" d="M609.944-44c4.3,2.485,3.9,5.163-.724,7.851l-3.744,2.176c-4.625,2.688-9.248,2.93-13.552.445l-2.043-1.18-10.832,6.3-4.3-2.485L603.6-47.663Zm-9.071,7.716L605.2-38.8c2.063-1.2,1.992-2.011.618-2.8l-2.043-1.18L594.007-37.1l2.043,1.18c1.374.793,2.776.832,4.823-.358"/><path class="j" d="M579.049-28.411l-.024,8.553-4.3-2.485.024-8.553Z"/></g><g class="b"><g class="b"><g class="ab"><g class="b"><path class="n" d="M621.725-32.168l-.024,8.554c0-.441-.355-.839-.988-1.2a4.42,4.42,0,0,0-.592-.287l.025-8.553a4.474,4.474,0,0,1,.592.287c.632.365.989.763.987,1.2"/><path class="aa" d="M620.146-33.658l-.025,8.553a3.849,3.849,0,0,0-.375-.128l.024-8.553a3.971,3.971,0,0,1,.376.128"/><path class="z" d="M619.77-33.786l-.024,8.553c-.094-.027-.19-.051-.286-.071l.024-8.553c.1.02.192.044.286.071"/><path class="q" d="M619.484-33.857,619.46-25.3c-.082-.017-.164-.031-.247-.043l.024-8.553c.083.012.166.026.247.043"/><path class="r" d="M619.237-33.9l-.024,8.553c-.077-.011-.155-.019-.233-.026L619-33.926c.079.006.156.015.233.026"/><path class="s" d="M619-33.926l-.024,8.553c-.077-.006-.155-.01-.233-.012l.024-8.554c.078,0,.156.007.233.013"/><path class="t" d="M618.771-33.939l-.024,8.554c-.082,0-.165,0-.249,0l.024-8.553c.084,0,.167,0,.249,0"/><path class="u" d="M618.522-33.937l-.024,8.553c-.094,0-.189.009-.285.019l.025-8.553c.1-.01.19-.016.284-.019"/><path class="v" d="M618.238-33.918l-.025,8.553c-.123.012-.248.03-.375.053l.024-8.553c.127-.023.252-.041.376-.053"/><path class="w" d="M617.862-33.865l-.024,8.553a5.364,5.364,0,0,0-.7.176l.024-8.553a5.367,5.367,0,0,1,.7-.176"/><path class="x" d="M617.167-33.689l-.024,8.553a7.668,7.668,0,0,0-1.5.685L615.665-33a7.694,7.694,0,0,1,1.5-.685"/></g></g></g><g class="b"><g class="ac"><g class="b"><path class="q" d="M627.816-32.09l-.024,8.553v.064l.024-8.553v-.064"/><path class="r" d="M627.815-32.026l-.024,8.553a2.547,2.547,0,0,1-.05.432l.025-8.553a2.556,2.556,0,0,0,.049-.432"/><path class="s" d="M627.766-31.594l-.025,8.553a2.791,2.791,0,0,1-.128.445l.024-8.554a2.858,2.858,0,0,0,.129-.444"/><path class="t" d="M627.637-31.15l-.024,8.554a3.387,3.387,0,0,1-.227.483l.024-8.553a3.4,3.4,0,0,0,.227-.484"/><path class="u" d="M627.41-30.666l-.024,8.553a4.583,4.583,0,0,1-.389.575l.024-8.554a4.5,4.5,0,0,0,.389-.574"/><path class="v" d="M627.021-30.092,627-21.538a6.589,6.589,0,0,1-.7.749l.025-8.553a6.665,6.665,0,0,0,.7-.75"/><path class="w" d="M626.321-29.342l-.025,8.553a11.931,11.931,0,0,1-1.935,1.415l.025-8.553a12.032,12.032,0,0,0,1.935-1.415"/><path class="x" d="M624.386-27.927l-.025,8.553-.244.145.024-8.554.245-.144"/></g></g></g><path class="o" d="M615.665-33l-.024,8.553L600.05-15.39l.024-8.553Z"/><g class="b"><g class="ad"><g class="b"><path class="x" d="M600.074-23.944l-.024,8.554-.132.077.025-8.553.131-.078"/><path class="w" d="M599.943-23.866l-.025,8.553a5.585,5.585,0,0,0-.9.65l.024-8.553a5.6,5.6,0,0,1,.9-.65"/><path class="v" d="M599.047-23.216l-.024,8.553a2.622,2.622,0,0,0-.28.3l.024-8.553a2.535,2.535,0,0,1,.28-.3"/><path class="u" d="M598.767-22.917l-.024,8.553a1.649,1.649,0,0,0-.142.209l.024-8.554a1.635,1.635,0,0,1,.142-.208"/><path class="t" d="M598.625-22.709l-.024,8.554a1.145,1.145,0,0,0-.081.171l.024-8.553a1.469,1.469,0,0,1,.081-.172"/><path class="s" d="M598.544-22.537l-.024,8.553a1,1,0,0,0-.044.152l.024-8.553a1,1,0,0,1,.044-.152"/><path class="r" d="M598.5-22.385l-.024,8.553a.911.911,0,0,0-.017.144l.025-8.553a.907.907,0,0,1,.016-.144"/><path class="q" d="M598.484-22.241l-.025,8.553v.021l.024-8.553v-.021"/></g></g></g><path class="o" d="M624.141-27.783l-.024,8.553-15.008,8.722.024-8.553Z"/><path class="k" d="M624.847-35.76c4.221,2.437,3.9,5.3-.706,7.977l-15.009,8.722c-4.625,2.688-9.565,2.882-13.786.445s-3.9-5.3.723-7.987l15.009-8.722C615.687-38,620.627-38.2,624.847-35.76ZM604.529-21.372l15.591-9.06c2.063-1.2,1.991-2.147.618-2.939s-3.01-.832-5.073.367l-15.591,9.06c-2.047,1.19-1.974,2.137-.6,2.93s3.009.832,5.056-.358"/><g class="b"><g class="ae"><g class="b"><path class="x" d="M609.132-19.061l-.024,8.554a16.752,16.752,0,0,1-3.247,1.463l.024-8.553a16.733,16.733,0,0,0,3.247-1.464"/><path class="w" d="M605.885-17.6l-.024,8.553a14.445,14.445,0,0,1-1.874.473l.024-8.553a14.405,14.405,0,0,0,1.874-.473"/><path class="v" d="M604.011-17.124l-.024,8.553q-.535.1-1.07.15l.024-8.553q.534-.052,1.07-.15"/><path class="u" d="M602.941-16.974l-.024,8.553q-.429.043-.855.058l.024-8.553c.284-.01.57-.029.855-.058"/><path class="t" d="M602.086-16.916l-.024,8.553q-.377.012-.752,0l.024-8.553q.375.009.752,0"/><path class="s" d="M601.334-16.913,601.31-8.36q-.36-.009-.718-.038l.024-8.553q.358.029.718.038"/><path class="r" d="M600.616-16.951,600.592-8.4q-.363-.03-.724-.081l.024-8.553q.361.051.724.081"/><path class="q" d="M599.892-17.032l-.024,8.553q-.388-.055-.774-.135l.025-8.554q.384.081.773.136"/><path class="z" d="M599.119-17.168l-.025,8.554q-.445-.093-.887-.219l.024-8.553q.441.126.888.218"/><path class="aa" d="M598.231-17.386l-.024,8.553q-.585-.168-1.159-.394l.025-8.553q.573.227,1.158.394"/><path class="n" d="M597.073-17.78l-.025,8.553a13.03,13.03,0,0,1-1.726-.836c-1.99-1.148-2.971-2.392-2.967-3.667l.024-8.553c0,1.275.978,2.518,2.967,3.667a12.984,12.984,0,0,0,1.727.836"/></g></g></g></g><g class="b"><path class="j" d="M632.966-25.926l-.024,8.553-4.505-2.6.024-8.553Z"/><path class="o" d="M645.9-23.238l-.024,8.553-4.126,2.4.024-8.553Z"/><path class="j" d="M641.775-20.84l-.024,8.553-4.505-2.6.024-8.553Z"/><path class="k" d="M645.9-23.238l-4.126,2.4-4.505-2.6L612.544-9.072l-4.3-2.485,24.726-14.369-4.505-2.6,4.126-2.4Z"/><path class="o" d="M637.27-23.441l-.024,8.553L612.52-.519l.024-8.553Z"/><path class="j" d="M612.544-9.072,612.52-.519,608.216-3l.024-8.553Z"/></g><g class="b"><path class="o" d="M659.5-15.386l-.024,8.553-4.126,2.4.024-8.553Z"/><path class="j" d="M655.374-12.988l-.024,8.553-7.419-4.284.024-8.553Z"/><path class="o" d="M647.955-17.272l-.024,8.553-8.037,4.67.024-8.553Z"/><path class="o" d="M645.814-9.2l-.024,8.553-4.127,2.4.024-8.553Z"/><path class="j" d="M641.687-6.8l-.024,8.553-5.9-3.4.024-8.553Z"/><path class="o" d="M635.792-10.2l-.024,8.553-8.453,4.912.024-8.553Z"/><path class="j" d="M630.649,1.381l-.024,8.553L618.9,3.165l.024-8.553Z"/><path class="o" d="M634.758-1.008l-.024,8.553-4.11,2.388.024-8.553Z"/><path class="k" d="M659.5-15.386l-4.126,2.4-7.419-4.284-8.037,4.67,5.9,3.4-4.127,2.4-5.9-3.4-8.453,4.912,7.419,4.284-4.11,2.388L618.925-5.388l28.852-16.767Z"/></g><g class="b"><path class="o" d="M666.468-11.364l-.024,8.553L653.865,4.5l.024-8.553Z"/><path class="af" d="M676.416-5.62l-.024,8.553L657.534,6.946l.024-8.553Z"/><path class="ag" d="M650.453-.505l-.024,8.553-3.986.764.024-8.553Z"/><path class="o" d="M646.468.259l-.024,8.553-8.852,5.144.024-8.553Z"/><path class="j" d="M637.616,5.4l-.024,8.553-4.3-2.485.024-8.553Z"/><path class="j" d="M647.564,11.147,647.54,19.7l-4.421-2.553.024-8.553Z"/><path class="k" d="M676.416-5.62,657.558-1.607l-9.994,12.754-4.421-2.553,7.311-9.1-3.986.764L637.616,5.4l-4.3-2.485,28.852-16.767,4.3,2.485-12.579,7.31,18.223-4.052Z"/><path class="ah" d="M657.558-1.607l-.024,8.553L647.54,19.7l.024-8.553Z"/></g></g></g></svg>