<svg xmlns="http://www.w3.org/2000/svg" xmlns:xlink="http://www.w3.org/1999/xlink" width="195.58" height="270.943" viewBox="0 0 195.58 270.943"><defs><style>.a,.d{fill:none;}.b{isolation:isolate;}.c{fill:#00b7d1;}.d{stroke:#fff;stroke-width:9.319px;}.d,.e{stroke-linejoin:round;}.e,.h{fill:#fff;}.e{stroke:#155e85;stroke-width:4.66px;}.f{fill:#166fa4;}.g{fill:#08547f;}.i{fill:#166da1;}.j{clip-path:url(#a);}.k{fill:#07527d;}.l{clip-path:url(#b);}.m{fill:#0c5985;}.n{fill:#0d5b88;}.o{fill:#0f5d8b;}.p{fill:#105f8e;}.q{fill:#116292;}.r{fill:#126495;}.s{fill:#136798;}.t{fill:#14699c;}.u{clip-path:url(#c);}.v{fill:#0a5682;}.w{fill:#085480;}.x{fill:#166ca0;}.y{fill:#166c9f;}.z{fill:#14689a;}.aa{clip-path:url(#d);}.ab{clip-path:url(#e);}.ac{clip-path:url(#f);}.ad{clip-path:url(#g);}.ae{clip-path:url(#h);}.af{clip-path:url(#i);}.ag{clip-path:url(#j);}.ah{clip-path:url(#k);}.ai{clip-path:url(#l);}.aj{fill:#156b9f;}.ak{fill:#b0b2b2;}.al{fill:#2d2d2c;}.am{fill:#6e7072;}</style><clipPath id="a"><path class="a" d="M-488.13,424.226l-.025,8.77c0-.449-.4-.859-1.109-1.268l.025-8.77C-488.53,423.367-488.129,423.777-488.13,424.226Z"/></clipPath><clipPath id="b"><path class="a" d="M-481.654,424.485l-.025,8.77c0,1.434-1.262,2.875-3.7,4.292l.025-8.769C-482.916,427.36-481.658,425.919-481.654,424.485Z"/></clipPath><clipPath id="c"><path class="a" d="M-489.194,431.008l-.025,8.77c-4.742,2.756-9.62,2.925-14.29.228l.024-8.77C-498.814,433.933-493.937,433.765-489.194,431.008Z"/></clipPath><clipPath id="d"><path class="a" d="M-414.64,466.289l-.025,8.769c0-.456-.378-.874-1.07-1.274-1.494-.862-3.137-.882-5.253.347a4.536,4.536,0,0,0-2.528,4.364l.025-8.77a4.532,4.532,0,0,1,2.528-4.363c2.116-1.23,3.759-1.21,5.253-.347C-415.019,465.414-414.639,465.832-414.64,466.289Z"/></clipPath><clipPath id="e"><path class="a" d="M-408.4,466.4l-.025,8.77c0,1.466-1.286,2.953-3.77,4.4l.025-8.769C-409.685,469.351-408.4,467.864-408.4,466.4Z"/></clipPath><clipPath id="f"><path class="a" d="M-429.96,472.878l-.025,8.77c0-1.136-.2-2.341-.194-3.57l.024-8.769C-430.158,470.537-429.957,471.742-429.96,472.878Z"/></clipPath><clipPath id="g"><path class="a" d="M-438.923,484.927l.025-8.77c0-.522.482-1.091,1.572-1.724l-.025,8.77C-438.441,483.836-438.922,484.4-438.923,484.927Z"/></clipPath><clipPath id="h"><path class="a" d="M-423.3,473.258l-.025,8.77c-.006,2.175-.648,4.423-4.2,6.489-4.743,2.756-9.808,2.955-14.41.3-2.2-1.271-3.275-2.611-3.271-3.965l.025-8.77c0,1.355,1.07,2.694,3.271,3.965,4.6,2.657,9.667,2.459,14.41-.3C-423.951,477.682-423.309,475.433-423.3,473.258Z"/></clipPath><clipPath id="i"><path class="a" d="M-539.853,437.1l-.025,8.77c0-.608-.5-1.162-1.383-1.672-1.872-1.08-4.064-1.18-6.725.367l.025-8.77c2.661-1.546,4.853-1.447,6.724-.367C-540.354,435.94-539.851,436.494-539.853,437.1Z"/></clipPath><clipPath id="j"><path class="a" d="M-531.749,437.439l-.025,8.77c-.005,1.844-1.559,3.709-4.619,5.486l.025-8.769C-533.308,441.148-531.754,439.283-531.749,437.439Z"/></clipPath><clipPath id="k"><path class="a" d="M-570.059,458.439l.025-8.77c0-.67.617-1.4,2.01-2.212l-.025,8.77C-569.442,457.036-570.057,457.769-570.059,458.439Z"/></clipPath><clipPath id="l"><path class="a" d="M-578.157,458.1l.025-8.77c-.005,1.75,1.381,3.483,4.19,5.105,5.77,3.331,12.308,3.172,18.262-.288l-.025,8.77c-5.954,3.46-12.492,3.619-18.262.287C-576.776,461.584-578.162,459.852-578.157,458.1Z"/></clipPath></defs><g transform="translate(-1342.896 -3659.179)"><g class="b" transform="translate(1325.58 3725.479)"><g transform="translate(18 -3)"><path class="c" d="M115.465,17.616l-7.093-4.095L5.974,73.448c-8.918,5.183-8.871,13.617.106,18.8l123.892,70.781,7.047-4.1L13.127,88.152c-5.063-2.923-5.1-7.682-.059-10.609l102.4-59.927"/></g></g><g transform="translate(1930.756 3403.255)"><path class="d" d="M-397.654,470.933l-4.688-2.706-6.072,3.529.015-5.358c0,.033-.02.065-.022.1a3.011,3.011,0,0,0-.742-2.028c-.032-.04-.086-.079-.119-.119a6.253,6.253,0,0,0-.884-.872,11.289,11.289,0,0,0-1.45-.98,14.371,14.371,0,0,0-1.676-.827c-.268-.112-.54-.186-.81-.279-.294-.1-.586-.216-.883-.3-.374-.1-.752-.162-1.13-.228-.191-.033-.38-.081-.571-.105a12.75,12.75,0,0,0-1.353-.088c-.118,0-.234-.015-.352-.015a13.466,13.466,0,0,0-1.522.1c-.06.008-.12.01-.181.018a13.933,13.933,0,0,0-1.64.323l-.061.014a15.532,15.532,0,0,0-1.7.554h0a17.115,17.115,0,0,0-1.7.776l.021-7.406-6.835-3.946h0l-3.237,1.36-2.445,1.027.015-5.659-4.67-2.7L-448.5,446.4l.013-4.816-4.671-2.7-3.411,1.982.011-3.945h0l-4.688-2.706-27.419,15.934.006-2.008v-.357l.015-.009h0l-.14-.082L-471,437.369l.025-8.759,0,0h0V428.6l-.007,0-4.678-2.7-6.005,3.488.014-4.9c0,.022-.014.044-.014.066a3.048,3.048,0,0,0-.793-2.04c-.022-.027-.06-.054-.084-.081a6.758,6.758,0,0,0-.963-.927,12.544,12.544,0,0,0-1.5-1l-6.886-3.976-6.96,4.045.022-8.05-6.851-3.956-34.34,14.445h0l-.017,6.171,0,1.434c-.427-.122-.856-.208-1.286-.3-.245-.05-.489-.1-.735-.141q-.61-.1-1.224-.149c-.288-.024-.577-.034-.866-.044-.381-.013-.76-.032-1.142-.019a17.587,17.587,0,0,0-1.869.16c-.267.038-.532.1-.8.154-.445.084-.89.178-1.334.3-.271.073-.54.157-.81.243q-.7.222-1.387.5c-.228.092-.456.178-.683.279a21.3,21.3,0,0,0-2.027,1.025l-.005,0-19.312,11.223c-.41.238-.787.479-1.143.72-.071.048-.133.1-.2.145-.293.2-.568.411-.821.618l-.1.086c-1.595,1.332-2.375,2.7-2.325,4.045a1.163,1.163,0,0,1-.019-.13l-.025,8.769h0a3.48,3.48,0,0,0,.258,1.307,4.467,4.467,0,0,0,.325.649,9.867,9.867,0,0,0,3.607,3.148,18.673,18.673,0,0,0,2.352,1.139c.044.017.086.045.13.063q.8.315,1.617.549c.081.023.162.038.243.059s.192.047.288.072h0c.171.043.341.085.512.125.066.015.131.035.2.049.349.072.7.133,1.051.183l.03,0c.08.011.16.018.24.027h0c.065.009.129.015.193.022h0c.173.02.345.044.518.058.321.026.643.044.966.052h0c.205.005.411,0,.616,0h.183c.069,0,.138,0,.207,0,.374-.013.747-.038,1.121-.076.221-.022.442-.062.664-.093l.039-.005h0c.123-.018.244-.032.367-.052.1-.016.2-.023.295-.041.28-.051.558-.147.838-.211.144-.033.288-.06.431-.1l-.015,5.207v.03h0l2.644,1.527,2.645,1.527,7.339-4.265-.024,8.488,6.045,3.49,4.221-2.453-.014,4.882,15.558,8.983,2.567-1.492-.009,2.969,5.873,3.391,4.238-2.463-.013,4.9h0l5.289,3.053h0l7.339-4.265-.024,8.489,6.045,3.49,4.238-2.463-.014,4.849v.052h0l16.022,9.25,5.3-3.084.025-8.77h0l-2.591-1.5,3.3-1.919,8.054,4.65,5.306-3.083.025-8.77-.5-.287,2.773-1.611,6.434,3.715,3.715,2.144h0l2.653-1.542,2.653-1.541.024-8.77-2.014-1.163.256.014.047,0h0c.2,0,.4,0,.6,0,.032,0,.063,0,.1,0h.083c.29-.01.581-.029.871-.058.167-.017.334-.047.5-.07.06-.01.119-.017.179-.026.081-.012.162-.02.243-.034.052-.009.1-.012.155-.022.228-.041.454-.119.682-.172l.1-.024-.011,3.818v.084h0l4.688,2.707,29.583-17.192.025-8.77h0ZM-481.8,425.162a1.961,1.961,0,0,0-.044.2c-.019.054-.013.108-.035.162-.012.028-.027.056-.04.084A2.819,2.819,0,0,0-481.8,425.162Zm-.684,1.3c.047-.071.1-.143.147-.214-.074.1-.117.208-.2.313l-.013.014-.026.027C-482.543,426.559-482.524,426.513-482.487,426.466Zm-1,1c.031-.03.063-.059.1-.089-.075.065-.13.13-.21.2l-.037.03C-483.578,427.555-483.539,427.51-483.485,427.465Zm-85.964,21.055-.019.02c-.016.017-.041.034-.056.051.028-.031.065-.063.1-.094h0Zm53.112-3.626,3.213-1.866,7.4-4.3,2.216,1.279a15.433,15.433,0,0,0,1.933.937l.008,0h0l-1.046.607-2.638,1.533.019.011-.021,7.454-5.037-2.908-4.976,2.892-1.089.632Zm14.359,8.863-1.955,1.137-1.133.658,0-1.244.007-2.328Zm-30.056-14.975-.014.03c.008-.018.012-.036.019-.054C-532.032,438.766-532.031,438.774-532.034,438.782Zm4.274,3.478-4.009,2.33.02-7.151a.165.165,0,0,1-.009.044,3.381,3.381,0,0,0-.132-.956l-.008-.031a4.929,4.929,0,0,0-1.152-1.935c-.018-.019-.034-.038-.051-.057a9.176,9.176,0,0,0-1.027-.946l4.537-1.949,1.1.634.106.061,0,.407-.016,5.788h0l3.57,2.061Zm5.029-1.8.271-.218.967-.777-.005,1.707Zm8.717,48.08-3.143-1.815h0l3.144,1.815Zm31.262-26.87-.006,1.894-22.727,13.207-11.663,6.778.009-2.961-5.306,3.084,0,0,5.31-3.086-2.107-1.217,24.265-14.1.021-7.459,2.066,1.193,2.05-1.191-.007,2.371h0l4.689,2.707,3.411-1.983Zm10.675,8.035-.555-.32-4.238,2.463.007-2.461.007-2.432.006,0-.006,0v0h0l-.1-.058,4.9-2.847Zm-14.06-15.588h0l10.237-5.949,6.208-3.608Zm28.735,6.38,5.691-1.129-.7.3-6.357,2.671Zm-8.991,12.49-.213-.123.214-.288Zm11.66,6.732-.2-.118-4.283-2.473h0l-6.065,3.524,0-1.054.014-4.649.837.484,2.328,1.344,6.164-2.648,1.22.7Zm.737,5.335.01-3.591.853.493,2.241,1.294Zm7-.866-2.072-1.2,3.866-3.108-.014,4.964a2.743,2.743,0,0,0,.082.415Zm3.26-5.472-.006-.006h0l0,0,0,0Zm5.279-3.442,0,0h0c-.013.014-.034.028-.046.042.021-.023.05-.047.072-.07Zm.237-.213h0l0,0,.026-.023Zm.646-.469c-.052.032-.1.064-.147.1-.1.066-.216.133-.3.2.129-.1.3-.2.456-.3Zm7.451-6.047c-.025.294-.031.587-.029.879,0-.04-.007-.078-.007-.117l-.014,5.144v0a4.246,4.246,0,0,1-.275.727c-.018.035-.042.069-.06.1a3.988,3.988,0,0,1-.384.6c-.072.091-.167.177-.25.266a4.609,4.609,0,0,1-.411.418,6.523,6.523,0,0,1-.934.656,7.343,7.343,0,0,1-1.435.648,5.209,5.209,0,0,1-1.306.244l.014-4.917h0l-.976-.564,2.4-1.927,3.8-3.055A6.826,6.826,0,0,0-430.119,468.547Zm3.856,10.382c-.012.011-.023.021-.037.032l-.046.03-.024.016a13.094,13.094,0,0,1-1.136.74,12.48,12.48,0,0,0,1.3-.868C-426.225,478.9-426.241,478.913-426.263,478.929Zm.948-.813c-.029.033-.057.066-.092.1-.134.126-.3.25-.449.375.211-.175.408-.351.587-.528l.025-.022C-425.27,478.065-425.289,478.091-425.315,478.116Zm.823-.944a2.332,2.332,0,0,1-.132.2c-.038.049-.092.1-.132.145s-.076.08-.111.12c.091-.106.17-.213.251-.319.061-.078.131-.155.185-.234C-424.452,477.111-424.47,477.142-424.492,477.172Zm.407-.611-.005.008c-.034.057-.078.113-.113.169.087-.144.156-.289.227-.433.027-.055.061-.109.086-.164C-423.954,476.281-424.007,476.421-424.085,476.561Zm.495-1.234c-.04.137-.065.275-.116.412-.011.03-.029.06-.041.09.069-.177.116-.355.166-.533Zm1.746-9.347h0l-.11.1c-.014.013-.035.024-.049.036C-421.953,466.067-421.9,466.024-421.844,465.98Zm-.815.835.042-.051-.007.01,0,.005c-.009.013-.022.024-.031.037Zm-.408.7c-.011.024-.019.048-.029.072s-.016.035-.025.053l-.008.018C-423.11,467.613-423.089,467.565-423.067,467.518Zm-.275.821,0,.015c-.006.027-.017.052-.022.078.009-.039.022-.076.031-.115Zm5.806,5.9-.008,2.817-5.779,3.359v-.26l.009-3.242c.027-.1.048-.2.082-.292s.071-.177.11-.265.077-.178.122-.265l.009-.018c.049-.093.109-.185.168-.277s.107-.169.169-.251.132-.157.2-.235c.089-.1.18-.2.284-.3.035-.034.078-.067.115-.1l.076-.066a6.217,6.217,0,0,1,.82-.6c.06-.037.107-.076.17-.113a7.547,7.547,0,0,1,.791-.361,7.872,7.872,0,0,1,.736-.337,5.048,5.048,0,0,1,1.321-.257l.021,0c.141-.006.269.035.4.042.06.009.121.013.181.019Zm7.154-4.679c-.019.014-.036.029-.054.044.07-.056.125-.112.184-.168.026-.021.046-.043.07-.064C-410.253,469.439-410.306,469.5-410.382,469.565Zm1.073-1.03c-.012.014-.029.029-.041.044l-.016.017c.105-.123.169-.247.257-.371C-409.182,468.328-409.223,468.431-409.309,468.535Zm.678-1.078v.005c-.013.031-.03.063-.045.094v0l-.01.015a2.85,2.85,0,0,0,.132-.458A2.973,2.973,0,0,1-408.631,467.457Z"/><path class="e" d="M-410.437,478.362l12.783-7.429-4.688-2.706-6.072,3.529.015-5.358c0,.033-.02.065-.021.1.056-1.366-.976-2.717-3.2-4a13.608,13.608,0,0,0-13.585-.049l.021-7.406-6.835-3.946-5.683,2.387.016-5.659-4.67-2.7L-448.5,446.4l.013-4.817-4.671-2.7-3.411,1.982.011-3.945h0l-4.688-2.706-27.419,15.934.007-2.365.015-.009-.14-.082L-471,437.369l.025-8.759,0,0h0V428.6l-.007,0-4.678-2.7-6.005,3.488.014-4.9c0,.022-.014.044-.014.066.04-1.366-1.043-2.726-3.34-4.052l-6.886-3.976-6.96,4.045.022-8.05-6.851-3.956-34.34,14.445-.021,7.606a17.947,17.947,0,0,0-14.165,2.012l-19.313,11.223c-3.435,2-4.9,4.1-4.475,6.17a3.47,3.47,0,0,1-.135-.686l-.025,8.77c-.005,1.75,1.381,3.482,4.19,5.1a18.684,18.684,0,0,0,2.353,1.139c.044.017.086.045.129.062q.8.316,1.617.55c.081.023.162.038.243.06.1.026.192.047.289.071.236.059.471.125.708.174.349.072.7.133,1.051.183.09.013.18.019.27.03l.193.022c.173.02.345.044.518.058.321.026.643.044.966.052.205.005.411,0,.617,0h.182c.069,0,.138,0,.207,0,.374-.013.747-.038,1.121-.076.234-.023.468-.065.7-.1.122-.018.244-.032.367-.052.1-.016.2-.023.295-.041.28-.05.557-.147.837-.211.144-.033.288-.059.432-.1l-.015,5.237,5.289,3.054,7.339-4.265-.024,8.489,6.045,3.489,4.221-2.453-.014,4.882,15.558,8.983,2.567-1.492-.008,2.969,5.872,3.391,4.239-2.463-.014,4.9,5.289,3.053,7.339-4.265-.024,8.489,6.045,3.49,4.238-2.463-.014,4.9,16.022,9.25,5.3-3.084.025-8.77-2.591-1.5,3.3-1.919,8.054,4.65,5.306-3.083.025-8.77-.5-.287,2.773-1.611,10.149,5.859,5.306-3.083.024-8.77-2.014-1.163c.1.005.2.014.3.016.2,0,.4,0,.6,0,.032,0,.064,0,.1,0h.083c.29-.01.581-.029.871-.058.226-.023.453-.061.679-.1.081-.012.161-.02.242-.034.052-.009.1-.012.156-.022.229-.041.457-.119.685-.173l.1-.023-.011,3.9,4.688,2.707,29.583-17.192.025-8.77-12.784,7.429Zm-66.419-11.412v0h0l-.1-.058,4.9-2.847-.016,5.663-.555-.32-4.238,2.463.014-4.893.006,0Zm55.7,7.294c.06-.037.107-.076.17-.113a8.061,8.061,0,0,1,1.528-.7,5.08,5.08,0,0,1,1.319-.256l.022,0a4.028,4.028,0,0,1,.586.061l-.011,3.826-5.779,3.359.01-3.5c.027-.1.048-.2.082-.292s.071-.177.11-.265.081-.19.131-.283.109-.184.168-.276.107-.17.169-.253.132-.156.2-.234c.089-.1.18-.2.284-.3.059-.056.127-.111.191-.166A6.217,6.217,0,0,1-421.158,474.244Zm10.776-4.679c-.019.014-.036.029-.054.044.1-.078.167-.156.257-.234C-410.252,469.438-410.3,469.5-410.382,469.565Zm-19.677,1.539c.045.542.081,1.075.089,1.594C-429.978,472.178-430.014,471.648-430.059,471.1Zm7.431-4.325c-.009.013-.022.024-.031.037.013-.018.029-.035.042-.053Zm-.468.811c-.011.024-.024.048-.034.073.02-.05.042-.1.065-.148C-423.077,467.54-423.086,467.565-423.1,467.59Zm-.251.765c-.006.029-.018.057-.024.086.009-.042.024-.082.034-.124Zm-.132,1.063c0-.065,0-.13.008-.193C-423.476,469.288-423.477,469.353-423.479,469.418Zm-.226,6.32c-.012.031-.03.061-.042.092.069-.179.116-.357.166-.536C-423.622,475.442-423.651,475.59-423.7,475.738Zm-.185.4c-.064.14-.117.28-.195.419-.033.06-.082.119-.118.179a6.085,6.085,0,0,0,.315-.6Zm-.734,1.228c-.038.049-.092.1-.132.145s-.077.08-.112.12a6.874,6.874,0,0,0,.438-.553C-424.5,477.177-424.549,477.274-424.624,477.369Zm-.783.846c-.134.126-.3.251-.451.377.221-.184.429-.367.614-.552C-425.3,478.1-425.345,478.156-425.407,478.215Zm-.893.746c-.023.016-.051.032-.074.049a13.164,13.164,0,0,1-1.132.737,12.94,12.94,0,0,0,1.3-.868C-426.238,478.906-426.264,478.934-426.3,478.961Zm-3.848-9.534c0-.04-.007-.078-.007-.118l-.014,5.144a4.53,4.53,0,0,1-2.315,2.776,6.065,6.065,0,0,1-2.741.892l.014-4.917-.976-.564,6.2-4.982A7.992,7.992,0,0,0-430.148,469.427Zm-24.585,10.294-4.487-2.591-6.065,3.524.016-5.7,3.166,1.828,6.164-2.648,1.22.7Zm-11.66-6.732-.213-.123.214-.288Zm27.5,3.1,0,.023Zm1.321-1.491c-.156.1-.321.2-.447.294.13-.1.3-.2.457-.3Zm-.645.469,0,0,.026-.023Zm-.24.216c-.013.013-.034.028-.046.042.021-.023.05-.047.072-.07Zm-.333.452.016-.034Zm-4.949,2.981.008.008-.008-.008Zm1.822,1.333a11.841,11.841,0,0,1-1.462-.986A11.841,11.841,0,0,0-441.916,480.045Zm-12.07,1.42,3.094,1.786-3.1,1.8Zm8.788-1.579-.014,4.964a2.743,2.743,0,0,0,.082.415l-3.934-2.271Zm19.434,7.383,12.493-7.26h0l-12.493,7.26Zm17.132-19.807c-.013.031-.03.063-.045.1,0,.005-.008.011-.011.017a2.843,2.843,0,0,0,.132-.46A2.71,2.71,0,0,1-408.632,467.462Zm-.475.761c-.074.1-.115.207-.2.311-.018.021-.041.042-.059.062C-409.26,468.472-409.2,468.347-409.107,468.223Zm-5.555-1.987a1,1,0,0,0-.246-.589A1,1,0,0,1-414.662,466.236Zm-.3-.644a3.109,3.109,0,0,0-.746-.578A3.109,3.109,0,0,1-414.964,465.592Zm-6.88.388c-.038.032-.073.064-.11.1-.014.012-.035.023-.049.035C-421.953,466.067-421.9,466.024-421.844,465.98Zm-36.925-3.644,1.367-1.837,5.691-1.129Zm-27.368-8.217h0l17.192-9.991Zm-18.919-2.139,3.078,1.777-3.088,1.8Zm-.2-1.427-5.037-2.908-6.065,3.524.018-6.275,10.612-6.167,2.216,1.279a15.433,15.433,0,0,0,1.933.937l.009.005-3.684,2.14.019.011Zm21.655-22.982-.037.03c.093-.075.161-.15.248-.225C-483.463,427.441-483.518,427.506-483.6,427.571Zm-37.9,13.6-1.234-.712,1.239-.995Zm-3.337-.614-6.934,4.03.02-7.151c0,.024-.015.049-.016.074.034-1.342-.748-2.673-2.368-3.954l4.542-1.95,1.2.695-.018,6.2Zm-7.2-1.778c-.012.029-.028.059-.041.088a3.662,3.662,0,0,0,.144-.575A3.35,3.35,0,0,1-532.034,438.782Zm-.838,1.359c-.012.015-.029.03-.042.045a5.7,5.7,0,0,0,.322-.488C-532.694,439.845-532.751,439.994-532.872,440.141Zm-1.312,1.273-.038.031c.125-.1.212-.2.327-.3C-534,441.231-534.073,441.323-534.184,441.414Zm-34.149,6.246c-.2.126-.412.254-.574.377.168-.127.382-.258.59-.389Zm-.823.6-.005,0,.043-.039Zm-.733.852c.007-.014.013-.029.02-.043C-569.876,449.081-569.882,449.1-569.889,449.11Zm88.007-23.587c-.012.028-.027.057-.04.085a2.748,2.748,0,0,0,.119-.448A2.618,2.618,0,0,1-481.882,425.523Zm-.455.724c-.075.106-.118.212-.206.317-.012.014-.028.028-.04.042A4.321,4.321,0,0,0-482.337,426.247Zm-5.813-2.065a.964.964,0,0,0-.263-.594A.967.967,0,0,1-488.15,424.182Zm-.307-.634a3.381,3.381,0,0,0-.782-.59A3.381,3.381,0,0,1-488.457,423.548ZM-539.9,436.884a1.192,1.192,0,0,0-.039-.194A1.192,1.192,0,0,1-539.9,436.884Zm-.194-.462a1.678,1.678,0,0,0-.107-.171A1.678,1.678,0,0,1-540.092,436.422Zm-.4-.451c-.052-.047-.09-.1-.148-.14C-540.579,435.876-540.541,435.924-540.489,435.971Zm-28.937,12.524-.041.044c-.016.017-.042.035-.057.052C-569.495,448.559-569.457,448.527-569.426,448.495Zm-.6,1.065,0,.034Zm-7.861,1.026a4.863,4.863,0,0,0,.453.785A4.905,4.905,0,0,1-577.885,450.586Zm.772,1.311a8.293,8.293,0,0,0,.863.851A8.394,8.394,0,0,1-577.113,451.9Zm1.313,1.287a15.159,15.159,0,0,0,1.858,1.253A15.159,15.159,0,0,1-575.8,453.184Zm53.352,30.488,5.31-3.086-2.107-1.217,24.265-14.1.021-7.459,2.066,1.193,2.05-1.191-.007,2.371,4.689,2.707,3.411-1.983-.008,2.66-34.39,19.985.009-2.961-5.306,3.084Zm5.291,3.055h0l3.144,1.815h0Z"/><g class="b"><path class="f" d="M-507.744,413.46l-.025,8.77-17.195,7.386.025-8.77Z"/><path class="f" d="M-529.566,422.839l-.025,8.77-6.164,2.647.025-8.77Z"/><path class="g" d="M-535.73,425.486l-.025,8.77-4.293-2.479.025-8.77Z"/><path class="g" d="M-523.83,426.15l-.025,8.77-5.736-3.311.025-8.77Z"/><path class="h" d="M-498.832,412.518l-24.826,19.938-4.722-2.726,4.55-3.58-5.736-3.311-6.164,2.647-4.293-2.478,34.34-14.446Zm-26.106,8.328,4.5,2.6,12.7-9.984-17.194,7.386"/><path class="i" d="M-498.832,412.518l-.025,8.77-24.826,19.938.025-8.77Z"/><path class="g" d="M-523.658,432.456l-.025,8.77L-528.4,438.5l.025-8.77Z"/></g><g class="b"><path class="g" d="M-489.239,422.958l-.025,8.77-2.215-1.279.025-8.77Z"/><g class="b"><g class="j"><g class="b"><path class="k" d="M-488.13,424.226l-.025,8.77c0-.449-.4-.859-1.109-1.268l.025-8.77c.709.409,1.11.819,1.109,1.268"/></g></g></g><path class="f" d="M-491.454,421.679l-.025,8.77-10.014,5.82.025-8.77Z"/><g class="b"><g class="l"><g class="b"><path class="m" d="M-481.654,424.485l-.025,8.77v.064l.025-8.77v-.064"/><path class="n" d="M-481.655,424.549l-.025,8.77a2.575,2.575,0,0,1-.048.425l.024-8.77a2.47,2.47,0,0,0,.049-.425"/><path class="o" d="M-481.7,424.974l-.024,8.77a2.741,2.741,0,0,1-.126.435l.025-8.77a2.734,2.734,0,0,0,.125-.435"/><path class="p" d="M-481.829,425.409l-.025,8.77a3.355,3.355,0,0,1-.222.473l.025-8.77a3.355,3.355,0,0,0,.222-.473"/><path class="q" d="M-482.051,425.882l-.025,8.77a4.452,4.452,0,0,1-.382.564l.025-8.77a4.453,4.453,0,0,0,.382-.564"/><path class="r" d="M-482.433,426.446l-.025,8.77a6.4,6.4,0,0,1-.691.739l.025-8.77a6.5,6.5,0,0,0,.691-.739"/><path class="s" d="M-483.124,427.185l-.025,8.77a12.189,12.189,0,0,1-1.974,1.44l.025-8.77a12.191,12.191,0,0,0,1.974-1.44"/><path class="t" d="M-485.1,428.625l-.025,8.77c-.084.051-.17.1-.257.152l.025-8.769.257-.153"/></g></g></g><path class="f" d="M-485.355,428.778l-.025,8.77-3.839,2.231.025-8.77Z"/><path class="g" d="M-503.485,431.237l-.025,8.77-2.215-1.279.025-8.77Z"/><g class="b"><g class="u"><g class="b"><path class="t" d="M-489.194,431.008l-.025,8.77a16.97,16.97,0,0,1-3.288,1.488l.024-8.77a16.948,16.948,0,0,0,3.289-1.488"/><path class="s" d="M-492.483,432.5l-.024,8.77a14.388,14.388,0,0,1-1.841.465l.025-8.77a14.167,14.167,0,0,0,1.84-.465"/><path class="r" d="M-494.323,432.961l-.025,8.77q-.516.093-1.032.145l.025-8.77q.516-.051,1.032-.145"/><path class="q" d="M-495.355,433.106l-.025,8.77q-.418.042-.836.056l.024-8.77q.418-.013.837-.056"/><path class="p" d="M-496.192,433.162l-.024,8.77c-.25.009-.5.01-.749,0l.025-8.77q.375.009.748,0"/><path class="o" d="M-496.94,433.166l-.025,8.77q-.36-.009-.72-.039l.025-8.77q.36.03.72.039"/><path class="n" d="M-497.66,433.127l-.025,8.77q-.369-.03-.736-.082l.024-8.77c.246.035.491.062.737.082"/><path class="m" d="M-498.4,433.045l-.024,8.77q-.4-.057-.8-.139l.024-8.77q.4.082.8.139"/><path class="v" d="M-499.193,432.906l-.024,8.77q-.477-.1-.951-.234l.025-8.77q.474.135.95.234"/><path class="w" d="M-500.143,432.672l-.025,8.77q-.636-.181-1.269-.431l.025-8.77q.633.249,1.269.431"/><path class="k" d="M-501.412,432.241l-.025,8.77a15.443,15.443,0,0,1-2.072-1l.024-8.77a15.51,15.51,0,0,0,2.073,1.005"/></g></g></g><path class="f" d="M-505.7,429.958l-.025,8.77-11.106,6.454.025-8.77Z"/><path class="h" d="M-485.008,420.5c4.671,2.7,4.379,5.532-.347,8.279l-3.839,2.23c-4.743,2.757-9.62,2.925-14.291.228l-2.215-1.278-11.106,6.454-4.671-2.7,29.583-17.192Zm-9.164,7.991,4.436-2.578c2.116-1.229,1.991-2.092.5-2.954l-2.215-1.279-10.015,5.82,2.216,1.279c1.494.862,2.966.942,5.081-.288"/><path class="g" d="M-516.806,436.412l-.025,8.77-4.671-2.7.025-8.77Z"/></g><g class="b"><path class="f" d="M-470.978,428.6l-.025,8.77-25.369,14.743.025-8.77Z"/><path class="h" d="M-470.975,428.608l-25.356,14.729,7.693,4.443-4.232,2.458-12.38-7.151,29.588-17.187Z"/><path class="f" d="M-488.654,447.784l-.025,8.77L-492.893,459l.025-8.77Z"/><path class="g" d="M-492.868,450.232l-.025,8.77-12.364-7.138.025-8.77Z"/></g><g class="b"><path class="h" d="M-456.554,436.927l-29.583,17.191-4.688-2.707,29.583-17.191Z"/><path class="f" d="M-456.554,436.927l-.025,8.77-29.583,17.192.025-8.77Z"/><path class="g" d="M-486.137,454.119l-.025,8.77-4.688-2.707.025-8.77Z"/></g><g class="b"><path class="f" d="M-448.483,441.587l-.025,8.77-12.9,7.5.025-8.77Z"/><path class="x" d="M-437.682,447.823l-.025,8.77-19.7,3.906.025-8.77Z"/><path class="y" d="M-464.834,452.76l-.025,8.77-4.155.744.025-8.77Z"/><path class="f" d="M-468.99,453.5l-.025,8.77-9.076,5.274.025-8.77Z"/><path class="g" d="M-478.066,458.779l-.025,8.77-4.671-2.7.025-8.77Z"/><path class="g" d="M-467.264,465.015l-.025,8.77-4.791-2.766.025-8.77Z"/><path class="h" d="M-437.682,447.823l-19.7,3.906-9.887,13.285-4.791-2.766,7.221-9.488-4.155.744-9.076,5.274-4.671-2.7,29.583-17.192,4.671,2.7-12.9,7.5,19.028-3.956Z"/><path class="z" d="M-457.378,451.729l-.025,8.77-9.887,13.285.025-8.77Z"/></g><g class="b"><path class="f" d="M-434.093,455.982l-.025,8.77-17.195,7.386.025-8.77Z"/><path class="f" d="M-455.914,465.362l-.025,8.77-6.164,2.647.025-8.77Z"/><path class="g" d="M-462.078,468.009l-.025,8.77L-466.4,474.3l.025-8.77Z"/><path class="g" d="M-450.162,468.683l-.025,8.77-5.753-3.321.025-8.77Z"/><path class="h" d="M-425.18,455.041l-24.809,19.947-4.723-2.726,4.55-3.579-5.752-3.321-6.164,2.647-4.294-2.479,34.357-14.435Zm-26.107,8.328,4.516,2.607,12.678-9.994-17.194,7.387"/><path class="i" d="M-425.18,455.041l-.025,8.77-24.809,19.948.025-8.77Z"/><path class="g" d="M-449.989,474.988l-.025,8.77-4.722-2.726.025-8.77Z"/></g><g class="b"><g class="b"><g class="aa"><g class="b"><path class="k" d="M-414.64,466.289l-.025,8.769c0-.456-.378-.874-1.07-1.274a5.115,5.115,0,0,0-.663-.322l.025-8.769a4.872,4.872,0,0,1,.663.322c.691.4,1.071.817,1.07,1.274"/><path class="w" d="M-416.373,464.693l-.025,8.769c-.131-.051-.264-.1-.4-.135l.025-8.77c.134.039.267.084.4.136"/><path class="v" d="M-416.771,464.557l-.025,8.77c-.1-.028-.2-.053-.3-.074l.025-8.769c.1.02.2.045.3.073"/><path class="m" d="M-417.07,464.484l-.025,8.769c-.084-.017-.169-.032-.254-.044l.025-8.77c.085.012.17.027.254.045"/><path class="n" d="M-417.324,464.439l-.025,8.77c-.079-.011-.157-.02-.237-.027l.025-8.769c.079.006.158.015.237.026"/><path class="o" d="M-417.561,464.413l-.025,8.769c-.078-.006-.157-.01-.236-.012l.025-8.77c.079,0,.158.006.236.013"/><path class="p" d="M-417.8,464.4l-.025,8.77c-.083,0-.166,0-.25,0l.024-8.77c.085,0,.168,0,.251,0"/><path class="q" d="M-418.048,464.4l-.024,8.77c-.1,0-.19.01-.286.019l.025-8.77c.1-.009.191-.016.285-.019"/><path class="r" d="M-418.333,464.42l-.025,8.77c-.124.013-.249.03-.376.053l.025-8.769c.127-.024.252-.041.376-.054"/><path class="s" d="M-418.709,464.474l-.025,8.769a5.66,5.66,0,0,0-.7.178l.025-8.769a5.291,5.291,0,0,1,.7-.178"/><path class="t" d="M-419.412,464.652l-.025,8.769a8.055,8.055,0,0,0-1.551.71l-.085.051.025-8.77c.028-.017.056-.034.085-.05a7.935,7.935,0,0,1,1.551-.71"/><path class="s" d="M-421.048,465.412l-.025,8.77a6.212,6.212,0,0,0-1.018.746l.024-8.77a6.266,6.266,0,0,1,1.019-.746"/><path class="r" d="M-422.067,466.158l-.024,8.77a4.644,4.644,0,0,0-.513.548l.025-8.77a4.638,4.638,0,0,1,.512-.548"/><path class="q" d="M-422.579,466.706l-.025,8.77a4.063,4.063,0,0,0-.348.52l.025-8.77a4.066,4.066,0,0,1,.348-.52"/><path class="p" d="M-422.927,467.226l-.025,8.77a4.025,4.025,0,0,0-.258.555l.025-8.77a4.077,4.077,0,0,1,.258-.555"/><path class="o" d="M-423.185,467.781l-.025,8.77a4.494,4.494,0,0,0-.194.689l.025-8.77a4.493,4.493,0,0,1,.194-.689"/><path class="n" d="M-423.379,468.47l-.025,8.77a6.184,6.184,0,0,0-.109,1.06l.024-8.77a6.184,6.184,0,0,1,.11-1.06"/><path class="m" d="M-423.489,469.53l-.024,8.77q0,.1,0,.2l.025-8.77c0-.065,0-.13,0-.2"/></g></g></g><g class="b"><g class="ab"><g class="b"><path class="m" d="M-408.4,466.4l-.025,8.77v.065l.025-8.77V466.4"/><path class="n" d="M-408.4,466.463l-.025,8.77a2.613,2.613,0,0,1-.05.438l.025-8.769a2.634,2.634,0,0,0,.05-.439"/><path class="o" d="M-408.45,466.9l-.025,8.769a2.944,2.944,0,0,1-.13.451l.025-8.77a3.046,3.046,0,0,0,.13-.45"/><path class="p" d="M-408.58,467.352l-.025,8.77a3.589,3.589,0,0,1-.23.489l.025-8.77a3.588,3.588,0,0,0,.23-.489"/><path class="q" d="M-408.81,467.841l-.025,8.77a4.628,4.628,0,0,1-.394.582l.025-8.77a4.628,4.628,0,0,0,.394-.582"/><path class="r" d="M-409.2,468.423l-.025,8.77a6.617,6.617,0,0,1-.712.761l.025-8.77a6.706,6.706,0,0,0,.712-.761"/><path class="s" d="M-409.916,469.184l-.025,8.77a12.313,12.313,0,0,1-2,1.459l.025-8.77a12.313,12.313,0,0,0,2-1.459"/><path class="t" d="M-411.913,470.643l-.025,8.77c-.083.05-.169.1-.256.151l.025-8.769c.087-.051.172-.1.256-.152"/></g></g></g><path class="f" d="M-412.169,470.795l-.025,8.77-.921.535.025-8.77Z"/><path class="g" d="M-413.09,471.33l-.025,8.77-4.43-2.558.025-8.77Z"/><g class="b"><g class="ac"><g class="b"><path class="k" d="M-429.96,472.878l-.025,8.77c0-1.136-.2-2.341-.194-3.57l.024-8.769c0,1.228.2,2.433.2,3.569"/></g></g></g><path class="f" d="M-435.211,473.2l-.025,8.77-2.116,1.229.025-8.77Z"/><g class="b"><g class="ad"><g class="b"><path class="t" d="M-437.326,474.433l-.025,8.77-.126.075.025-8.77.126-.075"/><path class="s" d="M-437.452,474.508l-.025,8.77a5.424,5.424,0,0,0-.881.64l.025-8.77a5.381,5.381,0,0,1,.881-.64"/><path class="r" d="M-438.333,475.148l-.025,8.77a2.549,2.549,0,0,0-.276.3l.024-8.77a2.565,2.565,0,0,1,.277-.295"/><path class="q" d="M-438.61,475.443l-.024,8.77a1.591,1.591,0,0,0-.144.212l.025-8.77a1.682,1.682,0,0,1,.143-.212"/><path class="p" d="M-438.753,475.655l-.025,8.77a1.235,1.235,0,0,0-.082.174l.025-8.77a1.131,1.131,0,0,1,.082-.174"/><path class="o" d="M-438.835,475.829l-.025,8.77a.953.953,0,0,0-.045.157l.024-8.77a1.068,1.068,0,0,1,.046-.157"/><path class="n" d="M-438.881,475.986l-.024,8.77a.844.844,0,0,0-.018.149l.025-8.77a.963.963,0,0,1,.017-.149"/><path class="m" d="M-438.9,476.135l-.025,8.77v.022l.025-8.77v-.022"/></g></g></g><g class="b"><g class="ae"><g class="b"><path class="m" d="M-423.3,473.258l-.025,8.77c0,.088,0,.176,0,.265l.025-8.77c0-.089,0-.177,0-.265"/><path class="n" d="M-423.307,473.523l-.025,8.77a7.679,7.679,0,0,1-.136,1.282l.025-8.77a7.774,7.774,0,0,0,.136-1.282"/><path class="o" d="M-423.443,474.8l-.025,8.77a6.045,6.045,0,0,1-.267.951l.024-8.77a5.943,5.943,0,0,0,.268-.951"/><path class="p" d="M-423.711,475.756l-.024,8.77a5.894,5.894,0,0,1-.383.823l.024-8.77a5.625,5.625,0,0,0,.383-.823"/><path class="q" d="M-424.094,476.579l-.024,8.77a6.3,6.3,0,0,1-.538.8l.024-8.77a6.2,6.2,0,0,0,.538-.8"/><path class="r" d="M-424.632,477.38l-.024,8.77a7.692,7.692,0,0,1-.819.882l.025-8.77a7.593,7.593,0,0,0,.818-.882"/><path class="s" d="M-425.45,478.262l-.025,8.77a11.294,11.294,0,0,1-1.878,1.38l.025-8.77a11.291,11.291,0,0,0,1.878-1.38"/><path class="t" d="M-427.328,479.642l-.025,8.77-.178.105A16.965,16.965,0,0,1-430.823,490l.025-8.769a17.031,17.031,0,0,0,3.292-1.486l.178-.105"/><path class="s" d="M-430.8,481.233l-.025,8.769a14.577,14.577,0,0,1-1.9.48l.025-8.769a14.741,14.741,0,0,0,1.9-.48"/><path class="r" d="M-432.7,481.713l-.025,8.769q-.539.1-1.077.152l.025-8.77q.539-.054,1.077-.151"/><path class="q" d="M-433.776,481.864l-.025,8.77c-.29.029-.581.048-.871.058l.025-8.769c.29-.01.581-.03.871-.059"/><path class="p" d="M-434.647,481.923l-.025,8.769c-.259.009-.517.011-.776,0l.025-8.77c.259.007.517.006.776,0"/><path class="o" d="M-435.423,481.926l-.025,8.77q-.372-.009-.743-.04l.025-8.77q.37.032.743.04"/><path class="n" d="M-436.166,481.886l-.025,8.77c-.252-.02-.5-.049-.754-.084l.024-8.77q.376.054.755.084"/><path class="m" d="M-436.921,481.8l-.024,8.77q-.409-.059-.816-.142l.025-8.77q.406.084.815.142"/><path class="v" d="M-437.736,481.66l-.025,8.77q-.48-.1-.957-.236l.025-8.77q.477.137.957.236"/><path class="w" d="M-438.693,481.424l-.025,8.77q-.635-.182-1.26-.428l.025-8.77q.625.246,1.26.428"/><path class="k" d="M-439.953,481l-.025,8.77a14.857,14.857,0,0,1-1.963-.951c-2.2-1.271-3.275-2.611-3.271-3.965l.025-8.77c0,1.355,1.07,2.694,3.271,3.965a14.738,14.738,0,0,0,1.963.951"/></g></g></g><path class="h" d="M-411.616,462.5c4.55,2.628,4.19,5.542-.553,8.3l-.921.535-4.43-2.558,1.228-.714c2.115-1.229,2.076-2.181.582-3.043s-3.137-.883-5.253.347c-6.09,3.539,1.9,9.478-6.543,14.385-4.743,2.757-9.808,2.955-14.41.3-4.585-2.647-4.276-5.592.466-8.348l1.809-1.051,4.43,2.558-2.115,1.229c-2.1,1.22-1.939,2.2-.445,3.064s3.189.952,5.287-.268c6.091-3.539-1.919-9.488,6.526-14.4C-421.215,460.077-416.167,459.869-411.616,462.5Z"/></g><g class="b"><path class="h" d="M-397.654,470.934l-29.583,17.191-4.688-2.707,29.583-17.191Z"/><path class="f" d="M-397.653,470.933l-.025,8.77-29.583,17.192.025-8.77Z"/><path class="g" d="M-427.236,488.125l-.025,8.77-4.688-2.707.025-8.77Z"/></g><g class="b"><g class="b"><g class="af"><g class="b"><path class="k" d="M-539.853,437.1l-.025,8.77c0-.608-.5-1.162-1.383-1.672a6.448,6.448,0,0,0-.854-.413l.025-8.77a6.368,6.368,0,0,1,.853.413c.883.51,1.386,1.064,1.384,1.672"/><path class="w" d="M-542.09,435.017l-.025,8.77c-.172-.068-.348-.128-.526-.179l.025-8.77q.267.076.526.179"/><path class="v" d="M-542.616,434.838l-.025,8.77c-.132-.038-.266-.071-.4-.1l.025-8.769c.135.028.269.061.4.1"/><path class="m" d="M-543.017,434.74l-.025,8.769c-.112-.023-.226-.043-.34-.059l.025-8.77c.114.017.228.036.34.06"/><path class="n" d="M-543.357,434.68l-.025,8.77c-.1-.015-.211-.027-.319-.035l.025-8.77c.107.009.214.02.319.035"/><path class="o" d="M-543.676,434.645l-.025,8.77c-.1-.009-.21-.015-.316-.017l.025-8.77c.106,0,.212.008.316.017"/><path class="p" d="M-543.992,434.628l-.025,8.77c-.111,0-.222,0-.335,0l.025-8.77c.113,0,.224,0,.335,0"/><path class="q" d="M-544.327,434.629l-.025,8.77c-.126,0-.254.013-.383.026l.025-8.77c.129-.013.257-.021.383-.026"/><path class="r" d="M-544.71,434.655l-.025,8.77c-.163.016-.328.039-.495.07l.025-8.77c.167-.03.332-.054.495-.07"/><path class="s" d="M-545.205,434.725l-.025,8.77a7.149,7.149,0,0,0-.9.227l.025-8.769a6.947,6.947,0,0,1,.9-.228"/><path class="t" d="M-546.1,434.953l-.025,8.769a9.563,9.563,0,0,0-1.856.845l.025-8.77a9.5,9.5,0,0,1,1.856-.844"/></g></g></g><g class="b"><g class="ag"><g class="b"><path class="m" d="M-531.749,437.439l-.025,8.77c0,.028,0,.057,0,.086l.025-8.77c0-.029,0-.057,0-.086"/><path class="n" d="M-531.75,437.525l-.025,8.77a3.428,3.428,0,0,1-.065.568l.024-8.77a3.437,3.437,0,0,0,.066-.568"/><path class="o" d="M-531.816,438.093l-.024,8.77a3.727,3.727,0,0,1-.168.58l.025-8.769a3.63,3.63,0,0,0,.167-.581"/><path class="p" d="M-531.983,438.674l-.025,8.769a4.5,4.5,0,0,1-.3.633l.025-8.77a4.5,4.5,0,0,0,.3-.632"/><path class="q" d="M-532.28,439.306l-.025,8.77a5.807,5.807,0,0,1-.5.735l.025-8.77a5.736,5.736,0,0,0,.5-.735"/><path class="r" d="M-532.778,440.041l-.025,8.77a8.3,8.3,0,0,1-.892.954l.025-8.77a8.388,8.388,0,0,0,.892-.954"/><path class="s" d="M-533.67,440.995l-.025,8.77a14.789,14.789,0,0,1-2.4,1.754l.025-8.77a14.829,14.829,0,0,0,2.4-1.754"/><path class="t" d="M-536.07,442.749l-.025,8.77c-.1.059-.2.118-.3.176l.025-8.769.3-.177"/></g></g></g><path class="f" d="M-547.961,435.8l-.025,8.77-20.063,11.659.025-8.77Z"/><g class="b"><g class="ah"><g class="b"><path class="t" d="M-568.024,447.457l-.025,8.77-.159.093.025-8.769c.052-.032.1-.063.159-.094"/><path class="s" d="M-568.183,447.551l-.025,8.769a6.9,6.9,0,0,0-1.122.816l.025-8.77a6.9,6.9,0,0,1,1.122-.815"/><path class="r" d="M-569.3,448.366l-.025,8.77a3.243,3.243,0,0,0-.356.381l.025-8.77a3.241,3.241,0,0,1,.356-.381"/><path class="q" d="M-569.661,448.747l-.025,8.77a2.138,2.138,0,0,0-.186.273l.025-8.769a2.069,2.069,0,0,1,.186-.274"/><path class="p" d="M-569.847,449.021l-.025,8.769a1.7,1.7,0,0,0-.106.226l.025-8.77a1.52,1.52,0,0,1,.106-.225"/><path class="o" d="M-569.953,449.246l-.025,8.77a1.315,1.315,0,0,0-.058.2l.025-8.77a1.207,1.207,0,0,1,.058-.2"/><path class="n" d="M-570.011,449.448l-.025,8.77a1.169,1.169,0,0,0-.023.193l.025-8.77a1.169,1.169,0,0,1,.023-.193"/><path class="m" d="M-570.034,449.641l-.025,8.77v.028l.025-8.77v-.028"/></g></g></g><path class="f" d="M-536.368,442.926l-.025,8.77-19.312,11.223.025-8.77Z"/><path class="h" d="M-535.931,432.347c5.77,3.331,5.517,7.119-.437,10.579l-19.312,11.223c-5.954,3.46-12.492,3.619-18.262.288s-5.534-7.129.42-10.589l19.312-11.223C-548.255,429.165-541.7,429.016-535.931,432.347Zm-26,18.629,20.063-11.659c2.661-1.547,2.483-2.816.628-3.887-1.871-1.08-4.063-1.179-6.724.367l-20.063,11.66c-2.662,1.546-2.484,2.815-.612,3.9,1.855,1.071,4.046,1.17,6.708-.377"/><g class="b"><g class="ai"><g class="b"><path class="t" d="M-555.68,454.149l-.025,8.77a20.726,20.726,0,0,1-4.016,1.807l.024-8.769a20.772,20.772,0,0,0,4.017-1.808"/><path class="s" d="M-559.7,455.957l-.024,8.769a18.512,18.512,0,0,1-2.417.609l.024-8.77a18.58,18.58,0,0,0,2.417-.608"/><path class="r" d="M-562.114,456.565l-.024,8.77q-.683.123-1.365.191l.025-8.769q.683-.069,1.364-.192"/><path class="q" d="M-563.478,456.757l-.025,8.769c-.374.038-.747.063-1.121.076l.025-8.77q.559-.02,1.121-.075"/><path class="p" d="M-564.6,456.832l-.025,8.77q-.5.017-1.006.005l.025-8.77c.335.008.67.007,1.006-.005"/><path class="o" d="M-565.6,456.837l-.025,8.77q-.484-.012-.966-.052l.025-8.77q.481.041.966.052"/><path class="n" d="M-566.571,456.785l-.025,8.77q-.492-.04-.981-.11l.025-8.77c.326.047.653.083.981.11"/><path class="m" d="M-567.552,456.675l-.025,8.77c-.351-.05-.7-.111-1.051-.183l.025-8.77q.523.109,1.051.183"/><path class="v" d="M-568.6,456.492l-.025,8.77q-.623-.129-1.24-.3l.025-8.77q.618.177,1.24.3"/><path class="w" d="M-569.843,456.187l-.025,8.77q-.815-.232-1.617-.549l.025-8.77q.8.316,1.617.549"/><path class="k" d="M-571.46,455.638l-.025,8.77a18.724,18.724,0,0,1-2.482-1.2c-2.809-1.622-4.2-3.354-4.19-5.1l.025-8.77c-.005,1.75,1.381,3.483,4.19,5.105a18.849,18.849,0,0,0,2.482,1.2"/></g></g></g></g><g class="b"><path class="f" d="M-528.666,448.914l-.025,8.77-26.9,15.635.025-8.77Z"/><path class="aj" d="M-516.335,444.155l-.025,8.77-16.2,16.418.025-8.77Z"/><path class="g" d="M-555.57,464.549l-.025,8.77-5.289-3.054.025-8.77Z"/><path class="h" d="M-505.053,450.669l-37.158,21.594-6.045-3.49,19.589-19.859-26.9,15.635-5.289-3.054L-523.7,439.9l7.367,4.253-16.2,16.418,22.247-12.928Z"/><path class="f" d="M-505.053,450.669l-.025,8.77-37.158,21.594.025-8.77Z"/><path class="g" d="M-542.21,472.263l-.025,8.77-6.045-3.49.025-8.77Z"/></g><g class="b"><path class="f" d="M-494.955,456.5l-.025,8.77-31.852,18.51.025-8.77Z"/><path class="h" d="M-494.956,456.5-526.8,475.007l9.664,5.579-5.315,3.089-15.553-8.979,37.161-21.6Z"/><path class="f" d="M-517.139,480.591l-.025,8.77-5.306,3.083.025-8.77Z"/><path class="g" d="M-522.445,483.674l-.025,8.77-15.558-8.982.025-8.77Z"/></g><g class="b"><path class="h" d="M-476.85,466.953l-37.155,21.592-5.888-3.4,37.155-21.592Z"/><path class="f" d="M-476.856,466.948l-.025,8.77-37.158,21.594.025-8.77Z"/><path class="g" d="M-514.014,488.542l-.025,8.77-5.873-3.391.025-8.77Z"/></g><g class="b"><path class="f" d="M-477.6,478.4l-.025,8.77-26.9,15.635.025-8.77Z"/><path class="aj" d="M-465.265,473.64l-.025,8.77-16.2,16.418.025-8.77Z"/><path class="g" d="M-504.5,494.034l-.025,8.77-5.289-3.054.025-8.77Z"/><path class="h" d="M-453.983,480.154l-37.158,21.594-6.045-3.49L-477.6,478.4l-26.9,15.635-5.289-3.054,37.158-21.594,7.367,4.253-16.2,16.418,22.247-12.928Z"/><path class="f" d="M-453.983,480.154l-.025,8.77-37.158,21.594.025-8.77Z"/><path class="g" d="M-491.14,501.748l-.025,8.77-6.045-3.49.025-8.77Z"/></g><g class="b"><path class="f" d="M-433.737,491.843l-.025,8.77-5.306,3.083.025-8.77Z"/><path class="g" d="M-439.043,494.926l-.025,8.77-10.149-5.859.025-8.77Z"/><path class="f" d="M-449.191,489.067l-.025,8.77-10.356,6.018.025-8.77Z"/><path class="f" d="M-451.493,499.735l-.025,8.77-5.306,3.083.025-8.77Z"/><path class="g" d="M-456.8,502.818l-.025,8.77-8.054-4.65.025-8.77Z"/><path class="f" d="M-464.853,498.169l-.025,8.77-10.885,6.325.025-8.77Z"/><path class="g" d="M-470.895,513.437l-.025,8.77-16.022-9.25.025-8.77Z"/><path class="f" d="M-465.589,510.353l-.025,8.77-5.306,3.083.025-8.77Z"/><path class="h" d="M-433.737,491.843l-5.306,3.083-10.149-5.859-10.356,6.018,8.054,4.65-5.306,3.083-8.054-4.65-10.885,6.325,10.149,5.859-5.306,3.083-16.022-9.25,37.158-21.594Z"/></g></g><g transform="translate(1347.523 3609)"><g transform="translate(0 50.179)"><g class="b"><g transform="translate(0.041)"><path class="ak" d="M75.892,458.871c10.459-6.131,27.6-6.173,38.225-.094L182.981,498.2c10.616,6.08,10.748,16.011.285,22.141L115.256,560.2c-10.459,6.13-27.6,6.173-38.225.094L8.167,520.874c-10.62-6.08-10.748-16.011-.285-22.141Zm103.854,41.222-68.865-39.419c-8.813-5.046-23.055-5-31.707.077l-68.01,39.861c-8.686,5.089-8.575,13.32.238,18.366L80.267,558.4c8.783,5.03,23.021,5.012,31.707-.076l68.01-39.866c8.656-5.072,8.545-13.337-.238-18.366" transform="translate(-0.118 -454.245)"/></g><g transform="translate(4.644 2.672)"><path class="al" d="M75.654,458.706c8.656-5.072,22.894-5.123,31.707-.077l68.865,39.419c8.783,5.03,8.894,13.294.238,18.366l-68.01,39.866c-8.686,5.089-22.924,5.106-31.707.076L7.882,516.934c-8.813-5.047-8.924-13.277-.238-18.366Z" transform="translate(-1.2 -454.874)"/></g><path class="am" d="M191.061,467.22c0,.26-.043.519-.064.778a8.384,8.384,0,0,1-.1.863c-.038.229-.111.455-.166.68-.072.276-.14.548-.238.821-.077.217-.179.434-.272.65-.123.285-.247.565-.4.846-.111.2-.238.4-.361.6-.2.315-.4.629-.633.944-.136.183-.285.361-.434.54a14.817,14.817,0,0,1-1.178,1.267c-.136.132-.255.268-.4.4-.259.238-.553.464-.833.693-.247.2-.476.4-.74.587-.306.221-.646.438-.978.651s-.625.425-.969.629l-68.01,39.861a28.377,28.377,0,0,1-3.758,1.8c-.353.145-.71.276-1.076.408-.821.3-1.684.54-2.547.786-.889.247-1.781.48-2.7.672-1.05.217-2.1.417-3.189.557-.293.038-.587.089-.884.123-1.492.162-3,.242-4.511.26-.247,0-.493,0-.74,0-1.5-.009-3-.085-4.485-.238-.225-.021-.446-.047-.672-.077a42.2,42.2,0,0,1-4.37-.735c-.247-.055-.489-.119-.735-.179a36.569,36.569,0,0,1-3.694-1.114c-.255-.089-.519-.162-.765-.255a29.9,29.9,0,0,1-4.094-1.917L8.2,478.7c-4.03-2.309-6.547-5.17-7.551-8.167a9.377,9.377,0,0,1-.5-3.031L.108,482.551c-.013,4.056,2.674,8.12,8.048,11.194l68.865,39.423a29.1,29.1,0,0,0,3.809,1.815c.089.038.191.064.285.1.247.1.514.17.77.259.731.263,1.458.531,2.223.752.48.136.978.238,1.467.357.247.06.489.128.735.183.208.043.4.106.612.149.88.183,1.777.336,2.683.468.353.047.718.076,1.076.119l.672.077c.3.029.587.072.884.1.884.072,1.777.119,2.67.14.31.008.621,0,.931,0,.247,0,.489,0,.74,0,.366,0,.735.009,1.105,0,1.008-.034,2.007-.1,3-.2.136-.013.268-.038.4-.055.3-.034.587-.085.884-.123.727-.094,1.462-.174,2.177-.3.349-.064.667-.183,1.012-.255.923-.191,1.815-.421,2.7-.672.459-.128.948-.2,1.4-.349.4-.128.761-.293,1.148-.438.366-.132.723-.264,1.076-.408a28.352,28.352,0,0,0,3.758-1.794l68.01-39.866.259-.153c.255-.153.472-.319.714-.476.332-.217.667-.425.974-.65.264-.191.5-.4.744-.6.281-.225.57-.446.825-.68.047-.038.1-.076.14-.115.1-.093.17-.191.268-.289a15.327,15.327,0,0,0,1.173-1.258c.072-.085.17-.17.238-.255s.123-.2.2-.289c.23-.31.438-.625.633-.939.077-.132.183-.255.259-.387.038-.072.064-.145.1-.217.149-.281.272-.561.4-.846.068-.161.162-.315.221-.476a1.411,1.411,0,0,0,.051-.178,8.408,8.408,0,0,0,.234-.816c.047-.174.119-.353.153-.531.013-.047.008-.1.017-.149a8.6,8.6,0,0,0,.1-.867c.013-.179.055-.357.06-.536l0-.238h0Z" transform="translate(-0.108 -412.058)"/></g></g></g></g></svg>