<svg xmlns="http://www.w3.org/2000/svg" xmlns:xlink="http://www.w3.org/1999/xlink" width="193.617" height="269.783" viewBox="0 0 193.617 269.783"><defs><style>.a,.d{fill:none;}.b{isolation:isolate;}.c{fill:#00b7d1;}.d{stroke:#fff;stroke-width:9.319px;}.d,.e{stroke-linejoin:round;}.e,.h{fill:#fff;}.e{stroke:#155e85;stroke-width:4.66px;}.f{fill:#166fa4;}.g{fill:#08547f;}.i{fill:#166da2;}.j{clip-path:url(#a);}.k{fill:#07527d;}.l{fill:#085480;}.m{fill:#0a5682;}.n{fill:#0c5985;}.o{fill:#0d5b88;}.p{fill:#0f5d8b;}.q{fill:#105f8e;}.r{fill:#116292;}.s{fill:#126495;}.t{fill:#136798;}.u{fill:#14699c;}.v{clip-path:url(#b);}.w{clip-path:url(#c);}.x{clip-path:url(#d);}.y{clip-path:url(#e);}.z{clip-path:url(#f);}.aa{clip-path:url(#g);}.ab{clip-path:url(#h);}.ac{clip-path:url(#i);}.ad{clip-path:url(#j);}.ae{clip-path:url(#k);}.af{clip-path:url(#l);}.ag{clip-path:url(#m);}.ah{clip-path:url(#n);}.ai{clip-path:url(#o);}.aj{clip-path:url(#p);}.ak{clip-path:url(#q);}.al{clip-path:url(#r);}.am{clip-path:url(#s);}.an{clip-path:url(#t);}.ao{clip-path:url(#u);}.ap{clip-path:url(#v);}.aq{clip-path:url(#w);}.ar{clip-path:url(#x);}.as{clip-path:url(#y);}.at{clip-path:url(#z);}.au{clip-path:url(#aa);}.av{clip-path:url(#ab);}.aw{clip-path:url(#ac);}.ax{clip-path:url(#ad);}.ay{clip-path:url(#ae);}.az{clip-path:url(#af);}.ba{clip-path:url(#ag);}.bb{clip-path:url(#ah);}.bc{clip-path:url(#ai);}.bd{clip-path:url(#aj);}.be{clip-path:url(#ak);}.bf{clip-path:url(#al);}.bg{clip-path:url(#am);}.bh{fill:#b0b2b2;}.bi{fill:#2d2d2c;}.bj{fill:#6e7072;}</style><clipPath id="a"><path class="a" d="M-492.368,619.374l-.025,8.77c0-.432-.348-.822-.983-1.189-1.391-.8-3-.8-5.115.426a4.9,4.9,0,0,0-2.68,4.844l.025-8.769a4.9,4.9,0,0,1,2.68-4.844c2.115-1.23,3.724-1.23,5.115-.427C-492.716,618.552-492.367,618.943-492.368,619.374Z"/></clipPath><clipPath id="b"><path class="a" d="M-486.3,619.281l-.025,8.77c0,1.466-1.323,2.977-3.868,4.456l.025-8.77C-487.625,622.258-486.306,620.747-486.3,619.281Z"/></clipPath><clipPath id="c"><path class="a" d="M-507.556,625.476l-.025,8.77c0-.712-.046-1.448-.044-2.2l.025-8.77C-507.6,624.028-507.554,624.764-507.556,625.476Z"/></clipPath><clipPath id="d"><path class="a" d="M-516.448,638.207l.025-8.769c0-.52.5-1.1,1.627-1.755l-.025,8.77C-515.951,637.11-516.447,637.688-516.448,638.207Z"/></clipPath><clipPath id="e"><path class="a" d="M-501.1,625.672l-.025,8.77c-.007,2.309-.5,4.746-4.425,7.028-4.725,2.746-9.687,3.024-14.015.525-2.009-1.16-2.986-2.4-2.982-3.673l.025-8.77c0,1.272.973,2.513,2.982,3.674,4.327,2.5,9.29,2.22,14.015-.526C-501.6,630.418-501.107,627.982-501.1,625.672Z"/></clipPath><clipPath id="f"><path class="a" d="M-477.224,628.48l-.025,8.77c0-.422-.368-.8-1.013-1.174l.025-8.77C-477.592,627.679-477.223,628.058-477.224,628.48Z"/></clipPath><clipPath id="g"><path class="a" d="M-470.93,628.547l-.025,8.77c0,1.429-1.3,2.888-3.818,4.351l.025-8.77C-472.232,631.436-470.934,629.976-470.93,628.547Z"/></clipPath><clipPath id="h"><path class="a" d="M-478.587,635.129l-.025,8.77c-4.743,2.756-9.483,3-13.9.456l.025-8.77C-488.07,638.133-483.33,637.885-478.587,635.129Z"/></clipPath><clipPath id="i"><path class="a" d="M-454.249,641.777l-.025,8.77c0-.422-.338-.816-1.012-1.205l.025-8.77C-454.587,640.961-454.248,641.355-454.249,641.777Z"/></clipPath><clipPath id="j"><path class="a" d="M-447.612,641.938l-.025,8.77c0,1.306-1.214,2.613-3.562,3.977l.025-8.769C-448.826,644.551-447.616,643.244-447.612,641.938Z"/></clipPath><clipPath id="k"><path class="a" d="M-467.807,649.524l-.025,8.77c0-.543-.466-1.049-1.362-1.566l.025-8.77C-468.273,648.476-467.806,648.981-467.807,649.524Z"/></clipPath><clipPath id="l"><path class="a" d="M-453.495,647.264l-.024,8.77a12.509,12.509,0,0,1-8.891,1.824l.025-8.77A12.505,12.505,0,0,0-453.495,647.264Z"/></clipPath><clipPath id="m"><path class="a" d="M-461.96,650.372l-.024,8.77c0,1.366-1.444,2.69-3.8,4.06l.025-8.77C-463.4,653.062-461.963,651.738-461.96,650.372Z"/></clipPath><clipPath id="n"><path class="a" d="M-470.333,657.089l-.025,8.77a9.979,9.979,0,0,0-3.1,2.36l.025-8.77A10,10,0,0,1-470.333,657.089Z"/></clipPath><clipPath id="o"><path class="a" d="M-421.969,660.011l-.025,8.77c0-.426-.345-.813-.976-1.177-1.408-.813-3.017-.813-5.133.416a4.886,4.886,0,0,0-2.674,4.822l.025-8.77a4.885,4.885,0,0,1,2.674-4.822c2.116-1.229,3.724-1.229,5.133-.416C-422.314,659.2-421.968,659.585-421.969,660.011Z"/></clipPath><clipPath id="p"><path class="a" d="M-415.9,659.917l-.025,8.77c0,1.467-1.328,2.977-3.878,4.459l.025-8.77C-417.232,662.894-415.908,661.384-415.9,659.917Z"/></clipPath><clipPath id="q"><path class="a" d="M-437.156,666.147l-.025,8.77c0-.73-.05-1.484-.047-2.253l.024-8.77C-437.206,664.663-437.154,665.417-437.156,666.147Z"/></clipPath><clipPath id="r"><path class="a" d="M-446.053,678.847l.025-8.77c0-.52.493-1.1,1.621-1.755l-.025,8.77C-445.56,677.748-446.051,678.327-446.053,678.847Z"/></clipPath><clipPath id="s"><path class="a" d="M-430.7,666.345l-.025,8.77c-.007,2.3-.505,4.731-4.417,7-4.726,2.746-9.688,3.024-14.032.515-2.01-1.16-2.986-2.4-2.983-3.673l.025-8.77c0,1.272.973,2.513,2.983,3.673,4.344,2.509,9.306,2.231,14.032-.515C-431.207,671.076-430.709,668.648-430.7,666.345Z"/></clipPath><clipPath id="t"><path class="a" d="M-545.089,631.263l-.024,8.769c-1.58-.912-3.378-.961-5.749.417l.025-8.77C-548.466,630.3-546.668,630.35-545.089,631.263Z"/></clipPath><clipPath id="u"><path class="a" d="M-554.859,643.74l.024-8.77c0-.626.6-1.315,1.967-2.111l-.024,8.77C-554.263,642.425-554.858,643.114-554.859,643.74Z"/></clipPath><clipPath id="v"><path class="a" d="M-560.582,642.471l.024-8.77a2.787,2.787,0,0,0,.515,1.557l-.025,8.77A2.777,2.777,0,0,1-560.582,642.471Z"/></clipPath><clipPath id="w"><path class="a" d="M-557.879,639.531l-.025,8.77c-2.25-1.3-4.372-1.219-7.46.575l.025-8.77C-562.251,638.312-560.129,638.233-557.879,639.531Z"/></clipPath><clipPath id="x"><path class="a" d="M-570.278,652.661l.025-8.77c0-.594.564-1.257,1.843-2l-.025,8.77C-569.714,651.4-570.276,652.067-570.278,652.661Z"/></clipPath><clipPath id="y"><path class="a" d="M-578.157,652.769l.025-8.769c0,1.028.731,1.989,2.236,2.858a10.239,10.239,0,0,0,7.588.922l-.025,8.77a10.239,10.239,0,0,1-7.588-.922C-577.426,654.759-578.16,653.8-578.157,652.769Z"/></clipPath><clipPath id="z"><path class="a" d="M-561.929,649.8l-.025,8.769a10.9,10.9,0,0,0-3.494,2.648l.025-8.77A10.9,10.9,0,0,1-561.929,649.8Z"/></clipPath><clipPath id="aa"><path class="a" d="M-485.026,666.6l-.025,8.77c0-.471-.407-.9-1.128-1.313l.025-8.769C-485.433,665.705-485.025,666.13-485.026,666.6Z"/></clipPath><clipPath id="ab"><path class="a" d="M-477.971,666.675l-.024,8.769c-.005,1.6-1.461,3.242-4.28,4.88l.025-8.769C-479.432,669.916-477.975,668.278-477.971,666.675Z"/></clipPath><clipPath id="ac"><path class="a" d="M-486.567,674.063l-.024,8.77c-5.306,3.083-10.611,3.361-15.556.505l.025-8.769C-497.177,677.424-491.872,677.146-486.567,674.063Z"/></clipPath><clipPath id="ad"><path class="a" d="M-467.645,676.268l-.025,8.769c0-.505-.407-.962-1.133-1.381-1.58-.913-3.463-.952-5.834.426l.025-8.77c2.371-1.378,4.254-1.338,5.834-.426C-468.052,675.3-467.644,675.762-467.645,676.268Z"/></clipPath><clipPath id="ae"><path class="a" d="M-460.628,676.341l-.025,8.77c0,1.646-1.437,3.337-4.246,4.969l.025-8.77C-462.065,679.678-460.633,677.987-460.628,676.341Z"/></clipPath><clipPath id="af"><path class="a" d="M-494.384,696.481l.025-8.77c0-.593.569-1.254,1.85-2l-.025,8.77C-493.815,695.227-494.382,695.887-494.384,696.481Z"/></clipPath><clipPath id="ag"><path class="a" d="M-501.408,696.4l.025-8.77c-.005,1.469,1.123,2.9,3.414,4.224,4.86,2.806,10.541,2.568,15.847-.515l-.025,8.77c-5.306,3.083-10.987,3.321-15.847.515C-500.285,699.3-501.412,697.863-501.408,696.4Z"/></clipPath><clipPath id="ah"><path class="a" d="M-449.983,686.867l-.025,8.77c0-.472-.379-.914-1.139-1.353l.024-8.77C-450.362,685.953-449.981,686.4-449.983,686.867Z"/></clipPath><clipPath id="ai"><path class="a" d="M-442.549,687.045l-.025,8.769c0,1.469-1.369,2.937-4,4.468l.025-8.77C-443.919,689.981-442.554,688.513-442.549,687.045Z"/></clipPath><clipPath id="aj"><path class="a" d="M-465.187,695.567l-.025,8.77c0-.613-.525-1.183-1.533-1.765l.025-8.77C-465.712,694.384-465.186,694.954-465.187,695.567Z"/></clipPath><clipPath id="ak"><path class="a" d="M-449.146,693.019l-.025,8.77a14.04,14.04,0,0,1-9.967,2.052l.024-8.77A14.041,14.041,0,0,0-449.146,693.019Z"/></clipPath><clipPath id="al"><path class="a" d="M-458.633,696.518l-.025,8.77c0,1.532-1.618,3.014-4.247,4.542l.025-8.77C-460.251,699.532-458.638,698.05-458.633,696.518Z"/></clipPath><clipPath id="am"><path class="a" d="M-468,704.034l-.025,8.77a11.273,11.273,0,0,0-3.494,2.647l.025-8.77A11.274,11.274,0,0,1-468,704.034Z"/></clipPath></defs><g transform="translate(-740.34 -4013.583)"><g class="b" transform="translate(745.684 4073.479)"><path class="c" d="M115.465,17.616l-7.093-4.095L5.974,73.448c-8.918,5.183-8.871,13.617.106,18.8l123.892,70.781,7.047-4.1L13.127,88.152c-5.063-2.923-5.1-7.682-.059-10.609l102.4-59.927"/></g><g transform="translate(1323.157 3563.255)"><path class="d" d="M-415.919,665.115l.015-5.2c0,.051-.031.1-.035.154a2.8,2.8,0,0,0-.641-1.921c-.035-.045-.093-.089-.13-.134a5.6,5.6,0,0,0-.782-.794,9.888,9.888,0,0,0-1.342-.916,12.9,12.9,0,0,0-1.57-.767c-.226-.093-.459-.154-.688-.233-.3-.1-.6-.214-.909-.292s-.624-.128-.938-.183c-.225-.039-.448-.087-.674-.113-.373-.044-.748-.057-1.124-.067-.166,0-.331-.015-.5-.012-.425.006-.851.041-1.279.089-.114.013-.228.023-.342.039a14.134,14.134,0,0,0-1.411.274c-.068.017-.137.033-.205.051a15.309,15.309,0,0,0-1.519.48l-.089.034a17.372,17.372,0,0,0-1.6.7l.02-7.009h0l-6.457-3.727-9.517,4.08.022-7.711h0a.054.054,0,0,1,0,.017c0,.011-.007.023-.008.034v-.007a2.772,2.772,0,0,0-.784-1.878c-.025-.029-.068-.058-.094-.087a7,7,0,0,0-.935-.865,13.625,13.625,0,0,0-1.472-.97l-6.663-3.846-3.221,1.872.01-3.726-4.413-2.548-5.747,3.339,0-.884.011-3.842h0c0,.04-.025.08-.027.12a2.817,2.817,0,0,0-.7-1.933c-.029-.038-.08-.074-.111-.112a6.1,6.1,0,0,0-.847-.833,10.847,10.847,0,0,0-1.4-.941l-6.509-3.758-5.8,3.372.015-5.144v-.037h0c0,.05-.031.1-.034.152a2.807,2.807,0,0,0-.646-1.927c-.033-.044-.089-.086-.124-.129a5.66,5.66,0,0,0-.79-.8,9.894,9.894,0,0,0-1.344-.917,12.892,12.892,0,0,0-1.569-.766c-.225-.092-.455-.153-.683-.231-.3-.1-.6-.215-.913-.294s-.616-.125-.926-.18c-.229-.039-.456-.089-.686-.115-.369-.043-.741-.055-1.113-.065-.168,0-.335-.014-.5-.011a12.72,12.72,0,0,0-1.272.09c-.115.013-.23.023-.345.039-.467.066-.935.16-1.4.275l-.211.052a15.6,15.6,0,0,0-1.51.479l-.1.037c-.531.2-1.061.433-1.591.7l0,0,.019-7.008-6.456-3.728-34.082,14.594-.023,7.9h0a13.8,13.8,0,0,0-3.192-.821c-.031,0-.06-.012-.091-.016-.388-.049-.779-.061-1.17-.076-.219-.009-.439-.024-.659-.022-.343,0-.688.03-1.033.059-.277.023-.553.051-.831.091q-.469.067-.941.166c-.322.067-.645.15-.967.239-.281.077-.561.153-.841.247-.386.128-.773.283-1.159.442-.225.093-.45.173-.675.276-.616.282-1.233.594-1.849.952l-.614.357a17.076,17.076,0,0,0-1.539,1.012c-.111.081-.218.163-.321.244a8.488,8.488,0,0,0-1.091.988l0,0a4.216,4.216,0,0,0-.669,1c-.031.064-.057.129-.082.193a2.551,2.551,0,0,0-.21.984h0c0-.015-.008-.03-.008-.045l0,1.478a14.555,14.555,0,0,0-9.859,2.151l-3.361,1.953,0,0c-.539.313-1.011.623-1.45.931-.1.069-.2.139-.295.208a11.566,11.566,0,0,0-1.039.85c-.1.087-.174.174-.26.261a6.453,6.453,0,0,0-.552.636q-.145.19-.263.38a3.493,3.493,0,0,0-.29.59,2.64,2.64,0,0,0-.115.376,2.283,2.283,0,0,0-.055.644c0-.054-.029-.107-.029-.161l-.025,8.769h0a2.855,2.855,0,0,0,1.251,2.19,7.462,7.462,0,0,0,.985.669,9.214,9.214,0,0,0,1.227.592c.129.051.263.089.395.134h0c.066.023.131.047.2.068h0l.048.016c.071.022.138.051.209.071.219.062.441.117.665.163q.3.062.6.1c.063.009.128.013.191.021l.085.01c.1.011.2.026.307.034.2.016.4.027.6.032s.432,0,.651,0c.088,0,.178-.013.266-.018l0,1.462h0l3.19,1.841,1.842,1.064h0a4.88,4.88,0,0,1,.495-.557l.011-.012c.05-.05.09-.1.142-.153.078-.073.175-.14.259-.211.183-.155.366-.31.578-.461.129-.092.28-.186.421-.279.2-.129.389-.258.607-.392.308-.187.628-.378.981-.583l10.884-6.325,1.3.753,4.743-2.756h0l0-1.514,2.393-1.391.017-5.86,3.058,1.766,4.743-2.757.025-8.769-2.7-1.559,5.051-2.213.826.476v.184l-.017,6.032,4.465,2.578,4.623-3.648-.013,4.753a2.534,2.534,0,0,0,.136.71l-33.018,19.188-.025,8.77,13.085,7.555.862-.5,0,1,4.55,2.627,6.847-3,.952.55-.02,6.946,4.98,2.875,2.31-1.821-.009,3.149,4.946,2.856,12.454-7.238,2.353,1.358a15.6,15.6,0,0,0,1.985.963h0c.033.014.065.035.1.049.14.055.281.093.422.143h0c-1.3,1.217-1.858,2.442-1.644,3.641h0a2.848,2.848,0,0,1-.1-.51l-.025,8.77a3.434,3.434,0,0,0,.846,2.167,9.091,9.091,0,0,0,2.568,2.057,14.9,14.9,0,0,0,1.923.931h0c.019.008.038.021.058.028q.657.261,1.33.452c.114.033.229.055.343.085l.267.066c.136.032.272.072.409.1q.442.092.889.155c.146.021.294.033.441.049l.163.019c.076.007.152.019.228.025.274.023.549.037.825.044s.576.006.865,0h.027c.317-.012.636-.033.955-.064.3-.03.6-.079.9-.127.074-.012.147-.018.22-.031.037-.007.074-.009.111-.016.23-.041.46-.122.69-.174.153-.035.3-.069.458-.109l-.013,4.52,4.963,2.865h0l5.41-3.144-.018,6.257,5.031,2.9a5.437,5.437,0,0,1,.486-.536c.057-.057.1-.12.164-.176.044-.042.1-.081.148-.121l.027-.023c.212-.185.434-.367.685-.546.019-.014.042-.028.062-.042.1-.073.22-.146.33-.22s.208-.135.315-.2.228-.152.356-.23c.292-.178.589-.357.921-.55l5.118-2.974q.215-.125.42-.249c.052-.032.092-.063.143-.094.4-.248.783-.494,1.126-.74.02-.014.044-.028.064-.043a11.394,11.394,0,0,0,.941-.76c.035-.032.083-.064.118-.095s.062-.07.1-.1a6.726,6.726,0,0,0,.5-.531c.038-.041.081-.081.113-.121.013-.017.021-.033.033-.05.06-.077.105-.155.157-.232s.124-.169.172-.254c.014-.025.022-.05.035-.075.027-.05.048-.1.071-.15.033-.07.072-.14.1-.21s.034-.121.052-.182c.013-.042.027-.085.038-.128.006-.028.018-.057.024-.086a2.224,2.224,0,0,0,.044-.379v-.058l0-1.366c.045.007.091.017.136.023q.361.051.723.081t.7.038c.122,0,.244,0,.367,0h.1c.085,0,.17,0,.255,0,.269-.009.537-.027.806-.054.338-.033.676-.081,1.015-.142.069-.012.138-.039.207-.052.168-.033.338-.087.506-.127.361-.086.721-.156,1.083-.273.232-.074.467-.184.7-.271h0c.206-.077.413-.153.62-.24a19.452,19.452,0,0,0,2.259-1.111l2.593-1.507c.108-.063.213-.125.316-.187.5-.3.933-.6,1.331-.892.1-.071.171-.141.26-.211.215-.169.442-.339.624-.507.114-.1.193-.209.294-.314.081-.084.163-.168.236-.252.055-.064.129-.128.179-.192a4.475,4.475,0,0,0,.376-.554c.038-.069.063-.137.1-.206.016-.032.031-.064.046-.1.023-.054.055-.108.076-.161a2.809,2.809,0,0,0,.122-.423,2.5,2.5,0,0,0,.047-.411c0-.021,0-.041,0-.062l.025-8.769h0c0,.02-.014.041-.015.062a2.369,2.369,0,0,0-.138-.814,3.094,3.094,0,0,0-.2-.467c-.061-.114-.137-.229-.214-.344a5.868,5.868,0,0,0-1.087-1.2h0l.061.007.124.014.029,0,.121.014c.238.019.478.032.718.038s.5.005.754,0l.068-.005c.031,0,.062-.005.093-.006.229-.011.458-.023.687-.046.321-.032.644-.08.966-.136l.092-.013.032-.005c.149-.027.3-.08.447-.112.1-.022.206-.051.309-.076l-.011,3.749,4.414,2.547h0l29.583-17.191.024-8.77-4.413-2.548Zm-153.815-22.237c-.01.011-.026.022-.036.032.029-.03.061-.061.092-.091C-569.7,642.839-569.715,642.858-569.734,642.878Zm15.043-8.439-.006.013.006-.014Zm.4-.529c-.016.017-.043.036-.059.053h0c.023-.025.055-.051.08-.075l0,0Zm66.14-11.6c-.032.026-.055.053-.088.08a1.222,1.222,0,0,1-.1.09l-.1.079C-488.324,622.471-488.246,622.388-488.148,622.3Zm-11.218-3.068c-.05.039-.09.081-.137.121-.011.01-.028.019-.039.029C-499.485,619.337-499.428,619.286-499.366,619.237Zm-1.236,1.484h0l0,.006-.024.042c-.009.017-.021.034-.029.051C-500.641,620.787-500.619,620.754-500.6,620.721Zm-.374,1.048c.009-.04.018-.079.026-.118-.009.038-.016.077-.025.115v0h0Zm-.142,10.062v-.4c.018-.222.027-.446.066-.662.015-.077.034-.154.051-.231.025-.108.058-.215.09-.321.013-.044.022-.088.036-.131.033-.1.069-.2.109-.293s.086-.2.135-.291.115-.212.18-.317c.053-.085.109-.17.17-.254.072-.1.155-.2.239-.293s.174-.195.271-.29c.075-.073.16-.144.242-.215a6.455,6.455,0,0,1,.84-.617c.069-.043.124-.088.2-.131a8.221,8.221,0,0,1,1.543-.708,5.1,5.1,0,0,1,1.269-.263l.032,0,.015,0c.117,0,.223.026.337.029l-.009,3.247-1.175.683-4.642,2.7Zm-.125-4.49c-.008.047,0,.094-.014.141-.015.073-.039.146-.056.218C-501.286,627.58-501.263,627.461-501.243,627.341Zm-.334,1.217c.04-.106.08-.212.114-.318-.009.027-.016.053-.023.08s-.015.063-.026.095c-.026.072-.064.146-.093.218C-501.6,628.608-501.587,628.583-501.577,628.558Zm-.242.559c-.027.055-.048.11-.077.165-.052.1-.122.191-.181.287C-501.985,629.418-501.895,629.267-501.819,629.117Zm-.554.9c-.013.018-.026.037-.037.055s-.028.045-.045.067c-.1.124-.218.247-.326.37C-502.638,630.35-502.493,630.187-502.373,630.022Zm-.933,1.038c.031-.029.069-.058.1-.087-.026.026-.044.051-.07.076-.154.146-.339.292-.515.437C-503.621,631.344-503.456,631.2-503.306,631.06Zm-.872.75c-.017.013-.031.027-.049.04a13.725,13.725,0,0,1-1.3.85A13.508,13.508,0,0,0-504.178,631.81Zm-3.3-10.121a10.972,10.972,0,0,0-.119,1.879c0-.1-.006-.187-.006-.283v-.006l-.009,3.229a5.555,5.555,0,0,1-.19.942c-.026.09-.065.176-.1.264a4.237,4.237,0,0,1-.3.653c-.057.1-.12.2-.187.3a4.573,4.573,0,0,1-.5.6c-.085.087-.159.176-.255.261a6.576,6.576,0,0,1-1.09.792,7.82,7.82,0,0,1-1.317.6,5.836,5.836,0,0,1-1.149.268l.014-4.738-.482-.278Zm-7.56,6.15-.015.011h0c-.14.088-.284.177-.4.262C-515.326,628.023-515.183,627.931-515.035,627.839Zm-.651.464.008-.007c-.018.015-.032.029-.049.044l0,0-.005,0-.006.005Zm-.239.206h0c-.014.015-.026.029-.04.043l0,0c-.009.01-.024.021-.033.03C-515.977,628.558-515.95,628.534-515.925,628.509Zm16.456,62.329c-.014-.011-.02-.022-.034-.033a11.745,11.745,0,0,0,1.534,1.044A11.871,11.871,0,0,1-499.469,690.838Zm5.631-4.138c-.01.011-.026.022-.035.032.028-.03.06-.06.091-.091h0C-493.8,686.661-493.818,686.681-493.838,686.7Zm.54-.471-.011.007.012-.007Zm6.121-27.026-1.532-.884-7.357,4.275.024-8.509-7.246-4.184-34.335,14.714.005-1.587-.582-.336,20.857-12.121.019-6.836,0-.725c.22.077.439.161.662.225.11.032.222.054.334.082.075.02.15.038.226.056.108.026.215.057.323.08q.384.079.771.135c.153.021.306.035.46.051.04,0,.08.01.12.013s.095.012.142.016q.359.03.718.039.376.009.755,0c.023,0,.048,0,.071,0h0c.034,0,.067-.006.1-.007.057,0,.113-.009.17-.012.168-.01.335-.017.5-.033.223-.022.445-.061.668-.094.1-.016.208-.026.313-.044h0c.026,0,.052-.006.078-.011l.031,0c.143-.026.286-.078.43-.109l.085-.02.244-.06-.01,3.748,4.413,2.548h0l11.106-6.455,2.1,1.21c.391.226.787.4,1.183.584.056.025.11.058.166.082l-3.621,2.1-.025,8.77h0l4.413,2.548,3.222-1.872Zm.033-37.911c-.034.043-.049.086-.085.129s-.064.067-.094.1c.107-.123.179-.244.269-.367C-487.088,621.2-487.117,621.247-487.144,621.292Zm.66-1.2a1.354,1.354,0,0,1-.057.253l0,.01c-.014.03-.029.059-.043.089s-.028.039-.038.058c.035-.07.042-.14.07-.209s.056-.162.081-.243C-486.479,620.064-486.479,620.078-486.484,620.092Zm15.389,9.179c-.022.075-.034.151-.051.227-.011.028-.007.055-.019.084l-.005.01c-.013.029-.027.057-.04.086-.006.012-.019.025-.025.037A2.712,2.712,0,0,0-471.1,629.271Zm-.564,1.081c-.066.09-.1.179-.179.269l-.02.021-.055.059C-471.811,630.585-471.745,630.469-471.659,630.352Zm-1.088,1.135c-.065.056-.114.112-.184.169l-.037.03-.041.034C-472.91,631.642-472.838,631.565-472.747,631.487Zm-7.466,38.675c-.031.025-.06.05-.092.075.114-.09.2-.179.3-.268C-480.077,670.033-480.133,670.1-480.213,670.162Zm1.224-1.16c-.012.014-.028.029-.04.043s-.032.033-.046.05l.011-.017c.107-.125.181-.25.274-.375C-478.864,668.8-478.9,668.9-478.989,669Zm.755-1.166c-.015.035-.034.071-.051.107-.006.015-.022.029-.029.044a.932.932,0,0,0,.031-.1,3.071,3.071,0,0,0,.127-.4A2.911,2.911,0,0,1-478.234,667.836Zm8.269,2.4a14.957,14.957,0,0,0-4,.175l-.01,0a16.561,16.561,0,0,0-2,.487c-.023.007-.046.019-.07.026a18.494,18.494,0,0,0-1.94.732l.014-4.955v-.029h0c0,.046-.028.092-.031.138h0a3.151,3.151,0,0,0-.775-2.167c-.032-.04-.086-.079-.12-.119a6.681,6.681,0,0,0-.952-.939,12.3,12.3,0,0,0-1.562-1.055l-.41-.237,3.9-2.263-.016,5.6h0l4.482,2.588a4.729,4.729,0,0,1,.4-.449c.061-.063.113-.131.178-.192.041-.038.093-.074.136-.112l.044-.035c.015-.014.034-.027.049-.04.141-.12.288-.239.447-.356l-.005,1.907h0l2.243,1.294Zm5.718-16.786c.065-.047.13-.093.192-.139-.022.017-.036.033-.058.05s-.046.039-.074.059c-.05.036-.118.073-.17.109C-464.319,653.5-464.284,653.477-464.247,653.451Zm1.386,26.47-.073.06c.074-.06.127-.12.2-.18l.1-.1C-462.714,679.778-462.773,679.85-462.861,679.921Zm.143-6.9a11.193,11.193,0,0,0-1.317-.9,13.39,13.39,0,0,0-1.566-.766,14.377,14.377,0,0,0-1.525-.546l2.271-.989,2.831-1.233.825.477v.389l-.014,5.147h0a4.952,4.952,0,0,0-.431-.575,6.7,6.7,0,0,0-.691-.705C-462.454,673.227-462.588,673.127-462.718,673.026Zm1.066,5.731c-.023.028-.055.056-.08.085.123-.143.2-.285.3-.428C-461.513,678.528-461.557,678.642-461.652,678.757Zm.613,21.1c-.031.024-.053.046-.085.069-.056.041-.13.081-.189.122.116-.082.228-.163.337-.244C-461,699.827-461.014,699.845-461.039,699.862Zm.149-22.322c0,.012-.011.025-.017.037s-.022.046-.032.069-.019.025-.024.037a3.256,3.256,0,0,0,.154-.513A2.917,2.917,0,0,1-460.89,677.54Zm7.177.984-6.933,4.03.018-6.213h0c0,.044-.027.089-.029.133a2.876,2.876,0,0,0-.1-.92l3.986,2.3,4.624-3.647-.014,4.753a2.545,2.545,0,0,0,.1.518Zm4.4-33.9c-.058.048-.1.095-.16.143l-.025.02-.009.008c.083-.065.141-.129.219-.194Zm.868-.814c-.01.012-.023.024-.033.035.086-.1.136-.2.209-.293C-448.336,643.639-448.376,643.725-448.45,643.811Zm.619-.933c-.01.024-.022.048-.033.072a2.365,2.365,0,0,0,.1-.348l.016-.058A2.272,2.272,0,0,1-447.831,642.878Zm5.056,45.089c.03-.078.042-.156.065-.234-.008.028-.014.056-.02.084a2.43,2.43,0,0,1-.066.284c-.01.023-.021.047-.032.07l-.009.018A1.025,1.025,0,0,0-442.775,687.967Zm-.517.89c-.072.1-.116.194-.2.292l-.037.039,0,0C-443.434,689.079-443.376,688.968-443.292,688.857Zm-2.282-19.665c-.01.01-.026.021-.035.031.023-.025.051-.051.077-.076h0Zm.252-.226-.011.01,0,0-.006,0,.057-.049Zm.208-.18c.134-.1.3-.205.469-.309l-.018.012C-444.82,668.589-444.986,668.69-445.114,668.786Zm.466,21.438-.044.036h0c.1-.076.168-.152.26-.229C-444.509,690.1-444.567,690.16-444.648,690.224Zm7.569-27.9a10.911,10.911,0,0,0-.118,1.865h0c0-.1-.007-.193-.006-.293v0l-.009,3.293a5.59,5.59,0,0,1-.192.936c-.024.082-.059.163-.088.244a4.307,4.307,0,0,1-.306.665c-.056.1-.115.194-.181.29a4.531,4.531,0,0,1-.506.6c-.083.085-.156.173-.25.256a6.554,6.554,0,0,1-1.086.788,7.67,7.67,0,0,1-1.324.6,5.906,5.906,0,0,1-1.159.265l.013-4.746-.482-.278,5.695-4.493Zm3.288,10.152c-.011.009-.021.019-.034.028-.208.154-.466.306-.7.459-.194.126-.363.253-.578.378a13.557,13.557,0,0,0,1.332-.88Zm.913-.771c-.129.122-.287.243-.431.365-.03.025-.058.05-.088.074.21-.173.415-.345.594-.519C-432.831,671.649-432.85,671.676-432.878,671.7Zm.821-.9c-.034.044-.077.088-.116.132-.064.079-.14.157-.209.236.145-.165.29-.331.411-.5C-432,670.715-432.024,670.758-432.057,670.8Zm3.078-10.924c-.048.039-.088.079-.133.118-.012.01-.028.019-.04.029C-429.1,659.975-429.039,659.926-428.979,659.877Zm-1.566,2.358c-.014.054-.024.108-.036.162l0,.008C-430.571,662.349-430.559,662.292-430.545,662.235Zm-.953,7.705c-.051.095-.122.19-.18.284.093-.152.184-.3.261-.457C-431.446,669.824-431.467,669.882-431.5,669.94Zm.384-.866c-.025.071-.063.143-.091.214.053-.133.1-.265.143-.4C-431.082,668.951-431.092,669.013-431.114,669.074Zm.256-.932c-.008.04-.023.081-.031.121s-.017.063-.024.094c.027-.121.049-.242.07-.363C-430.851,668.044-430.849,668.093-430.858,668.142Zm5.943,2.2-5.808,3.376.005-1.711c.017-.206.025-.414.061-.615.014-.076.033-.15.05-.225.031-.135.07-.268.112-.4.006-.018.009-.037.015-.055.033-.1.069-.195.109-.291s.086-.2.136-.293c.041-.082.091-.163.139-.244.014-.023.025-.046.039-.068s.02-.03.03-.045c.045-.071.09-.142.141-.211.033-.046.073-.089.11-.134s.082-.1.126-.155c.067-.077.139-.153.214-.228.02-.022.038-.044.06-.065.073-.071.157-.142.238-.212s.163-.115.237-.174a6.683,6.683,0,0,1,.6-.442c.069-.043.123-.088.2-.13a8.27,8.27,0,0,1,1.542-.707h0a5.123,5.123,0,0,1,1.274-.263l.03,0a3.375,3.375,0,0,1,.351.031Zm6.974-7.23-.1.081c.1-.082.182-.164.278-.247C-417.826,663-417.873,663.058-417.941,663.113Zm1.109-1.058c-.018.022-.039.044-.06.065l-.037.039c.024-.026.038-.053.059-.079.08-.1.139-.191.21-.285C-416.724,661.882-416.759,661.968-416.832,662.055Zm.713-1.183c-.014.036-.009.073-.024.11s-.032.066-.047.1l0,0c-.01.019-.028.039-.038.058a3.084,3.084,0,0,0,.152-.449A1.458,1.458,0,0,0-416.119,660.872Z"/><path class="e" d="M-415.919,665.115l.015-5.2c0,.051-.031.1-.035.155.086-1.3-.838-2.578-2.9-3.766-3.961-2.287-8.461-2.183-12.846,0l.02-7.009-6.457-3.727-9.517,4.08.022-7.711c0,.017-.011.034-.012.051.034-1.254-1.033-2.506-3.286-3.807l-6.663-3.846-3.222,1.872.011-3.726-4.413-2.548-5.747,3.339.014-4.726c0,.04-.025.08-.027.12.069-1.3-.913-2.586-3.049-3.819l-6.509-3.758-5.8,3.372.015-5.181c0,.05-.031.1-.034.151.083-1.309-.845-2.586-2.9-3.775-3.961-2.287-8.446-2.175-12.828.009l.019-7.008-6.456-3.728-34.082,14.594-.023,7.9c-4.319-1.675-8.87-1.1-13.412,1.537l-.614.356c-2.631,1.53-3.938,2.982-3.914,4.427,0-.015-.008-.03-.008-.045l0,1.506a14.54,14.54,0,0,0-9.859,2.123l-3.361,1.954c-2.969,1.725-4.432,3.375-4.321,4.877,0-.054-.029-.107-.029-.161l-.025,8.769c0,1.029.731,1.99,2.236,2.859a9.214,9.214,0,0,0,1.227.592c.129.051.263.089.395.134.067.023.133.047.2.068.086.027.17.062.257.087.219.062.441.117.665.163q.3.062.6.1c.063.009.128.014.191.021l.083.01c.1.011.205.026.309.034.2.016.4.027.6.032s.432,0,.651,0c.088,0,.178-.013.266-.018l0,1.462,5.032,2.9a4.915,4.915,0,0,1,.506-.57c.05-.049.09-.1.142-.152.078-.073.175-.141.259-.212.183-.155.366-.31.578-.46.128-.091.277-.184.415-.275.2-.131.394-.262.616-.4.307-.187.626-.377.978-.582l10.884-6.325,1.3.753,4.743-2.756,0-1.514,2.393-1.391.017-5.86,3.058,1.766,4.743-2.756.025-8.77-2.7-1.558,5.051-2.214.826.476-.018,6.216,4.465,2.578,4.623-3.648-.013,4.753a2.569,2.569,0,0,0,.136.71l-33.018,19.188-.025,8.77,13.085,7.554.862-.5,0,1,4.55,2.627,6.847-3,.952.55-.02,6.946,4.98,2.875,2.31-1.821-.009,3.149,4.946,2.856,12.454-7.238,2.353,1.358a15.6,15.6,0,0,0,1.985.963c.034.014.066.035.1.049.14.055.281.093.422.143-1.3,1.217-1.859,2.443-1.646,3.642a2.936,2.936,0,0,1-.1-.51l-.025,8.77c0,1.468,1.123,2.9,3.414,4.224a14.847,14.847,0,0,0,1.924.931c.02.008.038.021.058.028.438.174.882.324,1.33.453.114.032.229.055.344.084.088.023.177.044.265.066.137.032.273.072.41.1q.442.092.889.155c.146.021.293.033.44.049l.165.019c.076.007.151.019.227.025q.411.034.825.044.432.011.865,0h.01l.019,0q.475-.016.953-.064c.3-.029.6-.078.9-.126.074-.012.149-.018.223-.031.037-.007.073-.009.11-.016.229-.041.457-.121.686-.173.154-.035.308-.07.462-.11l-.013,4.52,4.963,2.865,5.41-3.144-.018,6.257,5.031,2.9a5.437,5.437,0,0,1,.486-.536c.057-.057.1-.12.164-.177s.121-.095.176-.144c.212-.185.433-.366.684-.545.121-.086.26-.174.391-.261.215-.143.43-.286.673-.435.291-.177.589-.356.92-.549l5.118-2.974q.215-.125.42-.249.73-.442,1.338-.881c.028-.02.048-.041.076-.062a11.323,11.323,0,0,0,.978-.789c.065-.061.108-.121.169-.181.083-.082.155-.164.23-.245.1-.11.223-.221.31-.331a4.314,4.314,0,0,0,.362-.536c.018-.032.028-.064.045-.1s.022-.047.034-.071c.044-.089.092-.178.126-.268a2.534,2.534,0,0,0,.114-.4,2.224,2.224,0,0,0,.044-.379v-.058l0-1.366c.045.007.091.017.136.023q.361.051.723.081t.7.038c.122,0,.244,0,.366,0h.105c.085,0,.17,0,.255,0,.269-.009.537-.027.806-.054.338-.033.676-.081,1.015-.142.069-.012.139-.039.208-.052.168-.033.337-.087.5-.127.361-.086.721-.156,1.083-.273.232-.074.467-.184.7-.271.207-.078.415-.155.623-.242a19.5,19.5,0,0,0,2.257-1.11l2.593-1.507c.107-.063.213-.125.316-.187.5-.3.934-.6,1.332-.893.1-.07.169-.139.257-.209.216-.169.443-.339.626-.508.114-.1.193-.209.294-.314.081-.084.163-.168.236-.252.055-.064.129-.128.179-.191a4.563,4.563,0,0,0,.376-.555c.038-.069.063-.138.1-.206q.024-.048.045-.1c.024-.054.056-.107.077-.161a2.809,2.809,0,0,0,.122-.423,2.5,2.5,0,0,0,.047-.411c0-.021,0-.041,0-.062l.025-8.769c0,.02-.014.041-.015.062a3.8,3.8,0,0,0-1.643-2.829l.062.007.123.014c.05.005.1.013.15.017.238.019.478.032.718.038s.5.005.754,0l.068-.005c.031,0,.061-.005.092-.006.229-.011.458-.023.688-.046.321-.032.643-.081.966-.136l.092-.013.032-.005c.15-.027.3-.081.451-.113.1-.022.2-.051.3-.075l-.011,3.749,4.414,2.547,29.582-17.191.025-8.77-4.413-2.548Zm-28.73,25.11-.046.037c.1-.078.173-.156.267-.235C-444.507,690.093-444.565,690.159-444.649,690.225Zm-16.475,9.706c-.056.041-.134.083-.192.124.117-.083.231-.164.342-.247-.025.018-.04.036-.065.054S-461.092,699.908-461.124,699.931Zm-34.918-45.846-7.246-4.184-34.335,14.714.005-1.587-.582-.336,20.857-12.121.022-7.561c.22.076.439.161.662.225.11.032.222.054.333.082.076.02.151.038.227.056.108.025.215.057.323.08q.384.079.771.135c.152.021.3.035.458.051l.123.014c.047,0,.094.012.141.015.239.02.478.033.719.039s.5.005.754,0c.023,0,.048,0,.071,0s.068-.006.1-.007c.224-.011.448-.023.673-.045.327-.033.653-.081.981-.138.027,0,.054-.007.081-.012l.031,0c.144-.026.288-.078.432-.109.109-.023.218-.054.327-.08l-.01,3.748,4.413,2.548,11.106-6.455,2.1,1.21a14.038,14.038,0,0,0,1.349.666l-3.621,2.1-.025,8.77,4.413,2.548,3.222-1.872-.007,2.632-1.532-.884-7.357,4.275Zm-2.645-26.574c.069-.042.123-.087.2-.13a8.221,8.221,0,0,1,1.543-.708,5.144,5.144,0,0,1,1.27-.264l.031,0c.123-.007.233.028.353.031l-.01,3.247-5.817,3.38,0-1.638c.018-.222.027-.447.066-.663.014-.076.034-.152.051-.228.035-.153.077-.3.127-.456.032-.1.068-.194.108-.29s.086-.2.135-.292.115-.212.18-.317c.053-.086.109-.171.171-.255s.153-.194.237-.29.175-.2.273-.294c.074-.072.158-.142.24-.213A6.653,6.653,0,0,1-498.687,627.511Zm-17.725,1.812,0,.028Zm1.359-1.471c-.158.1-.323.2-.452.295.134-.1.3-.2.47-.308Zm-.677.49-.012.01c.022-.02.043-.039.066-.058Zm-.237.212c-.01.01-.026.021-.035.031.024-.026.052-.051.077-.077Zm-.322.41.005-.011Zm8.711-4.606c.008.262.011.522.015.78C-507.567,624.882-507.57,624.618-507.578,624.358Zm35.74,6.263c-.023.027-.052.054-.076.081.1-.117.169-.234.256-.351C-471.725,630.441-471.762,630.531-471.838,630.621Zm-1.094,1.036-.081.066c.1-.081.177-.16.271-.24C-472.81,631.541-472.859,631.6-472.932,631.657Zm-14.3-10.236c-.028.034-.065.068-.1.1.108-.122.18-.245.271-.368C-487.119,621.243-487.154,621.332-487.229,621.421Zm-1.1,1.054-.1.082c.107-.085.187-.17.287-.255C-488.213,622.36-488.262,622.417-488.333,622.475Zm-11.849-2.427.013-.019Zm-.423.68c-.018.035-.043.069-.059.1.018-.038.043-.074.062-.111Zm-.37,1.038v.005c.015-.069.027-.139.045-.206C-500.949,621.631-500.96,621.7-500.975,621.766Zm-.131.833c.008-.085.018-.17.028-.254C-501.088,622.429-501.1,622.514-501.106,622.6Zm-.151,4.882c-.014.073-.039.146-.056.22.027-.121.05-.241.071-.361C-501.25,627.387-501.248,627.434-501.257,627.481Zm-.255.933c-.026.073-.064.146-.093.219.052-.131.1-.263.142-.4C-501.481,628.3-501.492,628.356-501.512,628.414Zm-.384.868c-.053.1-.124.193-.183.29.093-.152.184-.3.26-.456C-501.847,629.171-501.866,629.226-501.9,629.282Zm-.559.862c-.1.124-.219.248-.328.372.145-.165.29-.33.411-.495C-502.4,630.062-502.423,630.1-502.455,630.144Zm-.823.905c-.156.148-.343.295-.521.442.209-.172.414-.345.591-.518C-503.234,631-503.252,631.024-503.278,631.049Zm-.949.8a13.725,13.725,0,0,1-1.3.85,13.542,13.542,0,0,0,1.348-.891C-504.2,631.823-504.208,631.837-504.227,631.85Zm-3.367-8.28c0-.1-.006-.192-.006-.291l-.009,3.229a4.687,4.687,0,0,1-2.619,3.813,6.427,6.427,0,0,1-2.466.871l.014-4.738-.482-.278,5.687-4.488A11.014,11.014,0,0,0-507.594,623.57Zm-11.946,9.656a10.283,10.283,0,0,1-1.351-.922A10.283,10.283,0,0,0-519.54,633.226ZM-428.3,668.15c.069-.042.123-.088.2-.13a8.151,8.151,0,0,1,1.543-.707,5.1,5.1,0,0,1,1.272-.263l.031,0c.123-.007.232.028.351.032l-.009,3.264-5.808,3.376.005-1.711c.017-.206.025-.414.061-.615.014-.075.033-.15.05-.225a4.632,4.632,0,0,1,.128-.457c.032-.1.068-.194.108-.289s.086-.2.136-.294.113-.209.178-.313c.053-.085.11-.171.171-.255s.153-.194.236-.289.175-.2.274-.293c.073-.071.157-.141.238-.212A6.549,6.549,0,0,1-428.3,668.15Zm11.466-6.1c-.029.035-.066.07-.1.1.107-.122.179-.244.27-.366C-416.724,661.881-416.758,661.968-416.832,662.055Zm-1.108,1.057-.1.082c.105-.083.183-.166.281-.249C-417.825,663-417.871,663.057-417.94,663.112Zm-11.854-2.422c.006-.007.009-.015.015-.022Zm-.478.776c.017-.036.042-.069.059-.1C-430.23,661.4-430.255,661.43-430.272,661.466Zm-.309.93,0,.009c.016-.068.028-.137.046-.2C-430.555,662.265-430.566,662.331-430.581,662.4Zm-.131.837c.007-.084.017-.168.027-.252C-430.7,663.065-430.7,663.149-430.712,663.233Zm-.146,4.91c-.014.071-.039.143-.055.214.027-.121.049-.242.07-.364C-430.851,668.043-430.849,668.092-430.858,668.143Zm-.256.931c-.025.071-.063.143-.091.215.053-.134.1-.267.143-.4C-431.081,668.95-431.092,669.012-431.114,669.074Zm-.384.866c-.052.095-.122.19-.18.285.093-.153.184-.306.261-.459C-431.446,669.824-431.467,669.882-431.5,669.94Zm-.558.86c-.1.123-.219.247-.327.37.146-.166.292-.332.413-.5C-432,670.714-432.023,670.757-432.056,670.8Zm-.822.9c-.155.147-.342.293-.519.439.21-.173.416-.346.594-.52C-432.831,671.649-432.85,671.676-432.878,671.7Zm-.947.8a13.98,13.98,0,0,1-1.294.847,13.605,13.605,0,0,0,1.346-.89C-433.792,672.473-433.806,672.488-433.825,672.5Zm-3.372-8.314c0-.1-.007-.193-.007-.294l-.009,3.293a4.671,4.671,0,0,1-2.609,3.782,6.386,6.386,0,0,1-2.483.87l.013-4.746-.482-.278,5.695-4.493A10.929,10.929,0,0,0-437.2,664.188Zm.034,1.644c0-.269-.008-.548-.017-.823C-437.171,665.286-437.166,665.56-437.163,665.832Zm-8.854,4.134,0,.027Zm1.354-1.476c-.157.1-.323.2-.451.3.134-.1.3-.205.469-.309Zm-.67.486-.01.008.058-.051C-445.3,668.948-445.316,668.962-445.333,668.976Zm-.241.216c-.011.011-.027.022-.037.033.025-.026.054-.053.08-.079C-445.547,669.161-445.559,669.177-445.574,669.192Zm-.323.417.008-.016Zm-3.254,4.255a10.138,10.138,0,0,1-1.352-.921A10.138,10.138,0,0,0-449.151,673.864Zm-45.193,13.7,0,.03Zm.149-.417h0Zm.322-.415c.028-.03.06-.06.091-.091-.02.02-.037.04-.056.059S-493.864,686.722-493.873,686.732Zm15.639-18.9c-.015.036-.034.071-.051.107-.006.015-.022.029-.029.044a3.226,3.226,0,0,0,.159-.5A3.1,3.1,0,0,1-478.234,667.836Zm-.755,1.166c-.026.031-.059.062-.087.093.115-.131.189-.261.286-.392C-478.864,668.8-478.9,668.9-478.989,669Zm-1.225,1.16c-.032.026-.062.052-.1.078.117-.092.2-.184.311-.275C-480.076,670.031-480.131,670.1-480.214,670.162Zm-13.354,16.3-.016.012.079-.068C-493.528,686.423-493.546,686.441-493.568,686.46Zm.259-.224c.153-.114.344-.232.533-.35-.01.006-.015.011-.024.017C-492.978,686.015-493.164,686.128-493.309,686.236Zm25.031-11.013c.046.037.077.075.119.112C-468.2,675.3-468.232,675.26-468.278,675.223Zm.359.354a1.09,1.09,0,0,1,.089.143A1.09,1.09,0,0,0-467.919,675.577Zm.21.371a.91.91,0,0,1,.032.162A.91.91,0,0,0-467.709,675.948Zm3.6-22.586c-.027.019-.046.039-.074.059-.05.036-.119.073-.171.11.1-.073.206-.146.3-.219C-464.077,653.329-464.091,653.345-464.113,653.362Zm-9.347,14.857a4.825,4.825,0,0,1,.4-.447c.062-.064.114-.132.18-.194s.122-.1.18-.147c.154-.134.319-.267.5-.4l-.005,1.908,2.243,1.3a16,16,0,0,0-8.022,1.422l.014-4.986c0,.046-.028.092-.031.138.079-1.463-1.016-2.9-3.409-4.28l-.41-.237,3.9-2.263-.016,5.6Zm-11.84-2.266a1.49,1.49,0,0,1,.089.134A1.356,1.356,0,0,0-485.3,665.953Zm.209.347a.893.893,0,0,1,.033.152A.893.893,0,0,0-485.091,666.3Zm22.231,13.621-.076.062c.115-.092.2-.185.3-.277C-462.714,679.778-462.773,679.85-462.86,679.921Zm1.97-2.381c-.014.035-.033.07-.049.105-.006.013-.019.026-.024.038a3.267,3.267,0,0,0,.154-.514A2.9,2.9,0,0,1-460.89,677.54Zm-.762,1.217c-.024.029-.056.057-.08.085.123-.143.2-.286.3-.429C-461.513,678.528-461.557,678.642-461.652,678.757Zm-2.383-6.628a14.729,14.729,0,0,0-3.091-1.312l5.1-2.222.826.477-.016,5.536A7.943,7.943,0,0,0-464.035,672.129Zm-4.517-23.76c.058.045.1.09.149.135C-468.454,648.459-468.494,648.414-468.552,648.369Zm.433.413a1.3,1.3,0,0,1,.107.162A1.376,1.376,0,0,0-468.119,648.782Zm.242.419a.915.915,0,0,1,.038.177A.931.931,0,0,0-467.877,649.2Zm-17.662,16.524c-.042-.036-.073-.073-.119-.108C-485.612,665.652-485.581,665.689-485.539,665.725Zm34.416,19.789a3.256,3.256,0,0,1,.777.6A3.256,3.256,0,0,0-451.123,685.514Zm.871.7a1.047,1.047,0,0,1,.247.6A1.05,1.05,0,0,0-450.252,686.215Zm-3.46-7.691-6.934,4.03.017-6.213c0,.045-.026.089-.029.133a2.85,2.85,0,0,0-.1-.92l3.986,2.3,4.624-3.648-.014,4.753a2.616,2.616,0,0,0,.1.518Zm4.234-33.756-.037.03c.089-.069.151-.137.234-.206C-449.352,644.651-449.4,644.709-449.478,644.768Zm-16.548,49.5c.064.049.108.1.164.149C-465.919,694.363-465.962,694.313-466.026,694.264Zm.76.935a1.062,1.062,0,0,1,.042.2A1.062,1.062,0,0,0-465.266,695.2Zm-.273-.471a1.7,1.7,0,0,1,.119.181A1.7,1.7,0,0,0-465.539,694.728Zm49.4-33.746c-.014.033-.032.066-.047.1s-.03.04-.04.06a2.99,2.99,0,0,0,.152-.451A2.835,2.835,0,0,1-416.143,660.982Zm-5.848-1.023a.929.929,0,0,0-.22-.537A.931.931,0,0,1-421.991,659.959Zm-.286-.6a2.756,2.756,0,0,0-.668-.521A2.776,2.776,0,0,1-422.277,659.355Zm-6.7.52c-.048.039-.089.08-.135.12-.011.01-.029.019-.04.03C-429.1,659.974-429.037,659.924-428.977,659.875Zm-1.773,4.076v0Zm-17.08-21.073c-.011.024-.023.048-.034.073a2.391,2.391,0,0,0,.111-.407A2.369,2.369,0,0,1-447.83,642.878Zm-.436.665c-.067.089-.107.179-.184.268-.01.012-.023.024-.033.036C-448.394,643.745-448.342,643.644-448.266,643.543Zm-6-1.814a.932.932,0,0,0-.219-.534A.938.938,0,0,1-454.269,641.729Zm-.3-.621a2.864,2.864,0,0,0-.689-.536A2.864,2.864,0,0,1-454.572,641.108Zm-16.593-11.526c-.014.032-.03.064-.045.1-.006.012-.019.025-.025.037a2.863,2.863,0,0,0,.141-.445A2.741,2.741,0,0,1-471.165,629.582Zm-6.08-1.15a.906.906,0,0,0-.237-.542A.906.906,0,0,1-477.245,628.432Zm-.29-.592a3.048,3.048,0,0,0-.7-.534A3.048,3.048,0,0,1-477.535,627.84Zm-9.006-7.5c-.014.033-.031.066-.047.1s-.028.039-.038.058a2.854,2.854,0,0,0,.151-.452A2.555,2.555,0,0,1-486.541,620.345Zm-5.849-1.024a.938.938,0,0,0-.222-.544A.944.944,0,0,1-492.39,619.321Zm-.286-.609a2.794,2.794,0,0,0-.675-.527A2.794,2.794,0,0,1-492.676,618.712Zm-6.69.525c-.05.039-.09.081-.137.121-.011.01-.028.019-.039.029C-499.485,619.337-499.428,619.286-499.366,619.237Zm-1.778,4.072v0ZM-568.7,642.081c-.178.112-.365.225-.51.334.153-.114.344-.233.533-.351Zm-.76.552-.015.01.072-.062C-569.423,642.6-569.439,642.615-569.459,642.633Zm-.633.7,0-.007Zm16.914-10.271c-.2.123-.4.248-.562.366.162-.121.371-.248.571-.373Zm-.83.6-.006,0,.064-.056Zm-.7.8h0c.006-.013.011-.025.018-.038C-554.693,634.442-554.7,634.454-554.7,634.467Zm.441-.583-.025.026c-.017.018-.044.036-.06.053C-554.324,633.937-554.289,633.91-554.263,633.884Zm-.567,1.02,0,.019Zm-5.637-.652a2.436,2.436,0,0,0,.048.25A2.436,2.436,0,0,1-560.467,634.252Zm-9.211,8.566c-.02.02-.036.04-.056.06s-.027.023-.037.034C-569.742,642.881-569.709,642.849-569.678,642.818Zm-.561.928,0,.031Zm-7.809.721a2.3,2.3,0,0,0,.2.545A2.3,2.3,0,0,1-578.048,644.467Zm.368.845a3.76,3.76,0,0,0,.467.544A3.76,3.76,0,0,1-577.68,645.312Zm.717.795a7.1,7.1,0,0,0,1.067.751A7.1,7.1,0,0,1-576.963,646.107Zm76.386,43.617a6.53,6.53,0,0,0,.707.721A6.53,6.53,0,0,1-500.577,689.724Zm-.616-1.108a3.8,3.8,0,0,0,.354.666A3.8,3.8,0,0,1-501.193,688.616Zm1.724,2.222c-.014-.011-.021-.022-.034-.033a11.842,11.842,0,0,0,1.534,1.044A11.871,11.871,0,0,1-499.469,690.838ZM-442.8,688.1c-.012.029-.027.059-.041.089a2.838,2.838,0,0,0,.128-.459A2.639,2.639,0,0,1-442.8,688.1Zm-.492.749c-.074.1-.118.2-.2.3l-.041.043C-443.432,689.078-443.373,688.964-443.288,688.85Z"/><g class="b"><path class="f" d="M-510.738,609.708l-.025,8.77-17.091,7.466.025-8.77Z"/><path class="f" d="M-532.405,619.177l-.025,8.77-6.13,2.687.025-8.77Z"/><path class="g" d="M-538.535,621.864l-.025,8.77-4.053-2.34.025-8.77Z"/><path class="g" d="M-526.979,622.31l-.025,8.77-5.426-3.133.025-8.77Z"/><path class="h" d="M-502.049,608.658l-25.083,19.789-4.465-2.578,4.618-3.559-5.426-3.133-6.13,2.687-4.052-2.34,34.082-14.594Zm-25.78,8.516,4.259,2.459,12.832-9.924-17.091,7.465"/><path class="i" d="M-502.049,608.658l-.025,8.77-25.084,19.789.025-8.77Z"/><path class="g" d="M-527.132,628.447l-.025,8.77-4.465-2.578.025-8.77Z"/></g><g class="b"><g class="b"><g class="j"><g class="b"><path class="k" d="M-492.368,619.374l-.025,8.77c0-.432-.348-.822-.983-1.189a4.351,4.351,0,0,0-.584-.283l.025-8.77a4.548,4.548,0,0,1,.584.283c.635.367.984.758.983,1.189"/><path class="l" d="M-493.935,617.9l-.025,8.77a3.688,3.688,0,0,0-.367-.125l.025-8.77c.124.036.247.077.367.125"/><path class="m" d="M-494.3,617.777l-.025,8.77c-.091-.026-.183-.049-.277-.069l.025-8.769c.094.019.186.042.277.068"/><path class="n" d="M-494.579,617.709l-.025,8.769q-.119-.024-.24-.042l.025-8.769q.121.016.24.042"/><path class="o" d="M-494.819,617.667l-.025,8.769c-.074-.01-.15-.019-.226-.025l.025-8.77c.076.007.151.015.226.026"/><path class="p" d="M-495.045,617.641l-.025,8.77q-.112-.009-.228-.012l.025-8.77q.115,0,.228.012"/><path class="q" d="M-495.273,617.629l-.025,8.77c-.08,0-.161,0-.243,0l.025-8.77c.082,0,.163,0,.243,0"/><path class="r" d="M-495.516,617.63l-.025,8.77c-.093,0-.187.01-.281.019l.025-8.77c.094-.009.188-.015.281-.019"/><path class="s" d="M-495.8,617.649l-.025,8.77c-.119.012-.24.029-.362.051l.025-8.77c.122-.022.243-.039.362-.051"/><path class="t" d="M-496.159,617.7l-.025,8.77a5.537,5.537,0,0,0-.718.182l.025-8.77a5.679,5.679,0,0,1,.718-.182"/><path class="u" d="M-496.877,617.882l-.025,8.77a8.287,8.287,0,0,0-1.589.729c-.031.018-.062.036-.092.055l.025-8.77.092-.054a8.233,8.233,0,0,1,1.589-.73"/><path class="t" d="M-498.558,618.666l-.025,8.77a6.555,6.555,0,0,0-1.073.786l.025-8.769a6.5,6.5,0,0,1,1.073-.787"/><path class="s" d="M-499.631,619.453l-.025,8.769a4.885,4.885,0,0,0-.535.573l.025-8.77a4.714,4.714,0,0,1,.535-.572"/><path class="r" d="M-500.166,620.025l-.025,8.77a4.253,4.253,0,0,0-.367.547l.025-8.769a4.09,4.09,0,0,1,.367-.548"/><path class="q" d="M-500.533,620.573l-.025,8.769a4.216,4.216,0,0,0-.276.6l.025-8.77a4.145,4.145,0,0,1,.276-.6"/><path class="p" d="M-500.809,621.169l-.025,8.77a4.853,4.853,0,0,0-.209.752l.025-8.77a4.744,4.744,0,0,1,.209-.752"/><path class="o" d="M-501.018,621.921l-.025,8.77a7.394,7.394,0,0,0-.124,1.235l.025-8.77a7.4,7.4,0,0,1,.124-1.235"/><path class="n" d="M-501.142,623.156l-.025,8.77c0,.1,0,.2,0,.3l.025-8.769c0-.1,0-.2,0-.3"/></g></g></g><g class="b"><g class="v"><g class="b"><path class="n" d="M-486.3,619.281l-.025,8.769v.065l.025-8.77v-.064"/><path class="o" d="M-486.3,619.345l-.025,8.77a2.532,2.532,0,0,1-.05.429l.025-8.77a2.532,2.532,0,0,0,.05-.429"/><path class="p" d="M-486.353,619.774l-.025,8.77a2.8,2.8,0,0,1-.128.446l.024-8.77a2.912,2.912,0,0,0,.129-.446"/><path class="q" d="M-486.482,620.22l-.024,8.77a3.487,3.487,0,0,1-.232.489l.025-8.769a3.432,3.432,0,0,0,.231-.49"/><path class="r" d="M-486.713,620.71l-.025,8.769a4.441,4.441,0,0,1-.39.577l.025-8.769a4.616,4.616,0,0,0,.39-.577"/><path class="s" d="M-487.1,621.287l-.025,8.769a6.693,6.693,0,0,1-.725.777l.025-8.77a6.854,6.854,0,0,0,.725-.776"/><path class="t" d="M-487.828,622.063l-.025,8.77a12.743,12.743,0,0,1-2.072,1.514l.025-8.77a12.742,12.742,0,0,0,2.072-1.514"/><path class="u" d="M-489.9,623.577l-.025,8.77c-.089.054-.179.107-.27.16l.025-8.77c.091-.053.181-.106.27-.16"/></g></g></g><path class="f" d="M-490.17,623.737l-.025,8.77-.938.545.025-8.77Z"/><path class="g" d="M-491.109,624.283l-.025,8.77-4.173-2.409.025-8.77Z"/><g class="b"><g class="w"><g class="b"><path class="k" d="M-507.556,625.476l-.025,8.77c0-.712-.046-1.448-.044-2.2l.025-8.77c0,.749.046,1.485.044,2.2"/></g></g></g><path class="f" d="M-512.68,626.454l-.025,8.77-2.115,1.229.025-8.77Z"/><g class="b"><g class="x"><g class="b"><path class="u" d="M-514.8,627.683l-.025,8.77-.136.081.025-8.77.136-.081"/><path class="t" d="M-514.932,627.764l-.025,8.77a5.719,5.719,0,0,0-.921.667l.025-8.769a5.718,5.718,0,0,1,.921-.668"/><path class="s" d="M-515.853,628.432l-.025,8.769a2.69,2.69,0,0,0-.284.3l.024-8.77a2.614,2.614,0,0,1,.285-.3"/><path class="r" d="M-516.138,628.735l-.024,8.77a1.659,1.659,0,0,0-.143.21l.025-8.769a1.7,1.7,0,0,1,.142-.211"/><path class="q" d="M-516.28,628.946l-.025,8.769a1.345,1.345,0,0,0-.082.173l.025-8.77a1.279,1.279,0,0,1,.082-.172"/><path class="p" d="M-516.362,629.118l-.025,8.77a1.049,1.049,0,0,0-.044.153l.025-8.77a1.049,1.049,0,0,1,.044-.153"/><path class="o" d="M-516.406,629.271l-.025,8.77a.916.916,0,0,0-.017.145l.025-8.77a.815.815,0,0,1,.017-.145"/><path class="n" d="M-516.423,629.416l-.025,8.77v.021l.025-8.769v-.022"/></g></g></g><g class="b"><g class="y"><g class="b"><path class="n" d="M-501.1,625.672l-.025,8.77c0,.116,0,.233-.005.35l.024-8.77c0-.117,0-.233.006-.35"/><path class="o" d="M-501.106,626.022l-.024,8.77a8.988,8.988,0,0,1-.156,1.5l.025-8.77a8.873,8.873,0,0,0,.155-1.5"/><path class="p" d="M-501.261,627.524l-.025,8.77a6.424,6.424,0,0,1-.281.995l.025-8.77a6.426,6.426,0,0,0,.281-.995"/><path class="q" d="M-501.542,628.519l-.025,8.77a6.042,6.042,0,0,1-.4.862l.025-8.77a6.039,6.039,0,0,0,.4-.862"/><path class="r" d="M-501.942,629.381l-.025,8.77a6.509,6.509,0,0,1-.562.836l.025-8.769a6.7,6.7,0,0,0,.562-.837"/><path class="s" d="M-502.5,630.218l-.025,8.769a7.943,7.943,0,0,1-.857.922l.024-8.77a8.035,8.035,0,0,0,.858-.921"/><path class="t" d="M-503.362,631.139l-.024,8.77a11.983,11.983,0,0,1-1.971,1.447l.025-8.769a11.928,11.928,0,0,0,1.97-1.448"/><path class="u" d="M-505.332,632.587l-.025,8.769-.193.114a17.6,17.6,0,0,1-3.426,1.545l.025-8.77a17.541,17.541,0,0,0,3.426-1.545l.193-.113"/><path class="t" d="M-508.951,634.245l-.025,8.77a14.853,14.853,0,0,1-1.895.478l.024-8.77a14.667,14.667,0,0,0,1.9-.478"/><path class="s" d="M-510.847,634.723l-.024,8.77q-.547.1-1.093.154l.025-8.77q.546-.054,1.092-.154"/><path class="r" d="M-511.939,634.877l-.025,8.77c-.282.028-.565.047-.846.056l.024-8.769q.423-.015.847-.057"/><path class="q" d="M-512.786,634.934l-.024,8.769q-.378.013-.755,0l.025-8.77q.376.009.754,0"/><path class="p" d="M-513.54,634.937l-.025,8.77q-.36-.009-.717-.038l.024-8.77q.359.029.718.038"/><path class="o" d="M-514.258,634.9l-.024,8.77q-.363-.03-.723-.081l.025-8.77q.36.051.722.081"/><path class="n" d="M-514.98,634.818l-.025,8.77q-.387-.055-.771-.135l.025-8.77q.384.08.771.135"/><path class="m" d="M-515.751,634.683l-.025,8.77c-.3-.062-.591-.134-.883-.218l.024-8.77q.44.126.884.218"/><path class="l" d="M-516.635,634.465l-.024,8.77q-.586-.168-1.162-.395l.025-8.77c.383.152.771.283,1.161.4"/><path class="k" d="M-517.8,634.07l-.025,8.77a13.177,13.177,0,0,1-1.744-.845c-2.009-1.16-2.986-2.4-2.982-3.673l.025-8.77c0,1.272.973,2.513,2.982,3.674a13.3,13.3,0,0,0,1.744.844"/></g></g></g><path class="h" d="M-489.24,615.657c4.293,2.479,3.795,5.334-.93,8.08l-.939.546-4.173-2.41,1.229-.713c2.115-1.23,2.11-2.162.7-2.975-1.391-.8-3-.8-5.115.427-6.091,3.539,1.4,9.17-7.059,14.088-4.725,2.746-9.688,3.024-14.015.526s-3.864-5.374.861-8.12l1.826-1.061,4.173,2.409-2.116,1.229c-2.115,1.23-2.007,2.182-.6,2.995s3.052.872,5.167-.357c6.074-3.53-1.4-9.171,7.058-14.089C-498.444,613.486-493.533,613.178-489.24,615.657Z"/></g><g class="b"><path class="g" d="M-478.237,627.306l-.025,8.77-2.1-1.21.025-8.77Z"/><g class="b"><g class="z"><g class="b"><path class="k" d="M-477.224,628.48l-.025,8.77c0-.422-.368-.8-1.013-1.174l.025-8.77c.645.373,1.014.752,1.013,1.174"/></g></g></g><path class="f" d="M-480.332,626.1l-.025,8.77-10.014,5.82.025-8.77Z"/><g class="b"><g class="aa"><g class="b"><path class="n" d="M-470.93,628.547l-.025,8.77v.061l.025-8.77v-.061"/><path class="o" d="M-470.931,628.608l-.025,8.77a2.423,2.423,0,0,1-.048.413l.025-8.77a2.42,2.42,0,0,0,.048-.413"/><path class="p" d="M-470.979,629.021l-.025,8.77a2.641,2.641,0,0,1-.123.427l.025-8.769a2.785,2.785,0,0,0,.123-.428"/><path class="q" d="M-471.1,629.449l-.025,8.769a3.42,3.42,0,0,1-.221.469l.025-8.77a3.41,3.41,0,0,0,.221-.468"/><path class="r" d="M-471.323,629.917l-.025,8.77a4.418,4.418,0,0,1-.376.555l.025-8.769a4.5,4.5,0,0,0,.376-.556"/><path class="s" d="M-471.7,630.473l-.025,8.769a6.453,6.453,0,0,1-.7.752l.025-8.769a6.607,6.607,0,0,0,.7-.752"/><path class="t" d="M-472.4,631.225l-.025,8.769a12.711,12.711,0,0,1-2.069,1.51l.025-8.77a12.766,12.766,0,0,0,2.069-1.509"/><path class="u" d="M-474.471,632.734l-.025,8.77-.277.164.025-8.77c.094-.055.186-.109.277-.164"/></g></g></g><path class="f" d="M-474.748,632.9l-.025,8.77-3.839,2.231.025-8.77Z"/><path class="g" d="M-492.483,635.585l-.025,8.77-2.1-1.21.025-8.77Z"/><g class="b"><g class="ab"><g class="b"><path class="u" d="M-478.587,635.129l-.025,8.77a17.615,17.615,0,0,1-3.449,1.559l.025-8.769a17.686,17.686,0,0,0,3.449-1.56"/><path class="t" d="M-482.036,636.689l-.025,8.769a14.166,14.166,0,0,1-1.816.459l.025-8.77a14.333,14.333,0,0,0,1.816-.458"/><path class="s" d="M-483.852,637.147l-.025,8.77q-.52.094-1.039.146l.025-8.77q.518-.051,1.039-.146"/><path class="r" d="M-484.891,637.293l-.025,8.77q-.407.041-.812.055l.024-8.77c.271-.01.541-.028.813-.055"/><path class="q" d="M-485.7,637.348l-.024,8.77q-.361.012-.721,0l.025-8.77q.36.009.72,0"/><path class="p" d="M-486.424,637.351l-.025,8.77q-.345-.009-.688-.037l.024-8.77c.23.019.459.031.689.037"/><path class="o" d="M-487.113,637.314l-.024,8.77c-.234-.019-.466-.045-.7-.078l.024-8.77c.233.033.465.059.7.078"/><path class="n" d="M-487.811,637.236l-.024,8.77c-.253-.036-.5-.08-.755-.132l.025-8.77q.377.078.754.132"/><path class="m" d="M-488.565,637.1l-.025,8.77c-.3-.061-.59-.134-.884-.218l.025-8.77q.439.126.884.218"/><path class="l" d="M-489.449,636.886l-.025,8.77q-.59-.169-1.174-.4l.024-8.769c.39.153.781.287,1.175.4"/><path class="k" d="M-490.624,636.487l-.024,8.769a14.041,14.041,0,0,1-1.86-.9l.025-8.77a14.1,14.1,0,0,0,1.859.9"/></g></g></g><path class="f" d="M-494.578,634.375l-.025,8.77-11.106,6.454.025-8.77Z"/><path class="h" d="M-474.006,624.848c4.413,2.548,4,5.294-.742,8.05l-3.839,2.231c-4.743,2.756-9.483,3-13.9.456l-2.1-1.21-11.106,6.455-4.414-2.548,29.583-17.192Zm-9.284,7.9,4.435-2.578c2.116-1.23,2.009-2.062.618-2.866l-2.1-1.209-10.015,5.82,2.095,1.209c1.391.8,2.846.853,4.962-.376"/><path class="g" d="M-505.684,640.83l-.025,8.77-4.413-2.548.025-8.77Z"/></g><g class="b"><path class="h" d="M-460.784,632.482l-29.583,17.192-4.413-2.548,29.583-17.192Z"/><path class="f" d="M-460.784,632.482l-.025,8.77-29.583,17.192.025-8.77Z"/><path class="g" d="M-490.367,649.673l-.025,8.77L-494.8,655.9l.025-8.77Z"/></g><g class="b"><path class="g" d="M-455.261,640.572l-.025,8.77-2.129-1.229.025-8.77Z"/><g class="b"><g class="ac"><g class="b"><path class="k" d="M-454.249,641.777l-.025,8.77c0-.422-.338-.816-1.012-1.205l.025-8.77c.674.389,1.013.783,1.012,1.2"/></g></g></g><path class="f" d="M-457.39,639.342l-.025,8.77-9.076,5.274.025-8.77Z"/><g class="b"><g class="ad"><g class="b"><path class="n" d="M-447.612,641.938l-.025,8.77v.055l.025-8.77v-.055"/><path class="o" d="M-447.613,641.993l-.025,8.77a2.074,2.074,0,0,1-.042.366l.025-8.77a2.074,2.074,0,0,0,.042-.366"/><path class="p" d="M-447.655,642.359l-.025,8.77a2.427,2.427,0,0,1-.108.377l.025-8.77a2.429,2.429,0,0,0,.108-.377"/><path class="q" d="M-447.763,642.736l-.025,8.77a3.061,3.061,0,0,1-.194.412l.024-8.77a2.953,2.953,0,0,0,.2-.412"/><path class="r" d="M-447.958,643.148l-.024,8.77a3.985,3.985,0,0,1-.336.5l.025-8.77a3.966,3.966,0,0,0,.335-.5"/><path class="s" d="M-448.293,643.644l-.025,8.77a5.865,5.865,0,0,1-.63.673l.025-8.77a5.867,5.867,0,0,0,.63-.673"/><path class="t" d="M-448.923,644.317l-.025,8.77a12.161,12.161,0,0,1-1.971,1.432l.025-8.769a12.226,12.226,0,0,0,1.971-1.433"/><path class="u" d="M-450.894,645.75l-.025,8.769c-.091.056-.185.111-.28.166l.025-8.769c.1-.056.189-.111.28-.166"/></g></g></g><path class="f" d="M-451.174,645.916l-.025,8.77-2.32,1.348.025-8.77Z"/><path class="g" d="M-469.169,647.958l-.025,8.77-1.528-.882.025-8.77Z"/><g class="b"><g class="ae"><g class="b"><path class="k" d="M-467.807,649.524l-.025,8.77c0-.543-.466-1.049-1.362-1.566l.025-8.77c.9.518,1.363,1.023,1.362,1.566"/></g></g></g><g class="b"><g class="af"><g class="b"><path class="u" d="M-453.495,647.264l-.024,8.77a16.277,16.277,0,0,1-3.187,1.445l.025-8.77a16.267,16.267,0,0,0,3.186-1.445"/><path class="t" d="M-456.681,648.709l-.025,8.77a12.588,12.588,0,0,1-1.6.4l.025-8.77a12.588,12.588,0,0,0,1.6-.4"/><path class="s" d="M-458.277,649.11l-.025,8.77c-.3.054-.6.1-.9.127l.025-8.77q.451-.045.9-.127"/><path class="r" d="M-459.181,649.237l-.025,8.77c-.24.024-.481.04-.721.048l.025-8.77q.36-.012.721-.048"/><path class="q" d="M-459.9,649.285l-.025,8.77q-.324.011-.648,0l.025-8.77q.324.009.648,0"/><path class="p" d="M-460.55,649.288l-.025,8.77c-.21-.005-.419-.016-.629-.034l.025-8.77c.21.018.419.029.629.034"/><path class="o" d="M-461.179,649.254l-.025,8.77q-.324-.027-.648-.072l.025-8.77c.216.03.432.055.648.072"/><path class="n" d="M-461.827,649.182l-.025,8.77q-.279-.041-.558-.094l.025-8.77q.279.054.558.094"/></g></g></g><path class="g" d="M-482.742,654.075l-.025,8.77-4.413-2.548.025-8.77Z"/><path class="f" d="M-470.7,647.076l-.025,8.77-12.045,7,.025-8.77Z"/><g class="b"><g class="ag"><g class="b"><path class="n" d="M-461.96,650.372l-.024,8.77v.052l.025-8.77v-.052"/><path class="o" d="M-461.96,650.424l-.025,8.77a2.167,2.167,0,0,1-.039.338l.025-8.77a2.147,2.147,0,0,0,.039-.338"/><path class="p" d="M-462,650.762l-.025,8.77a2.3,2.3,0,0,1-.1.352l.025-8.77a2.3,2.3,0,0,0,.1-.352"/><path class="q" d="M-462.1,651.114l-.025,8.77a2.771,2.771,0,0,1-.183.388l.025-8.769a2.837,2.837,0,0,0,.183-.389"/><path class="r" d="M-462.284,651.5l-.025,8.769a3.753,3.753,0,0,1-.323.478l.025-8.769a3.906,3.906,0,0,0,.323-.478"/><path class="s" d="M-462.607,651.981l-.025,8.769a5.87,5.87,0,0,1-.634.676l.025-8.769a6.033,6.033,0,0,0,.634-.676"/><path class="t" d="M-463.241,652.657l-.025,8.769a13.442,13.442,0,0,1-2.143,1.553l.025-8.77a13.5,13.5,0,0,0,2.143-1.552"/><path class="u" d="M-465.384,654.209l-.025,8.77c-.123.074-.248.148-.377.223l.025-8.77c.128-.074.254-.149.377-.223"/></g></g></g><path class="f" d="M-465.761,654.432l-.025,8.77-4.572,2.657.025-8.77Z"/><path class="h" d="M-470.333,657.089a10,10,0,0,0-3.1,2.36l-4.482-2.588c.527-.585.816-.951,3.222-2.349l4.64-2.7c2.747-1.6,2.895-2.7.886-3.857l-1.529-.882-12.044,7-4.414-2.548,29.583-17.191,6.663,3.846c4.568,2.638,4.308,5.077-.264,7.734l-2.321,1.348a12.505,12.505,0,0,1-8.89,1.824c1.226,1.835-.288,3.55-3.376,5.344Zm11.367-11.758,2.918-1.7c2.115-1.229,2.35-2.161.787-3.063l-2.129-1.23-9.077,5.275,1.735,1c1.648.952,3.395,1.091,5.766-.287"/><path class="g" d="M-473.435,659.449l-.025,8.77-4.482-2.588.025-8.77Z"/><g class="b"><g class="ah"><g class="b"><path class="u" d="M-470.333,657.089l-.025,8.77c-.244.142-.476.278-.7.412l.025-8.77q.33-.2.7-.412"/><path class="t" d="M-471.029,657.5l-.025,8.77a11.094,11.094,0,0,0-1.808,1.291l.025-8.77a11.1,11.1,0,0,1,1.808-1.291"/><path class="s" d="M-472.837,658.792l-.025,8.77a5.039,5.039,0,0,0-.539.58l.025-8.77a4.958,4.958,0,0,1,.539-.58"/><path class="r" d="M-473.376,659.372l-.025,8.77c-.02.026-.04.051-.059.077l.025-8.77c.019-.026.039-.051.059-.077"/></g></g></g></g><g class="b"><path class="f" d="M-440.349,650.347l-.025,8.77-17.074,7.475.025-8.77Z"/><path class="f" d="M-462,659.826l-.025,8.77-6.147,2.677.025-8.77Z"/><path class="g" d="M-468.146,662.5l-.025,8.77-4.035-2.33.025-8.77Z"/><path class="g" d="M-456.59,662.949l-.025,8.77-5.409-3.123.025-8.77Z"/><path class="h" d="M-431.66,649.3l-25.084,19.79-4.447-2.568,4.6-3.569L-462,659.826l-6.147,2.677-4.035-2.33,34.064-14.6Zm-25.763,8.527,4.241,2.449,12.833-9.925-17.074,7.476"/><path class="i" d="M-431.66,649.3l-.025,8.77-25.084,19.789.025-8.77Z"/><path class="g" d="M-456.744,669.086l-.025,8.77-4.448-2.568.025-8.77Z"/></g><g class="b"><g class="b"><g class="ai"><g class="b"><path class="k" d="M-421.969,660.011l-.025,8.77c0-.426-.345-.813-.976-1.177a4.538,4.538,0,0,0-.6-.289l.025-8.77a4.54,4.54,0,0,1,.6.289c.631.365.977.751.976,1.177"/><path class="l" d="M-423.541,658.545l-.025,8.77c-.122-.048-.246-.091-.371-.127l.025-8.769c.125.036.249.078.371.126"/><path class="m" d="M-423.912,658.419l-.025,8.769q-.138-.039-.279-.069l.025-8.769q.141.029.279.069"/><path class="n" d="M-424.191,658.35l-.025,8.769c-.08-.016-.161-.03-.242-.042l.025-8.77c.081.012.162.026.242.043"/><path class="o" d="M-424.433,658.307l-.025,8.77c-.075-.01-.151-.019-.227-.025l.025-8.77c.076.006.152.015.227.025"/><path class="p" d="M-424.66,658.282l-.025,8.77c-.076-.007-.152-.011-.229-.013l.025-8.769c.077,0,.153.006.229.012"/><path class="q" d="M-424.889,658.27l-.025,8.769c-.08,0-.161,0-.243,0l.024-8.77c.083,0,.164,0,.244,0"/><path class="r" d="M-425.133,658.271l-.024,8.77c-.093,0-.187.009-.281.019l.025-8.77c.094-.01.188-.016.28-.019"/><path class="s" d="M-425.413,658.29l-.025,8.77q-.179.018-.363.051l.025-8.77c.123-.022.243-.039.363-.051"/><path class="t" d="M-425.776,658.341l-.025,8.77a5.637,5.637,0,0,0-.715.181l.025-8.77a5.639,5.639,0,0,1,.715-.181"/><path class="u" d="M-426.491,658.522l-.025,8.77a8.234,8.234,0,0,0-1.587.728l-.091.054.025-8.77.091-.054a8.234,8.234,0,0,1,1.587-.728"/><path class="t" d="M-428.169,659.3l-.025,8.77a6.588,6.588,0,0,0-1.072.786l.025-8.77a6.584,6.584,0,0,1,1.072-.786"/><path class="s" d="M-429.241,660.09l-.025,8.77a4.943,4.943,0,0,0-.534.571l.025-8.769a4.865,4.865,0,0,1,.534-.572"/><path class="r" d="M-429.775,660.662l-.025,8.769a4.163,4.163,0,0,0-.366.547l.025-8.77a4.168,4.168,0,0,1,.366-.546"/><path class="q" d="M-430.141,661.208l-.025,8.77a4.128,4.128,0,0,0-.275.595l.025-8.77a4.131,4.131,0,0,1,.275-.595"/><path class="p" d="M-430.416,661.8l-.025,8.77a4.8,4.8,0,0,0-.209.75l.025-8.77a4.86,4.86,0,0,1,.209-.75"/><path class="o" d="M-430.625,662.553l-.025,8.77a7.444,7.444,0,0,0-.122,1.222l.024-8.77a7.355,7.355,0,0,1,.123-1.222"/><path class="n" d="M-430.748,663.775l-.024,8.77c0,.1,0,.2-.005.3l.025-8.77c0-.1,0-.2,0-.3"/></g></g></g><g class="b"><g class="aj"><g class="b"><path class="n" d="M-415.9,659.917l-.025,8.77v.064l.025-8.77v-.064"/><path class="o" d="M-415.9,659.981l-.025,8.77a2.484,2.484,0,0,1-.049.427l.025-8.769a2.61,2.61,0,0,0,.049-.428"/><path class="p" d="M-415.954,660.409l-.025,8.769a2.9,2.9,0,0,1-.129.445l.025-8.77a2.89,2.89,0,0,0,.129-.444"/><path class="q" d="M-416.083,660.853l-.025,8.77a3.582,3.582,0,0,1-.23.489l.025-8.77a3.476,3.476,0,0,0,.23-.489"/><path class="r" d="M-416.313,661.342l-.025,8.77a4.7,4.7,0,0,1-.389.575l.025-8.77a4.7,4.7,0,0,0,.389-.575"/><path class="s" d="M-416.7,661.917l-.025,8.77a6.814,6.814,0,0,1-.727.778l.025-8.77a6.808,6.808,0,0,0,.727-.778"/><path class="t" d="M-417.429,662.7l-.025,8.77a12.855,12.855,0,0,1-2.08,1.52l.025-8.77a12.856,12.856,0,0,0,2.08-1.52"/><path class="u" d="M-419.509,664.215l-.025,8.77c-.089.054-.18.107-.273.161l.025-8.77c.093-.053.183-.107.273-.161"/></g></g></g><path class="f" d="M-419.782,664.376l-.025,8.77-.938.545.025-8.77Z"/><path class="g" d="M-420.72,664.922l-.025,8.77-4.173-2.409.025-8.77Z"/><g class="b"><g class="ak"><g class="b"><path class="k" d="M-437.156,666.147l-.025,8.77c0-.73-.05-1.484-.047-2.253l.024-8.77c0,.769.05,1.523.048,2.253"/></g></g></g><path class="f" d="M-442.292,667.093l-.025,8.77-2.115,1.229.025-8.77Z"/><g class="b"><g class="al"><g class="b"><path class="u" d="M-444.407,668.322l-.025,8.77-.134.079.025-8.77.134-.079"/><path class="t" d="M-444.541,668.4l-.025,8.77a5.722,5.722,0,0,0-.914.663l.025-8.77a5.719,5.719,0,0,1,.914-.663"/><path class="s" d="M-445.455,669.064l-.025,8.77a2.628,2.628,0,0,0-.285.3l.025-8.77a2.709,2.709,0,0,1,.285-.3"/><path class="r" d="M-445.74,669.369l-.025,8.77a1.678,1.678,0,0,0-.143.211l.025-8.77a1.743,1.743,0,0,1,.143-.211"/><path class="q" d="M-445.883,669.58l-.025,8.77a1.2,1.2,0,0,0-.083.175l.025-8.77a1.2,1.2,0,0,1,.083-.175"/><path class="p" d="M-445.966,669.755l-.025,8.77a1.021,1.021,0,0,0-.044.154l.024-8.77a1.16,1.16,0,0,1,.045-.154"/><path class="o" d="M-446.011,669.909l-.024,8.77a.828.828,0,0,0-.017.147l.025-8.77a.944.944,0,0,1,.016-.147"/><path class="n" d="M-446.027,670.056l-.025,8.77v.021l.025-8.77v-.021"/></g></g></g><g class="b"><g class="am"><g class="b"><path class="n" d="M-430.7,666.345l-.025,8.77c0,.113,0,.227-.005.341l.025-8.77c0-.114,0-.228.005-.341"/><path class="o" d="M-430.707,666.686l-.025,8.77a8.882,8.882,0,0,1-.155,1.494l.025-8.77a8.987,8.987,0,0,0,.155-1.494"/><path class="p" d="M-430.862,668.18l-.025,8.77a6.409,6.409,0,0,1-.28.994l.025-8.77a6.492,6.492,0,0,0,.28-.994"/><path class="q" d="M-431.142,669.174l-.025,8.77a5.97,5.97,0,0,1-.4.86l.025-8.769a6.143,6.143,0,0,0,.4-.861"/><path class="r" d="M-431.542,670.035l-.025,8.769a6.608,6.608,0,0,1-.561.836l.024-8.77a6.5,6.5,0,0,0,.562-.835"/><path class="s" d="M-432.1,670.87l-.024,8.77a8.011,8.011,0,0,1-.856.92l.025-8.77a7.909,7.909,0,0,0,.855-.92"/><path class="t" d="M-432.959,671.79l-.025,8.77a11.888,11.888,0,0,1-1.968,1.445l.025-8.769a11.948,11.948,0,0,0,1.968-1.446"/><path class="u" d="M-434.927,673.236l-.025,8.769-.192.114a17.631,17.631,0,0,1-3.423,1.544l.024-8.77a17.6,17.6,0,0,0,3.424-1.544l.192-.113"/><path class="t" d="M-438.543,674.893l-.024,8.77a14.807,14.807,0,0,1-1.9.477l.025-8.769a14.92,14.92,0,0,0,1.894-.478"/><path class="s" d="M-440.437,675.371l-.025,8.769q-.546.1-1.09.154l.025-8.77q.543-.054,1.09-.153"/><path class="r" d="M-441.527,675.524l-.025,8.77q-.424.042-.848.057l.025-8.77c.282-.01.564-.029.848-.057"/><path class="q" d="M-442.375,675.581l-.025,8.77c-.252.008-.5.01-.754,0l.025-8.77c.251.007.5.005.754,0"/><path class="p" d="M-443.129,675.584l-.025,8.77c-.24-.006-.48-.019-.718-.038l.025-8.77c.238.02.478.032.718.038"/><path class="o" d="M-443.847,675.546l-.025,8.77q-.363-.03-.723-.081l.024-8.77q.362.051.724.081"/><path class="n" d="M-444.571,675.465l-.024,8.77q-.389-.055-.773-.135l.025-8.77c.256.053.514.1.772.135"/><path class="m" d="M-445.343,675.33l-.025,8.77q-.445-.093-.887-.219l.025-8.77q.441.126.887.219"/><path class="l" d="M-446.23,675.111l-.025,8.77a12.315,12.315,0,0,1-1.166-.4l.025-8.769q.578.228,1.166.4"/><path class="k" d="M-447.4,674.715l-.025,8.769a13.211,13.211,0,0,1-1.755-.85c-2.01-1.16-2.986-2.4-2.983-3.673l.025-8.77c0,1.272.973,2.513,2.983,3.673a13.235,13.235,0,0,0,1.755.851"/></g></g></g><path class="h" d="M-418.834,656.306c4.293,2.478,3.778,5.324-.948,8.07l-.938.546-4.173-2.41,1.228-.714c2.116-1.229,2.128-2.151.72-2.964s-3.017-.813-5.133.416c-6.09,3.54,1.421,9.181-7.041,14.1-4.726,2.746-9.688,3.024-14.032.515-4.328-2.5-3.865-5.373.861-8.119l1.825-1.061,4.173,2.409-2.115,1.229c-2.116,1.23-1.99,2.191-.6,2.994,1.408.813,3.068.883,5.184-.347,6.073-3.529-1.421-9.18,7.041-14.1C-428.055,654.125-423.128,653.827-418.834,656.306Z"/></g><g class="b"><path class="h" d="M-405.7,664.287l-29.583,17.192-4.413-2.548,29.583-17.192Z"/><path class="f" d="M-405.7,664.287l-.025,8.77L-435.3,690.248l.025-8.77Z"/><path class="g" d="M-435.279,681.479l-.025,8.77-4.413-2.548.025-8.77Z"/></g><g class="b"><g class="b"><g class="an"><g class="b"><path class="k" d="M-545.089,631.263l-.024,8.769a5.259,5.259,0,0,0-.7-.34l.025-8.77a5.381,5.381,0,0,1,.7.341"/><path class="l" d="M-545.789,630.922l-.025,8.77q-.21-.082-.426-.144l.025-8.77q.216.061.426.144"/><path class="m" d="M-546.215,630.778l-.025,8.77c-.106-.031-.213-.057-.321-.08l.024-8.77c.109.023.216.049.322.08"/><path class="n" d="M-546.537,630.7l-.024,8.77c-.091-.019-.183-.035-.275-.048l.025-8.77c.092.014.184.03.274.048"/><path class="o" d="M-546.811,630.65l-.025,8.77c-.085-.012-.171-.021-.257-.029l.025-8.769c.086.007.172.016.257.028"/><path class="p" d="M-547.068,630.622l-.025,8.769c-.085-.007-.171-.011-.257-.013l.025-8.77c.086,0,.172.007.257.014"/><path class="q" d="M-547.325,630.608l-.025,8.77c-.091,0-.182,0-.274,0l.025-8.77c.092,0,.183,0,.274,0"/><path class="r" d="M-547.6,630.609l-.025,8.77c-.1,0-.208.011-.314.021l.025-8.77c.106-.01.21-.017.314-.021"/><path class="s" d="M-547.913,630.63l-.025,8.77c-.136.014-.274.033-.414.059l.025-8.77c.14-.026.278-.045.414-.059"/><path class="t" d="M-548.327,630.689l-.025,8.77a6.018,6.018,0,0,0-.779.2l.025-8.77a6.131,6.131,0,0,1,.779-.2"/><path class="u" d="M-549.106,630.886l-.025,8.77a8.89,8.89,0,0,0-1.731.793l.025-8.77a8.922,8.922,0,0,1,1.731-.793"/></g></g></g><path class="f" d="M-550.837,631.679l-.025,8.77-2.03,1.18.025-8.77Z"/><path class="g" d="M-539.525,634.475l-.025,8.77-5.564-3.212.025-8.77Z"/><path class="f" d="M-534.782,631.719l-.025,8.77-4.743,2.756.025-8.77Z"/><g class="b"><g class="ao"><g class="b"><path class="u" d="M-552.868,632.859l-.024,8.77c-.058.033-.114.066-.169.1l.025-8.77.168-.1"/><path class="t" d="M-553.036,632.958l-.025,8.77a7.01,7.01,0,0,0-1.12.812l.025-8.77a6.964,6.964,0,0,1,1.12-.812"/><path class="s" d="M-554.156,633.77l-.025,8.77a3.241,3.241,0,0,0-.338.36l.025-8.769a3.162,3.162,0,0,1,.338-.361"/><path class="r" d="M-554.494,634.131l-.025,8.769a1.988,1.988,0,0,0-.17.252l.025-8.77a1.991,1.991,0,0,1,.17-.251"/><path class="q" d="M-554.664,634.382l-.025,8.77a1.408,1.408,0,0,0-.1.205l.025-8.77a1.45,1.45,0,0,1,.1-.2"/><path class="p" d="M-554.761,634.587l-.025,8.77a1.2,1.2,0,0,0-.053.183l.025-8.769a1.192,1.192,0,0,1,.053-.184"/><path class="o" d="M-554.814,634.771l-.025,8.769a1.054,1.054,0,0,0-.02.175l.025-8.77a.939.939,0,0,1,.02-.174"/><path class="n" d="M-554.834,634.945l-.025,8.77v.025l.024-8.77v-.025"/></g></g></g><g class="b"><g class="ap"><g class="b"><path class="k" d="M-560.043,635.258l-.025,8.77a2.777,2.777,0,0,1-.514-1.557l.024-8.77a2.787,2.787,0,0,0,.515,1.557"/></g></g></g><g class="b"><g class="aq"><g class="b"><path class="k" d="M-557.879,639.531l-.025,8.77a7.438,7.438,0,0,0-1-.488l.025-8.77a7.434,7.434,0,0,1,1,.488"/><path class="l" d="M-558.882,639.043l-.025,8.77q-.273-.108-.548-.187l.025-8.77c.183.053.365.115.548.187"/><path class="m" d="M-559.43,638.856l-.025,8.77c-.133-.038-.267-.071-.4-.1l.025-8.77c.134.028.268.061.4.1"/><path class="n" d="M-559.831,638.757l-.025,8.77c-.111-.023-.223-.043-.335-.058l.025-8.77c.112.016.224.035.335.058"/><path class="o" d="M-560.166,638.7l-.025,8.77c-.1-.015-.206-.027-.309-.035l.025-8.77c.1.009.206.02.309.035"/><path class="p" d="M-560.475,638.664l-.025,8.77c-.1-.009-.2-.014-.307-.017l.024-8.77c.1,0,.206.009.308.017"/><path class="q" d="M-560.783,638.647l-.024,8.77c-.108,0-.216,0-.326,0l.025-8.77c.109,0,.218,0,.325,0"/><path class="r" d="M-561.108,638.649l-.025,8.77c-.123,0-.247.013-.373.025l.025-8.769c.125-.013.25-.021.373-.026"/><path class="s" d="M-561.481,638.675l-.025,8.769c-.159.017-.32.039-.484.069l.025-8.77c.163-.029.325-.052.484-.068"/><path class="t" d="M-561.965,638.743l-.025,8.77a7.33,7.33,0,0,0-.961.245l.025-8.77a7.46,7.46,0,0,1,.961-.245"/><path class="u" d="M-562.926,638.988l-.025,8.77a12.585,12.585,0,0,0-2.413,1.118l.025-8.77a12.583,12.583,0,0,1,2.413-1.118"/></g></g></g><path class="g" d="M-555.99,640.622l-.025,8.77L-557.9,648.3l.025-8.77Z"/><path class="f" d="M-542.6,638.57l-.025,8.77-3.7,2.151.025-8.77Z"/><path class="f" d="M-565.339,640.106l-.025,8.77-3.071,1.785.025-8.77Z"/><g class="b"><g class="ar"><g class="b"><path class="u" d="M-568.41,641.891l-.025,8.77-.151.089.025-8.77.151-.089"/><path class="t" d="M-568.561,641.98l-.025,8.77a6.385,6.385,0,0,0-1.036.753l.025-8.77a6.452,6.452,0,0,1,1.036-.753"/><path class="s" d="M-569.6,642.733l-.025,8.77a3.02,3.02,0,0,0-.326.347l.025-8.77a3.021,3.021,0,0,1,.326-.347"/><path class="r" d="M-569.923,643.08l-.025,8.77a1.853,1.853,0,0,0-.164.243l.024-8.77a1.97,1.97,0,0,1,.165-.243"/><path class="q" d="M-570.088,643.323l-.024,8.77a1.371,1.371,0,0,0-.095.2l.025-8.769a1.443,1.443,0,0,1,.094-.2"/><path class="p" d="M-570.182,643.523l-.025,8.769a1.25,1.25,0,0,0-.051.177l.025-8.77a1.2,1.2,0,0,1,.051-.176"/><path class="o" d="M-570.233,643.7l-.025,8.77a.96.96,0,0,0-.019.167l.024-8.77a.974.974,0,0,1,.02-.167"/><path class="n" d="M-570.253,643.866l-.024,8.77v.025l.025-8.77v-.025"/></g></g></g><path class="f" d="M-545,641.474l-.025,8.77L-549.765,653l.025-8.77Z"/><path class="g" d="M-549.74,644.231l-.025,8.77-1.305-.753.025-8.77Z"/><g class="b"><g class="as"><g class="b"><path class="t" d="M-568.308,647.78l-.025,8.77c-.206.047-.41.088-.613.125l.025-8.77c.2-.037.407-.078.613-.125"/><path class="s" d="M-568.921,647.905l-.025,8.77q-.521.094-1.03.145l.025-8.77c.339-.034.683-.082,1.03-.145"/><path class="r" d="M-569.951,648.05l-.025,8.77q-.387.037-.765.051l.024-8.77q.379-.014.766-.051"/><path class="q" d="M-570.717,648.1l-.024,8.77c-.219.007-.437.008-.652,0l.025-8.77q.322.009.651,0"/><path class="p" d="M-571.368,648.1l-.025,8.77c-.2-.005-.4-.016-.6-.032l.025-8.77c.2.017.4.027.6.032"/><path class="o" d="M-571.968,648.072l-.025,8.77c-.2-.016-.39-.038-.583-.065l.025-8.77c.193.027.387.049.583.065"/><path class="n" d="M-572.551,648.007l-.025,8.77q-.3-.043-.6-.1l.025-8.77c.2.042.4.076.6.105"/><path class="m" d="M-573.152,647.9l-.025,8.77c-.224-.046-.446-.1-.665-.163l.025-8.77q.328.094.665.163"/><path class="l" d="M-573.817,647.739l-.025,8.77a8.786,8.786,0,0,1-.852-.289l.024-8.769q.42.165.853.288"/><path class="k" d="M-574.67,647.451l-.024,8.769a9.1,9.1,0,0,1-1.227-.592c-1.505-.869-2.239-1.83-2.236-2.859l.025-8.769c0,1.028.731,1.989,2.236,2.858a9.27,9.27,0,0,0,1.226.593"/></g></g></g><path class="f" d="M-551.045,643.477l-.025,8.77-10.885,6.325.025-8.77Z"/><path class="g" d="M-565.423,652.45l-.025,8.77-5.031-2.9.025-8.77Z"/><g class="b"><g class="at"><g class="b"><path class="u" d="M-561.929,649.8l-.025,8.769c-.321.187-.622.364-.906.535l.025-8.77c.283-.171.585-.348.906-.534"/><path class="t" d="M-562.835,650.337l-.025,8.77a11.836,11.836,0,0,0-1.922,1.372l.024-8.77a11.9,11.9,0,0,1,1.923-1.372"/><path class="s" d="M-564.758,651.709l-.024,8.77a5.134,5.134,0,0,0-.567.61l.025-8.77a5.217,5.217,0,0,1,.566-.61"/><path class="r" d="M-565.324,652.319l-.025,8.77c-.034.043-.067.086-.1.131l.025-8.77c.032-.044.065-.088.1-.131"/></g></g></g><path class="h" d="M-549.74,644.231l-1.3-.754-10.884,6.326a10.9,10.9,0,0,0-3.494,2.647l-5.032-2.905a8,8,0,0,1,2.147-1.765,10.239,10.239,0,0,1-7.588-.922c-3.64-2.1-2.765-4.739,2.114-7.574l3.361-1.954a14.392,14.392,0,0,1,10.378-2.072c-1.295-1.953-.142-3.876,3.407-5.939l.614-.356c5.306-3.084,10.628-3.371,15.573-.516l5.667,3.272-4.743,2.756-5.564-3.212c-1.579-.913-3.377-.962-5.748.416l-2.031,1.18c-2.661,1.547-2.4,2.687-.543,3.757l2.163,1.25,3.7-2.152,4.946,2.856-3.7,2.151,1.3.753Zm-13.911.842,7.661-4.451-1.889-1.091c-2.25-1.3-4.372-1.219-7.46.575l-3.071,1.785c-2.371,1.378-2.279,2.479-.717,3.381,1.494.862,3.275.961,5.476-.2"/></g><g class="b"><path class="f" d="M-517.318,641.8l-.025,8.77-28.44,16.527.025-8.77Z"/><path class="h" d="M-517.318,641.8l-28.44,16.527,8.14,4.7-4.726,2.746-13.085-7.555,33.166-19.274Z"/><path class="f" d="M-537.618,663.028l-.025,8.77-4.726,2.746.025-8.77Z"/><path class="g" d="M-542.344,665.775l-.025,8.77-13.085-7.555.025-8.77Z"/></g><g class="b"><path class="f" d="M-505.791,655.275l-.025,8.77-19.157,8.368.025-8.77Z"/><path class="f" d="M-530.088,665.894l-.025,8.77-6.847,3,.025-8.77Z"/><path class="g" d="M-536.935,668.9l-.025,8.77-4.551-2.627.025-8.77Z"/><path class="g" d="M-524.009,669.4l-.025,8.77-6.079-3.51.025-8.77Z"/><path class="h" d="M-496.042,654.085l-28.134,22.179-4.98-2.875,5.147-3.986-6.079-3.509-6.847,3-4.55-2.628,38.2-16.368Zm-28.907,9.558,4.774,2.756,14.384-11.124-19.158,8.368"/><path class="i" d="M-496.042,654.085l-.025,8.77L-524.2,685.034l.025-8.77Z"/><path class="g" d="M-524.176,676.264l-.025,8.77-4.98-2.875.025-8.77Z"/></g><g class="b"><path class="g" d="M-486.154,665.289l-.025,8.77-2.353-1.358.025-8.77Z"/><g class="b"><g class="au"><g class="b"><path class="k" d="M-485.026,666.6l-.025,8.77c0-.471-.407-.9-1.128-1.313l.025-8.769c.721.416,1.129.841,1.128,1.312"/></g></g></g><path class="f" d="M-488.506,663.93l-.025,8.77-11.226,6.524.025-8.77Z"/><g class="b"><g class="av"><g class="b"><path class="n" d="M-477.971,666.675l-.024,8.769c0,.023,0,.046,0,.069l.024-8.77c0-.023,0-.046,0-.068"/><path class="o" d="M-477.972,666.743l-.024,8.77a2.837,2.837,0,0,1-.054.464l.025-8.77a2.717,2.717,0,0,0,.053-.464"/><path class="p" d="M-478.025,667.207l-.025,8.77a3.012,3.012,0,0,1-.139.479l.025-8.769a3.054,3.054,0,0,0,.139-.48"/><path class="q" d="M-478.164,667.687l-.025,8.769a3.677,3.677,0,0,1-.248.527l.025-8.77a3.727,3.727,0,0,0,.248-.526"/><path class="r" d="M-478.412,668.213l-.025,8.77a5.018,5.018,0,0,1-.421.623l.024-8.77a4.928,4.928,0,0,0,.422-.623"/><path class="s" d="M-478.834,668.836l-.024,8.77a7.333,7.333,0,0,1-.789.844l.025-8.77a7.4,7.4,0,0,0,.788-.844"/><path class="t" d="M-479.622,669.68l-.025,8.77a14.283,14.283,0,0,1-2.318,1.69l.025-8.769a14.338,14.338,0,0,0,2.318-1.691"/><path class="u" d="M-481.94,671.371l-.025,8.769c-.1.062-.205.123-.31.184l.025-8.769c.105-.062.209-.123.31-.184"/></g></g></g><path class="f" d="M-482.25,671.555l-.025,8.77-4.316,2.508.025-8.77Z"/><path class="g" d="M-502.122,674.569l-.025,8.77-2.353-1.358.025-8.77Z"/><g class="b"><g class="aw"><g class="b"><path class="u" d="M-486.567,674.063l-.024,8.77a19.772,19.772,0,0,1-3.857,1.744l.025-8.77a19.739,19.739,0,0,0,3.856-1.744"/><path class="t" d="M-490.423,675.807l-.025,8.77a15.921,15.921,0,0,1-2.032.513l.025-8.77a15.91,15.91,0,0,0,2.032-.513"/><path class="s" d="M-492.455,676.32l-.025,8.77q-.582.1-1.163.163l.025-8.769q.581-.059,1.163-.164"/><path class="r" d="M-493.618,676.484l-.025,8.769c-.3.031-.607.051-.909.061l.025-8.77q.453-.015.909-.06"/><path class="q" d="M-494.527,676.544l-.025,8.77c-.269.009-.538.011-.806,0l.025-8.77q.4.011.806,0"/><path class="p" d="M-495.333,676.548l-.025,8.77c-.257-.006-.515-.02-.771-.041l.025-8.77q.384.031.771.041"/><path class="o" d="M-496.1,676.507l-.025,8.77q-.392-.033-.782-.088l.025-8.77q.39.055.782.088"/><path class="n" d="M-496.886,676.419l-.025,8.77q-.423-.06-.845-.147l.025-8.77q.421.087.845.147"/><path class="m" d="M-497.731,676.272l-.025,8.77q-.5-.1-.99-.245l.025-8.769q.494.141.99.244"/><path class="l" d="M-498.721,676.028l-.025,8.769q-.662-.189-1.316-.447l.025-8.77q.654.258,1.316.448"/><path class="k" d="M-500.037,675.58l-.025,8.77a15.647,15.647,0,0,1-2.085-1.012l.025-8.769a15.708,15.708,0,0,0,2.085,1.011"/></g></g></g><path class="f" d="M-504.475,673.21l-.025,8.77-12.454,7.238.025-8.77Z"/><path class="h" d="M-481.411,662.532c4.945,2.856,4.467,5.939-.839,9.023l-4.317,2.508c-5.305,3.083-10.61,3.361-15.555.506l-2.353-1.359-12.454,7.238-4.946-2.855,33.166-19.274Zm-10.425,8.864,4.981-2.9c2.355-1.368,2.264-2.31.7-3.212l-2.352-1.359-11.226,6.524,2.352,1.358c1.563.9,3.172.962,5.544-.416"/><path class="g" d="M-516.929,680.448l-.025,8.77-4.946-2.855.025-8.77Z"/></g><g class="b"><g class="b"><g class="ax"><g class="b"><path class="k" d="M-467.645,676.268l-.025,8.769c0-.505-.407-.962-1.133-1.381a5.157,5.157,0,0,0-.678-.329l.025-8.77a5.155,5.155,0,0,1,.678.329c.726.419,1.134.876,1.133,1.382"/><path class="l" d="M-469.456,674.557l-.025,8.77q-.212-.084-.431-.147l.025-8.77c.146.042.29.091.431.147"/><path class="m" d="M-469.887,674.41l-.025,8.77c-.108-.031-.217-.058-.328-.081l.025-8.77c.111.023.22.05.328.081"/><path class="n" d="M-470.215,674.329l-.025,8.77c-.094-.019-.188-.036-.284-.049l.025-8.77c.1.013.19.03.284.049"/><path class="o" d="M-470.5,674.28l-.025,8.77c-.088-.013-.178-.023-.268-.03l.025-8.77c.09.007.179.017.268.03"/><path class="p" d="M-470.767,674.25l-.025,8.77c-.088-.008-.178-.013-.268-.015l.025-8.77c.09,0,.18.007.268.015"/><path class="q" d="M-471.035,674.235l-.025,8.77c-.094,0-.19,0-.286,0l.025-8.77c.1,0,.191,0,.286,0"/><path class="r" d="M-471.321,674.237l-.025,8.77c-.108,0-.217.011-.328.022l.025-8.77c.111-.011.22-.018.328-.022"/><path class="s" d="M-471.649,674.259l-.025,8.77c-.141.014-.285.034-.432.061l.025-8.77c.146-.027.29-.047.432-.061"/><path class="t" d="M-472.081,674.32l-.025,8.77a6.1,6.1,0,0,0-.8.2l.025-8.77a6.111,6.111,0,0,1,.8-.2"/><path class="u" d="M-472.882,674.523l-.025,8.77a8.881,8.881,0,0,0-1.73.789l.025-8.77a8.851,8.851,0,0,1,1.73-.789"/></g></g></g><g class="b"><g class="ay"><g class="b"><path class="n" d="M-460.628,676.341l-.025,8.77c0,.025,0,.049,0,.074l.025-8.77c0-.024,0-.049,0-.074"/><path class="o" d="M-460.63,676.415l-.025,8.77a2.8,2.8,0,0,1-.057.5l.025-8.77a2.794,2.794,0,0,0,.057-.5"/><path class="p" d="M-460.687,676.911l-.025,8.77a3.287,3.287,0,0,1-.147.512l.024-8.77a3.183,3.183,0,0,0,.148-.512"/><path class="q" d="M-460.835,677.423l-.024,8.77a4.1,4.1,0,0,1-.262.557l.024-8.77a3.881,3.881,0,0,0,.262-.557"/><path class="r" d="M-461.1,677.98l-.024,8.77a5.247,5.247,0,0,1-.448.661l.025-8.77a5.126,5.126,0,0,0,.447-.661"/><path class="s" d="M-461.544,678.641l-.025,8.77a7.442,7.442,0,0,1-.808.864l.025-8.769a7.522,7.522,0,0,0,.808-.865"/><path class="t" d="M-462.352,679.506l-.025,8.769a13.746,13.746,0,0,1-2.238,1.637l.025-8.77a13.747,13.747,0,0,0,2.238-1.636"/><path class="u" d="M-464.59,681.142l-.025,8.77c-.093.056-.187.112-.284.168l.025-8.77.284-.168"/></g></g></g><path class="f" d="M-474.612,675.312l-.025,8.77-17.9,10.4.025-8.77Z"/><g class="b"><g class="az"><g class="b"><path class="u" d="M-492.509,685.712l-.025,8.77-.154.091.025-8.769c.05-.031.1-.061.154-.092"/><path class="t" d="M-492.663,685.8l-.025,8.769a6.507,6.507,0,0,0-1.043.757l.025-8.77a6.445,6.445,0,0,1,1.043-.756"/><path class="s" d="M-493.706,686.56l-.025,8.77a3,3,0,0,0-.325.347l.025-8.77a3.006,3.006,0,0,1,.325-.347"/><path class="r" d="M-494.031,686.907l-.025,8.77a1.942,1.942,0,0,0-.164.241l.025-8.77a1.909,1.909,0,0,1,.164-.241"/><path class="q" d="M-494.2,687.148l-.025,8.77a1.469,1.469,0,0,0-.094.2l.025-8.77a1.473,1.473,0,0,1,.094-.2"/><path class="p" d="M-494.289,687.346l-.025,8.77a1.1,1.1,0,0,0-.05.175l.025-8.769a1.083,1.083,0,0,1,.05-.176"/><path class="o" d="M-494.339,687.522l-.025,8.769a.863.863,0,0,0-.019.166l.024-8.77a.93.93,0,0,1,.02-.165"/><path class="n" d="M-494.359,687.687l-.024,8.77v.024l.025-8.77v-.024"/></g></g></g><path class="f" d="M-464.874,681.31l-.025,8.77L-482.147,700.1l.025-8.77Z"/><path class="h" d="M-464.035,672.13c4.859,2.8,4.467,6.1-.839,9.18l-17.248,10.024c-5.306,3.083-10.987,3.321-15.847.515s-4.484-6.107.821-9.19l17.249-10.024C-474.594,669.552-468.895,669.324-464.035,672.13Zm-23.357,16.537,17.9-10.4c2.371-1.379,2.3-2.469.717-3.381s-3.463-.952-5.834.426l-17.9,10.4c-2.371,1.379-2.3,2.469-.717,3.381s3.463.952,5.834-.426"/><g class="b"><g class="ba"><g class="b"><path class="u" d="M-482.122,691.334l-.025,8.77a19.217,19.217,0,0,1-3.736,1.683l.025-8.77a19.213,19.213,0,0,0,3.736-1.683"/><path class="t" d="M-485.858,693.017l-.025,8.77a16.67,16.67,0,0,1-2.155.544l.025-8.77a16.5,16.5,0,0,0,2.155-.544"/><path class="s" d="M-488.013,693.561l-.025,8.77q-.617.113-1.232.174l.025-8.77q.615-.062,1.232-.174"/><path class="r" d="M-489.245,693.735l-.025,8.77c-.328.032-.656.054-.982.065l.025-8.769c.326-.012.654-.033.982-.066"/><path class="q" d="M-490.227,693.8l-.025,8.769c-.289.01-.577.012-.865,0l.025-8.769c.287.007.576.005.865,0"/><path class="p" d="M-491.092,693.8l-.025,8.769c-.276-.007-.551-.021-.825-.044l.025-8.77q.411.035.825.045"/><path class="o" d="M-491.917,693.76l-.025,8.77q-.419-.035-.832-.093l.025-8.77q.414.059.832.093"/><path class="n" d="M-492.749,693.667l-.025,8.77q-.447-.063-.889-.155l.025-8.77q.443.091.889.155"/><path class="m" d="M-493.638,693.512l-.025,8.77q-.513-.106-1.019-.251l.025-8.77q.506.144,1.019.251"/><path class="l" d="M-494.657,693.261l-.025,8.77c-.448-.129-.892-.279-1.33-.453l.024-8.77q.658.261,1.331.453"/><path class="k" d="M-495.988,692.808l-.024,8.77a14.911,14.911,0,0,1-1.982-.959c-2.291-1.323-3.418-2.756-3.414-4.224l.025-8.77c-.005,1.469,1.123,2.9,3.414,4.224a14.892,14.892,0,0,0,1.981.959"/></g></g></g></g><g class="b"><path class="g" d="M-451.123,685.514l-.025,8.77-2.37-1.368.025-8.77Z"/><g class="b"><g class="bb"><g class="b"><path class="k" d="M-449.983,686.867l-.025,8.77c0-.472-.379-.914-1.139-1.353l.024-8.77c.761.439,1.142.882,1.14,1.353"/></g></g></g><path class="f" d="M-453.492,684.146l-.025,8.77-10.185,5.919.025-8.77Z"/><g class="b"><g class="bc"><g class="b"><path class="n" d="M-442.549,687.045l-.025,8.769v.062l.025-8.77v-.061"/><path class="o" d="M-442.55,687.106l-.025,8.77a2.5,2.5,0,0,1-.047.411l.024-8.77a2.4,2.4,0,0,0,.048-.411"/><path class="p" d="M-442.6,687.517l-.024,8.77a2.809,2.809,0,0,1-.122.423l.024-8.77a2.694,2.694,0,0,0,.122-.423"/><path class="q" d="M-442.72,687.94l-.024,8.77a3.278,3.278,0,0,1-.219.463l.025-8.77a3.277,3.277,0,0,0,.218-.463"/><path class="r" d="M-442.938,688.4l-.025,8.77a4.439,4.439,0,0,1-.375.555l.025-8.77a4.449,4.449,0,0,0,.375-.555"/><path class="s" d="M-443.313,688.958l-.025,8.77a6.718,6.718,0,0,1-.709.757l.025-8.769a6.814,6.814,0,0,0,.709-.758"/><path class="t" d="M-444.022,689.716l-.025,8.769a13.648,13.648,0,0,1-2.215,1.61l.025-8.77a13.758,13.758,0,0,0,2.215-1.609"/><path class="u" d="M-446.237,691.325l-.025,8.77c-.1.062-.209.124-.316.187l.025-8.77c.107-.062.213-.125.316-.187"/></g></g></g><path class="f" d="M-446.553,691.512l-.025,8.77-2.593,1.507.025-8.77Z"/><path class="g" d="M-466.72,693.8l-.025,8.77-1.7-.982.025-8.77Z"/><g class="b"><g class="bd"><g class="b"><path class="k" d="M-465.187,695.567l-.025,8.77c0-.613-.525-1.183-1.533-1.765l.025-8.77c1.008.582,1.534,1.152,1.533,1.765"/></g></g></g><g class="b"><g class="be"><g class="b"><path class="u" d="M-449.146,693.019l-.025,8.77a18.169,18.169,0,0,1-3.58,1.623l.025-8.769a18.235,18.235,0,0,0,3.58-1.624"/><path class="t" d="M-452.726,694.643l-.025,8.769a14.1,14.1,0,0,1-1.8.452l.025-8.77a14.081,14.081,0,0,0,1.8-.451"/><path class="s" d="M-454.522,695.094l-.025,8.77c-.339.061-.677.109-1.015.142l.025-8.769q.507-.051,1.015-.143"/><path class="r" d="M-455.537,695.237l-.025,8.769c-.269.027-.537.045-.806.054l.025-8.769q.4-.015.806-.054"/><path class="q" d="M-456.343,695.291l-.025,8.769q-.363.013-.726,0l.025-8.77q.363.009.726,0"/><path class="p" d="M-457.069,695.294l-.025,8.77q-.351-.009-.7-.038l.024-8.77c.234.02.468.032.7.038"/><path class="o" d="M-457.771,695.256l-.024,8.77q-.361-.03-.723-.081l.025-8.77q.361.051.722.081"/><path class="n" d="M-458.493,695.175l-.025,8.77c-.207-.029-.413-.064-.62-.1l.024-8.77q.311.06.621.1"/></g></g></g><path class="g" d="M-481.915,700.663l-.025,8.77-4.963-2.865.025-8.77Z"/><path class="f" d="M-468.42,692.821l-.025,8.77-13.495,7.842.025-8.77Z"/><g class="b"><g class="bf"><g class="b"><path class="n" d="M-458.633,696.518l-.025,8.77v.058l.025-8.77v-.058"/><path class="o" d="M-458.634,696.576l-.025,8.77a2.212,2.212,0,0,1-.044.379l.025-8.769a2.343,2.343,0,0,0,.044-.38"/><path class="p" d="M-458.678,696.956l-.025,8.769a2.534,2.534,0,0,1-.114.4l.025-8.77a2.635,2.635,0,0,0,.114-.4"/><path class="q" d="M-458.792,697.351l-.025,8.77a3.163,3.163,0,0,1-.205.435l.025-8.77a3.162,3.162,0,0,0,.205-.435"/><path class="r" d="M-459,697.786l-.025,8.77a4.314,4.314,0,0,1-.362.536l.024-8.77a4.152,4.152,0,0,0,.363-.536"/><path class="s" d="M-459.36,698.322l-.024,8.77a6.725,6.725,0,0,1-.709.757l.024-8.77a6.553,6.553,0,0,0,.709-.757"/><path class="t" d="M-460.069,699.079l-.024,8.77a15.057,15.057,0,0,1-2.392,1.732l.025-8.77a14.937,14.937,0,0,0,2.391-1.732"/><path class="u" d="M-462.46,700.811l-.025,8.77q-.206.125-.42.249l.025-8.77q.215-.125.42-.249"/></g></g></g><path class="f" d="M-462.88,701.06l-.025,8.77-5.118,2.974.025-8.77Z"/><path class="h" d="M-468,704.034a11.274,11.274,0,0,0-3.494,2.647l-5.031-2.905c.578-.654.918-1.051,3.614-2.617l5.22-3.034c3.071-1.785,3.218-3.024.969-4.323l-1.7-.981-13.495,7.842-4.963-2.865,33.166-19.274,7.469,4.313c5.135,2.964,4.808,5.7-.31,8.675l-2.593,1.507a14.041,14.041,0,0,1-9.968,2.052c1.381,2.063-.32,3.986-3.766,5.989Zm12.712-13.176,3.276-1.9c2.371-1.378,2.656-2.419.887-3.44l-2.369-1.368-10.186,5.919,1.924,1.11c1.854,1.071,3.823,1.22,6.468-.317"/><path class="g" d="M-471.492,706.681l-.025,8.77-5.031-2.9.025-8.77Z"/><g class="b"><g class="bg"><g class="b"><path class="u" d="M-468,704.034l-.025,8.77c-.288.168-.561.328-.819.484l.025-8.77c.258-.156.531-.316.819-.484"/><path class="t" d="M-468.817,704.518l-.025,8.77a12.426,12.426,0,0,0-2.013,1.437l.025-8.77a12.423,12.423,0,0,1,2.013-1.437"/><path class="s" d="M-470.83,705.955l-.025,8.77a5.616,5.616,0,0,0-.6.648l.025-8.77a5.6,5.6,0,0,1,.6-.648"/><path class="r" d="M-471.431,706.6l-.025,8.77-.061.078.025-8.77.061-.078"/></g></g></g></g></g><g transform="translate(743 3986)"><g transform="translate(0 27.583)"><g class="b"><g transform="translate(0.045)"><path class="bh" d="M75.823,115.982c10.463-6.131,27.609-6.173,38.229-.094l68.86,39.424c10.62,6.08,10.748,16.011.289,22.141l-68.01,39.861c-10.463,6.13-27.609,6.173-38.229.093L8.1,177.989c-10.62-6.08-10.748-16.011-.289-22.146Zm103.854,41.226-68.86-39.424c-8.817-5.046-23.055-5-31.711.077L11.1,157.726c-8.686,5.089-8.579,13.32.238,18.366L80.2,215.512c8.788,5.029,23.026,5.012,31.711-.076l68.01-39.861c8.652-5.072,8.545-13.337-.242-18.366" transform="translate(-0.053 -111.356)"/></g><g transform="translate(4.647 2.672)"><path class="bi" d="M75.59,115.817c8.652-5.072,22.89-5.123,31.707-.077l68.86,39.424c8.788,5.029,8.894,13.294.242,18.366l-68.01,39.861c-8.686,5.089-22.924,5.106-31.711.076L7.818,174.049C-1,169-1.105,160.772,7.58,155.683Z" transform="translate(-1.135 -111.984)"/></g><path class="bj" d="M191,124.332c0,.259-.042.519-.068.778-.025.289-.047.574-.1.863-.042.225-.111.451-.17.68-.072.272-.136.544-.234.816-.077.217-.179.434-.272.651-.123.285-.247.57-.4.85-.106.2-.234.4-.357.6-.2.319-.4.633-.638.944-.136.183-.281.361-.429.544a15.428,15.428,0,0,1-1.178,1.263c-.136.132-.259.268-.4.4-.264.234-.553.459-.838.689-.242.2-.476.4-.735.587-.31.225-.65.438-.982.655s-.621.425-.965.625l-68.01,39.866a29.44,29.44,0,0,1-3.758,1.794c-.353.145-.714.276-1.076.408-.821.3-1.684.544-2.551.787-.884.251-1.781.485-2.7.672-1.05.217-2.109.417-3.189.557-.3.038-.587.089-.884.123-1.492.161-3,.247-4.515.259-.247,0-.489.009-.735,0-1.5,0-3-.085-4.485-.234l-.672-.077a42.978,42.978,0,0,1-4.37-.736c-.247-.055-.489-.123-.735-.183a36.551,36.551,0,0,1-3.7-1.11c-.251-.089-.514-.166-.765-.259A30.117,30.117,0,0,1,77,175.234L8.137,135.811c-4.03-2.309-6.551-5.17-7.555-8.167a9.587,9.587,0,0,1-.5-3.027L.042,139.658c-.009,4.056,2.678,8.12,8.052,11.2l68.86,39.419a29.685,29.685,0,0,0,3.809,1.82c.094.034.191.06.285.094.251.1.514.17.77.259.735.264,1.462.536,2.228.753.476.136.978.242,1.467.361.247.06.485.123.735.179.2.047.4.106.612.149.88.183,1.777.34,2.678.468.357.051.718.077,1.08.119.225.026.446.055.672.077.293.03.587.072.884.1.884.072,1.777.119,2.666.145.315.008.625-.009.935,0,.247,0,.489,0,.736,0,.37,0,.74.009,1.11,0,1-.034,2.007-.1,3-.2.14-.017.272-.043.408-.06.3-.03.587-.085.884-.123.727-.094,1.458-.17,2.172-.3.349-.064.672-.179,1.016-.251.923-.191,1.811-.425,2.7-.676.455-.128.948-.2,1.394-.344.4-.132.765-.3,1.152-.438.366-.132.723-.268,1.076-.408a29.2,29.2,0,0,0,3.758-1.8l68.01-39.861.255-.153c.255-.153.476-.323.718-.48.327-.213.667-.425.969-.646.268-.2.5-.4.748-.6.281-.225.57-.451.825-.68.043-.043.1-.076.14-.119.1-.089.17-.191.268-.285a15.972,15.972,0,0,0,1.169-1.258c.072-.089.17-.17.242-.259s.123-.2.2-.289c.23-.31.434-.625.629-.94.081-.128.187-.255.259-.383.042-.072.064-.149.1-.221a8.924,8.924,0,0,0,.4-.846c.072-.157.166-.315.225-.476.021-.059.03-.119.051-.178.1-.268.162-.54.234-.812.047-.179.115-.353.153-.531.008-.051.008-.1.017-.153.051-.289.072-.578.1-.867.017-.179.055-.357.064-.536l0-.238h0Z" transform="translate(-0.042 -69.165)"/></g></g></g></g></svg>