<svg xmlns="http://www.w3.org/2000/svg" xmlns:xlink="http://www.w3.org/1999/xlink" width="202.316" height="264.615" viewBox="0 0 202.316 264.615"><defs><style>.a,.h{fill:none;}.b{isolation:isolate;}.c{fill:#521168;}.d{fill:#b0b2b2;}.e{fill:#2d2d2c;}.f{fill:#6e7072;}.an,.g{fill:#5c1e71;}.g{stroke:#fff;stroke-width:9.531px;}.g,.h{stroke-linejoin:round;}.h{stroke:#490c5a;stroke-width:4.765px;}.i{fill:#622378;}.j{fill:#602176;}.k{fill:#4a0e5c;}.l{fill:#fff;}.m{clip-path:url(#a);}.n{fill:#490c5a;}.o{fill:#4b0e5c;}.p{fill:#4d115f;}.q{fill:#4f1361;}.r{fill:#511463;}.s{fill:#531666;}.t{fill:#551868;}.u{fill:#571a6a;}.v{fill:#591c6d;}.w{fill:#5b1d70;}.x{fill:#5d1f72;}.y{clip-path:url(#b);}.z{clip-path:url(#c);}.aa{clip-path:url(#d);}.ab{clip-path:url(#e);}.ac{clip-path:url(#f);}.ad{clip-path:url(#g);}.ae{clip-path:url(#h);}.af{clip-path:url(#i);}.ag{clip-path:url(#j);}.ah{clip-path:url(#k);}.ai{clip-path:url(#l);}.aj{clip-path:url(#m);}.ak{fill:#5f2074;}.al{fill:#602175;}.am{fill:#5f2175;}</style><clipPath id="a"><path class="a" d="M499.919,233.855l-.025,8.969c-1.511-.872-3.209-.943-5.373.314l.026-8.968C496.71,232.912,498.409,232.983,499.919,233.855Z"/></clipPath><clipPath id="b"><path class="a" d="M490.917,246.123l.025-8.969c0-.577.536-1.2,1.755-1.91l-.025,8.969C491.452,244.922,490.918,245.546,490.917,246.123Z"/></clipPath><clipPath id="c"><path class="a" d="M485.474,244.766l.025-8.969a2.71,2.71,0,0,0,.559,1.577l-.026,8.968A2.7,2.7,0,0,1,485.474,244.766Z"/></clipPath><clipPath id="d"><path class="a" d="M488.3,241.419l-.026,8.969c-2.178-1.257-4.173-1.2-6.982.436l.026-8.969C484.131,240.223,486.126,240.162,488.3,241.419Z"/></clipPath><clipPath id="e"><path class="a" d="M476.845,254.257l.026-8.969c0-.544.506-1.14,1.641-1.8l-.025,8.968C477.351,253.116,476.847,253.712,476.845,254.257Z"/></clipPath><clipPath id="f"><path class="a" d="M469.46,254.158l.025-8.968c0,1.007.735,1.959,2.244,2.83a9.81,9.81,0,0,0,7.165.983l-.026,8.969a9.81,9.81,0,0,1-7.165-.983C470.194,256.117,469.457,255.166,469.46,254.158Z"/></clipPath><clipPath id="g"><path class="a" d="M484.962,251.011l-.026,8.969a9.492,9.492,0,0,0-3.154,2.443l.025-8.968A9.512,9.512,0,0,1,484.962,251.011Z"/></clipPath><clipPath id="h"><path class="a" d="M396.421,224.2l-.026,8.969c0-.459-.379-.894-1.136-1.332l.026-8.968C396.042,223.3,396.422,223.737,396.421,224.2Z"/></clipPath><clipPath id="i"><path class="a" d="M403.421,224.547l-.026,8.969c0,1.337-1.213,2.656-3.553,4.016l.026-8.969C402.208,227.2,403.417,225.884,403.421,224.547Z"/></clipPath><clipPath id="j"><path class="a" d="M398.786,229.192l-.025,8.968a12.443,12.443,0,0,1-9.18,1.754l.025-8.968A12.448,12.448,0,0,0,398.786,229.192Z"/></clipPath><clipPath id="k"><path class="a" d="M384.379,231.645l-.025,8.969c0-.582-.555-1.127-1.588-1.724l.025-8.968C383.825,230.519,384.381,231.063,384.379,231.645Z"/></clipPath><clipPath id="l"><path class="a" d="M390.285,232.715l-.025,8.969c0,1.406-1.312,2.749-3.587,4.071l.025-8.969C388.973,235.464,390.281,234.121,390.285,232.715Z"/></clipPath><clipPath id="m"><path class="a" d="M384.238,238.216l-.025,8.968a13.744,13.744,0,0,1-14.442-.03l.025-8.969A13.747,13.747,0,0,0,384.238,238.216Z"/></clipPath></defs><g transform="translate(-451 -1522.675)"><g transform="translate(451.684 1580.479)"><g class="b"><path class="c" d="M115.465,17.616l-7.093-4.095L5.974,73.448c-8.918,5.183-8.871,13.617.106,18.8l123.892,70.781,7.047-4.1L13.127,88.152c-5.063-2.923-5.1-7.682-.059-10.609l102.4-59.927"/></g></g><g transform="translate(451.377 1480)"><g transform="translate(0 42.675)"><g class="b"><g transform="translate(0.045)"><path class="d" d="M75.562,20.135c10.427-6.114,27.514-6.156,38.1-.1l68.623,39.287c10.583,6.059,10.71,15.956.288,22.065l-67.775,39.724c-10.427,6.114-27.514,6.156-38.1.1L8.075,81.923C-2.509,75.865-2.636,65.968,7.786,59.858Zm103.5,41.08L110.435,21.927c-8.787-5.029-22.976-4.974-31.6.08L11.061,61.731C2.406,66.8,2.512,75,11.3,80.034l68.623,39.287c8.757,5.012,22.946,4.991,31.6-.08L179.3,79.517c8.622-5.054,8.516-13.291-.241-18.3" transform="translate(-0.053 -15.521)"/></g><g transform="translate(4.631 2.664)"><path class="e" d="M75.333,19.972c8.622-5.054,22.811-5.11,31.6-.08l68.623,39.287c8.757,5.012,8.863,13.248.241,18.3L108.02,117.205c-8.656,5.071-22.845,5.093-31.6.081L7.8,78C-.992,72.969-1.1,64.767,7.558,59.7Z" transform="translate(-1.135 -16.15)"/></g><path class="f" d="M190.34,28.5c0,.258-.042.517-.068.775-.025.288-.047.576-.1.86-.042.229-.11.453-.169.678a8.046,8.046,0,0,1-.233.813c-.076.22-.178.432-.271.648-.123.284-.246.568-.4.847-.106.2-.233.4-.356.6-.195.318-.4.631-.636.941-.136.182-.28.364-.428.542a16.135,16.135,0,0,1-1.174,1.263c-.136.131-.258.263-.4.394-.263.233-.551.462-.835.686-.242.195-.475.394-.733.585-.309.225-.648.436-.974.652s-.623.424-.966.627L114.829,79.13a29.359,29.359,0,0,1-3.745,1.792c-.352.14-.712.275-1.072.407-.818.3-1.678.538-2.542.78-.881.25-1.775.483-2.69.674-1.046.216-2.1.411-3.178.551-.3.038-.585.093-.881.123-1.487.161-2.991.246-4.5.263-.246,0-.487,0-.733,0-1.5-.008-2.991-.089-4.47-.237l-.669-.076a42.831,42.831,0,0,1-4.355-.733c-.246-.055-.487-.119-.733-.178a37.58,37.58,0,0,1-3.686-1.11c-.25-.089-.513-.161-.763-.258a29.514,29.514,0,0,1-4.08-1.907L8.109,39.936C4.092,37.64,1.58,34.789.58,31.8a9.554,9.554,0,0,1-.5-3.017L.042,43.771c-.008,4.046,2.669,8.092,8.024,11.16L76.689,94.213a29.018,29.018,0,0,0,3.8,1.813c.093.038.191.059.284.1.25.093.513.165.767.258.733.258,1.457.53,2.22.746.475.136.974.241,1.462.36.246.059.483.123.733.178.2.047.4.106.61.148.877.182,1.771.339,2.669.466.356.051.716.08,1.076.123.225.025.445.051.669.072.292.03.585.076.881.1.881.076,1.771.123,2.656.144.314.008.623,0,.932,0,.246,0,.487,0,.733,0,.369,0,.737.008,1.106,0,1-.034,2-.1,2.991-.2.136-.013.267-.042.4-.055.3-.034.585-.085.881-.123.724-.093,1.453-.174,2.165-.305.347-.059.669-.178,1.013-.25.919-.191,1.8-.419,2.695-.669.453-.131.945-.2,1.39-.347.4-.127.763-.3,1.148-.436.364-.131.72-.263,1.072-.407a28.538,28.538,0,0,0,3.745-1.792L182.562,54.4l.254-.153c.254-.153.475-.318.716-.479.326-.212.665-.424.966-.644.267-.195.5-.394.746-.593.28-.225.568-.445.822-.678.042-.038.1-.076.14-.114.1-.093.169-.195.267-.288a15.19,15.19,0,0,0,1.165-1.254c.072-.089.169-.169.242-.258s.123-.191.195-.288c.229-.309.432-.619.627-.936.081-.127.186-.254.258-.381.042-.072.064-.148.1-.22a8.823,8.823,0,0,0,.394-.839c.072-.161.165-.318.225-.475.021-.059.03-.123.051-.182.1-.267.161-.538.233-.809.047-.178.114-.352.153-.53.008-.051.008-.1.017-.153.051-.284.072-.572.1-.864.017-.178.055-.356.064-.534l0-.237h0Z" transform="translate(-0.042 26.479)"/></g></g></g><g transform="translate(138.931 1499.438)"><path class="g" d="M504.141,231.3c-4.777-2.758-9.765-2.585-14.6.223l-.558.325a14.605,14.605,0,0,0-1.391.919c-.1.072-.188.144-.278.216a7.362,7.362,0,0,0-.968.9l-.007.007a3.763,3.763,0,0,0-.607.952c-.017.039-.029.078-.044.117a2.338,2.338,0,0,0-.175.933c0-.03-.016-.06-.016-.09l0,1.482a13.228,13.228,0,0,0-9.09,1.879l-3.071,1.785a16.1,16.1,0,0,0-1.632,1.082c-.121.091-.215.182-.326.273a8.185,8.185,0,0,0-.882.82c-.076.086-.143.171-.211.256a3.9,3.9,0,0,0-.535.858c-.025.057-.055.114-.076.171a2.237,2.237,0,0,0-.147,1h0a2,2,0,0,1-.04-.216l-.025,8.969a2.83,2.83,0,0,0,1.256,2.163,7.726,7.726,0,0,0,.987.668,9.628,9.628,0,0,0,1.254.606c.1.039.2.067.3.1l.21.071c.11.036.218.08.33.111q.326.093.659.162.29.06.584.1c.018,0,.036,0,.055.006l.037,0c.156.021.312.04.469.053q.283.022.571.03c.2.005.411,0,.619,0,.039,0,.079-.006.119-.008h.007l0,1.388,1.78,1.028,3.085,1.78a4.586,4.586,0,0,1,.41-.476l.145-.156c.022-.022.041-.047.064-.069.094-.089.2-.172.307-.258.151-.126.3-.252.47-.375.124-.089.262-.179.4-.268.179-.119.357-.237.555-.358.256-.158.516-.315.806-.483l9.945-5.78.026-8.969.014.008.005,0-.026,8.972.708.409.518.3.024-8.4,0-.571.019.012-.025,8.968h0l4.309-2.5,0-1.467.452-.263,1.665-.967.015-5.348,2.694,1.556,4.31-2.5.025-8.969ZM477.29,244.41c.023-.026.054-.052.079-.077l-.035.037c-.012.013-.032.027-.044.04Zm.5-.45c.133-.1.3-.2.465-.307l.01-.007-.013.01c-.161.1-.331.2-.462.3Zm-.18.158-.028.025-.005,0,.01-.009Zm14.3-8.359c.1-.075.228-.152.351-.23.039-.026.079-.053.121-.079-.166.1-.339.209-.472.309Zm-.479.428h0c-.018.02-.048.04-.065.059.019-.021.05-.043.07-.063Zm-.372.5,0,.005-.007.01c0-.007.01-.014.013-.021Z"/><path class="g" d="M451.229,255.076l.013-4.711v-.205h0l-4.794-2.768-3.436,2,.011-3.974-4.267-2.464h0l-3.74,2.174-1.193.693.016-5.706-6.006-3.467-7.065,4.106.023-8.172-7.007-4.046L403.4,232.9l.024-8.352v0h0v0c0-.043-.026-.085-.028-.127a2.436,2.436,0,0,0-.2-.879,3.9,3.9,0,0,0-.3-.444,3.944,3.944,0,0,0-.383-.573,7.92,7.92,0,0,0-.826-.746c-.116-.1-.192-.193-.321-.29a15.641,15.641,0,0,0-1.618-1.059l-7.235-4.177-30.254,17.581-.026,8.969h0L366,244.979l3.767,2.175.009,0a16.663,16.663,0,0,0,2.031.985c.061.025.121.064.182.088q.684.27,1.372.465l.015,0h0l.031.008c.314.088.627.167.942.232q.422.087.844.147h.021c.251.035.5.064.751.084.125.011.25.014.375.02s.25.017.375.021c.081,0,.163,0,.244,0h.158c.123,0,.246,0,.368,0q.423-.015.845-.057c.105-.01.209-.031.314-.044l-.009,3.164,4.39,2.535h0l6.322-2.717,1.23.71-.018,6.357,4.83,2.788,2.168-1.743-.008,2.99,4.32,2.495,5.973-3.471-.02,6.908,1.318.761,3.6,2.078,3.436-2-.011,3.974h0l4.794,2.768,6.149-3.573-.02,7.111h0l4.918,2.838L442.121,269.5l20.143-3.995h0l.025-8.969-4.794-2.768Zm-62.862-19.42-.005,0c-.075.06-.14.12-.22.179-.027.021-.064.041-.093.061C388.161,235.819,388.263,235.738,388.367,235.656ZM403.2,225.508h0a2.385,2.385,0,0,0,.084-.366,2.4,2.4,0,0,1-.083.365Zm-1.641,1.906h0a1.22,1.22,0,0,0,.111-.1C401.63,227.348,401.6,227.381,401.56,227.414Z"/><path class="g" d="M414.344,217.121l1.213.7v.234l-.017,6.123,4.829,2.788,4.2-3.369-.016,5.782,4.777,2.758,7.065-4.106-.023,8.172,4.18,2.413,3.577-2.078-.012,4.1v.042h0l4.531,2.616,3.311-1.418-.01,3.324,4.531,2.616,30.254-17.582.026-8.969-6.656-3.843-6.816,2.919.019-6.843-2.436-1.406-4.219-2.436L464.6,210.84l.005-1.913v-.44l.018-.01h0l-14.805-8.547-4.052,2.355.013-4.677h0l-7.007-4.045L403.64,208.325l-.025,8.969,4.407,2.544ZM445.5,206.783l0,1.071v.387l-6.557,3.811ZM426.876,221.74l.005,0,0,0,2.475,1.429-.008.005Z"/><path class="h" d="M456.475,247.813l30.254-17.582.026-8.969-6.656-3.843-6.816,2.919.019-6.842-6.655-3.843L464.6,210.84l.006-2.353.018-.01-14.805-8.548-4.052,2.355.013-4.677-7.007-4.045L403.64,208.325l-.025,8.969,4.407,2.544,6.322-2.717,1.213.7-.018,6.357,4.829,2.788,4.2-3.369-.016,5.783,4.777,2.757,7.065-4.106-.023,8.172,4.18,2.413,3.577-2.078-.012,4.137,4.531,2.616,3.311-1.418-.01,3.324ZM445.5,208.241l-6.557,3.811,6.561-5.269Zm-18.62,13.5.007-.005,2.475,1.429-.008.005Z"/><path class="h" d="M496.146,254.93l4.309-2.5,0-1.467,2.117-1.23.015-5.348,2.694,1.556,4.31-2.5.025-8.969-5.479-3.163c-4.777-2.758-9.765-2.585-14.6.223l-.558.325c-2.37,1.377-3.521,2.7-3.47,4.04,0-.03-.016-.061-.016-.091l0,1.512a13.214,13.214,0,0,0-9.09,1.849l-3.071,1.785c-2.676,1.555-3.955,3.064-3.809,4.463a2.02,2.02,0,0,1-.04-.217l-.025,8.969c0,1.008.734,1.959,2.243,2.831a9.628,9.628,0,0,0,1.254.606c.1.039.2.067.3.1.069.024.138.048.208.07.111.036.219.081.331.112q.326.093.659.162.29.06.584.1l.054.006.039,0c.156.021.311.04.468.053.189.015.379.026.571.03s.411,0,.619,0c.039,0,.079-.006.119-.008h.007l0,1.389,4.865,2.808a4.711,4.711,0,0,1,.41-.476c.07-.075.134-.153.21-.226.092-.087.2-.17.3-.255.151-.127.3-.254.473-.377.123-.089.26-.178.394-.266.179-.119.357-.238.556-.36.257-.157.517-.315.807-.483l9.945-5.78.026-8.969.019.012-.026,8.972,1.226.708.026-8.973.019.012Zm-3.722-19.507c-.179.113-.369.227-.513.336.145-.109.335-.224.514-.337Zm-.732.532h0l.02-.018Zm-.632.736-.012.017c0-.008.011-.016.015-.024Zm.376-.508-.005.005c-.018.019-.048.039-.065.058C491.385,236.225,491.416,236.2,491.436,236.183Zm-13.18,7.473c-.161.1-.331.2-.462.3.136-.1.308-.209.477-.314Zm-.67.487-.005,0c.013-.011.024-.023.038-.034Zm-.594.685c.006-.011.01-.021.015-.032Zm8.611-8.44c.022.08.029.161.059.242C485.632,236.549,485.625,236.468,485.6,236.388Zm-8.234,7.945-.035.037c-.013.013-.033.027-.044.04C477.313,244.384,477.344,244.358,477.369,244.333Zm-.49.861,0,.028Zm-6.915,1.33a3.932,3.932,0,0,0,.466.519A3.932,3.932,0,0,1,469.964,246.524Zm-.38-.8a2.352,2.352,0,0,0,.206.5A2.352,2.352,0,0,1,469.584,245.726Zm1.094,1.563a7.285,7.285,0,0,0,1.051.731A7.285,7.285,0,0,1,470.678,247.289Z"/><path class="h" d="M371.811,248.143c.061.025.121.064.182.088q.684.27,1.372.465l.015,0,.032.008c.314.088.627.167.942.232q.422.087.844.147h.009l.016,0c.249.035.5.064.747.084s.5.034.75.041c.081,0,.163,0,.244,0,.052,0,.1,0,.156,0,.124,0,.247,0,.37,0q.423-.015.845-.057c.105-.01.209-.031.314-.044l-.009,3.164,4.39,2.535,6.322-2.717,1.23.71-.018,6.357,4.83,2.788,2.168-1.744-.008,2.991,4.32,2.495,5.973-3.472-.02,6.909,4.918,2.839,3.435-2-.011,3.974,4.794,2.768,6.15-3.573-.021,7.111,4.918,2.84L442.121,269.5l20.143-3.995.025-8.969-4.794-2.768-6.266,1.307.014-4.916-4.794-2.769-3.436,2,.011-3.974-4.267-2.464-4.934,2.868.016-5.706-6.006-3.468-7.065,4.106.023-8.172-7.007-4.046L403.4,232.9l.024-8.352h0v0c0-1.336-1.193-2.689-3.668-4.118l-7.235-4.177-30.254,17.582-.026,8.968,7.534,4.35A16.66,16.66,0,0,0,371.811,248.143Zm16.551-12.483c-.075.06-.14.12-.22.179-.027.021-.065.041-.093.062.112-.082.215-.164.319-.246Zm14.215-9.2h0c.037-.043.053-.086.087-.129C402.63,226.376,402.614,226.418,402.577,226.461Zm-1.016.952h0c.09-.07.152-.141.235-.211C401.711,227.273,401.649,227.343,401.561,227.413Zm1.641-1.9h0a2.385,2.385,0,0,0,.084-.366A2.4,2.4,0,0,1,403.2,225.508Zm-6.8-1.368a1.019,1.019,0,0,0-.248-.59A1.019,1.019,0,0,1,396.4,224.14Zm-.329-.671a3.267,3.267,0,0,0-.783-.6A3.267,3.267,0,0,1,396.068,223.469Zm-11.955,7.516a1.683,1.683,0,0,0-.123-.174A1.683,1.683,0,0,1,384.113,230.985Zm.217.453a1,1,0,0,0-.044-.19A1,1,0,0,1,384.33,231.438Zm-.671-.92c-.06-.049-.1-.1-.171-.146C383.555,230.421,383.6,230.47,383.659,230.518Z"/><g class="b"><path class="i" d="M436.686,198.56l-.025,8.969-17.62,7.554.025-8.969Z"/><path class="j" d="M445.783,197.607l-.025,8.969-25.389,20.39.025-8.969Z"/><path class="k" d="M450.518,205.334l-.025,8.969-5.005-2.89.025-8.969Z"/><path class="k" d="M460.3,210.981l-.025,8.969-5.005-2.89.025-8.969Z"/><path class="i" d="M464.609,208.477l-.025,8.969-4.31,2.5.025-8.969Z"/><path class="i" d="M414.369,208.152l-.025,8.969-6.321,2.717.025-8.969Z"/><path class="k" d="M408.048,210.87l-.025,8.969-4.408-2.545.025-8.969Z"/><path class="k" d="M420.235,211.539l-.025,8.969-5.866-3.387.025-8.969Z"/><path class="k" d="M420.394,218l-.025,8.969-4.829-2.788.025-8.969Z"/><path class="l" d="M445.783,197.607,420.394,218l-4.83-2.789,4.671-3.67-5.866-3.387-6.321,2.718-4.408-2.545,35.136-14.763Zm-26.716,8.507,4.618,2.667,13-10.221-17.619,7.554"/><path class="i" d="M455.295,208.091l-.025,8.969-25.944,15.077.025-8.969Z"/><path class="k" d="M429.35,223.169l-.025,8.969-4.777-2.758.025-8.969Z"/><path class="l" d="M464.627,208.477l-4.327,2.515-5.005-2.89-25.928,15.068-4.794-2.768L450.5,205.333l-5.005-2.89,4.327-2.515Z"/></g><g class="b"><path class="i" d="M461.98,217.207l-.025,8.969-21.408,12.441.025-8.969Z"/><path class="j" d="M473.3,213.5l-.025,8.969-17.948,14.52.025-8.969Z"/><path class="k" d="M440.572,229.648l-.025,8.969-4.18-2.413.025-8.969Z"/><path class="k" d="M448.668,234.322l-.025,8.969-4.531-2.616.025-8.969Z"/><path class="i" d="M473.674,223.615l-.025,8.969-25.006,10.707.025-8.969Z"/><path class="l" d="M486.755,221.262,456.5,238.844l-4.531-2.616,21.7-12.613-25.006,10.707-4.531-2.616,17.843-14.5-21.408,12.441-4.18-2.413,30.254-17.582L473.3,213.5l-17.948,14.52,24.744-10.6Z"/><path class="k" d="M456.5,238.844l-.025,8.969-4.531-2.616.025-8.969Z"/><path class="i" d="M486.755,221.262l-.025,8.969-30.254,17.582.025-8.969Z"/></g><g class="b"><g class="b"><g class="m"><g class="b"><path class="n" d="M499.919,233.855l-.025,8.969a5.371,5.371,0,0,0-.7-.338l.025-8.968a5.176,5.176,0,0,1,.7.337"/><path class="o" d="M499.223,233.518l-.025,8.968c-.137-.053-.275-.1-.416-.141l.026-8.968c.14.04.279.087.415.141"/><path class="p" d="M498.808,233.377l-.026,8.968c-.1-.029-.207-.055-.313-.077l.025-8.969c.106.022.21.048.314.078"/><path class="q" d="M498.494,233.3l-.025,8.969c-.087-.018-.175-.033-.264-.046l.025-8.969c.089.013.177.028.264.046"/><path class="r" d="M498.23,233.253l-.025,8.969c-.082-.011-.164-.021-.247-.028l.025-8.968c.083.007.165.016.247.027"/><path class="s" d="M497.983,233.226l-.025,8.968c-.081-.006-.163-.011-.245-.013l.025-8.968c.083,0,.164.006.245.013"/><path class="t" d="M497.738,233.213l-.025,8.968c-.085,0-.172,0-.259,0l.026-8.969c.087,0,.173,0,.258,0"/><path class="u" d="M497.48,233.214l-.026,8.969c-.1,0-.2.01-.3.02l.025-8.969c.1-.01.2-.017.3-.02"/><path class="v" d="M497.182,233.234l-.025,8.969c-.128.012-.258.031-.389.054l.025-8.968c.132-.024.261-.042.389-.055"/><path class="w" d="M496.793,233.289l-.025,8.968a5.616,5.616,0,0,0-.7.178l.025-8.969a5.44,5.44,0,0,1,.7-.177"/><path class="x" d="M496.09,233.466l-.025,8.969a7.872,7.872,0,0,0-1.544.7l.026-8.968a7.846,7.846,0,0,1,1.543-.7"/></g></g></g><path class="i" d="M494.547,234.17l-.025,8.969-1.849,1.075.025-8.969Z"/><path class="k" d="M505.31,236.968l-.025,8.969-5.391-3.113.025-8.969Z"/><path class="i" d="M509.62,234.463l-.025,8.969-4.31,2.5.025-8.969Z"/><g class="b"><g class="y"><g class="b"><path class="x" d="M492.7,235.244l-.025,8.969-.145.086.026-8.969.144-.086"/><path class="w" d="M492.553,235.33l-.026,8.969a6.076,6.076,0,0,0-.993.721l.025-8.969a6.135,6.135,0,0,1,.994-.721"/><path class="v" d="M491.559,236.051l-.025,8.969a2.828,2.828,0,0,0-.3.321l.026-8.969a2.91,2.91,0,0,1,.3-.321"/><path class="u" d="M491.259,236.372l-.026,8.969a1.938,1.938,0,0,0-.159.234l.026-8.969a1.733,1.733,0,0,1,.159-.234"/><path class="t" d="M491.1,236.606l-.026,8.969a1.3,1.3,0,0,0-.089.19l.025-8.969a1.472,1.472,0,0,1,.09-.19"/><path class="s" d="M491.01,236.8l-.025,8.969a1.017,1.017,0,0,0-.049.17l.025-8.969a1.29,1.29,0,0,1,.049-.17"/><path class="r" d="M490.961,236.966l-.025,8.969a1.019,1.019,0,0,0-.019.163l.026-8.969a.915.915,0,0,1,.018-.163"/><path class="q" d="M490.943,237.129l-.026,8.969v.025l.025-8.969v-.025"/></g></g></g><g class="b"><g class="z"><g class="b"><path class="n" d="M486.058,237.374l-.026,8.968a2.7,2.7,0,0,1-.558-1.576l.025-8.969a2.71,2.71,0,0,0,.559,1.577"/></g></g></g><g class="b"><g class="aa"><g class="b"><path class="n" d="M488.3,241.419l-.026,8.969a7.409,7.409,0,0,0-1-.486l.025-8.969a7.6,7.6,0,0,1,1,.486"/><path class="o" d="M487.307,240.933l-.025,8.969c-.182-.072-.363-.133-.544-.185l.026-8.969q.271.078.543.185"/><path class="p" d="M486.764,240.748l-.026,8.969c-.13-.037-.26-.069-.391-.1l.025-8.968c.131.027.262.059.392.1"/><path class="q" d="M486.372,240.652l-.025,8.968c-.107-.022-.214-.04-.321-.056l.025-8.968c.108.015.215.034.321.056"/><path class="r" d="M486.051,240.6l-.025,8.968c-.1-.013-.2-.024-.3-.033l.026-8.968q.147.012.294.033"/><path class="s" d="M485.757,240.563l-.026,8.968q-.144-.012-.291-.015l.025-8.969c.1,0,.2.008.292.016"/><path class="t" d="M485.465,240.547l-.025,8.969c-.1,0-.205,0-.308,0l.026-8.968c.1,0,.205,0,.307,0"/><path class="u" d="M485.158,240.549l-.026,8.968c-.116,0-.232.012-.35.024l.025-8.969c.118-.011.235-.019.351-.023"/><path class="v" d="M484.807,240.572l-.025,8.969c-.147.015-.3.036-.446.063l.025-8.969c.15-.027.3-.048.446-.063"/><path class="w" d="M484.361,240.635l-.025,8.969a6.659,6.659,0,0,0-.9.228l.026-8.969a6.8,6.8,0,0,1,.895-.228"/><path class="x" d="M483.466,240.863l-.026,8.969a11.143,11.143,0,0,0-2.144.992l.026-8.969a11.088,11.088,0,0,1,2.144-.992"/></g></g></g><path class="k" d="M490.13,242.474l-.025,8.969-1.826-1.054.025-8.969Z"/><path class="i" d="M502.6,240.76l-.025,8.969-3.385,1.967.025-8.969Z"/><path class="i" d="M481.322,241.855l-.025,8.969-2.809,1.632.025-8.969Z"/><g class="b"><g class="ab"><g class="b"><path class="x" d="M478.512,243.488l-.025,8.968-.131.078.025-8.969.131-.077"/><path class="w" d="M478.381,243.565l-.025,8.969a5.675,5.675,0,0,0-.919.667l.026-8.968a5.66,5.66,0,0,1,.918-.668"/><path class="v" d="M477.463,244.233l-.026,8.968a2.72,2.72,0,0,0-.29.311l.025-8.969a2.731,2.731,0,0,1,.291-.31"/><path class="u" d="M477.172,244.543l-.025,8.969a1.728,1.728,0,0,0-.15.221l.026-8.969a1.714,1.714,0,0,1,.149-.221"/><path class="t" d="M477.023,244.764,477,253.733a1.3,1.3,0,0,0-.086.182l.025-8.969a1.306,1.306,0,0,1,.087-.182"/><path class="s" d="M476.936,244.946l-.025,8.969a1.06,1.06,0,0,0-.047.163l.025-8.968a1.155,1.155,0,0,1,.047-.164"/><path class="r" d="M476.889,245.11l-.025,8.968a.845.845,0,0,0-.018.156l.025-8.969a1.034,1.034,0,0,1,.018-.155"/><path class="q" d="M476.871,245.265l-.025,8.969v.023l.026-8.969v-.023"/></g></g></g><path class="i" d="M500.481,243.457l-.025,8.969-4.31,2.5.025-8.969Z"/><path class="l" d="M496.152,245.947l-.025,8.976-1.226-.708.025-8.976Z"/><g class="b"><g class="ac"><g class="b"><path class="w" d="M478.894,249l-.026,8.969c-.138.03-.276.057-.414.082l.026-8.969c.137-.025.275-.052.414-.082"/><path class="v" d="M478.48,249.085l-.026,8.969c-.316.057-.63.1-.94.132l.025-8.969c.311-.031.624-.075.941-.132"/><path class="u" d="M477.539,249.217l-.025,8.969q-.363.036-.719.048l.025-8.969c.238-.008.477-.024.719-.048"/><path class="t" d="M476.82,249.265l-.025,8.969c-.208.007-.415.008-.619,0l.025-8.968q.308.008.619,0"/><path class="s" d="M476.2,249.269l-.025,8.968c-.192,0-.382-.015-.571-.03l.026-8.969q.283.024.57.031"/><path class="r" d="M475.631,249.238l-.026,8.969q-.282-.024-.561-.063l.025-8.969c.186.027.373.048.562.063"/><path class="q" d="M475.069,249.175l-.025,8.969q-.294-.042-.584-.1l.025-8.968c.193.04.388.073.584.1"/><path class="p" d="M474.485,249.074l-.025,8.968q-.333-.069-.659-.162l.025-8.968c.218.062.437.116.659.162"/><path class="o" d="M473.826,248.912l-.025,8.968q-.428-.121-.844-.285l.026-8.969q.416.163.843.286"/><path class="n" d="M472.983,248.626l-.026,8.969a9.566,9.566,0,0,1-1.254-.606c-1.509-.872-2.246-1.823-2.243-2.831l.025-8.968c0,1.007.735,1.959,2.244,2.83a9.38,9.38,0,0,0,1.254.606"/></g></g></g><path class="i" d="M494.907,245.232l-.025,8.969-9.945,5.779.025-8.969Z"/><path class="k" d="M481.807,253.455l-.025,8.969-4.865-2.809.025-8.969Z"/><g class="b"><g class="ad"><g class="b"><path class="x" d="M484.962,251.011l-.026,8.969c-.244.141-.475.278-.7.411l.025-8.969c.22-.133.452-.269.7-.411"/><path class="w" d="M484.266,251.422l-.025,8.969a11.083,11.083,0,0,0-1.793,1.281l.026-8.969a11.025,11.025,0,0,1,1.792-1.281"/><path class="v" d="M482.474,252.7l-.026,8.969a4.911,4.911,0,0,0-.536.577l.025-8.969a4.915,4.915,0,0,1,.537-.577"/><path class="u" d="M481.937,253.28l-.025,8.969c-.045.057-.088.115-.13.174l.025-8.968c.042-.06.085-.118.13-.175"/></g></g></g><path class="l" d="M496.171,245.962l-1.264-.73-9.945,5.779a9.512,9.512,0,0,0-3.155,2.444l-4.865-2.809A6.843,6.843,0,0,1,478.894,249a9.81,9.81,0,0,1-7.165-.983c-3.513-2.028-2.844-4.492,1.605-7.077l3.071-1.785a13.09,13.09,0,0,1,9.653-1.784c-1.306-1.846-.318-3.64,2.927-5.526l.558-.325c4.833-2.808,9.821-2.981,14.6-.223l5.479,3.163-4.31,2.505-5.391-3.113c-1.51-.872-3.209-.943-5.372.315l-1.85,1.074c-2.425,1.41-2.139,2.484-.347,3.519l2.089,1.206L497.824,238l4.777,2.758-3.385,1.967,1.265.73Zm-13.055.588,7.014-4.076-1.826-1.055c-2.178-1.257-4.173-1.2-6.982.436l-2.81,1.633c-2.163,1.257-2.035,2.281-.507,3.163a4.992,4.992,0,0,0,5.111-.1"/></g><g class="b"><path class="k" d="M395.285,222.865l-.025,8.969-2.3-1.328.025-8.969Z"/><g class="b"><g class="ae"><g class="b"><path class="n" d="M396.421,224.2l-.026,8.969c0-.459-.379-.894-1.136-1.332l.026-8.968c.757.437,1.137.872,1.136,1.331"/></g></g></g><path class="i" d="M392.984,221.536l-.025,8.969-7.991,4.644.025-8.969Z"/><g class="b"><g class="af"><g class="b"><path class="q" d="M403.421,224.547l-.026,8.969v.058l.026-8.969v-.058"/><path class="r" d="M403.42,224.6l-.026,8.969a2.247,2.247,0,0,1-.044.382l.026-8.969a2.357,2.357,0,0,0,.044-.382"/><path class="s" d="M403.376,224.987l-.026,8.969a2.488,2.488,0,0,1-.112.39l.025-8.969a2.49,2.49,0,0,0,.113-.39"/><path class="t" d="M403.263,225.377l-.025,8.969a3.023,3.023,0,0,1-.2.426l.025-8.969a3.023,3.023,0,0,0,.2-.426"/><path class="u" d="M403.063,225.8l-.025,8.969a4,4,0,0,1-.345.507l.026-8.968a4.172,4.172,0,0,0,.344-.508"/><path class="v" d="M402.719,226.311l-.026,8.968a5.936,5.936,0,0,1-.633.677l.025-8.969a5.944,5.944,0,0,0,.634-.676"/><path class="w" d="M402.085,226.987l-.025,8.969a12.041,12.041,0,0,1-1.947,1.416l.026-8.969a12.014,12.014,0,0,0,1.946-1.416"/><path class="x" d="M400.139,228.4l-.026,8.969c-.088.053-.179.106-.271.16l.026-8.969.271-.16"/></g></g></g><path class="i" d="M399.868,228.563l-.025,8.969-1.082.629.025-8.969Z"/><path class="k" d="M382.791,229.922l-.025,8.969-2.125-1.227.025-8.969Z"/><g class="b"><g class="ag"><g class="b"><path class="x" d="M398.786,229.192l-.025,8.968a16.038,16.038,0,0,1-3.155,1.433l.026-8.968a16.148,16.148,0,0,0,3.154-1.433"/><path class="w" d="M395.632,230.625l-.026,8.968a12.342,12.342,0,0,1-1.58.4l.026-8.969a12.421,12.421,0,0,0,1.58-.4"/><path class="v" d="M394.052,231.022l-.026,8.969q-.45.081-.9.126l.026-8.968c.3-.03.6-.073.9-.127"/><path class="u" d="M393.149,231.149l-.026,8.968c-.243.025-.486.041-.731.049l.026-8.969q.366-.012.731-.048"/><path class="t" d="M392.418,231.2l-.026,8.969q-.33.012-.662,0l.025-8.969q.333.009.663,0"/><path class="s" d="M391.755,231.2l-.025,8.969q-.326-.008-.654-.035l.026-8.969q.327.027.653.035"/><path class="r" d="M391.1,231.165l-.026,8.969q-.342-.028-.687-.077l.025-8.969c.23.033.459.058.688.077"/><path class="q" d="M390.414,231.088l-.025,8.969q-.384-.054-.771-.135l.026-8.968q.387.08.77.134"/><path class="p" d="M389.644,230.954l-.026,8.968-.037-.008.025-8.968.038.008"/></g></g></g><g class="b"><g class="ah"><g class="b"><path class="n" d="M384.379,231.645l-.025,8.969c0-.582-.555-1.127-1.588-1.724l.025-8.968c1.034.6,1.59,1.141,1.588,1.723"/></g></g></g><path class="i" d="M380.666,228.695l-.025,8.969-9.282,5.394.025-8.969Z"/><g class="b"><g class="ai"><g class="b"><path class="q" d="M390.285,232.715l-.025,8.969v.06l.025-8.969v-.06"/><path class="r" d="M390.284,232.775l-.025,8.969a2.355,2.355,0,0,1-.045.39l.025-8.969a2.229,2.229,0,0,0,.045-.39"/><path class="s" d="M390.239,233.165l-.025,8.969a2.56,2.56,0,0,1-.115.4l.026-8.968a2.566,2.566,0,0,0,.114-.4"/><path class="t" d="M390.125,233.564l-.026,8.968a2.977,2.977,0,0,1-.2.434l.026-8.969a3.189,3.189,0,0,0,.2-.433"/><path class="u" d="M389.921,234l-.026,8.969a4.032,4.032,0,0,1-.344.509l.026-8.969a4.254,4.254,0,0,0,.344-.509"/><path class="v" d="M389.577,234.506l-.026,8.969a6.108,6.108,0,0,1-.651.7l.025-8.969a6.044,6.044,0,0,0,.652-.7"/><path class="w" d="M388.925,235.2l-.025,8.969a12.1,12.1,0,0,1-1.938,1.411l.026-8.969a12.039,12.039,0,0,0,1.937-1.411"/><path class="x" d="M386.988,236.614l-.026,8.969c-.094.057-.191.115-.289.172l.025-8.969c.1-.057.2-.114.29-.172"/></g></g></g><path class="i" d="M386.7,236.786l-.025,8.969-2.46,1.43.025-8.969Z"/><path class="k" d="M369.8,238.185l-.025,8.969-7.534-4.35.025-8.969Z"/><path class="l" d="M389.606,230.946c1.587,2.068.3,3.974-2.908,5.84l-2.46,1.43a13.747,13.747,0,0,1-14.442-.031l-7.533-4.349,30.254-17.582,7.235,4.177c4.952,2.859,4.792,5.415.116,8.132l-1.082.629A12.448,12.448,0,0,1,389.606,230.946Zm-10.023,4.42,2.635-1.531c2.809-1.632,2.751-2.656.573-3.913l-2.125-1.227-9.282,5.394,2.74,1.582c1.6.922,3.209,1,5.459-.305m13.4-13.83-7.991,4.644,1.862,1.075a5.521,5.521,0,0,0,6.073-.193l1.692-.983c2.163-1.257,2.368-2.231.665-3.214l-2.3-1.329"/><g class="b"><g class="aj"><g class="b"><path class="x" d="M384.238,238.216l-.025,8.968a15.673,15.673,0,0,1-3.044,1.372l.025-8.969a15.7,15.7,0,0,0,3.044-1.371"/><path class="w" d="M381.194,239.587l-.025,8.969a13.92,13.92,0,0,1-1.79.452l.025-8.969a13.881,13.881,0,0,0,1.79-.452"/><path class="v" d="M379.4,240.039l-.025,8.969c-.348.062-.7.111-1.044.146l.025-8.969q.524-.051,1.044-.146"/><path class="u" d="M378.36,240.185l-.025,8.969q-.422.042-.845.057l.026-8.969c.282-.01.563-.028.844-.057"/><path class="t" d="M377.516,240.242l-.026,8.969q-.384.014-.77,0l.025-8.969q.386.009.771,0"/><path class="s" d="M376.745,240.246l-.025,8.969c-.25-.007-.5-.02-.75-.041l.026-8.968c.25.02.5.034.749.04"/><path class="r" d="M376,240.206l-.026,8.968c-.257-.021-.515-.05-.772-.087l.025-8.968c.258.036.515.065.773.087"/><path class="q" d="M375.223,240.119l-.025,8.968q-.423-.06-.844-.147l.025-8.969c.281.058.563.108.844.148"/><path class="p" d="M374.379,239.971l-.025,8.969q-.5-.1-.989-.244l.025-8.968c.329.093.659.175.989.243"/><path class="o" d="M373.39,239.728l-.025,8.968q-.688-.2-1.372-.465l.025-8.969q.684.27,1.372.466"/><path class="n" d="M372.018,239.262l-.025,8.969a16.582,16.582,0,0,1-2.222-1.077l.025-8.969a16.641,16.641,0,0,0,2.222,1.077"/></g></g></g></g><g class="b"><path class="i" d="M411.694,233.531l-.025,8.969-17.6,7.564.025-8.969Z"/><path class="i" d="M389.377,243.123l-.025,8.969-6.321,2.717.025-8.969Z"/><path class="k" d="M383.056,245.84l-.025,8.969-4.39-2.535.025-8.969Z"/><path class="k" d="M395.26,246.52l-.025,8.969-5.883-3.4.025-8.969Z"/><path class="l" d="M420.791,232.578l-25.372,20.4-4.829-2.788,4.67-3.67-5.883-3.4-6.321,2.717-4.391-2.534,35.119-14.774Zm-26.7,8.517,4.6,2.657,13-10.221-17.6,7.564"/><path class="j" d="M420.791,232.578l-.025,8.969-25.372,20.4.025-8.969Z"/><path class="k" d="M395.419,252.978l-.025,8.969-4.829-2.788.025-8.969Z"/></g><g class="b"><path class="i" d="M423.813,243.985l-.025,8.969-21.914,12.735.025-8.969Z"/><path class="ak" d="M433.839,240.111l-.025,8.969-13.193,13.364.025-8.969Z"/><path class="k" d="M401.9,256.72l-.025,8.969-4.32-2.494.025-8.969Z"/><path class="l" d="M443.024,245.414,412.77,263l-4.917-2.839,15.961-16.172L401.9,256.72l-4.32-2.494,30.254-17.582,6.006,3.468-13.193,13.364,18.111-10.525Z"/><path class="i" d="M443.024,245.414,443,254.383l-30.254,17.582L412.77,263Z"/><path class="k" d="M412.77,263l-.025,8.969-4.917-2.839.025-8.969Z"/></g><g class="b"><path class="i" d="M451.243,250.159l-.025,8.969-13.19,7.665.025-8.969Z"/><path class="al" d="M462.289,256.537l-.025,8.969L442.121,269.5l.025-8.969Z"/><path class="am" d="M434.52,261.587l-.025,8.969-4.232.75.025-8.969Z"/><path class="i" d="M430.288,262.337l-.025,8.969-9.3,5.4.025-8.969Z"/><path class="k" d="M420.989,267.741l-.025,8.969-4.794-2.768.025-8.969Z"/><path class="k" d="M432.035,274.119l-.025,8.969-4.917-2.839.025-8.969Z"/><path class="l" d="M462.289,256.537l-20.143,3.995-10.111,13.587-4.917-2.839,7.4-9.693-4.232.75-9.3,5.4-4.794-2.768,30.254-17.582,4.794,2.768-13.19,7.665,19.442-4.056Z"/><path class="an" d="M442.146,260.532l-.025,8.969L432.01,283.088l.025-8.969Z"/></g></g></g></svg>