<svg xmlns="http://www.w3.org/2000/svg" xmlns:xlink="http://www.w3.org/1999/xlink" width="194.957" height="242.741" viewBox="0 0 194.957 242.741"><defs><style>.a,.d{fill:none;}.b{isolation:isolate;}.c{fill:#00b7d1;}.d{stroke:#fff;stroke-width:9.319px;}.d,.e{stroke-linejoin:round;}.e,.w{fill:#fff;}.e{stroke:#155e85;stroke-width:4.66px;}.f{fill:#08547f;}.g{clip-path:url(#a);}.h{fill:#07527d;}.i{fill:#166fa4;}.j{clip-path:url(#b);}.k{fill:#0c5985;}.l{fill:#0d5b88;}.m{fill:#0f5d8b;}.n{fill:#105f8e;}.o{fill:#116292;}.p{fill:#126495;}.q{fill:#136798;}.r{fill:#14699c;}.s{clip-path:url(#c);}.t{fill:#0a5682;}.u{clip-path:url(#d);}.v{clip-path:url(#e);}.x{clip-path:url(#f);}.y{fill:#085480;}.z{clip-path:url(#g);}.aa{clip-path:url(#h);}.ab{clip-path:url(#i);}.ac{clip-path:url(#j);}.ad{clip-path:url(#k);}.ae{clip-path:url(#l);}.af{fill:#166da1;}.ag{fill:#b0b2b2;}.ah{fill:#2d2d2c;}.ai{fill:#6e7072;}</style><clipPath id="a"><path class="a" d="M-544.739,513.331l-.024,8.77c0-.449-.368-.874-1.1-1.3l.025-8.769C-545.106,512.457-544.737,512.882-544.739,513.331Z"/></clipPath><clipPath id="b"><path class="a" d="M-537.893,513.7l-.025,8.77c0,1.3-1.177,2.591-3.451,3.912l.025-8.77C-539.071,516.292-537.9,515.006-537.893,513.7Z"/></clipPath><clipPath id="c"><path class="a" d="M-542.4,518.228l-.025,8.77a12.243,12.243,0,0,1-8.994,1.725l.025-8.77A12.244,12.244,0,0,0-542.4,518.228Z"/></clipPath><clipPath id="d"><path class="a" d="M-556.514,520.615l-.024,8.77c0-.569-.539-1.1-1.546-1.683l.025-8.77C-557.052,519.514-556.512,520.046-556.514,520.615Z"/></clipPath><clipPath id="e"><path class="a" d="M-550.741,521.668l-.025,8.77c0,1.374-1.28,2.688-3.5,3.976l.025-8.77C-552.021,524.356-550.745,523.042-550.741,521.668Z"/></clipPath><clipPath id="f"><path class="a" d="M-556.644,527.042l-.025,8.77a13.427,13.427,0,0,1-14.138-.02l.025-8.77A13.427,13.427,0,0,0-556.644,527.042Z"/></clipPath><clipPath id="g"><path class="a" d="M-511.82,532.337l-.024,8.77c0-.449-.368-.874-1.1-1.3l.025-8.77C-512.187,531.463-511.818,531.888-511.82,532.337Z"/></clipPath><clipPath id="h"><path class="a" d="M-504.983,532.7l-.025,8.77c0,1.3-1.181,2.591-3.459,3.914l.025-8.77C-506.165,535.286-504.987,534-504.983,532.7Z"/></clipPath><clipPath id="i"><path class="a" d="M-525.391,540.1l-.025,8.77c0-.578-.511-1.121-1.492-1.687l.025-8.77C-525.9,538.98-525.39,539.524-525.391,540.1Z"/></clipPath><clipPath id="j"><path class="a" d="M-510.779,537.968l-.025,8.769a12.4,12.4,0,0,1-9.045,1.716l.025-8.77A12.407,12.407,0,0,0-510.779,537.968Z"/></clipPath><clipPath id="k"><path class="a" d="M-519.315,541.119l-.025,8.77c0,1.374-1.408,2.687-3.7,4.017l.025-8.77C-520.723,543.806-519.319,542.493-519.315,541.119Z"/></clipPath><clipPath id="l"><path class="a" d="M-527.583,547.793l-.025,8.77a8.993,8.993,0,0,0-3.085,2.389l.025-8.77A9.006,9.006,0,0,1-527.583,547.793Z"/></clipPath></defs><g transform="translate(-509 -4013.81)"><g class="b" transform="translate(509.684 4073.479)"><path class="c" d="M115.465,17.616l-7.093-4.095L5.974,73.448c-8.918,5.183-8.871,13.617.106,18.8l123.892,70.781,7.047-4.1L13.127,88.152c-5.063-2.923-5.1-7.682-.059-10.609l102.4-59.927"/></g><g transform="translate(1116.157 3670.255)"><path class="d" d="M-538,513.222c-.01-.052-.02-.1-.034-.154a2.9,2.9,0,0,0-.3-.688,4.008,4.008,0,0,0-.318-.474c-.1-.12-.2-.241-.316-.362a7.782,7.782,0,0,0-.854-.771c-.086-.066-.183-.133-.275-.2a14.774,14.774,0,0,0-1.392-.911l-7.058-4.075-29.583,17.192-.025,8.77,7.35,4.243a16.405,16.405,0,0,0,2,.971c.06.025.119.063.179.087q.669.263,1.34.454l.015,0,.032.008.01,0c.3.085.6.161.908.224.137.028.274.048.411.072s.274.052.411.072h.014l.019,0c.2.028.392.048.588.066.044,0,.088.012.132.015q.366.03.73.039c.083,0,.166,0,.248,0h0c.053,0,.1,0,.156,0,.115,0,.23,0,.344,0h0q.413-.015.824-.055c.082-.009.165-.022.247-.035l.129-.018c.1-.013.194-.026.291-.041.117-.018.233-.028.35-.049.179-.033.357-.1.537-.136l-.012,4.041,12.759,7.366h0l2.571-1.494.324-.188-.01,3.348,4.688,2.706h0l5.117-2.973v.508l-.016,5.41,4.774,2.756a4.2,4.2,0,0,1,.425-.5c.059-.062.112-.128.175-.188.1-.1.221-.187.333-.279.133-.109.26-.219.408-.326.131-.093.278-.187.421-.281s.309-.206.482-.311c.1-.06.206-.123.308-.184l-.01,3.539,4.688,2.707,6.943-4.035-.023,8.031,4.688,2.706,4.083-2.373,0,.917-.01,3.806,4.31,2.488,6.181-2.657,1.186.685-.017,6.216h0l4.722,2.726h0l24.826-19.938.025-8.77h0l-2.9-1.672-3.956-2.284h0l-3.96,1.664.009-3.355,0-.586.013-.008h0l-14.48-8.36-2.042,1.187.007-2.35-29.584,17.192-.187-.108h0l.186.108,29.583-17.192-4.688-2.706h0l-5.787,3.363-.667.388v-.158l.015-5.356h0a2.346,2.346,0,0,0-.134-.6,2.394,2.394,0,0,0-.085-.381l0-.005a7.778,7.778,0,0,0-3.367-3.038l-5.179-2.99-1.9-1.095h0l-2.894,1.682.009-3.347-12.759-7.367-6.618,3.846.016-5.7a2.352,2.352,0,0,1-.126.555h0A2.2,2.2,0,0,0-538,513.222Zm-14.617,11.324-.011.01c-.071.055-.13.11-.2.166-.026.019-.062.038-.089.058.108-.079.208-.158.308-.237Zm12.686-7.862h0a14.6,14.6,0,0,1-1.412.928A14.5,14.5,0,0,0-539.931,516.684ZM-543.893,541l.009-3.348h0l-.418-.241-.095-.055,1.084-.63,3.4,1.962Zm4.983-25.217c-.06.063-.143.127-.211.19-.114.111-.236.221-.366.332.039-.033.071-.066.109-.1.162-.143.337-.285.471-.427Zm.764-1.057a3.776,3.776,0,0,1-.357.532,3.812,3.812,0,0,0,.36-.537Zm22.267,43.995h0l.295.171,3.756,2.168h0l-4.051-2.338Zm-5.464-14.687c-.01.008-.016.015-.026.022-.046.035-.081.07-.13.1s-.083.054-.124.081l-.025.016C-521.543,544.182-521.442,544.107-521.343,544.032Zm-11.306-9.925.011-3.586,1.8-1.044,3.4,1.961-3.693,2.146-1.514.88Z"/><path class="e" d="M-541.491,509.662l-7.058-4.075-29.583,17.192-.025,8.77,7.35,4.243a16.266,16.266,0,0,0,2,.971c.059.025.118.063.178.086q.669.264,1.34.455l.015,0,.032.008c.306.086.612.162.918.226q.411.086.822.144h.016l.014,0q.361.051.723.081t.73.039c.083,0,.166,0,.248,0,.052,0,.1,0,.156,0,.116,0,.232,0,.347,0q.413-.015.824-.055c.127-.013.253-.037.379-.054.1-.012.191-.025.287-.04.117-.018.234-.028.351-.049.179-.033.357-.1.537-.136l-.012,4.041,12.759,7.366,2.9-1.682-.01,3.348,4.688,2.706,5.117-2.973-.017,5.918,4.774,2.756a4.171,4.171,0,0,1,.424-.5c.059-.062.113-.128.176-.189.1-.1.221-.187.333-.279.132-.109.26-.219.409-.326.13-.093.276-.187.419-.28.158-.1.31-.206.483-.312.1-.059.206-.123.308-.184l-.01,3.539,4.688,2.707,6.943-4.035-.023,8.031,4.688,2.706,4.083-2.373-.013,4.723,4.31,2.488,6.181-2.657,1.186.685-.017,6.216,4.722,2.726,24.826-19.938.025-8.77-6.852-3.956-3.96,1.664.011-3.941.013-.008-14.48-8.36-2.042,1.187.007-2.35-29.584,17.192-.187-.108h0l.187.108,29.583-17.192-4.688-2.706L-505,538.209l.015-5.514c0-1.3-1.167-2.629-3.589-4.027l-7.075-4.085-2.894,1.682.009-3.347-12.759-7.367-6.618,3.846.016-5.7a2.352,2.352,0,0,1-.126.555C-537.635,512.766-538.721,511.261-541.491,509.662Zm25.61,49.058,0,0,4.051,2.339h0Zm10.645-25a3.883,3.883,0,0,1-.568.844h0a3.859,3.859,0,0,0,.568-.844Zm-.767,1.057a7.652,7.652,0,0,1-.791.715h0a7.661,7.661,0,0,0,.792-.716Zm-41.212-14.752a11.052,11.052,0,0,1-1.873.174h0a11.075,11.075,0,0,0,1.875-.174Zm-1.95.174h0c-.04,0-.081-.012-.122-.013h0C-549.248,520.185-549.206,520.2-549.165,520.2Zm-3.452,4.349c-.074.059-.137.117-.215.176-.027.019-.063.039-.09.058.109-.079.209-.158.31-.238Zm13.707-8.765a7.645,7.645,0,0,1-.669.6,7.444,7.444,0,0,0,.673-.61Zm-4.4,20.943,3.4,1.962L-543.893,541l.009-3.348-.513-.3Zm17.569,2.566a1.737,1.737,0,0,1,.116.172A1.737,1.737,0,0,0-525.744,539.29Zm.271.441a1.008,1.008,0,0,1,.041.186A1.027,1.027,0,0,0-525.473,539.731Zm4.1,4.323c-.046.035-.081.07-.13.106s-.1.064-.15.1c.106-.075.208-.151.307-.226A.3.3,0,0,1-521.369,544.054Zm3.784-4.127h0c-.015,0-.03-.005-.045-.005h0C-517.615,539.922-517.6,539.927-517.585,539.927Zm-8.471-.931c-.056-.048-.1-.095-.159-.143C-526.153,538.9-526.112,538.948-526.056,539Zm-6.594-4.532.012-3.943,1.8-1.044,3.4,1.961Zm-5.879-19.168a3.8,3.8,0,0,0,.386-.578l0,.006A3.81,3.81,0,0,1-538.529,515.3Zm-1.4,1.388h0a14.462,14.462,0,0,1-1.411.928A14.5,14.5,0,0,0-539.931,516.684Zm-4.83-3.408A1,1,0,0,0-545,512.7,1,1,0,0,1-544.761,513.276Zm-.321-.656a3.158,3.158,0,0,0-.76-.588A3.178,3.178,0,0,1-545.082,512.62Zm-11.689,7.351a1.758,1.758,0,0,0-.12-.169A1.758,1.758,0,0,1-556.771,519.971Zm.21.443a1,1,0,0,0-.043-.183A1,1,0,0,1-556.561,520.414Zm-.658-.9c-.056-.046-.1-.091-.159-.137C-557.315,519.419-557.275,519.464-557.219,519.51Zm50.192,16.169h0a14.872,14.872,0,0,1-1.415.929A14.684,14.684,0,0,0-507.027,535.679Zm-4.815-3.4a1,1,0,0,0-.241-.575A1,1,0,0,1-511.842,532.282Zm-.321-.657a3.207,3.207,0,0,0-.76-.588A3.2,3.2,0,0,1-512.163,531.625Z"/><g class="b"><path class="f" d="M-545.842,512.032l-.025,8.77-2.25-1.3.025-8.77Z"/><g class="b"><g class="g"><g class="b"><path class="h" d="M-544.739,513.331l-.024,8.77c0-.449-.368-.874-1.1-1.3l.025-8.769c.736.425,1.1.85,1.1,1.3"/></g></g></g><path class="i" d="M-548.092,510.733l-.025,8.77-7.831,4.551.025-8.77Z"/><g class="b"><g class="j"><g class="b"><path class="k" d="M-537.893,513.7l-.025,8.77v.057l.025-8.77V513.7"/><path class="l" d="M-537.894,513.758l-.025,8.77a2.281,2.281,0,0,1-.043.375l.025-8.77a2.281,2.281,0,0,0,.043-.375"/><path class="m" d="M-537.937,514.133l-.025,8.77a2.489,2.489,0,0,1-.11.382l.025-8.77a2.58,2.58,0,0,0,.11-.382"/><path class="n" d="M-538.047,514.515l-.025,8.77a3.019,3.019,0,0,1-.2.417l.025-8.77a3.012,3.012,0,0,0,.2-.417"/><path class="o" d="M-538.244,514.932l-.025,8.77a3.809,3.809,0,0,1-.336.5l.025-8.77a3.831,3.831,0,0,0,.336-.5"/><path class="p" d="M-538.58,515.428l-.025,8.77a5.827,5.827,0,0,1-.618.66l.024-8.77a5.762,5.762,0,0,0,.619-.66"/><path class="q" d="M-539.2,516.088l-.024,8.77a11.626,11.626,0,0,1-1.885,1.371l.025-8.77a11.612,11.612,0,0,0,1.884-1.371"/><path class="r" d="M-541.083,517.459l-.025,8.77c-.085.051-.172.1-.261.154l.025-8.77c.089-.051.176-.1.261-.154"/></g></g></g><path class="i" d="M-541.344,517.613l-.025,8.77-1.058.615.025-8.77Z"/><path class="f" d="M-558.059,518.932l-.025,8.77-2.078-1.2.025-8.77Z"/><g class="b"><g class="s"><g class="b"><path class="r" d="M-542.4,518.228l-.025,8.77a15.78,15.78,0,0,1-3.087,1.4l.025-8.77a15.781,15.781,0,0,0,3.087-1.4"/><path class="q" d="M-545.488,519.63l-.025,8.77a12.235,12.235,0,0,1-1.56.392l.025-8.77a12.237,12.237,0,0,0,1.56-.392"/><path class="p" d="M-547.048,520.022l-.025,8.77q-.444.079-.89.125l.025-8.77c.3-.03.594-.071.89-.125"/><path class="o" d="M-547.938,520.147l-.025,8.77q-.36.036-.72.048l.025-8.77q.36-.012.72-.048"/><path class="n" d="M-548.658,520.2l-.025,8.77c-.217.007-.435.008-.652,0l.025-8.77c.217.005.435,0,.652,0"/><path class="m" d="M-549.31,520.2l-.025,8.77c-.214-.006-.428-.017-.643-.035l.025-8.77q.323.027.643.035"/><path class="l" d="M-549.953,520.163l-.025,8.77c-.224-.018-.449-.044-.675-.076l.025-8.769q.339.048.675.075"/><path class="k" d="M-550.628,520.088l-.025,8.769q-.375-.052-.753-.131l.025-8.77q.378.078.753.132"/><path class="t" d="M-551.381,519.956l-.025,8.77-.014,0,.025-8.77.014,0"/></g></g></g><g class="b"><g class="u"><g class="b"><path class="h" d="M-556.514,520.615l-.024,8.77c0-.569-.539-1.1-1.546-1.683l.025-8.77c1.007.582,1.547,1.114,1.545,1.683"/></g></g></g><path class="i" d="M-560.137,517.733l-.025,8.77-9.093,5.284.025-8.77Z"/><g class="b"><g class="v"><g class="b"><path class="k" d="M-550.741,521.668l-.025,8.77v.059l.025-8.77v-.059"/><path class="l" d="M-550.742,521.727l-.025,8.77a2.354,2.354,0,0,1-.044.382l.025-8.77a2.348,2.348,0,0,0,.044-.382"/><path class="m" d="M-550.786,522.109l-.025,8.77a2.429,2.429,0,0,1-.113.39l.025-8.77a2.431,2.431,0,0,0,.113-.39"/><path class="n" d="M-550.9,522.5l-.025,8.77a3,3,0,0,1-.2.424l.025-8.769a3.067,3.067,0,0,0,.2-.425"/><path class="o" d="M-551.1,522.924l-.025,8.769a4.023,4.023,0,0,1-.337.5l.025-8.77a4,4,0,0,0,.337-.5"/><path class="p" d="M-551.435,523.422l-.025,8.77a5.952,5.952,0,0,1-.637.682l.025-8.77a5.948,5.948,0,0,0,.637-.682"/><path class="q" d="M-552.072,524.1l-.025,8.77a11.751,11.751,0,0,1-1.886,1.374l.025-8.77a11.749,11.749,0,0,0,1.886-1.374"/><path class="r" d="M-553.958,525.478l-.025,8.77c-.092.055-.185.111-.28.166l.025-8.77c.095-.055.188-.111.28-.166"/></g></g></g><path class="i" d="M-554.238,525.644l-.025,8.77-2.405,1.4.025-8.77Z"/><path class="f" d="M-570.782,527.022l-.025,8.77-7.35-4.243.025-8.77Z"/><path class="w" d="M-551.4,519.953c1.535,2.013.279,3.877-2.843,5.691l-2.406,1.4a13.427,13.427,0,0,1-14.138-.02l-7.35-4.243,29.583-17.192,7.058,4.075c4.843,2.8,4.7,5.3.147,7.951l-1.057.615A12.244,12.244,0,0,1-551.4,519.953Zm-9.818,4.313,2.577-1.5c2.746-1.6,2.706-2.607.577-3.837l-2.078-1.2-9.093,5.284,2.679,1.547c1.58.912,3.138.981,5.338-.3m13.121-13.533-7.831,4.551,1.838,1.06c1.734,1,3.566,1.17,5.938-.208l1.638-.952c2.115-1.229,2.332-2.191.667-3.152l-2.25-1.3"/><g class="b"><g class="x"><g class="b"><path class="r" d="M-556.644,527.042l-.025,8.77a15.461,15.461,0,0,1-3,1.353l.025-8.77a15.458,15.458,0,0,0,3-1.353"/><path class="q" d="M-559.644,528.4l-.025,8.77a13.7,13.7,0,0,1-1.755.443l.024-8.77a13.522,13.522,0,0,0,1.756-.443"/><path class="p" d="M-561.4,528.838l-.024,8.77q-.508.092-1.017.143l.025-8.77q.508-.051,1.016-.143"/><path class="o" d="M-562.416,528.981l-.025,8.77q-.411.041-.824.055l.025-8.77c.275-.009.55-.028.824-.055"/><path class="n" d="M-563.24,529.036l-.025,8.77q-.375.013-.751,0l.025-8.77q.377.009.751,0"/><path class="m" d="M-563.991,529.04l-.025,8.77q-.364-.011-.73-.04l.025-8.77c.243.021.487.034.73.04"/><path class="l" d="M-564.721,529l-.025,8.77c-.251-.02-.5-.049-.753-.084l.025-8.77q.376.054.753.084"/><path class="k" d="M-565.474,528.916l-.025,8.77q-.411-.059-.822-.144l.025-8.77q.411.086.822.144"/><path class="t" d="M-566.3,528.772l-.025,8.77c-.322-.067-.643-.146-.965-.238l.025-8.769q.481.137.965.237"/><path class="y" d="M-567.261,528.535l-.025,8.769q-.67-.191-1.34-.454l.024-8.77q.669.262,1.341.455"/><path class="h" d="M-568.6,528.08l-.024,8.77a16.272,16.272,0,0,1-2.181-1.058l.025-8.77a16.326,16.326,0,0,0,2.18,1.058"/></g></g></g></g><g class="b"><path class="i" d="M-518.532,522.918l-.025,8.77-4.214,2.449.025-8.77Z"/><path class="f" d="M-522.746,525.366l-.025,8.77-8.071-4.66.025-8.77Z"/><path class="i" d="M-530.817,520.707l-.025,8.77-8.24,4.789.025-8.77Z"/><path class="i" d="M-532.635,529.2l-.025,8.77-4.231,2.459.025-8.77Z"/><path class="f" d="M-536.866,531.662l-.025,8.77-6.422-3.708.025-8.77Z"/><path class="i" d="M-543.288,527.954l-.025,8.77-8.667,5.037.025-8.77Z"/><path class="f" d="M-548.115,540.109l-.025,8.77-12.759-7.366.025-8.77Z"/><path class="i" d="M-543.884,537.651l-.025,8.77-4.231,2.459.025-8.77Z"/><path class="w" d="M-518.532,522.918l-4.214,2.449-8.071-4.66-8.24,4.789,6.422,3.708-4.231,2.459-6.422-3.708-8.667,5.037,8.071,4.66-4.231,2.459-12.759-7.366,29.583-17.192Z"/></g><g class="b"><path class="f" d="M-512.923,531.037l-.025,8.77-2.25-1.3.025-8.77Z"/><g class="b"><g class="z"><g class="b"><path class="h" d="M-511.82,532.337l-.024,8.769c0-.448-.368-.873-1.1-1.3l.025-8.77c.736.426,1.1.851,1.1,1.3"/></g></g></g><path class="i" d="M-515.173,529.739l-.025,8.77-9.093,5.284.025-8.77Z"/><g class="b"><g class="aa"><g class="b"><path class="k" d="M-504.983,532.7l-.025,8.77v.057l.025-8.77V532.7"/><path class="l" d="M-504.984,532.752l-.025,8.77a2.255,2.255,0,0,1-.042.373l.024-8.77a2.154,2.154,0,0,0,.043-.373"/><path class="m" d="M-505.027,533.125l-.024,8.77a2.6,2.6,0,0,1-.11.381l.025-8.77a2.476,2.476,0,0,0,.109-.381"/><path class="n" d="M-505.136,533.506l-.025,8.77a3.058,3.058,0,0,1-.2.416l.025-8.77a3,3,0,0,0,.2-.416"/><path class="o" d="M-505.332,533.922l-.025,8.77a4.012,4.012,0,0,1-.336.495l.025-8.77a4.007,4.007,0,0,0,.336-.495"/><path class="p" d="M-505.668,534.417l-.025,8.77a5.741,5.741,0,0,1-.618.66l.025-8.77a5.835,5.835,0,0,0,.618-.66"/><path class="q" d="M-506.286,535.077l-.025,8.77a11.713,11.713,0,0,1-1.893,1.377l.025-8.77a11.754,11.754,0,0,0,1.893-1.377"/><path class="r" d="M-508.179,536.454l-.025,8.77c-.086.051-.173.1-.263.155l.025-8.77c.089-.052.177-.1.263-.155"/></g></g></g><path class="i" d="M-508.442,536.609l-.025,8.77-2.337,1.358.025-8.77Z"/><path class="f" d="M-526.883,538.414l-.025,8.77-1.614-.932.025-8.77Z"/><g class="b"><g class="ab"><g class="b"><path class="h" d="M-525.391,540.1l-.025,8.77c0-.578-.511-1.121-1.492-1.687l.025-8.77c.981.566,1.493,1.11,1.492,1.687"/></g></g></g><g class="b"><g class="ac"><g class="b"><path class="r" d="M-510.779,537.968l-.025,8.769a15.507,15.507,0,0,1-3.043,1.379l.025-8.77a15.561,15.561,0,0,0,3.043-1.378"/><path class="q" d="M-513.822,539.346l-.025,8.77a12.433,12.433,0,0,1-1.6.4l.025-8.769a12.587,12.587,0,0,0,1.6-.4"/><path class="p" d="M-515.418,539.748l-.025,8.769c-.3.055-.607.1-.911.128l.025-8.77c.3-.03.607-.073.911-.127"/><path class="o" d="M-516.329,539.875l-.025,8.77c-.246.025-.491.041-.737.049l.025-8.769c.246-.009.491-.025.737-.05"/><path class="n" d="M-517.066,539.925l-.025,8.769q-.332.012-.665,0l.025-8.769q.333.008.665,0"/><path class="m" d="M-517.731,539.928l-.025,8.769q-.324-.008-.651-.035l.025-8.769c.218.018.435.029.651.035"/><path class="l" d="M-518.382,539.893l-.025,8.769c-.226-.018-.452-.044-.679-.076l.025-8.77c.227.033.453.058.679.077"/><path class="k" d="M-519.061,539.816l-.025,8.77q-.374-.052-.749-.131l.025-8.769c.25.051.5.1.749.13"/><path class="t" d="M-519.81,539.686l-.025,8.769-.014,0,.025-8.77.014,0"/></g></g></g><path class="f" d="M-540.542,544.482l-.025,8.77-4.688-2.707.025-8.77Z"/><path class="i" d="M-528.5,537.482l-.025,8.77-12.045,7,.025-8.77Z"/><g class="b"><g class="ad"><g class="b"><path class="k" d="M-519.315,541.119l-.025,8.77v.053l.025-8.77v-.053"/><path class="l" d="M-519.316,541.172l-.025,8.77a2.083,2.083,0,0,1-.04.35l.025-8.77a2.071,2.071,0,0,0,.04-.35"/><path class="m" d="M-519.356,541.522l-.025,8.77a2.33,2.33,0,0,1-.1.36l.025-8.77a2.316,2.316,0,0,0,.1-.36"/><path class="n" d="M-519.46,541.882l-.025,8.77a2.738,2.738,0,0,1-.189.4l.025-8.77a2.74,2.74,0,0,0,.189-.4"/><path class="o" d="M-519.649,542.283l-.025,8.77a3.75,3.75,0,0,1-.323.478l.025-8.77a3.76,3.76,0,0,0,.323-.478"/><path class="p" d="M-519.972,542.761l-.025,8.77a5.915,5.915,0,0,1-.632.675l.025-8.77a5.932,5.932,0,0,0,.632-.675"/><path class="q" d="M-520.6,543.436l-.025,8.77a12.9,12.9,0,0,1-2.06,1.494l.024-8.77a12.913,12.913,0,0,0,2.061-1.494"/><path class="r" d="M-522.665,544.93l-.024,8.77c-.114.069-.229.137-.347.206l.025-8.77c.118-.069.233-.137.346-.206"/></g></g></g><path class="i" d="M-523.011,545.136l-.025,8.77-4.572,2.657.025-8.77Z"/><path class="w" d="M-527.583,547.793a9.006,9.006,0,0,0-3.085,2.389l-4.774-2.756c.51-.6.8-.962,3.205-2.36l4.657-2.706c2.747-1.6,2.826-2.717.7-3.946l-1.614-.932-12.045,7-4.688-2.707,29.583-17.192,7.075,4.085c4.842,2.8,4.685,5.294.13,7.941l-2.337,1.359a12.407,12.407,0,0,1-9.045,1.715c1.363,1.913-.116,3.668-3.187,5.453Zm11.075-11.907,2.918-1.7c2.115-1.229,2.332-2.191.667-3.153l-2.25-1.3-9.093,5.284,1.837,1.061a5.392,5.392,0,0,0,5.921-.2"/><path class="f" d="M-530.668,550.182l-.025,8.77-4.774-2.756.025-8.77Z"/><g class="b"><g class="ae"><g class="b"><path class="r" d="M-527.583,547.793l-.025,8.77c-.266.154-.517.3-.754.445l.024-8.77c.238-.143.489-.291.755-.445"/><path class="q" d="M-528.338,548.238l-.024,8.77a10.4,10.4,0,0,0-1.681,1.2l.025-8.77a10.431,10.431,0,0,1,1.68-1.2"/><path class="p" d="M-530.018,549.437l-.025,8.77a4.711,4.711,0,0,0-.493.53l.025-8.769a4.621,4.621,0,0,1,.493-.531"/><path class="o" d="M-530.511,549.968l-.025,8.769c-.055.07-.107.142-.157.215l.025-8.77c.05-.073.1-.145.157-.214"/></g></g></g></g><g class="b"><path class="w" d="M-493.856,537.164l-29.583,17.192-4.688-2.707,29.583-17.192Z"/><path class="i" d="M-493.856,537.164l-.025,8.77-29.583,17.192.025-8.77Z"/><path class="f" d="M-523.439,554.356l-.025,8.77-4.688-2.707.025-8.77Z"/></g><g class="b"><path class="f" d="M-491.149,543.609l-.025,8.77-4.894-2.826.025-8.77Z"/><path class="i" d="M-477.353,546.692l-.025,8.77-4.214,2.449.025-8.77Z"/><path class="f" d="M-481.567,549.141l-.025,8.77-4.894-2.826.025-8.77Z"/><path class="w" d="M-477.34,546.687l-4.232,2.459-4.9-2.826-25.359,14.737-4.689-2.707,25.359-14.737-4.9-2.826,4.232-2.459Z"/><path class="i" d="M-486.461,546.315l-.025,8.77-25.369,14.743.025-8.77Z"/><path class="f" d="M-511.83,561.058l-.025,8.77-4.688-2.707.025-8.77Z"/><path class="i" d="M-475.447,553.86l-.025,8.77-17.229,7.386.025-8.77Z"/><path class="i" d="M-497.269,563.239l-.025,8.77-6.181,2.657.025-8.77Z"/><path class="f" d="M-503.45,565.9l-.025,8.77-4.31-2.489.025-8.77Z"/><path class="f" d="M-491.534,566.551l-.025,8.77-5.736-3.311.025-8.77Z"/><path class="af" d="M-466.552,552.928l-.025,8.77L-491.4,581.636l.025-8.77Z"/><path class="f" d="M-491.378,572.866l-.025,8.77-4.722-2.726.025-8.77Z"/><path class="w" d="M-466.552,552.928l-24.826,19.938-4.723-2.726,4.567-3.589-5.735-3.312-6.181,2.657-4.31-2.488,34.356-14.436Zm-26.124,8.319,4.516,2.607,12.713-9.994-17.229,7.387"/></g></g><g transform="translate(513 3978)"><g transform="translate(0 35.81)"><g class="b"><g transform="translate(0.045)"><path class="ag" d="M75.823,67.923c10.463-6.131,27.609-6.173,38.229-.1l68.86,39.423c10.62,6.08,10.748,16.011.289,22.141l-68.01,39.866c-10.463,6.131-27.609,6.173-38.229.094L8.1,129.926c-10.62-6.08-10.748-16.011-.289-22.141Zm103.854,41.222-68.86-39.423C102,64.675,87.761,64.73,79.11,69.8L11.1,109.664c-8.686,5.089-8.579,13.32.238,18.366L80.2,167.453c8.788,5.029,23.026,5.012,31.711-.081l68.01-39.861c8.652-5.072,8.545-13.337-.242-18.366" transform="translate(-0.053 -63.297)"/></g><g transform="translate(4.647 2.67)"><path class="ah" d="M75.59,67.76c8.652-5.072,22.89-5.127,31.707-.081l68.86,39.423c8.788,5.029,8.894,13.294.242,18.366L108.39,165.33c-8.686,5.093-22.924,5.11-31.711.081L7.818,125.987C-1,120.941-1.105,112.71,7.58,107.621Z" transform="translate(-1.135 -63.925)"/></g><path class="ai" d="M191,76.272c0,.259-.042.519-.068.778-.025.289-.047.578-.1.863-.042.23-.111.455-.17.68a8.489,8.489,0,0,1-.234.821c-.077.217-.179.434-.272.65-.123.285-.247.565-.4.846-.106.2-.234.4-.357.6-.2.315-.4.629-.638.94-.136.183-.281.366-.429.544a15.465,15.465,0,0,1-1.178,1.267c-.136.132-.259.268-.4.4-.264.238-.553.463-.838.689-.242.2-.476.4-.735.591-.31.221-.65.434-.978.65s-.625.425-.969.629l-68.01,39.861a28.9,28.9,0,0,1-3.758,1.8c-.353.14-.714.276-1.076.408-.821.3-1.684.54-2.551.787-.884.247-1.781.48-2.7.672-1.05.217-2.109.417-3.189.557-.3.034-.587.089-.884.123-1.492.162-3,.242-4.515.259-.247,0-.489,0-.735,0-1.5-.008-3-.085-4.485-.238-.225-.021-.451-.047-.672-.077a41.832,41.832,0,0,1-4.37-.736c-.247-.055-.489-.119-.735-.179a36.579,36.579,0,0,1-3.7-1.114c-.251-.089-.514-.162-.765-.259A29.614,29.614,0,0,1,77,127.174L8.137,87.755c-4.03-2.309-6.551-5.17-7.555-8.171a9.567,9.567,0,0,1-.5-3.027L.042,91.6c-.009,4.06,2.678,8.12,8.052,11.2l68.86,39.423a29.656,29.656,0,0,0,3.809,1.815c.094.038.191.06.285.1.251.094.514.17.77.259.735.259,1.462.531,2.228.748.476.14.978.242,1.467.361.247.06.485.123.735.183.2.043.4.106.612.149.88.183,1.777.336,2.678.463.357.051.718.081,1.08.123.225.026.446.051.672.072.293.03.587.077.884.1.884.072,1.777.119,2.666.14.315.008.625,0,.935,0,.247,0,.489,0,.736,0,.37,0,.74.009,1.11,0,1-.034,2.007-.1,3-.2.136-.013.268-.042.4-.055.3-.034.587-.085.884-.123.727-.094,1.458-.174,2.172-.3.349-.064.672-.183,1.016-.255.923-.191,1.811-.421,2.7-.672.455-.128.948-.2,1.394-.349.4-.128.765-.3,1.152-.438.366-.132.723-.264,1.076-.408a28.638,28.638,0,0,0,3.758-1.8l68.01-39.861.255-.153c.255-.153.476-.319.718-.476.327-.217.667-.429.969-.65.268-.191.5-.4.748-.6.281-.225.57-.446.825-.68.043-.038.1-.077.14-.115.1-.094.17-.2.268-.289a15.249,15.249,0,0,0,1.169-1.258c.072-.089.17-.17.242-.255s.123-.2.2-.293c.23-.306.434-.621.629-.935.081-.132.187-.255.259-.387.042-.072.064-.149.1-.221a8.852,8.852,0,0,0,.4-.842c.072-.162.166-.315.225-.476.021-.06.03-.119.051-.179.1-.272.162-.544.234-.816.047-.179.115-.353.153-.531.008-.051.008-.1.017-.149.051-.289.072-.578.1-.867.017-.179.055-.357.064-.54l0-.234h0Z" transform="translate(-0.042 -21.109)"/></g></g></g></g></svg>