<svg xmlns="http://www.w3.org/2000/svg" xmlns:xlink="http://www.w3.org/1999/xlink" width="191" height="238.052" viewBox="0 0 191 238.052"><defs><style>.a,.h{fill:none;}.b{isolation:isolate;}.c{fill:#d10000;}.d{fill:#b0b2b2;}.e{fill:#2d2d2c;}.f{fill:#6e7072;}.g,.q{fill:#991d1b;}.g{stroke:#fff;stroke-width:9.089px;}.g,.h{stroke-linejoin:round;}.h{stroke:#831412;stroke-width:4.545px;}.i{fill:#831412;}.j{clip-path:url(#a);}.k{fill:#811310;}.l{clip-path:url(#b);}.m{fill:#8b1815;}.n{fill:#8e1917;}.o{fill:#921a19;}.p{fill:#951c1a;}.r{fill:#9c1e1d;}.s{fill:#a01f1e;}.t{fill:#a3201f;}.u{fill:#ac2322;}.v{fill:#fff;}.w{clip-path:url(#c);}.x{fill:#871614;}.y{fill:#841512;}.z{clip-path:url(#d);}.aa{clip-path:url(#e);}.ab{clip-path:url(#f);}.ac{clip-path:url(#g);}.ad{fill:#a82221;}.ae{fill:#a72221;}.af{fill:#a2201f;}.ag{clip-path:url(#h);}.ah{clip-path:url(#i);}.ai{clip-path:url(#j);}.aj{clip-path:url(#k);}.ak{clip-path:url(#l);}.al{clip-path:url(#m);}</style><clipPath id="a"><path class="a" d="M590.647-214.61l-.024,8.553c0-.459-.39-.876-1.075-1.272l.024-8.553C590.257-215.486,590.648-215.069,590.647-214.61Z"/></clipPath><clipPath id="b"><path class="a" d="M597.057-214.341l-.024,8.553c0,1.395-1.23,2.8-3.614,4.183l.025-8.553C595.827-211.543,597.053-212.946,597.057-214.341Z"/></clipPath><clipPath id="c"><path class="a" d="M578.868-201.687l-.024,8.553c-4.626,2.688-9.383,2.852-13.955.212l.024-8.553C569.486-198.835,574.242-199,578.868-201.687Z"/></clipPath><clipPath id="d"><path class="a" d="M607.323-205.337l-.024,8.553c0-.475-.394-.909-1.089-1.311-1.441-.832-3.144-.909-5.207.29l.024-8.553c2.063-1.2,3.767-1.122,5.207-.29C606.93-206.246,607.325-205.812,607.323-205.337Z"/></clipPath><clipPath id="e"><path class="a" d="M613.614-205.082l-.024,8.553c0,1.433-1.208,2.88-3.575,4.255l.024-8.553C612.406-202.2,613.61-203.649,613.614-205.082Z"/></clipPath><clipPath id="f"><path class="a" d="M583.87-187.036l.024-8.553c0-.52.478-1.09,1.559-1.718l-.024,8.553C584.348-188.126,583.871-187.556,583.87-187.036Z"/></clipPath><clipPath id="g"><path class="a" d="M577.579-187.291l.024-8.553c0,1.355,1.066,2.7,3.24,3.952a13.73,13.73,0,0,0,14.188-.213l-.024,8.553a13.73,13.73,0,0,1-14.188.213C578.645-184.594,577.575-185.936,577.579-187.291Z"/></clipPath><clipPath id="h"><path class="a" d="M670.82-168.327l-.024,8.553c0-.439-.36-.854-1.076-1.268l.024-8.553C670.46-169.182,670.822-168.766,670.82-168.327Z"/></clipPath><clipPath id="i"><path class="a" d="M677.5-167.988l-.024,8.553c0,1.275-1.157,2.532-3.386,3.827l.024-8.553C676.344-165.456,677.5-166.713,677.5-167.988Z"/></clipPath><clipPath id="j"><path class="a" d="M657.592-160.768l-.024,8.553c0-.565-.5-1.094-1.446-1.642l.024-8.554C657.095-161.863,657.594-161.333,657.592-160.768Z"/></clipPath><clipPath id="k"><path class="a" d="M671.852-162.846l-.024,8.553a12.139,12.139,0,0,1-8.838,1.683l.024-8.553A12.143,12.143,0,0,0,671.852-162.846Z"/></clipPath><clipPath id="l"><path class="a" d="M663.513-159.758l-.025,8.553c0,1.336-1.366,2.611-3.607,3.913l.024-8.553C662.146-157.147,663.509-158.422,663.513-159.758Z"/></clipPath><clipPath id="m"><path class="a" d="M655.463-153.263l-.025,8.553a9.057,9.057,0,0,0-3.025,2.321l.025-8.554A9.048,9.048,0,0,1,655.463-153.263Z"/></clipPath></defs><g transform="translate(-278 -3902.082)"><g class="b" transform="translate(278.981 3947.479)"><path class="c" d="M115.465,17.616l-7.093-4.095L5.974,73.448c-8.918,5.183-8.871,13.617.106,18.8l123.892,70.781,7.047-4.1L13.127,88.152c-5.063-2.923-5.1-7.682-.059-10.609l102.4-59.927"/></g><g transform="translate(277.958 3847.491)"><g transform="translate(0.042 54.591)"><g class="b"><g transform="translate(0.045)"><path class="d" d="M75.84,20.152c10.465-6.136,27.615-6.179,38.237-.1l68.876,39.432c10.622,6.081,10.75,16.014.289,22.146L115.217,121.5c-10.465,6.136-27.615,6.179-38.237.1L8.1,82.168c-10.622-6.081-10.75-16.014-.289-22.146ZM179.718,61.383,110.842,21.95c-8.819-5.048-23.061-4.992-31.714.081L11.1,61.9c-8.688,5.09-8.581,13.323.238,18.37L80.216,119.7c8.79,5.031,23.031,5.009,31.719-.081l68.025-39.87c8.654-5.073,8.547-13.34-.242-18.37" transform="translate(-0.053 -15.521)"/></g><g transform="translate(4.648 2.674)"><path class="e" d="M75.607,19.986c8.654-5.073,22.895-5.128,31.714-.081L176.2,59.337c8.79,5.031,8.9,13.3.242,18.37l-68.025,39.87c-8.688,5.09-22.929,5.111-31.719.081L7.82,78.226C-1,73.179-1.106,64.946,7.582,59.856Z" transform="translate(-1.135 -16.15)"/></g><path class="f" d="M191.042,28.5c0,.259-.043.519-.068.778-.026.289-.047.578-.1.863-.043.23-.111.455-.17.68a8.08,8.08,0,0,1-.234.816c-.077.221-.179.434-.272.651-.123.285-.247.57-.4.85-.106.2-.234.4-.357.6-.2.319-.4.634-.638.944-.136.183-.281.366-.429.544a16.2,16.2,0,0,1-1.178,1.267c-.136.132-.259.264-.4.4-.264.234-.553.464-.838.689-.242.2-.476.4-.736.587-.31.225-.651.438-.978.655s-.625.425-.97.629l-68.025,39.87a29.468,29.468,0,0,1-3.759,1.8c-.353.14-.714.276-1.076.408-.821.3-1.684.54-2.551.782-.884.251-1.782.485-2.7.676-1.05.217-2.109.412-3.189.553-.3.038-.587.094-.884.123-1.493.162-3,.247-4.516.264-.247,0-.489,0-.736,0-1.5-.009-3-.089-4.486-.238l-.672-.077a42.993,42.993,0,0,1-4.371-.736c-.247-.055-.489-.119-.736-.179a37.715,37.715,0,0,1-3.7-1.114c-.251-.089-.515-.162-.765-.259a29.625,29.625,0,0,1-4.1-1.914L8.139,39.978c-4.031-2.3-6.553-5.167-7.556-8.169a9.589,9.589,0,0,1-.5-3.028L.042,43.827c-.009,4.061,2.679,8.122,8.054,11.2L76.972,94.456a29.128,29.128,0,0,0,3.81,1.82c.094.038.191.06.285.1.251.094.515.166.77.259.736.259,1.463.532,2.228.748.476.136.978.242,1.467.361.247.06.485.123.736.179.2.047.4.106.612.149.88.183,1.777.34,2.679.468.357.051.719.081,1.08.123.225.025.446.051.672.072.293.03.587.077.884.1.884.077,1.778.123,2.666.145.315.009.625,0,.936,0,.247,0,.489,0,.736,0,.37,0,.74.009,1.11,0,1-.034,2.007-.1,3-.2.136-.013.268-.043.4-.055.3-.034.587-.085.884-.123.727-.094,1.459-.174,2.173-.306.349-.06.672-.179,1.016-.251.923-.191,1.812-.421,2.7-.672.455-.132.948-.2,1.395-.349.4-.128.765-.3,1.152-.438.366-.132.723-.264,1.076-.408a28.643,28.643,0,0,0,3.759-1.8l68.025-39.87.255-.153c.255-.153.476-.319.719-.481.327-.213.668-.425.97-.646.268-.2.5-.4.748-.6.281-.225.57-.446.825-.68.043-.038.1-.077.14-.115.1-.094.17-.2.268-.289a15.255,15.255,0,0,0,1.169-1.259c.072-.089.17-.17.242-.259s.123-.191.2-.289c.23-.31.434-.621.629-.94.081-.128.187-.255.259-.383.043-.072.064-.149.1-.221a8.847,8.847,0,0,0,.4-.842c.072-.162.166-.319.225-.476.021-.06.03-.123.051-.183.1-.268.162-.54.234-.812.047-.179.115-.353.153-.532.009-.051.009-.1.017-.153.051-.285.072-.574.1-.867.017-.179.055-.357.064-.536l0-.238h0Z" transform="translate(-0.042 26.682)"/></g></g></g><g transform="translate(-244.671 4277.978)"><path class="g" d="M566.784-192c.047.019.092.049.139.067.14.055.281.093.422.143.273.1.546.2.82.279.042.012.083.019.125.031.058.016.115.027.173.042.21.055.42.112.631.156.259.053.518.1.777.135.041.006.083.009.124.014l.044.005h0l.13.015c.14.016.28.035.42.047.235.019.469.032.7.038h0c.16,0,.321,0,.481,0h.118c.043,0,.087,0,.131,0,.271-.009.543-.028.815-.055.1-.01.2-.029.293-.041s.214-.029.32-.045h0c.076-.012.153-.02.229-.032.054-.01.108-.014.163-.023.233-.043.467-.122.7-.177.318-.076.636-.142.954-.241.046-.015.093-.02.139-.036.327-.1.653-.248.979-.379.184-.075.369-.133.554-.215.141-.064.282-.142.423-.21l-.015,5.2h0A3.974,3.974,0,0,0,579.4-184.3a11.5,11.5,0,0,0,1.424.957,14.542,14.542,0,0,0,1.828.885c.034.014.067.035.1.048q.624.248,1.259.428c.063.018.126.03.189.047s.151.037.226.055c.184.047.366.1.551.136q.408.084.819.143c.069.009.138.014.207.023l.151.017c.135.015.27.034.406.045.25.021.5.034.752.041h0c.159,0,.317,0,.475,0h.143c.055,0,.111,0,.166,0q.437-.015.873-.059c.179-.018.359-.05.539-.076.095-.013.19-.024.285-.04h0c.062-.01.124-.017.186-.026l.049-.007c.218-.039.433-.114.65-.163.123-.029.246-.051.369-.082l-.011,4.1h0l4.555,2.63,5.864-3.408-.019,6.783,4.689,2.707h0l9.643-12.957,13.606-2.7-17.7,10.286,4.562,2.635,0,0-4.556-2.63h0l-.024,8.553,4.555,2.63,4.5-2.613,2.292-1.332-.022,7.852,12.443,7.184h0l2.167-1.259.656-.381-.009,3.264h0l4.572,2.639h0l3.228-1.876,1.763-1.024-.017,5.772h0l4.639,2.679a4.194,4.194,0,0,1,.416-.484c.054-.055.1-.115.158-.169.09-.085.2-.166.3-.248.075-.062.151-.123.231-.184.064-.052.124-.1.195-.155.122-.087.261-.175.394-.263.162-.106.319-.212.5-.321.1-.063.22-.131.327-.2.169-.1.325-.2.507-.3l4.443-2.582.342-.2q.622-.378,1.138-.752h0c.046-.033.079-.067.123-.1a9.506,9.506,0,0,0,.751-.607c.064-.06.108-.119.167-.179s.139-.146.206-.219.173-.172.241-.258a3.753,3.753,0,0,0,.314-.464c.02-.035.032-.071.05-.107s.023-.047.034-.071c.034-.071.073-.141.1-.211a2.2,2.2,0,0,0,.1-.35,2.068,2.068,0,0,0,.04-.341v-.051l0-1.317c.078.013.157.03.235.041q.33.047.659.074c.212.017.423.029.634.034.051,0,.1,0,.153,0h.082c.138,0,.276,0,.414,0q.36-.012.721-.048c.3-.03.595-.072.892-.125.026-.005.052-.015.078-.02h0c.087-.016.174-.047.261-.066h0a12.172,12.172,0,0,0,1.224-.308c.171-.055.343-.136.514-.2h0c.167-.061.334-.125.5-.194a15.935,15.935,0,0,0,1.96-.953l.005,0,2.263-1.315.258-.152c.421-.254.79-.507,1.127-.758.083-.062.15-.123.227-.185.172-.136.355-.272.5-.407.106-.1.182-.2.275-.293h0c.065-.069.134-.138.193-.206h0c.041-.047.1-.1.135-.143a4.008,4.008,0,0,0,.328-.484c.037-.066.061-.131.093-.2.013-.028.027-.056.039-.084s.013-.028.02-.042.028-.055.039-.083a2.475,2.475,0,0,0,.107-.371,2.273,2.273,0,0,0,.042-.365v-.055l.012-4.277.012-4.276h0a2.142,2.142,0,0,1-.149.653,2.162,2.162,0,0,0,.079-.966,2.292,2.292,0,0,0-.069-.309,2.774,2.774,0,0,0-.255-.608,3.984,3.984,0,0,0-.345-.514c-.085-.105-.168-.211-.268-.317a7.721,7.721,0,0,0-.865-.781c-.088-.068-.186-.137-.28-.206a15.058,15.058,0,0,0-1.361-.89L667.1-175.9l-2.823,1.641.01-3.265-12.444-7.184-2,1.162.007-2.3,0,0h0v0h0L635.743-194l-.747.434,0-.867-4.556-2.63-5.992,1.246v-.5l.012-4.2-2.63-1.518-1.925-1.112-6.311,3.667.016-5.6c0,.019-.011.037-.012.056a3.122,3.122,0,0,0-.777-2.046c-.021-.025-.056-.05-.077-.076a6.532,6.532,0,0,0-.939-.921,11.382,11.382,0,0,0-1.449-.977,14.177,14.177,0,0,0-1.645-.813c-.254-.107-.515-.179-.772-.269-.3-.1-.594-.22-.9-.3-.356-.1-.716-.158-1.075-.226-.2-.037-.4-.087-.6-.114-.431-.06-.864-.083-1.3-.1-.127,0-.254-.018-.381-.019a13.279,13.279,0,0,0-1.463.076c-.071.007-.141.01-.212.018a14.039,14.039,0,0,0-1.582.284c-.027.007-.054.012-.082.018a14.927,14.927,0,0,0-1.648.508l-.008,0a15.763,15.763,0,0,0-1.654.726l.014-5.086h0c0,.02-.012.04-.013.06v0a2.978,2.978,0,0,0-.779-1.988c-.028-.033-.075-.067-.1-.1a6.659,6.659,0,0,0-.922-.885,12.118,12.118,0,0,0-1.472-.984l-7.218-4.167L557.7-205.642l-.024,8.553,7.218,4.167A15.249,15.249,0,0,0,566.784-192Zm110.469,25.014h0a1.959,1.959,0,0,1-.176.26C677.129-166.815,677.212-166.9,677.253-166.989Zm-15.715,10.065-.021.017-.009.008c-.044.033-.076.066-.121.1s-.1.063-.148.1C661.342-156.778,661.441-156.851,661.538-156.924Zm-11.046-10.641.007-2.544,1.753-1.018,3.331,1.923-.565.328-4.53,2.632Zm-10.387,3.5,2.589,1.494.742.429-3.88,2.255.009-3.265-.517-.3Zm-26.632-40.348a2.552,2.552,0,0,1-.08.378c-.009.022-.02.044-.03.065A2.836,2.836,0,0,0,613.473-204.416Zm-.513,1.089c-.079.115-.123.23-.216.345-.009.011-.022.022-.031.033A4.511,4.511,0,0,0,612.96-203.327Zm-1.187,1.285c.064-.053.111-.107.171-.16-.076.068-.133.137-.216.205l-.027.023C611.728-202,611.749-202.019,611.773-202.042Zm-14.861-11.643a2.627,2.627,0,0,1-.077.353c-.01.023-.023.047-.033.07l0,.007A2.6,2.6,0,0,0,596.912-213.685Zm-.522,1.06c-.073.1-.115.205-.2.307-.011.013-.025.026-.036.039C596.252-212.4,596.308-212.51,596.39-212.625Zm-1.027,1.1c-.072.063-.125.125-.2.188l-.034.027C595.216-211.38,595.28-211.452,595.363-211.524ZM579.02-193.237c.013.012.023.024.036.036l-.037-.036Z"/><path class="h" d="M566.784-192c.046.019.092.049.139.067q.62.245,1.242.422c.041.012.083.019.124.03.059.016.117.028.176.044.209.054.419.111.629.155q.389.08.777.135c.056.008.112.012.168.019l.131.015c.14.016.28.035.42.047.235.019.469.032.7.038.16,0,.32,0,.479,0h.121c.043,0,.086,0,.13,0,.271-.009.543-.028.815-.055.2-.02.409-.056.613-.086.077-.012.154-.02.231-.033.053-.009.108-.013.162-.022.232-.042.464-.121.7-.176.32-.076.639-.143.959-.243.046-.014.092-.02.138-.035.326-.1.651-.248.976-.378.185-.075.371-.134.557-.217.141-.063.282-.141.423-.209l-.015,5.2c0,1.355,1.066,2.7,3.24,3.952a14.485,14.485,0,0,0,1.829.885c.033.014.066.035.1.049q.624.246,1.259.427c.063.018.126.03.189.047s.151.036.226.055c.184.047.366.1.551.136q.408.084.819.143c.069.009.138.014.207.023l.152.017c.135.015.269.034.405.045.25.021.5.034.752.041.159,0,.317,0,.476,0h.141c.056,0,.111,0,.167,0q.437-.015.873-.059c.179-.018.359-.05.538-.076.1-.013.192-.024.287-.04.079-.012.157-.019.235-.033.217-.039.432-.114.649-.163.123-.029.247-.051.37-.082l-.012,4.1,4.556,2.63,5.864-3.408-.019,6.783,4.689,2.707,9.643-12.957,13.606-2.7-17.7,10.286,4.562,2.635,0,0-4.556-2.63-.024,8.553,4.555,2.63,6.789-3.945-.022,7.852,12.443,7.184,2.823-1.64-.009,3.265,4.572,2.639,4.991-2.9-.017,5.772,4.639,2.679a4.194,4.194,0,0,1,.416-.484c.054-.055.1-.115.158-.169.09-.085.2-.166.3-.249.137-.113.27-.227.425-.338.122-.087.261-.175.394-.263.162-.106.319-.212.5-.321.263-.161.535-.323.835-.5l4.442-2.582c.116-.067.23-.135.342-.2.416-.252.794-.5,1.139-.753.046-.033.079-.066.123-.1a9.287,9.287,0,0,0,.751-.607c.064-.06.108-.12.168-.179s.138-.146.2-.219.174-.171.242-.258a3.753,3.753,0,0,0,.314-.464c.02-.035.032-.071.05-.106s.022-.048.034-.072c.034-.07.073-.141.1-.211a2.167,2.167,0,0,0,.1-.35,1.967,1.967,0,0,0,.039-.341v-.051l0-1.317c.078.013.157.03.235.041q.33.047.659.074c.212.017.423.029.634.034.051,0,.1,0,.153,0h.082c.138,0,.276,0,.414,0q.36-.012.721-.048.445-.045.893-.125c.025-.005.051-.015.077-.02.088-.016.176-.047.263-.066a12.262,12.262,0,0,0,1.225-.308c.171-.055.342-.136.513-.2s.335-.126.5-.2a16.022,16.022,0,0,0,1.965-.956l2.263-1.315.258-.152c.421-.254.79-.507,1.127-.758.083-.062.15-.123.227-.185.171-.136.355-.271.5-.407.106-.1.182-.2.275-.293.066-.069.135-.139.194-.208.041-.047.1-.1.135-.143a4.008,4.008,0,0,0,.328-.484c.037-.066.061-.132.093-.2.013-.027.027-.055.039-.083s.043-.083.059-.125a2.475,2.475,0,0,0,.107-.371,2.273,2.273,0,0,0,.042-.365v-.055h0l.025-8.553a2.318,2.318,0,0,1-.161.707c.506-1.506-.543-3.023-3.352-4.644L667.1-175.9l-2.823,1.641.01-3.265-12.444-7.184-2,1.162.007-2.3,0,0,0,0v0l0,0L635.743-194l-.747.434,0-.867-4.556-2.63-5.992,1.246.013-4.7-4.555-2.63-6.311,3.667.016-5.6c0,.019-.011.038-.012.056.034-1.377-1.028-2.742-3.242-4.02a13.594,13.594,0,0,0-13.317-.21l.014-5.086c0,.021-.012.041-.013.061.038-1.334-1.028-2.661-3.279-3.961l-7.218-4.167L557.7-205.642l-.024,8.553,7.218,4.167A15.178,15.178,0,0,0,566.784-192Zm12.236-1.234.04.04-.041-.04Zm4.882-2.439,0,.026Zm.106-.35.015-.032ZM611.728-202l-.027.023c.1-.077.161-.156.249-.233C611.87-202.137,611.813-202.066,611.728-202Zm-16.567-9.339-.035.028c.091-.073.157-.147.242-.221C595.294-211.465,595.24-211.4,595.161-211.336ZM579.4-192.863a11.553,11.553,0,0,0,1.439.971A11.553,11.553,0,0,1,579.4-192.863ZM661.387-156.8c-.044.032-.1.065-.15.1.1-.074.2-.147.3-.221-.012.009-.019.018-.031.027C661.464-156.865,661.431-156.833,661.387-156.8ZM640.1-164.068l3.331,1.923-3.88,2.255.009-3.265-.517-.3Zm17.145,2.508a1.656,1.656,0,0,1,.113.169A1.656,1.656,0,0,0,657.25-161.56Zm.263.43a1.065,1.065,0,0,1,.04.183A1.065,1.065,0,0,0,657.513-161.13Zm-.564-.714c-.054-.047-.095-.094-.157-.141C656.854-161.938,656.9-161.891,656.949-161.844Zm-6.461-4.4.011-3.865,1.753-1.018,3.331,1.923Zm26.765-.744a3.878,3.878,0,0,1-.36.534,3.719,3.719,0,0,0,.36-.535Zm-.748,1.03c-.019.02-.048.04-.067.06.019-.02.048-.04.067-.06Zm-5.707-2.423a.982.982,0,0,0-.236-.564A.982.982,0,0,1,670.8-168.381Zm-.311-.64a3.115,3.115,0,0,0-.743-.574A3.115,3.115,0,0,1,670.487-169.021Zm-57.094-35.017c-.009.022-.021.044-.031.066a2.811,2.811,0,0,0,.112-.447A2.727,2.727,0,0,1,613.393-204.038Zm-.43.707c-.079.116-.124.232-.219.348-.009.012-.023.023-.032.034A4.392,4.392,0,0,0,612.963-203.331ZM607.3-205.38a1.045,1.045,0,0,0-.261-.63A1.045,1.045,0,0,1,607.3-205.38Zm-.3-.666a3.089,3.089,0,0,0-.773-.6A3.089,3.089,0,0,1,607.007-206.046Zm-10.172-7.286c-.011.026-.025.051-.037.077a2.565,2.565,0,0,0,.115-.433A2.56,2.56,0,0,1,596.835-213.332Zm-.444.706c-.073.1-.115.206-.2.308-.011.013-.026.026-.037.039C596.252-212.4,596.308-212.51,596.391-212.626Zm-5.762-2.027a1,1,0,0,0-.258-.606A1,1,0,0,1,590.629-214.653Zm-.3-.644a3.106,3.106,0,0,0-.76-.585A3.106,3.106,0,0,1,590.332-215.3Z"/><g class="b"><path class="i" d="M589.572-215.882l-.024,8.553-2.579-1.489.024-8.553Z"/><g class="b"><g class="j"><g class="b"><path class="k" d="M590.647-214.61l-.024,8.553c0-.459-.39-.876-1.075-1.272l.024-8.553c.685.4,1.076.813,1.075,1.272"/></g></g></g><g class="b"><g class="l"><g class="b"><path class="m" d="M597.057-214.341l-.024,8.553v.062l.024-8.554v-.061"/><path class="n" d="M597.056-214.28l-.024,8.554a2.5,2.5,0,0,1-.047.412l.024-8.553a2.41,2.41,0,0,0,.047-.413"/><path class="o" d="M597.009-213.867l-.024,8.553a2.8,2.8,0,0,1-.122.423l.024-8.553a2.691,2.691,0,0,0,.122-.423"/><path class="p" d="M596.887-213.444l-.024,8.553a3.342,3.342,0,0,1-.216.46l.024-8.553a3.232,3.232,0,0,0,.216-.46"/><path class="q" d="M596.671-212.984l-.024,8.553a4.32,4.32,0,0,1-.372.549l.025-8.553a4.317,4.317,0,0,0,.371-.549"/><path class="r" d="M596.3-212.435l-.025,8.553a6.24,6.24,0,0,1-.673.719l.025-8.553a6.421,6.421,0,0,0,.673-.719"/><path class="s" d="M595.627-211.716l-.025,8.553a11.883,11.883,0,0,1-1.93,1.409l.024-8.553a11.893,11.893,0,0,0,1.931-1.409"/><path class="t" d="M593.7-210.307l-.024,8.553c-.083.05-.167.1-.253.149l.025-8.553.252-.149"/></g></g></g><path class="u" d="M586.993-217.371l-.024,8.553-20.6,11.971.024-8.553Z"/><path class="u" d="M593.444-210.158l-.024,8.553-14.576,8.471.024-8.553Z"/><path class="i" d="M564.913-201.475l-.024,8.553-7.218-4.167.024-8.553Z"/><path class="v" d="M593.765-218.242c4.573,2.64,4.3,5.4-.321,8.084l-14.576,8.471c-4.626,2.688-9.382,2.852-13.955.212l-7.218-4.167,28.852-16.767ZM574.079-204.2l15.009-8.721c2.063-1.2,1.924-2.128.484-2.959l-2.579-1.489-20.6,11.97,2.579,1.49c1.44.831,3.043.908,5.106-.291"/><g class="b"><g class="w"><g class="b"><path class="t" d="M578.868-201.687l-.024,8.553a16.532,16.532,0,0,1-3.206,1.449l.025-8.553a16.553,16.553,0,0,0,3.2-1.449"/><path class="s" d="M575.663-200.238l-.025,8.553a13.81,13.81,0,0,1-1.793.454l.024-8.554a13.7,13.7,0,0,0,1.794-.453"/><path class="r" d="M573.869-199.785l-.024,8.554c-.336.06-.671.108-1.006.141l.024-8.553c.335-.034.671-.081,1.006-.142"/><path class="q" d="M572.863-199.643l-.024,8.553c-.272.027-.544.046-.815.055l.024-8.553c.271-.009.543-.028.815-.055"/><path class="p" d="M572.048-199.588l-.024,8.553q-.366.014-.73,0l.024-8.553c.243.006.486,0,.73,0"/><path class="o" d="M571.318-199.584l-.024,8.553c-.235-.006-.469-.019-.7-.038l.025-8.553q.351.028.7.038"/><path class="n" d="M570.615-199.622l-.025,8.553q-.359-.03-.719-.081l.025-8.553q.359.051.719.081"/><path class="m" d="M569.9-199.7l-.025,8.553c-.259-.036-.518-.082-.777-.135l.024-8.553q.389.079.778.135"/><path class="x" d="M569.118-199.838l-.024,8.553c-.31-.064-.62-.141-.929-.229l.024-8.553q.463.132.929.229"/><path class="y" d="M568.189-200.067l-.024,8.553q-.622-.178-1.242-.422l.024-8.553q.619.244,1.242.422"/><path class="k" d="M566.947-200.489l-.024,8.553a15.113,15.113,0,0,1-2.034-.986l.024-8.553a15.168,15.168,0,0,0,2.034.986"/></g></g></g></g><g class="b"><g class="b"><g class="z"><g class="b"><path class="k" d="M607.323-205.337l-.024,8.553c0-.475-.394-.909-1.089-1.311a4.964,4.964,0,0,0-.653-.316l.024-8.553a4.9,4.9,0,0,1,.653.316c.7.4,1.091.836,1.089,1.311"/><path class="y" d="M605.581-206.964l-.024,8.553a4.124,4.124,0,0,0-.406-.138l.024-8.553a4.128,4.128,0,0,1,.406.138"/><path class="x" d="M605.175-207.1l-.024,8.553c-.1-.029-.206-.055-.311-.076l.025-8.554c.1.022.208.048.31.077"/><path class="m" d="M604.865-207.179l-.025,8.554c-.086-.018-.174-.034-.263-.046l.025-8.553c.088.012.176.027.263.045"/><path class="n" d="M604.6-207.224l-.025,8.553c-.081-.012-.163-.021-.247-.028l.025-8.553c.083.007.165.016.247.028"/><path class="o" d="M604.355-207.252l-.025,8.553c-.081-.007-.163-.011-.245-.013l.024-8.553c.083,0,.165.006.246.013"/><path class="p" d="M604.109-207.265l-.024,8.553c-.086,0-.173,0-.26,0l.024-8.553c.088,0,.174,0,.26,0"/><path class="q" d="M603.849-207.264l-.024,8.553c-.1,0-.2.01-.3.02l.024-8.553c.1-.01.2-.017.3-.02"/><path class="r" d="M603.551-207.244l-.024,8.553c-.127.013-.255.031-.385.055l.024-8.554c.13-.023.258-.041.385-.054"/><path class="s" d="M603.166-207.19l-.024,8.554a5.56,5.56,0,0,0-.7.176l.024-8.553a5.745,5.745,0,0,1,.7-.177"/><path class="t" d="M602.466-207.013l-.024,8.553A7.428,7.428,0,0,0,601-197.8l.024-8.553a7.4,7.4,0,0,1,1.439-.655"/></g></g></g><g class="b"><g class="aa"><g class="b"><path class="m" d="M613.614-205.082l-.024,8.553v.067l.024-8.553v-.067"/><path class="n" d="M613.613-205.015l-.024,8.553a2.571,2.571,0,0,1-.051.443l.024-8.553a2.582,2.582,0,0,0,.051-.443"/><path class="o" d="M613.562-204.572l-.024,8.553a2.879,2.879,0,0,1-.13.452l.024-8.554a2.837,2.837,0,0,0,.13-.451"/><path class="p" d="M613.432-204.121l-.024,8.554a3.567,3.567,0,0,1-.231.491l.024-8.553a3.357,3.357,0,0,0,.231-.492"/><path class="q" d="M613.2-203.629l-.024,8.553a4.494,4.494,0,0,1-.387.571l.024-8.553a4.494,4.494,0,0,0,.387-.571"/><path class="r" d="M612.814-203.058l-.024,8.553a6.432,6.432,0,0,1-.692.74l.024-8.553a6.433,6.433,0,0,0,.692-.74"/><path class="s" d="M612.122-202.318l-.024,8.553a11.426,11.426,0,0,1-1.854,1.355l.025-8.553a11.412,11.412,0,0,0,1.853-1.355"/><path class="t" d="M610.269-200.963l-.025,8.553c-.075.046-.151.091-.229.136l.024-8.553c.078-.045.154-.09.23-.136"/></g></g></g><path class="u" d="M601.027-206.358,601-197.8l-15.574,9.051.024-8.553Z"/><g class="b"><g class="ab"><g class="b"><path class="t" d="M585.453-197.307l-.024,8.553c-.042.024-.083.048-.123.073l.024-8.554.123-.072"/><path class="s" d="M585.33-197.235l-.024,8.554a5.346,5.346,0,0,0-.87.632l.025-8.553a5.349,5.349,0,0,1,.869-.633"/><path class="r" d="M584.461-196.6l-.025,8.553a2.561,2.561,0,0,0-.276.3l.024-8.553a2.482,2.482,0,0,1,.277-.3"/><path class="q" d="M584.184-196.306l-.024,8.553a1.534,1.534,0,0,0-.144.212l.024-8.553a1.529,1.529,0,0,1,.144-.212"/><path class="p" d="M584.04-196.094l-.024,8.553a1.258,1.258,0,0,0-.083.175l.024-8.553a1.257,1.257,0,0,1,.083-.175"/><path class="o" d="M583.957-195.919l-.024,8.553a.969.969,0,0,0-.045.158l.024-8.553a.97.97,0,0,1,.045-.158"/><path class="n" d="M583.912-195.761l-.024,8.553a.855.855,0,0,0-.018.15l.024-8.553a.96.96,0,0,1,.018-.15"/><path class="m" d="M583.894-195.611l-.024,8.553v.022l.024-8.553v-.022"/></g></g></g><path class="u" d="M610.039-200.827l-.024,8.553-15.008,8.722.024-8.553Z"/><g class="b"><g class="ac"><g class="b"><path class="t" d="M595.031-192.1l-.024,8.553a16.02,16.02,0,0,1-3.105,1.4l.025-8.553a16.04,16.04,0,0,0,3.1-1.4"/><path class="s" d="M591.927-190.708l-.025,8.553a14.4,14.4,0,0,1-1.877.472l.024-8.553a14.418,14.418,0,0,0,1.878-.472"/><path class="r" d="M590.049-190.236l-.024,8.553q-.53.1-1.06.149l.024-8.553q.531-.054,1.06-.149"/><path class="q" d="M588.989-190.087l-.024,8.553q-.437.043-.873.059l.024-8.553q.436-.015.873-.059"/><path class="p" d="M588.116-190.028l-.024,8.553c-.261.009-.523.01-.784,0l.025-8.554q.391.01.783,0"/><path class="o" d="M587.333-190.025l-.025,8.554c-.251-.007-.5-.02-.752-.041l.024-8.553q.375.031.753.04"/><path class="n" d="M586.58-190.065l-.024,8.553q-.383-.032-.764-.085l.024-8.553q.381.054.764.085"/><path class="m" d="M585.816-190.15l-.024,8.553q-.411-.059-.819-.143l.024-8.553q.408.084.819.143"/><path class="x" d="M585-190.293l-.024,8.553q-.486-.1-.966-.238l.024-8.553q.481.138.966.238"/><path class="y" d="M584.031-190.531l-.024,8.553q-.635-.182-1.259-.428l.024-8.553q.626.247,1.259.428"/><path class="k" d="M582.772-190.959l-.024,8.553a14.406,14.406,0,0,1-1.929-.933c-2.174-1.255-3.244-2.6-3.24-3.952l.024-8.553c0,1.355,1.066,2.7,3.24,3.952a14.407,14.407,0,0,0,1.929.933"/></g></g></g><path class="v" d="M610.36-209.046c4.489,2.591,4.288,5.541-.321,8.219L595.031-192.1a13.73,13.73,0,0,1-14.188.213c-4.472-2.582-4.272-5.531.338-8.21l15.008-8.722A13.72,13.72,0,0,1,610.36-209.046Zm-20.167,14.475,15.574-9.051c2.063-1.2,1.924-2.185.467-3.026-1.44-.832-3.144-.909-5.207.29l-15.574,9.051c-2.063,1.2-1.924,2.185-.484,3.017a4.887,4.887,0,0,0,5.224-.281"/></g><g class="b"><path class="u" d="M624.464-200.518l-.024,8.553-12.579,7.31.024-8.553Z"/><path class="ad" d="M635-194.436l-.024,8.553-19.209,3.81.024-8.553Z"/><path class="ae" d="M608.517-189.62l-.024,8.553-4.036.716.024-8.553Z"/><path class="u" d="M604.481-188.9l-.024,8.553-8.869,5.154.024-8.553Z"/><path class="i" d="M595.612-183.751l-.024,8.553-4.555-2.63.024-8.553Z"/><path class="i" d="M606.147-177.669l-.024,8.553-4.689-2.707.024-8.553Z"/><path class="v" d="M635-194.436l-19.209,3.81-9.643,12.957-4.689-2.707,7.059-9.244-4.036.716-8.869,5.154-4.555-2.63,28.852-16.767,4.555,2.63-12.579,7.31,18.558-3.858Z"/><path class="af" d="M615.789-190.626l-.024,8.553-9.643,12.957.024-8.553Z"/></g><g class="b"><path class="i" d="M636.4-188.847l-.024,8.553-4.773-2.756.024-8.553Z"/><path class="u" d="M649.854-185.859l-.024,8.553-4.127,2.4.024-8.553Z"/><path class="i" d="M645.727-183.461l-.024,8.553-4.773-2.756.024-8.553Z"/><path class="v" d="M649.858-185.853l-4.125,2.4-4.772-2.755-24.719,14.365-4.571-2.639L636.39-188.85l-4.772-2.755,4.125-2.4Z"/><path class="u" d="M640.954-186.217l-.024,8.553L616.2-163.295l.024-8.553Z"/><path class="i" d="M616.229-171.848l-.024,8.553-4.555-2.63.024-8.553Z"/></g><g class="b"><path class="u" d="M664.291-177.524l-.024,8.553-4.127,2.4.024-8.553Z"/><path class="i" d="M660.164-175.126l-.024,8.553-7.888-4.554.024-8.553Z"/><path class="u" d="M652.276-179.68l-.024,8.553-8.037,4.67.024-8.553Z"/><path class="u" d="M650.5-171.393l-.024,8.553-4.11,2.388.024-8.553Z"/><path class="i" d="M646.393-169.005l-.024,8.553-6.264-3.616.024-8.553Z"/><path class="u" d="M640.13-172.621l-.024,8.553-8.453,4.912.024-8.553Z"/><path class="i" d="M635.439-160.757l-.024,8.553-12.444-7.184.024-8.553Z"/><path class="u" d="M639.565-163.155l-.024,8.553-4.126,2.4.024-8.553Z"/><path class="v" d="M664.291-177.524l-4.127,2.4-7.888-4.554-8.037,4.67,6.264,3.616-4.11,2.388-6.264-3.616-8.453,4.912,7.888,4.554-4.126,2.4-12.444-7.184,28.852-16.767Z"/></g><g class="b"><path class="i" d="M669.744-169.6l-.024,8.553-2.194-1.267.024-8.553Z"/><g class="b"><g class="ag"><g class="b"><path class="k" d="M670.82-168.327l-.024,8.553c0-.439-.36-.854-1.076-1.268l.024-8.553c.716.413,1.078.829,1.076,1.268"/></g></g></g><path class="u" d="M667.55-170.862l-.024,8.553-8.852,5.144.024-8.553Z"/><g class="b"><g class="ah"><g class="b"><path class="m" d="M677.5-167.988l-.024,8.553v.055l.024-8.553v-.055"/><path class="n" d="M677.5-167.933l-.024,8.553a2.273,2.273,0,0,1-.042.365l.024-8.553a2.273,2.273,0,0,0,.042-.365"/><path class="o" d="M677.458-167.568l-.024,8.553a2.475,2.475,0,0,1-.107.371l.024-8.553a2.474,2.474,0,0,0,.107-.371"/><path class="p" d="M677.351-167.2l-.024,8.553a2.974,2.974,0,0,1-.191.406l.024-8.553a2.966,2.966,0,0,0,.191-.406"/><path class="q" d="M677.16-166.791l-.024,8.553a3.931,3.931,0,0,1-.328.484l.024-8.553a3.9,3.9,0,0,0,.328-.484"/><path class="r" d="M676.832-166.307l-.024,8.553a5.736,5.736,0,0,1-.6.644l.024-8.553a5.742,5.742,0,0,0,.6-.644"/><path class="s" d="M676.228-165.663l-.024,8.553a11.462,11.462,0,0,1-1.855,1.35l.024-8.554a11.406,11.406,0,0,0,1.855-1.349"/><path class="t" d="M674.373-164.314l-.024,8.554-.258.152.024-8.553q.132-.077.258-.153"/></g></g></g><path class="u" d="M674.115-164.161l-.024,8.553-2.263,1.315.024-8.553Z"/><path class="i" d="M656.146-162.411l-.024,8.553-1.574-.909.024-8.553Z"/><g class="b"><g class="ai"><g class="b"><path class="k" d="M657.592-160.768l-.024,8.553c0-.565-.5-1.094-1.446-1.642l.024-8.554c.949.548,1.448,1.078,1.446,1.643"/></g></g></g><g class="b"><g class="aj"><g class="b"><path class="t" d="M671.852-162.846l-.024,8.553a15.247,15.247,0,0,1-2.98,1.35l.024-8.553a15.218,15.218,0,0,0,2.98-1.35"/><path class="s" d="M668.872-161.5l-.024,8.553a12.291,12.291,0,0,1-1.566.394l.025-8.553a12.32,12.32,0,0,0,1.565-.394"/><path class="r" d="M667.307-161.1l-.025,8.553c-.3.053-.595.1-.892.125l.024-8.553c.3-.03.595-.072.893-.125"/><path class="q" d="M666.414-160.977l-.024,8.553q-.362.036-.721.048l.024-8.553c.24-.008.481-.024.721-.048"/><path class="p" d="M665.693-160.929l-.024,8.553q-.324.011-.649,0l.025-8.553q.324.007.648,0"/><path class="o" d="M665.045-160.926l-.025,8.553c-.211-.005-.422-.017-.634-.034l.025-8.553c.211.017.423.029.634.034"/><path class="n" d="M664.411-160.96l-.025,8.553q-.328-.027-.659-.074l.025-8.553c.22.031.439.056.659.074"/><path class="m" d="M663.752-161.034l-.025,8.553q-.361-.051-.724-.126l.024-8.554c.242.051.483.093.725.127"/><path class="x" d="M663.027-161.161,663-152.607l-.013,0,.024-8.553.013,0"/></g></g></g><path class="i" d="M642.824-156.493l-.024,8.553-4.572-2.64.024-8.553Z"/><path class="u" d="M654.571-163.32l-.024,8.553L642.8-147.94l.024-8.553Z"/><g class="b"><g class="ak"><g class="b"><path class="m" d="M663.513-159.758l-.025,8.553v.051l.025-8.553v-.051"/><path class="n" d="M663.512-159.707l-.025,8.553a1.967,1.967,0,0,1-.039.341l.025-8.553a2.192,2.192,0,0,0,.039-.341"/><path class="o" d="M663.473-159.366l-.025,8.553a2.167,2.167,0,0,1-.1.35l.025-8.553a2.436,2.436,0,0,0,.1-.35"/><path class="p" d="M663.372-159.016l-.025,8.553a2.786,2.786,0,0,1-.183.389l.024-8.553a2.8,2.8,0,0,0,.184-.389"/><path class="q" d="M663.188-158.627l-.024,8.553a3.753,3.753,0,0,1-.314.464l.024-8.553a3.759,3.759,0,0,0,.314-.464"/><path class="r" d="M662.874-158.163l-.024,8.553a5.768,5.768,0,0,1-.614.656l.024-8.553a5.682,5.682,0,0,0,.614-.656"/><path class="s" d="M662.26-157.507l-.024,8.553a12.573,12.573,0,0,1-2.013,1.46l.024-8.553a12.7,12.7,0,0,0,2.013-1.46"/><path class="t" d="M660.247-156.047l-.024,8.553c-.112.067-.226.135-.342.2l.024-8.553c.117-.068.23-.135.342-.2"/></g></g></g><path class="u" d="M659.905-155.845l-.024,8.553-4.443,2.582.024-8.553Z"/><path class="v" d="M655.463-153.263a9.048,9.048,0,0,0-3.025,2.32l-4.64-2.678c.5-.58.78-.938,3.126-2.3l4.526-2.63c2.7-1.567,2.756-2.669.7-3.859l-1.575-.909-11.747,6.827-4.572-2.64L667.1-175.9l6.884,3.975c4.739,2.736,4.586,5.173.127,7.764l-2.263,1.315a12.143,12.143,0,0,1-8.838,1.683c1.329,1.866-.1,3.568-3.109,5.318Zm10.8-11.613,2.845-1.654c2.063-1.2,2.242-2.137.634-3.065l-2.194-1.267-8.852,5.144,1.775,1.025a5.246,5.246,0,0,0,5.792-.183"/><path class="i" d="M652.438-150.943l-.024,8.553-4.639-2.678.024-8.553Z"/><g class="b"><g class="al"><g class="b"><path class="t" d="M655.463-153.263l-.025,8.553c-.267.155-.519.3-.757.447l.024-8.553c.238-.144.49-.292.758-.447"/><path class="s" d="M654.705-152.816l-.024,8.553a10.259,10.259,0,0,0-1.658,1.183l.024-8.553a10.3,10.3,0,0,1,1.658-1.183"/><path class="r" d="M653.047-151.633l-.024,8.553a4.347,4.347,0,0,0-.479.515l.024-8.553a4.357,4.357,0,0,1,.479-.515"/><path class="q" d="M652.568-151.118l-.024,8.553c-.046.057-.089.116-.131.176l.025-8.554c.041-.059.085-.118.13-.175"/></g></g></g></g></g></g></svg>