<svg xmlns="http://www.w3.org/2000/svg" xmlns:xlink="http://www.w3.org/1999/xlink" width="191" height="245.617" viewBox="0 0 191 245.617"><defs><style>.a,.e{fill:none;}.b{isolation:isolate;}.c{fill:#d10000;}.d,.r{fill:#991d1b;}.d{stroke:#fff;stroke-width:9.089px;}.d,.e{stroke-linejoin:round;}.e{stroke:#831412;stroke-width:4.545px;}.f{fill:#ac2322;}.g{fill:#831412;}.h{fill:#fff;}.i{fill:#ac2323;}.j{fill:#a22;}.k{clip-path:url(#a);}.l{fill:#811310;}.m{clip-path:url(#b);}.n{fill:#8b1815;}.o{fill:#8e1917;}.p{fill:#921a19;}.q{fill:#951c1a;}.s{fill:#9c1e1d;}.t{fill:#a01f1e;}.u{fill:#a3201f;}.v{clip-path:url(#c);}.w{clip-path:url(#d);}.x{clip-path:url(#e);}.y{clip-path:url(#f);}.z{clip-path:url(#g);}.aa{fill:#841512;}.ab{fill:#871614;}.ac{clip-path:url(#h);}.ad{clip-path:url(#i);}.ae{clip-path:url(#j);}.af{clip-path:url(#k);}.ag{clip-path:url(#l);}.ah{clip-path:url(#m);}.ai{fill:#a72221;}.aj{clip-path:url(#n);}.ak{clip-path:url(#o);}.al{clip-path:url(#p);}.am{clip-path:url(#q);}.an{fill:#b0b2b2;}.ao{fill:#2d2d2c;}.ap{fill:#6e7072;}</style><clipPath id="a"><path class="a" d="M672.4,52.39l-.027,9.625c0-.457-.364-.887-1.1-1.31l.028-9.625C672.038,51.5,672.4,51.933,672.4,52.39Z"/></clipPath><clipPath id="b"><path class="a" d="M679.684,52.566l-.027,9.625c0,1.436-1.338,2.872-3.913,4.368l.027-9.625C678.346,55.438,679.68,54,679.684,52.566Z"/></clipPath><clipPath id="c"><path class="a" d="M657.527,60.9l-.027,9.625c0-.6-.51-1.153-1.487-1.717l.027-9.625C657.017,59.751,657.529,60.306,657.527,60.9Z"/></clipPath><clipPath id="d"><path class="a" d="M673.225,58.414l-.028,9.625a13.653,13.653,0,0,1-9.757,2l.027-9.625A13.656,13.656,0,0,0,673.225,58.414Z"/></clipPath><clipPath id="e"><path class="a" d="M663.945,61.843l-.028,9.626c0,1.5-1.583,2.948-4.164,4.448l.028-9.625C662.361,64.792,663.94,63.343,663.945,61.843Z"/></clipPath><clipPath id="f"><path class="a" d="M654.763,69.208l-.028,9.625a10.582,10.582,0,0,0-3.4,2.59l.027-9.625A10.588,10.588,0,0,1,654.763,69.208Z"/></clipPath><clipPath id="g"><path class="a" d="M690.262,62.3l-.027,9.625c0-.5-.4-.944-1.112-1.355-1.545-.892-3.387-.935-5.709.414l.028-9.625c2.321-1.349,4.163-1.306,5.708-.414C689.862,61.36,690.263,61.808,690.262,62.3Z"/></clipPath><clipPath id="h"><path class="a" d="M696.925,62.221l-.027,9.625c-.005,1.6-1.435,3.254-4.209,4.865l.028-9.625C695.49,65.475,696.92,63.826,696.925,62.221Z"/></clipPath><clipPath id="i"><path class="a" d="M664.1,83.1l.028-9.625c0-.568.541-1.2,1.769-1.912l-.027,9.625C664.642,81.9,664.1,82.528,664.1,83.1Z"/></clipPath><clipPath id="j"><path class="a" d="M657.138,83.07l.027-9.625c0,1.4,1.072,2.758,3.28,4.033,4.749,2.742,10.177,2.448,15.382-.577l-.027,9.625c-5.205,3.025-10.633,3.319-15.382.577C658.21,85.828,657.134,84.467,657.138,83.07Z"/></clipPath><clipPath id="k"><path class="a" d="M588.446,56.768l-.028,9.625c0-.4-.344-.754-.955-1.106l.028-9.626C588.1,56.014,588.447,56.372,588.446,56.768Z"/></clipPath><clipPath id="l"><path class="a" d="M594.323,56.835l-.028,9.625c0,1.336-1.211,2.7-3.552,4.06l.027-9.625C593.111,59.535,594.319,58.171,594.323,56.835Z"/></clipPath><clipPath id="m"><path class="a" d="M587.175,62.985l-.028,9.625c-4.437,2.578-8.869,2.8-13,.413l.028-9.625C578.3,65.781,582.737,65.563,587.175,62.985Z"/></clipPath><clipPath id="n"><path class="a" d="M633.564,82.5l-.027,9.625c0-.423-.339-.8-.938-1.149-1.319-.762-2.9-.805-4.882.348l.027-9.625c1.985-1.153,3.563-1.11,4.883-.348C633.226,81.7,633.566,82.078,633.564,82.5Z"/></clipPath><clipPath id="o"><path class="a" d="M639.255,82.421l-.028,9.625c0,1.372-1.232,2.782-3.611,4.165l.027-9.625C638.022,85.2,639.251,83.793,639.255,82.421Z"/></clipPath><clipPath id="p"><path class="a" d="M611.274,101.634l.027-9.625c0-.483.458-1.019,1.5-1.626l-.027,9.626C611.731,100.615,611.275,101.151,611.274,101.634Z"/></clipPath><clipPath id="q"><path class="a" d="M605.344,101.611l.027-9.625c0,1.193.915,2.358,2.8,3.446,4.052,2.34,8.672,2.079,13.091-.489l-.028,9.625c-4.418,2.568-9.038,2.829-13.091.49C606.258,103.969,605.341,102.8,605.344,101.611Z"/></clipPath></defs><g transform="translate(-1451 -3527.214)"><g class="b" transform="translate(1451.981 3569.479)"><path class="c" d="M115.465,17.616l-7.093-4.095L5.974,73.448c-8.918,5.183-8.871,13.617.106,18.8l123.892,70.781,7.047-4.1L13.127,88.152c-5.063-2.923-5.1-7.682-.059-10.609l102.4-59.927"/></g><g transform="translate(910.829 3641.978)"><path class="d" d="M696.9,70.874l.025-8.653h0c0,.049-.031.1-.034.149h0a3.127,3.127,0,0,0-.731-2.134c-.037-.048-.1-.094-.138-.142a6.326,6.326,0,0,0-.884-.891,11.228,11.228,0,0,0-1.494-1.018,14.586,14.586,0,0,0-1.729-.846c-.232-.1-.468-.159-.7-.242-.35-.122-.7-.25-1.054-.342-.315-.083-.635-.134-.955-.194-.272-.05-.542-.107-.816-.14-.376-.047-.755-.064-1.135-.079-.215-.008-.428-.021-.643-.019-.429,0-.858.033-1.289.075-.161.016-.322.031-.484.053q-.712.094-1.428.259c-.11.026-.22.053-.329.081-.519.13-1.038.285-1.557.471l-.174.066c-.561.207-1.121.44-1.68.711l.015-5.473c0,.021-.014.042-.014.062a3.024,3.024,0,0,0-.853-2.065c-.02-.023-.054-.046-.075-.069a7.453,7.453,0,0,0-1.05-.973,14.478,14.478,0,0,0-1.611-1.063l-7.313-4.222-7.2,4.186.023-8.332L654.5,36l-7.2,3.084.02-7.229-4.919-2.84-5.521,3.208.018-6.386-4.844-2.8h0L599.586,41.907l-.027,9.625,4.843,2.8,5.522-3.209-.018,6.386,4.919,2.84h0l2.25-1.307v.017l-.008,2.585h0l4.447,2.568h0l6.728-2.927.906.523-.02,6.8,4.9,2.829,2.251-1.776-.009,3.071h0l4.844,2.8,5.294-3.077-.017,6.123,4.938,2.851a4.827,4.827,0,0,1,.482-.545l.015-.017c.049-.049.089-.1.14-.15.082-.076.183-.148.272-.222.175-.148.35-.3.552-.44.119-.085.253-.17.382-.254l.028-.018c.145-.1.291-.192.448-.29.051-.032.1-.064.151-.1l.2-.122c.237-.143.468-.282.729-.435l2.419-1.4-.016,5.628v.014h0a4.042,4.042,0,0,0,1.835,3.062,11.718,11.718,0,0,0,1.445.971,14.514,14.514,0,0,0,1.869.905h0l.007,0c.015.006.03.016.045.022.314.124.633.224.952.324.108.034.215.079.324.11.052.015.1.026.157.039s.133.032.2.049l.245.061h0l.258.063c.036.008.072.02.109.027.28.058.561.108.844.148.163.023.327.038.491.055.045,0,.089.011.134.015s.11.014.166.018q.391.033.785.042.411.01.825,0c.025,0,.05,0,.075,0h0c.033,0,.066-.006.1-.007.25-.012.5-.026.751-.051.356-.035.712-.088,1.069-.15h0L669.82,92.1l4.448,2.568,6.708-2.938.925.533-.019,6.8,4.881,2.818,27.549-21.709.027-9.625h0l-7.1-4.1Zm-35.318-5.752c-.028.021-.048.042-.077.063-.055.04-.131.08-.188.121.114-.081.226-.161.333-.241C661.624,65.084,661.607,65.1,661.582,65.122Zm3.042,7.383c-.011.012-.028.024-.039.035.025-.027.057-.056.084-.083h0C664.653,72.473,664.64,72.489,664.624,72.5Zm13.01-16.831c-.016.012-.03.025-.046.038.049-.039.082-.077.13-.115s.083-.074.127-.112C677.769,55.548,677.714,55.611,677.634,55.674Zm1.129-1.05c-.011.012-.025.025-.036.038l0,.005c.1-.111.155-.221.237-.331C678.888,54.432,678.846,54.527,678.763,54.624Zm.692-1.073a.293.293,0,0,1-.012.049c-.007.018-.017.036-.025.054l-.016.033a2.655,2.655,0,0,0,.126-.448A2.706,2.706,0,0,1,679.455,53.551Zm15.26,12.161-.09.074c.111-.089.194-.177.3-.266C694.848,65.584,694.794,65.648,694.715,65.712Zm1.2-1.148c-.028.033-.065.067-.093.1.081-.094.131-.188.2-.282.028-.041.059-.082.089-.123C696.041,64.36,696,64.462,695.916,64.564Zm.749-1.178c-.015.036-.034.072-.05.108-.008.017-.026.034-.034.051.035-.073.041-.146.071-.22.027-.092.061-.185.089-.277A2.937,2.937,0,0,1,696.665,63.386Z"/><path class="d" d="M572.209,71.9l.466.269L570.269,73.2l-.014,4.813-.013,4.812,1.386.8,2.4,1.386,4-1.749,1.749-.764.747.431-.017,5.825h0l4.165,2.4h0l1.356-1.069.536-.423-.007,2.58,3.713,2.144,5.162-3-.017,5.97h0l4.241,2.448,5.7-3.311-.014,5.076v.033h0c0,1.193.914,2.358,2.8,3.447a12.4,12.4,0,0,0,1.594.771c.015.006.029.015.043.021.237.094.477.167.717.244.123.04.245.09.369.126.1.029.205.049.307.075h0q.105.027.21.051c.1.025.205.055.308.076.2.042.407.076.611.107.036.005.071.014.107.019.018,0,.036,0,.053.006.123.017.247.028.371.041.038,0,.076.01.114.013s.09.012.135.015q.333.028.669.036t.7,0l.064,0h.005c.03,0,.06,0,.089-.006.21-.01.419-.021.63-.042.3-.03.6-.075.9-.126v.147l-.007,2.7,3.788,2.187L625.675,109l.747.432-.017,5.825,4.165,2.4,1.892-1.492-.007,2.58,3.713,2.144,5.162-3-.017,5.97h0l4.241,2.449,27.674-16.083.027-9.625h0l-3.675-2.122-4.254,2.472.014-4.9v-.019h0l-5.183-2.993-6.108,3.55.02-7.064-6.031-3.482-8.8,3.771.021-7.392c0,.044-.028.089-.03.133h0a2.656,2.656,0,0,0-.619-1.817c-.032-.042-.086-.082-.12-.124a5.359,5.359,0,0,0-.748-.755,9.451,9.451,0,0,0-1.274-.867,12.161,12.161,0,0,0-1.978-.9c-.156-.056-.312-.1-.468-.152a11.6,11.6,0,0,0-1.9-.432c-.046-.006-.09-.018-.136-.023a12.351,12.351,0,0,0-4.633.337V77.4l.009-3.295-1.345-.777-2.33-1.345-4.254,2.473.014-4.921h0l-5.183-2.993-6.108,3.55.02-7.064h0l-6.031-3.482-7.84,3.359.017-6.07c0,.036-.023.073-.025.109h0a2.646,2.646,0,0,0-.653-1.811c-.029-.036-.078-.072-.109-.109a5.694,5.694,0,0,0-.788-.776,10.278,10.278,0,0,0-1.307-.882l-6.068-3.5L557.7,65.944l-.027,9.625h0l4.127,2.383Zm66.826,11.415c.018-.061.042-.123.06-.184-.006.022-.007.044-.014.066a.95.95,0,0,1-.049.218l-.022.046c-.006.015-.014.03-.021.046l0,0c-.008.015-.022.03-.03.045A2.472,2.472,0,0,0,639.035,83.317Zm-.479.851c-.05.069-.086.137-.134.205-.014.017-.019.034-.033.05s-.057.059-.083.089C638.407,84.4,638.472,84.283,638.556,84.168Zm-1.021,1.076c-.064.055-.109.109-.177.164l-.082.067C637.373,85.4,637.445,85.321,637.535,85.244Zm-29.813,9.885h0c.157.1.275.2.448.3-.172-.1-.295-.2-.451-.3ZM594.17,57.509a2.373,2.373,0,0,1-.066.293c-.013.03-.028.06-.042.09l0,0c0,.009-.014.019-.019.028A2.509,2.509,0,0,0,594.17,57.509Zm-.524,1.01c-.062.085-.1.17-.169.256-.011.012-.024.024-.034.036s-.025.025-.036.038C593.5,58.739,593.565,58.629,593.646,58.519Zm-1.02,1.068.013-.012c-.064.054-.11.109-.178.163l-.044.036-.027.022C592.479,59.726,592.543,59.656,592.626,59.587Z"/><path class="e" d="M696.891,62.371c.084-1.448-.959-2.864-3.248-4.186-4.327-2.5-9.216-2.45-13.974-.146l.015-5.473c0,.021-.014.042-.014.062.04-1.373-1.121-2.745-3.589-4.17l-7.313-4.222-7.2,4.186.023-8.332L654.5,36l-7.2,3.084.02-7.229-4.919-2.84-5.521,3.208.018-6.386-4.844-2.8L599.586,41.907l-.027,9.625,4.843,2.8,5.522-3.209-.018,6.386,4.919,2.84,2.25-1.307-.008,2.6,4.448,2.568,6.728-2.927.906.523-.019,6.8,4.9,2.829,2.251-1.776-.009,3.071,4.844,2.8,5.295-3.077-.018,6.123,4.938,2.851a4.755,4.755,0,0,1,.479-.541c.055-.056.1-.117.159-.171.081-.077.182-.147.269-.221.176-.148.351-.3.553-.44.129-.093.278-.186.418-.278.192-.126.379-.252.592-.382.294-.18.6-.362.934-.557l2.419-1.4-.016,5.642c0,1.4,1.072,2.758,3.28,4.033a14.4,14.4,0,0,0,1.87.906c.017.007.034.018.052.025q.631.25,1.276.434c.118.034.238.058.357.088l.246.061c.122.029.244.065.367.09.28.058.561.108.844.148.164.023.328.038.492.055l.132.015c.056,0,.111.014.167.018.261.022.522.036.785.042s.549.006.825,0c.025,0,.05,0,.075-.006l.1-.006c.25-.012.5-.026.75-.051.355-.035.711-.088,1.067-.15h0L669.82,92.1l4.448,2.568,6.708-2.939.925.534-.019,6.8,4.881,2.818,27.549-21.709.028-9.625-7.106-4.1L696.9,70.874l.025-8.653C696.925,62.271,696.894,62.321,696.891,62.371Zm-.975,2.193c-.028.034-.065.067-.094.1.118-.135.2-.27.293-.4C696.041,64.361,696,64.462,695.916,64.564Zm-1.2,1.148c-.031.025-.061.051-.093.076.113-.09.2-.179.3-.269C694.849,65.583,694.795,65.648,694.715,65.712Zm-38-6.077c.064.049.107.1.163.148C656.82,59.734,656.777,59.684,656.713,59.635Zm.738.912a1.116,1.116,0,0,1,.041.194A1.116,1.116,0,0,0,657.451,60.547Zm-.265-.46a1.548,1.548,0,0,1,.117.178A1.548,1.548,0,0,0,657.186,60.087Zm4.32,5.1c-.056.04-.132.081-.189.122.114-.081.226-.161.333-.241-.027.02-.043.039-.071.059S661.533,65.164,661.506,65.184Zm2.634,8.164,0,.031Zm1.5-1.621-.019.014c-.171.108-.352.217-.491.322C665.272,71.954,665.457,71.84,665.637,71.727Zm-.753.547-.012.008.065-.056C664.918,72.242,664.9,72.258,664.884,72.274Zm-.26.231c-.011.012-.028.024-.039.035.026-.028.057-.056.085-.083C664.653,72.473,664.64,72.489,664.624,72.5Zm-.352.453.007-.015Zm13.362-17.284-.048.039c.1-.08.175-.158.27-.238C677.777,55.542,677.719,55.608,677.634,55.674Zm19.031,7.712c-.015.036-.034.072-.05.108-.008.017-.026.034-.034.052a3.346,3.346,0,0,0,.16-.5A2.937,2.937,0,0,1,696.665,63.386Zm-6.427-1.14a1.088,1.088,0,0,0-.256-.632A1.088,1.088,0,0,1,690.238,62.246Zm-.318-.693a3.081,3.081,0,0,0-.77-.6A3.081,3.081,0,0,1,689.92,61.553ZM679.443,53.6c-.013.03-.027.059-.041.089a2.658,2.658,0,0,0,.126-.452A2.51,2.51,0,0,1,679.443,53.6Zm-.481.733c-.073.1-.115.194-.2.291-.012.014-.028.029-.04.043C678.821,54.555,678.879,54.444,678.962,54.333Zm-6.58-1.994a1.024,1.024,0,0,0-.238-.58A1.024,1.024,0,0,1,672.382,52.339Zm-.331-.677a3.075,3.075,0,0,0-.746-.582A3.075,3.075,0,0,1,672.051,51.662ZM658.96,76.467a11.285,11.285,0,0,0,1.485,1.011A11.354,11.354,0,0,1,658.96,76.467Z"/><path class="e" d="M572.209,71.9l.466.269L570.269,73.2l-.027,9.625,3.788,2.187,5.753-2.513.747.431-.017,5.825,4.165,2.4,1.892-1.492-.007,2.58,3.713,2.144,5.162-3-.017,5.97,4.241,2.449,5.7-3.311-.014,5.109c0,1.193.914,2.358,2.8,3.446a12.268,12.268,0,0,0,1.593.772c.014.006.028.015.043.021q.539.213,1.086.37c.1.029.205.049.307.075.071.019.142.036.213.053.1.024.2.054.306.075.238.05.478.092.718.126.142.02.284.033.426.047l.111.013c.045,0,.09.011.136.015q.333.028.669.036t.7,0l.068,0c.031,0,.062,0,.092-.006.209-.01.418-.021.628-.042.3-.03.6-.075.9-.127l-.008,2.846,3.788,2.187L625.675,109l.747.432-.017,5.825,4.165,2.4,1.892-1.492-.007,2.58,3.713,2.144,5.162-3-.017,5.97,4.241,2.448,27.674-16.082.027-9.625-3.675-2.122-4.254,2.472.014-4.92-5.183-2.993-6.108,3.55.02-7.064-6.031-3.482-8.8,3.772.021-7.393c0,.044-.027.089-.03.133.074-1.233-.811-2.438-2.761-3.563a11.836,11.836,0,0,0-9.111-1.166l.01-3.72-3.675-2.122-4.254,2.473.014-4.921-5.183-2.992-6.108,3.549.02-7.064-6.031-3.482-7.84,3.359.017-6.07c0,.036-.023.073-.025.109.063-1.223-.857-2.424-2.857-3.579l-6.068-3.5L557.7,65.944l-.027,9.625,4.127,2.383Zm21.267-13.127c-.02.025-.047.049-.069.074.1-.11.158-.22.239-.33C593.583,58.6,593.549,58.69,593.476,58.775Zm-1.015.963c-.024.02-.047.04-.072.059.1-.075.165-.15.253-.225C592.577,59.628,592.53,59.683,592.461,59.738Zm45.928,24.685c-.024.03-.057.06-.083.089.1-.115.167-.229.251-.344C638.494,84.253,638.461,84.338,638.389,84.423Zm-1.029.983c-.029.024-.056.047-.086.07.1-.078.172-.156.263-.234C637.473,85.3,637.427,85.352,637.36,85.406Zm-29.639,9.723,0,0c.157.1.275.205.448.305C608,95.333,607.877,95.23,607.721,95.129Zm31.311-11.712c-.013.03-.029.061-.043.091s-.024.033-.032.049a2.724,2.724,0,0,0,.139-.424A2.9,2.9,0,0,1,639.032,83.417Zm-5.488-.966a.924.924,0,0,0-.216-.537A.924.924,0,0,1,633.544,82.451Zm-.269-.59a2.593,2.593,0,0,0-.648-.509A2.593,2.593,0,0,1,633.275,81.861ZM594.1,57.8c-.013.03-.028.06-.042.09-.005.011-.017.022-.022.033a2.705,2.705,0,0,0,.131-.417A2.6,2.6,0,0,1,594.1,57.8Zm-5.678-1.08a.85.85,0,0,0-.222-.509A.85.85,0,0,1,588.426,56.722Zm-.273-.557a2.89,2.89,0,0,0-.662-.5A2.89,2.89,0,0,1,588.153,56.165Z"/><g class="b"><path class="f" d="M636.9,25.836l-.027,9.625-13.931,8.1.027-9.625Z"/><path class="g" d="M623.845,39.8l-.027,9.625-5.5-3.177.027-9.625Z"/><path class="f" d="M618.342,36.619l-.027,9.625L604.4,54.329l.027-9.625Z"/><path class="g" d="M604.43,44.7l-.027,9.625-4.844-2.8.027-9.625Z"/><path class="h" d="M647.32,31.853,614.852,50.721l-4.919-2.84L623.845,39.8l-5.5-3.177L604.43,44.7l-4.844-2.8,32.468-18.868,4.844,2.8-13.931,8.1,5.5,3.177,13.931-8.1Z"/><path class="f" d="M647.32,31.853l-.027,9.625L614.825,60.346l.027-9.625Z"/><path class="g" d="M614.852,50.721l-.027,9.625-4.919-2.84.027-9.625Z"/></g><g class="b"><path class="i" d="M652.032,41.254,652,50.879l-18.739,8.183.027-9.625Z"/><path class="i" d="M628.27,51.657l-.027,9.625-6.728,2.927.027-9.625Z"/><path class="g" d="M621.543,54.584l-.027,9.625-4.448-2.568.027-9.625Z"/><path class="g" d="M634.207,55.084l-.027,9.625-5.937-3.428.027-9.625Z"/><path class="h" d="M661.587,40.09l-27.53,21.719-4.9-2.829,5.05-3.9-5.937-3.427-6.727,2.927-4.448-2.568L654.5,36Zm-28.295,9.347,4.674,2.7,14.066-10.882-18.74,8.183"/><path class="j" d="M661.587,40.09l-.027,9.625L634.03,71.434l.027-9.625Z"/><path class="g" d="M634.057,61.809l-.027,9.625-4.9-2.829.027-9.625Z"/></g><g class="b"><path class="g" d="M671.3,51.08l-.027,9.625-2.337-1.349.027-9.625Z"/><g class="b"><g class="k"><g class="b"><path class="l" d="M672.4,52.39l-.027,9.625c0-.457-.364-.887-1.1-1.31l.028-9.625c.733.423,1.1.853,1.1,1.31"/></g></g></g><path class="f" d="M668.968,49.731l-.027,9.625-9.98,5.8.027-9.625Z"/><g class="b"><g class="m"><g class="b"><path class="n" d="M679.684,52.566l-.027,9.625v.06l.027-9.625v-.06"/><path class="o" d="M679.683,52.626l-.027,9.625a2.391,2.391,0,0,1-.046.4l.027-9.625a2.294,2.294,0,0,0,.046-.4"/><path class="p" d="M679.637,53.028l-.027,9.625a2.692,2.692,0,0,1-.12.414l.028-9.625a2.582,2.582,0,0,0,.119-.414"/><path class="q" d="M679.518,53.442l-.028,9.625a3.078,3.078,0,0,1-.213.453L679.3,53.9a3.2,3.2,0,0,0,.214-.453"/><path class="r" d="M679.3,53.9l-.027,9.625a4.287,4.287,0,0,1-.367.543l.027-9.625a4.287,4.287,0,0,0,.367-.543"/><path class="s" d="M678.937,54.438l-.027,9.625a6.524,6.524,0,0,1-.694.741l.028-9.625a6.516,6.516,0,0,0,.693-.741"/><path class="t" d="M678.244,55.179l-.028,9.625a13.329,13.329,0,0,1-2.164,1.573l.028-9.626a13.419,13.419,0,0,0,2.164-1.572"/><path class="u" d="M676.08,56.751l-.028,9.626c-.1.06-.2.121-.308.182l.027-9.625q.157-.091.309-.183"/></g></g></g><path class="f" d="M675.771,56.934l-.027,9.625-2.547,1.48.027-9.625Z"/><path class="g" d="M656.04,59.187l-.027,9.625-1.677-.968.027-9.625Z"/><g class="b"><g class="v"><g class="b"><path class="l" d="M657.527,60.9l-.027,9.625c0-.6-.51-1.153-1.487-1.717l.027-9.625c.977.564,1.489,1.119,1.487,1.717"/></g></g></g><g class="b"><g class="w"><g class="b"><path class="u" d="M673.225,58.414l-.028,9.625a17.847,17.847,0,0,1-3.511,1.594l.028-9.625a17.958,17.958,0,0,0,3.511-1.594"/><path class="t" d="M669.714,60.008l-.028,9.625a13.372,13.372,0,0,1-1.742.438l.028-9.625a13.456,13.456,0,0,0,1.742-.438"/><path class="s" d="M667.972,60.446l-.028,9.625q-.492.09-.982.138l.027-9.625q.49-.048.983-.138"/><path class="r" d="M666.989,60.584l-.027,9.625c-.261.026-.523.044-.784.053l.028-9.625q.391-.014.783-.053"/><path class="q" d="M666.206,60.637l-.028,9.625q-.352.012-.7,0l.027-9.625q.352.009.706,0"/><path class="p" d="M665.5,60.64l-.027,9.625c-.229,0-.457-.018-.686-.037l.028-9.625c.228.019.457.031.685.037"/><path class="o" d="M664.815,60.6l-.028,9.625c-.236-.019-.472-.046-.708-.079l.027-9.625c.236.033.473.06.709.079"/><path class="n" d="M664.106,60.524l-.027,9.625q-.319-.045-.639-.108l.027-9.625q.32.063.639.108"/></g></g></g><path class="g" d="M641.143,65.9l-.027,9.625-4.844-2.8L636.3,63.1Z"/><path class="f" d="M654.363,58.218l-.027,9.625-13.219,7.682.027-9.625Z"/><g class="b"><g class="x"><g class="b"><path class="n" d="M663.945,61.843l-.028,9.626v.056l.028-9.625v-.057"/><path class="o" d="M663.944,61.9l-.028,9.625a2.243,2.243,0,0,1-.042.372l.027-9.625a2.238,2.238,0,0,0,.043-.372"/><path class="p" d="M663.9,62.272l-.027,9.625a2.522,2.522,0,0,1-.112.386l.027-9.625a2.41,2.41,0,0,0,.112-.386"/><path class="q" d="M663.789,62.658l-.027,9.625a3.074,3.074,0,0,1-.2.425l.027-9.625a2.959,2.959,0,0,0,.2-.425"/><path class="r" d="M663.589,63.083l-.027,9.625a4.069,4.069,0,0,1-.355.524l.028-9.625a4.16,4.16,0,0,0,.354-.524"/><path class="s" d="M663.235,63.607l-.028,9.625a6.432,6.432,0,0,1-.693.741l.027-9.625a6.542,6.542,0,0,0,.694-.741"/><path class="t" d="M662.541,64.348l-.027,9.625a14.735,14.735,0,0,1-2.347,1.7l.027-9.625a14.736,14.736,0,0,0,2.347-1.7"/><path class="u" d="M660.194,66.047l-.027,9.625c-.135.082-.273.163-.414.245l.028-9.625c.141-.082.278-.163.413-.245"/></g></g></g><path class="f" d="M659.781,66.292l-.027,9.625-5.018,2.916.027-9.625Z"/><path class="h" d="M654.763,69.208a10.588,10.588,0,0,0-3.405,2.59l-4.938-2.851c.56-.631.915-1.034,3.555-2.568l5.093-2.96c3.015-1.752,3.158-2.97.972-4.232l-1.677-.969L641.143,65.9,636.3,63.1l32.468-18.868,7.313,4.222c5.013,2.894,4.69,5.571-.31,8.476l-2.546,1.48a13.656,13.656,0,0,1-9.758,2c1.364,2.024-.3,3.907-3.686,5.876ZM667.22,56.292l3.2-1.861c2.3-1.338,2.6-2.361.883-3.351l-2.337-1.349-9.98,5.8,1.884,1.089c1.81,1.044,3.745,1.186,6.348-.327"/><path class="g" d="M651.358,71.8l-.027,9.625-4.938-2.851.027-9.625Z"/><g class="b"><g class="y"><g class="b"><path class="u" d="M654.763,69.208l-.028,9.625c-.3.175-.584.341-.851.5l.027-9.625c.268-.162.551-.328.852-.5"/><path class="t" d="M653.911,69.711l-.027,9.625a11.741,11.741,0,0,0-1.893,1.351l.027-9.625a11.681,11.681,0,0,1,1.893-1.351"/><path class="s" d="M652.018,71.062l-.027,9.625a4.986,4.986,0,0,0-.554.6l.027-9.625a5.073,5.073,0,0,1,.554-.6"/><path class="r" d="M651.464,71.658l-.027,9.625c-.036.046-.072.093-.106.14l.027-9.625c.035-.047.07-.094.106-.14"/></g></g></g></g><g class="b"><g class="b"><g class="z"><g class="b"><path class="l" d="M690.262,62.3l-.027,9.625c0-.5-.4-.944-1.112-1.355a5.1,5.1,0,0,0-.666-.323l.027-9.625a4.982,4.982,0,0,1,.666.323c.712.411,1.113.859,1.112,1.355"/><path class="aa" d="M688.484,60.626l-.027,9.625c-.138-.054-.279-.1-.423-.143l.028-9.625c.143.041.284.089.422.143"/><path class="ab" d="M688.062,60.483l-.028,9.625c-.1-.031-.213-.057-.321-.08l.027-9.625c.109.023.216.049.322.08"/><path class="n" d="M687.74,60.4l-.027,9.625q-.138-.028-.279-.048l.028-9.625c.093.013.186.029.278.048"/><path class="o" d="M687.462,60.355l-.028,9.625c-.086-.013-.173-.022-.261-.03l.027-9.625c.088.007.175.017.262.03"/><path class="p" d="M687.2,60.325l-.027,9.625c-.087-.007-.175-.012-.263-.014l.027-9.625c.089,0,.176.007.263.014"/><path class="q" d="M686.937,60.311l-.027,9.625c-.092,0-.186,0-.28,0l.027-9.625c.1,0,.188,0,.28,0"/><path class="r" d="M686.657,60.313l-.027,9.625c-.106,0-.212.01-.32.021l.027-9.625c.108-.011.215-.018.32-.021"/><path class="s" d="M686.337,60.334l-.027,9.625q-.208.021-.423.06l.027-9.625q.215-.039.423-.06"/><path class="t" d="M685.914,60.394l-.027,9.625a6.1,6.1,0,0,0-.782.2l.027-9.625a5.977,5.977,0,0,1,.782-.2"/><path class="u" d="M685.132,60.592l-.027,9.625a8.69,8.69,0,0,0-1.691.771l.028-9.625a8.656,8.656,0,0,1,1.69-.771"/></g></g></g><g class="b"><g class="ac"><g class="b"><path class="n" d="M696.925,62.221l-.027,9.625c0,.023,0,.047,0,.07l.028-9.625c0-.023,0-.047,0-.07"/><path class="o" d="M696.924,62.291l-.028,9.625a2.714,2.714,0,0,1-.054.473l.027-9.625a2.838,2.838,0,0,0,.055-.473"/><path class="p" d="M696.869,62.764l-.027,9.625a3.156,3.156,0,0,1-.142.491l.027-9.625a3.163,3.163,0,0,0,.142-.491"/><path class="q" d="M696.727,63.255,696.7,72.88a3.758,3.758,0,0,1-.253.536l.027-9.625a3.758,3.758,0,0,0,.253-.536"/><path class="r" d="M696.474,63.791l-.027,9.625a5.031,5.031,0,0,1-.429.635l.027-9.625a4.929,4.929,0,0,0,.429-.635"/><path class="s" d="M696.045,64.426l-.027,9.625a7.4,7.4,0,0,1-.787.843l.027-9.625a7.4,7.4,0,0,0,.787-.843"/><path class="t" d="M695.258,65.269l-.027,9.625a13.867,13.867,0,0,1-2.25,1.645l.027-9.625a13.836,13.836,0,0,0,2.25-1.645"/><path class="u" d="M693.008,66.914l-.027,9.625c-.1.058-.193.115-.292.172l.028-9.625.291-.172"/></g></g></g><path class="f" d="M692.717,67.086l-.027,9.625-3.164,1.839.027-9.625Z"/><path class="g" d="M689.552,68.925l-.027,9.625-4.58-2.644.027-9.625Z"/><path class="f" d="M683.442,61.363l-.027,9.625-17.545,10.2.027-9.625Z"/><path class="g" d="M676.9,70.971l-.027,9.625-2.205-1.273L674.7,69.7Z"/><g class="b"><g class="ad"><g class="b"><path class="u" d="M665.9,71.559l-.027,9.625-.148.087.028-9.625.147-.087"/><path class="t" d="M665.75,71.646l-.028,9.625a6.274,6.274,0,0,0-1,.724l.028-9.625a6.169,6.169,0,0,1,1-.724"/><path class="s" d="M664.751,72.37,664.723,82a2.823,2.823,0,0,0-.31.332l.027-9.625a2.847,2.847,0,0,1,.311-.332"/><path class="r" d="M664.44,72.7l-.027,9.625a1.854,1.854,0,0,0-.156.229l.028-9.625a1.753,1.753,0,0,1,.155-.229"/><path class="q" d="M664.285,72.931l-.028,9.625a1.328,1.328,0,0,0-.089.189l.027-9.625a1.344,1.344,0,0,1,.09-.189"/><path class="p" d="M664.2,73.12l-.027,9.625a1.122,1.122,0,0,0-.049.168l.028-9.625a1.13,1.13,0,0,1,.048-.168"/><path class="o" d="M664.147,73.288l-.028,9.625a.874.874,0,0,0-.018.159l.027-9.625a.987.987,0,0,1,.019-.159"/><path class="n" d="M664.128,73.447l-.027,9.625V83.1l.028-9.625v-.024"/></g></g></g><path class="f" d="M686.126,70.917l-.027,9.625-10.3,5.985.027-9.625Z"/><g class="b"><g class="ae"><g class="b"><path class="u" d="M675.827,76.9l-.027,9.625a19.383,19.383,0,0,1-3.772,1.7l.028-9.626a19.312,19.312,0,0,0,3.771-1.7"/><path class="t" d="M672.056,78.6l-.028,9.626a16.136,16.136,0,0,1-2.076.523l.028-9.625a16.062,16.062,0,0,0,2.076-.524"/><path class="s" d="M669.98,79.126l-.028,9.625q-.6.109-1.194.168l.027-9.625q.6-.059,1.2-.168"/><path class="r" d="M668.785,79.294l-.027,9.625q-.465.046-.927.063l.027-9.626q.464-.015.927-.062"/><path class="q" d="M667.858,79.356l-.027,9.626q-.414.013-.825,0l.027-9.625q.412.01.825,0"/><path class="p" d="M667.033,79.36l-.027,9.625q-.393-.009-.785-.042l.027-9.625q.391.033.785.042"/><path class="o" d="M666.248,79.318l-.027,9.625c-.265-.021-.528-.051-.791-.088l.027-9.625q.395.055.791.088"/><path class="n" d="M665.457,79.23l-.027,9.625c-.283-.04-.564-.09-.844-.148l.027-9.625c.28.058.562.107.844.148"/><path class="ab" d="M664.613,79.082l-.027,9.625q-.489-.1-.97-.239l.027-9.625c.321.092.645.172.97.239"/><path class="aa" d="M663.643,78.843l-.027,9.625q-.644-.185-1.276-.434l.027-9.625q.633.25,1.276.434"/><path class="l" d="M662.367,78.409l-.027,9.625a14.373,14.373,0,0,1-1.922-.931c-2.208-1.275-3.284-2.636-3.28-4.033l.027-9.625c0,1.4,1.072,2.758,3.28,4.033a14.558,14.558,0,0,0,1.922.931"/></g></g></g><path class="h" d="M693.643,58.185c4.75,2.742,4.26,5.887-.926,8.9l-3.165,1.839-4.58-2.644,3.483-2.024c2.322-1.349,2.241-2.416.7-3.308s-3.387-.935-5.708.414L665.9,71.559c-2.3,1.338-2.184,2.383-.639,3.275s3.349.957,5.652-.381l5.992-3.482L674.7,69.7l4.644-2.7,6.785,3.918-10.3,5.984c-5.205,3.025-10.633,3.319-15.382.577s-4.26-5.887.945-8.912l16.89-9.815C683.466,55.737,688.894,55.443,693.643,58.185Z"/></g><g class="b"><path class="i" d="M704.784,71.711l-.027,9.625-18.739,8.183.027-9.625Z"/><path class="i" d="M681,82.1l-.027,9.625-6.709,2.938.027-9.625Z"/><path class="g" d="M674.295,85.041l-.027,9.625L669.82,92.1l.027-9.625Z"/><path class="g" d="M686.959,85.541l-.027,9.625-5.956-3.438L681,82.1Z"/><path class="h" d="M714.339,70.546,686.79,92.255l-4.881-2.818,5.05-3.9L681,82.1l-6.709,2.938-4.448-2.568,37.387-16.029Zm-28.294,9.348,4.655,2.687,14.084-10.87-18.739,8.183"/><path class="j" d="M714.339,70.546l-.027,9.625L686.763,101.88l.027-9.625Z"/><path class="g" d="M686.79,92.255l-.027,9.625-4.881-2.818.027-9.625Z"/></g><g class="b"><path class="g" d="M587.491,55.661l-.027,9.625-1.941-1.121.027-9.625Z"/><g class="b"><g class="af"><g class="b"><path class="l" d="M588.446,56.768l-.028,9.625c0-.4-.344-.754-.955-1.106l.028-9.626c.611.353.956.711.955,1.107"/></g></g></g><path class="f" d="M585.549,54.541l-.027,9.625-9.362,5.441.027-9.625Z"/><g class="b"><g class="ag"><g class="b"><path class="n" d="M594.323,56.835l-.028,9.625v.057l.027-9.625v-.057"/><path class="o" d="M594.322,56.892l-.027,9.625a2.328,2.328,0,0,1-.045.388l.027-9.625a2.346,2.346,0,0,0,.045-.388"/><path class="p" d="M594.277,57.28,594.25,66.9a2.625,2.625,0,0,1-.116.4l.027-9.625a2.555,2.555,0,0,0,.116-.4"/><path class="q" d="M594.161,57.681l-.027,9.625a3.1,3.1,0,0,1-.207.439l.027-9.625a3.1,3.1,0,0,0,.207-.439"/><path class="r" d="M593.954,58.12l-.027,9.625a4.092,4.092,0,0,1-.353.521l.028-9.625a4.186,4.186,0,0,0,.352-.521"/><path class="s" d="M593.6,58.641l-.028,9.625a6.154,6.154,0,0,1-.654.7l.027-9.625a6.166,6.166,0,0,0,.655-.7"/><path class="t" d="M592.947,59.342l-.027,9.625a11.88,11.88,0,0,1-1.921,1.4l.027-9.625a11.894,11.894,0,0,0,1.921-1.4"/><path class="u" d="M591.026,60.744,591,70.369c-.084.05-.169.1-.256.151l.027-9.625c.087-.05.172-.1.256-.151"/></g></g></g><path class="f" d="M590.77,60.9l-.027,9.625-3.6,2.089.027-9.625Z"/><path class="g" d="M574.178,63.4l-.027,9.625L572.209,71.9l.027-9.625Z"/><g class="b"><g class="ah"><g class="b"><path class="u" d="M587.175,62.985l-.028,9.625a16.43,16.43,0,0,1-3.209,1.451l.027-9.625a16.5,16.5,0,0,0,3.21-1.451"/><path class="t" d="M583.965,64.436l-.027,9.625a13.006,13.006,0,0,1-1.7.429l.027-9.625a13.171,13.171,0,0,0,1.7-.429"/><path class="s" d="M582.266,64.865l-.027,9.625q-.486.089-.97.137L581.3,65q.483-.048.969-.137"/><path class="r" d="M581.3,65l-.028,9.625q-.381.038-.761.051l.027-9.625q.38-.014.762-.051"/><path class="q" d="M580.535,65.053l-.027,9.625q-.337.012-.674,0l.028-9.625q.336.009.673,0"/><path class="p" d="M579.862,65.056l-.028,9.625q-.322-.007-.644-.035l.027-9.625q.323.027.645.035"/><path class="o" d="M579.217,65.021l-.027,9.625q-.327-.027-.654-.073l.028-9.625q.325.046.653.073"/><path class="n" d="M578.564,64.948l-.028,9.625q-.354-.049-.707-.123l.027-9.625c.236.049.471.09.708.123"/><path class="ab" d="M577.856,64.825l-.027,9.625c-.277-.058-.554-.126-.829-.2l.027-9.625q.414.118.829.2"/><path class="aa" d="M577.027,64.62,577,74.245q-.554-.158-1.1-.374l.027-9.625q.549.216,1.1.374"/><path class="l" d="M575.925,64.246l-.027,9.625a13.289,13.289,0,0,1-1.748-.848l.028-9.625a13.281,13.281,0,0,0,1.747.848"/></g></g></g><path class="f" d="M572.236,62.277l-.027,9.625L561.8,77.952l.027-9.625Z"/><path class="h" d="M591.441,53.365c4.128,2.383,3.748,4.962-.671,7.53l-3.6,2.09c-4.438,2.578-8.87,2.8-13,.413l-1.942-1.121-10.41,6.05L557.7,65.944l27.675-16.082Zm-8.674,7.4,4.156-2.416c1.966-1.143,1.887-1.926.568-2.688l-1.942-1.12-9.362,5.44,1.941,1.121c1.32.762,2.672.805,4.639-.337"/><path class="g" d="M561.826,68.327l-.027,9.625-4.127-2.383.027-9.625Z"/></g><g class="b"><path class="i" d="M600.049,64.018l-.027,9.625-15.966,6.986L584.083,71Z"/><path class="i" d="M579.81,72.876l-.027,9.625-5.753,2.514.027-9.625Z"/><path class="g" d="M574.057,75.389l-.027,9.625-3.788-2.187.027-9.625Z"/><path class="g" d="M584.88,75.8l-.027,9.625-5.07-2.927.027-9.625Z"/><path class="h" d="M608.177,63.028,584.706,81.537l-4.165-2.4L584.88,75.8l-5.07-2.927-5.753,2.513L570.269,73.2l31.877-13.656ZM584.083,71l3.976,2.3,11.99-9.282L584.083,71"/><path class="j" d="M608.177,63.028l-.027,9.625L584.678,91.162l.027-9.625Z"/><path class="g" d="M584.706,81.537l-.027,9.625-4.165-2.4.027-9.625Z"/></g><g class="b"><path class="f" d="M610.357,73.115l-.027,9.625L590.276,94.394l.027-9.625Z"/><path class="ai" d="M619.448,69.535l-.027,9.625L607.109,91.227l.027-9.625Z"/><path class="g" d="M590.3,84.769l-.027,9.625-3.713-2.144.027-9.625Z"/><path class="h" d="M627.363,74.105,599.689,90.188l-4.241-2.448,14.909-14.625L590.3,84.769l-3.713-2.144,27.675-16.083,5.183,2.992L607.136,81.6l16.552-9.619Z"/><path class="f" d="M627.363,74.105l-.027,9.625L599.662,99.813l.027-9.625Z"/><path class="g" d="M599.689,90.188l-.027,9.625-4.241-2.448.027-9.625Z"/></g><g class="b"><g class="b"><g class="aj"><g class="b"><path class="l" d="M633.564,82.5l-.027,9.625c0-.423-.339-.8-.938-1.149a4.23,4.23,0,0,0-.571-.277l.027-9.625a4.3,4.3,0,0,1,.572.277c.6.346.939.726.937,1.149"/><path class="aa" d="M632.055,81.075l-.027,9.625c-.119-.047-.239-.088-.362-.123l.027-9.625a3.758,3.758,0,0,1,.362.123"/><path class="ab" d="M631.693,80.952l-.027,9.625c-.091-.026-.183-.049-.277-.068l.028-9.626q.14.03.276.069"/><path class="n" d="M631.417,80.883l-.028,9.626c-.078-.017-.158-.031-.239-.042l.028-9.625c.08.011.16.025.239.041"/><path class="o" d="M631.178,80.842l-.028,9.625c-.074-.011-.149-.019-.224-.025l.027-9.625c.076.006.15.014.225.025"/><path class="p" d="M630.953,80.817l-.027,9.625c-.075-.006-.15-.011-.226-.012l.028-9.625q.114,0,.225.012"/><path class="q" d="M630.728,80.805,630.7,90.43c-.079,0-.159,0-.24,0l.028-9.625c.081,0,.161,0,.24,0"/><path class="r" d="M630.488,80.806l-.028,9.625c-.09,0-.181.009-.274.018l.028-9.625c.092-.009.183-.015.274-.018"/><path class="s" d="M630.214,80.824l-.028,9.625q-.178.018-.363.051l.027-9.625c.123-.022.244-.039.364-.051"/><path class="t" d="M629.85,80.875l-.027,9.625a5.436,5.436,0,0,0-.667.169l.028-9.625a5.421,5.421,0,0,1,.666-.169"/><path class="u" d="M629.184,81.044l-.028,9.625a7.439,7.439,0,0,0-1.439.656l.027-9.625a7.386,7.386,0,0,1,1.44-.656"/></g></g></g><g class="b"><g class="ak"><g class="b"><path class="n" d="M639.255,82.421l-.028,9.625v.06l.028-9.625v-.06"/><path class="o" d="M639.254,82.481l-.028,9.625a2.317,2.317,0,0,1-.046.4l.027-9.625a2.417,2.417,0,0,0,.047-.4"/><path class="p" d="M639.207,82.884l-.027,9.625a2.625,2.625,0,0,1-.121.417l.028-9.625a2.752,2.752,0,0,0,.12-.417"/><path class="q" d="M639.087,83.3l-.028,9.625a3.157,3.157,0,0,1-.216.458l.028-9.625a3.434,3.434,0,0,0,.216-.458"/><path class="r" d="M638.871,83.759l-.028,9.625a4.255,4.255,0,0,1-.365.541l.027-9.625a4.371,4.371,0,0,0,.366-.541"/><path class="s" d="M638.505,84.3l-.027,9.625a6.3,6.3,0,0,1-.676.723l.028-9.625a6.46,6.46,0,0,0,.675-.723"/><path class="t" d="M637.83,85.023l-.028,9.625a11.89,11.89,0,0,1-1.934,1.414l.027-9.625a12.01,12.01,0,0,0,1.935-1.414"/><path class="u" d="M635.9,86.437l-.027,9.625-.252.149.027-9.625.252-.149"/></g></g></g><path class="f" d="M635.643,86.586l-.027,9.625-2.678,1.556.027-9.625Z"/><path class="g" d="M632.965,88.142l-.027,9.625-3.9-2.252.027-9.625Z"/><path class="f" d="M627.744,81.7l-.027,9.625-14.942,8.683.027-9.625Z"/><path class="g" d="M622.192,89.883l-.027,9.625L620.3,98.431l.027-9.625Z"/><g class="b"><g class="al"><g class="b"><path class="u" d="M612.8,90.383l-.027,9.626-.124.073.027-9.625.124-.074"/><path class="t" d="M612.678,90.457l-.027,9.625a5.2,5.2,0,0,0-.847.615l.027-9.625a5.2,5.2,0,0,1,.847-.615"/><path class="s" d="M611.831,91.072,611.8,100.7a2.335,2.335,0,0,0-.264.282l.027-9.625a2.258,2.258,0,0,1,.264-.282"/><path class="r" d="M611.567,91.354l-.027,9.625a1.647,1.647,0,0,0-.133.2l.028-9.625a1.526,1.526,0,0,1,.132-.2"/><path class="q" d="M611.435,91.549l-.028,9.625a1.233,1.233,0,0,0-.076.161l.027-9.625a1.121,1.121,0,0,1,.077-.161"/><path class="p" d="M611.358,91.71l-.027,9.625a.868.868,0,0,0-.041.144l.027-9.626a.885.885,0,0,1,.041-.143"/><path class="o" d="M611.317,91.853l-.027,9.626a.707.707,0,0,0-.016.135l.027-9.625a.806.806,0,0,1,.016-.136"/><path class="n" d="M611.3,91.989l-.027,9.625v.02l.027-9.625v-.02"/></g></g></g><path class="f" d="M630.044,89.839l-.027,9.625-8.782,5.1.027-9.625Z"/><g class="b"><g class="am"><g class="b"><path class="u" d="M621.263,94.943l-.028,9.625a16.415,16.415,0,0,1-3.21,1.447l.028-9.625a16.44,16.44,0,0,0,3.21-1.447"/><path class="t" d="M618.053,96.39l-.028,9.625a13.742,13.742,0,0,1-1.765.446l.027-9.625a13.8,13.8,0,0,0,1.766-.446"/><path class="s" d="M616.287,96.836l-.027,9.625c-.34.062-.679.109-1.017.143l.027-9.625c.338-.034.678-.081,1.017-.143"/><path class="r" d="M615.27,96.979l-.027,9.625q-.395.039-.788.053l.027-9.625q.393-.013.788-.053"/><path class="q" d="M614.482,97.032l-.027,9.625q-.353.012-.7,0l.027-9.625c.233.006.468,0,.7,0"/><path class="p" d="M613.78,97.035l-.027,9.625q-.336-.008-.669-.036L613.111,97c.223.019.446.03.669.036"/><path class="o" d="M613.111,97l-.027,9.625q-.337-.027-.673-.075l.028-9.625c.223.031.447.057.672.075"/><path class="n" d="M612.439,96.924l-.028,9.625c-.24-.034-.48-.076-.718-.126l.027-9.625q.357.075.719.126"/><path class="ab" d="M611.72,96.8l-.027,9.625q-.415-.085-.826-.2L610.9,96.6q.41.117.825.2"/><path class="aa" d="M610.9,96.6l-.028,9.625q-.547-.158-1.086-.37l.027-9.625q.539.213,1.087.37"/><path class="l" d="M609.808,96.225l-.027,9.625a12.485,12.485,0,0,1-1.637-.792c-1.886-1.089-2.8-2.254-2.8-3.447l.027-9.625c0,1.193.915,2.358,2.8,3.446a12.3,12.3,0,0,0,1.636.793"/></g></g></g><path class="h" d="M636.464,78.991c4.052,2.339,3.617,5.016-.821,7.6l-2.678,1.556-3.9-2.252,2.958-1.72c1.985-1.153,1.905-2.067.605-2.818-1.32-.762-2.9-.805-4.883.348L612.8,90.383c-1.966,1.143-1.848,2.035-.529,2.8,1.3.751,2.841.816,4.808-.326l5.111-2.971-1.866-1.077,3.951-2.3,5.767,3.329-8.781,5.1c-4.419,2.568-9.039,2.829-13.091.489s-3.635-5.027.784-7.6l14.38-8.357C627.774,76.9,632.412,76.651,636.464,78.991Z"/></g><g class="b"><path class="i" d="M645.941,90.514l-.027,9.625-15.966,6.986.027-9.625Z"/><path class="i" d="M625.7,99.371,625.675,109l-5.753,2.514.027-9.625Z"/><path class="g" d="M619.949,101.885l-.027,9.625-3.788-2.187.027-9.625Z"/><path class="g" d="M630.772,102.3l-.027,9.625L625.675,109l.027-9.625Z"/><path class="h" d="M654.069,89.524,630.6,108.033l-4.165-2.4,4.339-3.33-5.07-2.927-5.753,2.514L616.161,99.7l31.877-13.656ZM629.975,97.5l3.976,2.3,11.99-9.282L629.975,97.5"/><path class="j" d="M654.069,89.524l-.027,9.625L630.57,117.658l.027-9.625Z"/><path class="g" d="M630.6,108.033l-.027,9.625-4.165-2.4.027-9.625Z"/></g><g class="b"><path class="f" d="M656.249,99.611l-.027,9.625L636.168,120.89l.027-9.625Z"/><path class="ai" d="M665.34,96.031l-.027,9.625L653,117.723l.027-9.625Z"/><path class="g" d="M636.2,111.265l-.027,9.625-3.713-2.144.027-9.625Z"/><path class="h" d="M673.255,100.6l-27.675,16.083-4.24-2.448,14.909-14.625L636.2,111.265l-3.713-2.144,27.675-16.083,5.183,2.992L653.028,108.1l16.552-9.619Z"/><path class="f" d="M673.255,100.6l-.027,9.625-27.675,16.083.027-9.625Z"/><path class="g" d="M645.581,116.683l-.027,9.625-4.24-2.448.027-9.625Z"/></g></g><g transform="translate(1450.958 3480.171)"><g transform="translate(0.042 47.043)"><g class="b"><g transform="translate(0.045)"><path class="an" d="M75.84,20.152c10.465-6.136,27.615-6.179,38.237-.1l68.876,39.432c10.622,6.081,10.75,16.014.289,22.146L115.217,121.5c-10.465,6.136-27.615,6.179-38.237.1L8.1,82.168c-10.622-6.081-10.75-16.014-.289-22.146ZM179.718,61.383,110.842,21.95c-8.819-5.048-23.061-4.992-31.714.081L11.1,61.9c-8.688,5.09-8.581,13.323.238,18.37L80.216,119.7c8.79,5.031,23.031,5.009,31.719-.081l68.025-39.87c8.654-5.073,8.547-13.34-.242-18.37" transform="translate(-0.053 -15.521)"/></g><g transform="translate(4.648 2.674)"><path class="ao" d="M75.607,19.986c8.654-5.073,22.895-5.128,31.714-.081L176.2,59.337c8.79,5.031,8.9,13.3.242,18.37l-68.025,39.87c-8.688,5.09-22.929,5.111-31.719.081L7.82,78.226C-1,73.179-1.106,64.946,7.582,59.856Z" transform="translate(-1.135 -16.15)"/></g><path class="ap" d="M191.042,28.5c0,.259-.043.519-.068.778-.026.289-.047.578-.1.863-.043.23-.111.455-.17.68a8.08,8.08,0,0,1-.234.816c-.077.221-.179.434-.272.651-.123.285-.247.57-.4.85-.106.2-.234.4-.357.6-.2.319-.4.634-.638.944-.136.183-.281.366-.429.544a16.2,16.2,0,0,1-1.178,1.267c-.136.132-.259.264-.4.4-.264.234-.553.464-.838.689-.242.2-.476.4-.736.587-.31.225-.651.438-.978.655s-.625.425-.97.629l-68.025,39.87a29.468,29.468,0,0,1-3.759,1.8c-.353.14-.714.276-1.076.408-.821.3-1.684.54-2.551.782-.884.251-1.782.485-2.7.676-1.05.217-2.109.412-3.189.553-.3.038-.587.094-.884.123-1.493.162-3,.247-4.516.264-.247,0-.489,0-.736,0-1.5-.009-3-.089-4.486-.238l-.672-.077a42.993,42.993,0,0,1-4.371-.736c-.247-.055-.489-.119-.736-.179a37.715,37.715,0,0,1-3.7-1.114c-.251-.089-.515-.162-.765-.259a29.625,29.625,0,0,1-4.1-1.914L8.139,39.978c-4.031-2.3-6.553-5.167-7.556-8.169a9.589,9.589,0,0,1-.5-3.028L.042,43.827c-.009,4.061,2.679,8.122,8.054,11.2L76.972,94.456a29.128,29.128,0,0,0,3.81,1.82c.094.038.191.06.285.1.251.094.515.166.77.259.736.259,1.463.532,2.228.748.476.136.978.242,1.467.361.247.06.485.123.736.179.2.047.4.106.612.149.88.183,1.777.34,2.679.468.357.051.719.081,1.08.123.225.025.446.051.672.072.293.03.587.077.884.1.884.077,1.778.123,2.666.145.315.009.625,0,.936,0,.247,0,.489,0,.736,0,.37,0,.74.009,1.11,0,1-.034,2.007-.1,3-.2.136-.013.268-.043.4-.055.3-.034.587-.085.884-.123.727-.094,1.459-.174,2.173-.306.349-.06.672-.179,1.016-.251.923-.191,1.812-.421,2.7-.672.455-.132.948-.2,1.395-.349.4-.128.765-.3,1.152-.438.366-.132.723-.264,1.076-.408a28.643,28.643,0,0,0,3.759-1.8l68.025-39.87.255-.153c.255-.153.476-.319.719-.481.327-.213.668-.425.97-.646.268-.2.5-.4.748-.6.281-.225.57-.446.825-.68.043-.038.1-.077.14-.115.1-.094.17-.2.268-.289a15.255,15.255,0,0,0,1.169-1.259c.072-.089.17-.17.242-.259s.123-.191.2-.289c.23-.31.434-.621.629-.94.081-.128.187-.255.259-.383.043-.072.064-.149.1-.221a8.847,8.847,0,0,0,.4-.842c.072-.162.166-.319.225-.476.021-.06.03-.123.051-.183.1-.268.162-.54.234-.812.047-.179.115-.353.153-.532.009-.051.009-.1.017-.153.051-.285.072-.574.1-.867.017-.179.055-.357.064-.536l0-.238h0Z" transform="translate(-0.042 26.682)"/></g></g></g></g></svg>