<svg xmlns="http://www.w3.org/2000/svg" xmlns:xlink="http://www.w3.org/1999/xlink" width="191" height="229.39" viewBox="0 0 191 229.39"><defs><style>.a,.h{fill:none;}.b{isolation:isolate;}.c{fill:#d10000;}.d{fill:#b0b2b2;}.e{fill:#2d2d2c;}.f{fill:#6e7072;}.g,.t{fill:#991d1b;}.g{stroke:#fff;stroke-width:9.089px;}.g,.h{stroke-linejoin:round;}.h{stroke:#831412;stroke-width:4.545px;}.i{fill:#ac2322;}.j{fill:#831412;}.k{fill:#fff;}.l{clip-path:url(#a);}.m{fill:#811310;}.n{fill:#841512;}.o{fill:#871614;}.p{fill:#8b1815;}.q{fill:#8e1917;}.r{fill:#921a19;}.s{fill:#951c1a;}.u{fill:#9c1e1d;}.v{fill:#a01f1e;}.w{fill:#a3201f;}.x{clip-path:url(#b);}.y{clip-path:url(#c);}.z{clip-path:url(#d);}</style><clipPath id="a"><path class="a" d="M608.111-481.451l-.025,8.553c0-.475-.394-.909-1.089-1.311-1.44-.832-3.144-.909-5.207.29l.024-8.553c2.064-1.2,3.767-1.122,5.207-.29C607.717-482.36,608.112-481.926,608.111-481.451Z"/></clipPath><clipPath id="b"><path class="a" d="M614.4-481.2l-.024,8.553c0,1.433-1.208,2.88-3.575,4.255l.025-8.553C613.193-478.316,614.4-479.763,614.4-481.2Z"/></clipPath><clipPath id="c"><path class="a" d="M584.657-463.15l.024-8.553c0-.52.478-1.09,1.559-1.718l-.024,8.553C585.135-464.24,584.659-463.67,584.657-463.15Z"/></clipPath><clipPath id="d"><path class="a" d="M578.366-463.4l.025-8.553c0,1.355,1.065,2.7,3.239,3.952a13.73,13.73,0,0,0,14.188-.213l-.024,8.553a13.73,13.73,0,0,1-14.188.213C579.432-460.708,578.363-462.05,578.366-463.4Z"/></clipPath></defs><g transform="translate(-1216 -3902.5)"><g class="b" transform="translate(1216.981 3947.479)"><path class="c" d="M115.465,17.616l-7.093-4.095L5.974,73.448c-8.918,5.183-8.871,13.617.106,18.8l123.892,70.781,7.047-4.1L13.127,88.152c-5.063-2.923-5.1-7.682-.059-10.609l102.4-59.927"/></g><g transform="translate(1215.958 3859.063)"><g transform="translate(0.042 43.437)"><g class="b"><g transform="translate(0.045)"><path class="d" d="M75.84,20.152c10.465-6.136,27.615-6.179,38.237-.1l68.876,39.432c10.622,6.081,10.75,16.014.289,22.146L115.217,121.5c-10.465,6.136-27.615,6.179-38.237.1L8.1,82.168c-10.622-6.081-10.75-16.014-.289-22.146ZM179.718,61.383,110.842,21.95c-8.819-5.048-23.061-4.992-31.714.081L11.1,61.9c-8.688,5.09-8.581,13.323.238,18.37L80.216,119.7c8.79,5.031,23.031,5.009,31.719-.081l68.025-39.87c8.654-5.073,8.547-13.34-.242-18.37" transform="translate(-0.053 -15.521)"/></g><g transform="translate(4.648 2.674)"><path class="e" d="M75.607,19.986c8.654-5.073,22.895-5.128,31.714-.081L176.2,59.337c8.79,5.031,8.9,13.3.242,18.37l-68.025,39.87c-8.688,5.09-22.929,5.111-31.719.081L7.82,78.226C-1,73.179-1.106,64.946,7.582,59.856Z" transform="translate(-1.135 -16.15)"/></g><path class="f" d="M191.042,28.5c0,.259-.043.519-.068.778-.026.289-.047.578-.1.863-.043.23-.111.455-.17.68a8.08,8.08,0,0,1-.234.816c-.077.221-.179.434-.272.651-.123.285-.247.57-.4.85-.106.2-.234.4-.357.6-.2.319-.4.634-.638.944-.136.183-.281.366-.429.544a16.2,16.2,0,0,1-1.178,1.267c-.136.132-.259.264-.4.4-.264.234-.553.464-.838.689-.242.2-.476.4-.736.587-.31.225-.651.438-.978.655s-.625.425-.97.629l-68.025,39.87a29.468,29.468,0,0,1-3.759,1.8c-.353.14-.714.276-1.076.408-.821.3-1.684.54-2.551.782-.884.251-1.782.485-2.7.676-1.05.217-2.109.412-3.189.553-.3.038-.587.094-.884.123-1.493.162-3,.247-4.516.264-.247,0-.489,0-.736,0-1.5-.009-3-.089-4.486-.238l-.672-.077a42.993,42.993,0,0,1-4.371-.736c-.247-.055-.489-.119-.736-.179a37.715,37.715,0,0,1-3.7-1.114c-.251-.089-.515-.162-.765-.259a29.625,29.625,0,0,1-4.1-1.914L8.139,39.978c-4.031-2.3-6.553-5.167-7.556-8.169a9.589,9.589,0,0,1-.5-3.028L.042,43.827c-.009,4.061,2.679,8.122,8.054,11.2L76.972,94.456a29.128,29.128,0,0,0,3.81,1.82c.094.038.191.06.285.1.251.094.515.166.77.259.736.259,1.463.532,2.228.748.476.136.978.242,1.467.361.247.06.485.123.736.179.2.047.4.106.612.149.88.183,1.777.34,2.679.468.357.051.719.081,1.08.123.225.025.446.051.672.072.293.03.587.077.884.1.884.077,1.778.123,2.666.145.315.009.625,0,.936,0,.247,0,.489,0,.736,0,.37,0,.74.009,1.11,0,1-.034,2.007-.1,3-.2.136-.013.268-.043.4-.055.3-.034.587-.085.884-.123.727-.094,1.459-.174,2.173-.306.349-.06.672-.179,1.016-.251.923-.191,1.812-.421,2.7-.672.455-.132.948-.2,1.395-.349.4-.128.765-.3,1.152-.438.366-.132.723-.264,1.076-.408a28.643,28.643,0,0,0,3.759-1.8l68.025-39.87.255-.153c.255-.153.476-.319.719-.481.327-.213.668-.425.97-.646.268-.2.5-.4.748-.6.281-.225.57-.446.825-.68.043-.038.1-.077.14-.115.1-.094.17-.2.268-.289a15.255,15.255,0,0,0,1.169-1.259c.072-.089.17-.17.242-.259s.123-.191.2-.289c.23-.31.434-.621.629-.94.081-.128.187-.255.259-.383.043-.072.064-.149.1-.221a8.847,8.847,0,0,0,.4-.842c.072-.162.166-.319.225-.476.021-.06.03-.123.051-.183.1-.268.162-.54.234-.812.047-.179.115-.353.153-.532.009-.051.009-.1.017-.153.051-.285.072-.574.1-.867.017-.179.055-.357.064-.536l0-.238h0Z" transform="translate(-0.042 26.682)"/></g></g></g><g transform="translate(710.711 4556.978)"><path class="g" d="M567.452-474.045l-.017,6.025,4.639,2.678,6.308-3.666-.016,5.6a3.162,3.162,0,0,0,.8,2.013,8.291,8.291,0,0,0,1.968,1.625c.164.1.289.211.468.314l.007,0a14.43,14.43,0,0,0,1.821.882c.034.013.067.035.1.048q.624.247,1.259.428c.063.018.126.03.189.047s.15.036.226.055c.183.047.366.1.551.136q.408.084.819.143c.069.009.139.014.208.023l.15.017c.135.015.27.034.406.045.25.021.5.034.753.041.157,0,.315,0,.473,0h0c.046,0,.093,0,.14,0h0c.055,0,.11,0,.165,0q.436-.015.873-.059c.164-.017.328-.047.492-.069l.045-.006h0c.095-.013.191-.024.286-.04h0c.078-.013.156-.019.234-.033.218-.039.433-.113.649-.163.341-.078.681-.153,1.02-.257.069-.021.139-.03.208-.052.3-.1.6-.23.9-.349.183-.073.367-.132.549-.212.379-.167.754-.365,1.128-.566l.005,0-.021,7.44,4.572,2.639,6.772-3.935-.005,1.538-.018,6.294,12.461,7.194h0l2.562-1.489.261-.152-.009,3.266,12.075,6.971,4.126-2.4.012-4.277.013-4.276h0l-2.064,1.2-2.063,1.2-.149-.086h0l.039.023.1.061,4.126-2.4-.143-.083,17.329-10.07.011-3.914.013-4.63.009-.005-4.573-2.639-2.814,1.636.009-3.256-12.46-7.194-1.983,1.152.006-2.14v-.153h0l-8.95-5.168-5.168-2.983-4.126,2.4h0l-.016,5.539-1.132.658c.011-.025.024-.049.034-.074s.029-.057.04-.085.029-.055.039-.083a2.649,2.649,0,0,0,.084-.291c.014-.053.036-.107.046-.161a2.559,2.559,0,0,0,.051-.442c0-.022,0-.044,0-.067l.024-8.553c0,.019-.011.037-.011.056a3.126,3.126,0,0,0-.778-2.046c-.014-.017-.036-.032-.05-.049a6.5,6.5,0,0,0-.966-.948,11.345,11.345,0,0,0-1.321-.891c-.048-.028-.079-.058-.127-.086l0,0a14.136,14.136,0,0,0-1.5-.742c-.164-.071-.33-.134-.5-.2q-.534-.205-1.075-.362c-.185-.054-.369-.114-.556-.161a13.349,13.349,0,0,0-1.406-.268c-.276-.037-.553-.049-.83-.069-.221-.015-.441-.029-.662-.033-.323-.007-.645,0-.969.015-.136.007-.272.023-.407.035a13.769,13.769,0,0,0-2.3.384l.011-4.1-4.639-2.679-3.542,2.059-1.667.969.017-6.025-4.572-2.64L557.7-482.211l-.024,8.554,4.572,2.639Zm66.665,18.961,0-1.05,1.752-1.018,3.325,1.919-5.088,2.958Zm-3.576,14.931-1.182-.683,1.182.683Zm-6.832-9.931,3.327,1.921-3.86,2.244.01-3.261-.517-.3Zm-9.474-30.343c.006-.035.017-.069.026-.1-.014.053-.017.106-.034.159a.865.865,0,0,1-.046.22c-.009.022-.022.043-.031.065A2.778,2.778,0,0,0,614.235-480.427Zm-.487.985c-.008.011-.014.023-.022.034-.072.1-.11.208-.2.312l-.012.013-.019.02C613.6-479.189,613.662-479.316,613.748-479.442Zm-1.05,1.157c.015-.013.026-.025.04-.038-.079.071-.137.142-.223.212l-.021.018-.007.006C612.567-478.153,612.629-478.219,612.7-478.285Zm-26.707,5.027.02-.013-.011.008c-.155.1-.317.2-.443.291C585.681-473.065,585.837-473.162,585.991-473.258Zm-.6.435-.024.022h0Zm-.237.21h0l-.033.035h0c-.011.012-.03.025-.041.037C585.1-472.565,585.127-472.589,585.151-472.613Zm-5.656,2.959,0,0c.107.114.221.228.345.341-.124-.113-.243-.225-.349-.339Z"/><path class="h" d="M567.452-474.045l-.017,6.025,4.639,2.678,6.308-3.666-.016,5.6c0,1.355,1.066,2.7,3.24,3.952a14.412,14.412,0,0,0,1.829.885c.034.014.066.035.1.048q.624.247,1.259.428c.063.018.126.03.189.047s.151.036.226.055c.184.047.366.1.551.136q.408.084.819.143c.069.009.138.014.207.023l.152.017c.135.015.269.034.405.045.25.021.5.034.753.041.157,0,.315,0,.473,0,.048,0,.1,0,.145,0s.11,0,.165,0q.436-.015.873-.059c.179-.018.358-.05.537-.075.1-.014.193-.025.289-.041.078-.013.156-.019.234-.033.217-.039.432-.113.649-.163.341-.078.682-.153,1.021-.257.069-.022.139-.03.207-.052.3-.1.6-.229.9-.348.185-.073.37-.133.554-.213.381-.168.756-.367,1.132-.568l-.021,7.439,4.572,2.639,6.772-3.935-.022,7.832,12.46,7.194,2.823-1.64-.009,3.265,12.075,6.971,4.126-2.4.025-8.553-4.127,2.4-.149-.086h0l.144.083,4.126-2.4-.143-.083,17.329-10.07.024-8.544.009-.005-4.573-2.639-2.814,1.636.009-3.256-12.46-7.194-1.983,1.152.007-2.293h0l-14.118-8.151-4.126,2.4h0l-.016,5.539-1.132.658c.011-.025.024-.049.034-.074s.029-.057.04-.085.029-.055.039-.083a2.837,2.837,0,0,0,.13-.451,2.571,2.571,0,0,0,.051-.443c0-.022,0-.044,0-.067l.024-8.553c0,.019-.011.037-.011.056.033-1.377-1.029-2.742-3.243-4.02a13.361,13.361,0,0,0-10.208-1.4l.011-4.1-4.639-2.678-5.209,3.027.017-6.025-4.572-2.64L557.7-482.211l-.024,8.554,4.572,2.639Zm55.734,24.865-.518-.3,1.041-.605,3.327,1.921-3.86,2.244Zm10.923-3.094.011-3.86,1.752-1.018,3.325,1.919Zm-49.42-19.516,0,.026ZM586-473.263c-.155.1-.318.2-.444.292.13-.1.3-.2.456-.3Zm-.636.462,0,0,.031-.027Zm-.245.222c-.011.012-.031.026-.042.038.022-.024.052-.05.077-.075Zm-.324.439.015-.032Zm27.72-5.971-.028.024c.1-.079.164-.158.253-.237C612.66-478.253,612.6-478.182,612.515-478.111ZM579.5-469.656c.109.116.225.232.352.348-.126-.115-.247-.23-.356-.346Zm.693.679a11.626,11.626,0,0,0,1.439.971A11.626,11.626,0,0,1,580.191-468.977Zm50.35,28.824-2.2-1.269,2.2,1.269ZM620-474.881Zm-5.822-5.271c-.009.022-.022.044-.031.066a2.951,2.951,0,0,0,.112-.449A2.763,2.763,0,0,1,614.181-480.152Zm-.433.709a3.963,3.963,0,0,1-.217.347c-.009.011-.022.022-.032.033A4.194,4.194,0,0,0,613.748-479.443Zm-5.655-2.051a1.051,1.051,0,0,0-.261-.63A1.051,1.051,0,0,1,608.093-481.494Zm-.3-.666a3.088,3.088,0,0,0-.773-.6A3.088,3.088,0,0,1,607.794-482.16Z"/><g class="b"><path class="i" d="M591.119-496.338l-.024,8.553L578.732-480.6l.024-8.553Z"/><path class="j" d="M579.822-483.758,579.8-475.2l-5.192-3,.024-8.553Z"/><path class="i" d="M574.63-486.755l-.024,8.553-12.363,7.184.024-8.553Z"/><path class="j" d="M562.267-479.571l-.024,8.553-4.572-2.64.024-8.553Z"/><path class="k" d="M600.95-490.662,572.1-473.895l-4.639-2.678,12.363-7.184-5.192-3-12.363,7.184-4.572-2.64,28.852-16.767,4.572,2.64-12.363,7.184,5.192,3,12.363-7.184Z"/><path class="i" d="M600.95-490.662l-.024,8.553-28.852,16.767.024-8.553Z"/><path class="j" d="M572.1-473.895l-.024,8.553-4.639-2.678.024-8.553Z"/></g><g class="b"><g class="b"><g class="l"><g class="b"><path class="m" d="M608.111-481.451l-.025,8.553c0-.475-.394-.909-1.089-1.311a4.9,4.9,0,0,0-.653-.316l.024-8.553a4.9,4.9,0,0,1,.653.316c.7.4,1.091.836,1.09,1.311"/><path class="n" d="M606.368-483.078l-.024,8.553a4.124,4.124,0,0,0-.406-.138l.024-8.553a4.124,4.124,0,0,1,.406.138"/><path class="o" d="M605.962-483.216l-.024,8.553c-.1-.029-.206-.055-.31-.076l.024-8.554c.105.022.208.048.31.077"/><path class="p" d="M605.652-483.293l-.024,8.554c-.087-.018-.175-.034-.263-.046l.024-8.553c.088.012.176.027.263.045"/><path class="q" d="M605.389-483.338l-.024,8.553c-.082-.012-.164-.021-.247-.028l.024-8.553c.083.007.165.016.247.028"/><path class="r" d="M605.142-483.366l-.024,8.553c-.082-.007-.163-.011-.246-.013l.024-8.553c.083,0,.165.006.246.013"/><path class="s" d="M604.9-483.379l-.024,8.553c-.086,0-.172,0-.26,0l.024-8.553c.088,0,.174,0,.26,0"/><path class="t" d="M604.636-483.378l-.024,8.553c-.1,0-.2.01-.3.02l.024-8.553c.1-.01.2-.017.3-.02"/><path class="u" d="M604.338-483.358l-.024,8.553c-.127.013-.255.031-.385.055l.024-8.554c.13-.023.258-.041.385-.054"/><path class="v" d="M603.953-483.3l-.024,8.554a5.558,5.558,0,0,0-.7.176l.025-8.553a5.507,5.507,0,0,1,.7-.177"/><path class="w" d="M603.254-483.127l-.025,8.553a7.459,7.459,0,0,0-1.439.655l.024-8.553a7.374,7.374,0,0,1,1.44-.655"/></g></g></g><g class="b"><g class="x"><g class="b"><path class="p" d="M614.4-481.2l-.024,8.553v.067l.024-8.553v-.067"/><path class="q" d="M614.4-481.129l-.024,8.553a2.571,2.571,0,0,1-.051.443l.025-8.553a2.681,2.681,0,0,0,.05-.443"/><path class="r" d="M614.35-480.686l-.025,8.553a2.879,2.879,0,0,1-.13.452l.024-8.554a2.95,2.95,0,0,0,.131-.451"/><path class="s" d="M614.219-480.235l-.024,8.554a3.347,3.347,0,0,1-.231.491l.024-8.553a3.4,3.4,0,0,0,.231-.492"/><path class="t" d="M613.988-479.743l-.024,8.553a4.493,4.493,0,0,1-.387.571l.025-8.553a4.588,4.588,0,0,0,.386-.571"/><path class="u" d="M613.6-479.172l-.025,8.553a6.434,6.434,0,0,1-.692.74l.025-8.553a6.516,6.516,0,0,0,.692-.74"/><path class="v" d="M612.91-478.432l-.025,8.553a11.412,11.412,0,0,1-1.853,1.355l.024-8.553a11.423,11.423,0,0,0,1.854-1.355"/><path class="w" d="M611.056-477.077l-.024,8.553c-.076.046-.152.091-.23.136l.025-8.553c.077-.045.154-.09.229-.136"/></g></g></g><path class="i" d="M601.814-482.472l-.024,8.553-15.574,9.051.024-8.553Z"/><g class="b"><g class="y"><g class="b"><path class="w" d="M586.24-473.421l-.024,8.553c-.042.024-.083.048-.123.073l.024-8.554.123-.072"/><path class="v" d="M586.117-473.349l-.024,8.554a5.288,5.288,0,0,0-.869.632l.024-8.553a5.347,5.347,0,0,1,.869-.633"/><path class="u" d="M585.248-472.716l-.024,8.553a2.484,2.484,0,0,0-.277.3l.024-8.553a2.484,2.484,0,0,1,.277-.3"/><path class="t" d="M584.971-472.42l-.024,8.553a1.53,1.53,0,0,0-.144.212l.024-8.553a1.723,1.723,0,0,1,.144-.212"/><path class="s" d="M584.827-472.208l-.024,8.553a1.258,1.258,0,0,0-.083.175l.024-8.553a1.372,1.372,0,0,1,.083-.175"/><path class="r" d="M584.744-472.033l-.024,8.553a.97.97,0,0,0-.045.158l.024-8.553a.963.963,0,0,1,.045-.158"/><path class="q" d="M584.7-471.875l-.024,8.553a.96.96,0,0,0-.018.15l.025-8.553a.854.854,0,0,1,.017-.15"/><path class="p" d="M584.682-471.725l-.025,8.553v.022l.024-8.553v-.022"/></g></g></g><path class="i" d="M610.827-476.941l-.024,8.553-15.008,8.722.024-8.553Z"/><g class="b"><g class="z"><g class="b"><path class="w" d="M595.818-468.219l-.024,8.553a16.019,16.019,0,0,1-3.1,1.4l.025-8.553a16.04,16.04,0,0,0,3.1-1.4"/><path class="v" d="M592.714-466.822l-.025,8.553a14.36,14.36,0,0,1-1.877.472l.025-8.553a14.441,14.441,0,0,0,1.877-.472"/><path class="u" d="M590.837-466.35l-.025,8.553q-.53.1-1.06.149l.024-8.553c.354-.036.707-.085,1.061-.149"/><path class="t" d="M589.776-466.2l-.024,8.553q-.437.044-.873.059l.025-8.553q.435-.015.872-.059"/><path class="s" d="M588.9-466.142l-.025,8.553q-.392.014-.784,0l.025-8.554q.391.011.784,0"/><path class="r" d="M588.12-466.139l-.025,8.554c-.251-.007-.5-.02-.752-.041l.024-8.553c.251.021.5.034.753.04"/><path class="q" d="M587.367-466.179l-.024,8.553q-.383-.031-.764-.085l.024-8.554c.254.037.509.065.764.086"/><path class="p" d="M586.6-466.265l-.024,8.554q-.411-.059-.819-.143l.024-8.553c.272.056.545.1.819.142"/><path class="o" d="M585.784-466.407l-.024,8.553q-.486-.1-.966-.238l.024-8.553q.481.138.966.238"/><path class="n" d="M584.818-466.645l-.024,8.553q-.635-.182-1.259-.428l.024-8.553q.625.248,1.259.428"/><path class="m" d="M583.559-467.073l-.024,8.553a14.411,14.411,0,0,1-1.929-.933c-2.174-1.255-3.243-2.6-3.24-3.952l.025-8.553c0,1.355,1.065,2.7,3.239,3.952a14.4,14.4,0,0,0,1.929.933"/></g></g></g><path class="k" d="M611.147-485.16c4.489,2.591,4.289,5.54-.32,8.219l-15.009,8.722a13.73,13.73,0,0,1-14.188.213c-4.472-2.582-4.271-5.531.338-8.21l15.008-8.722A13.72,13.72,0,0,1,611.147-485.16ZM590.98-470.685l15.574-9.051c2.063-1.2,1.924-2.185.467-3.026-1.44-.832-3.143-.909-5.207.29l-15.574,9.051c-2.063,1.2-1.924,2.185-.484,3.017a4.887,4.887,0,0,0,5.224-.281"/></g><g class="b"><path class="j" d="M620-474.882l-.024,8.553-4.773-2.756.024-8.553Z"/><path class="i" d="M633.475-471.884l-.024,8.553-4.126,2.4.024-8.553Z"/><path class="j" d="M629.348-469.486l-.024,8.553-4.773-2.756.024-8.553Z"/><path class="k" d="M633.475-471.884l-4.126,2.4-4.773-2.756-24.726,14.369-4.572-2.64L620-474.881l-4.773-2.756,4.126-2.4Z"/><path class="i" d="M624.575-472.242l-.024,8.553L599.825-449.32l.024-8.553Z"/><path class="j" d="M599.849-457.873l-.024,8.553-4.572-2.64.024-8.553Z"/></g><g class="b"><path class="i" d="M647.911-463.549,647.887-455l-4.126,2.4.024-8.553Z"/><path class="j" d="M643.785-461.151l-.024,8.553-7.888-4.554.024-8.553Z"/><path class="i" d="M635.9-465.705l-.024,8.553-8.037,4.67.024-8.553Z"/><path class="i" d="M634.124-457.419l-.024,8.553-4.126,2.4.024-8.553Z"/><path class="j" d="M630-455.021l-.024,8.553-6.264-3.616.024-8.553Z"/><path class="i" d="M623.734-458.637l-.024,8.553-8.436,4.9.024-8.553Z"/><path class="j" d="M619.059-446.782l-.024,8.553-12.46-7.194.024-8.553Z"/><path class="i" d="M623.186-449.18l-.024,8.553-4.127,2.4.024-8.553Z"/><path class="k" d="M647.911-463.549l-4.126,2.4-7.888-4.554-8.037,4.67,6.264,3.616-4.126,2.4-6.264-3.616-8.436,4.9,7.888,4.554-4.127,2.4-12.46-7.194,28.852-16.767Z"/></g><g class="b"><path class="i" d="M655.28-459.294l-.024,8.553-24.725,14.369.024-8.553Z"/><path class="k" d="M655.289-459.29l-24.722,14.372,7.5,4.33-4.126,2.4-12.076-6.969,28.848-16.771Z"/><path class="i" d="M638.075-440.584l-.024,8.553-4.127,2.4.024-8.553Z"/><path class="j" d="M633.948-438.186l-.024,8.553L621.849-436.6l.024-8.553Z"/></g></g></g></svg>