<svg xmlns="http://www.w3.org/2000/svg" xmlns:xlink="http://www.w3.org/1999/xlink" width="190.957" height="261.003" viewBox="0 0 190.957 261.003"><defs><style>.a,.d{fill:none;}.b{isolation:isolate;}.c{fill:#00b7d1;}.d{stroke:#fff;stroke-width:9.319px;}.d,.e{stroke-linejoin:round;}.e,.f{fill:#fff;}.e{stroke:#155e85;stroke-width:4.66px;}.g{fill:#166fa4;}.h{fill:#08547f;}.i{fill:#156b9f;}.j{clip-path:url(#a);}.k{fill:#07527d;}.l{fill:#085480;}.m{fill:#0a5682;}.n{fill:#0c5985;}.o{fill:#0d5b88;}.p{fill:#0f5d8b;}.q{fill:#105f8e;}.r{fill:#116292;}.s{fill:#126495;}.t{fill:#136798;}.u{fill:#14699c;}.v{clip-path:url(#b);}.w{clip-path:url(#c);}.x{clip-path:url(#d);}.y{fill:#166ca1;}.z{fill:#166ca0;}.aa{fill:#14689b;}.ab{clip-path:url(#e);}.ac{clip-path:url(#f);}.ad{clip-path:url(#g);}.ae{clip-path:url(#h);}.af{fill:#166da2;}.ag{fill:#b0b2b2;}.ah{fill:#2d2d2c;}.ai{fill:#6e7072;}.aj{fill:#f5f6f6;}</style><clipPath id="a"><path class="a" d="M-474.145,870.151l-.025,8.77c0-.454-.364-.863-1.006-1.234-1.408-.813-3.086-.852-5.2.377l.025-8.77c2.116-1.229,3.793-1.19,5.2-.377C-474.509,869.288-474.144,869.7-474.145,870.151Z"/></clipPath><clipPath id="b"><path class="a" d="M-467.893,870.231l-.025,8.77c0,1.464-1.273,2.966-3.769,4.417l.025-8.77C-469.166,873.2-467.9,871.7-467.893,870.231Z"/></clipPath><clipPath id="c"><path class="a" d="M-497.994,889.122l.024-8.77c0-.527.5-1.111,1.631-1.768l-.024,8.77C-497.493,888.01-497.993,888.595-497.994,889.122Z"/></clipPath><clipPath id="d"><path class="a" d="M-504.26,889.056l.025-8.77c0,1.3,1,2.579,3.049,3.761,4.328,2.5,9.393,2.3,14.136-.456l-.025,8.77c-4.743,2.756-9.808,2.954-14.136.456C-503.257,891.635-504.264,890.361-504.26,889.056Z"/></clipPath><clipPath id="e"><path class="a" d="M-533.833,876.023l-.024,8.77c0-.408-.331-.778-.919-1.117-1.254-.724-2.76-.763-4.654.337l.025-8.77c1.894-1.1,3.4-1.061,4.654-.337C-534.163,875.246-533.831,875.615-533.833,876.023Z"/></clipPath><clipPath id="f"><path class="a" d="M-528.228,876.081l-.025,8.77c0,1.315-1.149,2.665-3.4,3.97l.025-8.769C-529.377,878.746-528.232,877.4-528.228,876.081Z"/></clipPath><clipPath id="g"><path class="a" d="M-555.241,893.947l.025-8.77c0-.478.455-1.01,1.48-1.606l-.025,8.77C-554.786,892.937-555.24,893.469-555.241,893.947Z"/></clipPath><clipPath id="h"><path class="a" d="M-560.861,893.874l.025-8.77c0,1.174.9,2.318,2.729,3.375,3.9,2.251,8.433,2.062,12.681-.407l-.025,8.77c-4.248,2.469-8.783,2.657-12.681.407C-559.962,896.192-560.864,895.047-560.861,893.874Z"/></clipPath></defs><g transform="translate(-623.523 -3658.938)"><g class="b" transform="translate(626.58 3725.479)"><path class="c" d="M115.465,17.616l-7.093-4.095L5.974,73.448c-8.918,5.183-8.871,13.617.106,18.8l123.892,70.781,7.047-4.1L13.127,88.152c-5.063-2.923-5.1-7.682-.059-10.609l102.4-59.927"/></g><g transform="translate(1252.492 2999.255)"><path class="d" d="M-569.107,884.668l-.017,5.879,4.07,2.35,4.211-5.373-.018,6.35c0,1.173.9,2.318,2.729,3.375a12.068,12.068,0,0,0,1.546.748l.025.012.024.012q.528.208,1.067.362c.088.026.178.043.267.066h0l.21.052c.113.027.224.059.337.083.205.042.412.077.619.108.031,0,.061.011.092.016s.037,0,.056.006c.1.013.192.022.288.032l.132.015h0c.062.007.125.016.188.021.219.018.438.03.659.036s.459,0,.69,0h.015c.255-.008.512-.025.769-.051.237-.024.476-.063.714-.1.06-.009.12-.014.18-.025.029-.005.059-.007.088-.012.184-.034.368-.1.553-.14.351-.08.7-.156,1.054-.266.038-.012.076-.017.114-.029.31-.1.619-.235.928-.359.171-.068.342-.122.513-.2.252-.112.5-.252.751-.379l-.018,6.489,3.967,2.29h0l3.463-2.013L-538.85,908v.022h0l3.641,2.1,5.481-2.41.51.295.241.139v.2l-.015,5.367,4,2.31,22.511-17.757.018-6.3a10.637,10.637,0,0,0,1.252.844,13.381,13.381,0,0,0,1.716.83c.018.008.036.019.054.027q.588.231,1.188.4c.071.021.143.036.215.053.028.008.057.014.085.021.078.021.156.039.235.058h0c.125.03.249.066.375.093q.395.081.794.138c.126.018.254.029.381.043.049.005.1.012.147.016.072.007.142.018.214.024.244.02.49.034.736.04s.513.005.771,0c.291-.01.584-.029.877-.059.261-.026.523-.069.785-.11.069-.011.137-.017.206-.029.035-.006.07-.008.106-.015.207-.037.414-.11.622-.157.389-.088.778-.173,1.167-.3.044-.014.088-.019.132-.033.343-.111.685-.26,1.027-.4.191-.077.384-.137.575-.222a18.161,18.161,0,0,0,1.728-.881l15.388-8.943c.085-.05.169-.1.251-.149a13.558,13.558,0,0,0,1.269-.867c.1-.072.178-.145.267-.218.15-.122.316-.243.448-.365.165-.152.289-.3.427-.457.064-.071.14-.141.2-.212h0c.028-.033.067-.066.093-.1s.063-.1.1-.144a4.655,4.655,0,0,0,.3-.445c.057-.1.1-.2.142-.3.013-.031.03-.062.043-.092h0c.014-.034.035-.068.048-.1a3.016,3.016,0,0,0,.132-.456,2.662,2.662,0,0,0,.051-.442c0-.022,0-.044,0-.066l.025-8.77h0a.18.18,0,0,1-.011.05c0,.021-.013.042-.014.064v0a2.963,2.963,0,0,0-.7-1.984c-.027-.035-.074-.069-.1-.1a5.927,5.927,0,0,0-.845-.85,10.371,10.371,0,0,0-1.374-.936l-.007,0a13.241,13.241,0,0,0-1.917-.9c-.2-.075-.394-.13-.592-.194a12.663,12.663,0,0,0-1.442-.384c-.213-.043-.426-.082-.641-.114a12.722,12.722,0,0,0-1.574-.13c-.163,0-.325-.02-.489-.017a13.353,13.353,0,0,0-2.136.194h0l.009-3.155L-484,859.3l-7.4-4.275-3.17,1.843.011-3.667-3.933-2.27-4.548,2.643.015-5.261h0l-5.547-3.2-3.17,1.842.011-3.666-4.414-2.548-29.583,17.192-.025,8.77.557.321-2.43.542.012-4.141-3.967-2.29-26.546,15.427-.025,8.77h0l3.967,2.29Zm101.054-13.7c-.023.081-.034.162-.053.244-.011.029-.007.059-.019.089s-.03.061-.043.092c-.005.01-.015.02-.02.03A2.907,2.907,0,0,0-468.053,870.965Zm-.553,1.108c-.072.1-.112.205-.2.307-.02.024-.047.049-.068.073C-468.762,872.326-468.7,872.2-468.606,872.073Zm-1.066,1.151c-.072.063-.125.127-.2.19l-.063.051C-469.837,873.385-469.765,873.3-469.672,873.224Zm-24.778-2.559,3.2-1.861,1.475.852-4.683,2.721Zm-2.13,8.076,0,0-.019.014c-.157.1-.322.2-.45.295C-496.912,878.947-496.744,878.844-496.58,878.741Zm-.64.457c-.018.014-.032.028-.048.043l-.006,0-.007.005Zm-.243.208c-.017.017-.031.033-.047.05s-.024.02-.033.03C-497.518,879.459-497.489,879.433-497.463,879.406Zm-6.921-2.968,1.757,1.014c-1.2,1.1-1.714,2.2-1.521,3.286a2.652,2.652,0,0,1-.087-.452h0l-.023,8.173-3.985-2.3L-511.6,887.6l.009-3.372-3.106-1.793Zm-16.618.885,0,1.467-1.237-.714-.028-.016Zm-9.01,1.617-.031.025-.029.024c.032-.026.058-.053.086-.079.057-.047.1-.093.155-.14C-529.9,878.826-529.943,878.883-530.012,878.94Zm1.047-1.058c-.033.043-.046.085-.082.128l-.013.014c-.016.017-.034.035-.049.053.1-.114.158-.228.238-.341C-528.905,877.785-528.936,877.834-528.965,877.882Zm.718,4.878.017-5.938,2.493,1.44-1.9,1.1-.013,4.8-.061.035-.538.313Zm-.126-6.018a2.409,2.409,0,0,1-.064.3c-.012.028-.027.056-.04.084,0,.01-.014.019-.018.029A2.68,2.68,0,0,0-528.373,876.742Zm-1.846-5.681,1.531-.89-.011,4.118v.4a3.908,3.908,0,0,0-.346-.459,5.433,5.433,0,0,0-.555-.566c-.094-.081-.2-.16-.3-.241a8.837,8.837,0,0,0-1.058-.719,12.049,12.049,0,0,0-1.131-.554Zm-7.955-3.653-.011,3.667.252.145c-.186.018-.371.03-.557.057l.007-2.578-.96-.554Zm-15.788,16.31.013-.008-.018.013c-.142.09-.291.18-.408.267C-554.256,883.9-554.108,883.81-553.962,883.718Zm-.617.449-.012.008.057-.048C-554.55,884.14-554.563,884.153-554.579,884.167Zm-.247.221c.023-.024.048-.049.073-.073h0c-.016.017-.03.033-.046.049s-.02.017-.027.025Z"/><path class="e" d="M-569.107,884.669l-.017,5.878,4.07,2.349,4.211-5.373-.018,6.351c0,1.173.9,2.318,2.729,3.375a12.068,12.068,0,0,0,1.546.748c.017.007.032.017.049.024q.528.208,1.067.362c.088.026.178.043.267.066.071.019.143.036.214.053.112.027.223.059.335.083q.354.073.711.124c.114.016.229.026.343.038.045.005.089.011.134.015.062.007.125.016.188.021.219.018.438.03.659.036s.459,0,.69,0h.01q.386-.013.774-.052c.237-.024.476-.063.714-.1.06-.009.12-.014.18-.025.029-.005.059-.007.088-.012.184-.034.367-.1.551-.139.352-.08.7-.157,1.057-.267.037-.012.075-.017.113-.029.307-.1.612-.232.918-.355.175-.07.35-.125.525-.2.251-.112.5-.251.749-.378l-.018,6.489,3.967,2.29,3.463-2.012-.012,4.005,3.641,2.1,5.481-2.41.751.434-.016,5.565,4,2.31,22.511-17.757.018-6.3a10.637,10.637,0,0,0,1.252.844,13.381,13.381,0,0,0,1.716.83c.019.008.036.019.054.027q.588.231,1.188.4c.1.029.2.048.3.074.078.021.156.039.234.058.125.03.249.067.375.093q.395.081.794.138c.127.018.255.029.382.043.049.005.1.012.146.016.072.007.142.018.214.024.244.02.49.034.736.04s.513.005.771,0h0c.29-.01.581-.029.873-.059.261-.026.522-.069.784-.11.069-.011.139-.017.208-.029.035-.006.07-.009.105-.015.207-.038.414-.11.621-.157.39-.088.779-.173,1.168-.3.044-.014.088-.019.132-.033.342-.111.682-.259,1.023-.4.193-.077.387-.138.579-.224a17.924,17.924,0,0,0,1.728-.88l15.388-8.943c.085-.05.169-.1.251-.149a13.908,13.908,0,0,0,1.27-.867c.095-.072.177-.145.266-.218.15-.121.316-.243.448-.365.165-.153.289-.3.428-.458.063-.07.139-.14.2-.211.028-.033.067-.066.093-.1a4.638,4.638,0,0,0,.4-.589,3.269,3.269,0,0,0,.141-.3c.015-.031.032-.062.044-.093s.035-.068.048-.1a3.061,3.061,0,0,0,.132-.457,2.559,2.559,0,0,0,.051-.442c0-.022,0-.044,0-.066l.025-8.77c0,.038-.023.076-.025.114.063-1.347-.919-2.664-3.019-3.877a12.863,12.863,0,0,0-8.8-1.544l.008-3.155-11.677-6.742-3.17,1.843.011-3.667-3.933-2.27-4.548,2.643.015-5.261-5.547-3.2-3.17,1.842.011-3.666-4.414-2.548-29.583,17.192-.025,8.77.557.321-2.429.542.011-4.141-3.967-2.29-26.546,15.427-.025,8.77,3.967,2.29Zm65.591-2.517a5.962,5.962,0,0,0,.633.644A5.962,5.962,0,0,1-503.516,882.152Zm-.632-1.412a2.579,2.579,0,0,1-.087-.454l-.023,8.173-3.985-2.3L-511.6,887.6l.009-3.372-3.106-1.793,10.314-5.994,1.757,1.014C-503.826,878.552-504.342,879.658-504.148,880.74Zm.4,1.021a3.444,3.444,0,0,1-.317-.6A3.444,3.444,0,0,0-503.749,881.761Zm5.792-1.535,0,.027Zm.688-.985-.012.009.061-.052C-497.238,879.212-497.252,879.226-497.269,879.241Zm.224-.194c.135-.1.3-.205.47-.309l-.02.014C-496.752,878.851-496.917,878.951-497.045,879.047Zm-.465.409c-.009.01-.024.02-.033.03.025-.027.054-.053.08-.08C-497.48,879.423-497.494,879.44-497.51,879.456Zm-.318.4,0-.005Zm-30.424,4.658.021-7.7,2.494,1.44-1.9,1.1-.013,4.8Zm-26.952.538,0,.023Zm26.832-8.316a2.656,2.656,0,0,1-.065.3c-.012.027-.027.055-.04.083,0,.01-.014.02-.018.029A2.787,2.787,0,0,0-528.372,876.74Zm-.674,1.27c-.019.022-.045.045-.064.068.1-.115.159-.23.241-.344C-528.935,877.826-528.97,877.917-529.046,878.01Zm-.966.93-.061.049c.093-.074.161-.149.247-.224C-529.893,878.823-529.941,878.882-530.012,878.94Zm-3.84-2.965a.894.894,0,0,0-.213-.521A.9.9,0,0,1-533.852,875.975Zm-.9-1.069a2.555,2.555,0,0,1,.638.5A2.555,2.555,0,0,0-534.751,874.906Zm-19.216,8.817c-.143.09-.292.181-.409.268.123-.092.277-.187.429-.282Zm-.612.444-.013.009.061-.052C-554.549,884.139-554.562,884.153-554.579,884.167Zm-.22.2c-.008.009-.02.017-.028.026.023-.025.05-.05.075-.075C-554.769,884.33-554.783,884.347-554.8,884.363Zm-.284.358v0Zm32.812-6.661,1.269-.737,0,1.467Zm-6.429-3.37a6.382,6.382,0,0,0-2.264-1.985,12.049,12.049,0,0,0-1.131-.554l3.407-1.98Zm34.245-2.313,0-1.712,3.2-1.861,1.475.852Zm-43.478-1.157c-.186.018-.371.03-.558.057l.008-2.577-.96-.555,1.269-.737-.011,3.667Zm-22.258,15.561a5.2,5.2,0,0,0,.567.578A5.282,5.282,0,0,1-560.191,886.781Zm.858.864a9.364,9.364,0,0,0,1.226.834A9.364,9.364,0,0,1-559.333,887.645Zm56.776-4.531a10.461,10.461,0,0,0,1.371.933A10.461,10.461,0,0,1-502.557,883.114ZM-468.8,872.38c-.02.025-.047.049-.068.073a4.483,4.483,0,0,0,.266-.383C-468.677,872.174-468.717,872.277-468.8,872.38Zm-1.072,1.034-.064.052c.1-.082.176-.164.271-.247C-469.742,873.284-469.8,873.349-469.874,873.414Zm1.749-2.116c-.013.03-.029.061-.043.092-.005.01-.015.021-.02.031a2.958,2.958,0,0,0,.136-.459A2.694,2.694,0,0,1-468.125,871.3Zm-6.042-1.2a1,1,0,0,0-.233-.578A1,1,0,0,1-474.167,870.1Zm-.288-.632a2.793,2.793,0,0,0-.7-.549A2.793,2.793,0,0,1-474.455,869.466Z"/><g class="b"><path class="f" d="M-511.736,843.289l-29.583,17.192-4.413-2.548,29.583-17.192Z"/><path class="g" d="M-511.736,843.289l-.025,8.77-29.583,17.192.025-8.77Z"/><path class="h" d="M-541.32,860.481l-.025,8.77-4.413-2.548.025-8.77Z"/></g><g class="b"><path class="g" d="M-512.748,852.152l-.025,8.77L-534.2,873.375l.025-8.77Z"/><path class="i" d="M-503.03,848.315l-.025,8.77-13.175,12.909.025-8.77Z"/><path class="h" d="M-534.176,864.605l-.025,8.77-3.984-2.3.025-8.77Z"/><path class="f" d="M-494.564,853.2-524.147,870.4l-4.533-2.617,15.933-15.625-21.428,12.453-3.984-2.3,29.583-17.192,5.547,3.2-13.175,12.909,17.709-10.291Z"/><path class="g" d="M-494.564,853.2l-.025,8.77-29.583,17.192.025-8.77Z"/><path class="h" d="M-524.147,870.4l-.025,8.77-4.533-2.617.025-8.77Z"/></g><g class="b"><path class="g" d="M-479.728,861.769l-.025,8.77L-483.984,873l.025-8.77Z"/><path class="h" d="M-483.959,864.228l-.025,8.77-7.264-4.194.025-8.77Z"/><path class="g" d="M-491.222,860.034l-.025,8.77-8.923,5.185.025-8.77Z"/><path class="h" d="M-498.658,870.96l-.025,8.77-5.7-3.292.025-8.77Z"/><path class="g" d="M-494.444,868.511l-.025,8.77-4.214,2.449.025-8.77Z"/><path class="h" d="M-516.574,874.767l-.025,8.77-4.413-2.548.025-8.77Z"/><path class="g" d="M-504.359,867.668l-.025,8.77-12.215,7.1.025-8.77Z"/><path class="f" d="M-479.728,861.769l-4.231,2.459-7.264-4.194-8.923,5.185,5.7,3.292-4.214,2.449-5.7-3.292-12.216,7.1-4.413-2.548,29.583-17.192Z"/></g><g class="b"><g class="b"><g class="j"><g class="b"><path class="k" d="M-474.145,870.151l-.025,8.77c0-.454-.364-.863-1.006-1.234a4.636,4.636,0,0,0-.607-.294l.025-8.77a4.65,4.65,0,0,1,.607.294c.642.371,1.007.78,1.006,1.234"/><path class="l" d="M-475.758,868.623l-.025,8.77a4.058,4.058,0,0,0-.385-.131l.025-8.77c.13.038.258.081.385.131"/><path class="m" d="M-476.143,868.492l-.025,8.77c-.1-.028-.194-.052-.293-.072l.025-8.77c.1.02.2.045.293.072"/><path class="n" d="M-476.436,868.42l-.025,8.77c-.084-.018-.169-.032-.254-.045l.025-8.769c.085.012.17.027.254.044"/><path class="o" d="M-476.69,868.376l-.025,8.769c-.079-.011-.158-.02-.238-.026l.024-8.77c.081.006.16.015.239.027"/><path class="p" d="M-476.929,868.349l-.024,8.77c-.079-.007-.159-.011-.24-.013l.025-8.77c.081,0,.16.006.239.013"/><path class="q" d="M-477.168,868.336l-.025,8.77c-.084,0-.169,0-.255,0l.025-8.77c.086,0,.171,0,.255,0"/><path class="r" d="M-477.423,868.337l-.025,8.77c-.1,0-.193.01-.292.02l.025-8.77c.1-.01.2-.016.292-.02"/><path class="s" d="M-477.715,868.357l-.025,8.77c-.126.012-.254.03-.385.054l.025-8.77c.13-.023.259-.041.385-.054"/><path class="t" d="M-478.1,868.411l-.025,8.77a5.529,5.529,0,0,0-.713.181l.025-8.77a5.527,5.527,0,0,1,.713-.181"/><path class="u" d="M-478.813,868.592l-.025,8.77a7.9,7.9,0,0,0-1.54.7l.025-8.77a7.894,7.894,0,0,1,1.54-.7"/></g></g></g><g class="b"><g class="v"><g class="b"><path class="n" d="M-467.893,870.231l-.025,8.77v.066l.025-8.77v-.066"/><path class="o" d="M-467.894,870.3l-.025,8.77a2.559,2.559,0,0,1-.051.442l.025-8.769a2.793,2.793,0,0,0,.051-.443"/><path class="p" d="M-467.945,870.74l-.025,8.769a3.061,3.061,0,0,1-.132.457l.025-8.77a3.078,3.078,0,0,0,.132-.456"/><path class="q" d="M-468.077,871.2l-.025,8.77a3.564,3.564,0,0,1-.233.495l.025-8.77a3.561,3.561,0,0,0,.233-.495"/><path class="r" d="M-468.31,871.691l-.025,8.77a4.638,4.638,0,0,1-.4.589l.025-8.769a4.64,4.64,0,0,0,.4-.59"/><path class="s" d="M-468.709,872.281l-.025,8.769a6.645,6.645,0,0,1-.718.769l.025-8.77a6.725,6.725,0,0,0,.718-.768"/><path class="t" d="M-469.427,873.049l-.025,8.77a12.268,12.268,0,0,1-1.984,1.45l.025-8.769a12.269,12.269,0,0,0,1.984-1.451"/><path class="u" d="M-471.411,874.5l-.025,8.769c-.082.05-.166.1-.251.149l.025-8.77c.085-.049.169-.1.251-.148"/></g></g></g><path class="g" d="M-480.353,869.294l-.025,8.77-15.986,9.29.025-8.77Z"/><g class="b"><g class="w"><g class="b"><path class="u" d="M-496.339,878.584l-.024,8.77-.135.08.025-8.77.134-.08"/><path class="t" d="M-496.473,878.664l-.025,8.77a5.588,5.588,0,0,0-.918.666l.025-8.77a5.651,5.651,0,0,1,.918-.666"/><path class="s" d="M-497.391,879.33l-.025,8.77a2.6,2.6,0,0,0-.288.307l.025-8.77a2.671,2.671,0,0,1,.288-.307"/><path class="r" d="M-497.679,879.637l-.025,8.77a1.717,1.717,0,0,0-.145.213l.025-8.769a1.648,1.648,0,0,1,.145-.214"/><path class="q" d="M-497.824,879.851l-.025,8.769a1.388,1.388,0,0,0-.083.176l.025-8.769a1.327,1.327,0,0,1,.083-.176"/><path class="p" d="M-497.907,880.027l-.025,8.769a.969.969,0,0,0-.045.156l.025-8.769a.918.918,0,0,1,.045-.156"/><path class="o" d="M-497.952,880.183l-.025,8.769a.836.836,0,0,0-.017.148l.025-8.77a.818.818,0,0,1,.017-.147"/><path class="n" d="M-497.969,880.33l-.025,8.77v.022l.024-8.77v-.022"/></g></g></g><path class="g" d="M-471.662,874.648l-.025,8.77-15.389,8.943.025-8.77Z"/><path class="f" d="M-470.937,866.469c4.327,2.5,4,5.433-.725,8.179l-15.388,8.943c-4.743,2.756-9.808,2.954-14.136.456-4.344-2.508-4-5.433.741-8.189l15.389-8.943C-480.33,864.169-475.282,863.96-470.937,866.469Zm-20.834,14.752,15.986-9.29c2.115-1.229,2.024-2.21.634-3.014-1.409-.813-3.086-.852-5.2.377l-15.986,9.29c-2.1,1.22-2.024,2.191-.616,3,1.391.8,3.086.853,5.184-.367"/><g class="b"><g class="x"><g class="b"><path class="u" d="M-487.05,883.591l-.025,8.77a17.161,17.161,0,0,1-3.33,1.5l.025-8.77a17.184,17.184,0,0,0,3.33-1.5"/><path class="t" d="M-490.38,885.091l-.025,8.77a14.829,14.829,0,0,1-1.922.485l.025-8.77a14.818,14.818,0,0,0,1.922-.485"/><path class="s" d="M-492.3,885.576l-.025,8.77q-.549.1-1.1.155l.024-8.77c.365-.037.731-.088,1.1-.155"/><path class="r" d="M-493.4,885.731l-.024,8.77c-.293.029-.586.048-.877.058l.025-8.77c.291-.009.584-.029.876-.058"/><path class="q" d="M-494.275,885.789l-.025,8.77q-.387.013-.771,0l.025-8.77q.384.009.771,0"/><path class="p" d="M-495.046,885.793l-.025,8.77c-.246-.006-.492-.019-.736-.04l.025-8.769c.244.02.49.033.736.039"/><path class="o" d="M-495.782,885.754l-.025,8.769q-.373-.03-.742-.083l.025-8.77q.369.053.742.084"/><path class="n" d="M-496.524,885.67l-.025,8.77q-.4-.057-.794-.138l.025-8.77c.263.054.528.1.794.138"/><path class="m" d="M-497.318,885.532l-.025,8.77c-.305-.064-.609-.138-.91-.225l.025-8.769c.3.086.605.161.91.224"/><path class="l" d="M-498.228,885.308l-.025,8.769q-.6-.171-1.188-.4l.025-8.77q.588.233,1.188.4"/><path class="k" d="M-499.416,884.9l-.025,8.77a13.517,13.517,0,0,1-1.77-.857c-2.046-1.182-3.053-2.456-3.049-3.761l.025-8.77c0,1.3,1,2.579,3.049,3.761a13.384,13.384,0,0,0,1.77.857"/></g></g></g></g><g class="b"><path class="g" d="M-547.619,863.425l-.025,8.77-11.567,6.722.025-8.77Z"/><path class="y" d="M-538.483,868.7l-.025,8.77-17.352,3.7.025-8.77Z"/><path class="z" d="M-562.368,873.409l-.025,8.77-3.642.7.025-8.77Z"/><path class="g" d="M-566.01,874.113l-.025,8.77-8.155,4.739.025-8.77Z"/><path class="h" d="M-574.165,878.852l-.025,8.77-3.967-2.29.025-8.77Z"/><path class="h" d="M-565.029,884.127l-.025,8.77-4.07-2.35.025-8.77Z"/><path class="f" d="M-538.483,868.7l-17.352,3.7-9.194,11.729-4.07-2.35,6.731-8.368-3.642.7-8.155,4.739-3.967-2.29,26.546-15.427,3.967,2.29-11.567,6.722,16.736-3.738Z"/><path class="aa" d="M-555.835,872.4l-.025,8.77-9.194,11.729.025-8.77Z"/></g><g class="b"><g class="b"><g class="ab"><g class="b"><path class="k" d="M-533.833,876.023l-.024,8.77c0-.408-.331-.778-.919-1.117a4.066,4.066,0,0,0-.54-.262l.025-8.77a4.07,4.07,0,0,1,.54.262c.588.34.92.709.918,1.117"/><path class="l" d="M-535.291,874.644l-.025,8.77c-.113-.044-.228-.084-.344-.117l.025-8.77c.116.034.231.073.344.117"/><path class="m" d="M-535.635,874.527l-.025,8.77c-.087-.025-.174-.046-.263-.065l.025-8.77c.089.019.176.04.263.065"/><path class="n" d="M-535.9,874.462l-.025,8.77c-.075-.015-.151-.029-.227-.04l.025-8.769c.076.011.152.024.227.039"/><path class="o" d="M-536.125,874.423l-.025,8.769c-.071-.01-.142-.018-.214-.024l.025-8.769c.072.006.143.014.214.024"/><path class="p" d="M-536.339,874.4l-.025,8.769c-.071-.005-.143-.009-.215-.011l.025-8.77c.072,0,.144.006.215.012"/><path class="q" d="M-536.554,874.387l-.025,8.77c-.076,0-.152,0-.229,0l.025-8.77c.077,0,.153,0,.229,0"/><path class="r" d="M-536.783,874.388l-.025,8.77c-.086,0-.174.009-.262.018l.025-8.77c.088-.009.175-.015.262-.018"/><path class="s" d="M-537.045,874.406l-.025,8.77c-.114.011-.229.027-.346.049l.024-8.77c.118-.022.233-.038.347-.049"/><path class="t" d="M-537.392,874.455l-.024,8.77a4.947,4.947,0,0,0-.639.161l.025-8.77a4.969,4.969,0,0,1,.638-.161"/><path class="u" d="M-538.03,874.616l-.025,8.77a7.052,7.052,0,0,0-1.375.627l.025-8.77a7.114,7.114,0,0,1,1.375-.627"/></g></g></g><g class="b"><g class="ac"><g class="b"><path class="n" d="M-528.228,876.081l-.025,8.77v.058l.025-8.769v-.059"/><path class="o" d="M-528.229,876.14l-.025,8.769a2.322,2.322,0,0,1-.046.4l.025-8.769a2.339,2.339,0,0,0,.046-.4"/><path class="p" d="M-528.275,876.536l-.025,8.769a2.551,2.551,0,0,1-.118.409l.025-8.77a2.533,2.533,0,0,0,.118-.408"/><path class="q" d="M-528.393,876.944l-.025,8.77a3.064,3.064,0,0,1-.209.444l.025-8.77a3.064,3.064,0,0,0,.209-.444"/><path class="r" d="M-528.6,877.388l-.025,8.77a4.085,4.085,0,0,1-.357.528l.025-8.77a4.092,4.092,0,0,0,.357-.528"/><path class="s" d="M-528.959,877.916l-.025,8.77a6.065,6.065,0,0,1-.645.69l.025-8.77a6.087,6.087,0,0,0,.645-.69"/><path class="t" d="M-529.6,878.606l-.025,8.77a11.041,11.041,0,0,1-1.792,1.311l.024-8.77a11.013,11.013,0,0,0,1.793-1.311"/><path class="u" d="M-531.4,879.917l-.024,8.77c-.075.045-.151.09-.228.134l.025-8.769.227-.135"/></g></g></g><path class="g" d="M-539.405,875.243l-.025,8.77-14.331,8.328.025-8.77Z"/><g class="b"><g class="ad"><g class="b"><path class="u" d="M-553.736,883.571l-.025,8.77-.121.072.025-8.77.121-.072"/><path class="t" d="M-553.857,883.643l-.025,8.77a5.2,5.2,0,0,0-.833.6l.025-8.769a5.207,5.207,0,0,1,.833-.6"/><path class="s" d="M-554.69,884.248l-.025,8.769a2.355,2.355,0,0,0-.261.279l.024-8.769a2.3,2.3,0,0,1,.262-.279"/><path class="r" d="M-554.952,884.527l-.024,8.769a1.643,1.643,0,0,0-.133.2l.025-8.77a1.668,1.668,0,0,1,.132-.194"/><path class="q" d="M-555.084,884.721l-.025,8.77a1.273,1.273,0,0,0-.075.16l.025-8.769a1.1,1.1,0,0,1,.075-.161"/><path class="p" d="M-555.159,884.882l-.025,8.769a.866.866,0,0,0-.041.142l.025-8.77a.836.836,0,0,1,.041-.141"/><path class="o" d="M-555.2,885.023l-.025,8.77a.887.887,0,0,0-.016.134l.025-8.77a.777.777,0,0,1,.016-.134"/><path class="n" d="M-555.216,885.157l-.025,8.77v.02l.025-8.77v-.02"/></g></g></g><path class="g" d="M-531.624,880.052l-.025,8.77-13.8,8.021.025-8.77Z"/><path class="f" d="M-530.964,872.705c3.9,2.251,3.588,4.878-.66,7.347l-13.8,8.02c-4.248,2.469-8.783,2.658-12.681.407-3.881-2.241-3.588-4.878.66-7.347l13.8-8.02C-539.4,870.643-534.845,870.464-530.964,872.705Zm-18.668,13.236,14.331-8.328c1.894-1.1,1.821-1.973.55-2.707-1.254-.724-2.76-.763-4.654.337l-14.331,8.328c-1.893,1.1-1.837,1.983-.584,2.707,1.271.734,2.795.763,4.688-.337"/><g class="b"><g class="ae"><g class="b"><path class="u" d="M-545.426,888.072l-.025,8.77a15.351,15.351,0,0,1-2.991,1.348l.025-8.77a15.4,15.4,0,0,0,2.991-1.348"/><path class="t" d="M-548.417,889.42l-.025,8.77a13.189,13.189,0,0,1-1.721.435l.025-8.77a13.182,13.182,0,0,0,1.721-.435"/><path class="s" d="M-550.138,889.855l-.025,8.77q-.492.089-.982.138l.025-8.77q.49-.049.982-.138"/><path class="r" d="M-551.12,889.993l-.025,8.77c-.262.026-.524.044-.784.053l.024-8.77q.392-.014.785-.053"/><path class="q" d="M-551.905,890.046l-.024,8.77q-.346.011-.69,0l.025-8.77q.344.009.689,0"/><path class="p" d="M-552.594,890.049l-.025,8.77c-.221-.006-.44-.018-.659-.036l.024-8.769c.219.018.439.029.66.035"/><path class="o" d="M-553.254,890.014l-.024,8.769c-.223-.018-.444-.043-.665-.074l.025-8.77q.332.046.664.075"/><path class="n" d="M-553.918,889.939l-.025,8.77q-.357-.051-.711-.124l.025-8.77q.354.074.711.124"/><path class="m" d="M-554.629,889.815l-.025,8.77q-.411-.086-.816-.2l.024-8.77q.406.115.817.2"/><path class="l" d="M-555.446,889.614l-.024,8.77q-.539-.154-1.067-.363l.025-8.77q.528.209,1.066.363"/><path class="k" d="M-556.512,889.251l-.025,8.77a11.987,11.987,0,0,1-1.6-.772c-1.83-1.057-2.732-2.2-2.729-3.375l.025-8.77c0,1.174.9,2.318,2.729,3.375a11.979,11.979,0,0,0,1.595.772"/></g></g></g></g><g class="b"><path class="h" d="M-523.5,881.757l-.025,8.77-4.139-2.389.025-8.77Z"/><path class="h" d="M-515.4,886.436l-.025,8.77-4.138-2.389.025-8.77Z"/><path class="g" d="M-511.592,884.226l-.025,8.77-3.8,2.211.025-8.77Z"/><path class="g" d="M-510.256,890.452l-.025,8.77-15.333,6.7.025-8.77Z"/><path class="f" d="M-511.592,884.226l-3.8,2.211-4.138-2.389-22.742,13.216-3.967-2.29,22.742-13.216-4.138-2.389,3.8-2.211Z"/><path class="g" d="M-519.535,884.047l-.025,8.77L-542.3,906.033l.025-8.77Z"/><path class="h" d="M-542.276,897.263l-.025,8.77-3.967-2.29.025-8.77Z"/><path class="g" d="M-529.7,898.949l-.025,8.77-5.481,2.409.025-8.77Z"/><path class="h" d="M-535.184,901.358l-.025,8.77-3.64-2.1.025-8.77Z"/><path class="h" d="M-524.844,901.754l-.025,8.77-4.86-2.806.025-8.77Z"/><path class="af" d="M-502.456,889.5l-.025,8.77-22.511,17.757.025-8.77Z"/><path class="h" d="M-524.967,907.257l-.025,8.77-4-2.31.025-8.77Z"/><path class="f" d="M-502.456,889.5l-22.511,17.757-4-2.31,4.124-3.193-4.86-2.805-5.48,2.409-3.641-2.1,30.582-13.1Zm-23.133,7.654,3.813,2.2,11.52-8.9-15.333,6.7"/></g></g><g transform="translate(623.523 3619)"><g transform="translate(0 39.938)"><g class="b"><g transform="translate(0.045)"><path class="ag" d="M75.823,20.151c10.463-6.135,27.609-6.177,38.229-.1l68.86,39.423c10.62,6.08,10.748,16.011.289,22.141l-68.01,39.861c-10.463,6.135-27.609,6.177-38.229.1L8.1,82.153c-10.62-6.08-10.748-16.011-.289-22.141ZM179.677,61.372l-68.86-39.423C102,16.9,87.761,16.958,79.11,22.03L11.1,61.891c-8.686,5.089-8.579,13.32.238,18.366L80.2,119.681c8.788,5.029,23.026,5.008,31.711-.081l68.01-39.861c8.652-5.072,8.545-13.337-.242-18.366" transform="translate(-0.053 -15.521)"/></g><g transform="translate(4.647 2.674)"><path class="ah" d="M75.59,19.985c8.652-5.072,22.89-5.127,31.707-.081l68.86,39.423c8.788,5.029,8.894,13.294.242,18.366l-68.01,39.861c-8.686,5.089-22.924,5.11-31.711.081L7.818,78.212C-1,73.166-1.105,64.935,7.58,59.846Z" transform="translate(-1.135 -16.15)"/></g><path class="ai" d="M191,28.5c0,.259-.042.519-.068.778-.025.289-.047.578-.1.863-.042.23-.111.455-.17.68a8.08,8.08,0,0,1-.234.816c-.077.221-.179.434-.272.65-.123.285-.247.57-.4.85-.106.2-.234.4-.357.6-.2.319-.4.633-.638.944-.136.183-.281.366-.429.544a16.2,16.2,0,0,1-1.178,1.267c-.136.132-.259.264-.4.4-.264.234-.553.463-.838.689-.242.2-.476.4-.735.587-.31.225-.65.438-.978.655s-.625.425-.969.629l-68.01,39.861a29.461,29.461,0,0,1-3.758,1.8c-.353.14-.714.276-1.076.408-.821.3-1.684.54-2.551.782-.884.251-1.781.485-2.7.676-1.05.217-2.109.412-3.189.553-.3.038-.587.094-.884.123-1.492.162-3,.247-4.515.264-.247,0-.489,0-.735,0-1.5-.009-3-.089-4.485-.238l-.672-.077a42.983,42.983,0,0,1-4.37-.735c-.247-.055-.489-.119-.735-.179a37.7,37.7,0,0,1-3.7-1.114c-.251-.089-.514-.162-.765-.259A29.617,29.617,0,0,1,77,79.4L8.137,39.976c-4.03-2.3-6.551-5.165-7.555-8.167a9.587,9.587,0,0,1-.5-3.027L.042,43.823c-.009,4.06,2.678,8.12,8.052,11.2l68.86,39.419a29.122,29.122,0,0,0,3.809,1.82c.094.038.191.06.285.1.251.094.514.166.77.259.735.259,1.462.531,2.228.748.476.136.978.242,1.467.361.247.06.485.123.735.179.2.047.4.106.612.149.88.183,1.777.34,2.678.468.357.051.718.081,1.08.123.225.026.446.051.672.072.293.03.587.077.884.1.884.077,1.777.123,2.666.145.315.009.625,0,.935,0,.247,0,.489,0,.736,0,.37,0,.74.008,1.11,0,1-.034,2.007-.1,3-.2.136-.013.268-.043.4-.055.3-.034.587-.085.884-.123.727-.094,1.458-.174,2.172-.306.349-.06.672-.179,1.016-.251.923-.191,1.811-.421,2.7-.672.455-.132.948-.2,1.394-.349.4-.128.765-.3,1.152-.438.366-.132.723-.264,1.076-.408a28.637,28.637,0,0,0,3.758-1.8l68.01-39.861.255-.153c.255-.153.476-.319.718-.48.327-.213.667-.425.969-.646.268-.2.5-.4.748-.6.281-.225.57-.446.825-.68.043-.038.1-.077.14-.115.1-.094.17-.2.268-.289a15.253,15.253,0,0,0,1.169-1.258c.072-.089.17-.17.242-.259s.123-.191.2-.289c.23-.31.434-.621.629-.94.081-.128.187-.255.259-.383.042-.072.064-.149.1-.221a8.847,8.847,0,0,0,.4-.842c.072-.162.166-.319.225-.476.021-.06.03-.123.051-.183.1-.268.162-.54.234-.812.047-.179.115-.353.153-.531.008-.051.008-.1.017-.153.051-.285.072-.574.1-.867.017-.179.055-.357.064-.536l0-.238h0Z" transform="translate(-0.042 26.669)"/></g></g><g transform="translate(34.292)"><path class="aj" d="M80.034,86.628a23.683,23.683,0,0,1-21.584,0L12.572,60.074c-5.952-3.469-5.952-9,0-12.474L58.555,21.029a23.683,23.683,0,0,1,21.584,0L126.123,47.6c5.952,3.469,5.952,9,0,12.474Z" transform="translate(-8.108 33.866)"/></g></g></g></svg>