<svg xmlns="http://www.w3.org/2000/svg" xmlns:xlink="http://www.w3.org/1999/xlink" width="211.956" height="266.895" viewBox="0 0 211.956 266.895"><defs><style>.a,.g,.h{fill:none;}.b{isolation:isolate;}.c{fill:#521168;}.d{fill:#b0b2b2;}.e{fill:#2d2d2c;}.f{fill:#6e7072;}.g{stroke:#fff;stroke-width:9.531px;}.g,.h{stroke-linejoin:round;}.h{stroke:#490c5a;stroke-width:4.765px;}.i{fill:#622378;}.j{fill:#fff;}.k{clip-path:url(#a);}.l{fill:#5d1f72;}.m{fill:#5b1d70;}.n{fill:#591c6d;}.o{fill:#571a6a;}.p{fill:#551868;}.q{fill:#531666;}.r{fill:#511463;}.s{fill:#4f1361;}.t{fill:#4d115f;}.u{fill:#4b0e5c;}.v{fill:#490c5a;}.w{fill:#4a0e5c;}.x{fill:#602176;}.y{clip-path:url(#b);}.z{clip-path:url(#c);}.aa{clip-path:url(#d);}.ab{fill:#612277;}.ac{clip-path:url(#e);}.ad{clip-path:url(#f);}.ae{clip-path:url(#g);}.af{clip-path:url(#h);}.ag{clip-path:url(#i);}</style><clipPath id="a"><path class="a" d="M412.5,88.531l-.026,8.969c-6.054,3.518-10.873,2.535-14.491.446a24.607,24.607,0,0,1-2.213-1.379l.025-8.969a24.744,24.744,0,0,0,2.213,1.379C401.624,91.066,406.443,92.049,412.5,88.531Z"/></clipPath><clipPath id="b"><path class="a" d="M460.489,95.583l-.026,8.969c0-.483-.408-.925-1.134-1.344l.026-8.969C460.08,94.658,460.49,95.1,460.489,95.583Z"/></clipPath><clipPath id="c"><path class="a" d="M467.206,95.878l-.026,8.968c0,1.461-1.286,2.929-3.773,4.374l.025-8.968C465.92,98.806,467.2,97.339,467.206,95.878Z"/></clipPath><clipPath id="d"><path class="a" d="M448.13,109.144l-.025,8.969c-4.85,2.818-9.838,2.991-14.632.223l.025-8.969C438.292,112.135,443.28,111.963,448.13,109.144Z"/></clipPath><clipPath id="e"><path class="a" d="M390.334,101.84l-.026,8.969c0-.472-.391-.9-1.1-1.314-1.51-.872-3.208-.9-5.372.354a4.617,4.617,0,0,0-2.577,4.437l.026-8.969a4.615,4.615,0,0,1,2.577-4.436c2.163-1.258,3.861-1.227,5.372-.355C389.943,100.936,390.335,101.369,390.334,101.84Z"/></clipPath><clipPath id="f"><path class="a" d="M396.72,101.93l-.026,8.969c0,1.5-1.315,3.024-3.849,4.5l.026-8.969C395.4,104.955,396.715,103.432,396.72,101.93Z"/></clipPath><clipPath id="g"><path class="a" d="M374.669,108.562l-.026,8.969c0-1.151-.2-2.372-.194-3.617l.026-8.969C374.471,106.19,374.672,107.411,374.669,108.562Z"/></clipPath><clipPath id="h"><path class="a" d="M365.494,120.892l.025-8.969c0-.535.5-1.121,1.623-1.775l-.025,8.969C365.991,119.771,365.5,120.356,365.494,120.892Z"/></clipPath><clipPath id="i"><path class="a" d="M381.485,108.982l-.026,8.969c-.006,2.218-.669,4.511-4.3,6.621-4.833,2.808-10.048,3.011-14.754.294-2.249-1.3-3.343-2.669-3.339-4.054l.025-8.969c0,1.385,1.09,2.756,3.339,4.054,4.707,2.717,9.922,2.515,14.755-.294C380.815,113.494,381.479,111.2,381.485,108.982Z"/></clipPath></defs><g transform="translate(-193 -1522.26)"><g transform="translate(194.008 1576.479)"><g class="b"><path class="c" d="M115.465,17.616l-7.093-4.095L5.974,73.448c-8.918,5.183-8.871,13.617.106,18.8l123.892,70.781,7.047-4.1L13.127,88.152c-5.063-2.923-5.1-7.682-.059-10.609l102.4-59.927"/></g></g><g transform="translate(193 1460)"><g transform="translate(0 62.26)"><g class="b"><g transform="translate(0.045)"><path class="d" d="M75.562,20.135c10.427-6.114,27.514-6.156,38.1-.1l68.623,39.287c10.583,6.059,10.711,15.956.288,22.065l-67.775,39.724c-10.427,6.114-27.514,6.156-38.1.1L8.075,81.923C-2.509,75.865-2.636,65.968,7.786,59.858Zm103.5,41.08L110.435,21.927c-8.787-5.029-22.976-4.974-31.6.08L11.061,61.731C2.406,66.8,2.512,75,11.3,80.034l68.623,39.287c8.757,5.012,22.946,4.991,31.6-.08L179.3,79.517c8.622-5.054,8.516-13.291-.242-18.3" transform="translate(-0.053 -15.521)"/></g><g transform="translate(4.631 2.664)"><path class="e" d="M75.333,19.972c8.622-5.054,22.811-5.11,31.6-.08l68.623,39.287c8.757,5.012,8.863,13.248.242,18.3L108.02,117.205c-8.656,5.071-22.845,5.093-31.6.081L7.8,78C-.992,72.969-1.1,64.767,7.558,59.7Z" transform="translate(-1.135 -16.15)"/></g><path class="f" d="M190.34,28.5c0,.258-.042.517-.068.775-.025.288-.047.576-.1.86-.042.229-.11.453-.169.678a8.049,8.049,0,0,1-.233.813c-.076.22-.178.432-.271.648-.123.284-.246.568-.4.847-.106.2-.233.4-.356.6-.195.318-.4.631-.636.941-.136.182-.28.364-.428.542a16.133,16.133,0,0,1-1.174,1.263c-.136.131-.258.263-.4.394-.263.233-.551.462-.835.686-.241.195-.475.394-.733.585-.309.225-.648.436-.974.652s-.623.424-.966.627L114.829,79.131a29.36,29.36,0,0,1-3.745,1.792c-.352.14-.712.275-1.072.407-.818.3-1.678.538-2.542.78-.881.25-1.775.483-2.69.674-1.046.216-2.1.411-3.178.551-.3.038-.585.093-.881.123-1.487.161-2.991.246-4.5.263-.246,0-.487,0-.733,0-1.5-.008-2.991-.089-4.47-.237l-.669-.076a42.838,42.838,0,0,1-4.355-.733c-.246-.055-.487-.119-.733-.178a37.576,37.576,0,0,1-3.686-1.11c-.25-.089-.513-.161-.763-.258a29.514,29.514,0,0,1-4.08-1.907L8.109,39.936C4.092,37.64,1.58,34.789.58,31.8a9.553,9.553,0,0,1-.5-3.017L.042,43.771c-.008,4.046,2.669,8.092,8.024,11.16L76.689,94.213a29.02,29.02,0,0,0,3.8,1.813c.093.038.191.059.284.1.25.093.513.165.767.258.733.258,1.457.53,2.22.746.475.136.974.241,1.462.36.246.059.483.123.733.178.2.047.4.106.61.148.877.182,1.771.339,2.669.466.356.051.716.08,1.076.123.225.025.445.051.669.072.292.03.585.076.881.1.881.076,1.771.123,2.656.144.314.008.623,0,.932,0,.246,0,.487,0,.733,0,.369,0,.737.008,1.106,0,1-.034,2-.1,2.991-.2.136-.013.267-.042.4-.055.3-.034.585-.085.881-.123.724-.093,1.453-.174,2.165-.305.347-.059.669-.178,1.013-.25.919-.191,1.8-.419,2.695-.669.453-.131.945-.2,1.39-.347.4-.127.763-.3,1.148-.436.364-.131.72-.263,1.072-.407a28.54,28.54,0,0,0,3.745-1.792L182.562,54.4l.254-.153c.254-.153.475-.318.716-.479.326-.212.665-.424.966-.644.267-.195.5-.394.746-.593.28-.225.568-.445.822-.678.042-.038.1-.076.14-.114.1-.093.169-.195.267-.288a15.192,15.192,0,0,0,1.165-1.254c.072-.089.169-.169.241-.258s.123-.191.195-.288c.229-.309.432-.619.627-.936.081-.127.186-.254.258-.381.042-.072.064-.148.1-.22a8.816,8.816,0,0,0,.394-.839c.072-.161.165-.318.225-.475.021-.059.03-.123.051-.182.1-.267.161-.538.233-.809.047-.178.114-.352.153-.53.008-.051.008-.1.017-.153.051-.284.072-.572.1-.864.017-.178.055-.356.064-.534l0-.237h0Z" transform="translate(-0.042 26.479)"/></g></g></g><g transform="translate(-120.067 1610.449)"><path class="g" d="M483.371,150.269h0l-14.792-8.537-4.046,2.352.013-4.684h0l-7.007-4.045-31.621,13.3,0-1.52-4.327,2.515-.156-.091h0l.152.088,4.326-2.515h0l-.151-.087,18.172-10.561.026-8.959.009,0h0l-4.795-2.767-7.109,4.133.023-8.177v-.048h0l-6.99-4.035-7.114,2.989.02-7.086-4.865-2.808h0L407.68,112.9l.018-6.317-4.777-2.758-6.217,3.613.016-5.5c0,.034-.021.068-.023.1v0a3.09,3.09,0,0,0-.756-2.072c-.032-.041-.088-.082-.122-.122a6.4,6.4,0,0,0-.9-.892,11.613,11.613,0,0,0-1.482-1,14.21,14.21,0,0,0-3.573-1.473,14.535,14.535,0,0,0-11.077,1.828,13.182,13.182,0,0,0-1.342.894c-.135.1-.243.2-.366.308-.241.2-.473.4-.673.6-.121.123-.225.247-.332.371-.159.184-.308.368-.438.553-.093.133-.18.265-.258.4a5.955,5.955,0,0,0-.281.534c-.064.138-.131.275-.183.413-.065.172-.113.344-.161.515-.04.144-.088.287-.117.43s-.044.291-.064.436a8.954,8.954,0,0,0-.089,1.271c0,.012,0,.024,0,.036,0-.038-.006-.074-.006-.112l-.015,5.213a4.371,4.371,0,0,1-.282.753c-.015.031-.037.062-.054.094a4.025,4.025,0,0,1-.4.631c-.071.09-.166.175-.247.263a4.632,4.632,0,0,1-.429.438,6.68,6.68,0,0,1-.935.657l-.019.013c-.047.027-.087.035-.133.06a7.643,7.643,0,0,1-1.338.6,5.4,5.4,0,0,1-1.332.254l.014-5.035-4.531-2.616-1.867,1.085a14.454,14.454,0,0,0-1.408.934c-.1.071-.194.141-.284.212a8.42,8.42,0,0,0-.9.825c-.122.129-.228.257-.331.387a4.614,4.614,0,0,0-.341.5,3.6,3.6,0,0,0-.363.781c-.02.067-.039.134-.055.2a2.662,2.662,0,0,0-.034,1.157h0a2.8,2.8,0,0,1-.1-.513l-.025,8.969c0,1.385,1.09,2.755,3.338,4.054a15.12,15.12,0,0,0,1.9.922c.033.013.065.034.1.047.214.085.431.147.646.22s.43.157.646.219c.074.022.148.035.222.055s.16.039.24.059l.124.031c.133.031.265.07.4.1.279.058.559.106.839.146.09.013.181.02.271.03l.158.018c.116.013.232.029.348.039q.382.032.765.041c.2,0,.4,0,.607,0h.193c.144-.005.288-.019.433-.029s.309-.016.464-.031c.227-.023.454-.062.681-.1.085-.013.169-.021.254-.036.057-.009.113-.013.17-.024.233-.042.465-.121.7-.176l.025,0,.065-.015-.011,4,4.776,2.758,5.462-3.174,0,1.323-.014,4.994,4.864,2.809,1.985-1.154.235-.136v.232l-.007,2.335,2.2,1.268,2.195,1.267h0l6.322-2.717,1.23.71-.018,6.357,4.83,2.788,2.221-1.786-.008,3.064,12.662,7.31.828-.481,0,.958,4.39,2.535,6.322-2.718,1.123.649.107.062-.018,6.356,4.812,2.779,4.2-3.37-.016,5.783,4.794,2.768,25.927-15.067,4.988,2.879,4.327-2.515.021-7.438,0-1.52.008,0-.008,0Zm-37.732,13.262h0l2.491,1.438,18.166-10.56,0,0L448.13,164.971l-2.492-1.439Zm12.025-9.657,6.581-5.285,0,1.462Zm11.583-1.18,4.8-2.793.006,0-4.809,2.794ZM365.932,111.059c.022-.022.049-.046.072-.068l-.03.031C365.963,111.034,365.944,111.047,365.932,111.059Zm.3-.271-.013.011,0,0,.037-.032Zm.66-.478,0,0c-.161.1-.332.2-.463.3.135-.1.307-.207.474-.312Zm14.818-7.228h0c-.01.024-.019.048-.029.071s-.025.052-.036.079h0C381.668,103.181,381.691,103.131,381.713,103.082Zm.455-.766v0l-.006.011c-.01.013-.024.025-.033.038h0C382.142,102.347,382.156,102.332,382.168,102.316Zm-.765,1.706c.008-.037.022-.073.031-.11l-.005.021c0,.011-.007.021-.009.032S381.407,104,381.4,104.022Zm15.078-1c-.012.029-.028.059-.041.088l0,.008c0,.007-.009.013-.012.02a3.087,3.087,0,0,0,.135-.471l0,.009A2.522,2.522,0,0,1,396.481,103.02Zm-.488.783c-.044.061-.071.123-.119.185a1.078,1.078,0,0,1-.085.131c-.018.021-.041.043-.06.064C395.838,104.056,395.9,103.929,395.993,103.8Zm-1.1,1.183c-.07.062-.123.125-.2.187l-.01.008-.045.036c.019-.015.034-.031.052-.047C394.764,105.109,394.82,105.048,394.891,104.986Zm-9.5,4.151a5.116,5.116,0,0,1,.661-.127,5.215,5.215,0,0,1,.7-.134h0l.017,0a4.106,4.106,0,0,1,.612.064v.369l-.01,3.549-5.91,3.434.006-2.077,0-1.564c.025-.086.043-.173.073-.258s.074-.183.113-.274c.031-.07.062-.139.1-.208.012-.026.022-.052.035-.078.051-.1.112-.188.172-.281.029-.045.061-.09.091-.135s.051-.082.082-.122c.06-.08.133-.158.2-.236.091-.1.184-.209.291-.311.059-.057.13-.113.2-.169a6.3,6.3,0,0,1,.836-.613c.061-.038.109-.077.173-.115A8.162,8.162,0,0,1,385.393,109.137Zm-2.484-7.58-.06.052c-.015.013-.037.024-.051.037h0c.051-.045.107-.088.161-.133Zm-1.836,9.951c-.011.029-.028.057-.039.086l0,0a5.554,5.554,0,0,0,.171-.552C381.16,111.2,381.13,111.354,381.073,111.508Zm-.388.839c-.033.06-.083.119-.119.179.039-.065.066-.13.1-.2.078-.14.156-.28.22-.42C380.822,112.056,380.767,112.2,380.685,112.347Zm-.35.525-.005.008c-.038.054-.075.11-.11.164s-.053.086-.086.129-.067.069-.1.1c-.045.054-.1.108-.15.162.153-.177.294-.354.42-.532C380.317,112.894,380.327,112.883,380.335,112.872Zm-.834.983c-.06.06-.105.121-.169.182-.136.128-.3.255-.458.382.169-.141.323-.282.472-.424C379.395,113.948,379.454,113.9,379.5,113.855Zm-.983.86c-.036.028-.063.056-.1.084s-.061.038-.087.058c-.344.249-.716.495-1.135.739A13.013,13.013,0,0,0,378.518,114.715Z"/><path class="g" d="M520.257,124.408h0l-4.8-2.767-7.109,4.133.023-8.225-6.989-4.035-5.372,2.257.015-5.31v-.04h0l-4.179-2.413-4.879,2.307.014-5.115-4.619-2.667-4.3,2.059-.582.279.015-5.147h0l-2.327-1.343-2.327-1.344-5.658,4.115.015-5.275c0,.021-.013.042-.014.062a3.127,3.127,0,0,0-.819-2.088c-.027-.034-.075-.067-.1-.1a7.039,7.039,0,0,0-.976-.935,12.922,12.922,0,0,0-1.542-1.031l-7.569-4.37-7.1,4.127.023-8.213L442.1,79.284h0l-6.886,2.893.02-6.858-4.795-2.768L407.354,85.966a5.351,5.351,0,0,1-3.781.805,5.838,5.838,0,0,1-1.837-.714c-.527-.3-1.124-.649-1.616-.974h0l-2.515,1.462L395.793,87.6h0l-.013,4.478-.012,4.491c.14.1.279.183.417.276.554.372,1.107.7,1.8,1.1a15.489,15.489,0,0,0,1.779.864c.082.034.152.082.235.114.2.078.406.138.609.208.149.051.294.106.447.152.063.019.121.045.184.063.3.085.607.162.92.226.1.021.208.036.312.055l.178.031c.1.016.189.036.285.05l.066.007c.214.029.429.054.649.073.117.009.236.013.355.019.1.005.2.012.294.015l.027,0h.027c.242.006.486.005.734,0,.274-.01.551-.028.831-.056l.025,0c.05,0,.1-.016.154-.022.078-.009.158-.023.237-.034.2-.027.409-.049.617-.087l-.009,3.394,4.408,2.545,6.321-2.717,1.213.7-.018,6.357,4.83,2.788h0l2.221-1.784-.008,3.062,7.569,4.37a15.932,15.932,0,0,0,1.986.963c.049.02.1.051.146.07q.649.256,1.3.443c.043.012.087.02.131.032.06.017.12.029.181.045.22.057.44.117.661.163q.408.084.816.142l.142.016.034,0h0c.045.006.09.01.135.015.147.017.294.037.442.049.123.01.246.013.369.02s.245.017.368.02.22,0,.329,0h.3c.045,0,.091,0,.137,0q.426-.015.854-.058c.215-.021.429-.058.644-.09h0c.08-.012.16-.02.24-.034.057-.009.113-.014.17-.024.245-.044.489-.127.733-.185.334-.079.668-.149,1-.253.021-.007.041-.009.062-.016a.859.859,0,0,0,.084-.021c.1-.034.208-.082.311-.121.239-.083.476-.181.714-.277.031-.013.062-.022.094-.035s.076-.026.114-.042l-.018,6.387h0l6.568,3.792,3.487-1.634-.01,3.641h0l6.357,3.671,3.875-1.8-.011,4.03,4.39,2.535,6.322-2.717,1.231.71-.019,6.357,4.83,2.788,2.221-1.786-.008,3.064,12.662,7.31,4.327-2.514.025-8.969h0l-4.327,2.515-.156-.091h0l.011.006.141.081h0l4.326-2.515-.15-.087,18.171-10.56.026-8.959.009-.005ZM466.94,97a2.978,2.978,0,0,0,.115-.433,2.867,2.867,0,0,1-.069.31c-.006.02-.005.041-.013.061l-.014.029c-.008.017-.016.033-.023.05Zm-.678,1.039c.1-.119.16-.239.245-.358-.076.106-.119.212-.208.319l-.019.019Zm-1.04.988-.019.016-.013.01c.091-.073.157-.147.242-.221C465.357,98.893,465.3,98.958,465.222,99.023Z"/><path class="h" d="M399.759,98.81c.082.034.153.082.236.114.2.079.408.139.612.209.148.05.292.1.443.15.063.02.122.045.185.064.3.086.607.162.92.226.1.022.209.036.313.055l.176.031c.1.015.189.036.286.05q.353.049.715.08c.212.017.428.028.646.034l.032,0h.025q.361.009.734,0c.274-.01.551-.028.831-.056.059-.006.121-.019.181-.025.077-.009.155-.023.233-.033.206-.027.41-.05.619-.088l-.009,3.394,4.408,2.545,6.321-2.717,1.213.7-.018,6.357,4.83,2.788,2.221-1.784-.009,3.062,7.57,4.37a15.878,15.878,0,0,0,1.987.963c.048.02.1.051.145.07q.649.256,1.3.443c.043.012.086.02.13.032.061.016.122.029.184.045.219.057.439.117.659.163q.408.084.816.142c.058.008.117.012.176.02l.137.015c.147.017.294.037.441.049q.368.032.737.04c.168,0,.336,0,.5,0h.126c.045,0,.09,0,.136,0q.426-.015.854-.058c.215-.021.429-.058.644-.09.08-.012.161-.021.241-.034.057-.01.114-.014.17-.024.244-.044.487-.127.73-.184.335-.08.671-.149,1.006-.254.048-.016.1-.022.145-.037.342-.111.682-.26,1.023-.4.07-.028.14-.049.21-.078l-.018,6.387,6.568,3.792,3.487-1.634-.01,3.641,6.357,3.671,3.876-1.8-.012,4.03,4.39,2.535,6.322-2.717,1.231.71-.019,6.357,4.83,2.788,2.221-1.786-.008,3.064,12.662,7.31,4.327-2.514.025-8.969-4.327,2.515-.156-.091h0l.152.087,4.326-2.515-.15-.087,18.171-10.56.026-8.959.009-.005-4.8-2.767-7.109,4.133.023-8.225-6.989-4.035-5.372,2.256.015-5.349-4.179-2.413-4.879,2.307.014-5.115-4.619-2.667-4.879,2.338.015-5.147-4.654-2.686-5.658,4.115.015-5.276c0,.021-.014.042-.014.063.039-1.4-1.079-2.791-3.44-4.155l-7.569-4.37-7.1,4.127.023-8.213L442.1,79.284l-6.886,2.893.02-6.858-4.795-2.768L407.354,85.966a5.114,5.114,0,0,1-5.618.091c-.527-.3-1.124-.649-1.616-.973L395.793,87.6l-.025,8.969a24.607,24.607,0,0,0,2.213,1.379A15.555,15.555,0,0,0,399.759,98.81Zm65.465.212-.036.029c.1-.077.165-.154.254-.232C465.364,98.887,465.307,98.955,465.224,99.022Zm1.749-2.088c-.011.026-.025.052-.037.079a2.82,2.82,0,0,0,.119-.452A2.768,2.768,0,0,1,466.973,96.934Zm-.464.739c-.076.107-.12.215-.21.322-.011.014-.025.026-.037.04C466.365,97.914,466.424,97.793,466.509,97.673Zm-6.04-2.136a1.048,1.048,0,0,0-.27-.638A1.05,1.05,0,0,1,460.469,95.537Zm-.313-.68a3.291,3.291,0,0,0-.8-.618A3.291,3.291,0,0,1,460.156,94.857Z"/><path class="h" d="M362.406,124.866a14.951,14.951,0,0,0,1.9.921c.033.014.066.035.1.048q.642.253,1.292.439c.075.022.149.036.224.056s.157.038.236.058c.175.043.349.092.524.129.279.058.559.106.839.146.09.013.181.019.271.03l.159.018c.116.013.231.029.347.039q.382.032.765.041c.2,0,.406,0,.609,0h.191q.448-.015.9-.06c.227-.023.454-.062.682-.1.084-.013.168-.021.253-.036.057-.009.113-.013.17-.024.233-.042.465-.121.7-.176l.09-.02-.011,4,4.777,2.758,5.461-3.174-.017,6.317,4.864,2.809,2.22-1.29-.007,2.568,4.39,2.534,6.322-2.717,1.23.71-.018,6.357,4.83,2.788,2.221-1.786-.008,3.064,12.662,7.31.828-.481,0,.958,4.39,2.535,6.322-2.718,1.23.711-.018,6.356,4.812,2.779,4.2-3.37-.016,5.783,4.794,2.768,25.927-15.067,4.988,2.879,4.327-2.514.025-8.959.008,0-.008,0h0l-14.792-8.537-4.046,2.352.013-4.685-7.007-4.045-31.621,13.3,0-1.52-4.327,2.515-.156-.091h0l.152.088,4.326-2.515-.151-.087,18.172-10.561.026-8.959.009,0-4.795-2.767-7.109,4.133.023-8.225-6.989-4.035-7.115,2.989.02-7.086-4.865-2.808L407.68,112.9l.018-6.317-4.777-2.758-6.217,3.613.016-5.5c0,.034-.021.068-.023.1.059-1.4-.992-2.782-3.261-4.092-4.654-2.687-9.817-2.453-14.65.355-3.707,2.155-4.321,4.5-4.305,6.763,0-.038-.006-.075-.006-.113l-.015,5.213a4.609,4.609,0,0,1-2.365,2.849,6.27,6.27,0,0,1-2.8.919l.015-5.035-4.531-2.616-1.867,1.085c-2.8,1.628-4.04,3.327-3.715,5a2.8,2.8,0,0,1-.1-.513l-.025,8.969C359.063,122.2,360.157,123.567,362.406,124.866Zm101.835,25.185-6.577,3.823,6.581-5.285Zm-18.6,13.481,0,0,2.491,1.438,18.166-10.56,0,0L448.13,164.971Zm33.406-10.749-.042-.024.042.024Zm-4.988-2.879-4.809,2.795v-.006l4.8-2.792Zm-90.395-39.94c.061-.038.109-.077.173-.115a8.162,8.162,0,0,1,1.559-.712,5.159,5.159,0,0,1,1.361-.261l.019,0a4.106,4.106,0,0,1,.612.064l-.011,3.918-5.91,3.434.01-3.641c.025-.086.043-.174.073-.258s.074-.183.113-.274.083-.192.133-.286.112-.188.172-.281.109-.172.172-.257.134-.158.2-.237c.091-.1.184-.208.289-.31.06-.057.131-.113.2-.169A6.3,6.3,0,0,1,383.661,109.964Zm11.031-4.791-.057.046c.1-.08.173-.162.266-.242C394.826,105.042,394.772,105.108,394.692,105.173Zm-12.529-2.848c-.01.013-.024.026-.034.039l.041-.051Zm-.479.827c-.011.027-.025.052-.036.079.02-.05.043-.1.066-.15C381.7,103.1,381.7,103.129,381.684,103.152Zm-.256.782c-.006.03-.019.058-.025.088.008-.037.022-.073.031-.11Zm-.134,1.092c0-.067,0-.134.008-.2C381.3,104.892,381.3,104.959,381.294,105.026Zm-.221,6.483c-.011.03-.029.059-.041.089.072-.185.12-.369.172-.554C381.16,111.2,381.13,111.354,381.073,111.509Zm-.388.838c-.034.061-.084.12-.12.18a6.046,6.046,0,0,0,.325-.62C380.823,112.054,380.767,112.2,380.685,112.347Zm-.552.826c-.026.034-.065.067-.092.1-.045.055-.1.11-.153.165a6.963,6.963,0,0,0,.447-.567C380.265,112.972,380.212,113.073,380.133,113.173Zm-.8.864c-.137.129-.3.255-.46.383.227-.187.439-.376.629-.565C379.441,113.915,379.4,113.976,379.332,114.037Zm-12.441-3.724c-.161.1-.332.2-.463.3.135-.1.307-.207.474-.312Zm-.668.485,0,0,.036-.031Zm-.589.684.015-.033C365.643,111.46,365.639,111.471,365.634,111.482Zm30.847-8.462c-.013.032-.031.064-.045.1,0,.007-.01.014-.013.02a2.981,2.981,0,0,0,.136-.471A2.779,2.779,0,0,1,396.481,103.02Zm-.486.781c-.076.106-.118.212-.206.318-.018.021-.042.043-.06.064C395.838,104.056,395.9,103.928,395.995,103.8Zm-5.683-2.014a1.038,1.038,0,0,0-.256-.611A1.045,1.045,0,0,1,390.312,101.787Zm-.31-.664a3.125,3.125,0,0,0-.771-.6A3.125,3.125,0,0,1,390,101.123Zm-7.042.389c-.039.032-.075.065-.112.1-.015.013-.036.025-.051.038C382.848,101.6,382.906,101.557,382.96,101.512Zm-4.44,13.2c-.038.029-.064.057-.1.085-.024.019-.056.036-.081.054a13.576,13.576,0,0,1-1.15.75A13.306,13.306,0,0,0,378.52,114.714Zm-3.95-7.949c.045.549.081,1.088.089,1.613C374.651,107.852,374.615,107.315,374.57,106.765ZM366,110.99l-.03.032c-.013.013-.033.028-.046.041C365.95,111.04,365.98,111.015,366,110.99Zm-.478.857,0,.023Zm-4.589,3.041a11.838,11.838,0,0,0,1.494,1.009A11.838,11.838,0,0,1,360.937,114.888Zm-.356-.343a6.6,6.6,0,0,1-.691-.687A6.6,6.6,0,0,0,360.581,114.545Zm-.946-1.107a3.767,3.767,0,0,1-.352-.627A3.767,3.767,0,0,0,359.635,113.438Z"/><g class="b"><path class="i" d="M435.232,75.319l-.025,8.969L412.472,97.5l.025-8.969Z"/><path class="j" d="M435.232,75.319,412.5,88.531c-6.055,3.518-10.874,2.535-14.492.446a24.744,24.744,0,0,1-2.213-1.379l4.327-2.514c.492.324,1.089.669,1.616.973a5.114,5.114,0,0,0,5.618-.091l23.083-13.415Z"/><g class="b"><g class="k"><g class="b"><path class="l" d="M412.5,88.531l-.026,8.969a18.662,18.662,0,0,1-3.622,1.643l.025-8.969a18.609,18.609,0,0,0,3.623-1.643"/><path class="m" d="M408.875,90.174l-.025,8.969a14.722,14.722,0,0,1-1.875.474L407,90.649a14.647,14.647,0,0,0,1.875-.475"/><path class="n" d="M407,90.649l-.025,8.968c-.36.066-.714.115-1.062.15l.026-8.969q.522-.051,1.061-.149"/><path class="o" d="M405.939,90.8l-.026,8.969q-.422.042-.831.056l.026-8.969q.41-.013.831-.056"/><path class="p" d="M405.108,90.854l-.026,8.969c-.248.008-.492.009-.734,0l.025-8.968q.363.009.735,0"/><path class="q" d="M404.373,90.858l-.025,8.968q-.357-.009-.7-.037l.025-8.969q.348.028.7.038"/><path class="r" d="M403.67,90.82l-.025,8.969q-.363-.03-.715-.08l.026-8.969q.353.05.714.08"/><path class="s" d="M402.956,90.74l-.026,8.969c-.262-.038-.521-.083-.775-.136l.025-8.968c.255.052.513.1.776.135"/><path class="t" d="M402.18,90.605l-.025,8.968c-.313-.064-.619-.14-.92-.226l.026-8.969c.3.086.607.162.919.227"/><path class="u" d="M401.261,90.378l-.026,8.969c-.425-.122-.838-.264-1.24-.423l.026-8.968c.4.158.814.3,1.24.422"/><path class="v" d="M400.021,89.956l-.026,8.968a15.254,15.254,0,0,1-2.014-.978,24.607,24.607,0,0,1-2.213-1.379l.025-8.969a24.744,24.744,0,0,0,2.213,1.379,15.269,15.269,0,0,0,2.015.979"/></g></g></g></g><g class="b"><path class="i" d="M440.008,84.282l-.025,8.969-17.62,7.554.025-8.969Z"/><path class="i" d="M417.692,93.874l-.025,8.969-6.321,2.717.025-8.969Z"/><path class="w" d="M411.37,96.592l-.025,8.969-4.408-2.545.025-8.969Z"/><path class="w" d="M423.557,97.261l-.025,8.969-5.866-3.387.025-8.969Z"/><path class="j" d="M449.105,83.329l-25.389,20.39-4.829-2.788,4.67-3.67-5.865-3.387-6.322,2.718-4.408-2.545L442.1,79.284Zm-26.716,8.507,4.619,2.667,13-10.221-17.619,7.554"/><path class="x" d="M449.105,83.329,449.08,92.3l-25.389,20.39.025-8.969Z"/><path class="w" d="M423.716,103.719l-.025,8.969-4.829-2.788.025-8.969Z"/></g><g class="b"><path class="w" d="M459.355,94.239l-.025,8.969-2.687-1.551.025-8.969Z"/><g class="b"><g class="y"><g class="b"><path class="v" d="M460.489,95.583l-.026,8.969c0-.483-.408-.925-1.134-1.344l.026-8.969c.725.419,1.135.861,1.134,1.344"/></g></g></g><g class="b"><g class="z"><g class="b"><path class="s" d="M467.206,95.878l-.026,8.968v.065l.026-8.968v-.065"/><path class="r" d="M467.2,95.943l-.026,8.968a2.542,2.542,0,0,1-.049.433l.025-8.969a2.544,2.544,0,0,0,.05-.432"/><path class="q" d="M467.155,96.375l-.025,8.969a2.923,2.923,0,0,1-.128.443l.025-8.968a2.853,2.853,0,0,0,.128-.444"/><path class="p" d="M467.027,96.819,467,105.787a3.33,3.33,0,0,1-.227.482L466.8,97.3a3.537,3.537,0,0,0,.226-.482"/><path class="o" d="M466.8,97.3l-.026,8.968a4.426,4.426,0,0,1-.388.574l.025-8.968a4.578,4.578,0,0,0,.389-.574"/><path class="n" d="M466.412,97.875l-.025,8.968a6.555,6.555,0,0,1-.7.752l.025-8.968a6.638,6.638,0,0,0,.7-.752"/><path class="m" d="M465.708,98.627l-.025,8.968a12.377,12.377,0,0,1-2.014,1.47l.026-8.969a12.469,12.469,0,0,0,2.013-1.469"/><path class="l" d="M463.7,100.1l-.026,8.969c-.086.052-.173.1-.262.155l.025-8.968.263-.156"/></g></g></g><path class="i" d="M456.668,92.688l-.025,8.969-21.618,12.563.025-8.969Z"/><path class="i" d="M463.432,100.252l-.025,8.969-15.3,8.892.025-8.969Z"/><path class="w" d="M433.5,109.367l-.025,8.969-7.569-4.37.025-8.969Z"/><path class="j" d="M463.752,91.785c4.794,2.768,4.513,5.658-.32,8.467l-15.3,8.892c-4.85,2.819-9.838,2.991-14.632.223L425.929,105l30.254-17.582Zm-20.643,14.723,15.738-9.146c2.163-1.257,2.036-2.241.508-3.123l-2.687-1.551L435.05,105.25l2.687,1.552c1.528.882,3.226.953,5.372-.294"/><g class="b"><g class="aa"><g class="b"><path class="l" d="M448.13,109.144l-.025,8.969a17.388,17.388,0,0,1-3.361,1.52l.025-8.969a17.327,17.327,0,0,0,3.361-1.52"/><path class="m" d="M444.769,110.664l-.025,8.969a14.472,14.472,0,0,1-1.881.475l.026-8.969a14.34,14.34,0,0,0,1.88-.475"/><path class="n" d="M442.889,111.139l-.026,8.969q-.527.1-1.055.149l.026-8.969c.351-.036.7-.085,1.055-.149"/><path class="o" d="M441.834,111.288l-.026,8.969q-.428.042-.854.057l.025-8.969c.285-.009.57-.029.855-.057"/><path class="p" d="M440.979,111.345l-.025,8.969q-.384.013-.766,0l.026-8.969q.383.009.765,0"/><path class="q" d="M440.214,111.349l-.026,8.969q-.369-.009-.737-.04l.025-8.968q.369.03.738.039"/><path class="r" d="M439.476,111.31l-.025,8.968c-.252-.02-.5-.049-.754-.084l.025-8.969c.251.036.5.064.754.085"/><path class="s" d="M438.722,111.225l-.025,8.969q-.408-.059-.816-.142l.026-8.969q.406.084.815.142"/><path class="t" d="M437.907,111.083l-.026,8.969q-.488-.1-.973-.24l.025-8.969q.486.139.974.24"/><path class="u" d="M436.933,110.843l-.025,8.969q-.654-.187-1.3-.443l.026-8.968q.649.255,1.3.442"/><path class="v" d="M435.631,110.4l-.026,8.968a15.961,15.961,0,0,1-2.132-1.033l.025-8.969a16.042,16.042,0,0,0,2.133,1.034"/></g></g></g></g><g class="b"><path class="ab" d="M477.5,99.724l-.025,8.969-21.287,15.341.025-8.969Z"/><path class="i" d="M470.412,112l-.025,8.969-17.86,8.365.025-8.969Z"/><path class="w" d="M452.552,120.368l-.025,8.969-6.568-3.792.025-8.969Z"/><path class="ab" d="M486.986,105.2l-.025,8.969-21.637,15.341.025-8.969Z"/><path class="j" d="M496.03,110.421l-33.643,15.625-6.357-3.67L470.412,112l-17.86,8.365-6.568-3.792,26.865-19.539,4.654,2.687-21.287,15.341,26.151-12.532,4.619,2.667L465.349,120.54l26.5-12.532Z"/><path class="i" d="M496.03,110.421,496,119.39l-33.643,15.625.025-8.969Z"/><path class="w" d="M462.387,126.046l-.025,8.969L456,131.344l.025-8.969Z"/></g><g class="b"><path class="i" d="M499.279,118.5l-.025,8.969-17.6,7.564.025-8.969Z"/><path class="i" d="M476.962,128.094l-.025,8.969-6.321,2.717.025-8.969Z"/><path class="w" d="M470.641,130.811l-.025,8.969-4.39-2.535.025-8.969Z"/><path class="w" d="M482.845,131.491l-.025,8.969-5.883-3.4.025-8.969Z"/><path class="j" d="M508.376,117.549,483,137.95l-4.829-2.789,4.67-3.67-5.883-3.4-6.321,2.717-4.391-2.534,35.137-14.763Zm-26.7,8.517,4.619,2.667L499.279,118.5l-17.6,7.564"/><path class="x" d="M508.376,117.549l-.025,8.969-25.372,20.4L483,137.95Z"/><path class="w" d="M483,137.95l-.025,8.969-4.829-2.788.025-8.969Z"/></g><g class="b"><path class="i" d="M520.248,124.4l-.025,8.969L494.3,148.439l.025-8.969Z"/><path class="j" d="M520.257,124.408l-25.923,15.07,7.868,4.541-4.326,2.515-12.662-7.308,30.249-17.586Z"/><path class="i" d="M502.206,144.023l-.025,8.969-4.327,2.515.025-8.969Z"/><path class="w" d="M497.879,146.537l-.025,8.969-12.662-7.31.025-8.969Z"/></g><g class="b"><g class="b"><g class="ac"><g class="b"><path class="v" d="M390.334,101.84l-.026,8.969c0-.472-.391-.9-1.1-1.314a4.948,4.948,0,0,0-.668-.325l.025-8.969a5.085,5.085,0,0,1,.669.325c.711.41,1.1.843,1.1,1.314"/><path class="u" d="M388.563,100.2l-.025,8.969a4.236,4.236,0,0,0-.407-.138l.026-8.969c.137.04.272.086.406.138"/><path class="t" d="M388.157,100.063l-.026,8.969c-.1-.029-.2-.054-.307-.076l.026-8.969c.1.022.2.047.307.076"/><path class="s" d="M387.85,99.987l-.026,8.969q-.129-.027-.261-.045l.025-8.969c.088.012.175.028.262.045"/><path class="r" d="M387.588,99.942l-.025,8.969c-.081-.012-.162-.021-.244-.028l.025-8.969c.082.007.163.016.244.028"/><path class="q" d="M387.344,99.914l-.025,8.969c-.081-.006-.162-.011-.244-.013L387.1,99.9c.082,0,.163.007.244.013"/><path class="p" d="M387.1,99.9l-.025,8.969c-.086,0-.172,0-.259,0l.026-8.968c.087,0,.173,0,.258,0"/><path class="o" d="M386.842,99.9l-.026,8.968c-.1,0-.2.01-.294.02l.025-8.969c.1-.009.2-.016.3-.019"/><path class="n" d="M386.547,99.922l-.025,8.969c-.129.013-.259.031-.39.055l.025-8.968c.132-.024.262-.043.39-.056"/><path class="m" d="M386.157,99.978l-.025,8.968a5.6,5.6,0,0,0-.72.183l.025-8.969a5.586,5.586,0,0,1,.72-.182"/><path class="l" d="M385.437,100.16l-.025,8.969a8.081,8.081,0,0,0-1.578.72l-.087.052.026-8.969.087-.051a8.023,8.023,0,0,1,1.577-.721"/><path class="m" d="M383.773,100.932l-.026,8.969a6.38,6.38,0,0,0-1.039.761l.026-8.969a6.337,6.337,0,0,1,1.039-.761"/><path class="n" d="M382.734,101.693l-.026,8.969a4.727,4.727,0,0,0-.522.559l.025-8.968a4.752,4.752,0,0,1,.523-.56"/><path class="o" d="M382.211,102.253l-.025,8.968a4.179,4.179,0,0,0-.355.529l.025-8.968a4.044,4.044,0,0,1,.355-.529"/><path class="p" d="M381.856,102.782l-.025,8.968a3.989,3.989,0,0,0-.262.565l.025-8.969a4.04,4.04,0,0,1,.262-.564"/><path class="q" d="M381.594,103.346l-.025,8.969a4.549,4.549,0,0,0-.2.7l.026-8.968a4.416,4.416,0,0,1,.2-.7"/><path class="r" d="M381.4,104.046l-.026,8.968a6.383,6.383,0,0,0-.111,1.077l.025-8.969a6.259,6.259,0,0,1,.112-1.076"/><path class="s" d="M381.285,105.122l-.025,8.969c0,.064,0,.129,0,.195l.026-8.969c0-.065,0-.13,0-.195"/></g></g></g><g class="b"><g class="ad"><g class="b"><path class="s" d="M396.72,101.93l-.026,8.969v.067l.026-8.969v-.067"/><path class="r" d="M396.719,102l-.026,8.969a2.554,2.554,0,0,1-.052.449l.026-8.968a2.759,2.759,0,0,0,.052-.45"/><path class="q" d="M396.667,102.447l-.026,8.968a2.877,2.877,0,0,1-.133.463l.026-8.969a3.088,3.088,0,0,0,.133-.462"/><path class="p" d="M396.534,102.909l-.026,8.969a3.534,3.534,0,0,1-.236.5l.026-8.969a3.649,3.649,0,0,0,.236-.5"/><path class="o" d="M396.3,103.41l-.026,8.969a4.745,4.745,0,0,1-.4.6l.025-8.969a4.76,4.76,0,0,0,.4-.6"/><path class="n" d="M395.894,104.007l-.025,8.969a6.84,6.84,0,0,1-.729.778l.026-8.969a6.744,6.744,0,0,0,.728-.778"/><path class="m" d="M395.166,104.785l-.026,8.969a12.489,12.489,0,0,1-2.035,1.488l.026-8.969a12.515,12.515,0,0,0,2.035-1.488"/><path class="l" d="M393.131,106.273l-.026,8.969-.26.154.026-8.969c.088-.051.175-.1.26-.154"/></g></g></g><path class="i" d="M392.871,106.427l-.025,8.969-.96.558.025-8.969Z"/><path class="w" d="M391.911,106.985l-.025,8.969-4.513-2.606.025-8.969Z"/><g class="b"><g class="ae"><g class="b"><path class="v" d="M374.669,108.562l-.026,8.969c0-1.151-.2-2.372-.194-3.617l.026-8.969c0,1.245.2,2.466.194,3.617"/></g></g></g><path class="i" d="M369.306,108.891l-.025,8.969-2.163,1.257.025-8.969Z"/><g class="b"><g class="af"><g class="b"><path class="l" d="M367.142,110.148l-.025,8.969-.131.077.025-8.968.131-.078"/><path class="m" d="M367.011,110.226l-.025,8.968a5.633,5.633,0,0,0-.911.662l.025-8.969a5.635,5.635,0,0,1,.911-.661"/><path class="n" d="M366.1,110.887l-.025,8.969a2.547,2.547,0,0,0-.285.305l.025-8.969a2.716,2.716,0,0,1,.285-.305"/><path class="o" d="M365.815,111.192l-.025,8.969a1.781,1.781,0,0,0-.148.217l.026-8.969a1.662,1.662,0,0,1,.147-.217"/><path class="p" d="M365.668,111.409l-.026,8.969a1.247,1.247,0,0,0-.084.179l.026-8.969a1.247,1.247,0,0,1,.084-.179"/><path class="q" d="M365.584,111.588l-.026,8.969a1.1,1.1,0,0,0-.046.16l.025-8.969a1,1,0,0,1,.047-.16"/><path class="r" d="M365.537,111.748l-.025,8.969a1,1,0,0,0-.018.152l.026-8.968a.887.887,0,0,1,.017-.153"/><path class="s" d="M365.52,111.9l-.026,8.968v.023l.025-8.969V111.9"/></g></g></g><g class="b"><g class="ag"><g class="b"><path class="s" d="M381.485,108.982l-.026,8.969c0,.09,0,.181,0,.271l.026-8.969c0-.09,0-.181,0-.271"/><path class="r" d="M381.481,109.253l-.026,8.969a7.857,7.857,0,0,1-.138,1.3l.025-8.968a7.886,7.886,0,0,0,.139-1.3"/><path class="q" d="M381.342,110.552l-.025,8.968a6.177,6.177,0,0,1-.273.97l.026-8.969a6.165,6.165,0,0,0,.272-.969"/><path class="p" d="M381.07,111.521l-.026,8.969a5.913,5.913,0,0,1-.391.84l.026-8.969a5.971,5.971,0,0,0,.391-.84"/><path class="o" d="M380.679,112.361l-.026,8.969a6.3,6.3,0,0,1-.55.818l.026-8.968a6.589,6.589,0,0,0,.55-.819"/><path class="n" d="M380.129,113.18l-.026,8.968a7.7,7.7,0,0,1-.838.9l.026-8.968a7.858,7.858,0,0,0,.838-.9"/><path class="m" d="M379.291,114.082l-.026,8.968a11.532,11.532,0,0,1-1.922,1.414l.025-8.969a11.585,11.585,0,0,0,1.923-1.413"/><path class="l" d="M377.368,115.5l-.025,8.969-.183.108a17.23,17.23,0,0,1-3.343,1.507l.025-8.969a17.265,17.265,0,0,0,3.344-1.507l.182-.108"/><path class="m" d="M373.842,117.11l-.025,8.969a14.978,14.978,0,0,1-1.951.492l.025-8.968a14.985,14.985,0,0,0,1.951-.493"/><path class="n" d="M371.891,117.6l-.025,8.968q-.552.1-1.105.156l.025-8.969q.553-.056,1.1-.155"/><path class="o" d="M370.786,117.758l-.025,8.969q-.448.045-.9.06l.025-8.969q.448-.015.9-.06"/><path class="p" d="M369.889,117.818l-.025,8.969c-.267.009-.533.011-.8,0l.026-8.969c.266.007.533.006.8,0"/><path class="q" d="M369.09,117.822l-.026,8.969q-.383-.009-.765-.041l.025-8.969q.383.032.766.041"/><path class="r" d="M368.324,117.781l-.025,8.969q-.39-.032-.777-.087l.025-8.969q.389.056.777.087"/><path class="s" d="M367.547,117.694l-.025,8.969c-.28-.04-.56-.088-.839-.146l.025-8.969q.418.087.839.146"/><path class="t" d="M366.708,117.548l-.025,8.969q-.494-.1-.984-.243l.026-8.968q.489.14.983.242"/><path class="u" d="M365.725,117.306l-.026,8.968q-.65-.185-1.292-.439l.026-8.968q.642.252,1.292.439"/><path class="v" d="M364.433,116.867l-.026,8.968a14.993,14.993,0,0,1-2-.969c-2.249-1.3-3.343-2.669-3.339-4.054l.025-8.969c0,1.385,1.09,2.756,3.339,4.054a15.076,15.076,0,0,0,2,.97"/></g></g></g><path class="j" d="M393.436,97.94c4.653,2.687,4.268,5.678-.565,8.487l-.96.558-4.513-2.606,1.256-.73c2.163-1.258,2.105-2.241.578-3.123-1.511-.872-3.209-.9-5.372.355-6.229,3.619,1.98,9.693-6.674,14.722-4.833,2.809-10.048,3.011-14.755.294-4.689-2.707-4.356-5.729.477-8.537l1.867-1.085,4.531,2.616-2.164,1.257c-2.163,1.257-2,2.261-.472,3.143s3.261.974,5.425-.284c6.211-3.609-1.963-9.683,6.691-14.712C383.619,95.487,388.782,95.253,393.436,97.94Z"/></g><g class="b"><path class="i" d="M407.7,106.579l-.025,8.969-12.964,7.534.025-8.969Z"/><path class="w" d="M395.852,119.77l-.025,8.969-5.444-3.143.025-8.969Z"/><path class="i" d="M390.407,116.627l-.025,8.969-12.964,7.534.025-8.969Z"/><path class="w" d="M377.444,124.161l-.025,8.969-4.777-2.758.025-8.969Z"/><path class="j" d="M418.007,112.531l-30.254,17.582-4.865-2.809,12.964-7.534-5.444-3.143-12.964,7.534-4.777-2.758,30.254-17.582,4.777,2.758-12.964,7.534,5.444,3.143,12.964-7.534Z"/><path class="i" d="M418.007,112.531l-.025,8.969-30.254,17.582.025-8.969Z"/><path class="w" d="M387.753,130.112l-.025,8.969-4.865-2.809.025-8.969Z"/></g><g class="b"><path class="i" d="M422.994,121.615l-.025,8.969-17.6,7.564.025-8.969Z"/><path class="i" d="M400.677,131.207l-.025,8.969-6.321,2.717.025-8.969Z"/><path class="w" d="M394.356,133.925l-.025,8.969-4.39-2.535.025-8.969Z"/><path class="w" d="M406.56,134.6l-.025,8.969-5.883-3.4.025-8.969Z"/><path class="j" d="M432.091,120.662l-25.372,20.4-4.829-2.789,4.67-3.67-5.883-3.4-6.321,2.718-4.391-2.535L425.1,116.627Zm-26.7,8.517,4.619,2.667,12.983-10.231-17.6,7.564"/><path class="x" d="M432.091,120.662l-.025,8.969-25.372,20.4.025-8.969Z"/><path class="w" d="M406.719,141.063l-.025,8.969-4.829-2.788.025-8.969Z"/></g><g class="b"><path class="i" d="M443.963,127.516l-.025,8.969L418.01,151.552l.025-8.969Z"/><path class="j" d="M443.972,127.521l-25.923,15.07,7.868,4.541-4.326,2.515-12.662-7.308,30.249-17.586Z"/><path class="i" d="M425.921,147.136,425.9,156.1l-4.327,2.515.025-8.969Z"/><path class="w" d="M421.594,149.651l-.025,8.969-12.662-7.31.025-8.969Z"/></g><g class="b"><path class="i" d="M455.448,140.353l-.025,8.969-17.6,7.564.025-8.969Z"/><path class="x" d="M464.545,139.4l-.025,8.969-25.39,20.39.025-8.969Z"/><path class="w" d="M469.262,147.136l-.025,8.969-5.005-2.89.025-8.969Z"/><path class="w" d="M479.044,152.783l-.025,8.969-4.988-2.88.025-8.969Z"/><path class="i" d="M483.371,150.269l-.025,8.969-4.327,2.515.025-8.969Z"/><path class="i" d="M433.131,149.945l-.025,8.969-6.321,2.717.025-8.969Z"/><path class="w" d="M426.81,152.662l-.025,8.969-4.39-2.535.025-8.969Z"/><path class="w" d="M439,153.331l-.025,8.969-5.866-3.387.025-8.969Z"/><path class="w" d="M439.156,159.79l-.025,8.969-4.812-2.778.025-8.969Z"/><path class="j" d="M464.545,139.4l-25.389,20.39-4.812-2.778L439,153.331l-5.866-3.386-6.321,2.717-4.391-2.535,35.119-14.773Zm-26.7,8.517,4.6,2.656,13-10.22-17.6,7.564"/><path class="i" d="M474.057,149.9l-.025,8.969L448.1,173.94l.025-8.969Z"/><path class="w" d="M448.13,164.971l-.025,8.969-4.794-2.768.025-8.969Z"/><path class="j" d="M483.379,150.275l-4.325,2.515-5-2.888-25.917,15.067-4.793-2.766,25.917-15.067-5-2.888,4.325-2.515Z"/></g></g></g></svg>