<svg xmlns="http://www.w3.org/2000/svg" xmlns:xlink="http://www.w3.org/1999/xlink" width="191.548" height="226.365" viewBox="0 0 191.548 226.365"><defs><style>.a,.h{fill:none;}.b{isolation:isolate;}.c{fill:#d10000;}.d{fill:#b0b2b2;}.e{fill:#2d2d2c;}.f{fill:#6e7072;}.g,.u{fill:#991d1b;}.g{stroke:#fff;stroke-width:9.089px;}.g,.h{stroke-linejoin:round;}.h{stroke:#831412;stroke-width:4.545px;}.i{fill:#ac2322;}.j{fill:#a82221;}.k{fill:#831412;}.l{fill:#fff;}.m{fill:#a2201f;}.n{clip-path:url(#a);}.o{fill:#811310;}.p{clip-path:url(#b);}.q{fill:#8b1815;}.r{fill:#8e1917;}.s{fill:#921a19;}.t{fill:#951c1a;}.v{fill:#9c1e1d;}.w{fill:#a01f1e;}.x{fill:#a3201f;}.y{clip-path:url(#c);}.z{clip-path:url(#d);}.aa{clip-path:url(#e);}.ab{clip-path:url(#f);}.ac{clip-path:url(#g);}.ad{fill:#871614;}.ae{fill:#841512;}.af{fill:#ac2323;}.ag{fill:#a22;}.ah{fill:#a72221;}</style><clipPath id="a"><path class="a" d="M620.371,267.665l-.025,8.553c0-.411-.33-.8-.987-1.175l.024-8.553C620.04,266.869,620.372,267.254,620.371,267.665Z"/></clipPath><clipPath id="b"><path class="a" d="M626.85,267.823l-.024,8.553c0,1.273-1.189,2.547-3.481,3.879l.024-8.554C625.661,270.369,626.846,269.1,626.85,267.823Z"/></clipPath><clipPath id="c"><path class="a" d="M607.147,275.221l-.024,8.553c0-.53-.454-1.023-1.329-1.527l.025-8.554C606.693,274.2,607.148,274.691,607.147,275.221Z"/></clipPath><clipPath id="d"><path class="a" d="M621.106,273.016l-.024,8.554a12.2,12.2,0,0,1-8.671,1.779l.024-8.553A12.2,12.2,0,0,0,621.106,273.016Z"/></clipPath><clipPath id="e"><path class="a" d="M612.85,276.048l-.024,8.553c0,1.332-1.408,2.623-3.707,3.96l.024-8.553C611.442,278.671,612.846,277.38,612.85,276.048Z"/></clipPath><clipPath id="f"><path class="a" d="M604.684,282.6l-.025,8.553a9.742,9.742,0,0,0-3.025,2.3l.024-8.553A9.747,9.747,0,0,1,604.684,282.6Z"/></clipPath><clipPath id="g"><path class="a" d="M618.259,286.177l-.025,8.553c-5.773,3.355-10.185,2.524-13.434.648a20.793,20.793,0,0,1-1.994-1.248l.025-8.553a20.771,20.771,0,0,0,1.993,1.248C608.073,288.7,612.485,289.532,618.259,286.177Z"/></clipPath></defs><g transform="translate(-278 -3527)"><g class="b" transform="translate(278.981 3564.479)"><path class="c" d="M115.465,17.616l-7.093-4.095L5.974,73.448c-8.918,5.183-8.871,13.617.106,18.8l123.892,70.781,7.047-4.1L13.127,88.152c-5.063-2.923-5.1-7.682-.059-10.609l102.4-59.927"/></g><g transform="translate(277.958 3511.479)"><g transform="translate(0.042 15.521)"><g class="b"><g transform="translate(0.045)"><path class="d" d="M76.058,20.165c10.5-6.154,27.694-6.2,38.347-.1l69.074,39.546c10.653,6.1,10.781,16.06.29,22.21l-68.221,39.985c-10.5,6.154-27.694,6.2-38.347.1L8.127,82.36c-10.653-6.1-10.781-16.06-.29-22.21ZM180.233,61.514,111.16,21.969c-8.845-5.062-23.127-5.007-31.805.081L11.134,62.035c-8.713,5.1-8.606,13.361.239,18.423L80.446,120c8.815,5.045,23.1,5.024,31.81-.081l68.221-39.985c8.678-5.088,8.572-13.378-.243-18.423" transform="translate(-0.053 -15.521)"/></g><g transform="translate(4.661 2.682)"><path class="e" d="M75.821,20c8.678-5.088,22.961-5.143,31.805-.081L176.7,59.461c8.815,5.045,8.922,13.335.243,18.423l-68.221,39.985c-8.713,5.1-22.995,5.126-31.81.081L7.839,78.4C-1.006,73.343-1.112,65.086,7.6,59.982Z" transform="translate(-1.135 -16.15)"/></g><path class="f" d="M191.59,28.5c0,.26-.043.52-.068.78-.026.29-.047.58-.1.866-.043.23-.111.456-.171.682a8.1,8.1,0,0,1-.235.819c-.077.222-.179.435-.273.652-.124.286-.247.571-.4.853-.107.2-.235.4-.358.6-.2.32-.405.635-.64.947-.136.183-.281.367-.431.546a16.247,16.247,0,0,1-1.181,1.271c-.136.132-.26.264-.4.4-.264.235-.554.465-.84.691-.243.2-.478.4-.738.589-.311.226-.652.439-.981.657s-.627.426-.972.631L115.583,79.463a29.553,29.553,0,0,1-3.77,1.8c-.354.141-.716.277-1.079.409-.823.3-1.689.542-2.559.785-.887.252-1.787.486-2.708.678-1.053.217-2.115.414-3.2.554-.3.038-.589.094-.887.124-1.5.162-3.011.247-4.529.264-.247,0-.49,0-.738,0-1.505-.009-3.011-.09-4.5-.239l-.674-.077a43.115,43.115,0,0,1-4.384-.738c-.247-.055-.49-.119-.738-.179a37.826,37.826,0,0,1-3.71-1.117c-.252-.09-.516-.162-.768-.26a29.7,29.7,0,0,1-4.107-1.919L8.162,40.011C4.119,37.7,1.59,34.83.584,31.819a9.616,9.616,0,0,1-.5-3.036L.042,43.871C.033,47.944,2.729,52.016,8.119,55.1L77.193,94.645a29.211,29.211,0,0,0,3.821,1.825c.094.038.192.06.286.1.252.094.516.166.772.26.738.26,1.467.533,2.235.751.478.136.981.243,1.471.362.247.06.486.124.738.179.2.047.405.107.614.149.883.183,1.783.341,2.687.469.358.051.721.081,1.083.124.226.026.448.051.674.072.294.03.589.077.887.1.887.077,1.783.124,2.674.145.316.009.627,0,.938,0,.247,0,.49,0,.738,0,.371,0,.742.009,1.113,0,1.006-.034,2.013-.1,3.011-.2.136-.013.269-.043.405-.055.3-.034.589-.085.887-.124.729-.094,1.463-.175,2.179-.307.35-.06.674-.179,1.019-.252.925-.192,1.817-.422,2.712-.674.456-.132.951-.2,1.4-.35.4-.128.768-.3,1.156-.439.367-.132.725-.264,1.079-.409a28.726,28.726,0,0,0,3.77-1.8l68.221-39.985.256-.154c.256-.154.478-.32.721-.482.328-.213.67-.426.972-.648.269-.2.5-.4.751-.6.281-.226.571-.448.827-.682.043-.038.1-.077.141-.115.1-.094.171-.2.269-.29a15.293,15.293,0,0,0,1.173-1.262c.073-.09.171-.171.243-.26s.124-.192.2-.29c.23-.311.435-.623.631-.942.081-.128.188-.256.26-.384.043-.073.064-.149.1-.222a8.873,8.873,0,0,0,.4-.844c.072-.162.166-.32.226-.478.021-.06.03-.124.051-.183.1-.269.162-.542.235-.815.047-.179.115-.354.154-.533.009-.051.009-.1.017-.154.051-.286.072-.576.1-.87.017-.179.055-.358.064-.537l0-.239h0Z" transform="translate(-0.042 26.84)"/></g></g></g><g transform="translate(-255.171 3421.978)"><path class="g" d="M680.069,301.885l.015-5.13-5.41-3.124-6.351,3.692.021-7.347-6.3-3.635-12.817,5.488,1.167-.921,2-1.574h0l.024-8.553-6.3-3.636-6.2,2.657.017-6.177v-.048h0l-4.3-2.485-8.809,5.119.024-8.388c0,.017-.012.034-.012.051a2.691,2.691,0,0,0-.766-1.838c-.014-.016-.039-.033-.054-.049a6.722,6.722,0,0,0-.952-.88,13.214,13.214,0,0,0-1.439-.948l-6.5-3.752-2.655,1.543.009-3.07L602.742,252.1l-1.966,1.143.007-2.249v-.025h0l-2.729-1.575-1.575-.91h0l-5.64,1.258.012-4.507-4.3-2.485L557.7,259.518h0l-.012,4.271-.012,4.282,1.575.91,2.729,1.575,5.528-3.212-.018,6.394,4.422,2.552,1.969-2.507-.01,3.639,11.74,6.778,2.655-1.543-.008,3.071,4.3,2.485h0l3.994-2.321.727-.423-.015,5.461,4.371,2.523a4.737,4.737,0,0,1,.4-.443c.018-.018.034-.038.053-.057.037-.042.073-.084.115-.124s.122-.1.179-.147c.02-.017.044-.034.064-.051.117-.1.237-.2.366-.292l0,1.782v.009h0c.311.227.612.426.934.624s.666.4,1.06.624a13.173,13.173,0,0,0,1.538.746l.017.008c.059.025.11.06.171.083.086.034.179.059.266.091.144.049.287.1.433.147.1.033.2.071.3.1.03.009.058.021.089.03q.395.113.8.2c.152.032.308.056.464.082l.118.02c.039.006.076.015.114.02.213.03.429.055.648.073s.426.029.643.034c.041,0,.083,0,.124,0h.1c.149,0,.3,0,.45,0,.252-.008.507-.026.767-.051.105-.011.215-.032.321-.046.091-.011.182-.025.274-.038s.2-.025.3-.043c.033,0,.065-.007.1-.013.013,0,.026-.008.039-.01l0,.638-.007,2.495,3.952,2.282,5.979-2.62.8.465v.179l-.017,5.883,4.338,2.5.858-.676v.076l0,1.093,3.953,2.282,5.995-2.61.788.455L639.5,315.3v.018h0l4.354,2.514,1.951-1.539-.008,2.661,3.886,2.243,5.377-3.125-.018,6.219,4.421,2.553,28.852-16.767.025-8.553h0l-3.836-2.215Zm-99.1-37.129.95-1.21,1.788-.382Zm8.78,11.563,0-1.069.006-2-.065-.038,1.041-.605,1.563.9,1.148.662Zm11.017-6.4.008-2.978v-.168l2.122-1.233,2.711,1.565Zm9.98,9.05c-.024.018-.041.036-.066.053-.048.036-.114.071-.165.107.1-.071.2-.142.293-.212C610.783,278.932,610.769,278.95,610.745,278.967Zm2.877,4.918a8.1,8.1,0,0,1-.795.406l0-.872c.042.006.084.015.126.021.211.03.422.053.632.071s.409.028.614.033h.008Zm11.4-13.3-.037.03c.084-.065.145-.13.222-.2C625.144,270.472,625.095,270.527,625.025,270.582Zm1.161-1.16a2.275,2.275,0,0,1-.155.226c-.01.011-.023.023-.033.035.086-.1.136-.194.208-.29Zm.45-.683-.034.073a2.341,2.341,0,0,0,.109-.4A2.213,2.213,0,0,1,626.636,268.739Z"/><path class="h" d="M680.069,301.885l.015-5.13-5.41-3.124-6.351,3.692.021-7.347-6.3-3.635-12.816,5.488,3.162-2.495.024-8.553-6.3-3.636-6.2,2.657.017-6.225-4.3-2.485-8.809,5.119.024-8.388c0,.017-.012.034-.012.051.034-1.221-1.007-2.442-3.211-3.715l-6.5-3.751-2.655,1.542.009-3.07L602.742,252.1l-1.966,1.142.007-2.274-4.3-2.485-5.64,1.258.012-4.507-4.3-2.485L557.7,259.518l-.024,8.553,4.3,2.485,5.528-3.212-.018,6.394,4.422,2.552,1.969-2.507-.01,3.639,11.74,6.778,2.655-1.543-.009,3.071,4.3,2.485,4.721-2.744-.015,5.461,4.371,2.523a4.711,4.711,0,0,1,.4-.442c.058-.059.107-.124.169-.182s.122-.1.18-.147c.134-.116.278-.231.429-.343l0,1.791a20.793,20.793,0,0,0,1.994,1.248,13.247,13.247,0,0,0,1.537.746c.066.027.122.065.189.092.227.089.465.161.7.238.1.032.194.071.295.1.03.009.059.022.09.031q.395.113.8.2c.152.032.308.056.464.082l.119.02c.038.006.075.015.113.02.213.03.429.055.648.073s.426.029.643.035c.041,0,.083,0,.124,0h.1c.149,0,.3,0,.45,0,.252-.008.507-.025.767-.051.105-.011.215-.032.322-.046.09-.011.181-.024.271-.038.134-.02.264-.032.4-.056.013,0,.026-.008.039-.01l-.009,3.133,3.952,2.283L622.8,299.6l.8.465-.017,6.062,4.337,2.5.858-.676,0,1.169,3.953,2.282,5.995-2.61.788.455-.017,6.062,4.354,2.514,1.951-1.539-.008,2.661,3.886,2.243,5.377-3.125-.018,6.219,4.421,2.553,28.852-16.767.025-8.553-3.836-2.215Zm-69.324-22.918c-.024.018-.041.036-.066.053-.049.036-.117.072-.168.108.1-.071.2-.142.3-.213C610.783,278.932,610.769,278.95,610.745,278.967Zm-4.323-4.873c.055.043.093.087.142.13C606.515,274.181,606.477,274.137,606.422,274.094Zm.422.4a1.405,1.405,0,0,1,.1.157A1.557,1.557,0,0,0,606.844,274.5Zm.235.409a.944.944,0,0,1,.037.172A.944.944,0,0,0,607.079,274.906Zm5.75,8.513c.042.006.084.015.126.021.211.03.422.053.632.071s.409.028.613.033h.009l-.587.341a8.1,8.1,0,0,1-.795.406Zm12.2-12.837-.038.031c.087-.068.149-.134.23-.2C625.148,270.468,625.1,270.525,625.025,270.582Zm-24.251-3.811,2.122-1.233,2.711,1.565-4.842,2.814Zm-10.041,5.835,2.711,1.565-3.7,2.148.009-3.07-.065-.038Zm35.9-3.867-.034.073a2.361,2.361,0,0,0,.11-.4A2.266,2.266,0,0,1,626.636,268.739Zm-.427.649c-.064.086-.1.173-.178.26-.01.011-.023.023-.033.035C626.085,269.584,626.136,269.486,626.209,269.388Zm-5.858-1.77a.918.918,0,0,0-.214-.521A.918.918,0,0,1,620.351,267.618Zm-.3-.606a2.8,2.8,0,0,0-.672-.522A2.8,2.8,0,0,1,620.055,267.012Zm-39.088-2.256.951-1.21,1.788-.382Z"/><g class="b"><path class="i" d="M590.851,245.236l-.024,8.553-12.579,7.31.024-8.553Z"/><path class="j" d="M600.783,250.97l-.024,8.553-18.841,4.023.024-8.553Z"/><path class="j" d="M574.82,256.086l-.024,8.553-3.952.764.024-8.553Z"/><path class="i" d="M570.868,256.849l-.024,8.553-8.869,5.154L562,262Z"/><path class="k" d="M562,262l-.024,8.553-4.3-2.485.024-8.553Z"/><path class="k" d="M571.931,267.737l-.024,8.553-4.421-2.553.024-8.553Z"/><path class="l" d="M600.783,250.97l-18.841,4.023-10.011,12.744-4.421-2.553,7.311-9.1-3.952.764L562,262l-4.3-2.485,28.852-16.767,4.3,2.485-12.579,7.31,18.206-4.061Z"/><path class="m" d="M581.942,254.993l-.024,8.553L571.907,276.29l.024-8.553Z"/></g><g class="b"><path class="i" d="M614.483,258.88l-.024,8.553-4.126,2.4.024-8.553Z"/><path class="k" d="M610.356,261.278l-.024,8.553-7.436-4.293.024-8.553Z"/><path class="i" d="M602.92,256.985l-.024,8.553-8.037,4.67.024-8.553Z"/><path class="i" d="M600.779,265.059l-.024,8.553-4.126,2.4.024-8.553Z"/><path class="k" d="M596.652,267.457l-.024,8.553-5.9-3.4.024-8.553Z"/><path class="i" d="M590.757,264.053l-.024,8.553-8.436,4.9.024-8.553Z"/><path class="k" d="M585.631,275.647l-.024,8.553-11.74-6.778.024-8.553Z"/><path class="i" d="M589.757,273.249l-.024,8.553-4.126,2.4.024-8.553Z"/><path class="l" d="M614.483,258.88l-4.126,2.4-7.436-4.293-8.037,4.67,5.9,3.4-4.126,2.4-5.9-3.4-8.436,4.9,7.436,4.293-4.126,2.4-11.74-6.778L602.742,252.1Z"/></g><g class="b"><path class="k" d="M619.383,266.49l-.024,8.553-2.077-1.2.024-8.553Z"/><g class="b"><g class="n"><g class="b"><path class="o" d="M620.371,267.665l-.025,8.553c0-.411-.33-.8-.987-1.175l.024-8.553c.657.379.989.764.988,1.175"/></g></g></g><path class="i" d="M617.306,265.291l-.024,8.553-8.852,5.144.024-8.553Z"/><g class="b"><g class="p"><g class="b"><path class="q" d="M626.85,267.823l-.024,8.553v.053l.024-8.553v-.053"/><path class="r" d="M626.849,267.876l-.024,8.553a2.163,2.163,0,0,1-.041.356l.024-8.553a2.056,2.056,0,0,0,.041-.356"/><path class="s" d="M626.808,268.232l-.024,8.553a2.29,2.29,0,0,1-.106.366l.025-8.553a2.284,2.284,0,0,0,.1-.366"/><path class="t" d="M626.7,268.6l-.025,8.553a2.889,2.889,0,0,1-.188.4l.024-8.553a3.083,3.083,0,0,0,.189-.4"/><path class="u" d="M626.514,269l-.024,8.553a3.965,3.965,0,0,1-.326.481l.024-8.553a3.851,3.851,0,0,0,.326-.481"/><path class="v" d="M626.188,269.48l-.024,8.553a5.767,5.767,0,0,1-.615.657l.024-8.553a5.769,5.769,0,0,0,.615-.657"/><path class="w" d="M625.573,270.137l-.024,8.553a11.9,11.9,0,0,1-1.928,1.4l.024-8.553a11.856,11.856,0,0,0,1.928-1.4"/><path class="x" d="M623.645,271.538l-.024,8.553-.276.164.024-8.554c.094-.054.186-.109.276-.163"/></g></g></g><path class="i" d="M623.369,271.7l-.024,8.553-2.263,1.315.024-8.553Z"/><path class="k" d="M605.819,273.693l-.024,8.553-1.491-.861.024-8.553Z"/><g class="b"><g class="y"><g class="b"><path class="o" d="M607.147,275.221l-.024,8.553c0-.53-.454-1.023-1.329-1.527l.025-8.554c.874.505,1.329,1,1.328,1.528"/></g></g></g><g class="b"><g class="z"><g class="b"><path class="x" d="M621.106,273.016l-.024,8.554a15.8,15.8,0,0,1-3.108,1.409l.025-8.553a15.882,15.882,0,0,0,3.107-1.41"/><path class="w" d="M618,274.426l-.025,8.553a12.3,12.3,0,0,1-1.556.391l.024-8.553a12.36,12.36,0,0,0,1.557-.391"/><path class="v" d="M616.442,274.817l-.024,8.553q-.443.08-.882.124l.024-8.553c.294-.03.587-.071.882-.124"/><path class="u" d="M615.56,274.941l-.024,8.553q-.352.035-.7.047l.024-8.553q.351-.012.7-.047"/><path class="t" d="M614.857,274.988l-.024,8.553q-.316.011-.633,0l.025-8.553q.315.008.632,0"/><path class="s" d="M614.225,274.991l-.025,8.553c-.2-.005-.408-.016-.613-.033l.025-8.553q.306.025.613.033"/><path class="r" d="M613.612,274.958l-.025,8.553c-.21-.018-.421-.041-.632-.071l.024-8.553c.211.03.422.053.633.071"/><path class="q" d="M612.979,274.887l-.024,8.553c-.181-.026-.362-.056-.544-.091l.024-8.553c.182.035.363.065.544.091"/></g></g></g><path class="k" d="M592.581,279.659l-.024,8.553-4.3-2.485.024-8.553Z"/><path class="i" d="M604.328,272.833l-.024,8.553-11.747,6.827.024-8.553Z"/><g class="b"><g class="aa"><g class="b"><path class="q" d="M612.85,276.048l-.024,8.553v.05l.024-8.553v-.05"/><path class="r" d="M612.849,276.1l-.024,8.553a1.948,1.948,0,0,1-.038.33l.024-8.553a1.948,1.948,0,0,0,.038-.33"/><path class="s" d="M612.811,276.428l-.024,8.553a2.192,2.192,0,0,1-.1.344l.024-8.553a2.217,2.217,0,0,0,.1-.344"/><path class="t" d="M612.712,276.772l-.024,8.553a2.8,2.8,0,0,1-.178.378l.024-8.553a2.684,2.684,0,0,0,.178-.378"/><path class="u" d="M612.534,277.15l-.024,8.553a3.767,3.767,0,0,1-.316.467l.024-8.553a3.662,3.662,0,0,0,.316-.467"/><path class="v" d="M612.218,277.617l-.024,8.553a5.733,5.733,0,0,1-.618.659l.025-8.553a5.815,5.815,0,0,0,.617-.659"/><path class="w" d="M611.6,278.276l-.025,8.553a13.087,13.087,0,0,1-2.09,1.514l.024-8.553a13.148,13.148,0,0,0,2.091-1.514"/><path class="x" d="M609.51,279.79l-.024,8.553c-.12.072-.242.145-.367.218l.024-8.553c.125-.073.248-.146.367-.218"/></g></g></g><path class="i" d="M609.143,280.008l-.024,8.553-4.459,2.591.024-8.553Z"/><path class="l" d="M604.684,282.6a9.747,9.747,0,0,0-3.026,2.3l-4.371-2.523c.514-.571.8-.929,3.142-2.292l4.526-2.63c2.679-1.557,2.823-2.63.864-3.762l-1.491-.86-11.747,6.826-4.3-2.485,28.852-16.766,6.5,3.751c4.472,2.582,4.2,4.951-.258,7.542l-2.263,1.315a12.2,12.2,0,0,1-8.671,1.78c1.2,1.788-.281,3.461-3.292,5.212Zm11.086-11.468,2.845-1.654c2.064-1.2,2.292-2.107.768-2.987l-2.077-1.2-8.851,5.144,1.691.976c1.608.929,3.311,1.064,5.624-.28"/><path class="k" d="M601.658,284.9l-.024,8.553-4.371-2.524.024-8.553Z"/><g class="b"><g class="ab"><g class="b"><path class="x" d="M604.684,282.6l-.025,8.553c-.238.139-.464.272-.678.4l.024-8.553c.214-.13.44-.263.679-.4"/><path class="w" d="M604.005,283l-.024,8.553a10.878,10.878,0,0,0-1.764,1.26l.025-8.553a10.824,10.824,0,0,1,1.763-1.26"/><path class="v" d="M602.242,284.26l-.025,8.553a4.986,4.986,0,0,0-.526.566l.025-8.553a4.8,4.8,0,0,1,.526-.566"/><path class="u" d="M601.716,284.826l-.025,8.553-.057.074.024-8.553c.019-.025.038-.05.058-.074"/></g></g></g></g><g class="b"><path class="i" d="M639.939,273.577l-.024,8.553-21.681,12.6.024-8.553Z"/><path class="l" d="M639.939,273.577l-21.68,12.6c-5.774,3.355-10.186,2.523-13.435.648a20.771,20.771,0,0,1-1.993-1.248l4.126-2.4c.419.3.972.619,1.441.89a4.746,4.746,0,0,0,5.224-.184l22.013-12.793Z"/><g class="b"><g class="ac"><g class="b"><path class="x" d="M618.259,286.177l-.025,8.553a18.484,18.484,0,0,1-3.571,1.626l.024-8.553a18.487,18.487,0,0,0,3.572-1.626"/><path class="w" d="M614.687,287.8l-.024,8.553a14.063,14.063,0,0,1-1.821.462l.024-8.553a14.069,14.069,0,0,0,1.821-.462"/><path class="v" d="M612.866,288.265l-.024,8.553c-.337.061-.668.107-.992.14l.024-8.553c.325-.033.656-.079.992-.14"/><path class="u" d="M611.874,288.4l-.024,8.553c-.26.026-.515.043-.767.051l.024-8.553q.378-.014.767-.051"/><path class="t" d="M611.107,288.456l-.024,8.553q-.345.012-.679,0l.025-8.553q.334.009.678,0"/><path class="s" d="M610.429,288.459l-.025,8.553c-.217-.005-.432-.017-.643-.034l.024-8.553c.212.017.426.029.644.034"/><path class="r" d="M609.785,288.425l-.024,8.553c-.219-.018-.435-.043-.648-.073l.024-8.553c.213.03.429.055.648.073"/><path class="q" d="M609.137,288.352l-.024,8.553q-.354-.049-.7-.122l.024-8.553c.228.048.46.088.7.122"/><path class="ad" d="M608.441,288.23l-.024,8.553c-.274-.056-.542-.123-.8-.2l.024-8.553q.395.112.8.2"/><path class="ae" d="M607.636,288.032l-.024,8.553c-.373-.107-.735-.231-1.086-.369l.024-8.554q.527.209,1.086.37"/><path class="o" d="M606.55,287.662l-.024,8.554a13.062,13.062,0,0,1-1.726-.838,20.793,20.793,0,0,1-1.994-1.248l.025-8.553a20.771,20.771,0,0,0,1.993,1.248,13.062,13.062,0,0,0,1.726.837"/></g></g></g></g><g class="b"><path class="af" d="M643.942,281.806l-.024,8.553-16.652,7.291.024-8.553Z"/><path class="af" d="M622.827,291.05,622.8,299.6l-5.978,2.62.024-8.553Z"/><path class="k" d="M616.849,293.67l-.024,8.553-3.953-2.282.024-8.553Z"/><path class="k" d="M628.1,294.1l-.024,8.553L622.8,299.6l.024-8.553Z"/><path class="l" d="M652.416,280.781l-24.464,19.3-4.337-2.5L628.1,294.1l-5.275-3.046-5.978,2.62-3.953-2.282,33.223-14.243ZM627.29,289.1l4.136,2.388,12.516-9.679L627.29,289.1"/><path class="ag" d="M652.416,280.781l-.024,8.553-24.464,19.3.024-8.553Z"/><path class="k" d="M627.952,300.081l-.024,8.553-4.338-2.5.024-8.553Z"/></g><g class="b"><path class="af" d="M659.869,291l-.024,8.553-16.669,7.281.024-8.553Z"/><path class="af" d="M638.754,300.246l-.024,8.553-5.995,2.611.024-8.553Z"/><path class="k" d="M632.759,302.856l-.024,8.553-3.952-2.282.024-8.553Z"/><path class="k" d="M644.029,303.291l-.024,8.553L638.73,308.8l.024-8.553Z"/><path class="l" d="M668.344,289.976l-24.464,19.3-4.355-2.514,4.5-3.472-5.275-3.045-6,2.61-3.952-2.282,33.239-14.233ZM643.2,298.283l4.154,2.4L659.869,291,643.2,298.283"/><path class="ag" d="M668.344,289.976l-.024,8.553-24.464,19.3.024-8.553Z"/><path class="k" d="M643.88,309.277l-.024,8.553-4.354-2.514.024-8.553Z"/></g><g class="b"><path class="i" d="M670.606,300.5l-.024,8.553-20.9,12.145.024-8.553Z"/><path class="ah" d="M680.084,296.755l-.024,8.553L667.21,317.9l.024-8.553Z"/><path class="k" d="M649.708,312.642l-.024,8.553-3.885-2.243.024-8.553Z"/><path class="l" d="M688.341,301.522l-28.852,16.767-4.422-2.553L670.606,300.5l-20.9,12.145-3.886-2.243,28.852-16.767,5.41,3.123-12.85,12.59,17.271-10.037Z"/><path class="i" d="M688.341,301.522l-.024,8.553-28.852,16.767.024-8.553Z"/><path class="k" d="M659.489,318.289l-.024,8.553-4.421-2.553.024-8.553Z"/></g></g></g></svg>