<svg xmlns="http://www.w3.org/2000/svg" xmlns:xlink="http://www.w3.org/1999/xlink" width="224.974" height="276.477" viewBox="0 0 224.974 276.477"><defs><style>.a,.h{fill:none;}.b{isolation:isolate;}.c{fill:#521168;}.d{fill:#b0b2b2;}.e{fill:#2d2d2c;}.f{fill:#6e7072;}.g,.l{fill:#4a0e5c;}.g{stroke:#fff;stroke-width:9.531px;}.g,.h{stroke-linejoin:round;}.h{stroke:#490c5a;stroke-width:4.765px;}.i{fill:#622378;}.j{fill:#602175;}.k{fill:#5f2175;}.m{fill:#fff;}.n{fill:#5c1e71;}.o{clip-path:url(#a);}.p{fill:#490c5a;}.q{fill:#4b0e5c;}.r{fill:#4d115f;}.s{fill:#4f1361;}.t{fill:#511463;}.u{fill:#531666;}.v{fill:#551868;}.w{fill:#571a6a;}.x{fill:#591c6d;}.y{fill:#5b1d70;}.z{fill:#5d1f72;}.aa{clip-path:url(#b);}.ab{clip-path:url(#c);}.ac{clip-path:url(#d);}.ad{clip-path:url(#e);}.ae{fill:#602176;}.af{fill:#5f2074;}</style><clipPath id="a"><path class="a" d="M430.218,451.354l-.025,8.969c0-.467-.388-.894-1.1-1.3-1.528-.882-3.208-.9-5.372.355a4.636,4.636,0,0,0-2.585,4.463l.025-8.969a4.637,4.637,0,0,1,2.586-4.463c2.163-1.257,3.844-1.237,5.372-.355C429.831,450.46,430.219,450.888,430.218,451.354Z"/></clipPath><clipPath id="b"><path class="a" d="M436.6,451.466l-.025,8.969c0,1.5-1.315,3.02-3.855,4.5l.025-8.968C435.285,454.487,436.6,452.966,436.6,451.466Z"/></clipPath><clipPath id="c"><path class="a" d="M414.55,458.093l-.025,8.969c0-1.162-.2-2.394-.2-3.65l.025-8.969C414.348,455.7,414.553,456.931,414.55,458.093Z"/></clipPath><clipPath id="d"><path class="a" d="M405.384,470.415l.026-8.968c0-.534.493-1.116,1.607-1.763l-.025,8.969C405.877,469.3,405.386,469.882,405.384,470.415Z"/></clipPath><clipPath id="e"><path class="a" d="M421.359,458.482l-.026,8.969c-.006,2.224-.663,4.524-4.3,6.636-4.851,2.819-10.031,3.022-14.737.3-2.252-1.3-3.349-2.67-3.345-4.055l.025-8.969c0,1.385,1.094,2.755,3.345,4.055,4.706,2.717,9.887,2.514,14.737-.3C420.7,463.006,421.352,460.706,421.359,458.482Z"/></clipPath></defs><g transform="translate(-1244 -1523.048)"><g transform="translate(1244.684 1584.479)"><g class="b"><path class="c" d="M115.465,17.616l-7.093-4.095L5.974,73.448c-8.918,5.183-8.871,13.617.106,18.8l123.892,70.781,7.047-4.1L13.127,88.152c-5.063-2.923-5.1-7.682-.059-10.609l102.4-59.927"/></g></g><g transform="translate(1278.676 1483)"><g transform="translate(0 40.048)"><g class="b"><g transform="translate(0.045)"><path class="d" d="M75.562,20.135c10.427-6.114,27.514-6.156,38.1-.1l68.623,39.287c10.583,6.059,10.711,15.956.288,22.065l-67.775,39.724c-10.427,6.114-27.514,6.156-38.1.1L8.075,81.923C-2.509,75.865-2.636,65.968,7.786,59.858Zm103.5,41.08L110.435,21.927c-8.787-5.029-22.976-4.974-31.6.08L11.061,61.731C2.406,66.8,2.512,75,11.3,80.034l68.623,39.287c8.757,5.012,22.946,4.991,31.6-.08L179.3,79.517c8.622-5.054,8.516-13.291-.242-18.3" transform="translate(-0.053 -15.521)"/></g><g transform="translate(4.631 2.664)"><path class="e" d="M75.333,19.972c8.622-5.054,22.811-5.11,31.6-.08l68.623,39.287c8.757,5.012,8.863,13.248.242,18.3L108.02,117.205c-8.656,5.071-22.845,5.093-31.6.08L7.8,78C-.992,72.969-1.1,64.767,7.558,59.7Z" transform="translate(-1.135 -16.15)"/></g><path class="f" d="M190.34,28.5c0,.258-.042.517-.068.775-.025.288-.047.576-.1.86-.042.229-.11.453-.169.678a8.051,8.051,0,0,1-.233.813c-.076.22-.178.432-.271.648-.123.284-.246.568-.4.847-.106.2-.233.4-.356.6-.195.318-.4.631-.636.941-.136.182-.28.364-.428.542a16.14,16.14,0,0,1-1.174,1.263c-.136.131-.258.263-.4.394-.263.233-.551.462-.835.686-.241.195-.475.394-.733.585-.309.225-.648.436-.974.652s-.623.424-.966.627L114.829,79.131a29.36,29.36,0,0,1-3.745,1.792c-.352.14-.712.275-1.072.407-.818.3-1.678.538-2.542.78-.881.25-1.775.483-2.69.674-1.046.216-2.1.411-3.178.551-.3.038-.585.093-.881.123-1.487.161-2.991.246-4.5.263-.246,0-.487,0-.733,0-1.5-.008-2.991-.089-4.47-.237l-.669-.076a42.834,42.834,0,0,1-4.355-.733c-.246-.055-.487-.119-.733-.178a37.581,37.581,0,0,1-3.686-1.11c-.25-.089-.513-.161-.763-.258a29.514,29.514,0,0,1-4.08-1.907L8.109,39.936C4.092,37.64,1.58,34.789.58,31.8a9.553,9.553,0,0,1-.5-3.017L.042,43.771c-.008,4.046,2.669,8.092,8.024,11.16L76.689,94.213a29.018,29.018,0,0,0,3.8,1.813c.093.038.191.059.284.1.25.093.513.165.767.258.733.258,1.457.53,2.22.746.475.136.974.241,1.462.36.246.059.483.123.733.178.2.047.4.106.61.148.877.182,1.771.339,2.669.466.356.051.716.081,1.076.123.225.025.445.051.669.072.292.03.585.076.881.1.881.076,1.771.123,2.656.144.314.008.623,0,.932,0,.246,0,.487,0,.733,0,.369,0,.737.008,1.106,0,1-.034,2-.1,2.991-.2.136-.013.267-.042.4-.055.3-.034.585-.085.881-.123.724-.093,1.453-.174,2.165-.305.347-.059.669-.178,1.013-.25.919-.191,1.8-.419,2.695-.669.453-.131.945-.2,1.39-.347.4-.127.763-.3,1.148-.436.364-.131.72-.263,1.072-.407a28.54,28.54,0,0,0,3.745-1.792L182.562,54.4l.254-.153c.254-.153.475-.318.716-.479.326-.212.665-.424.966-.644.267-.195.5-.394.746-.593.28-.225.568-.445.822-.678.042-.038.1-.076.14-.114.1-.093.169-.195.267-.288a15.2,15.2,0,0,0,1.165-1.254c.072-.089.169-.169.241-.258s.123-.191.195-.288c.229-.309.432-.619.627-.936.081-.127.186-.254.258-.381.042-.072.064-.148.1-.22a8.817,8.817,0,0,0,.394-.839c.072-.161.165-.318.225-.475.021-.059.03-.123.051-.182.1-.267.161-.538.233-.809.047-.178.114-.352.153-.53.008-.051.008-.1.017-.153.051-.284.072-.572.1-.864.017-.178.055-.356.064-.534l0-.237h0Z" transform="translate(-0.042 26.479)"/></g></g></g><g transform="translate(916.562 1258.692)"><path class="g" d="M535.837,507.054l-4.933,2.867.016-5.706h0l-6.006-3.468-7.065,4.106.023-8.171-7.007-4.046-4.051,1.7.012-4.027,0,0h0l0,0v0l0,0-14.794-8.542-4.043,2.35.013-4.679-7.007-4.046h0l-3.8,1.6-3.32,1.395.02-7.01v-.076h0l-4.864-2.809-5.462,3.175.018-6.318-4.777-2.758-2.978,1.731.01-3.444L442.8,453.336h0l-6.21,3.61.015-5.48h0c0,.033-.02.067-.021.1v0a3.085,3.085,0,0,0-.759-2.073c-.028-.036-.078-.072-.108-.108a6.524,6.524,0,0,0-.918-.906,11.734,11.734,0,0,0-1.483-1,14.509,14.509,0,0,0-2.159-1c-.18-.068-.36-.122-.541-.181a13.3,13.3,0,0,0-1.864-.475c-.118-.021-.236-.048-.355-.066a13.508,13.508,0,0,0-4.818.157h0l.01-3.664h0l-13.048-7.533-2.185,1.269.007-2.527L403.58,430.7,397.3,432l.014-4.809v-.117h0l-4.794-2.768h0l-30.253,17.581-.026,8.969h0l4.794,2.768,6.15-3.573-.021,7.112L378.078,460l2.189-2.942-.011,4v.2h0L393.3,468.8l4.309-2.505.026-8.969h0l-.543-.313,1.109-.644,2.9,1.672-.019.018c-1.593,1.267-2.252,2.557-2,3.83h0a2.755,2.755,0,0,1-.1-.516l-.025,8.969a2.737,2.737,0,0,0,.2,1.035,3.974,3.974,0,0,0,.622,1.024,9.127,9.127,0,0,0,2.518,1.995,15.137,15.137,0,0,0,1.9.923h0c.034.013.067.035.1.049q.641.252,1.289.438c.072.021.145.034.217.053s.156.039.234.058c.176.044.351.094.528.13.277.058.555.106.833.146.09.012.179.019.269.03l.159.017c.115.013.229.029.344.039.253.021.506.034.76.041.2.005.408,0,.613,0h.1c.029,0,.057,0,.086,0,.3-.01.594-.031.891-.06.231-.023.462-.063.694-.1.083-.012.165-.021.248-.035.053-.009.106-.012.159-.022.233-.042.464-.122.7-.176l.106-.025-.011,3.991,13.049,7.533h0l1.026-.6,1.951-1.134-.01,3.444,4.777,2.758,5.462-3.174-.018,6.317,4.865,2.808h0l1.421-.825.8-.465-.007,2.568h0l4.39,2.535,6.322-2.7,1.23.71-.018,6.337,4.829,2.788h0l4.2-3.37-.017,5.783,4.777,2.758,4.193-2.437-.013,4.85,4.39,2.535,6.3-2.707,1.248.72-.018,6.337,4.829,2.788h0l2.168-1.744-.008,2.991,4.3,2.484,5.991-3.481-.02,6.928,4.917,2.839h0l30.254-17.581.025-8.969h0ZM386.511,448.671l1.678-2.254,3.342-.663Zm19.351,11.878c-.013.013-.034.028-.046.041.02-.023.049-.046.071-.069h0Zm.246-.222,0,0,.028-.025Zm.66-.48c-.044.028-.082.055-.126.083-.092.061-.2.124-.279.183.116-.083.249-.168.385-.253l.029-.019Zm14.833-7.236c-.011.023-.02.048-.03.071v0l-.017.036-.016.035C421.557,452.708,421.579,452.659,421.6,452.611Zm-6.551-1.3a6.947,6.947,0,0,0-.692,3.247c0-.04-.007-.078-.007-.118v0l-.015,5.261h0a4.273,4.273,0,0,1-.282.746c-.017.034-.041.067-.059.1a4.025,4.025,0,0,1-.395.622c-.073.092-.17.179-.253.269a4.61,4.61,0,0,1-.423.43,6.628,6.628,0,0,1-.937.659l-.018.012c-.047.027-.088.035-.135.061a7.557,7.557,0,0,1-1.332.6,5.4,5.4,0,0,1-1.336.248l.015-5.025-.719-.414.638-.371.022-7.621,1.837-1.068,4.091,2.362Zm3.266,12.981-.023.019-.046.031-.025.016a13.378,13.378,0,0,1-1.155.753,13.238,13.238,0,0,0,1.325-.883C418.364,464.252,418.344,464.274,418.316,464.3Zm.891-.744c-.137.129-.306.256-.46.384l.04-.036c.208-.174.408-.349.585-.525C419.313,463.433,419.27,463.492,419.207,463.551Zm.861-.956c-.022.03-.037.061-.06.091-.011.014-.026.027-.037.041-.035.037-.072.075-.1.113-.015.019-.034.038-.052.057s-.039.04-.056.06a7.142,7.142,0,0,0,.446-.564C420.157,462.46,420.114,462.528,420.068,462.6Zm.491-.736c-.034.061-.083.121-.12.181a6.036,6.036,0,0,0,.319-.61C420.693,461.573,420.639,461.717,420.559,461.859Zm.477-1.158a3,3,0,0,1-.09.319c-.011.03-.03.061-.042.092.07-.181.118-.362.169-.542C421.061,460.613,421.05,460.657,421.036,460.7Zm.277-7.232c0,.018-.01.035-.014.052a.337.337,0,0,0-.01.034c.009-.042.024-.082.034-.124Zm5.935,8.9-.869.505-5.041,2.929.01-3.581c.027-.1.05-.2.084-.3s.072-.179.111-.268v0c.042-.1.084-.2.135-.291.016-.03.037-.059.054-.09.039-.064.077-.129.118-.193s.066-.1.1-.146.047-.074.074-.111l.017-.019c.057-.075.124-.147.188-.22.091-.105.184-.209.29-.311.04-.038.088-.075.13-.113l.066-.058a6.426,6.426,0,0,1,.838-.614c.061-.038.11-.078.174-.115a8.23,8.23,0,0,1,1.562-.715,5.167,5.167,0,0,1,1.351-.262h.02a4.218,4.218,0,0,1,.6.062Zm6.113,15-3.471,2.017.009-3.444-.525-.3,1.109-.644,3.493,2.016Zm1.21-22.669-.046.038-.008.007c.1-.078.167-.156.257-.233C434.7,454.579,434.649,454.643,434.571,454.7Zm1.1-1.054c-.017.021-.041.043-.059.064.108-.127.174-.254.264-.381C435.8,453.44,435.758,453.546,435.67,453.651Zm.692-1.1c-.006.016-.015.031-.021.046l-.024.051c0,.006-.009.012-.012.018a2.943,2.943,0,0,0,.135-.468A2.792,2.792,0,0,1,436.362,452.554Zm5.027,20.155.007-2.787,0-1.266.434-.253,1.4-.815,3.492,2.016ZM471.566,505l-2.474-1.428h0l0,0,2.475,1.429ZM487.7,489.565l0,.515-6.544,3.8,6.548-5.259Z"/><path class="h" d="M373.181,450.053l-.021,7.112L378.078,460l2.189-2.942-.012,4.2L393.3,468.8l4.309-2.505.026-8.969-.543-.313,1.109-.644,2.9,1.672c-1.609,1.273-2.273,2.57-2.021,3.848a2.755,2.755,0,0,1-.1-.516l-.025,8.969c0,1.385,1.093,2.755,3.344,4.054a15.147,15.147,0,0,0,1.906.923c.034.014.067.036.1.05q.641.252,1.289.438c.072.021.144.034.216.053s.157.039.236.058c.176.044.351.094.527.13q.416.087.834.145c.089.013.179.02.269.031l.157.017c.115.013.229.029.345.039.253.021.506.034.76.041.2.005.407,0,.611,0h.1c.028,0,.056,0,.085,0,.3-.01.593-.03.891-.06.231-.023.462-.063.694-.1.082-.012.165-.021.247-.035.053-.009.106-.012.159-.022.235-.042.468-.123.7-.177l.1-.024-.011,3.991,13.049,7.533,2.977-1.73-.01,3.444,4.777,2.758,5.462-3.174-.018,6.317,4.865,2.808,2.22-1.29-.007,2.568,4.39,2.535,6.322-2.7,1.23.71-.018,6.337,4.829,2.788,4.2-3.37-.017,5.783,4.777,2.758,4.193-2.437-.013,4.85,4.39,2.535,6.3-2.707,1.248.72-.018,6.337,4.829,2.788,2.169-1.744-.008,2.991,4.3,2.484,5.991-3.481-.02,6.928,4.917,2.839,30.254-17.581.026-8.969-4.268-2.464-4.933,2.867.016-5.706-6.006-3.467-7.065,4.105.023-8.171-7.007-4.046-4.051,1.7.012-4.028,0,0,0,0v0l0,0-14.794-8.542-4.043,2.35.013-4.679-7.007-4.046-7.115,2.99.02-7.086-4.864-2.809-5.462,3.175.018-6.318-4.777-2.758-2.978,1.731.01-3.444L442.8,453.337l-6.211,3.609.015-5.48c0,.034-.02.067-.021.1.057-1.4-1-2.779-3.269-4.09a13.493,13.493,0,0,0-9.737-1.568l.01-3.664-13.048-7.533-2.185,1.269.007-2.527L403.58,430.7,397.3,432l.014-4.926-4.794-2.768L362.263,441.89l-.026,8.968,4.794,2.768Zm52.107,8.607a5.167,5.167,0,0,1,1.351-.262l.02,0a4.076,4.076,0,0,1,.6.062l-.011,3.914-5.91,3.434.01-3.581c.027-.1.049-.2.084-.3s.073-.183.112-.274.084-.193.134-.288.113-.19.173-.284.109-.172.172-.256.135-.161.2-.241c.091-.1.184-.208.29-.31.06-.058.13-.114.2-.171a6.5,6.5,0,0,1,.837-.613c.061-.038.111-.078.175-.116A8.23,8.23,0,0,1,425.288,458.66Zm-19.872,2.713,0,.023Zm1.352-1.526c-.16.1-.329.2-.459.3.133-.1.3-.2.47-.31Zm-.66.48,0,0,.034-.031Zm-.247.223c-.013.014-.035.028-.047.042.021-.024.051-.048.074-.072Zm-.34.461.017-.035Zm8.93-4.708v-.02c.045.554.082,1.1.09,1.628C414.532,457.386,414.5,456.851,414.451,456.3Zm7.119-3.617c-.011.024-.024.049-.035.074.021-.051.044-.1.067-.151C421.59,452.634,421.581,452.66,421.57,452.686Zm-.257.784c-.006.029-.018.056-.024.085.009-.042.024-.082.034-.124Zm-.134,1.082c0-.065,0-.13.007-.2C421.182,454.422,421.181,454.487,421.179,454.552Zm-.233,6.468c-.011.03-.03.061-.042.092.071-.181.118-.363.17-.545C421.031,460.718,421,460.869,420.946,461.02Zm-.387.839c-.034.061-.084.121-.121.182a6.181,6.181,0,0,0,.321-.611C420.693,461.573,420.639,461.716,420.559,461.859Zm-.551.827c-.041.052-.1.1-.14.154s-.076.078-.11.118a6.8,6.8,0,0,0,.447-.567C420.137,462.49,420.084,462.588,420.008,462.686Zm-.8.866c-.138.129-.307.256-.462.385.226-.188.439-.376.628-.565C419.313,463.432,419.27,463.492,419.207,463.552Zm-.914.762c-.023.017-.052.033-.075.05a13.368,13.368,0,0,1-1.158.754,13.017,13.017,0,0,0,1.333-.888C418.357,464.258,418.331,464.286,418.293,464.314ZM430.483,475l3.493,2.016-4.086,2.375.009-3.444-.525-.3Zm10.906-2.291.011-4.053,1.838-1.068,3.492,2.016Zm-6.818-18-.055.045c.1-.079.172-.159.264-.239C434.7,454.575,434.651,454.641,434.571,454.7Zm-20.213-.141c0-.041-.007-.08-.006-.121v0l-.015,5.261a4.628,4.628,0,0,1-2.367,2.839,6.2,6.2,0,0,1-2.8.908l.015-5.024-.719-.415.638-.371.022-7.621,1.837-1.068,4.091,2.362A6.944,6.944,0,0,0,414.358,454.564Zm-15.189,7.773a3.748,3.748,0,0,0,.355.627A3.748,3.748,0,0,1,399.169,462.337Zm.609,1.047a6.624,6.624,0,0,0,.688.681A6.624,6.624,0,0,1,399.778,463.384Zm1.05,1.031a11.962,11.962,0,0,0,1.495,1.008A11.962,11.962,0,0,1,400.828,464.415ZM487.7,490.08l-6.544,3.8,6.548-5.259Zm-18.6,13.488,0,0,2.475,1.429-.005,0Zm-32.73-51.014c-.013.032-.031.065-.045.1,0,.006-.009.012-.012.018a2.859,2.859,0,0,0,.135-.472A2.682,2.682,0,0,1,436.362,452.554Zm-.486.779c-.075.106-.117.212-.206.318-.017.021-.041.042-.059.064C435.72,453.587,435.786,453.46,435.876,453.333ZM430.2,451.3a1.034,1.034,0,0,0-.252-.6A1.034,1.034,0,0,1,430.2,451.3Zm-.309-.658a3.148,3.148,0,0,0-.763-.592A3.148,3.148,0,0,1,429.887,450.643Zm-43.376-1.971,1.678-2.255,3.342-.663Z"/><g class="b"><path class="i" d="M397.311,427.076l-.025,8.969L384.1,443.71l.025-8.969Z"/><path class="j" d="M408.357,433.453l-.025,8.969-20.143,3.995.025-8.969Z"/><path class="k" d="M380.588,438.5l-.025,8.969-4.249.76.025-8.969Z"/><path class="i" d="M376.339,439.263l-.025,8.969-9.282,5.394.025-8.969Z"/><path class="l" d="M367.057,444.658l-.025,8.969-4.794-2.768.025-8.969Z"/><path class="l" d="M378.1,451.035,378.078,460l-4.917-2.839.025-8.969Z"/><path class="m" d="M408.357,433.453l-20.143,3.995L378.1,451.035l-4.917-2.839,7.4-9.693-4.249.76-9.282,5.394-4.794-2.768,30.254-17.582,4.794,2.768-13.19,7.665,19.46-4.046Z"/><path class="n" d="M388.214,437.448l-.025,8.969L378.078,460l.025-8.969Z"/></g><g class="b"><path class="i" d="M423.583,442.244l-.025,8.969-4.327,2.515.025-8.969Z"/><path class="l" d="M419.256,444.759l-.025,8.969-8.272-4.776.025-8.969Z"/><path class="i" d="M410.985,439.983l-.025,8.969-8.427,4.9.025-8.969Z"/><path class="i" d="M409.126,448.673l-.025,8.969-4.327,2.515.025-8.969Z"/><path class="l" d="M404.8,451.187l-.025,8.969-6.568-3.792.025-8.969Z"/><path class="i" d="M398.23,447.4l-.025,8.969-8.863,5.151.025-8.969Z"/><path class="l" d="M393.329,459.826l-.025,8.969-13.048-7.533.025-8.969Z"/><path class="i" d="M397.639,457.321l-.025,8.969-4.309,2.5.025-8.969Z"/><path class="m" d="M423.583,442.244l-4.327,2.515-8.272-4.776-8.427,4.9,6.568,3.792-4.327,2.515L398.23,447.4l-8.863,5.151,8.272,4.776-4.309,2.5-13.048-7.533,30.254-17.582Z"/></g><g class="b"><g class="b"><g class="o"><g class="b"><path class="p" d="M430.218,451.354l-.025,8.969c0-.467-.388-.894-1.1-1.3a5.155,5.155,0,0,0-.678-.329l.025-8.969a5.229,5.229,0,0,1,.679.329c.707.409,1.1.837,1.094,1.3"/><path class="q" d="M428.445,449.722l-.025,8.969c-.134-.053-.27-.1-.407-.138l.026-8.969c.137.039.272.085.406.138"/><path class="r" d="M428.039,449.584l-.026,8.969c-.1-.029-.2-.054-.306-.076l.026-8.969c.1.022.2.047.306.076"/><path class="s" d="M427.733,449.508l-.026,8.969c-.086-.018-.172-.033-.26-.045l.026-8.969c.087.012.174.028.26.045"/><path class="t" d="M427.473,449.463l-.026,8.969c-.08-.012-.16-.021-.242-.027l.026-8.969c.081.007.162.016.242.027"/><path class="u" d="M427.231,449.436,427.2,458.4c-.08-.007-.16-.011-.241-.013l.025-8.969c.081,0,.162.006.242.013"/><path class="v" d="M426.989,449.423l-.025,8.969c-.085,0-.17,0-.256,0l.025-8.969c.086,0,.172,0,.256,0"/><path class="w" d="M426.733,449.424l-.025,8.969c-.1,0-.194.01-.292.02l.025-8.969c.1-.01.2-.016.292-.02"/><path class="x" d="M426.441,449.444l-.025,8.969c-.127.012-.255.03-.385.054l.025-8.969c.13-.023.259-.041.385-.054"/><path class="y" d="M426.056,449.5l-.025,8.969a5.521,5.521,0,0,0-.718.182l.025-8.969a5.775,5.775,0,0,1,.718-.182"/><path class="z" d="M425.338,449.68l-.025,8.969a8.183,8.183,0,0,0-1.587.726l-.087.051.026-8.968.087-.052a8.2,8.2,0,0,1,1.586-.726"/><path class="y" d="M423.665,450.458l-.026,8.968a6.419,6.419,0,0,0-1.042.764l.026-8.969a6.372,6.372,0,0,1,1.042-.763"/><path class="x" d="M422.623,451.221l-.026,8.969a4.6,4.6,0,0,0-.523.561l.025-8.969a4.613,4.613,0,0,1,.524-.561"/><path class="w" d="M422.1,451.782l-.025,8.969a4.078,4.078,0,0,0-.357.531l.026-8.969a3.968,3.968,0,0,1,.356-.531"/><path class="v" d="M421.743,452.313l-.026,8.969a4.087,4.087,0,0,0-.263.568l.025-8.969a3.981,3.981,0,0,1,.264-.568"/><path class="u" d="M421.479,452.881l-.025,8.969a4.58,4.58,0,0,0-.2.7l.026-8.969a4.466,4.466,0,0,1,.2-.7"/><path class="t" d="M421.281,453.585l-.026,8.969a6.365,6.365,0,0,0-.112,1.085l.026-8.969a6.364,6.364,0,0,1,.112-1.085"/><path class="s" d="M421.169,454.67l-.026,8.969c0,.066,0,.132,0,.2l.025-8.969c0-.066,0-.133,0-.2"/></g></g></g><g class="b"><g class="aa"><g class="b"><path class="s" d="M436.6,451.466l-.025,8.969v.067l.025-8.969v-.067"/><path class="t" d="M436.6,451.533l-.025,8.969a2.63,2.63,0,0,1-.052.448l.026-8.969a2.628,2.628,0,0,0,.051-.448"/><path class="u" d="M436.548,451.981l-.026,8.969a2.859,2.859,0,0,1-.133.461l.026-8.969a2.964,2.964,0,0,0,.133-.461"/><path class="v" d="M436.415,452.442l-.026,8.969a3.463,3.463,0,0,1-.235.5l.026-8.969a3.632,3.632,0,0,0,.235-.5"/><path class="w" d="M436.18,452.942l-.026,8.969a4.626,4.626,0,0,1-.4.6l.026-8.969a4.726,4.726,0,0,0,.4-.6"/><path class="x" d="M435.777,453.537l-.026,8.969a6.728,6.728,0,0,1-.727.778l.025-8.969a6.828,6.828,0,0,0,.728-.778"/><path class="y" d="M435.049,454.315l-.025,8.969a12.529,12.529,0,0,1-2.042,1.492l.025-8.968a12.547,12.547,0,0,0,2.042-1.493"/><path class="z" d="M433.007,455.808l-.025,8.968c-.086.052-.173.1-.262.155l.025-8.968.262-.155"/></g></g></g><path class="i" d="M432.745,455.963l-.025,8.969-.942.547.025-8.969Z"/><path class="l" d="M431.8,456.51l-.025,8.969-4.531-2.616.025-8.969Z"/><g class="b"><g class="ab"><g class="b"><path class="p" d="M414.55,458.093l-.025,8.969c0-1.162-.2-2.394-.2-3.65l.025-8.969c0,1.256.2,2.488.2,3.65"/></g></g></g><path class="i" d="M409.18,458.427l-.025,8.969-2.164,1.257.025-8.969Z"/><g class="b"><g class="ac"><g class="b"><path class="z" d="M407.017,459.684l-.025,8.969-.129.076.025-8.969.129-.076"/><path class="y" d="M406.888,459.76l-.025,8.969a5.494,5.494,0,0,0-.9.655l.025-8.969a5.538,5.538,0,0,1,.9-.655"/><path class="x" d="M405.987,460.415l-.025,8.969a2.587,2.587,0,0,0-.283.3l.026-8.968a2.667,2.667,0,0,1,.282-.3"/><path class="w" d="M405.7,460.717l-.026,8.968a1.847,1.847,0,0,0-.147.217l.026-8.968a1.6,1.6,0,0,1,.147-.217"/><path class="v" d="M405.558,460.934l-.026,8.968a1.29,1.29,0,0,0-.084.178l.026-8.968a1.238,1.238,0,0,1,.084-.178"/><path class="u" d="M405.474,461.112l-.026,8.968a1.106,1.106,0,0,0-.046.16l.025-8.968a.967.967,0,0,1,.047-.16"/><path class="t" d="M405.427,461.272l-.025,8.968a1.009,1.009,0,0,0-.018.153l.026-8.969a.884.884,0,0,1,.017-.152"/><path class="s" d="M405.41,461.424l-.026,8.969v.022l.026-8.968v-.023"/></g></g></g><g class="b"><g class="ad"><g class="b"><path class="s" d="M421.359,458.482l-.026,8.969c0,.09,0,.18,0,.271l.026-8.969c0-.091,0-.181,0-.271"/><path class="t" d="M421.355,458.753l-.026,8.969a7.923,7.923,0,0,1-.139,1.311l.025-8.969a7.922,7.922,0,0,0,.14-1.311"/><path class="u" d="M421.215,460.064l-.025,8.969a6.217,6.217,0,0,1-.274.973l.026-8.969a6.211,6.211,0,0,0,.273-.973"/><path class="v" d="M420.942,461.037l-.026,8.969a6.031,6.031,0,0,1-.391.841l.025-8.968a5.935,5.935,0,0,0,.392-.842"/><path class="w" d="M420.55,461.879l-.025,8.968a6.421,6.421,0,0,1-.551.819L420,462.7a6.375,6.375,0,0,0,.55-.819"/><path class="x" d="M420,462.7l-.026,8.968a7.683,7.683,0,0,1-.837.9l.025-8.969a7.773,7.773,0,0,0,.838-.9"/><path class="y" d="M419.162,463.6l-.025,8.969a11.549,11.549,0,0,1-1.92,1.412l.025-8.969a11.547,11.547,0,0,0,1.92-1.412"/><path class="z" d="M417.242,465.011l-.025,8.969-.182.107a17.378,17.378,0,0,1-3.367,1.519l.025-8.969a17.345,17.345,0,0,0,3.367-1.518l.182-.108"/><path class="y" d="M413.693,466.637l-.025,8.969a14.925,14.925,0,0,1-1.945.491l.026-8.969a14.759,14.759,0,0,0,1.944-.491"/><path class="x" d="M411.749,467.128l-.026,8.969q-.549.1-1.1.155l.025-8.969q.551-.055,1.1-.155"/><path class="w" d="M410.648,467.283l-.025,8.969q-.445.045-.891.06l.025-8.969q.445-.015.891-.06"/><path class="v" d="M409.757,467.343l-.025,8.969q-.4.014-.794,0l.026-8.969q.4.009.793,0"/><path class="u" d="M408.964,467.347l-.026,8.969c-.254-.007-.507-.02-.76-.041l.025-8.969q.379.031.761.041"/><path class="t" d="M408.2,467.306l-.025,8.969q-.387-.031-.772-.086l.026-8.969q.385.054.771.086"/><path class="s" d="M407.432,467.22l-.026,8.969c-.278-.04-.556-.088-.833-.146l.025-8.969c.277.058.555.106.834.146"/><path class="r" d="M406.6,467.074l-.025,8.969q-.492-.1-.979-.241l.025-8.969q.488.139.979.241"/><path class="q" d="M405.619,466.833l-.025,8.969q-.648-.186-1.289-.438l.026-8.969a13.577,13.577,0,0,0,1.288.438"/><path class="p" d="M404.331,466.395l-.026,8.969a15.089,15.089,0,0,1-2.007-.972c-2.252-1.3-3.349-2.67-3.345-4.055l.025-8.969c0,1.385,1.094,2.755,3.345,4.055a15.1,15.1,0,0,0,2.008.972"/></g></g></g><path class="m" d="M433.31,447.476c4.654,2.687,4.286,5.668-.565,8.487l-.942.547-4.531-2.616,1.256-.73c2.164-1.257,2.123-2.23.6-3.113s-3.209-.9-5.372.355c-6.229,3.62,1.945,9.693-6.692,14.713-4.85,2.818-10.031,3.021-14.737.3-4.689-2.707-4.373-5.719.477-8.538l1.85-1.074,4.53,2.616-2.163,1.257c-2.146,1.247-1.983,2.251-.455,3.133,1.51.872,3.261.973,5.407-.274,6.229-3.62-1.962-9.7,6.674-14.722C423.494,445,428.656,444.789,433.31,447.476Z"/></g><g class="b"><path class="i" d="M455.844,460.87l-.025,8.969-4.327,2.515.025-8.969Z"/><path class="l" d="M451.517,463.385l-.025,8.969-8.254-4.765.025-8.969Z"/><path class="i" d="M443.263,458.619l-.025,8.969-8.427,4.9.025-8.969Z"/><path class="i" d="M441.4,467.308l-.025,8.969-4.327,2.515.025-8.969Z"/><path class="l" d="M437.077,469.823l-.025,8.969L430.483,475l.025-8.969Z"/><path class="i" d="M430.509,466.031,430.483,475l-8.863,5.151.025-8.969Z"/><path class="l" d="M425.59,478.452l-.025,8.969-13.048-7.533.025-8.969Z"/><path class="i" d="M429.9,475.947l-.025,8.969-4.309,2.5.025-8.969Z"/><path class="m" d="M455.844,460.87l-4.327,2.515-8.254-4.765-8.427,4.9,6.568,3.792-4.327,2.515-6.568-3.792-8.863,5.151,8.254,4.765-4.309,2.5-13.048-7.533L442.8,453.336Z"/></g><g class="b"><path class="i" d="M463.589,465.341l-.025,8.969-12.981,7.544.025-8.969Z"/><path class="l" d="M451.742,478.533l-.025,8.969-5.444-3.143.025-8.969Z"/><path class="i" d="M446.3,475.39l-.025,8.969-12.963,7.534.025-8.969Z"/><path class="l" d="M433.335,482.923l-.025,8.969-4.777-2.758.025-8.969Z"/><path class="m" d="M473.9,471.293l-30.254,17.582-4.865-2.809,12.963-7.534L446.3,475.39l-12.963,7.534-4.777-2.758,30.254-17.582,4.777,2.758-12.981,7.544,5.444,3.143,12.981-7.544Z"/><path class="i" d="M473.9,471.293l-.025,8.969-30.254,17.582.025-8.969Z"/><path class="l" d="M443.643,488.875l-.025,8.969-4.865-2.809.025-8.969Z"/></g><g class="b"><path class="i" d="M478.885,480.4l-.025,8.969-17.6,7.544.025-8.969Z"/><path class="ae" d="M488,479.435l-.025,8.969-25.389,20.39.025-8.969Z"/><path class="l" d="M492.717,487.171l-.025,8.969-5.005-2.89.025-8.969Z"/><path class="l" d="M502.5,492.819l-.025,8.969-5.005-2.89.025-8.969Z"/><path class="i" d="M506.825,490.3l-.025,8.969-4.327,2.515.025-8.969Z"/><path class="l" d="M450.247,492.687l-.025,8.969-4.39-2.535.025-8.969Z"/><path class="i" d="M456.568,489.99l-.025,8.969-6.321,2.7.025-8.969Z"/><path class="l" d="M462.434,493.377l-.025,8.969-5.866-3.387.025-8.969Z"/><path class="m" d="M488,479.435l-25.389,20.39-4.829-2.788,4.653-3.66-5.866-3.387-6.321,2.7-4.391-2.535,35.136-14.763Zm-26.716,8.507,4.618,2.667L478.885,480.4l-17.6,7.544"/><path class="l" d="M462.61,499.825l-.025,8.969-4.829-2.788.025-8.969Z"/><path class="i" d="M497.493,489.929l-.025,8.969-25.927,15.067.025-8.969Z"/><path class="m" d="M506.83,490.31l-4.326,2.514-5-2.889L471.58,505l-4.793-2.767,25.921-15.063-5-2.889,4.326-2.514Z"/><path class="l" d="M471.566,505l-.025,8.969-4.777-2.758.025-8.969Z"/><path class="i" d="M508.757,497.645l-.025,8.969-17.585,7.554.025-8.969Z"/><path class="i" d="M486.44,507.237l-.025,8.969-6.3,2.707.025-8.969Z"/><path class="l" d="M480.137,509.944l-.025,8.969-4.39-2.535.025-8.969Z"/><path class="l" d="M492.306,510.623l-.025,8.969-5.866-3.386.025-8.969Z"/><path class="m" d="M517.872,496.682l-25.372,20.4-4.829-2.788,4.635-3.671-5.866-3.386-6.3,2.707-4.391-2.535,35.119-14.773Zm-26.7,8.517,4.6,2.656,12.983-10.21L491.173,505.2"/><path class="ae" d="M517.872,496.682l-.025,8.969-25.372,20.4.025-8.969Z"/><path class="l" d="M492.5,517.082l-.025,8.969-4.829-2.788.025-8.969Z"/></g><g class="b"><path class="i" d="M520.877,508.078l-.025,8.969-21.914,12.735.025-8.969Z"/><path class="af" d="M530.92,504.215l-.025,8.969L517.7,526.548l.025-8.969Z"/><path class="l" d="M498.963,520.813l-.025,8.969-4.3-2.484.025-8.969Z"/><path class="m" d="M540.1,509.518,509.851,527.1l-4.917-2.839,15.943-16.182-21.914,12.735-4.3-2.484,30.254-17.582,6.006,3.468-13.193,13.364,18.111-10.525Z"/><path class="i" d="M540.1,509.518l-.025,8.969-30.254,17.582.025-8.969Z"/><path class="l" d="M509.851,527.1l-.025,8.969-4.917-2.839.025-8.969Z"/></g></g></g></svg>