<svg xmlns="http://www.w3.org/2000/svg" xmlns:xlink="http://www.w3.org/1999/xlink" width="191" height="235.246" viewBox="0 0 191 235.246"><defs><style>.a,.h{fill:none;}.b{isolation:isolate;}.c{fill:#d10000;}.d{fill:#b0b2b2;}.e{fill:#2d2d2c;}.f{fill:#6e7072;}.g,.s{fill:#991d1b;}.g{stroke:#fff;stroke-width:9.089px;}.g,.h{stroke-linejoin:round;}.h{stroke:#831412;stroke-width:4.545px;}.i{fill:#ac2322;}.j{fill:#a82221;}.k{fill:#a72221;}.l{fill:#831412;}.m{fill:#fff;}.n{fill:#a2201f;}.o{clip-path:url(#a);}.p{fill:#a3201f;}.q{fill:#a01f1e;}.r{fill:#9c1e1d;}.t{fill:#951c1a;}.u{fill:#921a19;}.v{fill:#8e1917;}.w{fill:#8b1815;}.x{clip-path:url(#b);}.y{fill:#871614;}.z{fill:#841512;}.aa{fill:#811310;}.ab{fill:#a62121;}.ac{clip-path:url(#c);}.ad{clip-path:url(#d);}.ae{clip-path:url(#e);}.af{clip-path:url(#f);}.ag{clip-path:url(#g);}.ah{clip-path:url(#h);}</style><clipPath id="a"><path class="a" d="M584.106,165.247l.024-8.553c0-.511.47-1.071,1.541-1.693l-.024,8.553C584.576,164.176,584.107,164.736,584.106,165.247Z"/></clipPath><clipPath id="b"><path class="a" d="M577.729,165.035l.024-8.553c0,1.318,1.04,2.624,3.191,3.866,4.471,2.582,9.445,2.388,14.054-.29l-.024,8.553c-4.61,2.678-9.583,2.872-14.055.29C578.768,167.659,577.725,166.353,577.729,165.035Z"/></clipPath><clipPath id="c"><path class="a" d="M678.709,188.351l-.025,8.553c0-.438-.358-.853-1.076-1.267l.024-8.554C678.351,187.5,678.71,187.913,678.709,188.351Z"/></clipPath><clipPath id="d"><path class="a" d="M685.385,188.712l-.024,8.553c0,1.273-1.149,2.527-3.366,3.816l.025-8.554C684.237,191.239,685.381,189.984,685.385,188.712Z"/></clipPath><clipPath id="e"><path class="a" d="M665.48,195.934l-.025,8.553c0-.568-.5-1.1-1.462-1.656l.024-8.553C664.978,194.832,665.481,195.366,665.48,195.934Z"/></clipPath><clipPath id="f"><path class="a" d="M679.74,193.852l-.024,8.553a12.068,12.068,0,0,1-8.838,1.663l.024-8.553A12.067,12.067,0,0,0,679.74,193.852Z"/></clipPath><clipPath id="g"><path class="a" d="M671.4,196.916l-.024,8.553c0,1.34-1.374,2.621-3.605,3.918l.024-8.553C670.025,199.537,671.4,198.256,671.4,196.916Z"/></clipPath><clipPath id="h"><path class="a" d="M663.334,203.425l-.024,8.553a9.066,9.066,0,0,0-3.008,2.33l.024-8.553A9.077,9.077,0,0,1,663.334,203.425Z"/></clipPath></defs><g transform="translate(-513 -3526.873)"><g class="b" transform="translate(517.981 3564.479)"><path class="c" d="M115.465,17.616l-7.093-4.095L5.974,73.448c-8.918,5.183-8.871,13.617.106,18.8l123.892,70.781,7.047-4.1L13.127,88.152c-5.063-2.923-5.1-7.682-.059-10.609l102.4-59.927"/></g><g transform="translate(512.958 3487.739)"><g transform="translate(0.042 39.134)"><g class="b"><g transform="translate(0.045)"><path class="d" d="M75.84,20.152c10.465-6.136,27.615-6.179,38.237-.1l68.876,39.432c10.622,6.081,10.75,16.014.289,22.146L115.217,121.5c-10.465,6.136-27.615,6.179-38.237.1L8.1,82.168c-10.622-6.081-10.75-16.014-.289-22.146ZM179.718,61.383,110.842,21.95c-8.819-5.048-23.061-4.992-31.714.081L11.1,61.9c-8.688,5.09-8.581,13.323.238,18.37L80.216,119.7c8.79,5.031,23.031,5.009,31.719-.081l68.025-39.87c8.654-5.073,8.547-13.34-.242-18.37" transform="translate(-0.053 -15.521)"/></g><g transform="translate(4.648 2.674)"><path class="e" d="M75.607,19.986c8.654-5.073,22.895-5.128,31.714-.081L176.2,59.337c8.79,5.031,8.9,13.3.242,18.37l-68.025,39.87c-8.688,5.09-22.929,5.111-31.719.081L7.82,78.226C-1,73.179-1.106,64.946,7.582,59.856Z" transform="translate(-1.135 -16.15)"/></g><path class="f" d="M191.042,28.5c0,.259-.043.519-.068.778-.026.289-.047.578-.1.863-.043.23-.111.455-.17.68a8.08,8.08,0,0,1-.234.816c-.077.221-.179.434-.272.651-.123.285-.247.57-.4.85-.106.2-.234.4-.357.6-.2.319-.4.634-.638.944-.136.183-.281.366-.429.544a16.2,16.2,0,0,1-1.178,1.267c-.136.132-.259.264-.4.4-.264.234-.553.464-.838.689-.242.2-.476.4-.736.587-.31.225-.651.438-.978.655s-.625.425-.97.629l-68.025,39.87a29.468,29.468,0,0,1-3.759,1.8c-.353.14-.714.276-1.076.408-.821.3-1.684.54-2.551.782-.884.251-1.782.485-2.7.676-1.05.217-2.109.412-3.189.553-.3.038-.587.094-.884.123-1.493.162-3,.247-4.516.264-.247,0-.489,0-.736,0-1.5-.009-3-.089-4.486-.238l-.672-.077a42.993,42.993,0,0,1-4.371-.736c-.247-.055-.489-.119-.736-.179a37.715,37.715,0,0,1-3.7-1.114c-.251-.089-.515-.162-.765-.259a29.625,29.625,0,0,1-4.1-1.914L8.139,39.978c-4.031-2.3-6.553-5.167-7.556-8.169a9.589,9.589,0,0,1-.5-3.028L.042,43.827c-.009,4.061,2.679,8.122,8.054,11.2L76.972,94.456a29.128,29.128,0,0,0,3.81,1.82c.094.038.191.06.285.1.251.094.515.166.77.259.736.259,1.463.532,2.228.748.476.136.978.242,1.467.361.247.06.485.123.736.179.2.047.4.106.612.149.88.183,1.777.34,2.679.468.357.051.719.081,1.08.123.225.025.446.051.672.072.293.03.587.077.884.1.884.077,1.778.123,2.666.145.315.009.625,0,.936,0,.247,0,.489,0,.736,0,.37,0,.74.009,1.11,0,1-.034,2.007-.1,3-.2.136-.013.268-.043.4-.055.3-.034.587-.085.884-.123.727-.094,1.459-.174,2.173-.306.349-.06.672-.179,1.016-.251.923-.191,1.812-.421,2.7-.672.455-.132.948-.2,1.395-.349.4-.128.765-.3,1.152-.438.366-.132.723-.264,1.076-.408a28.643,28.643,0,0,0,3.759-1.8l68.025-39.87.255-.153c.255-.153.476-.319.719-.481.327-.213.668-.425.97-.646.268-.2.5-.4.748-.6.281-.225.57-.446.825-.68.043-.038.1-.077.14-.115.1-.094.17-.2.268-.289a15.255,15.255,0,0,0,1.169-1.259c.072-.089.17-.17.242-.259s.123-.191.2-.289c.23-.31.434-.621.629-.94.081-.128.187-.255.259-.383.043-.072.064-.149.1-.221a8.847,8.847,0,0,0,.4-.842c.072-.162.166-.319.225-.476.021-.06.03-.123.051-.183.1-.268.162-.54.234-.812.047-.179.115-.353.153-.532.009-.051.009-.1.017-.153.051-.285.072-.574.1-.867.017-.179.055-.357.064-.536l0-.238h0Z" transform="translate(-0.042 26.682)"/></g></g></g><g transform="translate(-3.671 3543.266)"><path class="g" d="M566.048,155.483l2.059-1.2-.019,6.783,4.689,2.707,4.974-6.683-.022,7.942a3.874,3.874,0,0,0,1.784,2.923,11.507,11.507,0,0,0,1.406.943,14.232,14.232,0,0,0,1.8.874h0c.031.012.06.032.091.044.245.1.493.17.74.251.163.054.324.119.488.166.072.021.145.034.217.054s.153.037.23.056c.162.041.325.087.488.121.266.054.532.1.8.139.088.012.177.019.265.03l.151.016c.108.012.215.028.323.037q.364.03.73.039c.2,0,.392,0,.588,0h.174c.285-.01.571-.029.856-.058.218-.021.436-.059.654-.091.081-.013.162-.021.243-.035.053-.009.106-.012.158-.022.222-.04.442-.116.663-.167s.419-.087.628-.145l-.012,4.206,12.059,6.962,2-1.162-.007,2.312,4.573,2.64,3.276-1.9-.011,3.789,4.12,2.379,5.7-3.31-.019,6.588,4.689,2.707,3.277-1.9-.011,3.79,12.444,7.184,1.713-.995,1.127-.655-.01,3.284,4.556,2.631,4.089-2.377.9-.524-.006,2.121-.01,3.651,4.656,2.688a4.462,4.462,0,0,1,.39-.452c.067-.072.128-.147.2-.217.056-.053.122-.1.186-.156.033-.029.069-.058.1-.087.144-.121.286-.242.45-.36.118-.085.25-.17.379-.255h0c.17-.112.339-.225.527-.34.245-.151.494-.3.771-.462l4.459-2.591.1-.058c.081-.048.162-.1.24-.143.013-.007.022-.015.035-.022q.6-.364,1.1-.729c.048-.035.083-.07.129-.1s.087-.073.135-.11c.211-.164.431-.328.608-.492.05-.046.082-.092.129-.137a.559.559,0,0,1,.041-.044h0c.073-.073.139-.147.205-.219h0c.078-.086.173-.171.241-.258.039-.05.066-.1.1-.15a3.5,3.5,0,0,0,.213-.316c.021-.036.033-.072.051-.107s.022-.048.034-.072c.034-.071.073-.141.1-.212a2.282,2.282,0,0,0,.1-.351,1.967,1.967,0,0,0,.039-.341v-.052l0-1.312.065.011c.068.011.137.027.206.036q.333.048.664.075c.212.017.424.029.636.034.041,0,.083,0,.124,0,.025,0,.049,0,.073,0,.151,0,.3,0,.452,0q.358-.012.716-.048c.3-.029.592-.071.887-.124.021,0,.043-.012.064-.016.074-.014.149-.041.223-.056a12.3,12.3,0,0,0,1.267-.319c.167-.054.335-.134.5-.195s.332-.125.5-.193a15.823,15.823,0,0,0,1.962-.954l2.279-1.324.127-.076.127-.075c.42-.253.786-.5,1.122-.754h0c.082-.061.148-.122.224-.183.168-.133.348-.266.491-.4.048-.043.078-.087.123-.131s.106-.113.159-.169v0c.064-.068.133-.136.191-.2.022-.026.051-.052.072-.077a.816.816,0,0,0,.058-.062,3.925,3.925,0,0,0,.328-.483c.038-.068.063-.135.1-.2.013-.028.027-.056.039-.083s.042-.081.057-.121a2.476,2.476,0,0,0,.084-.289c.006-.028.018-.056.024-.084a2.266,2.266,0,0,0,.042-.366c0-.018,0-.037,0-.055l.024-8.553a2.284,2.284,0,0,1-.119.523,2.148,2.148,0,0,0,.013-1c-.009-.047-.019-.094-.032-.142a2.841,2.841,0,0,0-.3-.676,3.763,3.763,0,0,0-.307-.456c-.1-.118-.2-.237-.311-.356a7.622,7.622,0,0,0-.83-.75c-.084-.065-.179-.13-.269-.2a14.758,14.758,0,0,0-1.357-.888l-4.364-2.519-2.519-1.455h0l-2.839,1.651.009-3.285-12.444-7.184-3.276,1.9.011-3.79h0l-4.07-2.349-4.252,2.471-.453.263.016-5.442-5.728-3.307-2.664,1.548-.613.356.011-3.789h0l-4.572-2.64h0l-11.194,6.505L607.4,172.736l.006-2.307.005,0-.136-.079,17.33-10.071.024-8.544,0,0,0,0v0h0l0,0-4.563-2.636-3.114,1.809.01-3.6-4.321-2.5-4.738,2.754.015-5.48h0l-2.277-1.315-2.278-1.315-1.714,1,.006-1.982h0l-4.556-2.63-5.992,1.244.013-4.7-4.572-2.64L557.7,146.5l-.024,8.554,4.572,2.639Zm118.879,34.541a2.116,2.116,0,0,0,.214-.319l0,.005a3.366,3.366,0,0,1-.317.473C684.857,190.13,684.894,190.077,684.927,190.024Zm-.531.713,0,0h0c-.141.148-.322.3-.493.446C684.072,191.036,684.255,190.886,684.4,190.737Zm-1,.884h0l0,0a14.221,14.221,0,0,1-1.375.9A14.188,14.188,0,0,0,683.4,191.621Zm-13.976,8.136-.023.02c-.047.035-.082.07-.13.105s-.1.062-.145.093C669.226,199.9,669.324,199.83,669.421,199.757ZM658.4,189.127l.007-2.548,1.752-1.018,3.332,1.923-5.095,2.961Zm-10.4,3.5,3.331,1.923-2.635,1.531-1.262.733.01-3.284-.5-.289Zm-44.842-19.885h0l.051.029.081.047h0l-.132-.076Zm-7.669-4.43,4.411,2.547v0l-4.413-2.547Zm-10.069-13.146.029-.018-.006,0,0,0-.086.056c-.125.079-.255.158-.356.235C585.111,155.357,585.264,155.263,585.413,155.169Zm-.585.423-.027.025h0l0,0Zm-.239.212-.014.014-.013.015-.03.027-.015.013C584.537,155.851,584.566,155.827,584.589,155.8Zm-2.169-4.985,2.072-.411-3.094,1.8-.02.014Zm-4.572,6.144h0v0Z"/><path class="h" d="M568.107,154.286l-.019,6.783,4.689,2.707,4.974-6.683-.022,7.942c0,1.318,1.039,2.624,3.19,3.866a14.325,14.325,0,0,0,1.806.875c.031.012.06.032.091.044q.611.24,1.228.417c.072.021.145.034.217.054s.153.037.229.056c.163.041.326.087.489.121.266.054.532.1.8.139.087.012.175.019.263.029l.155.018c.107.011.214.027.321.036q.364.03.73.039c.2,0,.392,0,.589,0h.173c.285-.01.571-.029.856-.057.218-.022.436-.06.654-.093.081-.012.162-.02.243-.034.052-.009.1-.012.158-.022.222-.04.442-.116.663-.167s.419-.086.628-.145l-.012,4.206,12.058,6.961,2-1.162-.007,2.313,4.573,2.64,3.276-1.9-.011,3.789,4.12,2.379,5.7-3.31-.019,6.588,4.689,2.707,3.277-1.9-.011,3.79,12.444,7.184,2.84-1.65-.01,3.285,4.556,2.63,4.99-2.9-.016,5.772,4.656,2.688a4.311,4.311,0,0,1,.393-.456c.066-.07.126-.144.2-.212.089-.085.195-.165.293-.246.143-.12.285-.241.448-.358.119-.086.252-.172.382-.257.169-.112.336-.224.523-.339.245-.15.494-.3.772-.462l4.459-2.591c.115-.067.228-.134.338-.2q.622-.377,1.138-.752c.046-.034.079-.067.124-.1.269-.2.529-.4.748-.6.065-.06.109-.121.169-.181s.14-.147.206-.22.173-.171.241-.258a3.6,3.6,0,0,0,.315-.466c.021-.035.032-.071.051-.106s.022-.049.034-.074c.034-.07.073-.14.1-.211a2.362,2.362,0,0,0,.1-.351,1.967,1.967,0,0,0,.039-.341v-.052l0-1.312c.09.015.181.034.271.047q.333.048.664.075c.212.017.424.029.636.034.042,0,.084,0,.126,0,.023,0,.046,0,.069,0,.152,0,.3,0,.454,0q.358-.012.716-.048c.3-.029.592-.071.887-.124.021,0,.042-.012.063-.016.075-.014.151-.041.226-.057a11.944,11.944,0,0,0,1.265-.318c.168-.054.336-.134.5-.2s.33-.124.495-.192a15.9,15.9,0,0,0,1.963-.954l2.279-1.324.254-.151a13.3,13.3,0,0,0,1.122-.755c.083-.061.15-.122.227-.184.167-.132.346-.265.489-.4.109-.1.187-.2.282-.3.065-.069.134-.137.192-.205.039-.046.093-.093.13-.139a3.925,3.925,0,0,0,.328-.483c.038-.068.064-.136.1-.2.013-.027.028-.055.039-.082s.042-.081.057-.121a2.348,2.348,0,0,0,.108-.373,2.278,2.278,0,0,0,.042-.366v-.055l.024-8.553a2.344,2.344,0,0,1-.121.535c.369-1.452-.691-2.917-3.388-4.475l-6.884-3.974-2.839,1.651.009-3.285-12.444-7.184-3.276,1.9.011-3.79-4.07-2.349-4.705,2.734.016-5.442-5.728-3.307-3.277,1.9.011-3.789h0l-4.572-2.64L607.4,172.736l.006-2.307.005,0-.137-.079,17.331-10.071.024-8.544,0,0,0,0v0l0,0-4.563-2.636-3.114,1.81.01-3.6-4.321-2.5-4.738,2.754.015-5.48-4.555-2.631-1.714,1,.006-1.982-4.556-2.63-5.992,1.244.013-4.7-4.572-2.64L557.7,146.5l-.024,8.554,4.572,2.639Zm9.741,2.676,0,.009,0-.008Zm.086.439a3.58,3.58,0,0,0,.339.6A3.654,3.654,0,0,1,577.934,157.4Zm.58,1a6.19,6.19,0,0,0,.664.66A6.19,6.19,0,0,1,578.514,158.4Zm1,.985a11.556,11.556,0,0,0,1.43.964A11.556,11.556,0,0,1,579.514,159.384Zm4.622-2.76,0,.022Zm11.346,11.691,4.411,2.547v0l-4.413-2.547Zm-10.049-13.158c-.155.1-.317.2-.442.291.128-.1.293-.2.452-.3Zm-.632.46,0,0,.03-.027Zm-.239.216c-.013.013-.034.028-.046.041.021-.023.05-.047.073-.07Zm-.326.443.016-.033C584.246,156.254,584.242,156.265,584.236,156.276Zm85.032,43.606c-.043.031-.1.062-.145.093.1-.072.2-.145.3-.218l-.023.019C669.351,199.812,669.316,199.847,669.268,199.882Zm-21.275-7.252,3.332,1.923-3.9,2.264.01-3.284-.5-.289Zm17.139,2.5a1.513,1.513,0,0,1,.114.169A1.513,1.513,0,0,0,665.132,195.135Zm.267.432a1.013,1.013,0,0,1,.04.184A1.1,1.1,0,0,0,665.4,195.567Zm-.573-.72c-.054-.046-.095-.093-.156-.14C664.731,194.754,664.772,194.8,664.826,194.847Zm-6.433-4.4.011-3.866,1.752-1.018,3.332,1.923Zm26.745-.735a3.64,3.64,0,0,1-.331.493,3.7,3.7,0,0,0,.334-.5Zm-.745,1.03c-.141.149-.323.3-.495.449.173-.151.356-.3.5-.453Zm-1,.881h0a14.173,14.173,0,0,1-1.376.9A14.188,14.188,0,0,0,683.4,191.621Zm-4.711-3.324a.971.971,0,0,0-.234-.561A.971.971,0,0,1,678.686,188.3Zm-.312-.64a3.139,3.139,0,0,0-.742-.574A3.139,3.139,0,0,1,678.374,187.657Zm-68.526-11.045,17.674-10.271-17.674,10.271L607.4,175.2h0Zm-6.564-3.791h0l-.132-.076h0ZM581.4,152.206l-.02.014,1.042-1.4,2.072-.411Z"/><g class="b"><path class="i" d="M591.119,132.374l-.024,8.553-12.562,7.3.024-8.553Z"/><path class="j" d="M601.654,138.456l-.024,8.553-19.209,3.81.024-8.553Z"/><path class="k" d="M575.188,143.262l-.024,8.553-4.052.725.024-8.553Z"/><path class="i" d="M571.136,143.987l-.024,8.553-8.869,5.154.024-8.553Z"/><path class="l" d="M562.267,149.141l-.024,8.553-4.572-2.64.024-8.553Z"/><path class="l" d="M572.8,155.223l-.024,8.553-4.689-2.707.024-8.553Z"/><path class="m" d="M601.654,138.456l-19.209,3.81L572.8,155.223l-4.689-2.707,7.076-9.254-4.052.725-8.869,5.154L557.7,146.5l28.852-16.767,4.572,2.64-12.562,7.3,18.542-3.849Z"/><path class="n" d="M582.444,142.266l-.024,8.553-9.643,12.957.024-8.553Z"/></g><g class="b"><path class="i" d="M607.917,142.073l-.024,8.553-22.246,12.928.024-8.553Z"/><g class="b"><g class="o"><g class="b"><path class="p" d="M585.671,155l-.024,8.553-.123.072.024-8.553.123-.072"/><path class="q" d="M585.548,155.073l-.024,8.553a5.441,5.441,0,0,0-.863.627l.025-8.553a5.385,5.385,0,0,1,.862-.627"/><path class="r" d="M584.686,155.7l-.025,8.553a2.634,2.634,0,0,0-.271.29l.024-8.553a2.557,2.557,0,0,1,.272-.29"/><path class="s" d="M584.414,155.99l-.024,8.553a1.65,1.65,0,0,0-.142.21l.024-8.553a1.767,1.767,0,0,1,.142-.21"/><path class="t" d="M584.272,156.2l-.024,8.553a1.467,1.467,0,0,0-.081.171l.025-8.553a1.248,1.248,0,0,1,.08-.171"/><path class="u" d="M584.192,156.371l-.025,8.553a1.06,1.06,0,0,0-.044.154l.024-8.553a.922.922,0,0,1,.045-.154"/><path class="v" d="M584.147,156.525l-.024,8.553a.836.836,0,0,0-.017.148l.024-8.554a.955.955,0,0,1,.017-.147"/><path class="w" d="M584.13,156.672l-.024,8.554v.021l.024-8.553v-.022"/></g></g></g><path class="i" d="M616.961,147.294l-.024,8.553-21.964,12.764.024-8.553Z"/><path class="m" d="M616.961,147.294,595,160.058c-4.609,2.678-9.583,2.872-14.054.29-4.489-2.591-4.155-5.463.454-8.142l21.964-12.764,4.555,2.631L585.671,155c-2.063,1.2-1.891,2.166-.451,3,1.457.841,3.111.929,5.174-.271L612.64,144.8Z"/><g class="b"><g class="x"><g class="b"><path class="p" d="M595,160.058l-.024,8.553a16.465,16.465,0,0,1-3.191,1.438l.024-8.553A16.41,16.41,0,0,0,595,160.058"/><path class="q" d="M591.807,161.5l-.024,8.553a14.141,14.141,0,0,1-1.862.47l.025-8.553a14.245,14.245,0,0,0,1.861-.47"/><path class="r" d="M589.946,161.966l-.025,8.553q-.527.1-1.055.149l.024-8.554q.528-.053,1.056-.148"/><path class="s" d="M588.89,162.114l-.024,8.554c-.285.028-.571.047-.856.057l.025-8.553q.428-.015.855-.058"/><path class="t" d="M588.035,162.172l-.025,8.553q-.381.013-.762,0l.024-8.553q.381.009.763,0"/><path class="u" d="M587.272,162.176l-.024,8.553q-.366-.009-.73-.039l.024-8.553c.243.02.487.033.73.039"/><path class="v" d="M586.542,162.137l-.024,8.553c-.247-.021-.493-.048-.739-.083l.024-8.553c.246.035.492.062.739.083"/><path class="w" d="M585.8,162.054l-.024,8.553c-.268-.038-.534-.084-.8-.139l.024-8.554q.4.082.8.14"/><path class="y" d="M585,161.914l-.024,8.554q-.469-.1-.935-.231l.024-8.553c.311.089.622.166.935.23"/><path class="z" d="M584.068,161.684l-.024,8.553q-.618-.177-1.228-.417l.024-8.553q.61.24,1.228.417"/><path class="aa" d="M582.84,161.267l-.024,8.553a14.364,14.364,0,0,1-1.9-.919c-2.151-1.242-3.194-2.548-3.19-3.866l.024-8.553c0,1.318,1.04,2.624,3.191,3.866a14.291,14.291,0,0,0,1.9.919"/></g></g></g></g><g class="b"><path class="i" d="M624.632,151.723l-.024,8.553-24.726,14.369.024-8.553Z"/><path class="m" d="M624.636,151.729l-24.724,14.364,7.5,4.332-4.126,2.4-12.073-6.972,28.85-16.762Z"/><path class="i" d="M607.409,170.423l-.024,8.553-4.126,2.4.024-8.553Z"/><path class="l" d="M603.283,172.821l-.024,8.553L591.2,174.413l.024-8.553Z"/></g><g class="b"><path class="m" d="M638.7,159.845l-28.852,16.767-4.572-2.64,28.852-16.767Z"/><path class="i" d="M638.7,159.845l-.024,8.553-28.852,16.767.024-8.553Z"/><path class="l" d="M609.848,176.612l-.024,8.553-4.572-2.64.024-8.553Z"/></g><g class="b"><path class="i" d="M638.132,168.731l-.024,8.553-20.9,12.145.024-8.553Z"/><path class="ab" d="M647.693,165.037l-.024,8.553L635.1,186.325l.024-8.553Z"/><path class="l" d="M617.234,180.876l-.024,8.553-4.12-2.379.024-8.553Z"/><path class="m" d="M656.453,170.094,627.6,186.861l-4.689-2.707,15.221-15.423-20.9,12.145-4.12-2.379,28.852-16.767,5.728,3.307-12.565,12.735,17.255-10.027Z"/><path class="i" d="M656.453,170.094l-.024,8.553-28.852,16.767.024-8.553Z"/><path class="l" d="M627.6,186.861l-.024,8.553-4.689-2.707.024-8.553Z"/></g><g class="b"><path class="i" d="M672.162,179.164l-.024,8.553-4.11,2.388.024-8.553Z"/><path class="l" d="M668.052,181.553l-.024,8.553-7.872-4.545.024-8.553Z"/><path class="i" d="M660.181,177.008l-.024,8.553-8.037,4.67.024-8.553Z"/><path class="i" d="M658.408,185.295l-.024,8.553-4.126,2.4.024-8.553Z"/><path class="l" d="M654.281,187.693l-.024,8.553-6.264-3.616.024-8.553Z"/><path class="i" d="M648.018,184.076l-.024,8.553-8.453,4.912.024-8.553Z"/><path class="l" d="M643.31,195.931l-.024,8.553L630.842,197.3l.024-8.553Z"/><path class="i" d="M647.437,193.533l-.024,8.553-4.126,2.4.024-8.553Z"/><path class="m" d="M672.162,179.164l-4.11,2.388-7.872-4.545-8.037,4.67,6.264,3.616-4.126,2.4-6.264-3.616-8.453,4.912,7.872,4.545-4.126,2.4-12.444-7.184,28.852-16.767Z"/></g><g class="b"><path class="l" d="M677.632,187.083l-.024,8.553-2.194-1.267.024-8.553Z"/><g class="b"><g class="ac"><g class="b"><path class="aa" d="M678.709,188.351l-.025,8.553c0-.438-.358-.853-1.076-1.267l.024-8.554c.719.415,1.078.83,1.077,1.268"/></g></g></g><path class="i" d="M675.438,185.817l-.024,8.553-8.869,5.154.024-8.553Z"/><g class="b"><g class="ad"><g class="b"><path class="w" d="M685.385,188.712l-.024,8.553v.056l.024-8.554v-.055"/><path class="v" d="M685.384,188.767l-.024,8.554a2.266,2.266,0,0,1-.042.365l.024-8.553a2.271,2.271,0,0,0,.042-.366"/><path class="u" d="M685.342,189.133l-.024,8.553a2.348,2.348,0,0,1-.108.373l.024-8.553a2.378,2.378,0,0,0,.108-.373"/><path class="t" d="M685.234,189.506l-.024,8.553a3.042,3.042,0,0,1-.191.407l.024-8.553a2.81,2.81,0,0,0,.191-.407"/><path class="s" d="M685.043,189.913l-.024,8.553a3.925,3.925,0,0,1-.328.483l.024-8.553a3.823,3.823,0,0,0,.328-.483"/><path class="r" d="M684.715,190.4l-.024,8.553a5.652,5.652,0,0,1-.6.644l.025-8.553a5.644,5.644,0,0,0,.6-.644"/><path class="q" d="M684.112,191.04l-.025,8.553a11.266,11.266,0,0,1-1.838,1.337l.025-8.553a11.414,11.414,0,0,0,1.838-1.337"/><path class="p" d="M682.274,192.377l-.025,8.553-.254.151.025-8.554.254-.15"/></g></g></g><path class="i" d="M682.02,192.527,682,201.081l-2.279,1.325.024-8.553Z"/><path class="l" d="M664.017,194.278l-.024,8.553-1.574-.909.024-8.553Z"/><g class="b"><g class="ae"><g class="b"><path class="aa" d="M665.48,195.934l-.025,8.553c0-.568-.5-1.1-1.462-1.656l.024-8.553c.961.554,1.464,1.088,1.463,1.656"/></g></g></g><g class="b"><g class="af"><g class="b"><path class="p" d="M679.74,193.852l-.024,8.553a15.173,15.173,0,0,1-2.961,1.342l.024-8.553a15.172,15.172,0,0,0,2.961-1.342"/><path class="q" d="M676.779,195.194l-.024,8.553a12.1,12.1,0,0,1-1.554.391l.024-8.553a12.106,12.106,0,0,0,1.554-.391"/><path class="r" d="M675.225,195.585l-.024,8.553c-.295.053-.591.1-.887.124l.024-8.553c.3-.029.592-.071.887-.124"/><path class="s" d="M674.338,195.709l-.024,8.553q-.357.036-.716.048l.024-8.553q.359-.012.716-.048"/><path class="t" d="M673.622,195.757l-.024,8.553c-.216.007-.433.008-.649,0l.024-8.553q.325.008.649,0"/><path class="u" d="M672.973,195.76l-.024,8.553c-.212-.005-.424-.017-.636-.034l.024-8.553c.212.017.424.029.636.034"/><path class="v" d="M672.337,195.726l-.024,8.553q-.332-.027-.664-.075l.024-8.553c.222.032.443.056.664.075"/><path class="w" d="M671.673,195.651l-.024,8.553q-.367-.051-.736-.128l.025-8.553c.246.051.491.093.735.128"/><path class="y" d="M670.938,195.523l-.025,8.553-.035-.008.024-8.553.036.008"/></g></g></g><path class="l" d="M650.7,200.2l-.024,8.553-4.555-2.63.024-8.553Z"/><path class="i" d="M662.443,193.369l-.024,8.553-11.747,6.827.024-8.553Z"/><g class="b"><g class="ag"><g class="b"><path class="w" d="M671.4,196.916l-.024,8.553v.052l.025-8.553v-.052"/><path class="v" d="M671.4,196.968l-.025,8.553a1.967,1.967,0,0,1-.039.341l.024-8.553a2.075,2.075,0,0,0,.04-.341"/><path class="u" d="M671.358,197.309l-.024,8.553a2.362,2.362,0,0,1-.1.351l.024-8.553a2.171,2.171,0,0,0,.1-.351"/><path class="t" d="M671.257,197.66l-.024,8.553a2.809,2.809,0,0,1-.184.391l.024-8.553a2.816,2.816,0,0,0,.184-.391"/><path class="s" d="M671.073,198.051l-.024,8.553a3.8,3.8,0,0,1-.316.467l.024-8.554a3.685,3.685,0,0,0,.316-.466"/><path class="r" d="M670.757,198.517l-.024,8.554a5.725,5.725,0,0,1-.617.658l.025-8.553a5.641,5.641,0,0,0,.616-.659"/><path class="q" d="M670.141,199.176l-.025,8.553a12.49,12.49,0,0,1-2.009,1.457l.025-8.553a12.58,12.58,0,0,0,2.009-1.457"/><path class="p" d="M668.132,200.633l-.025,8.553c-.11.067-.223.134-.338.2l.024-8.553q.172-.1.339-.2"/></g></g></g><path class="i" d="M667.793,200.834l-.024,8.553-4.459,2.591.024-8.553Z"/><path class="m" d="M663.334,203.425a9.077,9.077,0,0,0-3.008,2.33l-4.656-2.688c.5-.58.8-.928,3.142-2.291l4.543-2.64c2.678-1.557,2.739-2.659.662-3.858l-1.574-.909L650.7,200.2l-4.555-2.63L674.993,180.8l6.883,3.974c4.723,2.727,4.586,5.174.144,7.755l-2.28,1.325a12.067,12.067,0,0,1-8.838,1.663c1.329,1.867-.114,3.578-3.109,5.319Zm10.8-11.613,2.846-1.654c2.063-1.2,2.275-2.137.65-3.075l-2.194-1.266-8.868,5.154,1.792,1.034a5.257,5.257,0,0,0,5.774-.193"/><path class="l" d="M660.326,205.755l-.024,8.553-4.656-2.688.024-8.553Z"/><g class="b"><g class="ah"><g class="b"><path class="p" d="M663.334,203.425l-.024,8.553c-.232.135-.453.265-.662.392l.024-8.553c.209-.127.43-.257.662-.392"/><path class="q" d="M662.672,203.817l-.024,8.553a10.553,10.553,0,0,0-1.711,1.222l.025-8.554a10.5,10.5,0,0,1,1.71-1.221"/><path class="r" d="M660.962,205.038l-.025,8.554a4.7,4.7,0,0,0-.511.55l.024-8.553a4.709,4.709,0,0,1,.512-.551"/><path class="s" d="M660.45,205.589l-.024,8.553c-.043.055-.084.11-.124.166l.024-8.553c.04-.056.081-.112.124-.166"/></g></g></g></g></g></g></svg>