<svg xmlns="http://www.w3.org/2000/svg" xmlns:xlink="http://www.w3.org/1999/xlink" width="194" height="226.492" viewBox="0 0 194 226.492"><defs><style>.a,.g,.h{fill:none;}.b{isolation:isolate;}.c{fill:#d10000;}.d{fill:#b0b2b2;}.e{fill:#2d2d2c;}.f{fill:#6e7072;}.g{stroke:#fff;stroke-width:12.082px;}.g,.h{stroke-linejoin:round;}.h{stroke:#691515;stroke-width:4.833px;}.i{fill:#a92221;}.j{fill:#fff;}.k{fill:#691515;}.l{fill:#ac2322;}.m{fill:#a22120;}.n{clip-path:url(#a);}.o{fill:#5a1212;}.p{fill:#5d1312;}.q{fill:#611413;}.r{clip-path:url(#b);}.s{fill:#681514;}.t{fill:#6b1615;}.u{fill:#6f1616;}.v{fill:#721716;}.w{fill:#761817;}.x{fill:#791918;}.y{fill:#7d1918;}.z{fill:#801a19;}.aa{fill:#831b1a;}.ab{fill:#871b1b;}.ac{fill:#8a1c1b;}.ad{fill:#8e1d1c;}.ae{fill:#911d1d;}.af{fill:#951e1d;}.ag{fill:#981f1e;}.ah{fill:#9c201f;}.ai{fill:#9f201f;}.aj{fill:#a32120;}.ak{fill:#a62221;}.al{clip-path:url(#c);}.am{fill:#aa2221;}.an{fill:#ad2322;}.ao{fill:#b73d3d;}.ap{fill:#bb4848;}.aq{fill:#be5150;}.ar{fill:#641414;}.as{fill:#991f1e;}</style><clipPath id="a"><path class="a" d="M568.058,524.527l-.028,9.849c0-.448-.4-.856-1.11-1.266l.027-9.849C567.658,523.671,568.059,524.079,568.058,524.527Z"/></clipPath><clipPath id="b"><path class="a" d="M574.553,524.8l-.028,9.848c0,1.432-1.264,2.872-3.713,4.295l.028-9.849C573.289,527.672,574.549,526.233,574.553,524.8Z"/></clipPath><clipPath id="c"><path class="a" d="M567.913,530.8l-.028,9.849c-4.737,2.752-9.626,2.93-14.316.222l.028-9.848C558.287,533.727,563.176,533.549,567.913,530.8Z"/></clipPath></defs><g transform="translate(-745 -3527.48)"><g class="b" transform="translate(745.684 3564.479)"><path class="c" d="M115.465,17.616l-7.093-4.095L5.974,73.448c-8.918,5.183-8.871,13.617.106,18.8l123.892,70.781,7.047-4.1L13.127,88.152c-5.063-2.923-5.1-7.682-.059-10.609l102.4-59.927"/></g><g transform="translate(747.958 3480.998)"><g transform="translate(0.042 46.482)"><g class="b"><g transform="translate(0.045)"><path class="d" d="M75.84,20.152c10.465-6.136,27.615-6.179,38.237-.1l68.876,39.432c10.622,6.081,10.75,16.014.289,22.146L115.217,121.5c-10.465,6.136-27.615,6.179-38.237.1L8.1,82.168c-10.622-6.081-10.75-16.014-.289-22.146ZM179.718,61.383,110.842,21.95c-8.819-5.048-23.061-4.992-31.714.081L11.1,61.9c-8.688,5.09-8.581,13.323.238,18.37L80.216,119.7c8.79,5.031,23.031,5.009,31.719-.081l68.025-39.87c8.654-5.073,8.547-13.34-.242-18.37" transform="translate(-0.053 -15.521)"/></g><g transform="translate(4.648 2.674)"><path class="e" d="M75.607,19.986c8.654-5.073,22.895-5.128,31.714-.081L176.2,59.337c8.79,5.031,8.9,13.3.242,18.37l-68.025,39.87c-8.688,5.09-22.929,5.111-31.719.081L7.82,78.226C-1,73.179-1.106,64.946,7.582,59.856Z" transform="translate(-1.135 -16.15)"/></g><path class="f" d="M191.042,28.5c0,.259-.043.519-.068.778-.026.289-.047.578-.1.863-.043.23-.111.455-.17.68a8.08,8.08,0,0,1-.234.816c-.077.221-.179.434-.272.651-.123.285-.247.57-.4.85-.106.2-.234.4-.357.6-.2.319-.4.634-.638.944-.136.183-.281.366-.429.544a16.2,16.2,0,0,1-1.178,1.267c-.136.132-.259.264-.4.4-.264.234-.553.464-.838.689-.242.2-.476.4-.736.587-.31.225-.651.438-.978.655s-.625.425-.97.629l-68.025,39.87a29.468,29.468,0,0,1-3.759,1.8c-.353.14-.714.276-1.076.408-.821.3-1.684.54-2.551.782-.884.251-1.782.485-2.7.676-1.05.217-2.109.412-3.189.553-.3.038-.587.094-.884.123-1.493.162-3,.247-4.516.264-.247,0-.489,0-.736,0-1.5-.009-3-.089-4.486-.238l-.672-.077a42.993,42.993,0,0,1-4.371-.736c-.247-.055-.489-.119-.736-.179a37.715,37.715,0,0,1-3.7-1.114c-.251-.089-.515-.162-.765-.259a29.625,29.625,0,0,1-4.1-1.914L8.139,39.978c-4.031-2.3-6.553-5.167-7.556-8.169a9.589,9.589,0,0,1-.5-3.028L.042,43.827c-.009,4.061,2.679,8.122,8.054,11.2L76.972,94.456a29.128,29.128,0,0,0,3.81,1.82c.094.038.191.06.285.1.251.094.515.166.77.259.736.259,1.463.532,2.228.748.476.136.978.242,1.467.361.247.06.485.123.736.179.2.047.4.106.612.149.88.183,1.777.34,2.679.468.357.051.719.081,1.08.123.225.025.446.051.672.072.293.03.587.077.884.1.884.077,1.778.123,2.666.145.315.009.625,0,.936,0,.247,0,.489,0,.736,0,.37,0,.74.009,1.11,0,1-.034,2.007-.1,3-.2.136-.013.268-.043.4-.055.3-.034.587-.085.884-.123.727-.094,1.459-.174,2.173-.306.349-.06.672-.179,1.016-.251.923-.191,1.812-.421,2.7-.672.455-.132.948-.2,1.395-.349.4-.128.765-.3,1.152-.438.366-.132.723-.264,1.076-.408a28.643,28.643,0,0,0,3.759-1.8l68.025-39.87.255-.153c.255-.153.476-.319.719-.481.327-.213.668-.425.97-.646.268-.2.5-.4.748-.6.281-.225.57-.446.825-.68.043-.038.1-.077.14-.115.1-.094.17-.2.268-.289a15.255,15.255,0,0,0,1.169-1.259c.072-.089.17-.17.242-.259s.123-.191.2-.289c.23-.31.434-.621.629-.94.081-.128.187-.255.259-.383.043-.072.064-.149.1-.221a8.847,8.847,0,0,0,.4-.842c.072-.162.166-.319.225-.476.021-.06.03-.123.051-.183.1-.268.162-.54.234-.812.047-.179.115-.353.153-.532.009-.051.009-.1.017-.153.051-.285.072-.574.1-.867.017-.179.055-.357.064-.536l0-.238h0Z" transform="translate(-0.042 26.682)"/></g></g></g><g transform="translate(287.308 3176.617)"><path class="g" d="M607,541.485l-5.983,1.236.013-4.683-4.69-2.707-7.151,4.155.023-8.271-6.356-3.67-8.321,3.478.017-6.222c0,.021-.013.042-.014.063a3.047,3.047,0,0,0-.8-2.043c-.019-.024-.054-.048-.074-.072a6.915,6.915,0,0,0-.979-.939,12.679,12.679,0,0,0-1.508-1.007l-6.9-3.982-7.151,4.156.023-8.271-6.356-3.67-31.467,13.152v-.077l0-.9,17.674-10.271.028-9.849-4.69-2.708L502.7,515.61l-.028,9.849,12.4,7.161,1.192-.692,0,1.378,4.351,2.512,6.642-2.877.412.238-.019,6.7,4.69,2.708,2.277-1.841-.009,3.15,4.69,2.708,12.063-7.01,1.12.646-4.13,1.726-.027,9.849,4.35,2.511,6.658-2.868.4.229-.019,6.7,4.69,2.708,2.277-1.84-.009,3.149,4.69,2.708,5.851-3.4-.019,6.767,4.906,2.833,13.1-14.172,16.468-3.1.028-9.849ZM574.317,525.87l-.005.012h0c-.006.014-.021.027-.027.041a2.755,2.755,0,0,0,.12-.451A2.686,2.686,0,0,1,574.317,525.87Zm-6.823-2.236a.288.288,0,0,0-.025-.022.245.245,0,0,1-.022-.023c.038.03.064.061.1.092C567.528,523.665,567.513,523.65,567.494,523.634Zm6.375,2.927c-.028.039-.054.078-.077.117-.066.087-.095.174-.17.261l-.01.012-.012.013-.007.006-.014.013a2.645,2.645,0,0,0,.242-.353C573.838,526.607,573.852,526.584,573.869,526.561Zm-1.061,1.136c-.1.086-.17.172-.28.258-.017.015-.028.03-.047.044l-.038.03c.036-.028.057-.056.092-.084C572.627,527.862,572.713,527.779,572.808,527.7Zm-4.964-3.708c-.01-.013-.016-.026-.027-.039a.293.293,0,0,0-.036-.053h0a1.017,1.017,0,0,1,.068.1Z"/><path class="h" d="M607,541.485l-5.983,1.236.013-4.683-4.69-2.707-7.151,4.155.023-8.271-6.356-3.67-8.321,3.478.017-6.222c0,.021-.013.042-.014.063.039-1.368-1.053-2.729-3.361-4.061l-6.9-3.982-7.151,4.156.023-8.271-6.356-3.67-31.467,13.152,0-.977,17.674-10.271.028-9.849-4.69-2.708L502.7,515.61l-.028,9.849,12.4,7.161,1.192-.692,0,1.378,4.351,2.512,6.642-2.877.412.238-.019,6.7,4.69,2.708,2.277-1.841-.009,3.15,4.69,2.708,12.063-7.01,1.12.646-4.13,1.726-.027,9.849,4.35,2.511,6.658-2.868.4.229-.019,6.7,4.69,2.708,2.277-1.84-.009,3.149,4.69,2.708,5.851-3.4-.019,6.767,4.906,2.833,13.1-14.172,16.468-3.1.028-9.849Zm-39.532-17.873a.245.245,0,0,1-.022-.023c.039.031.065.063.1.094C567.521,523.66,567.5,523.636,567.469,523.612Zm.375.377c-.023-.03-.036-.062-.063-.092.029.032.044.065.069.1Zm4.637,4.01-.039.03c.146-.113.242-.226.373-.338C572.7,527.794,572.613,527.9,572.481,528Zm1.141-1.06-.022.025-.021.019a4.6,4.6,0,0,0,.29-.422C573.779,526.687,573.73,526.813,573.622,526.939Zm.7-1.069-.005.012c-.006.014-.021.027-.027.041a2.685,2.685,0,0,0,.12-.451A2.713,2.713,0,0,1,574.317,525.87Z"/><g class="b"><path class="i" d="M537.036,501.091l-.028,9.849-25.413,14.768.028-9.849Z"/><path class="j" d="M537.036,501.091l-25.413,14.769,7.714,4.454-4.23,2.458-12.4-7.161,29.644-17.227Z"/><path class="i" d="M519.337,520.313l-.028,9.849-4.23,2.458.028-9.849Z"/><path class="k" d="M515.106,522.772l-.028,9.849-12.4-7.161.028-9.849Z"/></g><g class="b"><path class="k" d="M548.672,513.793l-.028,9.849-.093-.053.028-9.849Z"/><path class="l" d="M548.579,513.739l-.028,9.849-16.705,7.331.028-9.849Z"/><path class="k" d="M520.645,525.969l-.028,9.849-4.351-2.512.028-9.849Z"/><path class="l" d="M527.287,523.092l-.028,9.849-6.642,2.877.028-9.849Z"/><path class="k" d="M532.625,526.174l-.028,9.849-5.338-3.082.028-9.849Z"/><path class="i" d="M532.717,526.121l-.028,9.849-.092.053.028-9.849Z"/><path class="j" d="M557.154,512.706,532.37,532.739l-4.69-2.708,5.037-3.91-.092.053-5.338-3.082-6.642,2.877-4.351-2.512,34.5-14.421Zm-25.28,8.364,4.227,2.441,12.571-9.718-.093-.054-16.7,7.331"/><path class="k" d="M532.37,532.739l-.028,9.849-4.69-2.708.028-9.849Z"/><path class="m" d="M557.154,512.706l-.028,9.849-24.784,20.033.028-9.849Z"/></g><g class="b"><path class="k" d="M566.947,523.261l-.028,9.849-2.206-1.274.028-9.849Z"/><g class="b"><g class="n"><g class="b"><path class="o" d="M568.058,524.527l-.028,9.849a1.258,1.258,0,0,0-.615-.942l.028-9.848a1.255,1.255,0,0,1,.615.941"/><path class="p" d="M567.443,523.586l-.028,9.848c-.085-.064-.178-.128-.279-.193l.028-9.848c.1.064.194.128.279.193"/><path class="q" d="M567.164,523.393l-.028,9.848c-.068-.043-.141-.087-.216-.131l.027-9.849c.076.044.149.088.217.132"/></g></g></g><path class="i" d="M564.741,521.987l-.028,9.849-9.1,5.291.028-9.849Z"/><g class="b"><g class="r"><g class="b"><path class="s" d="M574.553,524.8l-.028,9.848v.056l.028-9.849V524.8"/><path class="t" d="M574.553,524.856l-.028,9.849c0,.069-.007.138-.014.207l.028-9.849c.007-.069.012-.138.014-.207"/><path class="u" d="M574.539,525.063l-.028,9.849c-.008.066-.018.133-.03.2l.028-9.849c.012-.066.022-.132.03-.2"/><path class="v" d="M574.509,525.262l-.028,9.849c-.013.064-.027.129-.045.193l.028-9.849c.018-.064.032-.128.045-.193"/><path class="w" d="M574.464,525.455l-.028,9.849c-.016.063-.036.126-.057.189l.027-9.849c.022-.063.041-.126.058-.189"/><path class="x" d="M574.406,525.644l-.027,9.849c-.022.063-.046.126-.073.189l.028-9.849q.041-.094.072-.189"/><path class="y" d="M574.334,525.833l-.028,9.849c-.026.063-.055.126-.087.19l.028-9.849c.031-.063.06-.127.087-.19"/><path class="z" d="M574.247,526.023l-.028,9.849c-.032.064-.066.127-.1.191l.027-9.849c.037-.063.071-.127.1-.191"/><path class="aa" d="M574.144,526.214l-.027,9.849c-.039.067-.08.134-.123.2l.028-9.848c.043-.067.084-.134.122-.2"/><path class="ab" d="M574.022,526.415l-.028,9.848c-.044.068-.091.135-.14.2l.028-9.849c.049-.067.1-.134.14-.2"/><path class="ac" d="M573.882,526.616l-.028,9.849c-.054.073-.111.146-.171.22l.028-9.849c.06-.073.117-.147.171-.22"/><path class="ad" d="M573.711,526.836l-.028,9.849c-.061.074-.126.149-.194.224l.028-9.849c.068-.074.133-.149.194-.224"/><path class="ae" d="M573.517,527.06l-.028,9.849c-.076.083-.155.166-.239.248l.028-9.848c.084-.083.163-.166.239-.249"/><path class="af" d="M573.278,527.309l-.028,9.848c-.09.09-.185.179-.285.269l.028-9.849c.1-.089.2-.179.285-.268"/><path class="ag" d="M572.993,527.577l-.028,9.849q-.162.145-.341.291l.028-9.849q.179-.145.341-.291"/><path class="ah" d="M572.652,527.868l-.028,9.849q-.21.17-.441.339l.027-9.848q.232-.171.442-.34"/><path class="ai" d="M572.21,528.208l-.027,9.848q-.27.2-.571.395l.028-9.849c.2-.131.391-.263.57-.394"/><path class="aj" d="M571.64,528.6l-.028,9.849q-.357.235-.759.469l.028-9.848c.267-.157.521-.313.759-.47"/><path class="ak" d="M570.881,529.072l-.028,9.848-.041.024.028-9.849.041-.023"/></g></g></g><path class="i" d="M570.84,529.1l-.028,9.849-2.928,1.7.028-9.849Z"/><path class="k" d="M553.6,531.02l-.028,9.849-2.206-1.274.028-9.849Z"/><path class="k" d="M580.731,532.3l-.028,9.849-.093-.053.028-9.849Z"/><g class="b"><g class="al"><g class="b"><path class="ak" d="M567.913,530.8l-.028,9.849q-.426.247-.854.467l.028-9.849q.427-.219.854-.467"/><path class="am" d="M567.059,531.264l-.028,9.849q-.435.224-.871.418l.028-9.849q.437-.2.871-.418"/><path class="an" d="M566.188,531.682l-.028,9.849q-.406.181-.815.337l.028-9.849q.408-.156.815-.337"/><path class="ao" d="M565.373,532.019l-.028,9.849c-.25.1-.5.184-.752.266l.028-9.849c.251-.082.5-.17.752-.266"/><path class="ap" d="M564.621,532.285l-.028,9.849c-.254.082-.507.156-.761.224l.027-9.849q.381-.1.762-.224"/><path class="aq" d="M563.859,532.509l-.027,9.849a13.609,13.609,0,0,1-1.833.354l.028-9.849a13.565,13.565,0,0,0,1.832-.354"/><path class="ap" d="M562.027,532.863,562,542.712q-.21.026-.42.045l.028-9.849c.14-.013.28-.027.42-.045"/><path class="ao" d="M561.607,532.908l-.028,9.849c-.106.009-.213.017-.32.024l.028-9.849c.106-.006.213-.015.32-.024"/><path class="an" d="M561.287,532.932l-.028,9.849c-.089.006-.178.011-.267.014l.028-9.848.267-.015"/><path class="am" d="M561.02,532.947l-.028,9.848c-.088,0-.177.007-.266.009l.028-9.849c.089,0,.178,0,.266-.008"/><path class="ak" d="M560.754,532.955l-.028,9.849q-.12,0-.24,0l.028-9.849.24,0"/><path class="aj" d="M560.514,532.958l-.028,9.849h-.238l.028-9.849c.08,0,.159,0,.238,0"/><path class="ai" d="M560.276,532.957l-.028,9.849-.237-.006.027-9.849c.08,0,.159.005.238.006"/><path class="ah" d="M560.038,532.951l-.027,9.849-.252-.011.028-9.849.251.011"/><path class="ag" d="M559.787,532.94l-.028,9.849c-.084-.005-.168-.01-.252-.017l.028-9.848.252.016"/><path class="af" d="M559.535,532.924l-.028,9.848-.254-.021.028-9.849.254.022"/><path class="ae" d="M559.281,532.9l-.028,9.849q-.14-.013-.279-.03l.028-9.849q.139.016.279.03"/><path class="ad" d="M559,532.872l-.028,9.849c-.093-.011-.185-.023-.278-.036l.028-9.849c.092.013.185.025.278.036"/><path class="ac" d="M558.724,532.836l-.028,9.849c-.1-.013-.2-.028-.292-.044l.028-9.849c.1.016.194.031.292.044"/><path class="ab" d="M558.432,532.792l-.028,9.849c-.1-.017-.2-.034-.3-.053l.028-9.849c.1.019.2.037.3.053"/><path class="aa" d="M558.128,532.739l-.028,9.849c-.1-.02-.2-.04-.307-.062l.028-9.849c.1.022.205.042.307.062"/><path class="z" d="M557.821,532.677l-.028,9.849c-.11-.024-.221-.049-.331-.075l.028-9.849c.11.026.22.051.331.075"/><path class="y" d="M557.49,532.6l-.028,9.849c-.11-.027-.22-.055-.331-.085l.028-9.848.331.084"/><path class="x" d="M557.159,532.518l-.028,9.848c-.121-.032-.243-.067-.365-.1l.028-9.849c.122.036.243.071.365.1"/><path class="w" d="M556.794,532.414l-.028,9.849c-.123-.037-.245-.075-.368-.116l.028-9.849c.123.041.245.079.368.116"/><path class="v" d="M556.426,532.3l-.028,9.849c-.14-.046-.28-.095-.419-.146l.028-9.848c.139.051.279.1.419.145"/><path class="u" d="M556.007,532.153,555.979,542c-.148-.054-.3-.11-.443-.17l.028-9.849c.147.06.295.117.443.171"/><path class="t" d="M555.564,531.982l-.028,9.849c-.164-.066-.329-.136-.493-.209l.028-9.849q.246.109.493.209"/><path class="s" d="M555.071,531.773l-.028,9.849q-.291-.131-.581-.274l.028-9.849c.193.1.387.188.581.274"/><path class="ar" d="M554.49,531.5l-.028,9.849q-.345-.171-.688-.363l.028-9.849q.344.192.688.363"/><path class="q" d="M553.8,531.136l-.028,9.849c-.068-.038-.137-.077-.205-.117l.028-9.848.205.116"/></g></g></g><path class="j" d="M571.178,520.8c4.69,2.708,4.414,5.531-.338,8.292l-2.927,1.7c-4.737,2.752-9.626,2.93-14.316.223l-2.206-1.274-12.063,7.01-4.69-2.708,29.644-17.227Zm-8.247,7.455,3.51-2.04c2.131-1.238,2-2.093.506-2.957l-2.206-1.274-9.1,5.291,2.206,1.274c1.5.864,2.973.935,5.088-.294"/><path class="i" d="M551.391,529.746l-.028,9.849L539.3,546.6l.028-9.849Z"/><path class="k" d="M539.328,536.756,539.3,546.6l-4.69-2.708.028-9.849Z"/><path class="l" d="M580.638,532.249l-.028,9.849-16.705,7.331.028-9.849Z"/><path class="l" d="M559.362,541.61l-.028,9.849-6.658,2.868.028-9.849Z"/><path class="k" d="M552.7,544.479l-.028,9.849-4.351-2.512.028-9.849Z"/><path class="k" d="M564.684,544.683l-.028,9.849-5.323-3.073.028-9.849Z"/><path class="i" d="M564.776,544.63l-.028,9.849-.092.053.028-9.849Z"/><path class="m" d="M589.213,531.215l-.028,9.849L564.4,561.1l.028-9.849Z"/><path class="k" d="M564.429,551.248,564.4,561.1l-4.69-2.708.028-9.849Z"/><path class="j" d="M589.213,531.215l-24.784,20.033-4.69-2.708,5.037-3.91-.092.053-5.322-3.073-6.658,2.869-4.351-2.512,34.5-14.421Zm-25.28,8.365,4.227,2.44,12.571-9.718-.093-.053-16.705,7.331"/></g><g class="b"><path class="i" d="M601.031,538.038,601,547.887l-12.492,7.26.028-9.849Z"/><path class="i" d="M611.692,544.193l-.028,9.849-16.468,3.1.028-9.849Z"/><path class="am" d="M586.466,548.665l-.028,9.849-5.637,1.113.028-9.849Z"/><path class="i" d="M580.829,549.778l-.028,9.849-9.442,5.487.028-9.849Z"/><path class="k" d="M571.387,555.265l-.028,9.849-4.69-2.708.028-9.849Z"/><path class="k" d="M582.125,561.465l-.028,9.849-4.906-2.833.028-9.849Z"/><path class="j" d="M611.692,544.193l-16.467,3.1-13.1,14.172-4.906-2.833,9.247-9.967-5.637,1.113-9.442,5.487-4.69-2.708,29.644-17.227,4.69,2.708-12.492,7.26L607,541.485Z"/><path class="as" d="M595.224,547.293l-.028,9.849-13.1,14.172.028-9.849Z"/></g></g></g></svg>