<svg xmlns="http://www.w3.org/2000/svg" xmlns:xlink="http://www.w3.org/1999/xlink" width="191.703" height="223.458" viewBox="0 0 191.703 223.458"><defs><style>.a,.i{fill:none;}.b{isolation:isolate;}.c{fill:#d10000;}.d{fill:#b0b2b2;}.e{fill:#2d2d2c;}.f{fill:#6e7072;}.g,.v{fill:#991d1b;}.g{stroke:#fff;stroke-width:9.089px;}.g,.i{stroke-linejoin:round;}.h{fill:#831412;}.i{stroke:#831412;stroke-width:4.545px;}.j{fill:#ac2322;}.k{fill:#a22;}.l{fill:#ac2323;}.m{fill:#fff;}.n{clip-path:url(#a);}.o{fill:#811310;}.p{fill:#841512;}.q{fill:#871614;}.r{fill:#8b1815;}.s{fill:#8e1917;}.t{fill:#921a19;}.u{fill:#951c1a;}.w{fill:#9c1e1d;}.x{fill:#a01f1e;}.y{fill:#a3201f;}.z{clip-path:url(#b);}.aa{clip-path:url(#c);}.ab{clip-path:url(#d);}.ac{clip-path:url(#e);}.ad{clip-path:url(#f);}.ae{clip-path:url(#g);}.af{clip-path:url(#h);}.ag{clip-path:url(#i);}.ah{clip-path:url(#j);}</style><clipPath id="a"><path class="a" d="M612.869,92.271l-.024,8.553c0-.472-.389-.9-1.075-1.3-1.457-.841-3.144-.909-5.207.29l.024-8.553c2.064-1.2,3.75-1.131,5.207-.29C612.48,91.368,612.871,91.8,612.869,92.271Z"/></clipPath><clipPath id="b"><path class="a" d="M619.16,92.526l-.024,8.553c0,1.433-1.209,2.881-3.577,4.258l.024-8.554C617.952,95.407,619.156,93.959,619.16,92.526Z"/></clipPath><clipPath id="c"><path class="a" d="M589.424,110.583l.024-8.553c0-.519.482-1.088,1.565-1.717l-.024,8.553C589.906,109.5,589.425,110.064,589.424,110.583Z"/></clipPath><clipPath id="d"><path class="a" d="M583.125,110.317l.024-8.553c0,1.357,1.07,2.7,3.254,3.964a13.72,13.72,0,0,0,14.171-.223l-.024,8.554a13.72,13.72,0,0,1-14.171.222C584.2,113.02,583.121,111.675,583.125,110.317Z"/></clipPath><clipPath id="e"><path class="a" d="M629.178,102.023l-.024,8.553c0-.439-.357-.854-1.07-1.265l.025-8.554C628.821,101.169,629.18,101.584,629.178,102.023Z"/></clipPath><clipPath id="f"><path class="a" d="M635.849,102.374l-.024,8.553c0,1.275-1.157,2.532-3.386,3.828l.024-8.554C634.692,104.906,635.845,103.649,635.849,102.374Z"/></clipPath><clipPath id="g"><path class="a" d="M631.448,106.791l-.024,8.553a11.888,11.888,0,0,1-8.772,1.683l.025-8.553A11.885,11.885,0,0,0,631.448,106.791Z"/></clipPath><clipPath id="h"><path class="a" d="M617.7,109.129l-.024,8.553c0-.555-.525-1.074-1.507-1.641l.024-8.554C617.176,108.055,617.7,108.574,617.7,109.129Z"/></clipPath><clipPath id="i"><path class="a" d="M623.314,110.146l-.024,8.554c0,1.34-1.249,2.621-3.411,3.877l.024-8.553C622.066,112.767,623.31,111.486,623.314,110.146Z"/></clipPath><clipPath id="j"><path class="a" d="M617.541,115.4l-.025,8.553a13.077,13.077,0,0,1-13.755-.019l.024-8.553A13.079,13.079,0,0,0,617.541,115.4Z"/></clipPath></defs><g transform="translate(-1216.297 -3527.112)"><g class="b" transform="translate(1216.981 3564.479)"><path class="c" d="M115.465,17.616l-7.093-4.095L5.974,73.448c-8.918,5.183-8.871,13.617.106,18.8l123.892,70.781,7.047-4.1L13.127,88.152c-5.063-2.923-5.1-7.682-.059-10.609l102.4-59.927"/></g><g transform="translate(1120.336 3224.406)"><g transform="translate(96.664 302.706)"><g class="b"><g transform="translate(0.043)"><path class="d" d="M172.465,286.6c10.461-6.136,27.611-6.179,38.234-.1l68.881,39.433c10.623,6.081,10.75,16.015.285,22.147l-68.022,39.871c-10.465,6.136-27.615,6.179-38.238.1l-68.881-39.433c-10.618-6.081-10.75-16.015-.285-22.147Zm103.879,41.232L207.463,288.4c-8.815-5.048-23.057-4.992-31.715.081L107.722,328.35c-8.684,5.09-8.577,13.323.238,18.371l68.881,39.433c8.786,5.031,23.031,5.014,31.715-.081L276.582,346.2c8.658-5.073,8.552-13.34-.238-18.371" transform="translate(-96.674 -281.969)"/></g><g transform="translate(4.647 2.674)"><path class="e" d="M172.227,286.434c8.658-5.073,22.9-5.129,31.715-.081l68.881,39.433c8.79,5.031,8.9,13.3.238,18.371l-68.026,39.871c-8.684,5.094-22.929,5.111-31.715.081l-68.881-39.433c-8.815-5.048-8.922-13.281-.238-18.371Z" transform="translate(-97.757 -282.598)"/></g><path class="f" d="M287.663,294.945c0,.26-.042.519-.064.778-.026.289-.047.578-.1.863-.042.23-.111.455-.17.68-.072.272-.14.548-.234.821-.081.217-.179.434-.272.651-.123.281-.251.566-.4.846-.111.2-.238.4-.361.6-.2.319-.4.634-.634.944-.136.183-.285.366-.434.544a16.116,16.116,0,0,1-1.174,1.267c-.136.132-.259.268-.4.4-.259.234-.549.464-.833.689-.247.2-.476.4-.74.587-.306.225-.646.438-.978.655s-.625.425-.965.629l-68.026,39.871a29.456,29.456,0,0,1-3.759,1.8c-.353.14-.714.276-1.076.408-.825.3-1.688.54-2.551.782-.885.251-1.782.485-2.7.676-1.05.217-2.109.417-3.189.553-.3.038-.591.094-.889.123-1.488.162-3,.247-4.512.264-.247,0-.493,0-.736,0-1.505-.009-3-.085-4.491-.238-.221-.021-.447-.051-.668-.077a42.974,42.974,0,0,1-4.372-.736c-.251-.055-.493-.119-.736-.179a37.707,37.707,0,0,1-3.7-1.114c-.251-.089-.519-.162-.765-.259a29.4,29.4,0,0,1-4.1-1.914l-68.881-39.429c-4.027-2.309-6.549-5.171-7.552-8.173a9.333,9.333,0,0,1-.5-3.028l-.043,15.045c-.013,4.061,2.675,8.122,8.05,11.2L173.6,360.909a29.655,29.655,0,0,0,3.81,1.816c.094.038.191.06.285.1.251.093.515.166.77.259.731.259,1.459.531,2.224.749.481.14.978.242,1.471.361.247.06.485.123.736.178.2.047.4.111.608.153q1.327.274,2.683.463c.357.051.719.081,1.08.123.221.026.442.051.668.072.3.03.591.077.885.1q1.333.108,2.671.14c.31.008.621,0,.931,0,.251,0,.493,0,.74,0,.37,0,.74.009,1.106,0q1.512-.051,3-.2c.136-.013.268-.042.4-.055.3-.034.591-.085.889-.123.727-.094,1.459-.174,2.173-.3.349-.064.668-.183,1.012-.255.927-.191,1.816-.421,2.7-.672.459-.132.953-.2,1.4-.349.4-.128.765-.3,1.152-.438.361-.132.719-.264,1.076-.408a28.572,28.572,0,0,0,3.755-1.8l68.026-39.871.259-.153c.255-.153.476-.319.719-.476.327-.217.663-.43.97-.651.264-.191.5-.4.748-.6.281-.225.566-.447.825-.68.042-.038.094-.077.14-.115.1-.094.17-.2.268-.289a15.276,15.276,0,0,0,1.169-1.259c.072-.089.17-.17.238-.259s.123-.191.2-.289c.234-.31.438-.621.634-.94.081-.128.187-.251.259-.383.043-.072.064-.149.1-.221.149-.276.272-.561.4-.842.068-.162.162-.319.225-.476.021-.06.03-.119.051-.179.094-.272.162-.544.234-.816.047-.178.115-.353.153-.531.009-.051,0-.1.017-.149.051-.289.072-.578.1-.867.017-.183.055-.361.06-.54l0-.238h0Z" transform="translate(-96.664 -239.766)"/></g></g></g><g transform="translate(711.256 3604.999)"><path class="g" d="M565.068,97.64l-.011,3.9v.04h0l4.321,2.5,3.157-1.352-.009,3.17,4.3,2.485,6.311-3.668-.016,5.576v.026h0a2.69,2.69,0,0,0,.2,1.015,3.846,3.846,0,0,0,.545.9c.069.089.152.176.23.265a6.754,6.754,0,0,0,.677.656c.1.087.2.174.314.261a11.51,11.51,0,0,0,1.288.865,14.387,14.387,0,0,0,1.819.88c.033.014.065.035.1.048q.622.245,1.255.426c.064.018.129.03.193.048h0c.075.02.151.037.226.055h0c.18.045.36.1.541.133q.408.084.819.143c.071.01.143.015.215.024l.149.016h0c.132.015.265.034.4.045q.375.032.752.04h0c.161,0,.322,0,.483,0h.141c.052,0,.1,0,.157,0h0c.291-.009.582-.029.873-.058.182-.018.363-.051.545-.077.094-.013.189-.024.283-.039h0c.078-.013.156-.019.234-.033.217-.039.433-.114.65-.164.124-.028.248-.051.372-.083l-.012,4.081v.02h0l3.593,2.074,3.592,2.074.008,0a15.894,15.894,0,0,0,1.935.938h0c.057.023.114.06.171.083q.649.255,1.3.442l.017,0h0l.039.01c.294.082.589.156.883.217.267.056.534.1.8.14l.016,0,.019,0h0c.233.032.466.059.7.078s.476.032.713.038h0c.08,0,.161,0,.241,0h.153c.113,0,.225,0,.338,0q.4-.015.8-.054c.122-.012.244-.036.366-.052h0c.094-.012.189-.025.283-.04.114-.017.229-.027.343-.048.181-.032.36-.1.541-.136l-.012,3.952,4.556,2.63,3.327-1.933-.011,3.848,12.075,6.971,4.127-2.4.024-8.553h0l-.056-.032L637.39,130l4.04-2.348,13.29-7.723.024-8.553h0l-1.1-.637-.571-.33-2.9-1.673-3.327,1.933.006-2.247.005-1.591h0l.006,0-.005,0h0v0h0l-4.564-2.635-6.458,3.753.016-5.565c0,.051-.03.1-.035.151h0a1.961,1.961,0,0,0,0-.3,2.278,2.278,0,0,0-.169-.757h0c-.028-.068-.077-.137-.112-.206a3.915,3.915,0,0,0-.46-.686c-.058-.069-.106-.138-.17-.208h0a7.484,7.484,0,0,0-.927-.837h0c-.084-.065-.175-.131-.265-.2a15.032,15.032,0,0,0-1.376-.9l-4.364-2.52-2.52-1.454h0l-6.308,3.666.016-5.6h0l0,.011c0,.015-.01.031-.01.046v0h0a2.667,2.667,0,0,0-.178-1.025l-.006-.01a3.776,3.776,0,0,0-.588-1c-.029-.036-.077-.07-.107-.105l-.008-.009-.011-.011a6.474,6.474,0,0,0-.885-.869h0a11.346,11.346,0,0,0-1.442-.973,14.439,14.439,0,0,0-1.513-.748h0c-.164-.071-.328-.133-.493-.2q-.537-.207-1.082-.366h0c-.185-.054-.367-.114-.552-.16h0a13.237,13.237,0,0,0-1.411-.27h0c-.274-.037-.55-.049-.825-.069-.223-.015-.446-.03-.669-.034-.322-.007-.644,0-.967.014h0c-.136.008-.271.023-.407.035a13.79,13.79,0,0,0-2.3.384l.012-4.1h0L599.359,79.4l-6.483,2.781.018-6.514L586.547,72,557.7,88.768l-.024,8.553,3.986,2.3Zm70.274,6.118a3.656,3.656,0,0,0,.259-.385h0c-.042.087-.125.175-.177.262s-.094.149-.15.224C635.3,103.826,635.317,103.792,635.342,103.758Zm-13.937,9.256.084-.064,0,0c-.073.058-.135.116-.212.173l-.005,0-.036.024-.046.03C621.264,113.126,621.333,113.07,621.405,113.014Zm-2.421-19.683c.015-.045.023-.091.035-.137a2.656,2.656,0,0,1-.08.376c-.009.022-.021.045-.031.067A1.369,1.369,0,0,0,618.984,93.331Zm-.7,1.288c.029-.039.052-.078.076-.117.056-.072.093-.145.143-.218q-.024.036-.045.072c-.016.022-.029.045-.043.068-.049.067-.072.135-.127.2-.009.012-.022.023-.032.035C618.269,94.647,618.275,94.633,618.285,94.619Zm-.882.869c.027-.027.055-.053.085-.079-.076.068-.133.136-.215.2l-.028.023C617.3,95.587,617.346,95.537,617.4,95.488Zm-26.749,5.06c.035-.022.064-.043.1-.065l.005,0,.024-.015-.009.006h0l-.032.021c-.137.086-.276.172-.39.256C590.44,100.682,590.548,100.615,590.654,100.548Zm-.528.393.034-.03,0,0-.028.025,0,0Zm-.2.178h0l-.02.021-.014.015c-.01.011-.028.023-.039.035C589.873,101.166,589.9,101.143,589.922,101.119Zm-5.666,2.948c.11.117.227.233.354.348-.127-.115-.248-.23-.358-.346Z"/><path class="h" d="M654.744,111.375l-1.673-.967-2.9-1.673-3.327,1.933.006-2.247.005-1.591h0l.006,0-.005,0h0v0h0l-4.564-2.635-6.458,3.753.016-5.565c0,.051-.03.1-.035.151h0a1.961,1.961,0,0,0,0-.3,2.278,2.278,0,0,0-.169-.757c-.028-.069-.077-.138-.112-.207a3.915,3.915,0,0,0-.46-.686c-.058-.069-.106-.139-.17-.208a7.574,7.574,0,0,0-.928-.837c-.084-.065-.175-.131-.265-.2a15.032,15.032,0,0,0-1.376-.9l-4.364-2.52-2.52-1.454h0l-6.308,3.666.016-5.6h0l0,.011c0,.015-.01.031-.01.046v0a3.112,3.112,0,0,0-.772-2.038c-.031-.039-.083-.076-.115-.114a6.477,6.477,0,0,0-.9-.88,11.242,11.242,0,0,0-1.442-.974,14.439,14.439,0,0,0-1.513-.748c-.164-.071-.329-.133-.494-.2-.359-.138-.719-.26-1.083-.366-.184-.054-.367-.114-.553-.16a13.237,13.237,0,0,0-1.411-.27c-.274-.037-.55-.049-.825-.069-.223-.015-.446-.03-.669-.034-.322-.007-.644,0-.968.014-.136.008-.271.023-.407.035a13.79,13.79,0,0,0-2.3.384l.012-4.1h0L599.359,79.4l-6.483,2.781.018-6.514L586.547,72,557.7,88.768l-.024,8.553,3.986,2.3,3.411-1.982-.011,3.9v.04h0l4.321,2.5,3.157-1.352-.009,3.17,4.3,2.485,6.311-3.668-.016,5.576v.026h0a2.69,2.69,0,0,0,.2,1.015,6.671,6.671,0,0,0,3.054,2.949,14.387,14.387,0,0,0,1.819.88c.033.014.065.035.1.048q.622.245,1.255.426c.064.018.129.03.193.048h0c.075.02.151.037.227.056.18.045.36.1.541.133q.408.084.819.143c.071.01.143.015.215.024l.15.016c.132.015.265.034.4.045q.375.032.752.04h0c.161,0,.322,0,.483,0h.141c.052,0,.1,0,.157,0h0c.291-.009.582-.029.873-.058.182-.018.363-.051.545-.077.094-.013.189-.024.283-.039.078-.013.156-.019.234-.033.217-.039.433-.114.65-.164.124-.028.248-.051.372-.083l-.012,4.081v.02h0l3.593,2.074,3.592,2.074.008,0a15.756,15.756,0,0,0,1.936.938h0c.057.023.114.06.171.083q.649.255,1.3.442l.017,0h0l.039.01c.294.082.589.156.883.217.267.056.534.1.8.14l.016,0,.019,0c.233.032.466.059.7.078s.476.032.713.038h0c.08,0,.161,0,.241,0h.153c.113,0,.225,0,.338,0q.4-.015.8-.054c.122-.012.244-.036.366-.052.094-.012.189-.025.283-.04.114-.017.229-.027.343-.048.181-.032.36-.1.541-.136l-.012,3.952,4.556,2.63,3.327-1.933-.011,3.848,12.075,6.971,4.127-2.4.024-8.553h0l-.056-.032L637.39,130l4.04-2.348,13.29-7.723.024-8.553h0Zm-70.488-7.308c.11.117.227.233.354.348-.126-.114-.248-.23-.358-.346Zm6.5-3.584.03-.02-.01.008c-.156.1-.318.2-.444.292h0C590.45,100.671,590.6,100.577,590.753,100.483Zm-.6.43-.028.025,0,0,.037-.032Zm-.234.206-.034.036c-.011.012-.029.024-.039.036.022-.024.049-.048.072-.072Zm31.567,11.83,0,0c-.073.058-.135.116-.212.173-.012.009-.029.018-.041.027l-.046.03c.077-.056.146-.112.218-.168Zm14.111-9.576h0a3.8,3.8,0,0,1-.407.6c.016-.02.025-.04.041-.06A3.838,3.838,0,0,0,635.6,103.373Zm-16.662-9.8c-.009.022-.021.045-.031.067a2.9,2.9,0,0,0,.111-.443A2.656,2.656,0,0,1,618.939,93.57Zm-.434.713c-.017.024-.031.048-.046.073-.064.09-.1.18-.17.27-.009.012-.022.023-.032.035a1.31,1.31,0,0,0,.1-.159C618.417,94.429,618.455,94.356,618.505,94.283Zm-1.016,1.124c-.076.069-.133.138-.216.206l-.028.023C617.338,95.56,617.4,95.483,617.489,95.407Z"/><path class="i" d="M565.068,97.64l-.011,3.945,4.321,2.5,3.157-1.352-.009,3.17,4.3,2.485,6.311-3.668-.016,5.6c0,1.357,1.07,2.7,3.254,3.964a14.307,14.307,0,0,0,1.818.88c.034.013.066.035.1.048q.622.245,1.255.426c.064.018.129.03.193.048s.153.037.23.056c.179.045.359.1.539.133q.408.084.819.143c.071.01.143.015.214.024l.151.017c.133.015.265.033.4.044q.375.032.752.04c.16,0,.321,0,.481,0h.3c.291-.011.582-.03.873-.059.181-.018.362-.051.542-.076.1-.014.192-.025.288-.041.077-.012.154-.018.232-.032.217-.039.433-.114.65-.164.124-.028.248-.051.372-.083l-.012,4.1,7.185,4.148a15.909,15.909,0,0,0,1.945.943c.057.023.114.06.171.083q.649.255,1.3.442l.017,0,.043.011c.293.082.587.155.88.216.267.056.534.1.8.14l.015,0,.024,0c.231.032.463.059.694.078s.475.032.713.038c.08,0,.161,0,.241,0h.153c.112,0,.225,0,.338,0q.4-.015.8-.054c.122-.012.243-.036.365-.052.095-.012.19-.025.285-.04.114-.017.228-.027.342-.048.181-.032.36-.1.541-.136l-.012,3.952,4.556,2.63,3.327-1.933-.011,3.848,12.075,6.971,4.127-2.4.024-8.553h0L637.39,130l17.33-10.071.024-8.553h0l-4.572-2.64-3.327,1.933.011-3.838.007,0-.007,0v0h0l-4.564-2.635-6.458,3.753.016-5.565a2.32,2.32,0,0,1-.2.884c.656-1.564-.393-3.136-3.312-4.821l-6.884-3.974-6.308,3.666.016-5.6c0,.019-.012.038-.012.057.035-1.374-1.023-2.736-3.227-4.009A13.385,13.385,0,0,0,605.7,87.163l.011-4.1L599.359,79.4l-6.483,2.781.018-6.514L586.547,72,557.7,88.768l-.024,8.553,3.986,2.3Zm70.533,5.734a3.818,3.818,0,0,1-.432.641,3.767,3.767,0,0,0,.432-.642Zm-46.145-1.434,0,.027Zm1.317-1.469c-.155.1-.319.2-.445.292.131-.1.3-.2.458-.3Zm-.644.467-.005,0c.014-.012.026-.024.041-.036Zm-.24.217c-.012.013-.031.026-.042.038.022-.025.052-.05.077-.075C589.911,101.13,589.9,101.143,589.889,101.155Zm-.325.436.014-.03Zm31.923,11.361c-.073.058-.136.115-.213.173-.026.019-.061.038-.088.058.107-.078.206-.156.305-.234Zm-4.154-4.616a1.7,1.7,0,0,1,.118.166A1.545,1.545,0,0,0,617.333,108.336Zm.28.417a.9.9,0,0,1,.042.182A.9.9,0,0,0,617.613,108.753Zm-.755-.836c.062.046.1.091.159.137C616.961,108.008,616.92,107.963,616.858,107.917Zm17.994-3.512c-.019.02-.047.04-.066.06.019-.02.047-.04.066-.06Zm-17.579-8.792-.029.024c.1-.078.163-.157.251-.236C617.416,95.472,617.358,95.543,617.273,95.613Zm-33.017,8.454q.167.177.358.353c-.128-.117-.251-.233-.362-.351Zm.7.686a11.535,11.535,0,0,0,1.445.975A11.535,11.535,0,0,1,584.958,104.753Zm44.2-2.784a.971.971,0,0,0-.234-.562A.978.978,0,0,1,629.156,101.969Zm-.311-.64a3.033,3.033,0,0,0-.736-.572A3.033,3.033,0,0,1,628.845,101.329Zm-9.906-7.759c-.009.023-.022.046-.032.068a2.8,2.8,0,0,0,.113-.448A2.714,2.714,0,0,1,618.939,93.57Zm-.431.709c-.079.115-.124.232-.219.347-.009.012-.023.024-.033.036A4.565,4.565,0,0,0,618.508,94.279Zm-5.657-2.053a1.036,1.036,0,0,0-.257-.622A1.036,1.036,0,0,1,612.851,92.226Zm-.3-.66a3.027,3.027,0,0,0-.761-.594A3.027,3.027,0,0,1,612.555,91.566Z"/><g class="b"><path class="j" d="M582.08,79.214l-.024,8.553-20.4,11.855.024-8.553Z"/><path class="k" d="M592.894,75.665l-.024,8.553L575.754,98.065l.024-8.553Z"/><path class="h" d="M561.681,91.069l-.024,8.553-3.986-2.3.024-8.553Z"/><path class="h" d="M569.4,95.527l-.024,8.553-4.321-2.495.024-8.553Z"/><path class="l" d="M593.249,85.316l-.024,8.553L569.378,104.08l.024-8.553Z"/><path class="m" d="M605.707,83.063,576.855,99.829l-4.3-2.485,20.7-12.029L569.4,95.527l-4.321-2.495,17-13.818-20.4,11.855-3.986-2.3L586.547,72l6.347,3.665L575.778,89.512,599.359,79.4Z"/><path class="h" d="M576.855,99.829l-.024,8.553-4.3-2.485.024-8.553Z"/><path class="j" d="M605.707,83.063l-.024,8.553L576.83,108.383l.024-8.553Z"/></g><g class="b"><g class="b"><g class="n"><g class="b"><path class="o" d="M612.869,92.271l-.024,8.553c0-.472-.389-.9-1.075-1.3a5.038,5.038,0,0,0-.662-.321l.024-8.553a5.041,5.041,0,0,1,.662.321c.686.4,1.077.827,1.075,1.3"/><path class="p" d="M611.132,90.651l-.024,8.553c-.134-.052-.269-.1-.406-.138l.024-8.553c.137.04.272.086.406.138"/><path class="q" d="M610.726,90.513l-.024,8.553c-.1-.029-.206-.054-.31-.076l.024-8.553c.1.022.208.047.31.076"/><path class="r" d="M610.416,90.437l-.024,8.553q-.129-.027-.261-.045l.024-8.553q.132.018.261.045"/><path class="s" d="M610.155,90.392l-.024,8.553c-.081-.012-.163-.021-.245-.028l.024-8.553c.083.007.164.016.245.028"/><path class="t" d="M609.91,90.364l-.024,8.553c-.08-.006-.161-.011-.243-.013l.024-8.553c.082,0,.163.007.243.013"/><path class="u" d="M609.667,90.351l-.024,8.553c-.085,0-.171,0-.257,0l.024-8.553c.087,0,.172,0,.257,0"/><path class="v" d="M609.41,90.352l-.024,8.553c-.1,0-.2.01-.295.02l.024-8.553c.1-.01.2-.016.295-.02"/><path class="w" d="M609.115,90.372l-.024,8.553c-.126.013-.254.031-.383.054l.024-8.553c.13-.023.257-.041.383-.054"/><path class="x" d="M608.732,90.426l-.024,8.553a5.441,5.441,0,0,0-.692.175l.024-8.553a5.444,5.444,0,0,1,.692-.175"/><path class="y" d="M608.04,90.6l-.024,8.553a7.444,7.444,0,0,0-1.453.661l.024-8.553a7.473,7.473,0,0,1,1.453-.661"/></g></g></g><g class="b"><g class="z"><g class="b"><path class="r" d="M619.16,92.526l-.024,8.553v.067l.024-8.553v-.067"/><path class="s" d="M619.159,92.593l-.024,8.553a2.683,2.683,0,0,1-.051.443l.024-8.554a2.554,2.554,0,0,0,.051-.442"/><path class="t" d="M619.108,93.035l-.024,8.554a2.937,2.937,0,0,1-.13.451l.024-8.553a2.819,2.819,0,0,0,.13-.452"/><path class="u" d="M618.978,93.487l-.024,8.553a3.472,3.472,0,0,1-.232.493l.024-8.553a3.479,3.479,0,0,0,.232-.493"/><path class="v" d="M618.746,93.98l-.024,8.553a4.493,4.493,0,0,1-.387.571l.025-8.553a4.446,4.446,0,0,0,.386-.571"/><path class="w" d="M618.36,94.551l-.025,8.553a6.352,6.352,0,0,1-.692.74l.024-8.553a6.449,6.449,0,0,0,.693-.74"/><path class="x" d="M617.667,95.291l-.024,8.553a11.439,11.439,0,0,1-1.855,1.357l.024-8.553a11.437,11.437,0,0,0,1.855-1.357"/><path class="y" d="M615.812,96.648l-.024,8.553-.229.136.024-8.554.229-.135"/></g></g></g><path class="j" d="M606.587,91.262l-.024,8.553-15.574,9.051.024-8.553Z"/><g class="b"><g class="aa"><g class="b"><path class="y" d="M591.013,100.313l-.024,8.553-.125.074.024-8.553.125-.074"/><path class="x" d="M590.888,100.387l-.024,8.553a5.454,5.454,0,0,0-.876.637l.024-8.554a5.391,5.391,0,0,1,.876-.636"/><path class="w" d="M590.012,101.023l-.024,8.554a2.487,2.487,0,0,0-.277.3l.024-8.553a2.654,2.654,0,0,1,.277-.3"/><path class="v" d="M589.735,101.32l-.024,8.553a1.669,1.669,0,0,0-.143.21l.024-8.553a1.787,1.787,0,0,1,.143-.21"/><path class="u" d="M589.592,101.53l-.024,8.553a1.349,1.349,0,0,0-.082.174l.024-8.553a1.358,1.358,0,0,1,.082-.174"/><path class="t" d="M589.51,101.7l-.024,8.553a.942.942,0,0,0-.045.156l.024-8.553a1.145,1.145,0,0,1,.045-.156"/><path class="s" d="M589.465,101.86l-.024,8.553a.842.842,0,0,0-.017.148l.024-8.553a.946.946,0,0,1,.017-.148"/><path class="r" d="M589.448,102.008l-.024,8.553v.022l.024-8.553v-.022"/></g></g></g><path class="j" d="M615.583,96.783l-.024,8.553-15.008,8.722.024-8.553Z"/><g class="b"><g class="ab"><g class="b"><path class="y" d="M600.574,105.5l-.024,8.554a16.054,16.054,0,0,1-3.106,1.4l.024-8.553a15.972,15.972,0,0,0,3.106-1.4"/><path class="x" d="M597.468,106.9l-.024,8.553a14.3,14.3,0,0,1-1.878.473l.024-8.553a14.461,14.461,0,0,0,1.878-.473"/><path class="w" d="M595.59,107.376l-.024,8.553q-.531.1-1.062.149l.024-8.553q.531-.054,1.062-.149"/><path class="v" d="M594.528,107.525l-.024,8.553c-.291.029-.582.048-.873.059l.024-8.554q.436-.015.873-.058"/><path class="u" d="M593.655,107.583l-.024,8.554q-.393.014-.784,0l.024-8.553c.261.007.523.005.784,0"/><path class="t" d="M592.871,107.587l-.024,8.553q-.376-.009-.752-.04l.024-8.553q.375.032.752.04"/><path class="s" d="M592.119,107.547l-.024,8.553q-.382-.031-.763-.085l.024-8.554q.381.054.763.086"/><path class="r" d="M591.356,107.461l-.024,8.554q-.411-.059-.819-.143l.025-8.553c.272.056.544.1.818.142"/><path class="q" d="M590.538,107.319l-.025,8.553q-.483-.1-.962-.237l.024-8.553q.478.136.963.237"/><path class="p" d="M589.575,107.082l-.024,8.553q-.633-.182-1.255-.426l.024-8.553q.622.245,1.255.426"/><path class="o" d="M588.32,106.656l-.024,8.553a14.475,14.475,0,0,1-1.917-.928c-2.184-1.261-3.258-2.606-3.254-3.964l.024-8.553c0,1.357,1.07,2.7,3.254,3.964a14.6,14.6,0,0,0,1.917.928"/></g></g></g><path class="m" d="M615.921,88.574c4.471,2.582,4.271,5.531-.338,8.209L600.574,105.5a13.72,13.72,0,0,1-14.171.223c-4.488-2.592-4.288-5.541.321-8.219l15.008-8.722A13.729,13.729,0,0,1,615.921,88.574ZM595.736,103.04l15.574-9.051c2.064-1.2,1.924-2.185.484-3.017-1.457-.841-3.143-.909-5.207.29l-15.574,9.051c-2.063,1.2-1.94,2.175-.483,3.017a4.879,4.879,0,0,0,5.206-.29"/></g><g class="b"><path class="h" d="M628.109,100.757l-.024,8.553-2.194-1.267.024-8.553Z"/><g class="b"><g class="ac"><g class="b"><path class="o" d="M629.178,102.023l-.024,8.553c0-.439-.357-.854-1.07-1.265l.025-8.554c.712.412,1.071.827,1.069,1.266"/></g></g></g><path class="j" d="M625.915,99.491l-.024,8.553-7.637,4.438.024-8.553Z"/><g class="b"><g class="ad"><g class="b"><path class="r" d="M635.849,102.374l-.024,8.553v.056l.024-8.553v-.056"/><path class="s" d="M635.848,102.43l-.024,8.553a2.247,2.247,0,0,1-.042.364l.024-8.553a2.261,2.261,0,0,0,.042-.364"/><path class="t" d="M635.806,102.794l-.024,8.553a2.427,2.427,0,0,1-.107.371l.024-8.553a2.358,2.358,0,0,0,.107-.371"/><path class="u" d="M635.7,103.165l-.024,8.553a2.913,2.913,0,0,1-.191.406l.024-8.553a2.967,2.967,0,0,0,.191-.406"/><path class="v" d="M635.508,103.571l-.024,8.553a3.932,3.932,0,0,1-.328.484l.024-8.553a3.825,3.825,0,0,0,.328-.484"/><path class="w" d="M635.18,104.055l-.024,8.553a5.657,5.657,0,0,1-.6.644l.024-8.553a5.648,5.648,0,0,0,.6-.644"/><path class="x" d="M634.576,104.7l-.024,8.553a11.467,11.467,0,0,1-1.855,1.35l.024-8.553a11.462,11.462,0,0,0,1.855-1.35"/><path class="y" d="M632.721,106.049,632.7,114.6l-.258.153.024-8.554c.088-.051.174-.1.258-.152"/></g></g></g><path class="j" d="M632.463,106.2l-.024,8.553-1.015.59.024-8.553Z"/><path class="h" d="M616.194,107.487l-.024,8.553-2.027-1.17.024-8.553Z"/><g class="b"><g class="ae"><g class="b"><path class="y" d="M631.448,106.791l-.024,8.553a15.46,15.46,0,0,1-3.029,1.377l.024-8.553a15.459,15.459,0,0,0,3.029-1.377"/><path class="x" d="M628.419,108.168l-.024,8.553a11.736,11.736,0,0,1-1.507.378l.025-8.553a11.723,11.723,0,0,0,1.506-.378"/><path class="w" d="M626.913,108.546l-.025,8.553c-.286.052-.573.093-.86.121l.024-8.553c.287-.028.574-.069.861-.121"/><path class="v" d="M626.052,108.667l-.024,8.553q-.348.034-.7.047l.025-8.553q.348-.012.7-.047"/><path class="u" d="M625.356,108.714l-.025,8.553c-.21.007-.42.008-.631,0l.025-8.553c.21,0,.421,0,.631,0"/><path class="t" d="M624.725,108.717l-.025,8.553c-.207,0-.414-.017-.622-.034l.024-8.553q.312.025.623.034"/><path class="s" d="M624.1,108.683l-.024,8.553q-.327-.027-.655-.073l.024-8.554c.219.032.438.056.655.074"/><path class="r" d="M623.447,108.609l-.024,8.554q-.366-.053-.735-.129l.025-8.553c.246.051.49.094.734.128"/><path class="q" d="M622.713,108.481l-.025,8.553-.036-.007.025-8.553.036.007"/></g></g></g><g class="b"><g class="af"><g class="b"><path class="o" d="M617.7,109.129l-.024,8.553c0-.555-.525-1.074-1.507-1.641l.024-8.554c.982.568,1.509,1.087,1.507,1.642"/></g></g></g><path class="j" d="M614.167,106.317l-.024,8.553-8.869,5.154.024-8.553Z"/><g class="b"><g class="ag"><g class="b"><path class="r" d="M623.314,110.146l-.024,8.554v.057l.024-8.553v-.058"/><path class="s" d="M623.313,110.2l-.024,8.553a2.221,2.221,0,0,1-.043.372l.024-8.553a2.233,2.233,0,0,0,.043-.372"/><path class="t" d="M623.27,110.576l-.024,8.553a2.417,2.417,0,0,1-.11.381l.024-8.553a2.317,2.317,0,0,0,.11-.381"/><path class="u" d="M623.16,110.957l-.024,8.553a3.029,3.029,0,0,1-.194.414l.024-8.553a3.078,3.078,0,0,0,.194-.414"/><path class="v" d="M622.966,111.371l-.024,8.553a3.927,3.927,0,0,1-.329.486l.024-8.553a3.821,3.821,0,0,0,.329-.486"/><path class="w" d="M622.637,111.857l-.024,8.553a5.741,5.741,0,0,1-.621.665l.024-8.553a5.824,5.824,0,0,0,.621-.665"/><path class="x" d="M622.016,112.522l-.024,8.553a11.477,11.477,0,0,1-1.839,1.34l.024-8.553a11.431,11.431,0,0,0,1.839-1.34"/><path class="y" d="M620.177,113.862l-.024,8.553-.274.162.024-8.553.274-.162"/></g></g></g><path class="j" d="M619.9,114.024l-.024,8.553-2.363,1.373.024-8.553Z"/><path class="h" d="M603.785,115.378l-.024,8.553-7.185-4.148.024-8.553Z"/><path class="m" d="M622.677,108.474c1.5,1.963.271,3.781-2.774,5.55l-2.362,1.373a13.079,13.079,0,0,1-13.756-.019L596.6,111.23l28.852-16.767,6.884,3.974c4.739,2.736,4.586,5.173.127,7.764l-1.015.59A11.885,11.885,0,0,1,622.677,108.474Zm-9.559,4.216,2.513-1.46c2.679-1.557,2.64-2.544.563-3.743l-2.027-1.17-8.868,5.154,2.613,1.509c1.524.88,3.06.957,5.206-.29m12.8-13.2-7.638,4.438,1.776,1.025a5.277,5.277,0,0,0,5.808-.193l1.6-.929c2.064-1.2,2.258-2.146.651-3.075l-2.194-1.266"/><g class="b"><g class="ah"><g class="b"><path class="y" d="M617.541,115.4l-.025,8.553a14.972,14.972,0,0,1-2.912,1.313l.024-8.553a14.981,14.981,0,0,0,2.913-1.313"/><path class="x" d="M614.628,116.71l-.024,8.553a13,13,0,0,1-1.709.431l.024-8.553a13,13,0,0,0,1.709-.431"/><path class="w" d="M612.919,117.141l-.024,8.553q-.5.09-.992.14l.025-8.553c.331-.034.661-.08.991-.14"/><path class="v" d="M611.928,117.281l-.025,8.553q-.4.039-.8.054l.024-8.553q.4-.015.8-.054"/><path class="u" d="M611.124,117.335l-.024,8.553q-.366.012-.732,0l.024-8.553q.366.009.732,0"/><path class="t" d="M610.392,117.338l-.024,8.553c-.237-.006-.475-.018-.713-.038l.025-8.553c.237.019.475.032.712.038"/><path class="s" d="M609.68,117.3l-.025,8.553c-.244-.02-.489-.048-.733-.083l.024-8.553c.245.035.489.063.734.083"/><path class="r" d="M608.946,117.217l-.024,8.553c-.268-.038-.535-.084-.8-.14l.024-8.553c.267.056.535.1.8.14"/><path class="q" d="M608.144,117.077l-.024,8.553c-.313-.065-.627-.142-.94-.231l.024-8.553q.47.133.94.231"/><path class="p" d="M607.2,116.846l-.024,8.553q-.652-.186-1.3-.442l.024-8.553q.651.255,1.3.442"/><path class="o" d="M605.9,116.4l-.024,8.553a15.792,15.792,0,0,1-2.116-1.026l.024-8.553A15.918,15.918,0,0,0,605.9,116.4"/></g></g></g></g><g class="b"><path class="m" d="M646.863,106.826l-28.849,16.765-4.572-2.639,28.849-16.765Z"/><path class="j" d="M646.856,106.82l-.024,8.553L617.98,132.14l.024-8.553Z"/><path class="h" d="M618,123.587l-.024,8.553-4.555-2.63.024-8.553Z"/></g><g class="b"><path class="j" d="M654.744,111.374l-.024,8.553L629.994,134.3l.024-8.553Z"/><path class="m" d="M654.744,111.375l-24.725,14.369,7.5,4.332-4.126,2.4L621.32,125.5l28.852-16.767Z"/><path class="j" d="M637.522,130.075l-.024,8.553-4.126,2.4.024-8.553Z"/><path class="h" d="M633.4,132.473l-.024,8.553L621.3,134.055l.024-8.553Z"/></g></g></g></svg>