<svg xmlns="http://www.w3.org/2000/svg" xmlns:xlink="http://www.w3.org/1999/xlink" width="191" height="223.943" viewBox="0 0 191 223.943"><defs><style>.a,.h{fill:none;}.b{isolation:isolate;}.c{fill:#d10000;}.d{fill:#b0b2b2;}.e{fill:#2d2d2c;}.f{fill:#6e7072;}.g,.v{fill:#991d1b;}.g{stroke:#fff;stroke-width:9.089px;}.g,.h{stroke-linejoin:round;}.h{stroke:#831412;stroke-width:4.545px;}.i{fill:#ac2322;}.j{fill:#a22;}.k{fill:#831412;}.l{fill:#ac2323;}.m{fill:#fff;}.n{clip-path:url(#a);}.o{fill:#811310;}.p{fill:#841512;}.q{fill:#871614;}.r{fill:#8b1815;}.s{fill:#8e1917;}.t{fill:#921a19;}.u{fill:#951c1a;}.w{fill:#9c1e1d;}.x{fill:#a01f1e;}.y{fill:#a3201f;}.z{clip-path:url(#b);}.aa{clip-path:url(#c);}.ab{clip-path:url(#d);}.ac{clip-path:url(#e);}.ad{clip-path:url(#f);}.ae{clip-path:url(#g);}.af{clip-path:url(#h);}.ag{clip-path:url(#i);}.ah{clip-path:url(#j);}.ai{clip-path:url(#k);}.aj{clip-path:url(#l);}.ak{clip-path:url(#m);}.al{clip-path:url(#n);}</style><clipPath id="a"><path class="a" d="M611.134,167.459l-.024,8.553c0-.443-.355-.841-.981-1.2-1.374-.793-3.027-.841-5.09.358l.024-8.553c2.064-1.2,3.717-1.151,5.09-.358C610.779,166.618,611.135,167.016,611.134,167.459Z"/></clipPath><clipPath id="b"><path class="a" d="M617.241,167.525l-.025,8.553c0,1.432-1.246,2.9-3.684,4.32l.024-8.553C615.995,170.428,617.237,168.957,617.241,167.525Z"/></clipPath><clipPath id="c"><path class="a" d="M587.869,185.951l.024-8.553c0-.516.489-1.09,1.6-1.734l-.024,8.554C588.357,184.861,587.87,185.435,587.869,185.951Z"/></clipPath><clipPath id="d"><path class="a" d="M581.762,185.886l.024-8.554c0,1.278.978,2.526,2.976,3.68,4.22,2.436,9.177,2.233,13.786-.445l-.024,8.553c-4.609,2.678-9.566,2.881-13.787.445C582.74,188.411,581.758,187.163,581.762,185.886Z"/></clipPath><clipPath id="e"><path class="a" d="M640.55,184.439l-.024,8.553c0-.44-.355-.838-.988-1.2-1.374-.792-3.01-.831-5.073.368l.024-8.553c2.064-1.2,3.7-1.161,5.073-.368C640.2,183.6,640.551,184,640.55,184.439Z"/></clipPath><clipPath id="f"><path class="a" d="M646.65,184.5l-.024,8.553c0,1.432-1.246,2.9-3.685,4.32l.025-8.553C645.4,187.407,646.646,185.936,646.65,184.5Z"/></clipPath><clipPath id="g"><path class="a" d="M617.285,202.942l.024-8.553c0-.516.494-1.089,1.606-1.736l-.024,8.554C617.778,201.853,617.287,202.427,617.285,202.942Z"/></clipPath><clipPath id="h"><path class="a" d="M611.185,202.878l.024-8.554c0,1.275.974,2.519,2.962,3.667,4.22,2.437,9.177,2.234,13.786-.445l-.024,8.553c-4.609,2.679-9.566,2.882-13.786.445C612.159,205.4,611.182,204.152,611.185,202.878Z"/></clipPath><clipPath id="i"><path class="a" d="M655.909,193.664l-.024,8.554c0-.412-.33-.8-.987-1.176l.024-8.553C655.579,192.868,655.91,193.253,655.909,193.664Z"/></clipPath><clipPath id="j"><path class="a" d="M662.382,193.822l-.024,8.553c0,1.273-1.185,2.548-3.475,3.879l.025-8.553C661.2,196.37,662.379,195.1,662.382,193.822Z"/></clipPath><clipPath id="k"><path class="a" d="M642.691,201.221l-.024,8.553c0-.53-.458-1.022-1.334-1.528l.024-8.553C642.234,200.2,642.693,200.691,642.691,201.221Z"/></clipPath><clipPath id="l"><path class="a" d="M656.645,199.016l-.025,8.553a12.205,12.205,0,0,1-8.687,1.77l.024-8.554A12.2,12.2,0,0,0,656.645,199.016Z"/></clipPath><clipPath id="m"><path class="a" d="M648.382,202.054l-.025,8.553c0,1.333-1.407,2.62-3.7,3.953l.025-8.553C646.975,204.674,648.378,203.386,648.382,202.054Z"/></clipPath><clipPath id="n"><path class="a" d="M640.239,208.589l-.024,8.553a9.439,9.439,0,0,0-3.042,2.311l.024-8.553A9.448,9.448,0,0,1,640.239,208.589Z"/></clipPath></defs><g transform="translate(-982 -3902.033)"><g class="b" transform="translate(988.981 3947.479)"><path class="c" d="M115.465,17.616l-7.093-4.095L5.974,73.448c-8.918,5.183-8.871,13.617.106,18.8l123.892,70.781,7.047-4.1L13.127,88.152c-5.063-2.923-5.1-7.682-.059-10.609l102.4-59.927"/></g><g transform="translate(981.958 3872.72)"><g transform="translate(0.042 29.313)"><g class="b"><g transform="translate(0.045)"><path class="d" d="M75.84,20.152c10.465-6.136,27.615-6.179,38.237-.1l68.876,39.432c10.622,6.081,10.75,16.014.289,22.146L115.217,121.5c-10.465,6.136-27.615,6.179-38.237.1L8.1,82.168c-10.622-6.081-10.75-16.014-.289-22.146ZM179.718,61.383,110.842,21.95c-8.819-5.048-23.061-4.992-31.714.081L11.1,61.9c-8.688,5.09-8.581,13.323.238,18.37L80.216,119.7c8.79,5.031,23.031,5.009,31.719-.081l68.025-39.87c8.654-5.073,8.547-13.34-.242-18.37" transform="translate(-0.053 -15.521)"/></g><g transform="translate(4.648 2.674)"><path class="e" d="M75.607,19.986c8.654-5.073,22.895-5.128,31.714-.081L176.2,59.337c8.79,5.031,8.9,13.3.242,18.37l-68.025,39.87c-8.688,5.09-22.929,5.111-31.719.081L7.82,78.226C-1,73.179-1.106,64.946,7.582,59.856Z" transform="translate(-1.135 -16.15)"/></g><path class="f" d="M191.042,28.5c0,.259-.043.519-.068.778-.026.289-.047.578-.1.863-.043.23-.111.455-.17.68a8.08,8.08,0,0,1-.234.816c-.077.221-.179.434-.272.651-.123.285-.247.57-.4.85-.106.2-.234.4-.357.6-.2.319-.4.634-.638.944-.136.183-.281.366-.429.544a16.2,16.2,0,0,1-1.178,1.267c-.136.132-.259.264-.4.4-.264.234-.553.464-.838.689-.242.2-.476.4-.736.587-.31.225-.651.438-.978.655s-.625.425-.97.629l-68.025,39.87a29.468,29.468,0,0,1-3.759,1.8c-.353.14-.714.276-1.076.408-.821.3-1.684.54-2.551.782-.884.251-1.782.485-2.7.676-1.05.217-2.109.412-3.189.553-.3.038-.587.094-.884.123-1.493.162-3,.247-4.516.264-.247,0-.489,0-.736,0-1.5-.009-3-.089-4.486-.238l-.672-.077a42.993,42.993,0,0,1-4.371-.736c-.247-.055-.489-.119-.736-.179a37.715,37.715,0,0,1-3.7-1.114c-.251-.089-.515-.162-.765-.259a29.625,29.625,0,0,1-4.1-1.914L8.139,39.978c-4.031-2.3-6.553-5.167-7.556-8.169a9.589,9.589,0,0,1-.5-3.028L.042,43.827c-.009,4.061,2.679,8.122,8.054,11.2L76.972,94.456a29.128,29.128,0,0,0,3.81,1.82c.094.038.191.06.285.1.251.094.515.166.77.259.736.259,1.463.532,2.228.748.476.136.978.242,1.467.361.247.06.485.123.736.179.2.047.4.106.612.149.88.183,1.777.34,2.679.468.357.051.719.081,1.08.123.225.025.446.051.672.072.293.03.587.077.884.1.884.077,1.778.123,2.666.145.315.009.625,0,.936,0,.247,0,.489,0,.736,0,.37,0,.74.009,1.11,0,1-.034,2.007-.1,3-.2.136-.013.268-.043.4-.055.3-.034.587-.085.884-.123.727-.094,1.459-.174,2.173-.306.349-.06.672-.179,1.016-.251.923-.191,1.812-.421,2.7-.672.455-.132.948-.2,1.395-.349.4-.128.765-.3,1.152-.438.366-.132.723-.264,1.076-.408a28.643,28.643,0,0,0,3.759-1.8l68.025-39.87.255-.153c.255-.153.476-.319.719-.481.327-.213.668-.425.97-.646.268-.2.5-.4.748-.6.281-.225.57-.446.825-.68.043-.038.1-.077.14-.115.1-.094.17-.2.268-.289a15.255,15.255,0,0,0,1.169-1.259c.072-.089.17-.17.242-.259s.123-.191.2-.289c.23-.31.434-.621.629-.94.081-.128.187-.255.259-.383.043-.072.064-.149.1-.221a8.847,8.847,0,0,0,.4-.842c.072-.162.166-.319.225-.476.021-.06.03-.123.051-.183.1-.268.162-.54.234-.812.047-.179.115-.353.153-.532.009-.051.009-.1.017-.153.051-.285.072-.574.1-.867.017-.179.055-.357.064-.536l0-.238h0Z" transform="translate(-0.042 26.682)"/></g></g></g><g transform="translate(463.329 3901.978)"><path class="g" d="M564.648,173.863l-.01,3.712,4.07,2.349,2.989-1.3-.008,3.022,4.069,2.35,6.019-3.5-.015,5.387c0,1.278.978,2.526,2.976,3.68a13,13,0,0,0,1.669.808c.017.006.032.017.049.024q.573.225,1.158.393c.075.022.15.038.226.056l.074.018q.116.03.231.057c.119.029.237.063.357.088q.385.079.775.135c.128.018.257.029.385.043h0c.046.006.093.012.14.016.066.007.133.017.2.023q.359.028.72.038t.754,0h.015q.42-.015.843-.057c.257-.025.514-.068.772-.108.066-.011.133-.017.2-.028.034-.006.068-.008.1-.015.2-.036.4-.106.6-.152.382-.087.764-.169,1.145-.289h0c.043-.014.086-.019.129-.033.332-.107.662-.251.993-.384.188-.075.377-.135.565-.218h0c.265-.117.527-.264.79-.4l-.02,7.036h0l2.728,1.575,1.576.91h0l3.8-2.21,5.642-3.28a2.536,2.536,0,0,0-.07,1.155,2.506,2.506,0,0,1-.084-.44l-.025,8.553a3.684,3.684,0,0,0,1.66,2.789,10.33,10.33,0,0,0,1.3.878,12.81,12.81,0,0,0,1.67.808c.016.007.032.017.048.024.285.112.575.2.864.294.1.03.2.071.294.1s.2.049.3.075h0c.077.02.155.038.232.057.119.028.236.063.355.087q.386.081.775.136c.128.018.256.029.384.043l.142.016c.067.006.133.016.2.022q.359.03.72.039t.755,0h.013c.2-.007.406-.024.609-.041.079-.006.157-.007.235-.015.173-.018.346-.049.519-.073.084-.013.167-.022.25-.036.068-.01.136-.016.2-.028.034-.006.067-.008.1-.014.2-.037.4-.106.6-.152l.168-.04c.072-.016.144-.032.216-.051l-.011,3.938,4.3,2.485,4.7-2.734,0,1.367-.011,4.074,4.388,2.534a4.264,4.264,0,0,1,.375-.424c.019-.02.035-.042.054-.062.047-.048.086-.1.136-.146.074-.069.166-.134.247-.2.1-.083.206-.166.311-.248.061-.046.111-.094.175-.139.114-.082.246-.164.37-.246.157-.1.312-.207.486-.313.016-.01.029-.02.046-.03.265-.162.539-.326.842-.5l4.443-2.582c.124-.073.247-.145.367-.218.046-.028.081-.055.126-.083.35-.215.682-.43.982-.644l.054-.037a9.863,9.863,0,0,0,.82-.663c.031-.027.073-.055.1-.083s.054-.06.085-.091a5.751,5.751,0,0,0,.434-.463c.033-.035.07-.069.1-.1.011-.014.018-.027.028-.041.053-.069.093-.137.139-.206s.107-.145.148-.218c.012-.022.019-.043.03-.064.024-.044.042-.088.063-.132.028-.061.062-.121.085-.182s.03-.1.046-.157.023-.075.032-.112.017-.05.022-.075a2.027,2.027,0,0,0,.038-.33v-.05l0-1.2.137.023c.211.03.422.053.632.071s.409.027.613.032c.1,0,.2,0,.3,0h.092c.081,0,.163,0,.245,0q.352-.012.7-.048.441-.044.885-.124c.055-.01.111-.031.167-.042.138-.027.278-.072.417-.1.324-.075.648-.14.975-.245.2-.063.4-.157.6-.231.178-.067.357-.133.537-.208a16.862,16.862,0,0,0,1.96-.963l2.263-1.315c.093-.054.185-.108.274-.162.433-.261.812-.519,1.158-.776.082-.061.146-.121.223-.182.186-.146.383-.293.541-.439.1-.092.17-.184.258-.276.069-.072.141-.145.2-.217.047-.055.111-.109.154-.164a3.805,3.805,0,0,0,.327-.483c.034-.06.056-.12.085-.18h0c.013-.027.027-.055.039-.082.02-.046.048-.093.065-.139a2.319,2.319,0,0,0,.106-.368,2.062,2.062,0,0,0,.041-.357v-.053l.024-8.553c0,.016-.011.033-.011.049l0-.007a2.692,2.692,0,0,0-.764-1.831c-.019-.022-.052-.044-.071-.066a6.769,6.769,0,0,0-.932-.862,13.259,13.259,0,0,0-1.436-.947l-4.757-2.746-1.741-1.005h0l-6.032,3.506.015-5.409c0,.038-.023.076-.025.114a2.887,2.887,0,0,0-.675-1.937c-.027-.035-.073-.068-.1-.1a5.771,5.771,0,0,0-.822-.829,9.972,9.972,0,0,0-1.286-.876c-.02-.012-.032-.024-.053-.036a12.9,12.9,0,0,0-1.845-.865c-.185-.071-.373-.121-.559-.183a12.436,12.436,0,0,0-1.391-.376c-.2-.042-.407-.076-.612-.108a12.4,12.4,0,0,0-1.48-.134c-.169-.006-.336-.019-.506-.017a13.043,13.043,0,0,0-2,.156l.008-2.93L622,168.7h0l-4.126,2.4-.015,5.209-.16.093-.583.339c.006-.023.012-.045.019-.067s.022-.066.029-.1a2.568,2.568,0,0,0,.049-.433c0-.021,0-.043,0-.064l.025-8.553h0c0,.038-.023.077-.025.115h0a2.887,2.887,0,0,0-.675-1.937c-.033-.042-.088-.083-.123-.126a5.832,5.832,0,0,0-.8-.806,9.979,9.979,0,0,0-1.339-.912h0a12.864,12.864,0,0,0-2.082-.944c-.166-.059-.331-.111-.5-.162a12.391,12.391,0,0,0-2.025-.465c-.042,0-.084-.017-.126-.022a13.158,13.158,0,0,0-4.922.335h0v-.548l.01-3.377-6-3.462-6.114,2.667.018-6.186-6-3.462L557.7,165l-.024,8.553,3.768,2.176Zm97.6,20.551c-.006.024-.011.047-.016.071a2.178,2.178,0,0,1-.059.254c-.01.023-.022.046-.033.069A2.252,2.252,0,0,0,662.244,194.414Zm-.5.975c-.064.086-.1.173-.177.26l-.017.017-.015.016C661.619,195.584,661.669,195.487,661.742,195.389Zm-1,1.028c-.066.054-.113.109-.183.164l-.035.028C660.61,196.545,660.672,196.481,660.746,196.417Zm-14.253-11.192a2.62,2.62,0,0,1-.061.284.273.273,0,0,1-.009.039c0,.013-.012.027-.019.041s-.016.033-.023.049-.016.021-.021.032A2.811,2.811,0,0,0,646.493,185.225Zm-.364,19.845c.072-.051.144-.1.213-.153-.024.017-.039.035-.063.053s-.04.035-.064.052c-.05.036-.117.072-.168.107C646.075,205.11,646.1,205.09,646.129,205.07Zm-.346-18.52c.065-.08.111-.161.168-.241-.07.1-.108.2-.19.3-.019.023-.045.046-.065.069l0,0A1.269,1.269,0,0,0,645.783,186.55Zm-.875.884c-.07.061-.121.123-.2.185l-.063.051C644.747,187.591,644.818,187.512,644.908,187.434ZM618.682,192.8l-.02.014c-.132.084-.268.168-.38.249C618.4,192.982,618.54,192.894,618.682,192.8Zm-.634.451c-.017.014-.03.027-.046.041l-.005,0-.011.009h0Zm-.318.283c.024-.025.052-.051.078-.077l-.012.013-.035.037-.011.01-.02.017Zm-.686-25.158c.015-.046.027-.092.041-.138-.03.1-.029.205-.067.307l0,.017c-.012.031-.029.062-.043.093l-.01.015-.01.016A1.681,1.681,0,0,0,617.044,168.381Zm-.5.946c-.071.1-.11.2-.192.3-.02.025-.048.049-.069.073A4.508,4.508,0,0,0,616.544,169.327Zm-1.044,1.126c-.07.062-.12.123-.2.184l-.063.051C615.339,170.61,615.41,170.532,615.5,170.453Zm-32.434,9.3c.012.011.022.023.034.035l-.035-.035Z"/><path class="h" d="M586.456,190.4c.382.15.768.282,1.158.393.1.029.2.049.3.075l.229.056c.119.029.237.063.357.088q.385.079.775.135c.128.018.257.029.385.043l.14.016c.067.007.133.017.2.023q.359.028.72.038t.754,0h.018q.418-.015.84-.057c.256-.025.512-.067.768-.108.068-.011.136-.017.2-.029.033,0,.067-.008.1-.014.2-.036.4-.1.6-.15.385-.087.769-.171,1.153-.291.043-.014.086-.019.129-.033.331-.107.66-.25.99-.382.189-.076.38-.136.569-.22.265-.118.526-.264.79-.4l-.02,7.036,4.3,2.485,9.445-5.49a2.544,2.544,0,0,0-.07,1.157,2.51,2.51,0,0,1-.084-.442l-.025,8.553c0,1.275.974,2.52,2.962,3.667a12.81,12.81,0,0,0,1.67.808c.016.007.032.017.048.024q.573.226,1.158.393c.1.029.2.049.3.075l.233.057c.119.028.236.063.355.087q.386.081.775.136c.127.018.255.028.383.042l.144.017c.066.006.132.016.2.022q.359.03.72.039t.755,0h.012c.281-.01.563-.028.845-.056.258-.026.515-.068.773-.109.066-.011.132-.016.2-.028.034-.006.068-.008.1-.014.2-.037.4-.107.6-.153.127-.029.254-.057.381-.09l-.012,3.938,4.3,2.485,4.7-2.734-.015,5.441,4.388,2.534a4.127,4.127,0,0,1,.432-.488c.046-.047.084-.1.133-.144.074-.069.166-.134.247-.2.154-.13.308-.26.486-.387.115-.082.247-.165.372-.247.171-.113.339-.226.53-.342.265-.162.539-.325.842-.5l4.442-2.582c.126-.073.248-.145.368-.218q.636-.385,1.165-.767c.024-.017.041-.034.065-.052a9.855,9.855,0,0,0,.855-.691c.056-.052.094-.1.146-.156.072-.071.134-.141.2-.212.089-.1.2-.193.272-.29a3.624,3.624,0,0,0,.314-.465c.016-.028.025-.055.039-.083s.019-.041.029-.061c.038-.078.081-.156.11-.234a2.192,2.192,0,0,0,.1-.344,2.028,2.028,0,0,0,.039-.33v-.05l0-1.2.138.023c.21.03.421.053.631.071s.409.027.613.032c.1,0,.2,0,.3,0h.092c.081,0,.163,0,.245,0q.352-.012.7-.048.441-.044.885-.124c.055-.01.111-.031.167-.042.138-.027.278-.072.417-.1.325-.076.648-.14.974-.245.2-.063.4-.157.6-.232.178-.066.356-.132.535-.207a16.641,16.641,0,0,0,1.961-.963l2.263-1.315c.093-.054.185-.108.274-.162.432-.261.812-.519,1.157-.776.083-.061.148-.122.225-.183.186-.146.383-.293.54-.438.1-.092.169-.184.257-.275.07-.073.142-.146.2-.218.047-.055.111-.11.154-.164a3.805,3.805,0,0,0,.327-.483c.034-.06.056-.12.085-.18l.039-.084c.02-.046.048-.092.065-.138a2.319,2.319,0,0,0,.106-.368,2.062,2.062,0,0,0,.041-.357v-.053l.024-8.553c0,.016-.011.033-.011.049.033-1.223-1.008-2.444-3.2-3.712l-6.5-3.752-6.032,3.506.015-5.409c0,.038-.023.076-.025.115.064-1.315-.89-2.6-2.937-3.782a12.554,12.554,0,0,0-8.4-1.527l.008-2.93L622,168.7l-4.126,2.4-.015,5.209-.743.432c.015-.056.037-.111.048-.166a2.568,2.568,0,0,0,.049-.433v-.064l.025-8.554c0,.038-.023.077-.025.115.064-1.315-.89-2.6-2.937-3.781a12.671,12.671,0,0,0-9.655-1.258l.011-3.925-6-3.462-6.114,2.667.018-6.186-6-3.462L557.7,165l-.024,8.553,3.768,2.176,3.21-1.865-.011,3.712,4.07,2.349,2.989-1.3-.008,3.022,4.069,2.35,6.019-3.5-.015,5.388c0,1.277.978,2.525,2.976,3.679a13,13,0,0,0,1.669.808C586.424,190.38,586.44,190.39,586.456,190.4Zm59.759,14.625c-.05.036-.117.072-.168.107.1-.07.2-.141.295-.212-.024.017-.039.035-.063.053S646.239,205.005,646.215,205.022Zm-28.893-10.758,0,.026Zm1.341-1.445c-.154.1-.317.2-.443.29.132-.1.3-.2.463-.3ZM618,193.3l-.013.01.066-.057Zm-.236.212a.406.406,0,0,0-.031.027c.024-.026.052-.052.078-.078C617.791,193.479,617.777,193.5,617.761,193.513Zm-.31.389h0Zm24.51,6.191c.057.044.1.088.146.133C642.057,200.181,642.018,200.137,641.961,200.093Zm.662.811a1.049,1.049,0,0,1,.037.172A1.049,1.049,0,0,0,642.623,200.9Zm-.238-.408a1.6,1.6,0,0,1,.1.157A1.6,1.6,0,0,0,642.385,200.5Zm3.376-13.889c-.02.024-.048.049-.068.073.106-.124.171-.248.259-.372C645.881,186.408,645.843,186.507,645.761,186.607Zm-1.049,1.012-.065.052c.1-.08.172-.16.265-.24C644.84,187.493,644.788,187.556,644.712,187.619Zm-56.807-10.341,0,.028Zm.123-.356.005-.01Zm28.324-7.295c-.02.025-.048.049-.069.074.107-.125.173-.25.261-.374C616.473,169.427,616.435,169.527,616.352,169.627Zm-1.047,1.01-.065.053c.1-.08.173-.161.266-.242C615.434,170.511,615.382,170.574,615.3,170.637Zm-3.4,25.508a5.753,5.753,0,0,0,.616.63A5.665,5.665,0,0,1,611.908,196.145Zm-.534-.963a3.287,3.287,0,0,0,.307.581A3.353,3.353,0,0,1,611.374,195.182Zm1.465,1.9a10.137,10.137,0,0,0,1.332.907A10.137,10.137,0,0,1,612.839,197.084Zm47.725-.5-.038.031c.091-.071.156-.141.24-.212C660.694,196.46,660.641,196.519,660.564,196.58Zm1.6-1.842c-.01.023-.022.047-.033.07a2.252,2.252,0,0,0,.108-.394A2.233,2.233,0,0,1,662.169,194.738Zm-.424.647c-.065.088-.1.175-.18.263-.01.012-.023.024-.033.035C661.62,195.583,661.671,195.485,661.745,195.385Zm-5.855-1.768a.913.913,0,0,0-.215-.521A.915.915,0,0,1,655.89,193.617Zm-.3-.605a2.776,2.776,0,0,0-.672-.523A2.776,2.776,0,0,1,655.594,193.012Zm-9.171-7.464c-.012.03-.029.06-.042.09-.005.011-.016.021-.021.032a2.908,2.908,0,0,0,.134-.446A2.94,2.94,0,0,1,646.423,185.548Zm-5.894-1.161a.966.966,0,0,0-.228-.56A.966.966,0,0,1,640.529,184.387Zm-.284-.616a2.749,2.749,0,0,0-.683-.536A2.749,2.749,0,0,1,640.245,183.771Zm-23.231-15.2c-.013.03-.029.061-.043.092-.005.01-.015.021-.02.031a2.964,2.964,0,0,0,.134-.448A2.734,2.734,0,0,1,617.014,168.568Zm-5.9-1.161a.967.967,0,0,0-.228-.564A.967.967,0,0,1,611.113,167.407Zm-.279-.615a2.683,2.683,0,0,0-.681-.536A2.705,2.705,0,0,1,610.834,166.792Zm-27.768,12.957c.012.011.022.023.034.035l-.035-.035Zm.359.353a10.341,10.341,0,0,0,1.337.91A10.341,10.341,0,0,1,583.425,180.1Z"/><g class="b"><path class="i" d="M581.863,155.32l-.024,8.553-20.4,11.855.024-8.553Z"/><path class="j" d="M592.543,151.694l-.024,8.553L575.2,173.978l.024-8.553Z"/><path class="k" d="M561.463,167.175l-.024,8.553-3.768-2.176L557.7,165Z"/><path class="k" d="M568.732,171.371l-.024,8.553-4.07-2.35.024-8.553Z"/><path class="l" d="M592.412,161.064l-.024,8.553-23.68,10.308.024-8.553Z"/><path class="m" d="M604.635,158.675l-28.852,16.767-4.07-2.35,20.7-12.029-23.68,10.308-4.07-2.35,17.2-13.7-20.4,11.855L557.7,165l28.852-16.767,6,3.462-17.317,13.731,23.413-10.211Z"/><path class="k" d="M575.783,175.442,575.758,184l-4.07-2.35.024-8.553Z"/><path class="i" d="M604.635,158.675l-.024,8.553L575.758,184l.024-8.553Z"/></g><g class="b"><g class="b"><g class="n"><g class="b"><path class="o" d="M611.134,167.459l-.024,8.553c0-.443-.355-.841-.981-1.2a4.465,4.465,0,0,0-.6-.288l.024-8.553a4.46,4.46,0,0,1,.6.288c.626.362.982.76.981,1.2"/><path class="p" d="M609.558,165.968l-.024,8.553c-.124-.049-.251-.092-.379-.129l.024-8.553c.129.037.255.08.379.129"/><path class="q" d="M609.179,165.839l-.024,8.553c-.1-.027-.192-.051-.289-.072l.024-8.553c.1.021.194.044.289.072"/><path class="r" d="M608.89,165.767l-.024,8.553c-.083-.017-.167-.031-.251-.043l.024-8.553c.085.012.168.026.251.043"/><path class="s" d="M608.639,165.724l-.024,8.553c-.078-.011-.156-.02-.235-.027l.024-8.553c.079.007.158.016.235.027"/><path class="t" d="M608.4,165.7l-.024,8.553c-.078-.006-.157-.01-.236-.012l.024-8.553c.079,0,.158.006.236.012"/><path class="u" d="M608.168,165.685l-.024,8.553c-.083,0-.167,0-.252,0l.025-8.553c.084,0,.168,0,.251,0"/><path class="v" d="M607.917,165.686l-.025,8.553c-.094,0-.19.01-.286.019l.024-8.553c.1-.01.192-.016.287-.019"/><path class="w" d="M607.63,165.705l-.024,8.553q-.187.02-.381.054l.024-8.553c.129-.024.256-.041.381-.054"/><path class="x" d="M607.249,165.759l-.024,8.553a5.511,5.511,0,0,0-.694.175l.024-8.553a5.509,5.509,0,0,1,.694-.175"/><path class="y" d="M606.555,165.934l-.024,8.553a7.625,7.625,0,0,0-1.492.68l.024-8.553a7.652,7.652,0,0,1,1.492-.68"/></g></g></g><g class="b"><g class="z"><g class="b"><path class="r" d="M617.241,167.525l-.025,8.553v.064l.025-8.553v-.064"/><path class="s" d="M617.24,167.589l-.025,8.553a2.568,2.568,0,0,1-.049.433l.024-8.553a2.564,2.564,0,0,0,.05-.433"/><path class="t" d="M617.19,168.022l-.024,8.553a2.893,2.893,0,0,1-.129.447l.024-8.553a2.924,2.924,0,0,0,.129-.447"/><path class="u" d="M617.061,168.469l-.024,8.553a3.47,3.47,0,0,1-.229.485l.025-8.553a3.581,3.581,0,0,0,.228-.485"/><path class="v" d="M616.833,168.954l-.025,8.553a4.506,4.506,0,0,1-.39.577l.025-8.554a4.642,4.642,0,0,0,.39-.576"/><path class="w" d="M616.443,169.53l-.025,8.554a6.626,6.626,0,0,1-.7.751l.025-8.553a6.629,6.629,0,0,0,.7-.752"/><path class="x" d="M615.74,170.282l-.025,8.553a11.907,11.907,0,0,1-1.938,1.418l.024-8.553a11.921,11.921,0,0,0,1.939-1.418"/><path class="y" d="M613.8,171.7l-.024,8.553c-.08.049-.162.1-.245.145l.024-8.553c.083-.048.165-.1.245-.145"/></g></g></g><path class="i" d="M605.063,166.614l-.024,8.553-15.574,9.051.024-8.553Z"/><g class="b"><g class="aa"><g class="b"><path class="y" d="M589.489,175.664l-.024,8.554c-.045.025-.088.051-.131.077l.025-8.553.13-.078"/><path class="x" d="M589.359,175.742l-.025,8.553a5.509,5.509,0,0,0-.9.651l.024-8.553a5.519,5.519,0,0,1,.9-.651"/><path class="w" d="M588.461,176.393l-.024,8.553a2.566,2.566,0,0,0-.282.3l.024-8.554a2.56,2.56,0,0,1,.282-.3"/><path class="v" d="M588.179,176.694l-.024,8.554a1.663,1.663,0,0,0-.143.21l.024-8.554a1.773,1.773,0,0,1,.143-.21"/><path class="u" d="M588.036,176.9l-.024,8.554a1.289,1.289,0,0,0-.082.173l.025-8.553a1.221,1.221,0,0,1,.081-.174"/><path class="t" d="M587.955,177.078l-.025,8.553a1.048,1.048,0,0,0-.044.153l.024-8.553a.911.911,0,0,1,.045-.153"/><path class="s" d="M587.91,177.231l-.024,8.553a.815.815,0,0,0-.017.146l.024-8.553a.928.928,0,0,1,.017-.146"/><path class="r" d="M587.893,177.377l-.024,8.553v.021l.024-8.553v-.021"/></g></g></g><path class="i" d="M613.556,171.845l-.024,8.553-15.008,8.722.024-8.553Z"/><path class="m" d="M614.279,163.858c4.221,2.437,3.886,5.308-.723,7.987l-15.008,8.722c-4.609,2.678-9.566,2.881-13.786.445-4.237-2.447-3.9-5.319.706-8l15.008-8.722C605.085,161.615,610.042,161.412,614.279,163.858Zm-20.318,14.388,15.574-9.051c2.063-1.2,1.974-2.156.618-2.939-1.373-.793-3.026-.841-5.09.358l-15.574,9.05c-2.063,1.2-1.974,2.157-.6,2.95,1.357.783,3.01.831,5.073-.368"/><g class="b"><g class="ab"><g class="b"><path class="y" d="M598.548,180.567l-.024,8.553a16.636,16.636,0,0,1-3.238,1.458l.024-8.553a16.7,16.7,0,0,0,3.238-1.458"/><path class="x" d="M595.31,182.025l-.024,8.553a14.307,14.307,0,0,1-1.878.474l.025-8.553a14.447,14.447,0,0,0,1.877-.474"/><path class="w" d="M593.433,182.5l-.025,8.553q-.537.1-1.073.151l.024-8.553c.358-.036.715-.086,1.074-.151"/><path class="v" d="M592.359,182.65l-.024,8.553q-.429.043-.858.058l.025-8.553q.427-.015.857-.058"/><path class="u" d="M591.5,182.708l-.025,8.553q-.378.012-.754,0l.024-8.553q.376.009.755,0"/><path class="t" d="M590.747,182.711l-.024,8.553q-.362-.009-.72-.038l.024-8.554q.359.03.72.039"/><path class="s" d="M590.027,182.672,590,191.226c-.243-.02-.485-.048-.726-.082l.024-8.553q.361.051.726.081"/><path class="r" d="M589.3,182.591l-.024,8.553q-.39-.056-.775-.135l.024-8.553q.386.08.775.135"/><path class="q" d="M588.526,182.456l-.024,8.553q-.447-.093-.888-.219l.024-8.553q.441.126.888.219"/><path class="p" d="M587.638,182.237l-.024,8.553c-.39-.111-.776-.243-1.158-.393l.024-8.554q.573.227,1.158.394"/><path class="o" d="M586.48,181.843l-.024,8.554a13.113,13.113,0,0,1-1.719-.832c-2-1.154-2.979-2.4-2.975-3.679l.024-8.554c0,1.278.978,2.526,2.976,3.68a13.032,13.032,0,0,0,1.718.831"/></g></g></g></g><g class="b"><path class="k" d="M622.364,173.692l-.024,8.553-4.489-2.591.024-8.553Z"/><path class="i" d="M635.3,176.38l-.024,8.553-4.127,2.4.024-8.553Z"/><path class="k" d="M631.173,178.778l-.024,8.553-4.505-2.6.024-8.553Z"/><path class="m" d="M635.3,176.38l-4.127,2.4-4.505-2.6-24.725,14.369-4.3-2.485,24.725-14.369-4.489-2.591L622,168.7Z"/><path class="i" d="M626.668,176.177l-.024,8.553L601.919,199.1l.024-8.553Z"/><path class="k" d="M601.943,190.546l-.024,8.553-4.3-2.485.024-8.553Z"/></g><g class="b"><g class="b"><g class="ac"><g class="b"><path class="o" d="M640.55,184.439l-.024,8.553c0-.44-.355-.838-.988-1.2a4.543,4.543,0,0,0-.592-.287l.024-8.553a4.42,4.42,0,0,1,.592.287c.633.366.989.764.988,1.2"/><path class="p" d="M638.97,182.948l-.024,8.553c-.123-.048-.248-.091-.376-.127l.025-8.553c.127.036.252.079.375.127"/><path class="q" d="M638.595,182.821l-.025,8.553c-.094-.027-.189-.051-.285-.071l.024-8.553c.1.02.191.044.286.071"/><path class="r" d="M638.309,182.75l-.024,8.553c-.082-.017-.165-.031-.248-.043l.024-8.553c.084.012.166.026.248.043"/><path class="s" d="M638.061,182.707l-.024,8.553c-.077-.011-.154-.02-.232-.026l.024-8.553c.078.006.156.015.232.026"/><path class="t" d="M637.829,182.681l-.024,8.553c-.077-.006-.155-.011-.234-.013l.024-8.553c.079,0,.157.006.234.013"/><path class="u" d="M637.595,182.668l-.024,8.553c-.082,0-.165,0-.249,0l.025-8.554c.083,0,.166,0,.248,0"/><path class="v" d="M637.347,182.669l-.025,8.554c-.093,0-.188.009-.284.019l.024-8.553c.1-.01.191-.016.285-.02"/><path class="w" d="M637.062,182.689l-.024,8.553c-.123.012-.249.03-.376.053l.024-8.553c.128-.023.253-.041.376-.053"/><path class="x" d="M636.686,182.742l-.024,8.553a5.41,5.41,0,0,0-.7.176l.024-8.553a5.407,5.407,0,0,1,.695-.176"/><path class="y" d="M635.991,182.918l-.024,8.553a7.717,7.717,0,0,0-1.5.685l.024-8.553a7.662,7.662,0,0,1,1.5-.685"/></g></g></g><g class="b"><g class="ad"><g class="b"><path class="r" d="M646.65,184.5l-.024,8.553v.065l.024-8.554V184.5"/><path class="s" d="M646.649,184.568l-.024,8.554a2.57,2.57,0,0,1-.05.433L646.6,185a2.552,2.552,0,0,0,.05-.433"/><path class="t" d="M646.6,185l-.024,8.554a2.913,2.913,0,0,1-.129.446l.024-8.553A2.893,2.893,0,0,0,646.6,185"/><path class="u" d="M646.47,185.448,646.446,194a3.473,3.473,0,0,1-.228.485l.024-8.553a3.527,3.527,0,0,0,.228-.485"/><path class="v" d="M646.242,185.933l-.024,8.553a4.485,4.485,0,0,1-.391.577l.025-8.553a4.651,4.651,0,0,0,.39-.577"/><path class="w" d="M645.852,186.51l-.025,8.553a6.53,6.53,0,0,1-.7.752l.024-8.553a6.624,6.624,0,0,0,.7-.752"/><path class="x" d="M645.149,187.262l-.024,8.553a11.978,11.978,0,0,1-1.939,1.418l.024-8.554a11.919,11.919,0,0,0,1.939-1.417"/><path class="y" d="M643.21,188.679l-.024,8.554c-.08.048-.162.1-.245.144l.025-8.553c.083-.048.164-.1.244-.145"/></g></g></g><path class="i" d="M634.489,183.6l-.024,8.553-15.574,9.051.024-8.553Z"/><g class="b"><g class="ae"><g class="b"><path class="y" d="M618.915,192.653l-.024,8.554c-.046.026-.09.052-.134.079l.025-8.554.133-.079"/><path class="x" d="M618.782,192.732l-.025,8.554a5.623,5.623,0,0,0-.905.656l.024-8.553a5.653,5.653,0,0,1,.906-.657"/><path class="w" d="M617.876,193.389l-.024,8.553a2.649,2.649,0,0,0-.282.3l.024-8.553a2.653,2.653,0,0,1,.282-.3"/><path class="v" d="M617.594,193.69l-.024,8.553a1.65,1.65,0,0,0-.142.21l.024-8.553a1.656,1.656,0,0,1,.142-.21"/><path class="u" d="M617.452,193.9l-.024,8.553a1.276,1.276,0,0,0-.082.172l.025-8.553a1.16,1.16,0,0,1,.081-.172"/><path class="t" d="M617.371,194.072l-.025,8.553a1,1,0,0,0-.044.152l.024-8.553a1.008,1.008,0,0,1,.045-.152"/><path class="s" d="M617.326,194.224l-.024,8.553a.791.791,0,0,0-.016.144l.024-8.553a.882.882,0,0,1,.016-.144"/><path class="r" d="M617.31,194.368l-.024,8.553v.021l.025-8.553v-.021"/></g></g></g><path class="i" d="M642.966,188.824l-.024,8.553L627.933,206.1l.024-8.553Z"/><path class="m" d="M643.688,180.837c4.221,2.437,3.887,5.309-.722,7.987l-15.009,8.722c-4.609,2.679-9.566,2.882-13.786.445s-3.886-5.309.723-7.987l15.008-8.722C634.511,178.6,639.468,178.4,643.688,180.837ZM623.37,195.226l15.574-9.051c2.063-1.2,1.991-2.147.618-2.94s-3.009-.831-5.073.368l-15.574,9.05c-2.063,1.2-1.991,2.147-.617,2.94s3.009.831,5.072-.367"/><g class="b"><g class="af"><g class="b"><path class="y" d="M627.957,197.546l-.024,8.553a16.7,16.7,0,0,1-3.238,1.459L624.72,199a16.654,16.654,0,0,0,3.237-1.458"/><path class="x" d="M624.72,199l-.025,8.554a14.617,14.617,0,0,1-1.877.474l.024-8.553A14.469,14.469,0,0,0,624.72,199"/><path class="w" d="M622.842,199.479l-.024,8.553c-.359.065-.716.115-1.074.151l.025-8.553q.535-.054,1.073-.151"/><path class="v" d="M621.769,199.63l-.025,8.553q-.429.042-.857.057l.024-8.553q.427-.015.858-.057"/><path class="u" d="M620.911,199.687l-.024,8.553q-.378.013-.755,0l.025-8.553c.25.006.5.005.754,0"/><path class="t" d="M620.157,199.691l-.025,8.553q-.362-.009-.72-.039l.024-8.553c.239.02.48.032.721.039"/><path class="s" d="M619.436,199.652l-.024,8.553q-.364-.03-.726-.081l.024-8.553q.361.051.726.081"/><path class="r" d="M618.71,199.571l-.024,8.553q-.39-.055-.775-.136l.024-8.553c.257.054.516.1.775.136"/><path class="q" d="M617.935,199.435l-.024,8.553q-.447-.092-.888-.218l.024-8.554q.441.126.888.219"/><path class="p" d="M617.047,199.216l-.024,8.554q-.585-.168-1.158-.394l.025-8.553a12.214,12.214,0,0,0,1.157.393"/><path class="o" d="M615.89,198.823l-.025,8.553a12.918,12.918,0,0,1-1.718-.832c-1.988-1.147-2.965-2.392-2.962-3.666l.025-8.554c0,1.275.973,2.519,2.961,3.667a12.924,12.924,0,0,0,1.719.832"/></g></g></g></g><g class="b"><path class="k" d="M654.922,192.489l-.024,8.553-2.077-1.2.024-8.553Z"/><g class="b"><g class="ag"><g class="b"><path class="o" d="M655.909,193.664l-.024,8.554c0-.412-.33-.8-.987-1.176l.024-8.553c.657.379.988.764.987,1.175"/></g></g></g><path class="i" d="M652.845,191.29l-.024,8.553-8.852,5.144.024-8.553Z"/><g class="b"><g class="ah"><g class="b"><path class="r" d="M662.382,193.822l-.024,8.553v.053l.024-8.553v-.053"/><path class="s" d="M662.381,193.875l-.024,8.553a2.062,2.062,0,0,1-.041.357l.024-8.553a2.067,2.067,0,0,0,.041-.357"/><path class="t" d="M662.34,194.232l-.024,8.553a2.319,2.319,0,0,1-.106.368l.024-8.553a2.319,2.319,0,0,0,.106-.368"/><path class="u" d="M662.234,194.6l-.024,8.553a2.8,2.8,0,0,1-.189.4l.024-8.553a2.8,2.8,0,0,0,.189-.4"/><path class="v" d="M662.045,195l-.024,8.553a3.805,3.805,0,0,1-.327.483l.024-8.553a3.96,3.96,0,0,0,.327-.483"/><path class="w" d="M661.718,195.485l-.024,8.553a5.763,5.763,0,0,1-.615.657l.024-8.553a5.768,5.768,0,0,0,.615-.657"/><path class="x" d="M661.1,196.142l-.024,8.553a11.927,11.927,0,0,1-1.922,1.4l.024-8.553a11.888,11.888,0,0,0,1.922-1.4"/><path class="y" d="M659.181,197.539l-.024,8.553c-.089.054-.181.108-.274.162l.025-8.553q.139-.081.273-.162"/></g></g></g><path class="i" d="M658.908,197.7l-.024,8.553-2.263,1.315.024-8.553Z"/><path class="k" d="M641.357,199.693l-.024,8.553-1.491-.861.024-8.553Z"/><g class="b"><g class="ai"><g class="b"><path class="o" d="M642.691,201.221l-.024,8.553c0-.53-.458-1.022-1.334-1.528l.024-8.553c.877.506,1.336,1,1.334,1.528"/></g></g></g><g class="b"><g class="aj"><g class="b"><path class="y" d="M656.645,199.016l-.025,8.553a15.708,15.708,0,0,1-3.095,1.4l.025-8.553a15.735,15.735,0,0,0,3.1-1.4"/><path class="x" d="M653.55,200.418l-.025,8.553a12.124,12.124,0,0,1-1.558.392l.024-8.553a12.18,12.18,0,0,0,1.559-.392"/><path class="w" d="M651.991,200.81l-.024,8.553q-.444.081-.885.124l.024-8.553c.295-.029.59-.071.885-.124"/><path class="v" d="M651.106,200.934l-.024,8.553q-.352.036-.7.048l.024-8.554c.235-.008.47-.023.705-.047"/><path class="u" d="M650.4,200.981l-.024,8.554q-.316.011-.634,0l.025-8.554q.316.009.633,0"/><path class="t" d="M649.768,200.984l-.025,8.554q-.306-.009-.613-.033l.024-8.554c.205.017.409.028.614.033"/><path class="s" d="M649.154,200.951l-.024,8.554c-.21-.018-.421-.041-.632-.071l.025-8.553c.21.029.421.053.631.07"/><path class="r" d="M648.523,200.881l-.025,8.553q-.282-.041-.565-.1l.024-8.554c.189.037.377.069.566.1"/></g></g></g><path class="k" d="M628.12,205.659l-.024,8.553-4.3-2.485.024-8.553Z"/><path class="i" d="M639.867,198.832l-.024,8.553L628.1,214.212l.024-8.553Z"/><g class="b"><g class="ak"><g class="b"><path class="r" d="M648.382,202.054l-.025,8.553v.05l.024-8.553v-.05"/><path class="s" d="M648.381,202.1l-.024,8.553a1.926,1.926,0,0,1-.039.33l.025-8.553a1.954,1.954,0,0,0,.038-.33"/><path class="t" d="M648.343,202.434l-.025,8.553a2.192,2.192,0,0,1-.1.344l.024-8.553a2.229,2.229,0,0,0,.1-.344"/><path class="u" d="M648.243,202.778l-.024,8.553a2.684,2.684,0,0,1-.178.378l.025-8.554a2.608,2.608,0,0,0,.177-.377"/><path class="v" d="M648.066,203.155l-.025,8.554a3.634,3.634,0,0,1-.315.465l.025-8.553a3.668,3.668,0,0,0,.315-.466"/><path class="w" d="M647.751,203.621l-.025,8.553a5.627,5.627,0,0,1-.616.658l.024-8.553a5.636,5.636,0,0,0,.617-.658"/><path class="x" d="M647.134,204.279l-.024,8.553a13.058,13.058,0,0,1-2.085,1.51l.024-8.553a13.011,13.011,0,0,0,2.085-1.51"/><path class="y" d="M645.049,205.789l-.024,8.553c-.12.073-.242.145-.368.218l.025-8.553c.125-.073.247-.145.367-.218"/></g></g></g><path class="i" d="M644.682,206.007l-.024,8.553-4.443,2.582.024-8.553Z"/><path class="m" d="M640.239,208.589A9.448,9.448,0,0,0,637.2,210.9l-4.388-2.534c.514-.57.813-.918,3.159-2.282l4.526-2.63c2.7-1.566,2.823-2.63.863-3.761l-1.49-.861-11.747,6.827-4.3-2.485,28.852-16.767,6.5,3.752c4.455,2.572,4.2,4.95-.258,7.542l-2.263,1.315a12.2,12.2,0,0,1-8.688,1.769c1.213,1.8-.264,3.472-3.275,5.222Zm11.07-11.459,2.845-1.653c2.063-1.2,2.292-2.108.768-2.988l-2.077-1.2-8.852,5.144,1.675.967c1.608.928,3.328,1.073,5.641-.271"/><path class="k" d="M637.2,210.9l-.024,8.553-4.388-2.533.024-8.553Z"/><g class="b"><g class="al"><g class="b"><path class="y" d="M640.239,208.589l-.024,8.553c-.272.158-.528.308-.77.454l.025-8.553c.241-.146.5-.3.769-.454"/><path class="x" d="M639.47,209.043l-.025,8.553a10.431,10.431,0,0,0-1.686,1.2l.024-8.553a10.4,10.4,0,0,1,1.687-1.2"/><path class="w" d="M637.783,210.246l-.024,8.553a4.6,4.6,0,0,0-.492.529l.024-8.553a4.511,4.511,0,0,1,.492-.529"/><path class="v" d="M637.291,210.775l-.024,8.553c-.032.041-.064.083-.094.125l.024-8.553c.031-.043.062-.084.094-.125"/></g></g></g></g></g></g></svg>