<svg xmlns="http://www.w3.org/2000/svg" xmlns:xlink="http://www.w3.org/1999/xlink" width="208.521" height="268.882" viewBox="0 0 208.521 268.882"><defs><style>.a,.h{fill:none;}.b{isolation:isolate;}.c{fill:#521168;}.d{fill:#b0b2b2;}.e{fill:#2d2d2c;}.f{fill:#6e7072;}.g,.z{fill:#4a0e5c;}.g{stroke:#fff;stroke-width:9.531px;}.g,.h{stroke-linejoin:round;}.h{stroke:#490c5a;stroke-width:4.765px;}.i{clip-path:url(#a);}.j{fill:#490c5a;}.k{fill:#4b0e5c;}.l{fill:#4d115f;}.m{fill:#4f1361;}.n{fill:#511463;}.o{fill:#531666;}.p{fill:#551868;}.q{fill:#571a6a;}.r{fill:#591c6d;}.s{fill:#5b1d70;}.t{fill:#5d1f72;}.u{clip-path:url(#b);}.v{fill:#622378;}.w{clip-path:url(#c);}.x{clip-path:url(#d);}.y{fill:#fff;}.aa{fill:#602176;}.ab{clip-path:url(#e);}.ac{clip-path:url(#f);}.ad{clip-path:url(#g);}.ae{clip-path:url(#h);}.af{clip-path:url(#i);}.ag{clip-path:url(#j);}.ah{clip-path:url(#k);}.ai{clip-path:url(#l);}.aj{clip-path:url(#m);}.ak{clip-path:url(#n);}</style><clipPath id="a"><path class="a" d="M393.427,346.466l-.026,8.969c0-.495-.408-.947-1.127-1.362-1.528-.882-3.314-.963-5.477.294l.025-8.969c2.164-1.257,3.95-1.176,5.478-.294C393.018,345.519,393.428,345.971,393.427,346.466Z"/></clipPath><clipPath id="b"><path class="a" d="M400.023,346.733,400,355.7c0,1.5-1.267,3.021-3.751,4.465l.025-8.969C398.756,349.754,400.019,348.236,400.023,346.733Z"/></clipPath><clipPath id="c"><path class="a" d="M368.834,365.656l.025-8.969c0-.545.5-1.141,1.632-1.8l-.025,8.969C369.335,364.515,368.835,365.111,368.834,365.656Z"/></clipPath><clipPath id="d"><path class="a" d="M362.237,365.389l.026-8.969c0,1.424,1.122,2.835,3.412,4.157a14.389,14.389,0,0,0,14.86-.233l-.026,8.968a14.387,14.387,0,0,1-14.86.234C363.359,368.224,362.233,366.813,362.237,365.389Z"/></clipPath><clipPath id="e"><path class="a" d="M461.535,386.16l-.026,8.968c0-.46-.378-.9-1.128-1.329l.025-8.969C461.157,385.263,461.536,385.7,461.535,386.16Z"/></clipPath><clipPath id="f"><path class="a" d="M468.54,386.515l-.026,8.968c0,1.337-1.213,2.655-3.55,4.014l.025-8.969C467.327,389.17,468.536,387.852,468.54,386.515Z"/></clipPath><clipPath id="g"><path class="a" d="M447.673,394.089l-.026,8.969c0-.591-.522-1.147-1.525-1.726l.025-8.969C447.151,392.943,447.674,393.5,447.673,394.089Z"/></clipPath><clipPath id="h"><path class="a" d="M462.616,391.907l-.025,8.969a12.732,12.732,0,0,1-9.268,1.764l.026-8.969A12.729,12.729,0,0,0,462.616,391.907Z"/></clipPath><clipPath id="i"><path class="a" d="M453.872,395.144l-.026,8.969c0,1.4-1.433,2.738-3.782,4.1l.025-8.969C452.439,397.883,453.868,396.545,453.872,395.144Z"/></clipPath><clipPath id="j"><path class="a" d="M445.431,401.955l-.026,8.969a9.555,9.555,0,0,0-3.172,2.433l.026-8.968A9.543,9.543,0,0,1,445.431,401.955Z"/></clipPath><clipPath id="k"><path class="a" d="M496.812,406.156l-.025,8.969c0-.495-.408-.947-1.127-1.362-1.528-.882-3.3-.953-5.46.3l.025-8.969c2.164-1.257,3.932-1.186,5.46-.3C496.4,405.209,496.814,405.661,496.812,406.156Z"/></clipPath><clipPath id="l"><path class="a" d="M503.217,406.253l-.025,8.968c0,1.5-1.306,3.021-3.823,4.483l.025-8.968C501.912,409.273,503.213,407.755,503.217,406.253Z"/></clipPath><clipPath id="m"><path class="a" d="M472.255,425.32l.026-8.969c0-.531.493-1.111,1.613-1.762l-.025,8.968C472.749,424.209,472.257,424.789,472.255,425.32Z"/></clipPath><clipPath id="n"><path class="a" d="M465.556,425.1l.025-8.968c0,1.384,1.09,2.755,3.339,4.054,4.706,2.717,9.9,2.5,14.737-.3l-.026,8.969c-4.833,2.809-10.03,3.022-14.737.3C466.645,427.856,465.552,426.485,465.556,425.1Z"/></clipPath></defs><g transform="translate(-847.155 -1523.032)"><g transform="translate(847.838 1584.479)"><g class="b"><path class="c" d="M115.465,17.616l-7.093-4.095L5.974,73.448c-8.918,5.183-8.871,13.617.106,18.8l123.892,70.781,7.047-4.1L13.127,88.152c-5.063-2.923-5.1-7.682-.059-10.609l102.4-59.927"/></g></g><g transform="translate(865.377 1480)"><g transform="translate(0 43.032)"><g class="b"><g transform="translate(0.045)"><path class="d" d="M75.562,20.135c10.427-6.114,27.514-6.156,38.1-.1l68.623,39.287c10.583,6.059,10.71,15.956.288,22.065l-67.775,39.724c-10.427,6.114-27.514,6.156-38.1.1L8.075,81.923C-2.509,75.865-2.636,65.968,7.786,59.858Zm103.5,41.08L110.435,21.927c-8.787-5.029-22.976-4.974-31.6.08L11.061,61.731C2.406,66.8,2.512,75,11.3,80.034l68.623,39.287c8.757,5.012,22.946,4.991,31.6-.08L179.3,79.517c8.622-5.054,8.516-13.291-.241-18.3" transform="translate(-0.053 -15.521)"/></g><g transform="translate(4.631 2.664)"><path class="e" d="M75.333,19.972c8.622-5.054,22.811-5.11,31.6-.08l68.623,39.287c8.757,5.012,8.863,13.248.241,18.3L108.02,117.205c-8.656,5.071-22.845,5.093-31.6.081L7.8,78C-.992,72.969-1.1,64.767,7.558,59.7Z" transform="translate(-1.135 -16.15)"/></g><path class="f" d="M190.34,28.5c0,.258-.042.517-.068.775-.025.288-.047.576-.1.86-.042.229-.11.453-.169.678a8.046,8.046,0,0,1-.233.813c-.076.22-.178.432-.271.648-.123.284-.246.568-.4.847-.106.2-.233.4-.356.6-.195.318-.4.631-.636.941-.136.182-.28.364-.428.542a16.135,16.135,0,0,1-1.174,1.263c-.136.131-.258.263-.4.394-.263.233-.551.462-.835.686-.242.195-.475.394-.733.585-.309.225-.648.436-.974.652s-.623.424-.966.627L114.829,79.13a29.359,29.359,0,0,1-3.745,1.792c-.352.14-.712.275-1.072.407-.818.3-1.678.538-2.542.78-.881.25-1.775.483-2.69.674-1.046.216-2.1.411-3.178.551-.3.038-.585.093-.881.123-1.487.161-2.991.246-4.5.263-.246,0-.487,0-.733,0-1.5-.008-2.991-.089-4.47-.237l-.669-.076a42.831,42.831,0,0,1-4.355-.733c-.246-.055-.487-.119-.733-.178a37.58,37.58,0,0,1-3.686-1.11c-.25-.089-.513-.161-.763-.258a29.514,29.514,0,0,1-4.08-1.907L8.109,39.936C4.092,37.64,1.58,34.789.58,31.8a9.554,9.554,0,0,1-.5-3.017L.042,43.771c-.008,4.046,2.669,8.092,8.024,11.16L76.689,94.213a29.018,29.018,0,0,0,3.8,1.813c.093.038.191.059.284.1.25.093.513.165.767.258.733.258,1.457.53,2.22.746.475.136.974.241,1.462.36.246.059.483.123.733.178.2.047.4.106.61.148.877.182,1.771.339,2.669.466.356.051.716.08,1.076.123.225.025.445.051.669.072.292.03.585.076.881.1.881.076,1.771.123,2.656.144.314.008.623,0,.932,0,.246,0,.487,0,.733,0,.369,0,.737.008,1.106,0,1-.034,2-.1,2.991-.2.136-.013.267-.042.4-.055.3-.034.585-.085.881-.123.724-.093,1.453-.174,2.165-.305.347-.059.669-.178,1.013-.25.919-.191,1.8-.419,2.695-.669.453-.131.945-.2,1.39-.347.4-.127.763-.3,1.148-.436.364-.131.72-.263,1.072-.407a28.538,28.538,0,0,0,3.745-1.792L182.562,54.4l.254-.153c.254-.153.475-.318.716-.479.326-.212.665-.424.966-.644.267-.195.5-.394.746-.593.28-.225.568-.445.822-.678.042-.038.1-.076.14-.114.1-.093.169-.195.267-.288a15.19,15.19,0,0,0,1.165-1.254c.072-.089.169-.169.242-.258s.123-.191.195-.288c.229-.309.432-.619.627-.936.081-.127.186-.254.258-.381.042-.072.064-.148.1-.22a8.823,8.823,0,0,0,.394-.839c.072-.161.165-.318.225-.475.021-.059.03-.123.051-.182.1-.267.161-.538.233-.809.047-.178.114-.352.153-.53.008-.051.008-.1.017-.153.051-.284.072-.572.1-.864.017-.178.055-.356.064-.534l0-.237h0Z" transform="translate(-0.042 26.479)"/></g></g></g><g transform="translate(518.763 1343.374)"><path class="g" d="M520.316,414.406l-7.008-4.046-10.115,4.255.024-8.363c0,.03-.018.06-.019.089h0a3.145,3.145,0,0,0-.779-2.1c-.03-.038-.081-.074-.112-.112a6.641,6.641,0,0,0-.931-.915,11.717,11.717,0,0,0-1.5-1.016,15,15,0,0,0-1.74-.859c-.291-.121-.587-.2-.88-.3s-.585-.217-.881-.3c-.413-.11-.829-.176-1.246-.247-.176-.029-.35-.076-.527-.1a13.33,13.33,0,0,0-1.495-.091c-.1,0-.189-.013-.283-.013a13.869,13.869,0,0,0-1.674.122c-.035,0-.07.005-.105.01a14.5,14.5,0,0,0-1.777.361h0a16.585,16.585,0,0,0-3.548,1.421l.022-7.765h0L478.73,390.4h0l-7.452,3.135-2.761,1.161.023-8.177h0a2.435,2.435,0,0,0-.213-.954c-.007-.018,0-.035-.012-.054a3.978,3.978,0,0,0-.491-.733c-.074-.1-.107-.191-.193-.287a9.272,9.272,0,0,0-1.568-1.312c-.374-.261-.746-.522-1.207-.789l-4.576-2.642-2.642-1.525h0l-3.489,2.027.012-4.035h0L449.3,373.4l-4.457,2.59-1,.584.018-6.317-4.777-2.758-7.118,4.136.023-8.233h0l-7.007-4.045-31.621,13.3,0-1.52h0l-.138-.08,5.291-3.075L411.39,360.5l.013-4.49.013-4.478h0l-4.795-2.768h0l-6.614,3.844.016-5.875c0,.02-.012.041-.012.061l0-.011a3.271,3.271,0,0,0-.809-2.13c-.033-.041-.089-.081-.124-.123a6.876,6.876,0,0,0-.936-.919,11.829,11.829,0,0,0-1.513-1.021,14.056,14.056,0,0,0-11.177-1.379,16.627,16.627,0,0,0-3.7,1.6l-15.738,9.145a13.936,13.936,0,0,0-1.4.937c-.094.071-.193.141-.281.212a7.861,7.861,0,0,0-.885.829c-.121.13-.226.26-.328.391a4.61,4.61,0,0,0-.332.506,3.53,3.53,0,0,0-.346.787c-.018.062-.033.124-.047.186a2.723,2.723,0,0,0-.017,1.168h0a2.78,2.78,0,0,1-.109-.555l-.026,8.969h0c0,1.424,1.122,2.835,3.412,4.157a15.179,15.179,0,0,0,1.908.923c.035.014.068.036.1.05q.652.256,1.316.447c.068.019.136.032.2.05s.159.039.238.058h0c.189.047.377.1.567.139q.428.089.858.15c.074.01.149.015.223.025l.159.018h0c.139.015.278.035.417.046s.27.015.4.022.256.017.384.02c.167.005.335,0,.5,0h.151c.056,0,.112,0,.167,0,.306-.01.611-.031.916-.061.19-.019.38-.053.57-.08h0c.1-.014.2-.026.3-.042.081-.013.163-.02.244-.034.218-.039.433-.115.65-.164l.031-.008.116-.026c.092-.021.184-.037.275-.061l-.012,4.3L389,382.625l.828-.481,0,.958,4.391,2.535,6.321-2.718.881.509.332.192-.018,6.356h0l4.83,2.788,2.239-1.8-.009,3.086,4.777,2.758,5.462-3.174-.018,6.317h0l4.864,2.809h0l1.587-.922,1.9-1.105-.012,4.034h0l4.794,2.768,5.233-3.041-.017,6.053h0l4.864,2.808a4.579,4.579,0,0,1,.431-.5l.029-.031c.051-.052.094-.109.149-.16.093-.088.2-.171.308-.256.142-.118.281-.236.441-.352l-.005,2.077,4.39,2.535,6.321-2.718,1.231.711-.018,6.356h0l4.829,2.788,5.232-4.207-.015,5.5c0,1.385,1.089,2.756,3.338,4.054a15,15,0,0,0,1.9.921c.033.013.065.034.1.047q.641.253,1.288.438c.075.022.151.036.226.056s.158.039.237.058h0c.171.042.343.091.516.127.277.057.556.106.836.145.092.013.185.02.278.031h0c.053.007.107.013.16.018.112.012.223.029.335.038.254.021.508.034.762.041.209,0,.417,0,.626,0h.171c.3-.01.6-.03.894-.06.233-.024.466-.063.7-.1.083-.013.166-.021.248-.035h.005l-.01,3.225,4.391,2.535,6.321-2.717,1.231.71-.018,6.357,4.829,2.788h0l11.308-9.092,14.064-11.308.026-8.969Zm-157.225-55.9a6.557,6.557,0,0,0,.7.691,7.091,7.091,0,0,1-.683-.661C363.1,358.527,363.1,358.517,363.091,358.507Zm36.679-10.654c.051-.141.069-.281.106-.421a2.94,2.94,0,0,1-.084.4c-.006.015-.015.03-.021.045l-.013.026C399.765,347.884,399.763,347.868,399.77,347.853Zm-29.529,7.2c-.079.05-.148.1-.224.148s-.149.093-.209.138c.13-.1.287-.195.444-.294Zm27.776-5.06,0,0c.1-.081.169-.162.26-.243-.082.073-.142.146-.23.219Zm1.093-1.057c-.01.012-.024.024-.034.036a4.325,4.325,0,0,0,.26-.4C399.254,348.7,399.208,348.816,399.11,348.936Zm-29.536,6.6,0,0,.028-.024Zm-.243.218-.012.013c-.013.014-.033.028-.046.041.023-.025.054-.051.079-.076h0ZM501.3,409.395c.037-.035.075-.07.115-.1-.076.066-.131.133-.212.2l-.008.006-.039.032C501.211,409.483,501.248,409.439,501.3,409.395Zm1.109-1.146c.029-.045.061-.091.093-.136-.021.03-.035.06-.058.09a1.617,1.617,0,0,1-.153.238c-.015.019-.035.037-.051.055C502.31,408.414,502.347,408.332,502.409,408.249ZM466.825,418.6l0,0c.079.079.153.159.239.238-.085-.078-.164-.157-.242-.235Zm24.917-5.227c.011,0,.022,0,.033-.008.041-.013.078-.01.119-.022a.136.136,0,0,0,.028,0v.2l-.241-.139c.016-.006.035-.017.052-.024Zm-19.057,2.13c.021-.022.05-.046.073-.069l-.026.027,0,0c-.013.013-.031.026-.043.039Zm.293-.263h0c.012-.01.023-.021.036-.031Zm.675-.49-.008.006c-.131.083-.263.165-.374.245-.027.02-.064.04-.089.059h0C473.316,414.955,473.487,414.85,473.653,414.746Zm29.407-7.77v.006a2.957,2.957,0,0,1-.079.361c-.013.031-.03.063-.044.1l-.007.009a1.431,1.431,0,0,0,.087-.311C503.034,407.083,503.045,407.03,503.06,406.976Zm-51.272-8.848-.018.015c-.046.034-.08.069-.127.1s-.108.066-.155.1c.108-.077.211-.153.313-.229Z"/><path class="h" d="M365.649,369.546a15.179,15.179,0,0,0,1.908.923c.035.014.068.036.1.049q.651.258,1.315.448c.068.019.136.031.2.05s.159.039.239.059c.189.047.377.1.567.139q.428.089.858.15c.075.01.15.015.225.025l.158.018c.139.015.278.035.417.046q.393.033.789.042c.168.005.336,0,.5,0h.15c.056,0,.112,0,.167,0,.305-.01.611-.031.916-.061.19-.019.38-.053.57-.08.1-.014.2-.026.3-.042.081-.014.162-.02.243-.034.228-.041.454-.12.681-.172.131-.03.261-.053.391-.087l-.012,4.3L389,382.625l.828-.481,0,.958,4.391,2.535,6.321-2.718,1.213.7-.018,6.356,4.83,2.788,2.239-1.8-.009,3.086,4.777,2.758,5.462-3.174-.018,6.317,4.864,2.809,3.489-2.027-.012,4.034,4.8,2.768,5.233-3.041-.017,6.053,4.864,2.808a4.579,4.579,0,0,1,.431-.5c.06-.063.113-.13.177-.19.1-.09.208-.174.312-.26.142-.117.279-.235.438-.349l-.005,2.077,4.39,2.535,6.321-2.718,1.231.711-.018,6.357,4.829,2.788,5.232-4.207-.015,5.5c0,1.385,1.089,2.756,3.338,4.054a15.126,15.126,0,0,0,1.9.921c.033.013.066.034.1.047q.641.253,1.288.438c.075.022.151.036.226.056s.158.039.238.059c.171.042.343.091.515.127.279.057.557.106.837.145.092.013.185.02.278.031.053.007.107.013.16.018.112.012.223.029.335.038.254.021.508.034.762.041.209,0,.417,0,.626,0h.089c.027,0,.054,0,.082,0,.3-.01.6-.03.894-.06.233-.023.466-.063.7-.1.082-.013.164-.021.246-.035h.006l-.009,3.225,4.39,2.535,6.321-2.717,1.231.71-.018,6.357,4.829,2.788,25.372-20.4.026-8.968-7.007-4.046-10.116,4.255.024-8.362c0,.029-.018.059-.019.088.052-1.412-1.023-2.813-3.326-4.143a14.06,14.06,0,0,0-14.157.009l.022-7.765L478.73,390.4l-10.214,4.3.024-8.177c0-1.338-1.2-2.694-3.684-4.129l-7.218-4.167-3.489,2.027.012-4.035L449.3,373.4l-5.462,3.174.018-6.317-4.777-2.758-7.118,4.136.023-8.233-7.007-4.045-31.621,13.3,0-1.52-4.327,2.515h0l4.327-2.515-.138-.08L411.39,360.5l.026-8.968h0l-4.795-2.769-6.614,3.844.016-5.875c0,.021-.012.041-.012.061.036-1.442-1.073-2.87-3.384-4.2a14.394,14.394,0,0,0-14.878.223l-15.738,9.145c-2.788,1.621-3.984,3.335-3.639,5.017a2.78,2.78,0,0,1-.109-.555l-.026,8.969C362.233,366.813,363.359,368.224,365.649,369.546Zm106.637,46.737,0,.021Zm19.489-2.922c.051-.016.1-.012.147-.027v.2l-.241-.139c.019-.007.041-.022.061-.028S491.764,413.364,491.775,413.361Zm-18.132,1.392c-.161.1-.331.205-.461.3.133-.1.3-.2.471-.31Zm-.665.483,0,0,.037-.032Zm-.246.221c-.013.014-.034.029-.047.043.021-.023.05-.047.073-.07Zm-.341.462c.006-.011.01-.022.016-.033Zm28.811-6.43-.047.039c.1-.079.169-.159.26-.238C501.338,409.356,501.284,409.423,501.2,409.489Zm-34.374,9.1c.079.08.153.159.239.238-.085-.078-.164-.157-.242-.235Zm-15.059-20.449c-.046.034-.079.068-.126.1s-.108.066-.155.1c.108-.077.211-.153.312-.229C451.789,398.126,451.781,398.135,451.769,398.144Zm3.871-4.225h0c-.015,0-.03,0-.045-.005h0C455.61,393.915,455.625,393.919,455.64,393.919Zm-8.328-.659a1.631,1.631,0,0,1,.118.175A1.631,1.631,0,0,0,447.312,393.26Zm.277.45a1.091,1.091,0,0,1,.042.191A1.091,1.091,0,0,0,447.589,393.71Zm-.759-.9c.063.048.106.1.162.145C446.936,392.91,446.894,392.862,446.83,392.813Zm20.664-4.169a7.716,7.716,0,0,1-.816.737h0a7.716,7.716,0,0,0,.816-.737Zm-.068,30.533a11.875,11.875,0,0,0,1.494,1.009A11.875,11.875,0,0,1,467.426,419.177Zm35.554-11.834c-.013.031-.03.063-.044.1l-.007.009a2.956,2.956,0,0,0,.131-.471A2.834,2.834,0,0,1,502.98,407.343Zm-.477.769c-.077.11-.121.22-.212.33-.015.018-.036.037-.052.055A4.646,4.646,0,0,0,502.5,408.112Zm-5.71-2a1.1,1.1,0,0,0-.269-.653A1.1,1.1,0,0,1,496.793,406.109Zm-.31-.692a3.153,3.153,0,0,0-.8-.623A3.153,3.153,0,0,1,496.483,405.417Zm-30.039-15.845h0a15.175,15.175,0,0,1-1.454.956A15.2,15.2,0,0,0,466.444,389.572Zm-4.933-3.469a1.022,1.022,0,0,0-.247-.591A1.022,1.022,0,0,1,461.511,386.1Zm-.326-.671a3.249,3.249,0,0,0-.779-.6A3.249,3.249,0,0,1,461.185,385.432Zm-63.141-35.461-.03.024c.1-.08.169-.162.26-.243C398.192,349.825,398.132,349.9,398.044,349.971Zm-27.8,5.082c-.163.1-.334.207-.466.307.136-.1.31-.21.479-.316Zm-.667.485,0,0,.032-.029Zm-.6.7.017-.036Zm30.816-8.406c-.01.024-.023.048-.034.071a2.96,2.96,0,0,0,.118-.467A2.94,2.94,0,0,1,399.792,347.828Zm-.456.748c-.082.12-.128.24-.226.36-.01.012-.024.024-.034.036A4.325,4.325,0,0,0,399.336,348.576Zm-5.928-2.157a1.087,1.087,0,0,0-.27-.652A1.087,1.087,0,0,1,393.408,346.419Zm-.311-.692a3.175,3.175,0,0,0-.8-.623A3.175,3.175,0,0,1,393.1,345.727Zm-23.745,10.006c-.012.012-.022.024-.033.036s-.034.028-.046.042C369.3,355.785,369.327,355.759,369.352,355.733Zm-.485.868,0,.027Zm-4.707,2.954a12.013,12.013,0,0,0,1.514,1.022A12.013,12.013,0,0,1,364.16,359.555Zm-.364-.353a6.961,6.961,0,0,1-.688-.665c-.008-.01-.01-.02-.017-.03A6.74,6.74,0,0,0,363.8,359.2Zm-.966-1.126a3.845,3.845,0,0,1-.367-.637A3.845,3.845,0,0,0,362.83,358.076Z"/><g class="b"><g class="b"><g class="i"><g class="b"><path class="j" d="M393.427,346.466l-.026,8.969c0-.495-.408-.947-1.127-1.362a5.21,5.21,0,0,0-.7-.338l.026-8.969a5.266,5.266,0,0,1,.7.338c.718.415,1.128.867,1.127,1.362"/><path class="k" d="M391.6,344.766l-.026,8.969c-.141-.056-.284-.1-.429-.146l.025-8.969c.146.042.289.091.43.146"/><path class="l" d="M391.172,344.62l-.025,8.969c-.108-.031-.217-.058-.328-.081l.026-8.968c.11.022.219.049.327.08"/><path class="m" d="M390.845,344.54l-.026,8.968c-.091-.019-.184-.035-.277-.048l.025-8.969c.094.014.186.03.278.049"/><path class="n" d="M390.567,344.491l-.025,8.969c-.086-.012-.173-.022-.26-.029l.025-8.969c.088.007.174.017.26.029"/><path class="o" d="M390.307,344.462l-.025,8.969c-.086-.007-.172-.012-.258-.014l.025-8.969c.087,0,.173.007.258.014"/><path class="p" d="M390.049,344.448l-.025,8.969c-.091,0-.181,0-.273,0l.025-8.968c.092,0,.183,0,.273,0"/><path class="q" d="M389.776,344.45l-.025,8.968c-.1,0-.208.011-.313.021l.026-8.968q.158-.017.312-.021"/><path class="r" d="M389.464,344.471l-.026,8.968c-.132.014-.267.033-.4.057l.025-8.968c.136-.025.27-.044.4-.057"/><path class="s" d="M389.061,344.528l-.025,8.968a5.755,5.755,0,0,0-.733.186l.025-8.969a5.578,5.578,0,0,1,.733-.185"/><path class="t" d="M388.328,344.713l-.025,8.969a7.722,7.722,0,0,0-1.506.685l.025-8.969a7.749,7.749,0,0,1,1.506-.685"/></g></g></g><g class="b"><g class="u"><g class="b"><path class="m" d="M400.023,346.733,400,355.7c0,.024,0,.047,0,.07l.025-8.968c0-.024,0-.047,0-.071"/><path class="n" d="M400.022,346.8,400,355.772a2.808,2.808,0,0,1-.054.464l.026-8.968a2.726,2.726,0,0,0,.053-.464"/><path class="o" d="M399.969,347.268l-.026,8.968a3.017,3.017,0,0,1-.136.474l.025-8.968a3.02,3.02,0,0,0,.137-.474"/><path class="p" d="M399.832,347.742l-.025,8.968a3.7,3.7,0,0,1-.243.517l.026-8.969a3.626,3.626,0,0,0,.242-.516"/><path class="q" d="M399.59,348.258l-.026,8.969a4.617,4.617,0,0,1-.406.6l.026-8.969a4.828,4.828,0,0,0,.406-.6"/><path class="r" d="M399.184,348.857l-.026,8.969a6.705,6.705,0,0,1-.726.776l.026-8.969a6.712,6.712,0,0,0,.726-.776"/><path class="s" d="M398.458,349.633l-.026,8.969a11.959,11.959,0,0,1-1.945,1.422l.026-8.968a12.02,12.02,0,0,0,1.945-1.423"/><path class="t" d="M396.513,351.056l-.026,8.968-.24.143.025-8.969c.082-.047.162-.1.241-.142"/></g></g></g><path class="v" d="M386.822,345.4l-.025,8.969-16.331,9.49.025-8.969Z"/><g class="b"><g class="w"><g class="b"><path class="t" d="M370.491,354.889l-.025,8.969c-.044.025-.087.05-.129.076l.026-8.969c.042-.025.084-.051.128-.076"/><path class="s" d="M370.363,354.965l-.026,8.969a5.6,5.6,0,0,0-.911.662l.026-8.969a5.619,5.619,0,0,1,.911-.662"/><path class="r" d="M369.452,355.627l-.026,8.969a2.789,2.789,0,0,0-.289.309l.026-8.969a2.7,2.7,0,0,1,.289-.309"/><path class="q" d="M369.163,355.936l-.026,8.969a1.794,1.794,0,0,0-.151.223l.026-8.969a1.656,1.656,0,0,1,.151-.223"/><path class="p" d="M369.012,356.159l-.026,8.969a1.309,1.309,0,0,0-.086.183l.025-8.969a1.374,1.374,0,0,1,.087-.183"/><path class="o" d="M368.925,356.342l-.025,8.969a1.059,1.059,0,0,0-.048.165l.026-8.969a.981.981,0,0,1,.047-.165"/><path class="n" d="M368.878,356.507l-.026,8.969a1.064,1.064,0,0,0-.018.157l.025-8.969a.947.947,0,0,1,.019-.157"/><path class="m" d="M368.859,356.664l-.025,8.969v.023l.025-8.969v-.023"/></g></g></g><path class="v" d="M396.272,351.2l-.025,8.969-15.738,9.146.025-8.969Z"/><g class="b"><g class="x"><g class="b"><path class="t" d="M380.535,360.344l-.026,8.968a16.721,16.721,0,0,1-3.257,1.466l.025-8.969a16.808,16.808,0,0,0,3.258-1.465"/><path class="s" d="M377.277,361.809l-.025,8.969a15.029,15.029,0,0,1-1.97.5l.026-8.969a15.01,15.01,0,0,0,1.969-.5"/><path class="r" d="M375.308,362.3l-.026,8.969q-.557.1-1.113.156l.025-8.969q.558-.055,1.114-.156"/><path class="q" d="M374.194,362.461l-.025,8.969c-.3.03-.611.051-.916.061l.026-8.968c.305-.011.61-.031.915-.062"/><path class="p" d="M373.279,362.523l-.026,8.968q-.411.015-.821,0l.025-8.968c.274.007.548.005.822,0"/><path class="o" d="M372.457,362.527l-.025,8.968q-.4-.009-.789-.042l.025-8.969q.395.033.789.043"/><path class="n" d="M371.668,362.484l-.025,8.969q-.4-.033-.8-.089l.025-8.969c.266.038.533.067.8.089"/><path class="m" d="M370.868,362.395l-.025,8.969q-.43-.062-.859-.15l.026-8.969q.428.088.858.15"/><path class="l" d="M370.01,362.245l-.026,8.969q-.506-.1-1.009-.248L369,362q.5.144,1.009.248"/><path class="k" d="M369,362l-.026,8.969q-.663-.191-1.316-.447l.026-8.969q.652.257,1.316.447"/><path class="j" d="M367.685,361.55l-.026,8.969a15.264,15.264,0,0,1-2.01-.973c-2.29-1.322-3.416-2.733-3.412-4.157l.026-8.969c0,1.424,1.122,2.835,3.412,4.157a15.139,15.139,0,0,0,2.01.973"/></g></g></g><path class="y" d="M396.627,342.59c4.688,2.707,4.478,5.8-.355,8.608l-15.737,9.146a14.389,14.389,0,0,1-14.86.233c-4.707-2.717-4.5-5.81.336-8.619l15.738-9.145A14.394,14.394,0,0,1,396.627,342.59Zm-21.166,15.168,16.331-9.49c2.164-1.258,2.018-2.292.508-3.164-1.528-.882-3.314-.963-5.478.294l-16.331,9.491c-2.163,1.257-2.017,2.291-.489,3.173,1.51.872,3.3.953,5.459-.3"/></g><g class="b"><path class="v" d="M411.416,351.532l-.025,8.969-25.927,15.067.025-8.969Z"/><path class="y" d="M411.416,351.533,385.489,366.6l7.868,4.542-4.327,2.515-12.662-7.311,30.254-17.582Z"/><path class="v" d="M393.356,371.142l-.025,8.969L389,382.625l.025-8.969Z"/><path class="z" d="M389.029,373.657,389,382.625l-12.662-7.31.025-8.969Z"/></g><g class="b"><path class="v" d="M422.883,364.359l-.025,8.969-17.6,7.564.025-8.969Z"/><path class="v" d="M400.567,373.951l-.025,8.969-6.321,2.717.025-8.969Z"/><path class="z" d="M394.245,376.668l-.025,8.969-4.39-2.535.025-8.969Z"/><path class="z" d="M406.432,377.337l-.025,8.969-5.866-3.387.025-8.969Z"/><path class="y" d="M431.98,363.4,406.591,383.8l-4.829-2.789,4.67-3.67-5.865-3.386-6.322,2.717-4.39-2.535,35.118-14.773Zm-26.7,8.518,4.6,2.656,13-10.22-17.6,7.564"/><path class="aa" d="M431.98,363.405l-.025,8.969-25.389,20.39.025-8.969Z"/><path class="z" d="M406.591,383.8l-.025,8.969-4.829-2.788.025-8.969Z"/></g><g class="b"><path class="v" d="M443.852,370.26l-.025,8.969-12.964,7.534.025-8.969Z"/><path class="z" d="M432.006,383.451l-.025,8.969-5.444-3.143.025-8.969Z"/><path class="v" d="M426.562,380.308l-.025,8.969-12.964,7.534.025-8.969Z"/><path class="z" d="M413.6,387.841l-.025,8.969-4.777-2.758.025-8.969Z"/><path class="y" d="M454.161,376.211l-30.254,17.582-4.865-2.809,12.964-7.534-5.444-3.143L413.6,387.841l-4.777-2.758L439.075,367.5l4.777,2.758-12.964,7.534,5.444,3.143L449.3,373.4Z"/><path class="v" d="M454.161,376.211l-.025,8.969-30.254,17.582.025-8.969Z"/><path class="z" d="M423.907,393.793l-.025,8.969-4.865-2.809.025-8.969Z"/></g><g class="b"><path class="z" d="M460.406,384.83l-.025,8.969-2.3-1.328.025-8.969Z"/><g class="b"><g class="ab"><g class="b"><path class="j" d="M461.535,386.16l-.026,8.968c0-.46-.378-.9-1.128-1.329l.025-8.969c.751.433,1.13.869,1.129,1.33"/></g></g></g><path class="v" d="M458.105,383.5l-.025,8.969-9.282,5.394.025-8.969Z"/><g class="b"><g class="ac"><g class="b"><path class="m" d="M468.54,386.515l-.026,8.968v.059l.026-8.969v-.058"/><path class="n" d="M468.539,386.573l-.026,8.969a2.171,2.171,0,0,1-.044.382l.026-8.969a2.366,2.366,0,0,0,.044-.382"/><path class="o" d="M468.495,386.955l-.026,8.969a2.5,2.5,0,0,1-.112.389l.026-8.969a2.587,2.587,0,0,0,.112-.389"/><path class="p" d="M468.383,387.344l-.026,8.969a3.028,3.028,0,0,1-.2.426l.025-8.969a3.031,3.031,0,0,0,.2-.426"/><path class="q" d="M468.182,387.77l-.025,8.969a4.09,4.09,0,0,1-.344.507l.025-8.969a3.883,3.883,0,0,0,.344-.507"/><path class="r" d="M467.838,388.277l-.025,8.969a6.014,6.014,0,0,1-.633.676l.026-8.969a5.915,5.915,0,0,0,.632-.676"/><path class="s" d="M467.206,388.953l-.026,8.969a12.074,12.074,0,0,1-1.946,1.415l.026-8.969a12.121,12.121,0,0,0,1.946-1.415"/><path class="t" d="M465.26,390.368l-.026,8.969-.27.16.025-8.969c.092-.053.182-.107.271-.16"/></g></g></g><path class="v" d="M464.989,390.528l-.025,8.969-2.373,1.379.025-8.969Z"/><path class="z" d="M446.147,392.363l-.025,8.969-1.651-.953.025-8.969Z"/><g class="b"><g class="ad"><g class="b"><path class="j" d="M447.673,394.089l-.026,8.969c0-.591-.522-1.147-1.525-1.726l.025-8.969c1,.58,1.527,1.135,1.526,1.726"/></g></g></g><g class="b"><g class="ae"><g class="b"><path class="t" d="M462.616,391.907l-.025,8.969a15.986,15.986,0,0,1-3.125,1.415l.025-8.969a15.986,15.986,0,0,0,3.125-1.415"/><path class="s" d="M459.491,393.322l-.025,8.969a12.833,12.833,0,0,1-1.641.413l.025-8.969a12.8,12.8,0,0,0,1.641-.413"/><path class="r" d="M457.85,393.735l-.025,8.969q-.468.084-.937.131l.026-8.969q.468-.047.936-.131"/><path class="q" d="M456.914,393.866l-.026,8.969q-.377.037-.756.051l.026-8.969q.378-.014.756-.051"/><path class="p" d="M456.158,393.917l-.026,8.969q-.339.011-.679,0l.025-8.969q.34.009.68,0"/><path class="o" d="M455.478,393.92l-.025,8.969c-.222-.006-.443-.018-.665-.036l.025-8.969c.222.019.444.03.665.036"/><path class="n" d="M454.813,393.884l-.025,8.969q-.345-.028-.691-.078l.025-8.968q.346.048.691.077"/><path class="m" d="M454.122,393.807l-.025,8.968c-.253-.035-.506-.08-.76-.132l.026-8.969c.253.053.507.1.759.133"/><path class="l" d="M453.363,393.674l-.026,8.969-.014,0,.026-8.969.014,0"/></g></g></g><path class="z" d="M432.178,398.569l-.025,8.969-4.794-2.768.025-8.969Z"/><path class="v" d="M444.5,391.41l-.025,8.969-12.318,7.158.025-8.969Z"/><g class="b"><g class="af"><g class="b"><path class="m" d="M453.872,395.144l-.026,8.969v.054l.025-8.968v-.055"/><path class="n" d="M453.871,395.2l-.025,8.968a2.145,2.145,0,0,1-.042.357l.026-8.968a2.168,2.168,0,0,0,.041-.357"/><path class="o" d="M453.83,395.556l-.026,8.968a2.376,2.376,0,0,1-.1.367l.025-8.968a2.415,2.415,0,0,0,.106-.367"/><path class="p" d="M453.724,395.923l-.025,8.968a2.9,2.9,0,0,1-.193.408l.026-8.968a2.884,2.884,0,0,0,.192-.408"/><path class="q" d="M453.532,396.331l-.026,8.968a3.9,3.9,0,0,1-.329.487l.025-8.969a3.794,3.794,0,0,0,.33-.486"/><path class="r" d="M453.2,396.817l-.025,8.969a5.971,5.971,0,0,1-.644.688l.026-8.969a5.956,5.956,0,0,0,.643-.688"/><path class="s" d="M452.559,397.505l-.026,8.969a13.225,13.225,0,0,1-2.111,1.53l.026-8.968a13.272,13.272,0,0,0,2.111-1.531"/><path class="t" d="M450.448,399.036,450.422,408c-.117.071-.236.142-.358.213l.025-8.969c.122-.071.242-.142.359-.212"/></g></g></g><path class="v" d="M450.089,399.248l-.025,8.969-4.659,2.707.025-8.969Z"/><path class="y" d="M445.431,401.955a9.543,9.543,0,0,0-3.172,2.434l-4.865-2.809c.522-.608.817-.984,3.277-2.413l4.764-2.768c2.809-1.633,2.89-2.778.712-4.036l-1.651-.953-12.318,7.159-4.794-2.768,30.254-17.582,7.218,4.167c4.97,2.87,4.809,5.425.133,8.142l-2.373,1.379a12.729,12.729,0,0,1-9.267,1.764c1.394,1.957-.1,3.742-3.26,5.577Zm11.327-12.177,2.983-1.734c2.164-1.257,2.351-2.241.665-3.214l-2.3-1.329-9.282,5.395,1.862,1.074c1.791,1.035,3.648,1.217,6.073-.192"/><path class="z" d="M442.259,404.389l-.025,8.969-4.865-2.809.025-8.969Z"/><g class="b"><g class="ag"><g class="b"><path class="t" d="M445.431,401.955l-.026,8.969q-.418.243-.791.467l.026-8.969c.248-.15.511-.3.791-.467"/><path class="s" d="M444.64,402.422l-.026,8.969a10.747,10.747,0,0,0-1.736,1.239l.025-8.969a10.757,10.757,0,0,1,1.737-1.239"/><path class="r" d="M442.9,403.661l-.025,8.969a4.756,4.756,0,0,0-.518.558l.025-8.969a4.839,4.839,0,0,1,.518-.558"/><path class="q" d="M442.385,404.219l-.025,8.969c-.044.055-.086.112-.127.169l.026-8.968c.041-.058.083-.115.126-.17"/></g></g></g></g><g class="b"><path class="v" d="M476.64,395.395l-.025,8.969-17.6,7.564.025-8.969Z"/><path class="v" d="M454.323,404.987l-.025,8.969-6.321,2.717L448,407.7Z"/><path class="z" d="M448,407.7l-.025,8.969-4.39-2.535.025-8.969Z"/><path class="z" d="M460.206,408.383l-.025,8.969-5.883-3.4.025-8.969Z"/><path class="y" d="M485.737,394.442l-25.372,20.4-4.83-2.788,4.671-3.671-5.883-3.4L448,407.7l-4.39-2.535L478.73,390.4Zm-26.7,8.517,4.6,2.656,13-10.22-17.6,7.564"/><path class="aa" d="M485.737,394.442l-.025,8.969-25.372,20.4.025-8.969Z"/><path class="z" d="M460.365,414.842l-.025,8.969-4.829-2.788.025-8.969Z"/></g><g class="b"><g class="b"><g class="ah"><g class="b"><path class="j" d="M496.812,406.156l-.025,8.969c0-.495-.408-.947-1.127-1.362a5.109,5.109,0,0,0-.7-.337l.026-8.969a5.213,5.213,0,0,1,.694.337c.719.415,1.129.867,1.127,1.362"/><path class="k" d="M494.991,404.457l-.026,8.969c-.14-.055-.281-.1-.425-.144l.025-8.969q.216.062.426.144"/><path class="l" d="M494.565,404.313l-.025,8.969c-.107-.031-.216-.058-.325-.08l.025-8.969c.11.023.218.049.325.08"/><path class="m" d="M494.24,404.233l-.025,8.969c-.091-.019-.182-.035-.274-.048l.025-8.969c.093.013.184.029.274.048"/><path class="n" d="M493.966,404.185l-.025,8.969c-.085-.012-.17-.022-.257-.029l.026-8.969c.086.008.172.017.256.029"/><path class="o" d="M493.71,404.156l-.026,8.969c-.084-.007-.169-.011-.255-.013l.026-8.969c.085,0,.17.006.255.013"/><path class="p" d="M493.455,404.143l-.026,8.969c-.089,0-.179,0-.269,0l.025-8.969c.091,0,.181,0,.27,0"/><path class="q" d="M493.185,404.144l-.025,8.969c-.1,0-.206.01-.31.021l.026-8.969c.1-.011.207-.017.309-.021"/><path class="r" d="M492.876,404.165l-.026,8.969c-.132.013-.265.032-.4.056l.026-8.969c.135-.024.269-.043.4-.056"/><path class="s" d="M492.475,404.221l-.026,8.969a5.631,5.631,0,0,0-.725.184l.025-8.969a5.772,5.772,0,0,1,.726-.184"/><path class="t" d="M491.749,404.4l-.025,8.969a7.75,7.75,0,0,0-1.524.693l.025-8.969a7.81,7.81,0,0,1,1.524-.693"/></g></g></g><g class="b"><g class="ai"><g class="b"><path class="m" d="M503.217,406.253l-.025,8.968v.068l.025-8.969v-.067"/><path class="n" d="M503.216,406.32l-.025,8.969a2.8,2.8,0,0,1-.052.452l.025-8.969a2.664,2.664,0,0,0,.052-.452"/><path class="o" d="M503.164,406.772l-.025,8.969a3,3,0,0,1-.134.464l.025-8.969a2.969,2.969,0,0,0,.134-.464"/><path class="p" d="M503.03,407.236l-.025,8.969a3.608,3.608,0,0,1-.236.5l.025-8.969a3.493,3.493,0,0,0,.236-.5"/><path class="q" d="M502.794,407.738l-.025,8.969a4.706,4.706,0,0,1-.4.6l.026-8.969a4.594,4.594,0,0,0,.4-.6"/><path class="r" d="M502.39,408.336l-.026,8.969a6.714,6.714,0,0,1-.726.777l.025-8.969a6.727,6.727,0,0,0,.727-.777"/><path class="s" d="M501.663,409.113l-.025,8.969a12.528,12.528,0,0,1-2.013,1.471l.025-8.969a12.378,12.378,0,0,0,2.013-1.471"/><path class="t" d="M499.65,410.584l-.025,8.969c-.084.051-.169.1-.256.151l.025-8.968c.087-.051.172-.1.256-.152"/></g></g></g><path class="v" d="M499.395,410.736l-.025,8.969-2.949,1.714.025-8.969Z"/><path class="z" d="M496.446,412.449l-.025,8.969-4.513-2.606.025-8.969Z"/><path class="v" d="M490.225,405.1l-.025,8.969-16.331,9.49.025-8.969Z"/><path class="z" d="M484.413,414.213l-.025,8.969-2.178-1.257.025-8.969Z"/><g class="b"><g class="aj"><g class="b"><path class="t" d="M473.894,414.589l-.025,8.968-.131.078.026-8.969c.042-.026.086-.051.13-.077"/><path class="s" d="M473.764,414.666l-.026,8.969a5.54,5.54,0,0,0-.907.659l.025-8.969a5.556,5.556,0,0,1,.908-.659"/><path class="r" d="M472.856,415.325l-.025,8.969a2.67,2.67,0,0,0-.283.3l.026-8.968a2.577,2.577,0,0,1,.282-.3"/><path class="q" d="M472.574,415.627l-.026,8.968a1.744,1.744,0,0,0-.146.216l.026-8.969a1.568,1.568,0,0,1,.146-.215"/><path class="p" d="M472.428,415.842l-.026,8.969a1.4,1.4,0,0,0-.083.177l.025-8.969a1.283,1.283,0,0,1,.084-.177"/><path class="o" d="M472.344,416.019l-.025,8.969a1.079,1.079,0,0,0-.046.158l.025-8.968a1.056,1.056,0,0,1,.046-.159"/><path class="n" d="M472.3,416.178l-.025,8.968a.881.881,0,0,0-.017.152l.025-8.969a.862.862,0,0,1,.017-.151"/><path class="m" d="M472.281,416.329l-.025,8.969v.022l.026-8.969v-.022"/></g></g></g><path class="v" d="M493.253,414.3l-.025,8.969-9.6,5.577.025-8.969Z"/><g class="b"><g class="ak"><g class="b"><path class="t" d="M483.657,419.881l-.026,8.969a17.345,17.345,0,0,1-3.357,1.514l.026-8.969a17.252,17.252,0,0,0,3.357-1.514"/><path class="s" d="M480.3,421.395l-.026,8.969a14.92,14.92,0,0,1-1.947.492l.025-8.969a14.93,14.93,0,0,0,1.948-.492"/><path class="r" d="M478.352,421.887l-.025,8.969q-.552.1-1.1.155l.025-8.969q.552-.055,1.1-.155"/><path class="q" d="M477.248,422.042l-.025,8.969q-.447.045-.894.06l.025-8.969q.447-.015.894-.06"/><path class="p" d="M476.354,422.1l-.025,8.969c-.266.009-.531.01-.8,0l.026-8.969c.265.007.531.005.8,0"/><path class="o" d="M475.558,422.106l-.026,8.969c-.254-.007-.508-.02-.762-.041l.025-8.969q.381.031.763.041"/><path class="n" d="M474.8,422.065l-.025,8.969q-.387-.031-.773-.087l.025-8.968q.385.054.773.086"/><path class="m" d="M474.022,421.979,474,430.947c-.28-.039-.558-.088-.836-.145l.025-8.969q.417.086.836.146"/><path class="l" d="M473.186,421.833l-.025,8.969q-.492-.1-.98-.242l.025-8.968c.326.093.652.173.98.241"/><path class="k" d="M472.206,421.592l-.025,8.968q-.648-.184-1.288-.438l.025-8.968q.641.252,1.288.438"/><path class="j" d="M470.918,421.154l-.025,8.968a15.026,15.026,0,0,1-2-.968c-2.249-1.3-3.342-2.669-3.338-4.054l.025-8.968c0,1.384,1.09,2.755,3.339,4.054a15.2,15.2,0,0,0,2,.968"/></g></g></g><path class="y" d="M499.872,402.2c4.706,2.718,4.355,5.729-.478,8.538l-2.948,1.713-4.514-2.606,3.246-1.886c2.163-1.257,2.017-2.291.507-3.163-1.528-.882-3.3-.953-5.46.3l-16.331,9.491c-2.163,1.257-1.982,2.251-.455,3.133,1.511.872,3.244.983,5.408-.274l5.566-3.235-2.178-1.257,4.327-2.514,6.691,3.863-9.6,5.576c-4.833,2.809-10.031,3.022-14.737.3-4.689-2.708-4.356-5.729.477-8.538l15.737-9.146C489.967,399.694,495.183,399.491,499.872,402.2Z"/></g><g class="b"><path class="v" d="M511.219,415.359l-.025,8.969-17.6,7.564.025-8.969Z"/><path class="v" d="M488.9,424.951l-.025,8.969-6.321,2.717.025-8.969Z"/><path class="z" d="M482.58,427.668l-.025,8.969-4.39-2.535.025-8.969Z"/><path class="z" d="M494.785,428.348l-.025,8.969-5.883-3.4.025-8.969Z"/><path class="y" d="M520.316,414.406l-25.372,20.4-4.83-2.788,4.671-3.67-5.883-3.4-6.322,2.717-4.39-2.535,35.119-14.773Zm-26.7,8.517,4.6,2.656,13-10.22-17.6,7.564"/><path class="aa" d="M520.316,414.406l-.025,8.969-25.372,20.4.025-8.969Z"/><path class="z" d="M494.944,434.806l-.025,8.969-4.829-2.788.025-8.969Z"/></g></g></g></svg>