<svg xmlns="http://www.w3.org/2000/svg" xmlns:xlink="http://www.w3.org/1999/xlink" width="224.974" height="282.246" viewBox="0 0 224.974 282.246"><defs><style>.a,.h{fill:none;}.b{isolation:isolate;}.c{fill:#521168;}.d{fill:#b0b2b2;}.e{fill:#2d2d2c;}.f{fill:#6e7072;}.g,.i{fill:#4a0e5c;}.g{stroke:#fff;stroke-width:9.531px;}.g,.h{stroke-linejoin:round;}.h{stroke:#490c5a;stroke-width:4.765px;}.j{clip-path:url(#a);}.k{fill:#490c5a;}.l{fill:#622378;}.m{clip-path:url(#b);}.n{fill:#4f1361;}.o{fill:#511463;}.p{fill:#531666;}.q{fill:#551868;}.r{fill:#571a6a;}.s{fill:#591c6d;}.t{fill:#5b1d70;}.u{fill:#5d1f72;}.v{clip-path:url(#c);}.w{fill:#4d115f;}.x{fill:#4b0e5c;}.y{fill:#fff;}.z{fill:#5f2074;}.aa{clip-path:url(#d);}.ab{clip-path:url(#e);}.ac{clip-path:url(#f);}.ad{clip-path:url(#g);}.ae{clip-path:url(#h);}.af{clip-path:url(#i);}.ag{fill:#602175;}.ah{fill:#5f2175;}.ai{fill:#5c1e71;}.aj{fill:#602176;}</style><clipPath id="a"><path class="a" d="M396.376,512.382l-.025,8.969c0-.457-.408-.872-1.127-1.287l.025-8.968C395.968,511.511,396.378,511.926,396.376,512.382Z"/></clipPath><clipPath id="b"><path class="a" d="M403.013,512.658l-.025,8.969c0,1.463-1.291,2.936-3.792,4.389l.025-8.969C401.723,515.594,403.009,514.121,403.013,512.658Z"/></clipPath><clipPath id="c"><path class="a" d="M395.3,519.329l-.026,8.968c-4.833,2.809-9.82,2.981-14.6.224l.025-8.969C385.475,522.31,390.463,522.137,395.3,519.329Z"/></clipPath><clipPath id="d"><path class="a" d="M447.8,542.12l-.026,8.968c0-.483-.413-.925-1.142-1.346l.025-8.969C447.382,541.194,447.8,541.636,447.8,542.12Z"/></clipPath><clipPath id="e"><path class="a" d="M454.5,542.386l-.025,8.969c-.005,1.463-1.291,2.936-3.792,4.389l.025-8.968C453.214,545.322,454.5,543.85,454.5,542.386Z"/></clipPath><clipPath id="f"><path class="a" d="M435.428,555.658l-.025,8.969c-4.851,2.818-9.838,2.991-14.615.233l.025-8.969C425.59,558.649,430.578,558.476,435.428,555.658Z"/></clipPath><clipPath id="g"><path class="a" d="M473.8,557.136l-.025,8.969c0-.484-.413-.926-1.142-1.347l.025-8.969C473.391,556.21,473.8,556.652,473.8,557.136Z"/></clipPath><clipPath id="h"><path class="a" d="M480.513,557.4l-.026,8.969c0,1.464-1.29,2.936-3.791,4.39l.025-8.969C479.222,560.338,480.509,558.866,480.513,557.4Z"/></clipPath><clipPath id="i"><path class="a" d="M461.437,570.674l-.025,8.969c-4.851,2.818-9.839,2.991-14.615.233l.025-8.969C451.6,573.665,456.587,573.493,461.437,570.674Z"/></clipPath></defs><g transform="translate(-1037 -1522.89)"><g transform="translate(1037.684 1584.479)"><g class="b"><path class="c" d="M115.465,17.616l-7.093-4.095L5.974,73.448c-8.918,5.183-8.871,13.617.106,18.8l123.892,70.781,7.047-4.1L13.127,88.152c-5.063-2.923-5.1-7.682-.059-10.609l102.4-59.927"/></g></g><g transform="translate(1071.676 1468)"><g transform="translate(0 54.89)"><g class="b"><g transform="translate(0.045)"><path class="d" d="M75.562,20.135c10.427-6.114,27.514-6.156,38.1-.1l68.623,39.287c10.583,6.059,10.71,15.956.288,22.065l-67.775,39.724c-10.427,6.114-27.514,6.156-38.1.1L8.075,81.923C-2.509,75.865-2.636,65.968,7.786,59.858Zm103.5,41.08L110.435,21.927c-8.787-5.029-22.976-4.974-31.6.08L11.061,61.731C2.406,66.8,2.512,75,11.3,80.034l68.623,39.287c8.757,5.012,22.946,4.991,31.6-.08L179.3,79.517c8.622-5.054,8.516-13.291-.241-18.3" transform="translate(-0.053 -15.521)"/></g><g transform="translate(4.631 2.664)"><path class="e" d="M75.333,19.972c8.622-5.054,22.811-5.11,31.6-.08l68.623,39.287c8.757,5.012,8.863,13.248.241,18.3L108.02,117.205c-8.656,5.071-22.845,5.093-31.6.081L7.8,78C-.992,72.969-1.1,64.767,7.558,59.7Z" transform="translate(-1.135 -16.15)"/></g><path class="f" d="M190.34,28.5c0,.258-.042.517-.068.775-.025.288-.047.576-.1.86-.042.229-.11.453-.169.678a8.046,8.046,0,0,1-.233.813c-.076.22-.178.432-.271.648-.123.284-.246.568-.4.847-.106.2-.233.4-.356.6-.195.318-.4.631-.636.941-.136.182-.28.364-.428.542a16.135,16.135,0,0,1-1.174,1.263c-.136.131-.258.263-.4.394-.263.233-.551.462-.835.686-.242.195-.475.394-.733.585-.309.225-.648.436-.974.652s-.623.424-.966.627L114.829,79.13a29.359,29.359,0,0,1-3.745,1.792c-.352.14-.712.275-1.072.407-.818.3-1.678.538-2.542.78-.881.25-1.775.483-2.69.674-1.046.216-2.1.411-3.178.551-.3.038-.585.093-.881.123-1.487.161-2.991.246-4.5.263-.246,0-.487,0-.733,0-1.5-.008-2.991-.089-4.47-.237l-.669-.076a42.831,42.831,0,0,1-4.355-.733c-.246-.055-.487-.119-.733-.178a37.58,37.58,0,0,1-3.686-1.11c-.25-.089-.513-.161-.763-.258a29.514,29.514,0,0,1-4.08-1.907L8.109,39.936C4.092,37.64,1.58,34.789.58,31.8a9.554,9.554,0,0,1-.5-3.017L.042,43.771c-.008,4.046,2.669,8.092,8.024,11.16L76.689,94.213a29.018,29.018,0,0,0,3.8,1.813c.093.038.191.059.284.1.25.093.513.165.767.258.733.258,1.457.53,2.22.746.475.136.974.241,1.462.36.246.059.483.123.733.178.2.047.4.106.61.148.877.182,1.771.339,2.669.466.356.051.716.08,1.076.123.225.025.445.051.669.072.292.03.585.076.881.1.881.076,1.771.123,2.656.144.314.008.623,0,.932,0,.246,0,.487,0,.733,0,.369,0,.737.008,1.106,0,1-.034,2-.1,2.991-.2.136-.013.267-.042.4-.055.3-.034.585-.085.881-.123.724-.093,1.453-.174,2.165-.305.347-.059.669-.178,1.013-.25.919-.191,1.8-.419,2.695-.669.453-.131.945-.2,1.39-.347.4-.127.763-.3,1.148-.436.364-.131.72-.263,1.072-.407a28.538,28.538,0,0,0,3.745-1.792L182.562,54.4l.254-.153c.254-.153.475-.318.716-.479.326-.212.665-.424.966-.644.267-.195.5-.394.746-.593.28-.225.568-.445.822-.678.042-.038.1-.076.14-.114.1-.093.169-.195.267-.288a15.19,15.19,0,0,0,1.165-1.254c.072-.089.169-.169.242-.258s.123-.191.195-.288c.229-.309.432-.619.627-.936.081-.127.186-.254.258-.381.042-.072.064-.148.1-.22a8.823,8.823,0,0,0,.394-.839c.072-.161.165-.318.225-.475.021-.059.03-.123.051-.182.1-.267.161-.538.233-.809.047-.178.114-.352.153-.53.008-.051.008-.1.017-.153.051-.284.072-.572.1-.864.017-.178.055-.356.064-.534l0-.237h0Z" transform="translate(-0.042 26.479)"/></g></g></g><g transform="translate(709.568 1180.495)"><path class="g" d="M542.089,590.861l-4.915,2.857.016-5.686-6.006-3.468-7.066,4.106.024-8.171-7.008-4.046-5.794,2.434.017-5.77-4.795-2.768-6.283,1.306.013-4.807v-.118h0l-4.777-2.757L492.027,566l.012-4.019v-.016h0l-30.254,17.582-.1-.06h0l.027.015.076.045,30.254-17.582-4.794-2.768-6.747,3.921.016-5.715c0,.022-.014.044-.015.066h0a3.115,3.115,0,0,0-.813-2.084c-.026-.032-.071-.063-.1-.094a7.034,7.034,0,0,0-.975-.937,12.821,12.821,0,0,0-1.536-1.027l-7.569-4.37-3.489,2.028.012-4.035h0l-4.8-2.768-6.747,3.921.016-5.684v-.031h0l0,.015c0,.017-.011.034-.011.05l0-.007a3.117,3.117,0,0,0-.812-2.077c-.026-.032-.071-.063-.1-.1a7.027,7.027,0,0,0-.975-.936,12.819,12.819,0,0,0-1.536-1.027l-3.784-2.185-3.785-2.185h0l-2.2,1.278-1.254.729.011-3.825v-.169h0l-2.694-1.556-1.556-.9h0l-1.782,1.036-3.151,1.831.016-5.706-6.006-3.467h0l-1.944,1.129-.981.57.006-2.081,0-1.3h0l-13.049-7.533h0L403,517.415l.013-4.757c0,.022-.014.044-.014.066a3.123,3.123,0,0,0-.814-2.086c-.014-.016-.038-.033-.051-.049a7.047,7.047,0,0,0-1.022-.981,12.77,12.77,0,0,0-1.413-.945c-.046-.027-.075-.055-.123-.082l-3.529-2.038-3.53-2.038h0l-30.254,17.582-.026,8.968,4.794,2.768,11.376-6.61,2.266,1.308c.234.135.47.231.706.351.341.176.682.365,1.025.512l-3.739,2.173-.025,8.968h0l6.524,3.766,6.524,3.767,2.925-1.7-.01,3.383h0l4.3,2.484,5.973-3.471-.02,6.908h0l4.918,2.838,3.453-2.006-.011,3.994,7.569,4.37a15.908,15.908,0,0,0,1.976.958c.048.019.1.05.143.069q.648.255,1.3.441c.046.013.091.021.137.034h0c.063.017.125.03.188.046.215.056.431.114.647.159.271.056.543.1.814.142.061.009.122.013.183.021.046.006.092.01.138.015.144.017.288.037.432.049.246.02.491.033.737.039h.005c.17,0,.34,0,.51,0h.119c.044,0,.087,0,.131,0,.285-.009.57-.029.856-.057.041,0,.082-.013.123-.018.175-.022.351-.047.526-.074h0c.079-.012.159-.02.239-.033.055-.01.111-.014.166-.024.244-.044.488-.127.732-.185l.079-.018-.012,4.31h0l4.794,2.768,3.489-2.027-.011,4.035h0l7.569,4.37a15.831,15.831,0,0,0,1.976.958c.048.019.1.05.143.069q.648.255,1.3.441c.045.013.09.021.135.033.063.018.127.031.189.047.216.056.432.115.648.159.271.057.543.1.814.142.042.006.084.009.125.014l.058.007c.046.006.091.01.137.015.144.017.289.037.433.049.246.02.491.033.737.039.171.005.342,0,.513,0h.12c.044,0,.088,0,.132,0,.285-.01.57-.03.855-.058.217-.022.433-.059.65-.091h0c.08-.012.16-.021.239-.034.056-.01.112-.014.167-.024.244-.044.488-.127.732-.184l.079-.019-.012,4.311,4.794,2.768,3.489-2.028-.012,3.993v.042h0l4.777,2.758,6.167-3.584-.02,7.133,4.917,2.839.9-1.21-.005,1.727h0l4.408,2.545,6.321-2.717,1.213.7-.018,6.356,4.83,2.789,2.186-1.756-.009,3.013h0l4.3,2.484,5.973-3.471,0,1.158-.016,5.75,1.8,1.039,3.117,1.8,30.255-17.581.025-8.969ZM480.361,558.09a2.742,2.742,0,0,1-.082.371c-.007.017-.017.035-.024.052l-.016.032A2.812,2.812,0,0,0,480.361,558.09Zm-.659,1.274c.034-.053.073-.107.111-.161l-.019.029a2.775,2.775,0,0,1-.192.293c-.009.011-.021.022-.03.033l-.008.009C479.621,559.5,479.65,559.432,479.7,559.364Zm-.967.995-.045.042c-.061.051-.1.1-.168.155l-.036.029C478.58,560.51,478.647,560.434,478.735,560.359Zm-82.7-20.4.01-3.382-.543-.314,1.109-.644,3.457,2Zm4.992-24.148-.038.032c.1-.077.165-.154.254-.231C401.163,515.677,401.106,515.744,401.023,515.81Zm1.2-1.217a1.252,1.252,0,0,1-.123.187c-.012.015-.027.028-.039.042.1-.122.165-.245.252-.368C402.283,514.5,402.261,514.547,402.226,514.593Zm.575-.974c-.012.032-.008.065-.021.1s-.017.035-.025.053l-.015.032a2.865,2.865,0,0,0,.122-.457C402.837,513.435,402.823,513.527,402.8,513.619Zm4.711,19.667.007-2.486,0-1.526,1.82-1.058,3.457,2Zm28.264,31.244h0l14.5-8.427Zm16.737-18.99-.018.014-.018.016c.092-.075.158-.149.245-.223C452.647,545.411,452.593,545.476,452.513,545.54Zm1.106-1.069c-.01.013-.015.026-.025.038l-.016.017-.024.025.01-.014c.1-.116.156-.232.238-.347C453.735,544.283,453.7,544.377,453.619,544.471Zm.668-1.1a.441.441,0,0,1-.017.077c-.012.028-.026.056-.039.084a2.723,2.723,0,0,0,.121-.454A2.606,2.606,0,0,1,454.287,543.368Zm35.522,44.566,1.379-1.853,5.742-1.139Z"/><path class="h" d="M542.089,590.861l-4.915,2.857.016-5.686-6.006-3.468-7.066,4.106.024-8.171-7.008-4.046-5.794,2.434.017-5.77-4.795-2.768-6.283,1.306.014-4.926-4.777-2.757L492.027,566l.012-4.035-30.254,17.582-.1-.06h0l.1.06,30.255-17.582-4.8-2.768-6.747,3.921.016-5.715c0,.022-.014.044-.015.066.041-1.4-1.071-2.786-3.422-4.143l-7.569-4.37-3.489,2.028.012-4.035h0l-4.8-2.768-6.747,3.921.016-5.715c0,.022-.014.044-.015.066.041-1.4-1.071-2.786-3.422-4.143l-7.569-4.37-3.453,2.007.011-3.994-4.25-2.454-4.933,2.867.016-5.706-6.006-3.467-2.925,1.7.01-3.383-13.049-7.533L403,517.415l.013-4.757c0,.022-.014.044-.014.066.04-1.4-1.072-2.786-3.423-4.143l-7.059-4.076-30.254,17.582-.026,8.969,4.794,2.767,11.376-6.61,2.266,1.308a16.23,16.23,0,0,0,1.732.863l-3.74,2.173-.025,8.968,13.048,7.534,2.925-1.7-.01,3.383,4.3,2.484,5.973-3.471-.02,6.908,4.918,2.839,3.453-2.006-.011,3.994,7.569,4.37a15.908,15.908,0,0,0,1.976.958c.048.019.1.05.143.069q.648.255,1.3.441c.046.013.091.021.137.034s.123.029.185.045c.216.056.433.115.65.16.271.056.543.1.814.142.061.009.122.013.183.021l.138.015c.144.017.288.037.432.049.246.02.491.033.737.039.172,0,.344,0,.516,0h.117c.044,0,.088,0,.132,0,.285-.009.57-.029.855-.057.217-.022.434-.059.65-.092.08-.011.16-.02.24-.033.055-.01.111-.014.166-.024.244-.044.488-.127.731-.184l.08-.019-.012,4.31,4.794,2.768,3.489-2.027-.011,4.035,7.569,4.37a15.831,15.831,0,0,0,1.976.958c.048.019.1.05.143.069q.648.255,1.3.441c.045.013.091.021.136.034.062.017.124.029.186.045.217.057.433.115.65.16.271.057.543.1.814.142.062.009.123.013.184.021.045.006.09.01.135.015.145.017.289.037.434.049.246.02.491.033.737.039.171.005.342,0,.513,0h.121c.044,0,.088,0,.131,0,.285-.01.57-.03.855-.058.217-.022.433-.059.65-.091.08-.012.16-.021.239-.034.056-.01.112-.014.167-.024.245-.044.49-.127.734-.185l.077-.018-.012,4.311,4.794,2.768,3.489-2.028-.012,4.035,4.777,2.758,6.167-3.584-.02,7.133,4.917,2.839.9-1.21-.005,1.727,4.408,2.545,6.321-2.718,1.213.7-.018,6.356,4.829,2.789,2.187-1.756-.009,3.013,4.3,2.484,5.973-3.471-.02,6.908,4.917,2.839,30.255-17.582.025-8.968Zm-63.566-30.306-.038.031c.1-.078.167-.156.258-.234C478.664,560.42,478.607,560.488,478.523,560.555Zm1.756-2.094c-.012.028-.027.056-.04.084a2.75,2.75,0,0,0,.122-.456A2.754,2.754,0,0,1,480.279,558.461Zm-.466.742c-.077.107-.12.215-.211.323-.011.013-.027.028-.039.042C479.667,559.446,479.727,559.324,479.813,559.2Zm-6.028-2.111a1.06,1.06,0,0,0-.274-.642A1.06,1.06,0,0,1,473.785,557.092Zm-.313-.68a3.355,3.355,0,0,0-.811-.623A3.355,3.355,0,0,1,473.472,556.412Zm-65.948-27.138,1.82-1.058,3.457,2-5.289,3.073Zm-6.5-13.464-.038.032c.1-.079.169-.158.261-.237C401.166,515.673,401.108,515.742,401.023,515.81Zm-4.416,19.808,3.457,2-4.033,2.344.009-3.382-.542-.314Zm55.906,9.922-.037.03c.1-.076.162-.152.251-.228C452.65,545.408,452.6,545.474,452.513,545.54Zm1.757-2.095c-.012.028-.026.056-.039.084a2.745,2.745,0,0,0,.121-.456A2.609,2.609,0,0,1,454.27,543.445Zm-.466.741a3.778,3.778,0,0,1-.211.323c-.011.014-.027.028-.039.042A4.237,4.237,0,0,0,453.8,544.186Zm-6.028-2.111a1.057,1.057,0,0,0-.274-.642A1.057,1.057,0,0,1,447.776,542.075Zm-.313-.679a3.329,3.329,0,0,0-.811-.623A3.329,3.329,0,0,1,447.463,541.4Zm-44.683-27.68c-.012.029-.028.057-.041.086a2.811,2.811,0,0,0,.123-.461A2.648,2.648,0,0,1,402.78,513.716Zm-.463.737c-.078.109-.122.218-.214.327-.012.015-.028.029-.04.043C402.169,514.7,402.229,514.576,402.317,514.453Zm-5.96-2.115a.982.982,0,0,0-.269-.6A.982.982,0,0,1,396.357,512.338Zm-.312-.643a3.458,3.458,0,0,0-.8-.6A3.458,3.458,0,0,1,396.045,511.7Zm39.73,52.834L461.12,549.8,435.776,564.53Zm55.413,21.552,5.742-1.139-7.121,2.992Z"/><g class="b"><path class="i" d="M395.249,511.1l-.025,8.969-2.266-1.308.025-8.969Z"/><g class="b"><g class="j"><g class="b"><path class="k" d="M396.376,512.382l-.025,8.969c0-.457-.408-.872-1.127-1.287l.025-8.968c.719.415,1.129.83,1.127,1.286"/></g></g></g><path class="l" d="M392.984,509.788l-.025,8.969-10.242,5.952.025-8.969Z"/><g class="b"><g class="m"><g class="b"><path class="n" d="M403.013,512.658l-.025,8.969v.065l.025-8.969v-.065"/><path class="o" d="M403.012,512.723l-.025,8.969a2.675,2.675,0,0,1-.05.433l.025-8.969a2.567,2.567,0,0,0,.05-.433"/><path class="p" d="M402.962,513.156l-.025,8.969a2.875,2.875,0,0,1-.128.443l.025-8.968a2.745,2.745,0,0,0,.128-.444"/><path class="q" d="M402.834,513.6l-.025,8.968a3.388,3.388,0,0,1-.227.483l.026-8.969a3.42,3.42,0,0,0,.226-.482"/><path class="r" d="M402.608,514.082l-.026,8.969a4.434,4.434,0,0,1-.39.576l.026-8.969a4.643,4.643,0,0,0,.39-.576"/><path class="s" d="M402.218,514.658l-.026,8.969a6.585,6.585,0,0,1-.706.754l.026-8.969a6.591,6.591,0,0,0,.706-.754"/><path class="t" d="M401.512,515.412l-.026,8.969a12.44,12.44,0,0,1-2.025,1.478l.025-8.968a12.493,12.493,0,0,0,2.026-1.479"/><path class="u" d="M399.486,516.891l-.025,8.968c-.087.053-.175.1-.265.157l.025-8.969c.09-.052.179-.1.265-.156"/></g></g></g><path class="l" d="M399.221,517.047l-.025,8.969L395.27,528.3l.025-8.969Z"/><path class="i" d="M380.7,519.552l-.025,8.969-2.265-1.308.025-8.969Z"/><g class="b"><g class="v"><g class="b"><path class="u" d="M395.3,519.329l-.026,8.968a17.238,17.238,0,0,1-3.346,1.514l.025-8.969a17.267,17.267,0,0,0,3.347-1.513"/><path class="t" d="M391.949,520.842l-.025,8.969a14.473,14.473,0,0,1-1.879.474l.025-8.968a14.447,14.447,0,0,0,1.879-.475"/><path class="s" d="M390.07,521.317l-.025,8.968c-.352.064-.7.113-1.055.149l.026-8.969q.527-.053,1.054-.148"/><path class="r" d="M389.016,521.465l-.026,8.969c-.284.028-.569.048-.854.057l.025-8.968q.428-.015.855-.058"/><path class="q" d="M388.161,521.523l-.025,8.968c-.255.009-.511.01-.766,0l.026-8.969c.255.007.51.005.765,0"/><path class="p" d="M387.4,521.526l-.026,8.969c-.246-.006-.491-.019-.737-.039l.025-8.969q.369.03.738.039"/><path class="o" d="M386.658,521.487l-.025,8.969c-.251-.021-.5-.049-.753-.085l.025-8.969q.377.054.753.085"/><path class="n" d="M385.9,521.4l-.025,8.969c-.272-.038-.544-.086-.815-.142l.025-8.969c.272.056.543.1.815.142"/><path class="w" d="M385.09,521.26l-.025,8.969q-.488-.1-.973-.24l.026-8.968c.323.092.648.172.972.239"/><path class="x" d="M384.118,521.021l-.026,8.968q-.651-.186-1.3-.441l.025-8.968q.648.255,1.3.441"/><path class="k" d="M382.818,520.58l-.025,8.968a15.9,15.9,0,0,1-2.12-1.027l.025-8.969a16.043,16.043,0,0,0,2.12,1.028"/></g></g></g><path class="l" d="M378.433,518.244l-.025,8.969-11.376,6.611.025-8.969Z"/><path class="y" d="M399.576,508.581c4.777,2.758,4.5,5.648-.355,8.466l-3.925,2.282c-4.833,2.808-9.821,2.981-14.6.223l-2.265-1.308-11.376,6.611-4.794-2.768,30.254-17.582Zm-9.371,8.152,4.536-2.636c2.164-1.257,2.019-2.129.508-3l-2.265-1.308-10.242,5.951,2.266,1.308c1.51.872,3.033.943,5.2-.314"/><path class="i" d="M367.057,524.855l-.025,8.969-4.794-2.768.025-8.969Z"/></g><g class="b"><path class="l" d="M421.968,521.509l-.025,8.969-4.327,2.515.025-8.969Z"/><path class="i" d="M417.641,524.023l-.025,8.969-8.272-4.776.025-8.969Z"/><path class="l" d="M409.369,519.248l-.025,8.969-8.427,4.9.025-8.969Z"/><path class="l" d="M407.527,527.947l-.025,8.969-4.309,2.5.025-8.969Z"/><path class="i" d="M403.218,530.452l-.025,8.969-6.586-3.8.025-8.969Z"/><path class="l" d="M396.632,526.649l-.025,8.969-8.863,5.151.025-8.969Z"/><path class="i" d="M391.714,539.09l-.025,8.969-13.048-7.534.025-8.969Z"/><path class="l" d="M396.041,536.576l-.025,8.969-4.327,2.515.025-8.969Z"/><path class="y" d="M421.968,521.509l-4.327,2.515-8.272-4.776-8.427,4.9,6.586,3.8-4.309,2.5-6.586-3.8-8.863,5.151,8.272,4.776-4.327,2.515-13.048-7.534,30.254-17.582Z"/></g><g class="b"><path class="l" d="M420.845,530.522l-.025,8.969-21.914,12.735.025-8.969Z"/><path class="z" d="M430.889,526.659l-.025,8.969L417.67,548.992l.025-8.969Z"/><path class="i" d="M398.931,543.258l-.025,8.969-4.3-2.484.025-8.969Z"/><path class="y" d="M440.056,531.952,409.8,549.534l-4.917-2.839,15.961-16.172-21.914,12.735-4.3-2.484,30.254-17.582,6.006,3.468L417.7,540.023,435.806,529.5Z"/><path class="l" d="M440.056,531.952l-.025,8.969L409.777,558.5l.025-8.969Z"/><path class="i" d="M409.8,549.534l-.025,8.969-4.917-2.839.025-8.969Z"/></g><g class="b"><path class="i" d="M446.652,540.773l-.025,8.969-2.7-1.561.025-8.969Z"/><g class="b"><g class="aa"><g class="b"><path class="k" d="M447.8,542.12l-.026,8.968c0-.483-.413-.925-1.142-1.346l.025-8.969c.73.421,1.144.863,1.143,1.347"/></g></g></g><g class="b"><g class="ab"><g class="b"><path class="n" d="M454.5,542.386l-.025,8.969,0,.065.026-8.969v-.065"/><path class="o" d="M454.5,542.451l-.026,8.969a2.565,2.565,0,0,1-.049.433l.025-8.969a2.555,2.555,0,0,0,.05-.433"/><path class="p" d="M454.453,542.884l-.025,8.969a2.966,2.966,0,0,1-.128.444l.025-8.969a2.747,2.747,0,0,0,.128-.444"/><path class="q" d="M454.325,543.328,454.3,552.3a3.431,3.431,0,0,1-.227.482l.026-8.969a3.482,3.482,0,0,0,.226-.482"/><path class="r" d="M454.1,543.81l-.026,8.969a4.429,4.429,0,0,1-.39.576l.026-8.969a4.645,4.645,0,0,0,.39-.576"/><path class="s" d="M453.709,544.386l-.026,8.969a6.508,6.508,0,0,1-.706.754l.026-8.968a6.681,6.681,0,0,0,.706-.755"/><path class="t" d="M453,545.141l-.026,8.968a12.471,12.471,0,0,1-2.025,1.479l.025-8.969A12.5,12.5,0,0,0,453,545.141"/><path class="u" d="M450.977,546.619l-.025,8.969-.265.156.025-8.968.265-.157"/></g></g></g><path class="l" d="M443.948,539.212l-.025,8.969-21.6,12.553.025-8.969Z"/><path class="l" d="M450.712,546.776l-.025,8.969L435.4,564.627l.025-8.969Z"/><path class="i" d="M420.813,555.891l-.025,8.969-7.569-4.37.025-8.969Z"/><path class="y" d="M451.067,538.309c4.777,2.758,4.5,5.648-.355,8.467l-15.284,8.882c-4.85,2.818-9.838,2.991-14.615.233l-7.569-4.37L443.5,533.939Zm-20.642,14.723,15.737-9.146c2.164-1.257,2.018-2.231.49-3.113l-2.7-1.561-21.6,12.552,2.7,1.562c1.528.882,3.209.963,5.373-.294"/><g class="b"><g class="ac"><g class="b"><path class="u" d="M435.428,555.658l-.025,8.969a17.355,17.355,0,0,1-3.364,1.521l.026-8.969a17.374,17.374,0,0,0,3.363-1.521"/><path class="t" d="M432.065,557.179l-.026,8.969a14.489,14.489,0,0,1-1.882.475l.026-8.969a14.363,14.363,0,0,0,1.882-.475"/><path class="s" d="M430.183,557.654l-.026,8.969q-.528.1-1.055.149l.025-8.969q.528-.052,1.056-.149"/><path class="r" d="M429.127,557.8l-.025,8.969c-.286.028-.571.048-.856.057l.026-8.968q.428-.015.855-.058"/><path class="q" d="M428.272,557.861l-.026,8.968q-.383.014-.765,0l.026-8.969c.255.007.51.005.765,0"/><path class="p" d="M427.507,557.864l-.026,8.969c-.246-.006-.491-.019-.737-.039l.026-8.969q.368.03.737.039"/><path class="o" d="M426.77,557.825l-.026,8.969q-.376-.031-.753-.085l.026-8.969c.251.036.5.064.753.085"/><path class="n" d="M426.017,557.74l-.026,8.969c-.271-.038-.543-.086-.814-.142l.026-8.968q.406.084.814.141"/><path class="w" d="M425.2,557.6l-.026,8.968q-.486-.1-.972-.239l.026-8.969c.323.093.647.172.972.24"/><path class="x" d="M424.231,557.359l-.026,8.969q-.651-.186-1.3-.441l.025-8.969q.648.255,1.3.441"/><path class="k" d="M422.932,556.918l-.025,8.969a15.954,15.954,0,0,1-2.119-1.027l.025-8.969a15.836,15.836,0,0,0,2.119,1.027"/></g></g></g></g><g class="b"><path class="y" d="M466.03,546.948,435.776,564.53l-4.794-2.768,30.254-17.582Z"/><path class="l" d="M466.03,546.948,466,555.917,435.75,573.5l.025-8.969Z"/><path class="i" d="M435.776,564.53l-.025,8.969-4.794-2.768.025-8.969Z"/></g><g class="b"><path class="i" d="M472.661,555.789l-.025,8.969-2.7-1.561.025-8.969Z"/><g class="b"><g class="ad"><g class="b"><path class="k" d="M473.8,557.136l-.025,8.969c0-.484-.413-.926-1.142-1.347l.025-8.969c.73.421,1.144.863,1.142,1.347"/></g></g></g><g class="b"><g class="ae"><g class="b"><path class="n" d="M480.513,557.4l-.026,8.969v.065l.026-8.969V557.4"/><path class="o" d="M480.512,557.467l-.026,8.969a2.554,2.554,0,0,1-.049.433l.025-8.969a2.544,2.544,0,0,0,.05-.433"/><path class="p" d="M480.462,557.9l-.025,8.969a2.964,2.964,0,0,1-.128.444l.025-8.969a2.855,2.855,0,0,0,.128-.444"/><path class="q" d="M480.334,558.344l-.025,8.969a3.49,3.49,0,0,1-.227.482l.026-8.969a3.43,3.43,0,0,0,.226-.482"/><path class="r" d="M480.108,558.826l-.026,8.969a4.426,4.426,0,0,1-.39.576l.026-8.969a4.638,4.638,0,0,0,.39-.576"/><path class="s" d="M479.718,559.4l-.026,8.969a6.585,6.585,0,0,1-.706.755l.026-8.969a6.591,6.591,0,0,0,.706-.755"/><path class="t" d="M479.012,560.157l-.026,8.969a12.528,12.528,0,0,1-2.025,1.478l.025-8.969a12.5,12.5,0,0,0,2.026-1.478"/><path class="u" d="M476.986,561.635l-.025,8.969-.265.157.025-8.969c.09-.052.178-.1.265-.157"/></g></g></g><path class="l" d="M469.957,554.228l-.025,8.969-21.6,12.552.025-8.969Z"/><path class="l" d="M476.721,561.792l-.025,8.969-15.284,8.882.025-8.969Z"/><path class="i" d="M446.822,570.907l-.025,8.969-7.569-4.37.025-8.969Z"/><path class="y" d="M477.076,553.325c4.777,2.758,4.5,5.648-.355,8.467l-15.284,8.882c-4.85,2.819-9.838,2.991-14.615.233l-7.569-4.37,30.254-17.582Zm-20.642,14.723,15.737-9.146c2.164-1.257,2.018-2.231.49-3.113l-2.7-1.561-21.6,12.552,2.7,1.562c1.528.882,3.209.963,5.373-.294"/><g class="b"><g class="af"><g class="b"><path class="u" d="M461.437,570.674l-.025,8.969a17.381,17.381,0,0,1-3.364,1.521l.026-8.969a17.374,17.374,0,0,0,3.363-1.521"/><path class="t" d="M458.074,572.2l-.026,8.969a14.322,14.322,0,0,1-1.882.475l.026-8.968a14.576,14.576,0,0,0,1.882-.476"/><path class="s" d="M456.192,572.671l-.026,8.968q-.528.1-1.056.149l.026-8.969c.352-.035.7-.085,1.056-.148"/><path class="r" d="M455.136,572.819l-.026,8.969q-.427.043-.855.058l.026-8.969q.428-.015.855-.058"/><path class="q" d="M454.281,572.877l-.026,8.969c-.255.008-.51.01-.765,0l.025-8.968q.382.009.766,0"/><path class="p" d="M453.515,572.881l-.025,8.968c-.246-.006-.491-.019-.737-.039l.025-8.969c.246.02.492.034.737.04"/><path class="o" d="M452.778,572.841l-.025,8.969q-.376-.031-.753-.085l.026-8.968q.375.052.752.084"/><path class="n" d="M452.026,572.757,452,581.725c-.271-.038-.543-.085-.814-.142l.026-8.968q.406.084.814.142"/><path class="w" d="M451.212,572.615l-.026,8.968c-.324-.067-.648-.146-.972-.239l.026-8.969q.484.14.972.24"/><path class="x" d="M450.24,572.375l-.026,8.969q-.651-.186-1.3-.441l.025-8.969q.648.255,1.3.441"/><path class="k" d="M448.941,571.934l-.025,8.969a15.829,15.829,0,0,1-2.119-1.027l.025-8.969a15.709,15.709,0,0,0,2.119,1.027"/></g></g></g></g><g class="b"><path class="y" d="M492.039,561.964l-30.254,17.582-4.794-2.768L487.244,559.2Z"/><path class="l" d="M492.039,561.964l-.025,8.969-30.254,17.582.025-8.969Z"/><path class="i" d="M461.785,579.546l-.025,8.969-4.794-2.768.025-8.969Z"/></g><g class="b"><path class="l" d="M500.293,566.73l-.025,8.969-13.19,7.665.025-8.969Z"/><path class="ag" d="M511.357,573.117l-.025,8.969-20.143,3.995.025-8.969Z"/><path class="ah" d="M483.588,578.167l-.025,8.969-4.249.74.025-8.969Z"/><path class="l" d="M479.338,578.907l-.025,8.969-9.3,5.4.025-8.969Z"/><path class="i" d="M470.039,584.311l-.025,8.969-4.777-2.758.025-8.969Z"/><path class="i" d="M481.1,590.7l-.025,8.969-4.917-2.839.025-8.969Z"/><path class="y" d="M511.357,573.117l-20.143,3.995L481.1,590.7l-4.917-2.839,7.4-9.693-4.249.74-9.3,5.4-4.777-2.758,30.254-17.582,4.777,2.758-13.19,7.665,19.46-4.046Z"/><path class="ai" d="M491.214,577.112l-.025,8.969-10.111,13.587.025-8.969Z"/></g><g class="b"><path class="l" d="M515.044,581.452l-.025,8.969-17.62,7.554.025-8.969Z"/><path class="l" d="M492.727,591.044l-.025,8.969-6.321,2.717.025-8.969Z"/><path class="i" d="M486.406,593.761l-.025,8.969-4.408-2.545.025-8.969Z"/><path class="i" d="M498.593,594.43l-.025,8.969-5.866-3.386.025-8.969Z"/><path class="y" d="M524.141,580.5l-25.389,20.39-4.83-2.788,4.671-3.671-5.866-3.386-6.321,2.717L482,591.216l35.136-14.763Zm-26.716,8.507,4.619,2.666,13-10.22-17.619,7.554"/><path class="aj" d="M524.141,580.5l-.025,8.969-25.39,20.39.025-8.969Z"/><path class="i" d="M498.752,600.889l-.025,8.969-4.829-2.788.025-8.969Z"/></g><g class="b"><path class="l" d="M527.146,591.9l-.025,8.969L505.207,613.6l.025-8.969Z"/><path class="z" d="M537.19,588.032,537.164,597l-13.211,13.354.025-8.969Z"/><path class="i" d="M505.232,604.63l-.025,8.969-4.3-2.484.025-8.969Z"/><path class="y" d="M546.357,593.325,516.1,610.906l-4.917-2.839L527.146,591.9,505.232,604.63l-4.3-2.484,30.254-17.582,6.006,3.468-13.211,13.354,18.111-10.525Z"/><path class="l" d="M546.357,593.325l-.025,8.969-30.254,17.582.025-8.969Z"/><path class="i" d="M516.1,610.906l-.025,8.969-4.917-2.839.025-8.969Z"/></g><path class="h" d="M542.089,590.861l-4.915,2.857.016-5.686-6.006-3.468-7.066,4.106.024-8.171-7.008-4.046-5.794,2.434.017-5.77-4.795-2.768-6.283,1.306.014-4.926-4.777-2.757L492.027,566l.012-4.035-30.254,17.582-.1-.06h0l.1.06,30.255-17.582-4.8-2.768-6.747,3.921.016-5.715c0,.022-.014.044-.015.066.041-1.4-1.071-2.786-3.422-4.143l-7.569-4.37-3.489,2.028.012-4.035h0l-4.8-2.768-6.747,3.921.016-5.715c0,.022-.014.044-.015.066.041-1.4-1.071-2.786-3.422-4.143l-7.569-4.37-3.453,2.007.011-3.994-4.25-2.454-4.933,2.867.016-5.706-6.006-3.467-2.925,1.7.01-3.383-13.049-7.533L403,517.415l.013-4.757c0,.022-.014.044-.014.066.04-1.4-1.072-2.786-3.423-4.143l-7.059-4.076-30.254,17.582-.026,8.969,4.794,2.767,11.376-6.61,2.266,1.308a16.23,16.23,0,0,0,1.732.863l-3.74,2.173-.025,8.968,13.048,7.534,2.925-1.7-.01,3.383,4.3,2.484,5.973-3.471-.02,6.908,4.918,2.839,3.453-2.006-.011,3.994,7.569,4.37a15.908,15.908,0,0,0,1.976.958c.048.019.1.05.143.069q.648.255,1.3.441c.046.013.091.021.137.034s.123.029.185.045c.216.056.433.115.65.16.271.056.543.1.814.142.061.009.122.013.183.021l.138.015c.144.017.288.037.432.049.246.02.491.033.737.039.172,0,.344,0,.516,0h.117c.044,0,.088,0,.132,0,.285-.009.57-.029.855-.057.217-.022.434-.059.65-.092.08-.011.16-.02.24-.033.055-.01.111-.014.166-.024.244-.044.488-.127.731-.184l.08-.019-.012,4.31,4.794,2.768,3.489-2.027-.011,4.035,7.569,4.37a15.831,15.831,0,0,0,1.976.958c.048.019.1.05.143.069q.648.255,1.3.441c.045.013.091.021.136.034.062.017.124.029.186.045.217.057.433.115.65.16.271.057.543.1.814.142.062.009.123.013.184.021.045.006.09.01.135.015.145.017.289.037.434.049.246.02.491.033.737.039.171.005.342,0,.513,0h.121c.044,0,.088,0,.131,0,.285-.01.57-.03.855-.058.217-.022.433-.059.65-.091.08-.012.16-.021.239-.034.056-.01.112-.014.167-.024.245-.044.49-.127.734-.185l.077-.018-.012,4.311,4.794,2.768,3.489-2.028-.012,4.035,4.777,2.758,6.167-3.584-.02,7.133,4.917,2.839.9-1.21-.005,1.727,4.408,2.545,6.321-2.718,1.213.7-.018,6.356,4.829,2.789,2.187-1.756-.009,3.013,4.3,2.484,5.973-3.471-.02,6.908,4.917,2.839,30.255-17.582.025-8.968Zm-63.566-30.306-.038.031c.1-.078.167-.156.258-.234C478.664,560.42,478.607,560.488,478.523,560.555Zm1.756-2.094c-.012.028-.027.056-.04.084a2.75,2.75,0,0,0,.122-.456A2.754,2.754,0,0,1,480.279,558.461Zm-.466.742c-.077.107-.12.215-.211.323-.011.013-.027.028-.039.042C479.667,559.446,479.727,559.324,479.813,559.2Zm-6.028-2.111a1.06,1.06,0,0,0-.274-.642A1.06,1.06,0,0,1,473.785,557.092Zm-.313-.68a3.355,3.355,0,0,0-.811-.623A3.355,3.355,0,0,1,473.472,556.412Zm-65.948-27.138,1.82-1.058,3.457,2-5.289,3.073Zm-6.5-13.464-.038.032c.1-.079.169-.158.261-.237C401.166,515.673,401.108,515.742,401.023,515.81Zm-4.416,19.808,3.457,2-4.033,2.344.009-3.382-.542-.314Zm55.906,9.922-.037.03c.1-.076.162-.152.251-.228C452.65,545.408,452.6,545.474,452.513,545.54Zm1.757-2.095c-.012.028-.026.056-.039.084a2.745,2.745,0,0,0,.121-.456A2.609,2.609,0,0,1,454.27,543.445Zm-.466.741a3.778,3.778,0,0,1-.211.323c-.011.014-.027.028-.039.042A4.237,4.237,0,0,0,453.8,544.186Zm-6.028-2.111a1.057,1.057,0,0,0-.274-.642A1.057,1.057,0,0,1,447.776,542.075Zm-.313-.679a3.329,3.329,0,0,0-.811-.623A3.329,3.329,0,0,1,447.463,541.4Zm-44.683-27.68c-.012.029-.028.057-.041.086a2.811,2.811,0,0,0,.123-.461A2.648,2.648,0,0,1,402.78,513.716Zm-.463.737c-.078.109-.122.218-.214.327-.012.015-.028.029-.04.043C402.169,514.7,402.229,514.576,402.317,514.453Zm-5.96-2.115a.982.982,0,0,0-.269-.6A.982.982,0,0,1,396.357,512.338Zm-.312-.643a3.458,3.458,0,0,0-.8-.6A3.458,3.458,0,0,1,396.045,511.7Zm39.73,52.834L461.12,549.8,435.776,564.53Zm55.413,21.552,5.742-1.139-7.121,2.992Z"/><g class="b"><path class="i" d="M395.249,511.1l-.025,8.969-2.266-1.308.025-8.969Z"/><g class="b"><g class="j"><g class="b"><path class="k" d="M396.376,512.382l-.025,8.969c0-.457-.408-.872-1.127-1.287l.025-8.968c.719.415,1.129.83,1.127,1.286"/></g></g></g><path class="l" d="M392.984,509.788l-.025,8.969-10.242,5.952.025-8.969Z"/><g class="b"><g class="m"><g class="b"><path class="n" d="M403.013,512.658l-.025,8.969v.065l.025-8.969v-.065"/><path class="o" d="M403.012,512.723l-.025,8.969a2.675,2.675,0,0,1-.05.433l.025-8.969a2.567,2.567,0,0,0,.05-.433"/><path class="p" d="M402.962,513.156l-.025,8.969a2.875,2.875,0,0,1-.128.443l.025-8.968a2.745,2.745,0,0,0,.128-.444"/><path class="q" d="M402.834,513.6l-.025,8.968a3.388,3.388,0,0,1-.227.483l.026-8.969a3.42,3.42,0,0,0,.226-.482"/><path class="r" d="M402.608,514.082l-.026,8.969a4.434,4.434,0,0,1-.39.576l.026-8.969a4.643,4.643,0,0,0,.39-.576"/><path class="s" d="M402.218,514.658l-.026,8.969a6.585,6.585,0,0,1-.706.754l.026-8.969a6.591,6.591,0,0,0,.706-.754"/><path class="t" d="M401.512,515.412l-.026,8.969a12.44,12.44,0,0,1-2.025,1.478l.025-8.968a12.493,12.493,0,0,0,2.026-1.479"/><path class="u" d="M399.486,516.891l-.025,8.968c-.087.053-.175.1-.265.157l.025-8.969c.09-.052.179-.1.265-.156"/></g></g></g><path class="l" d="M399.221,517.047l-.025,8.969L395.27,528.3l.025-8.969Z"/><path class="i" d="M380.7,519.552l-.025,8.969-2.265-1.308.025-8.969Z"/><g class="b"><g class="v"><g class="b"><path class="u" d="M395.3,519.329l-.026,8.968a17.238,17.238,0,0,1-3.346,1.514l.025-8.969a17.267,17.267,0,0,0,3.347-1.513"/><path class="t" d="M391.949,520.842l-.025,8.969a14.473,14.473,0,0,1-1.879.474l.025-8.968a14.447,14.447,0,0,0,1.879-.475"/><path class="s" d="M390.07,521.317l-.025,8.968c-.352.064-.7.113-1.055.149l.026-8.969q.527-.053,1.054-.148"/><path class="r" d="M389.016,521.465l-.026,8.969c-.284.028-.569.048-.854.057l.025-8.968q.428-.015.855-.058"/><path class="q" d="M388.161,521.523l-.025,8.968c-.255.009-.511.01-.766,0l.026-8.969c.255.007.51.005.765,0"/><path class="p" d="M387.4,521.526l-.026,8.969c-.246-.006-.491-.019-.737-.039l.025-8.969q.369.03.738.039"/><path class="o" d="M386.658,521.487l-.025,8.969c-.251-.021-.5-.049-.753-.085l.025-8.969q.377.054.753.085"/><path class="n" d="M385.9,521.4l-.025,8.969c-.272-.038-.544-.086-.815-.142l.025-8.969c.272.056.543.1.815.142"/><path class="w" d="M385.09,521.26l-.025,8.969q-.488-.1-.973-.24l.026-8.968c.323.092.648.172.972.239"/><path class="x" d="M384.118,521.021l-.026,8.968q-.651-.186-1.3-.441l.025-8.968q.648.255,1.3.441"/><path class="k" d="M382.818,520.58l-.025,8.968a15.9,15.9,0,0,1-2.12-1.027l.025-8.969a16.043,16.043,0,0,0,2.12,1.028"/></g></g></g><path class="l" d="M378.433,518.244l-.025,8.969-11.376,6.611.025-8.969Z"/><path class="y" d="M399.576,508.581c4.777,2.758,4.5,5.648-.355,8.466l-3.925,2.282c-4.833,2.808-9.821,2.981-14.6.223l-2.265-1.308-11.376,6.611-4.794-2.768,30.254-17.582Zm-9.371,8.152,4.536-2.636c2.164-1.257,2.019-2.129.508-3l-2.265-1.308-10.242,5.951,2.266,1.308c1.51.872,3.033.943,5.2-.314"/><path class="i" d="M367.057,524.855l-.025,8.969-4.794-2.768.025-8.969Z"/></g><g class="b"><path class="l" d="M421.968,521.509l-.025,8.969-4.327,2.515.025-8.969Z"/><path class="i" d="M417.641,524.023l-.025,8.969-8.272-4.776.025-8.969Z"/><path class="l" d="M409.369,519.248l-.025,8.969-8.427,4.9.025-8.969Z"/><path class="l" d="M407.527,527.947l-.025,8.969-4.309,2.5.025-8.969Z"/><path class="i" d="M403.218,530.452l-.025,8.969-6.586-3.8.025-8.969Z"/><path class="l" d="M396.632,526.649l-.025,8.969-8.863,5.151.025-8.969Z"/><path class="i" d="M391.714,539.09l-.025,8.969-13.048-7.534.025-8.969Z"/><path class="l" d="M396.041,536.576l-.025,8.969-4.327,2.515.025-8.969Z"/><path class="y" d="M421.968,521.509l-4.327,2.515-8.272-4.776-8.427,4.9,6.586,3.8-4.309,2.5-6.586-3.8-8.863,5.151,8.272,4.776-4.327,2.515-13.048-7.534,30.254-17.582Z"/></g><g class="b"><path class="l" d="M420.845,530.522l-.025,8.969-21.914,12.735.025-8.969Z"/><path class="z" d="M430.889,526.659l-.025,8.969L417.67,548.992l.025-8.969Z"/><path class="i" d="M398.931,543.258l-.025,8.969-4.3-2.484.025-8.969Z"/><path class="y" d="M440.056,531.952,409.8,549.534l-4.917-2.839,15.961-16.172-21.914,12.735-4.3-2.484,30.254-17.582,6.006,3.468L417.7,540.023,435.806,529.5Z"/><path class="l" d="M440.056,531.952l-.025,8.969L409.777,558.5l.025-8.969Z"/><path class="i" d="M409.8,549.534l-.025,8.969-4.917-2.839.025-8.969Z"/></g><g class="b"><path class="i" d="M446.652,540.773l-.025,8.969-2.7-1.561.025-8.969Z"/><g class="b"><g class="aa"><g class="b"><path class="k" d="M447.8,542.12l-.026,8.968c0-.483-.413-.925-1.142-1.346l.025-8.969c.73.421,1.144.863,1.143,1.347"/></g></g></g><g class="b"><g class="ab"><g class="b"><path class="n" d="M454.5,542.386l-.025,8.969,0,.065.026-8.969v-.065"/><path class="o" d="M454.5,542.451l-.026,8.969a2.565,2.565,0,0,1-.049.433l.025-8.969a2.555,2.555,0,0,0,.05-.433"/><path class="p" d="M454.453,542.884l-.025,8.969a2.966,2.966,0,0,1-.128.444l.025-8.969a2.747,2.747,0,0,0,.128-.444"/><path class="q" d="M454.325,543.328,454.3,552.3a3.431,3.431,0,0,1-.227.482l.026-8.969a3.482,3.482,0,0,0,.226-.482"/><path class="r" d="M454.1,543.81l-.026,8.969a4.429,4.429,0,0,1-.39.576l.026-8.969a4.645,4.645,0,0,0,.39-.576"/><path class="s" d="M453.709,544.386l-.026,8.969a6.508,6.508,0,0,1-.706.754l.026-8.968a6.681,6.681,0,0,0,.706-.755"/><path class="t" d="M453,545.141l-.026,8.968a12.471,12.471,0,0,1-2.025,1.479l.025-8.969A12.5,12.5,0,0,0,453,545.141"/><path class="u" d="M450.977,546.619l-.025,8.969-.265.156.025-8.968.265-.157"/></g></g></g><path class="l" d="M443.948,539.212l-.025,8.969-21.6,12.553.025-8.969Z"/><path class="l" d="M450.712,546.776l-.025,8.969L435.4,564.627l.025-8.969Z"/><path class="i" d="M420.813,555.891l-.025,8.969-7.569-4.37.025-8.969Z"/><path class="y" d="M451.067,538.309c4.777,2.758,4.5,5.648-.355,8.467l-15.284,8.882c-4.85,2.818-9.838,2.991-14.615.233l-7.569-4.37L443.5,533.939Zm-20.642,14.723,15.737-9.146c2.164-1.257,2.018-2.231.49-3.113l-2.7-1.561-21.6,12.552,2.7,1.562c1.528.882,3.209.963,5.373-.294"/><g class="b"><g class="ac"><g class="b"><path class="u" d="M435.428,555.658l-.025,8.969a17.355,17.355,0,0,1-3.364,1.521l.026-8.969a17.374,17.374,0,0,0,3.363-1.521"/><path class="t" d="M432.065,557.179l-.026,8.969a14.489,14.489,0,0,1-1.882.475l.026-8.969a14.363,14.363,0,0,0,1.882-.475"/><path class="s" d="M430.183,557.654l-.026,8.969q-.528.1-1.055.149l.025-8.969q.528-.052,1.056-.149"/><path class="r" d="M429.127,557.8l-.025,8.969c-.286.028-.571.048-.856.057l.026-8.968q.428-.015.855-.058"/><path class="q" d="M428.272,557.861l-.026,8.968q-.383.014-.765,0l.026-8.969c.255.007.51.005.765,0"/><path class="p" d="M427.507,557.864l-.026,8.969c-.246-.006-.491-.019-.737-.039l.026-8.969q.368.03.737.039"/><path class="o" d="M426.77,557.825l-.026,8.969q-.376-.031-.753-.085l.026-8.969c.251.036.5.064.753.085"/><path class="n" d="M426.017,557.74l-.026,8.969c-.271-.038-.543-.086-.814-.142l.026-8.968q.406.084.814.141"/><path class="w" d="M425.2,557.6l-.026,8.968q-.486-.1-.972-.239l.026-8.969c.323.093.647.172.972.24"/><path class="x" d="M424.231,557.359l-.026,8.969q-.651-.186-1.3-.441l.025-8.969q.648.255,1.3.441"/><path class="k" d="M422.932,556.918l-.025,8.969a15.954,15.954,0,0,1-2.119-1.027l.025-8.969a15.836,15.836,0,0,0,2.119,1.027"/></g></g></g></g><g class="b"><path class="y" d="M466.03,546.948,435.776,564.53l-4.794-2.768,30.254-17.582Z"/><path class="l" d="M466.03,546.948,466,555.917,435.75,573.5l.025-8.969Z"/><path class="i" d="M435.776,564.53l-.025,8.969-4.794-2.768.025-8.969Z"/></g><g class="b"><path class="i" d="M472.661,555.789l-.025,8.969-2.7-1.561.025-8.969Z"/><g class="b"><g class="ad"><g class="b"><path class="k" d="M473.8,557.136l-.025,8.969c0-.484-.413-.926-1.142-1.347l.025-8.969c.73.421,1.144.863,1.142,1.347"/></g></g></g><g class="b"><g class="ae"><g class="b"><path class="n" d="M480.513,557.4l-.026,8.969v.065l.026-8.969V557.4"/><path class="o" d="M480.512,557.467l-.026,8.969a2.554,2.554,0,0,1-.049.433l.025-8.969a2.544,2.544,0,0,0,.05-.433"/><path class="p" d="M480.462,557.9l-.025,8.969a2.964,2.964,0,0,1-.128.444l.025-8.969a2.855,2.855,0,0,0,.128-.444"/><path class="q" d="M480.334,558.344l-.025,8.969a3.49,3.49,0,0,1-.227.482l.026-8.969a3.43,3.43,0,0,0,.226-.482"/><path class="r" d="M480.108,558.826l-.026,8.969a4.426,4.426,0,0,1-.39.576l.026-8.969a4.638,4.638,0,0,0,.39-.576"/><path class="s" d="M479.718,559.4l-.026,8.969a6.585,6.585,0,0,1-.706.755l.026-8.969a6.591,6.591,0,0,0,.706-.755"/><path class="t" d="M479.012,560.157l-.026,8.969a12.528,12.528,0,0,1-2.025,1.478l.025-8.969a12.5,12.5,0,0,0,2.026-1.478"/><path class="u" d="M476.986,561.635l-.025,8.969-.265.157.025-8.969c.09-.052.178-.1.265-.157"/></g></g></g><path class="l" d="M469.957,554.228l-.025,8.969-21.6,12.552.025-8.969Z"/><path class="l" d="M476.721,561.792l-.025,8.969-15.284,8.882.025-8.969Z"/><path class="i" d="M446.822,570.907l-.025,8.969-7.569-4.37.025-8.969Z"/><path class="y" d="M477.076,553.325c4.777,2.758,4.5,5.648-.355,8.467l-15.284,8.882c-4.85,2.819-9.838,2.991-14.615.233l-7.569-4.37,30.254-17.582Zm-20.642,14.723,15.737-9.146c2.164-1.257,2.018-2.231.49-3.113l-2.7-1.561-21.6,12.552,2.7,1.562c1.528.882,3.209.963,5.373-.294"/><g class="b"><g class="af"><g class="b"><path class="u" d="M461.437,570.674l-.025,8.969a17.381,17.381,0,0,1-3.364,1.521l.026-8.969a17.374,17.374,0,0,0,3.363-1.521"/><path class="t" d="M458.074,572.2l-.026,8.969a14.322,14.322,0,0,1-1.882.475l.026-8.968a14.576,14.576,0,0,0,1.882-.476"/><path class="s" d="M456.192,572.671l-.026,8.968q-.528.1-1.056.149l.026-8.969c.352-.035.7-.085,1.056-.148"/><path class="r" d="M455.136,572.819l-.026,8.969q-.427.043-.855.058l.026-8.969q.428-.015.855-.058"/><path class="q" d="M454.281,572.877l-.026,8.969c-.255.008-.51.01-.765,0l.025-8.968q.382.009.766,0"/><path class="p" d="M453.515,572.881l-.025,8.968c-.246-.006-.491-.019-.737-.039l.025-8.969c.246.02.492.034.737.04"/><path class="o" d="M452.778,572.841l-.025,8.969q-.376-.031-.753-.085l.026-8.968q.375.052.752.084"/><path class="n" d="M452.026,572.757,452,581.725c-.271-.038-.543-.085-.814-.142l.026-8.968q.406.084.814.142"/><path class="w" d="M451.212,572.615l-.026,8.968c-.324-.067-.648-.146-.972-.239l.026-8.969q.484.14.972.24"/><path class="x" d="M450.24,572.375l-.026,8.969q-.651-.186-1.3-.441l.025-8.969q.648.255,1.3.441"/><path class="k" d="M448.941,571.934l-.025,8.969a15.829,15.829,0,0,1-2.119-1.027l.025-8.969a15.709,15.709,0,0,0,2.119,1.027"/></g></g></g></g><g class="b"><path class="y" d="M492.039,561.964l-30.254,17.582-4.794-2.768L487.244,559.2Z"/><path class="l" d="M492.039,561.964l-.025,8.969-30.254,17.582.025-8.969Z"/><path class="i" d="M461.785,579.546l-.025,8.969-4.794-2.768.025-8.969Z"/></g><g class="b"><path class="l" d="M500.293,566.73l-.025,8.969-13.19,7.665.025-8.969Z"/><path class="ag" d="M511.357,573.117l-.025,8.969-20.143,3.995.025-8.969Z"/><path class="ah" d="M483.588,578.167l-.025,8.969-4.249.74.025-8.969Z"/><path class="l" d="M479.338,578.907l-.025,8.969-9.3,5.4.025-8.969Z"/><path class="i" d="M470.039,584.311l-.025,8.969-4.777-2.758.025-8.969Z"/><path class="i" d="M481.1,590.7l-.025,8.969-4.917-2.839.025-8.969Z"/><path class="y" d="M511.357,573.117l-20.143,3.995L481.1,590.7l-4.917-2.839,7.4-9.693-4.249.74-9.3,5.4-4.777-2.758,30.254-17.582,4.777,2.758-13.19,7.665,19.46-4.046Z"/><path class="ai" d="M491.214,577.112l-.025,8.969-10.111,13.587.025-8.969Z"/></g><g class="b"><path class="l" d="M515.044,581.452l-.025,8.969-17.62,7.554.025-8.969Z"/><path class="l" d="M492.727,591.044l-.025,8.969-6.321,2.717.025-8.969Z"/><path class="i" d="M486.406,593.761l-.025,8.969-4.408-2.545.025-8.969Z"/><path class="i" d="M498.593,594.43l-.025,8.969-5.866-3.386.025-8.969Z"/><path class="y" d="M524.141,580.5l-25.389,20.39-4.83-2.788,4.671-3.671-5.866-3.386-6.321,2.717L482,591.216l35.136-14.763Zm-26.716,8.507,4.619,2.666,13-10.22-17.619,7.554"/><path class="aj" d="M524.141,580.5l-.025,8.969-25.39,20.39.025-8.969Z"/><path class="i" d="M498.752,600.889l-.025,8.969-4.829-2.788.025-8.969Z"/></g><g class="b"><path class="l" d="M527.146,591.9l-.025,8.969L505.207,613.6l.025-8.969Z"/><path class="z" d="M537.19,588.032,537.164,597l-13.211,13.354.025-8.969Z"/><path class="i" d="M505.232,604.63l-.025,8.969-4.3-2.484.025-8.969Z"/><path class="y" d="M546.357,593.325,516.1,610.906l-4.917-2.839L527.146,591.9,505.232,604.63l-4.3-2.484,30.254-17.582,6.006,3.468-13.211,13.354,18.111-10.525Z"/><path class="l" d="M546.357,593.325l-.025,8.969-30.254,17.582.025-8.969Z"/><path class="i" d="M516.1,610.906l-.025,8.969-4.917-2.839.025-8.969Z"/></g><path class="h" d="M542.089,590.861l-4.915,2.857.016-5.686-6.006-3.468-7.066,4.106.024-8.171-7.008-4.046-5.794,2.434.017-5.77-4.795-2.768-6.283,1.306.014-4.926-4.777-2.757L492.027,566l.012-4.035-30.254,17.582-.1-.06h0l.1.06,30.255-17.582-4.8-2.768-6.747,3.921.016-5.715c0,.022-.014.044-.015.066.041-1.4-1.071-2.786-3.422-4.143l-7.569-4.37-3.489,2.028.012-4.035h0l-4.8-2.768-6.747,3.921.016-5.715c0,.022-.014.044-.015.066.041-1.4-1.071-2.786-3.422-4.143l-7.569-4.37-3.453,2.007.011-3.994-4.25-2.454-4.933,2.867.016-5.706-6.006-3.467-2.925,1.7.01-3.383-13.049-7.533L403,517.415l.013-4.757c0,.022-.014.044-.014.066.04-1.4-1.072-2.786-3.423-4.143l-7.059-4.076-30.254,17.582-.026,8.969,4.794,2.767,11.376-6.61,2.266,1.308a16.23,16.23,0,0,0,1.732.863l-3.74,2.173-.025,8.968,13.048,7.534,2.925-1.7-.01,3.383,4.3,2.484,5.973-3.471-.02,6.908,4.918,2.839,3.453-2.006-.011,3.994,7.569,4.37a15.908,15.908,0,0,0,1.976.958c.048.019.1.05.143.069q.648.255,1.3.441c.046.013.091.021.137.034s.123.029.185.045c.216.056.433.115.65.16.271.056.543.1.814.142.061.009.122.013.183.021l.138.015c.144.017.288.037.432.049.246.02.491.033.737.039.172,0,.344,0,.516,0h.117c.044,0,.088,0,.132,0,.285-.009.57-.029.855-.057.217-.022.434-.059.65-.092.08-.011.16-.02.24-.033.055-.01.111-.014.166-.024.244-.044.488-.127.731-.184l.08-.019-.012,4.31,4.794,2.768,3.489-2.027-.011,4.035,7.569,4.37a15.831,15.831,0,0,0,1.976.958c.048.019.1.05.143.069q.648.255,1.3.441c.045.013.091.021.136.034.062.017.124.029.186.045.217.057.433.115.65.16.271.057.543.1.814.142.062.009.123.013.184.021.045.006.09.01.135.015.145.017.289.037.434.049.246.02.491.033.737.039.171.005.342,0,.513,0h.121c.044,0,.088,0,.131,0,.285-.01.57-.03.855-.058.217-.022.433-.059.65-.091.08-.012.16-.021.239-.034.056-.01.112-.014.167-.024.245-.044.49-.127.734-.185l.077-.018-.012,4.311,4.794,2.768,3.489-2.028-.012,4.035,4.777,2.758,6.167-3.584-.02,7.133,4.917,2.839.9-1.21-.005,1.727,4.408,2.545,6.321-2.718,1.213.7-.018,6.356,4.829,2.789,2.187-1.756-.009,3.013,4.3,2.484,5.973-3.471-.02,6.908,4.917,2.839,30.255-17.582.025-8.968Zm-63.566-30.306-.038.031c.1-.078.167-.156.258-.234C478.664,560.42,478.607,560.488,478.523,560.555Zm1.756-2.094c-.012.028-.027.056-.04.084a2.75,2.75,0,0,0,.122-.456A2.754,2.754,0,0,1,480.279,558.461Zm-.466.742c-.077.107-.12.215-.211.323-.011.013-.027.028-.039.042C479.667,559.446,479.727,559.324,479.813,559.2Zm-6.028-2.111a1.06,1.06,0,0,0-.274-.642A1.06,1.06,0,0,1,473.785,557.092Zm-.313-.68a3.355,3.355,0,0,0-.811-.623A3.355,3.355,0,0,1,473.472,556.412Zm-65.948-27.138,1.82-1.058,3.457,2-5.289,3.073Zm-6.5-13.464-.038.032c.1-.079.169-.158.261-.237C401.166,515.673,401.108,515.742,401.023,515.81Zm-4.416,19.808,3.457,2-4.033,2.344.009-3.382-.542-.314Zm55.906,9.922-.037.03c.1-.076.162-.152.251-.228C452.65,545.408,452.6,545.474,452.513,545.54Zm1.757-2.095c-.012.028-.026.056-.039.084a2.745,2.745,0,0,0,.121-.456A2.609,2.609,0,0,1,454.27,543.445Zm-.466.741a3.778,3.778,0,0,1-.211.323c-.011.014-.027.028-.039.042A4.237,4.237,0,0,0,453.8,544.186Zm-6.028-2.111a1.057,1.057,0,0,0-.274-.642A1.057,1.057,0,0,1,447.776,542.075Zm-.313-.679a3.329,3.329,0,0,0-.811-.623A3.329,3.329,0,0,1,447.463,541.4Zm-44.683-27.68c-.012.029-.028.057-.041.086a2.811,2.811,0,0,0,.123-.461A2.648,2.648,0,0,1,402.78,513.716Zm-.463.737c-.078.109-.122.218-.214.327-.012.015-.028.029-.04.043C402.169,514.7,402.229,514.576,402.317,514.453Zm-5.96-2.115a.982.982,0,0,0-.269-.6A.982.982,0,0,1,396.357,512.338Zm-.312-.643a3.458,3.458,0,0,0-.8-.6A3.458,3.458,0,0,1,396.045,511.7Zm39.73,52.834L461.12,549.8,435.776,564.53Zm55.413,21.552,5.742-1.139-7.121,2.992Z"/><g class="b"><path class="i" d="M395.249,511.1l-.025,8.969-2.266-1.308.025-8.969Z"/><g class="b"><g class="j"><g class="b"><path class="k" d="M396.376,512.382l-.025,8.969c0-.457-.408-.872-1.127-1.287l.025-8.968c.719.415,1.129.83,1.127,1.286"/></g></g></g><path class="l" d="M392.984,509.788l-.025,8.969-10.242,5.952.025-8.969Z"/><g class="b"><g class="m"><g class="b"><path class="n" d="M403.013,512.658l-.025,8.969v.065l.025-8.969v-.065"/><path class="o" d="M403.012,512.723l-.025,8.969a2.675,2.675,0,0,1-.05.433l.025-8.969a2.567,2.567,0,0,0,.05-.433"/><path class="p" d="M402.962,513.156l-.025,8.969a2.875,2.875,0,0,1-.128.443l.025-8.968a2.745,2.745,0,0,0,.128-.444"/><path class="q" d="M402.834,513.6l-.025,8.968a3.388,3.388,0,0,1-.227.483l.026-8.969a3.42,3.42,0,0,0,.226-.482"/><path class="r" d="M402.608,514.082l-.026,8.969a4.434,4.434,0,0,1-.39.576l.026-8.969a4.643,4.643,0,0,0,.39-.576"/><path class="s" d="M402.218,514.658l-.026,8.969a6.585,6.585,0,0,1-.706.754l.026-8.969a6.591,6.591,0,0,0,.706-.754"/><path class="t" d="M401.512,515.412l-.026,8.969a12.44,12.44,0,0,1-2.025,1.478l.025-8.968a12.493,12.493,0,0,0,2.026-1.479"/><path class="u" d="M399.486,516.891l-.025,8.968c-.087.053-.175.1-.265.157l.025-8.969c.09-.052.179-.1.265-.156"/></g></g></g><path class="l" d="M399.221,517.047l-.025,8.969L395.27,528.3l.025-8.969Z"/><path class="i" d="M380.7,519.552l-.025,8.969-2.265-1.308.025-8.969Z"/><g class="b"><g class="v"><g class="b"><path class="u" d="M395.3,519.329l-.026,8.968a17.238,17.238,0,0,1-3.346,1.514l.025-8.969a17.267,17.267,0,0,0,3.347-1.513"/><path class="t" d="M391.949,520.842l-.025,8.969a14.473,14.473,0,0,1-1.879.474l.025-8.968a14.447,14.447,0,0,0,1.879-.475"/><path class="s" d="M390.07,521.317l-.025,8.968c-.352.064-.7.113-1.055.149l.026-8.969q.527-.053,1.054-.148"/><path class="r" d="M389.016,521.465l-.026,8.969c-.284.028-.569.048-.854.057l.025-8.968q.428-.015.855-.058"/><path class="q" d="M388.161,521.523l-.025,8.968c-.255.009-.511.01-.766,0l.026-8.969c.255.007.51.005.765,0"/><path class="p" d="M387.4,521.526l-.026,8.969c-.246-.006-.491-.019-.737-.039l.025-8.969q.369.03.738.039"/><path class="o" d="M386.658,521.487l-.025,8.969c-.251-.021-.5-.049-.753-.085l.025-8.969q.377.054.753.085"/><path class="n" d="M385.9,521.4l-.025,8.969c-.272-.038-.544-.086-.815-.142l.025-8.969c.272.056.543.1.815.142"/><path class="w" d="M385.09,521.26l-.025,8.969q-.488-.1-.973-.24l.026-8.968c.323.092.648.172.972.239"/><path class="x" d="M384.118,521.021l-.026,8.968q-.651-.186-1.3-.441l.025-8.968q.648.255,1.3.441"/><path class="k" d="M382.818,520.58l-.025,8.968a15.9,15.9,0,0,1-2.12-1.027l.025-8.969a16.043,16.043,0,0,0,2.12,1.028"/></g></g></g><path class="l" d="M378.433,518.244l-.025,8.969-11.376,6.611.025-8.969Z"/><path class="y" d="M399.576,508.581c4.777,2.758,4.5,5.648-.355,8.466l-3.925,2.282c-4.833,2.808-9.821,2.981-14.6.223l-2.265-1.308-11.376,6.611-4.794-2.768,30.254-17.582Zm-9.371,8.152,4.536-2.636c2.164-1.257,2.019-2.129.508-3l-2.265-1.308-10.242,5.951,2.266,1.308c1.51.872,3.033.943,5.2-.314"/><path class="i" d="M367.057,524.855l-.025,8.969-4.794-2.768.025-8.969Z"/></g><g class="b"><path class="l" d="M421.968,521.509l-.025,8.969-4.327,2.515.025-8.969Z"/><path class="i" d="M417.641,524.023l-.025,8.969-8.272-4.776.025-8.969Z"/><path class="l" d="M409.369,519.248l-.025,8.969-8.427,4.9.025-8.969Z"/><path class="l" d="M407.527,527.947l-.025,8.969-4.309,2.5.025-8.969Z"/><path class="i" d="M403.218,530.452l-.025,8.969-6.586-3.8.025-8.969Z"/><path class="l" d="M396.632,526.649l-.025,8.969-8.863,5.151.025-8.969Z"/><path class="i" d="M391.714,539.09l-.025,8.969-13.048-7.534.025-8.969Z"/><path class="l" d="M396.041,536.576l-.025,8.969-4.327,2.515.025-8.969Z"/><path class="y" d="M421.968,521.509l-4.327,2.515-8.272-4.776-8.427,4.9,6.586,3.8-4.309,2.5-6.586-3.8-8.863,5.151,8.272,4.776-4.327,2.515-13.048-7.534,30.254-17.582Z"/></g><g class="b"><path class="l" d="M420.845,530.522l-.025,8.969-21.914,12.735.025-8.969Z"/><path class="z" d="M430.889,526.659l-.025,8.969L417.67,548.992l.025-8.969Z"/><path class="i" d="M398.931,543.258l-.025,8.969-4.3-2.484.025-8.969Z"/><path class="y" d="M440.056,531.952,409.8,549.534l-4.917-2.839,15.961-16.172-21.914,12.735-4.3-2.484,30.254-17.582,6.006,3.468L417.7,540.023,435.806,529.5Z"/><path class="l" d="M440.056,531.952l-.025,8.969L409.777,558.5l.025-8.969Z"/><path class="i" d="M409.8,549.534l-.025,8.969-4.917-2.839.025-8.969Z"/></g><g class="b"><path class="i" d="M446.652,540.773l-.025,8.969-2.7-1.561.025-8.969Z"/><g class="b"><g class="aa"><g class="b"><path class="k" d="M447.8,542.12l-.026,8.968c0-.483-.413-.925-1.142-1.346l.025-8.969c.73.421,1.144.863,1.143,1.347"/></g></g></g><g class="b"><g class="ab"><g class="b"><path class="n" d="M454.5,542.386l-.025,8.969,0,.065.026-8.969v-.065"/><path class="o" d="M454.5,542.451l-.026,8.969a2.565,2.565,0,0,1-.049.433l.025-8.969a2.555,2.555,0,0,0,.05-.433"/><path class="p" d="M454.453,542.884l-.025,8.969a2.966,2.966,0,0,1-.128.444l.025-8.969a2.747,2.747,0,0,0,.128-.444"/><path class="q" d="M454.325,543.328,454.3,552.3a3.431,3.431,0,0,1-.227.482l.026-8.969a3.482,3.482,0,0,0,.226-.482"/><path class="r" d="M454.1,543.81l-.026,8.969a4.429,4.429,0,0,1-.39.576l.026-8.969a4.645,4.645,0,0,0,.39-.576"/><path class="s" d="M453.709,544.386l-.026,8.969a6.508,6.508,0,0,1-.706.754l.026-8.968a6.681,6.681,0,0,0,.706-.755"/><path class="t" d="M453,545.141l-.026,8.968a12.471,12.471,0,0,1-2.025,1.479l.025-8.969A12.5,12.5,0,0,0,453,545.141"/><path class="u" d="M450.977,546.619l-.025,8.969-.265.156.025-8.968.265-.157"/></g></g></g><path class="l" d="M443.948,539.212l-.025,8.969-21.6,12.553.025-8.969Z"/><path class="l" d="M450.712,546.776l-.025,8.969L435.4,564.627l.025-8.969Z"/><path class="i" d="M420.813,555.891l-.025,8.969-7.569-4.37.025-8.969Z"/><path class="y" d="M451.067,538.309c4.777,2.758,4.5,5.648-.355,8.467l-15.284,8.882c-4.85,2.818-9.838,2.991-14.615.233l-7.569-4.37L443.5,533.939Zm-20.642,14.723,15.737-9.146c2.164-1.257,2.018-2.231.49-3.113l-2.7-1.561-21.6,12.552,2.7,1.562c1.528.882,3.209.963,5.373-.294"/><g class="b"><g class="ac"><g class="b"><path class="u" d="M435.428,555.658l-.025,8.969a17.355,17.355,0,0,1-3.364,1.521l.026-8.969a17.374,17.374,0,0,0,3.363-1.521"/><path class="t" d="M432.065,557.179l-.026,8.969a14.489,14.489,0,0,1-1.882.475l.026-8.969a14.363,14.363,0,0,0,1.882-.475"/><path class="s" d="M430.183,557.654l-.026,8.969q-.528.1-1.055.149l.025-8.969q.528-.052,1.056-.149"/><path class="r" d="M429.127,557.8l-.025,8.969c-.286.028-.571.048-.856.057l.026-8.968q.428-.015.855-.058"/><path class="q" d="M428.272,557.861l-.026,8.968q-.383.014-.765,0l.026-8.969c.255.007.51.005.765,0"/><path class="p" d="M427.507,557.864l-.026,8.969c-.246-.006-.491-.019-.737-.039l.026-8.969q.368.03.737.039"/><path class="o" d="M426.77,557.825l-.026,8.969q-.376-.031-.753-.085l.026-8.969c.251.036.5.064.753.085"/><path class="n" d="M426.017,557.74l-.026,8.969c-.271-.038-.543-.086-.814-.142l.026-8.968q.406.084.814.141"/><path class="w" d="M425.2,557.6l-.026,8.968q-.486-.1-.972-.239l.026-8.969c.323.093.647.172.972.24"/><path class="x" d="M424.231,557.359l-.026,8.969q-.651-.186-1.3-.441l.025-8.969q.648.255,1.3.441"/><path class="k" d="M422.932,556.918l-.025,8.969a15.954,15.954,0,0,1-2.119-1.027l.025-8.969a15.836,15.836,0,0,0,2.119,1.027"/></g></g></g></g><g class="b"><path class="y" d="M466.03,546.948,435.776,564.53l-4.794-2.768,30.254-17.582Z"/><path class="l" d="M466.03,546.948,466,555.917,435.75,573.5l.025-8.969Z"/><path class="i" d="M435.776,564.53l-.025,8.969-4.794-2.768.025-8.969Z"/></g><g class="b"><path class="i" d="M472.661,555.789l-.025,8.969-2.7-1.561.025-8.969Z"/><g class="b"><g class="ad"><g class="b"><path class="k" d="M473.8,557.136l-.025,8.969c0-.484-.413-.926-1.142-1.347l.025-8.969c.73.421,1.144.863,1.142,1.347"/></g></g></g><g class="b"><g class="ae"><g class="b"><path class="n" d="M480.513,557.4l-.026,8.969v.065l.026-8.969V557.4"/><path class="o" d="M480.512,557.467l-.026,8.969a2.554,2.554,0,0,1-.049.433l.025-8.969a2.544,2.544,0,0,0,.05-.433"/><path class="p" d="M480.462,557.9l-.025,8.969a2.964,2.964,0,0,1-.128.444l.025-8.969a2.855,2.855,0,0,0,.128-.444"/><path class="q" d="M480.334,558.344l-.025,8.969a3.49,3.49,0,0,1-.227.482l.026-8.969a3.43,3.43,0,0,0,.226-.482"/><path class="r" d="M480.108,558.826l-.026,8.969a4.426,4.426,0,0,1-.39.576l.026-8.969a4.638,4.638,0,0,0,.39-.576"/><path class="s" d="M479.718,559.4l-.026,8.969a6.585,6.585,0,0,1-.706.755l.026-8.969a6.591,6.591,0,0,0,.706-.755"/><path class="t" d="M479.012,560.157l-.026,8.969a12.528,12.528,0,0,1-2.025,1.478l.025-8.969a12.5,12.5,0,0,0,2.026-1.478"/><path class="u" d="M476.986,561.635l-.025,8.969-.265.157.025-8.969c.09-.052.178-.1.265-.157"/></g></g></g><path class="l" d="M469.957,554.228l-.025,8.969-21.6,12.552.025-8.969Z"/><path class="l" d="M476.721,561.792l-.025,8.969-15.284,8.882.025-8.969Z"/><path class="i" d="M446.822,570.907l-.025,8.969-7.569-4.37.025-8.969Z"/><path class="y" d="M477.076,553.325c4.777,2.758,4.5,5.648-.355,8.467l-15.284,8.882c-4.85,2.819-9.838,2.991-14.615.233l-7.569-4.37,30.254-17.582Zm-20.642,14.723,15.737-9.146c2.164-1.257,2.018-2.231.49-3.113l-2.7-1.561-21.6,12.552,2.7,1.562c1.528.882,3.209.963,5.373-.294"/><g class="b"><g class="af"><g class="b"><path class="u" d="M461.437,570.674l-.025,8.969a17.381,17.381,0,0,1-3.364,1.521l.026-8.969a17.374,17.374,0,0,0,3.363-1.521"/><path class="t" d="M458.074,572.2l-.026,8.969a14.322,14.322,0,0,1-1.882.475l.026-8.968a14.576,14.576,0,0,0,1.882-.476"/><path class="s" d="M456.192,572.671l-.026,8.968q-.528.1-1.056.149l.026-8.969c.352-.035.7-.085,1.056-.148"/><path class="r" d="M455.136,572.819l-.026,8.969q-.427.043-.855.058l.026-8.969q.428-.015.855-.058"/><path class="q" d="M454.281,572.877l-.026,8.969c-.255.008-.51.01-.765,0l.025-8.968q.382.009.766,0"/><path class="p" d="M453.515,572.881l-.025,8.968c-.246-.006-.491-.019-.737-.039l.025-8.969c.246.02.492.034.737.04"/><path class="o" d="M452.778,572.841l-.025,8.969q-.376-.031-.753-.085l.026-8.968q.375.052.752.084"/><path class="n" d="M452.026,572.757,452,581.725c-.271-.038-.543-.085-.814-.142l.026-8.968q.406.084.814.142"/><path class="w" d="M451.212,572.615l-.026,8.968c-.324-.067-.648-.146-.972-.239l.026-8.969q.484.14.972.24"/><path class="x" d="M450.24,572.375l-.026,8.969q-.651-.186-1.3-.441l.025-8.969q.648.255,1.3.441"/><path class="k" d="M448.941,571.934l-.025,8.969a15.829,15.829,0,0,1-2.119-1.027l.025-8.969a15.709,15.709,0,0,0,2.119,1.027"/></g></g></g></g><g class="b"><path class="y" d="M492.039,561.964l-30.254,17.582-4.794-2.768L487.244,559.2Z"/><path class="l" d="M492.039,561.964l-.025,8.969-30.254,17.582.025-8.969Z"/><path class="i" d="M461.785,579.546l-.025,8.969-4.794-2.768.025-8.969Z"/></g><g class="b"><path class="l" d="M500.293,566.73l-.025,8.969-13.19,7.665.025-8.969Z"/><path class="ag" d="M511.357,573.117l-.025,8.969-20.143,3.995.025-8.969Z"/><path class="ah" d="M483.588,578.167l-.025,8.969-4.249.74.025-8.969Z"/><path class="l" d="M479.338,578.907l-.025,8.969-9.3,5.4.025-8.969Z"/><path class="i" d="M470.039,584.311l-.025,8.969-4.777-2.758.025-8.969Z"/><path class="i" d="M481.1,590.7l-.025,8.969-4.917-2.839.025-8.969Z"/><path class="y" d="M511.357,573.117l-20.143,3.995L481.1,590.7l-4.917-2.839,7.4-9.693-4.249.74-9.3,5.4-4.777-2.758,30.254-17.582,4.777,2.758-13.19,7.665,19.46-4.046Z"/><path class="ai" d="M491.214,577.112l-.025,8.969-10.111,13.587.025-8.969Z"/></g><g class="b"><path class="l" d="M515.044,581.452l-.025,8.969-17.62,7.554.025-8.969Z"/><path class="l" d="M492.727,591.044l-.025,8.969-6.321,2.717.025-8.969Z"/><path class="i" d="M486.406,593.761l-.025,8.969-4.408-2.545.025-8.969Z"/><path class="i" d="M498.593,594.43l-.025,8.969-5.866-3.386.025-8.969Z"/><path class="y" d="M524.141,580.5l-25.389,20.39-4.83-2.788,4.671-3.671-5.866-3.386-6.321,2.717L482,591.216l35.136-14.763Zm-26.716,8.507,4.619,2.666,13-10.22-17.619,7.554"/><path class="aj" d="M524.141,580.5l-.025,8.969-25.39,20.39.025-8.969Z"/><path class="i" d="M498.752,600.889l-.025,8.969-4.829-2.788.025-8.969Z"/></g><g class="b"><path class="l" d="M527.146,591.9l-.025,8.969L505.207,613.6l.025-8.969Z"/><path class="z" d="M537.19,588.032,537.164,597l-13.211,13.354.025-8.969Z"/><path class="i" d="M505.232,604.63l-.025,8.969-4.3-2.484.025-8.969Z"/><path class="y" d="M546.357,593.325,516.1,610.906l-4.917-2.839L527.146,591.9,505.232,604.63l-4.3-2.484,30.254-17.582,6.006,3.468-13.211,13.354,18.111-10.525Z"/><path class="l" d="M546.357,593.325l-.025,8.969-30.254,17.582.025-8.969Z"/><path class="i" d="M516.1,610.906l-.025,8.969-4.917-2.839.025-8.969Z"/></g><path class="h" d="M542.089,590.861l-4.915,2.857.016-5.686-6.006-3.468-7.066,4.106.024-8.171-7.008-4.046-5.794,2.434.017-5.77-4.795-2.768-6.283,1.306.014-4.926-4.777-2.757L492.027,566l.012-4.035-30.254,17.582-.1-.06h0l.1.06,30.255-17.582-4.8-2.768-6.747,3.921.016-5.715c0,.022-.014.044-.015.066.041-1.4-1.071-2.786-3.422-4.143l-7.569-4.37-3.489,2.028.012-4.035h0l-4.8-2.768-6.747,3.921.016-5.715c0,.022-.014.044-.015.066.041-1.4-1.071-2.786-3.422-4.143l-7.569-4.37-3.453,2.007.011-3.994-4.25-2.454-4.933,2.867.016-5.706-6.006-3.467-2.925,1.7.01-3.383-13.049-7.533L403,517.415l.013-4.757c0,.022-.014.044-.014.066.04-1.4-1.072-2.786-3.423-4.143l-7.059-4.076-30.254,17.582-.026,8.969,4.794,2.767,11.376-6.61,2.266,1.308a16.23,16.23,0,0,0,1.732.863l-3.74,2.173-.025,8.968,13.048,7.534,2.925-1.7-.01,3.383,4.3,2.484,5.973-3.471-.02,6.908,4.918,2.839,3.453-2.006-.011,3.994,7.569,4.37a15.908,15.908,0,0,0,1.976.958c.048.019.1.05.143.069q.648.255,1.3.441c.046.013.091.021.137.034s.123.029.185.045c.216.056.433.115.65.16.271.056.543.1.814.142.061.009.122.013.183.021l.138.015c.144.017.288.037.432.049.246.02.491.033.737.039.172,0,.344,0,.516,0h.117c.044,0,.088,0,.132,0,.285-.009.57-.029.855-.057.217-.022.434-.059.65-.092.08-.011.16-.02.24-.033.055-.01.111-.014.166-.024.244-.044.488-.127.731-.184l.08-.019-.012,4.31,4.794,2.768,3.489-2.027-.011,4.035,7.569,4.37a15.831,15.831,0,0,0,1.976.958c.048.019.1.05.143.069q.648.255,1.3.441c.045.013.091.021.136.034.062.017.124.029.186.045.217.057.433.115.65.16.271.057.543.1.814.142.062.009.123.013.184.021.045.006.09.01.135.015.145.017.289.037.434.049.246.02.491.033.737.039.171.005.342,0,.513,0h.121c.044,0,.088,0,.131,0,.285-.01.57-.03.855-.058.217-.022.433-.059.65-.091.08-.012.16-.021.239-.034.056-.01.112-.014.167-.024.245-.044.49-.127.734-.185l.077-.018-.012,4.311,4.794,2.768,3.489-2.028-.012,4.035,4.777,2.758,6.167-3.584-.02,7.133,4.917,2.839.9-1.21-.005,1.727,4.408,2.545,6.321-2.718,1.213.7-.018,6.356,4.829,2.789,2.187-1.756-.009,3.013,4.3,2.484,5.973-3.471-.02,6.908,4.917,2.839,30.255-17.582.025-8.968Zm-63.566-30.306-.038.031c.1-.078.167-.156.258-.234C478.664,560.42,478.607,560.488,478.523,560.555Zm1.756-2.094c-.012.028-.027.056-.04.084a2.75,2.75,0,0,0,.122-.456A2.754,2.754,0,0,1,480.279,558.461Zm-.466.742c-.077.107-.12.215-.211.323-.011.013-.027.028-.039.042C479.667,559.446,479.727,559.324,479.813,559.2Zm-6.028-2.111a1.06,1.06,0,0,0-.274-.642A1.06,1.06,0,0,1,473.785,557.092Zm-.313-.68a3.355,3.355,0,0,0-.811-.623A3.355,3.355,0,0,1,473.472,556.412Zm-65.948-27.138,1.82-1.058,3.457,2-5.289,3.073Zm-6.5-13.464-.038.032c.1-.079.169-.158.261-.237C401.166,515.673,401.108,515.742,401.023,515.81Zm-4.416,19.808,3.457,2-4.033,2.344.009-3.382-.542-.314Zm55.906,9.922-.037.03c.1-.076.162-.152.251-.228C452.65,545.408,452.6,545.474,452.513,545.54Zm1.757-2.095c-.012.028-.026.056-.039.084a2.745,2.745,0,0,0,.121-.456A2.609,2.609,0,0,1,454.27,543.445Zm-.466.741a3.778,3.778,0,0,1-.211.323c-.011.014-.027.028-.039.042A4.237,4.237,0,0,0,453.8,544.186Zm-6.028-2.111a1.057,1.057,0,0,0-.274-.642A1.057,1.057,0,0,1,447.776,542.075Zm-.313-.679a3.329,3.329,0,0,0-.811-.623A3.329,3.329,0,0,1,447.463,541.4Zm-44.683-27.68c-.012.029-.028.057-.041.086a2.811,2.811,0,0,0,.123-.461A2.648,2.648,0,0,1,402.78,513.716Zm-.463.737c-.078.109-.122.218-.214.327-.012.015-.028.029-.04.043C402.169,514.7,402.229,514.576,402.317,514.453Zm-5.96-2.115a.982.982,0,0,0-.269-.6A.982.982,0,0,1,396.357,512.338Zm-.312-.643a3.458,3.458,0,0,0-.8-.6A3.458,3.458,0,0,1,396.045,511.7Zm39.73,52.834L461.12,549.8,435.776,564.53Zm55.413,21.552,5.742-1.139-7.121,2.992Z"/><g class="b"><path class="i" d="M395.249,511.1l-.025,8.969-2.266-1.308.025-8.969Z"/><g class="b"><g class="j"><g class="b"><path class="k" d="M396.376,512.382l-.025,8.969c0-.457-.408-.872-1.127-1.287l.025-8.968c.719.415,1.129.83,1.127,1.286"/></g></g></g><path class="l" d="M392.984,509.788l-.025,8.969-10.242,5.952.025-8.969Z"/><g class="b"><g class="m"><g class="b"><path class="n" d="M403.013,512.658l-.025,8.969v.065l.025-8.969v-.065"/><path class="o" d="M403.012,512.723l-.025,8.969a2.675,2.675,0,0,1-.05.433l.025-8.969a2.567,2.567,0,0,0,.05-.433"/><path class="p" d="M402.962,513.156l-.025,8.969a2.875,2.875,0,0,1-.128.443l.025-8.968a2.745,2.745,0,0,0,.128-.444"/><path class="q" d="M402.834,513.6l-.025,8.968a3.388,3.388,0,0,1-.227.483l.026-8.969a3.42,3.42,0,0,0,.226-.482"/><path class="r" d="M402.608,514.082l-.026,8.969a4.434,4.434,0,0,1-.39.576l.026-8.969a4.643,4.643,0,0,0,.39-.576"/><path class="s" d="M402.218,514.658l-.026,8.969a6.585,6.585,0,0,1-.706.754l.026-8.969a6.591,6.591,0,0,0,.706-.754"/><path class="t" d="M401.512,515.412l-.026,8.969a12.44,12.44,0,0,1-2.025,1.478l.025-8.968a12.493,12.493,0,0,0,2.026-1.479"/><path class="u" d="M399.486,516.891l-.025,8.968c-.087.053-.175.1-.265.157l.025-8.969c.09-.052.179-.1.265-.156"/></g></g></g><path class="l" d="M399.221,517.047l-.025,8.969L395.27,528.3l.025-8.969Z"/><path class="i" d="M380.7,519.552l-.025,8.969-2.265-1.308.025-8.969Z"/><g class="b"><g class="v"><g class="b"><path class="u" d="M395.3,519.329l-.026,8.968a17.238,17.238,0,0,1-3.346,1.514l.025-8.969a17.267,17.267,0,0,0,3.347-1.513"/><path class="t" d="M391.949,520.842l-.025,8.969a14.473,14.473,0,0,1-1.879.474l.025-8.968a14.447,14.447,0,0,0,1.879-.475"/><path class="s" d="M390.07,521.317l-.025,8.968c-.352.064-.7.113-1.055.149l.026-8.969q.527-.053,1.054-.148"/><path class="r" d="M389.016,521.465l-.026,8.969c-.284.028-.569.048-.854.057l.025-8.968q.428-.015.855-.058"/><path class="q" d="M388.161,521.523l-.025,8.968c-.255.009-.511.01-.766,0l.026-8.969c.255.007.51.005.765,0"/><path class="p" d="M387.4,521.526l-.026,8.969c-.246-.006-.491-.019-.737-.039l.025-8.969q.369.03.738.039"/><path class="o" d="M386.658,521.487l-.025,8.969c-.251-.021-.5-.049-.753-.085l.025-8.969q.377.054.753.085"/><path class="n" d="M385.9,521.4l-.025,8.969c-.272-.038-.544-.086-.815-.142l.025-8.969c.272.056.543.1.815.142"/><path class="w" d="M385.09,521.26l-.025,8.969q-.488-.1-.973-.24l.026-8.968c.323.092.648.172.972.239"/><path class="x" d="M384.118,521.021l-.026,8.968q-.651-.186-1.3-.441l.025-8.968q.648.255,1.3.441"/><path class="k" d="M382.818,520.58l-.025,8.968a15.9,15.9,0,0,1-2.12-1.027l.025-8.969a16.043,16.043,0,0,0,2.12,1.028"/></g></g></g><path class="l" d="M378.433,518.244l-.025,8.969-11.376,6.611.025-8.969Z"/><path class="y" d="M399.576,508.581c4.777,2.758,4.5,5.648-.355,8.466l-3.925,2.282c-4.833,2.808-9.821,2.981-14.6.223l-2.265-1.308-11.376,6.611-4.794-2.768,30.254-17.582Zm-9.371,8.152,4.536-2.636c2.164-1.257,2.019-2.129.508-3l-2.265-1.308-10.242,5.951,2.266,1.308c1.51.872,3.033.943,5.2-.314"/><path class="i" d="M367.057,524.855l-.025,8.969-4.794-2.768.025-8.969Z"/></g><g class="b"><path class="l" d="M421.968,521.509l-.025,8.969-4.327,2.515.025-8.969Z"/><path class="i" d="M417.641,524.023l-.025,8.969-8.272-4.776.025-8.969Z"/><path class="l" d="M409.369,519.248l-.025,8.969-8.427,4.9.025-8.969Z"/><path class="l" d="M407.527,527.947l-.025,8.969-4.309,2.5.025-8.969Z"/><path class="i" d="M403.218,530.452l-.025,8.969-6.586-3.8.025-8.969Z"/><path class="l" d="M396.632,526.649l-.025,8.969-8.863,5.151.025-8.969Z"/><path class="i" d="M391.714,539.09l-.025,8.969-13.048-7.534.025-8.969Z"/><path class="l" d="M396.041,536.576l-.025,8.969-4.327,2.515.025-8.969Z"/><path class="y" d="M421.968,521.509l-4.327,2.515-8.272-4.776-8.427,4.9,6.586,3.8-4.309,2.5-6.586-3.8-8.863,5.151,8.272,4.776-4.327,2.515-13.048-7.534,30.254-17.582Z"/></g><g class="b"><path class="l" d="M420.845,530.522l-.025,8.969-21.914,12.735.025-8.969Z"/><path class="z" d="M430.889,526.659l-.025,8.969L417.67,548.992l.025-8.969Z"/><path class="i" d="M398.931,543.258l-.025,8.969-4.3-2.484.025-8.969Z"/><path class="y" d="M440.056,531.952,409.8,549.534l-4.917-2.839,15.961-16.172-21.914,12.735-4.3-2.484,30.254-17.582,6.006,3.468L417.7,540.023,435.806,529.5Z"/><path class="l" d="M440.056,531.952l-.025,8.969L409.777,558.5l.025-8.969Z"/><path class="i" d="M409.8,549.534l-.025,8.969-4.917-2.839.025-8.969Z"/></g><g class="b"><path class="i" d="M446.652,540.773l-.025,8.969-2.7-1.561.025-8.969Z"/><g class="b"><g class="aa"><g class="b"><path class="k" d="M447.8,542.12l-.026,8.968c0-.483-.413-.925-1.142-1.346l.025-8.969c.73.421,1.144.863,1.143,1.347"/></g></g></g><g class="b"><g class="ab"><g class="b"><path class="n" d="M454.5,542.386l-.025,8.969,0,.065.026-8.969v-.065"/><path class="o" d="M454.5,542.451l-.026,8.969a2.565,2.565,0,0,1-.049.433l.025-8.969a2.555,2.555,0,0,0,.05-.433"/><path class="p" d="M454.453,542.884l-.025,8.969a2.966,2.966,0,0,1-.128.444l.025-8.969a2.747,2.747,0,0,0,.128-.444"/><path class="q" d="M454.325,543.328,454.3,552.3a3.431,3.431,0,0,1-.227.482l.026-8.969a3.482,3.482,0,0,0,.226-.482"/><path class="r" d="M454.1,543.81l-.026,8.969a4.429,4.429,0,0,1-.39.576l.026-8.969a4.645,4.645,0,0,0,.39-.576"/><path class="s" d="M453.709,544.386l-.026,8.969a6.508,6.508,0,0,1-.706.754l.026-8.968a6.681,6.681,0,0,0,.706-.755"/><path class="t" d="M453,545.141l-.026,8.968a12.471,12.471,0,0,1-2.025,1.479l.025-8.969A12.5,12.5,0,0,0,453,545.141"/><path class="u" d="M450.977,546.619l-.025,8.969-.265.156.025-8.968.265-.157"/></g></g></g><path class="l" d="M443.948,539.212l-.025,8.969-21.6,12.553.025-8.969Z"/><path class="l" d="M450.712,546.776l-.025,8.969L435.4,564.627l.025-8.969Z"/><path class="i" d="M420.813,555.891l-.025,8.969-7.569-4.37.025-8.969Z"/><path class="y" d="M451.067,538.309c4.777,2.758,4.5,5.648-.355,8.467l-15.284,8.882c-4.85,2.818-9.838,2.991-14.615.233l-7.569-4.37L443.5,533.939Zm-20.642,14.723,15.737-9.146c2.164-1.257,2.018-2.231.49-3.113l-2.7-1.561-21.6,12.552,2.7,1.562c1.528.882,3.209.963,5.373-.294"/><g class="b"><g class="ac"><g class="b"><path class="u" d="M435.428,555.658l-.025,8.969a17.355,17.355,0,0,1-3.364,1.521l.026-8.969a17.374,17.374,0,0,0,3.363-1.521"/><path class="t" d="M432.065,557.179l-.026,8.969a14.489,14.489,0,0,1-1.882.475l.026-8.969a14.363,14.363,0,0,0,1.882-.475"/><path class="s" d="M430.183,557.654l-.026,8.969q-.528.1-1.055.149l.025-8.969q.528-.052,1.056-.149"/><path class="r" d="M429.127,557.8l-.025,8.969c-.286.028-.571.048-.856.057l.026-8.968q.428-.015.855-.058"/><path class="q" d="M428.272,557.861l-.026,8.968q-.383.014-.765,0l.026-8.969c.255.007.51.005.765,0"/><path class="p" d="M427.507,557.864l-.026,8.969c-.246-.006-.491-.019-.737-.039l.026-8.969q.368.03.737.039"/><path class="o" d="M426.77,557.825l-.026,8.969q-.376-.031-.753-.085l.026-8.969c.251.036.5.064.753.085"/><path class="n" d="M426.017,557.74l-.026,8.969c-.271-.038-.543-.086-.814-.142l.026-8.968q.406.084.814.141"/><path class="w" d="M425.2,557.6l-.026,8.968q-.486-.1-.972-.239l.026-8.969c.323.093.647.172.972.24"/><path class="x" d="M424.231,557.359l-.026,8.969q-.651-.186-1.3-.441l.025-8.969q.648.255,1.3.441"/><path class="k" d="M422.932,556.918l-.025,8.969a15.954,15.954,0,0,1-2.119-1.027l.025-8.969a15.836,15.836,0,0,0,2.119,1.027"/></g></g></g></g><g class="b"><path class="y" d="M466.03,546.948,435.776,564.53l-4.794-2.768,30.254-17.582Z"/><path class="l" d="M466.03,546.948,466,555.917,435.75,573.5l.025-8.969Z"/><path class="i" d="M435.776,564.53l-.025,8.969-4.794-2.768.025-8.969Z"/></g><g class="b"><path class="i" d="M472.661,555.789l-.025,8.969-2.7-1.561.025-8.969Z"/><g class="b"><g class="ad"><g class="b"><path class="k" d="M473.8,557.136l-.025,8.969c0-.484-.413-.926-1.142-1.347l.025-8.969c.73.421,1.144.863,1.142,1.347"/></g></g></g><g class="b"><g class="ae"><g class="b"><path class="n" d="M480.513,557.4l-.026,8.969v.065l.026-8.969V557.4"/><path class="o" d="M480.512,557.467l-.026,8.969a2.554,2.554,0,0,1-.049.433l.025-8.969a2.544,2.544,0,0,0,.05-.433"/><path class="p" d="M480.462,557.9l-.025,8.969a2.964,2.964,0,0,1-.128.444l.025-8.969a2.855,2.855,0,0,0,.128-.444"/><path class="q" d="M480.334,558.344l-.025,8.969a3.49,3.49,0,0,1-.227.482l.026-8.969a3.43,3.43,0,0,0,.226-.482"/><path class="r" d="M480.108,558.826l-.026,8.969a4.426,4.426,0,0,1-.39.576l.026-8.969a4.638,4.638,0,0,0,.39-.576"/><path class="s" d="M479.718,559.4l-.026,8.969a6.585,6.585,0,0,1-.706.755l.026-8.969a6.591,6.591,0,0,0,.706-.755"/><path class="t" d="M479.012,560.157l-.026,8.969a12.528,12.528,0,0,1-2.025,1.478l.025-8.969a12.5,12.5,0,0,0,2.026-1.478"/><path class="u" d="M476.986,561.635l-.025,8.969-.265.157.025-8.969c.09-.052.178-.1.265-.157"/></g></g></g><path class="l" d="M469.957,554.228l-.025,8.969-21.6,12.552.025-8.969Z"/><path class="l" d="M476.721,561.792l-.025,8.969-15.284,8.882.025-8.969Z"/><path class="i" d="M446.822,570.907l-.025,8.969-7.569-4.37.025-8.969Z"/><path class="y" d="M477.076,553.325c4.777,2.758,4.5,5.648-.355,8.467l-15.284,8.882c-4.85,2.819-9.838,2.991-14.615.233l-7.569-4.37,30.254-17.582Zm-20.642,14.723,15.737-9.146c2.164-1.257,2.018-2.231.49-3.113l-2.7-1.561-21.6,12.552,2.7,1.562c1.528.882,3.209.963,5.373-.294"/><g class="b"><g class="af"><g class="b"><path class="u" d="M461.437,570.674l-.025,8.969a17.381,17.381,0,0,1-3.364,1.521l.026-8.969a17.374,17.374,0,0,0,3.363-1.521"/><path class="t" d="M458.074,572.2l-.026,8.969a14.322,14.322,0,0,1-1.882.475l.026-8.968a14.576,14.576,0,0,0,1.882-.476"/><path class="s" d="M456.192,572.671l-.026,8.968q-.528.1-1.056.149l.026-8.969c.352-.035.7-.085,1.056-.148"/><path class="r" d="M455.136,572.819l-.026,8.969q-.427.043-.855.058l.026-8.969q.428-.015.855-.058"/><path class="q" d="M454.281,572.877l-.026,8.969c-.255.008-.51.01-.765,0l.025-8.968q.382.009.766,0"/><path class="p" d="M453.515,572.881l-.025,8.968c-.246-.006-.491-.019-.737-.039l.025-8.969c.246.02.492.034.737.04"/><path class="o" d="M452.778,572.841l-.025,8.969q-.376-.031-.753-.085l.026-8.968q.375.052.752.084"/><path class="n" d="M452.026,572.757,452,581.725c-.271-.038-.543-.085-.814-.142l.026-8.968q.406.084.814.142"/><path class="w" d="M451.212,572.615l-.026,8.968c-.324-.067-.648-.146-.972-.239l.026-8.969q.484.14.972.24"/><path class="x" d="M450.24,572.375l-.026,8.969q-.651-.186-1.3-.441l.025-8.969q.648.255,1.3.441"/><path class="k" d="M448.941,571.934l-.025,8.969a15.829,15.829,0,0,1-2.119-1.027l.025-8.969a15.709,15.709,0,0,0,2.119,1.027"/></g></g></g></g><g class="b"><path class="y" d="M492.039,561.964l-30.254,17.582-4.794-2.768L487.244,559.2Z"/><path class="l" d="M492.039,561.964l-.025,8.969-30.254,17.582.025-8.969Z"/><path class="i" d="M461.785,579.546l-.025,8.969-4.794-2.768.025-8.969Z"/></g><g class="b"><path class="l" d="M500.293,566.73l-.025,8.969-13.19,7.665.025-8.969Z"/><path class="ag" d="M511.357,573.117l-.025,8.969-20.143,3.995.025-8.969Z"/><path class="ah" d="M483.588,578.167l-.025,8.969-4.249.74.025-8.969Z"/><path class="l" d="M479.338,578.907l-.025,8.969-9.3,5.4.025-8.969Z"/><path class="i" d="M470.039,584.311l-.025,8.969-4.777-2.758.025-8.969Z"/><path class="i" d="M481.1,590.7l-.025,8.969-4.917-2.839.025-8.969Z"/><path class="y" d="M511.357,573.117l-20.143,3.995L481.1,590.7l-4.917-2.839,7.4-9.693-4.249.74-9.3,5.4-4.777-2.758,30.254-17.582,4.777,2.758-13.19,7.665,19.46-4.046Z"/><path class="ai" d="M491.214,577.112l-.025,8.969-10.111,13.587.025-8.969Z"/></g><g class="b"><path class="l" d="M515.044,581.452l-.025,8.969-17.62,7.554.025-8.969Z"/><path class="l" d="M492.727,591.044l-.025,8.969-6.321,2.717.025-8.969Z"/><path class="i" d="M486.406,593.761l-.025,8.969-4.408-2.545.025-8.969Z"/><path class="i" d="M498.593,594.43l-.025,8.969-5.866-3.386.025-8.969Z"/><path class="y" d="M524.141,580.5l-25.389,20.39-4.83-2.788,4.671-3.671-5.866-3.386-6.321,2.717L482,591.216l35.136-14.763Zm-26.716,8.507,4.619,2.666,13-10.22-17.619,7.554"/><path class="aj" d="M524.141,580.5l-.025,8.969-25.39,20.39.025-8.969Z"/><path class="i" d="M498.752,600.889l-.025,8.969-4.829-2.788.025-8.969Z"/></g><g class="b"><path class="l" d="M527.146,591.9l-.025,8.969L505.207,613.6l.025-8.969Z"/><path class="z" d="M537.19,588.032,537.164,597l-13.211,13.354.025-8.969Z"/><path class="i" d="M505.232,604.63l-.025,8.969-4.3-2.484.025-8.969Z"/><path class="y" d="M546.357,593.325,516.1,610.906l-4.917-2.839L527.146,591.9,505.232,604.63l-4.3-2.484,30.254-17.582,6.006,3.468-13.211,13.354,18.111-10.525Z"/><path class="l" d="M546.357,593.325l-.025,8.969-30.254,17.582.025-8.969Z"/><path class="i" d="M516.1,610.906l-.025,8.969-4.917-2.839.025-8.969Z"/></g><path class="h" d="M542.089,590.861l-4.915,2.857.016-5.686-6.006-3.468-7.066,4.106.024-8.171-7.008-4.046-5.794,2.434.017-5.77-4.795-2.768-6.283,1.306.014-4.926-4.777-2.757L492.027,566l.012-4.035-30.254,17.582-.1-.06h0l.1.06,30.255-17.582-4.8-2.768-6.747,3.921.016-5.715c0,.022-.014.044-.015.066.041-1.4-1.071-2.786-3.422-4.143l-7.569-4.37-3.489,2.028.012-4.035h0l-4.8-2.768-6.747,3.921.016-5.715c0,.022-.014.044-.015.066.041-1.4-1.071-2.786-3.422-4.143l-7.569-4.37-3.453,2.007.011-3.994-4.25-2.454-4.933,2.867.016-5.706-6.006-3.467-2.925,1.7.01-3.383-13.049-7.533L403,517.415l.013-4.757c0,.022-.014.044-.014.066.04-1.4-1.072-2.786-3.423-4.143l-7.059-4.076-30.254,17.582-.026,8.969,4.794,2.767,11.376-6.61,2.266,1.308a16.23,16.23,0,0,0,1.732.863l-3.74,2.173-.025,8.968,13.048,7.534,2.925-1.7-.01,3.383,4.3,2.484,5.973-3.471-.02,6.908,4.918,2.839,3.453-2.006-.011,3.994,7.569,4.37a15.908,15.908,0,0,0,1.976.958c.048.019.1.05.143.069q.648.255,1.3.441c.046.013.091.021.137.034s.123.029.185.045c.216.056.433.115.65.16.271.056.543.1.814.142.061.009.122.013.183.021l.138.015c.144.017.288.037.432.049.246.02.491.033.737.039.172,0,.344,0,.516,0h.117c.044,0,.088,0,.132,0,.285-.009.57-.029.855-.057.217-.022.434-.059.65-.092.08-.011.16-.02.24-.033.055-.01.111-.014.166-.024.244-.044.488-.127.731-.184l.08-.019-.012,4.31,4.794,2.768,3.489-2.027-.011,4.035,7.569,4.37a15.831,15.831,0,0,0,1.976.958c.048.019.1.05.143.069q.648.255,1.3.441c.045.013.091.021.136.034.062.017.124.029.186.045.217.057.433.115.65.16.271.057.543.1.814.142.062.009.123.013.184.021.045.006.09.01.135.015.145.017.289.037.434.049.246.02.491.033.737.039.171.005.342,0,.513,0h.121c.044,0,.088,0,.131,0,.285-.01.57-.03.855-.058.217-.022.433-.059.65-.091.08-.012.16-.021.239-.034.056-.01.112-.014.167-.024.245-.044.49-.127.734-.185l.077-.018-.012,4.311,4.794,2.768,3.489-2.028-.012,4.035,4.777,2.758,6.167-3.584-.02,7.133,4.917,2.839.9-1.21-.005,1.727,4.408,2.545,6.321-2.718,1.213.7-.018,6.356,4.829,2.789,2.187-1.756-.009,3.013,4.3,2.484,5.973-3.471-.02,6.908,4.917,2.839,30.255-17.582.025-8.968Zm-63.566-30.306-.038.031c.1-.078.167-.156.258-.234C478.664,560.42,478.607,560.488,478.523,560.555Zm1.756-2.094c-.012.028-.027.056-.04.084a2.75,2.75,0,0,0,.122-.456A2.754,2.754,0,0,1,480.279,558.461Zm-.466.742c-.077.107-.12.215-.211.323-.011.013-.027.028-.039.042C479.667,559.446,479.727,559.324,479.813,559.2Zm-6.028-2.111a1.06,1.06,0,0,0-.274-.642A1.06,1.06,0,0,1,473.785,557.092Zm-.313-.68a3.355,3.355,0,0,0-.811-.623A3.355,3.355,0,0,1,473.472,556.412Zm-65.948-27.138,1.82-1.058,3.457,2-5.289,3.073Zm-6.5-13.464-.038.032c.1-.079.169-.158.261-.237C401.166,515.673,401.108,515.742,401.023,515.81Zm-4.416,19.808,3.457,2-4.033,2.344.009-3.382-.542-.314Zm55.906,9.922-.037.03c.1-.076.162-.152.251-.228C452.65,545.408,452.6,545.474,452.513,545.54Zm1.757-2.095c-.012.028-.026.056-.039.084a2.745,2.745,0,0,0,.121-.456A2.609,2.609,0,0,1,454.27,543.445Zm-.466.741a3.778,3.778,0,0,1-.211.323c-.011.014-.027.028-.039.042A4.237,4.237,0,0,0,453.8,544.186Zm-6.028-2.111a1.057,1.057,0,0,0-.274-.642A1.057,1.057,0,0,1,447.776,542.075Zm-.313-.679a3.329,3.329,0,0,0-.811-.623A3.329,3.329,0,0,1,447.463,541.4Zm-44.683-27.68c-.012.029-.028.057-.041.086a2.811,2.811,0,0,0,.123-.461A2.648,2.648,0,0,1,402.78,513.716Zm-.463.737c-.078.109-.122.218-.214.327-.012.015-.028.029-.04.043C402.169,514.7,402.229,514.576,402.317,514.453Zm-5.96-2.115a.982.982,0,0,0-.269-.6A.982.982,0,0,1,396.357,512.338Zm-.312-.643a3.458,3.458,0,0,0-.8-.6A3.458,3.458,0,0,1,396.045,511.7Zm39.73,52.834L461.12,549.8,435.776,564.53Zm55.413,21.552,5.742-1.139-7.121,2.992Z"/><g class="b"><path class="i" d="M395.249,511.1l-.025,8.969-2.266-1.308.025-8.969Z"/><g class="b"><g class="j"><g class="b"><path class="k" d="M396.376,512.382l-.025,8.969c0-.457-.408-.872-1.127-1.287l.025-8.968c.719.415,1.129.83,1.127,1.286"/></g></g></g><path class="l" d="M392.984,509.788l-.025,8.969-10.242,5.952.025-8.969Z"/><g class="b"><g class="m"><g class="b"><path class="n" d="M403.013,512.658l-.025,8.969v.065l.025-8.969v-.065"/><path class="o" d="M403.012,512.723l-.025,8.969a2.675,2.675,0,0,1-.05.433l.025-8.969a2.567,2.567,0,0,0,.05-.433"/><path class="p" d="M402.962,513.156l-.025,8.969a2.875,2.875,0,0,1-.128.443l.025-8.968a2.745,2.745,0,0,0,.128-.444"/><path class="q" d="M402.834,513.6l-.025,8.968a3.388,3.388,0,0,1-.227.483l.026-8.969a3.42,3.42,0,0,0,.226-.482"/><path class="r" d="M402.608,514.082l-.026,8.969a4.434,4.434,0,0,1-.39.576l.026-8.969a4.643,4.643,0,0,0,.39-.576"/><path class="s" d="M402.218,514.658l-.026,8.969a6.585,6.585,0,0,1-.706.754l.026-8.969a6.591,6.591,0,0,0,.706-.754"/><path class="t" d="M401.512,515.412l-.026,8.969a12.44,12.44,0,0,1-2.025,1.478l.025-8.968a12.493,12.493,0,0,0,2.026-1.479"/><path class="u" d="M399.486,516.891l-.025,8.968c-.087.053-.175.1-.265.157l.025-8.969c.09-.052.179-.1.265-.156"/></g></g></g><path class="l" d="M399.221,517.047l-.025,8.969L395.27,528.3l.025-8.969Z"/><path class="i" d="M380.7,519.552l-.025,8.969-2.265-1.308.025-8.969Z"/><g class="b"><g class="v"><g class="b"><path class="u" d="M395.3,519.329l-.026,8.968a17.238,17.238,0,0,1-3.346,1.514l.025-8.969a17.267,17.267,0,0,0,3.347-1.513"/><path class="t" d="M391.949,520.842l-.025,8.969a14.473,14.473,0,0,1-1.879.474l.025-8.968a14.447,14.447,0,0,0,1.879-.475"/><path class="s" d="M390.07,521.317l-.025,8.968c-.352.064-.7.113-1.055.149l.026-8.969q.527-.053,1.054-.148"/><path class="r" d="M389.016,521.465l-.026,8.969c-.284.028-.569.048-.854.057l.025-8.968q.428-.015.855-.058"/><path class="q" d="M388.161,521.523l-.025,8.968c-.255.009-.511.01-.766,0l.026-8.969c.255.007.51.005.765,0"/><path class="p" d="M387.4,521.526l-.026,8.969c-.246-.006-.491-.019-.737-.039l.025-8.969q.369.03.738.039"/><path class="o" d="M386.658,521.487l-.025,8.969c-.251-.021-.5-.049-.753-.085l.025-8.969q.377.054.753.085"/><path class="n" d="M385.9,521.4l-.025,8.969c-.272-.038-.544-.086-.815-.142l.025-8.969c.272.056.543.1.815.142"/><path class="w" d="M385.09,521.26l-.025,8.969q-.488-.1-.973-.24l.026-8.968c.323.092.648.172.972.239"/><path class="x" d="M384.118,521.021l-.026,8.968q-.651-.186-1.3-.441l.025-8.968q.648.255,1.3.441"/><path class="k" d="M382.818,520.58l-.025,8.968a15.9,15.9,0,0,1-2.12-1.027l.025-8.969a16.043,16.043,0,0,0,2.12,1.028"/></g></g></g><path class="l" d="M378.433,518.244l-.025,8.969-11.376,6.611.025-8.969Z"/><path class="y" d="M399.576,508.581c4.777,2.758,4.5,5.648-.355,8.466l-3.925,2.282c-4.833,2.808-9.821,2.981-14.6.223l-2.265-1.308-11.376,6.611-4.794-2.768,30.254-17.582Zm-9.371,8.152,4.536-2.636c2.164-1.257,2.019-2.129.508-3l-2.265-1.308-10.242,5.951,2.266,1.308c1.51.872,3.033.943,5.2-.314"/><path class="i" d="M367.057,524.855l-.025,8.969-4.794-2.768.025-8.969Z"/></g><g class="b"><path class="l" d="M421.968,521.509l-.025,8.969-4.327,2.515.025-8.969Z"/><path class="i" d="M417.641,524.023l-.025,8.969-8.272-4.776.025-8.969Z"/><path class="l" d="M409.369,519.248l-.025,8.969-8.427,4.9.025-8.969Z"/><path class="l" d="M407.527,527.947l-.025,8.969-4.309,2.5.025-8.969Z"/><path class="i" d="M403.218,530.452l-.025,8.969-6.586-3.8.025-8.969Z"/><path class="l" d="M396.632,526.649l-.025,8.969-8.863,5.151.025-8.969Z"/><path class="i" d="M391.714,539.09l-.025,8.969-13.048-7.534.025-8.969Z"/><path class="l" d="M396.041,536.576l-.025,8.969-4.327,2.515.025-8.969Z"/><path class="y" d="M421.968,521.509l-4.327,2.515-8.272-4.776-8.427,4.9,6.586,3.8-4.309,2.5-6.586-3.8-8.863,5.151,8.272,4.776-4.327,2.515-13.048-7.534,30.254-17.582Z"/></g><g class="b"><path class="l" d="M420.845,530.522l-.025,8.969-21.914,12.735.025-8.969Z"/><path class="z" d="M430.889,526.659l-.025,8.969L417.67,548.992l.025-8.969Z"/><path class="i" d="M398.931,543.258l-.025,8.969-4.3-2.484.025-8.969Z"/><path class="y" d="M440.056,531.952,409.8,549.534l-4.917-2.839,15.961-16.172-21.914,12.735-4.3-2.484,30.254-17.582,6.006,3.468L417.7,540.023,435.806,529.5Z"/><path class="l" d="M440.056,531.952l-.025,8.969L409.777,558.5l.025-8.969Z"/><path class="i" d="M409.8,549.534l-.025,8.969-4.917-2.839.025-8.969Z"/></g><g class="b"><path class="i" d="M446.652,540.773l-.025,8.969-2.7-1.561.025-8.969Z"/><g class="b"><g class="aa"><g class="b"><path class="k" d="M447.8,542.12l-.026,8.968c0-.483-.413-.925-1.142-1.346l.025-8.969c.73.421,1.144.863,1.143,1.347"/></g></g></g><g class="b"><g class="ab"><g class="b"><path class="n" d="M454.5,542.386l-.025,8.969,0,.065.026-8.969v-.065"/><path class="o" d="M454.5,542.451l-.026,8.969a2.565,2.565,0,0,1-.049.433l.025-8.969a2.555,2.555,0,0,0,.05-.433"/><path class="p" d="M454.453,542.884l-.025,8.969a2.966,2.966,0,0,1-.128.444l.025-8.969a2.747,2.747,0,0,0,.128-.444"/><path class="q" d="M454.325,543.328,454.3,552.3a3.431,3.431,0,0,1-.227.482l.026-8.969a3.482,3.482,0,0,0,.226-.482"/><path class="r" d="M454.1,543.81l-.026,8.969a4.429,4.429,0,0,1-.39.576l.026-8.969a4.645,4.645,0,0,0,.39-.576"/><path class="s" d="M453.709,544.386l-.026,8.969a6.508,6.508,0,0,1-.706.754l.026-8.968a6.681,6.681,0,0,0,.706-.755"/><path class="t" d="M453,545.141l-.026,8.968a12.471,12.471,0,0,1-2.025,1.479l.025-8.969A12.5,12.5,0,0,0,453,545.141"/><path class="u" d="M450.977,546.619l-.025,8.969-.265.156.025-8.968.265-.157"/></g></g></g><path class="l" d="M443.948,539.212l-.025,8.969-21.6,12.553.025-8.969Z"/><path class="l" d="M450.712,546.776l-.025,8.969L435.4,564.627l.025-8.969Z"/><path class="i" d="M420.813,555.891l-.025,8.969-7.569-4.37.025-8.969Z"/><path class="y" d="M451.067,538.309c4.777,2.758,4.5,5.648-.355,8.467l-15.284,8.882c-4.85,2.818-9.838,2.991-14.615.233l-7.569-4.37L443.5,533.939Zm-20.642,14.723,15.737-9.146c2.164-1.257,2.018-2.231.49-3.113l-2.7-1.561-21.6,12.552,2.7,1.562c1.528.882,3.209.963,5.373-.294"/><g class="b"><g class="ac"><g class="b"><path class="u" d="M435.428,555.658l-.025,8.969a17.355,17.355,0,0,1-3.364,1.521l.026-8.969a17.374,17.374,0,0,0,3.363-1.521"/><path class="t" d="M432.065,557.179l-.026,8.969a14.489,14.489,0,0,1-1.882.475l.026-8.969a14.363,14.363,0,0,0,1.882-.475"/><path class="s" d="M430.183,557.654l-.026,8.969q-.528.1-1.055.149l.025-8.969q.528-.052,1.056-.149"/><path class="r" d="M429.127,557.8l-.025,8.969c-.286.028-.571.048-.856.057l.026-8.968q.428-.015.855-.058"/><path class="q" d="M428.272,557.861l-.026,8.968q-.383.014-.765,0l.026-8.969c.255.007.51.005.765,0"/><path class="p" d="M427.507,557.864l-.026,8.969c-.246-.006-.491-.019-.737-.039l.026-8.969q.368.03.737.039"/><path class="o" d="M426.77,557.825l-.026,8.969q-.376-.031-.753-.085l.026-8.969c.251.036.5.064.753.085"/><path class="n" d="M426.017,557.74l-.026,8.969c-.271-.038-.543-.086-.814-.142l.026-8.968q.406.084.814.141"/><path class="w" d="M425.2,557.6l-.026,8.968q-.486-.1-.972-.239l.026-8.969c.323.093.647.172.972.24"/><path class="x" d="M424.231,557.359l-.026,8.969q-.651-.186-1.3-.441l.025-8.969q.648.255,1.3.441"/><path class="k" d="M422.932,556.918l-.025,8.969a15.954,15.954,0,0,1-2.119-1.027l.025-8.969a15.836,15.836,0,0,0,2.119,1.027"/></g></g></g></g><g class="b"><path class="y" d="M466.03,546.948,435.776,564.53l-4.794-2.768,30.254-17.582Z"/><path class="l" d="M466.03,546.948,466,555.917,435.75,573.5l.025-8.969Z"/><path class="i" d="M435.776,564.53l-.025,8.969-4.794-2.768.025-8.969Z"/></g><g class="b"><path class="i" d="M472.661,555.789l-.025,8.969-2.7-1.561.025-8.969Z"/><g class="b"><g class="ad"><g class="b"><path class="k" d="M473.8,557.136l-.025,8.969c0-.484-.413-.926-1.142-1.347l.025-8.969c.73.421,1.144.863,1.142,1.347"/></g></g></g><g class="b"><g class="ae"><g class="b"><path class="n" d="M480.513,557.4l-.026,8.969v.065l.026-8.969V557.4"/><path class="o" d="M480.512,557.467l-.026,8.969a2.554,2.554,0,0,1-.049.433l.025-8.969a2.544,2.544,0,0,0,.05-.433"/><path class="p" d="M480.462,557.9l-.025,8.969a2.964,2.964,0,0,1-.128.444l.025-8.969a2.855,2.855,0,0,0,.128-.444"/><path class="q" d="M480.334,558.344l-.025,8.969a3.49,3.49,0,0,1-.227.482l.026-8.969a3.43,3.43,0,0,0,.226-.482"/><path class="r" d="M480.108,558.826l-.026,8.969a4.426,4.426,0,0,1-.39.576l.026-8.969a4.638,4.638,0,0,0,.39-.576"/><path class="s" d="M479.718,559.4l-.026,8.969a6.585,6.585,0,0,1-.706.755l.026-8.969a6.591,6.591,0,0,0,.706-.755"/><path class="t" d="M479.012,560.157l-.026,8.969a12.528,12.528,0,0,1-2.025,1.478l.025-8.969a12.5,12.5,0,0,0,2.026-1.478"/><path class="u" d="M476.986,561.635l-.025,8.969-.265.157.025-8.969c.09-.052.178-.1.265-.157"/></g></g></g><path class="l" d="M469.957,554.228l-.025,8.969-21.6,12.552.025-8.969Z"/><path class="l" d="M476.721,561.792l-.025,8.969-15.284,8.882.025-8.969Z"/><path class="i" d="M446.822,570.907l-.025,8.969-7.569-4.37.025-8.969Z"/><path class="y" d="M477.076,553.325c4.777,2.758,4.5,5.648-.355,8.467l-15.284,8.882c-4.85,2.819-9.838,2.991-14.615.233l-7.569-4.37,30.254-17.582Zm-20.642,14.723,15.737-9.146c2.164-1.257,2.018-2.231.49-3.113l-2.7-1.561-21.6,12.552,2.7,1.562c1.528.882,3.209.963,5.373-.294"/><g class="b"><g class="af"><g class="b"><path class="u" d="M461.437,570.674l-.025,8.969a17.381,17.381,0,0,1-3.364,1.521l.026-8.969a17.374,17.374,0,0,0,3.363-1.521"/><path class="t" d="M458.074,572.2l-.026,8.969a14.322,14.322,0,0,1-1.882.475l.026-8.968a14.576,14.576,0,0,0,1.882-.476"/><path class="s" d="M456.192,572.671l-.026,8.968q-.528.1-1.056.149l.026-8.969c.352-.035.7-.085,1.056-.148"/><path class="r" d="M455.136,572.819l-.026,8.969q-.427.043-.855.058l.026-8.969q.428-.015.855-.058"/><path class="q" d="M454.281,572.877l-.026,8.969c-.255.008-.51.01-.765,0l.025-8.968q.382.009.766,0"/><path class="p" d="M453.515,572.881l-.025,8.968c-.246-.006-.491-.019-.737-.039l.025-8.969c.246.02.492.034.737.04"/><path class="o" d="M452.778,572.841l-.025,8.969q-.376-.031-.753-.085l.026-8.968q.375.052.752.084"/><path class="n" d="M452.026,572.757,452,581.725c-.271-.038-.543-.085-.814-.142l.026-8.968q.406.084.814.142"/><path class="w" d="M451.212,572.615l-.026,8.968c-.324-.067-.648-.146-.972-.239l.026-8.969q.484.14.972.24"/><path class="x" d="M450.24,572.375l-.026,8.969q-.651-.186-1.3-.441l.025-8.969q.648.255,1.3.441"/><path class="k" d="M448.941,571.934l-.025,8.969a15.829,15.829,0,0,1-2.119-1.027l.025-8.969a15.709,15.709,0,0,0,2.119,1.027"/></g></g></g></g><g class="b"><path class="y" d="M492.039,561.964l-30.254,17.582-4.794-2.768L487.244,559.2Z"/><path class="l" d="M492.039,561.964l-.025,8.969-30.254,17.582.025-8.969Z"/><path class="i" d="M461.785,579.546l-.025,8.969-4.794-2.768.025-8.969Z"/></g><g class="b"><path class="l" d="M500.293,566.73l-.025,8.969-13.19,7.665.025-8.969Z"/><path class="ag" d="M511.357,573.117l-.025,8.969-20.143,3.995.025-8.969Z"/><path class="ah" d="M483.588,578.167l-.025,8.969-4.249.74.025-8.969Z"/><path class="l" d="M479.338,578.907l-.025,8.969-9.3,5.4.025-8.969Z"/><path class="i" d="M470.039,584.311l-.025,8.969-4.777-2.758.025-8.969Z"/><path class="i" d="M481.1,590.7l-.025,8.969-4.917-2.839.025-8.969Z"/><path class="y" d="M511.357,573.117l-20.143,3.995L481.1,590.7l-4.917-2.839,7.4-9.693-4.249.74-9.3,5.4-4.777-2.758,30.254-17.582,4.777,2.758-13.19,7.665,19.46-4.046Z"/><path class="ai" d="M491.214,577.112l-.025,8.969-10.111,13.587.025-8.969Z"/></g><g class="b"><path class="l" d="M515.044,581.452l-.025,8.969-17.62,7.554.025-8.969Z"/><path class="l" d="M492.727,591.044l-.025,8.969-6.321,2.717.025-8.969Z"/><path class="i" d="M486.406,593.761l-.025,8.969-4.408-2.545.025-8.969Z"/><path class="i" d="M498.593,594.43l-.025,8.969-5.866-3.386.025-8.969Z"/><path class="y" d="M524.141,580.5l-25.389,20.39-4.83-2.788,4.671-3.671-5.866-3.386-6.321,2.717L482,591.216l35.136-14.763Zm-26.716,8.507,4.619,2.666,13-10.22-17.619,7.554"/><path class="aj" d="M524.141,580.5l-.025,8.969-25.39,20.39.025-8.969Z"/><path class="i" d="M498.752,600.889l-.025,8.969-4.829-2.788.025-8.969Z"/></g><g class="b"><path class="l" d="M527.146,591.9l-.025,8.969L505.207,613.6l.025-8.969Z"/><path class="z" d="M537.19,588.032,537.164,597l-13.211,13.354.025-8.969Z"/><path class="i" d="M505.232,604.63l-.025,8.969-4.3-2.484.025-8.969Z"/><path class="y" d="M546.357,593.325,516.1,610.906l-4.917-2.839L527.146,591.9,505.232,604.63l-4.3-2.484,30.254-17.582,6.006,3.468-13.211,13.354,18.111-10.525Z"/><path class="l" d="M546.357,593.325l-.025,8.969-30.254,17.582.025-8.969Z"/><path class="i" d="M516.1,610.906l-.025,8.969-4.917-2.839.025-8.969Z"/></g></g></g></svg>