<svg xmlns="http://www.w3.org/2000/svg" xmlns:xlink="http://www.w3.org/1999/xlink" width="207.974" height="258.202" viewBox="0 0 207.974 258.202"><defs><style>.a,.h{fill:none;}.b{isolation:isolate;}.c{fill:#521168;}.d{fill:#b0b2b2;}.e{fill:#2d2d2c;}.f{fill:#6e7072;}.g,.i{fill:#4a0e5c;}.g{stroke:#fff;stroke-width:9.531px;}.g,.h{stroke-linejoin:round;}.h{stroke:#490c5a;stroke-width:4.765px;}.j{clip-path:url(#a);}.k{fill:#490c5a;}.l{fill:#622378;}.m{clip-path:url(#b);}.n{fill:#4f1361;}.o{fill:#511463;}.p{fill:#531666;}.q{fill:#551868;}.r{fill:#571a6a;}.s{fill:#591c6d;}.t{fill:#5b1d70;}.u{fill:#5d1f72;}.v{clip-path:url(#c);}.w{fill:#4d115f;}.x{fill:#4b0e5c;}.y{fill:#fff;}.z{clip-path:url(#d);}.aa{clip-path:url(#e);}.ab{clip-path:url(#f);}.ac{clip-path:url(#g);}.ad{clip-path:url(#h);}.ae{clip-path:url(#i);}.af{clip-path:url(#j);}.ag{clip-path:url(#k);}.ah{clip-path:url(#l);}</style><clipPath id="a"><path class="a" d="M397.263,278.039l-.025,8.969c0-.457-.408-.871-1.127-1.286l.025-8.969C396.855,277.168,397.265,277.583,397.263,278.039Z"/></clipPath><clipPath id="b"><path class="a" d="M403.9,278.315l-.025,8.969c0,1.463-1.291,2.936-3.792,4.389l.026-8.968C402.61,281.251,403.9,279.779,403.9,278.315Z"/></clipPath><clipPath id="c"><path class="a" d="M396.183,284.986l-.026,8.969c-4.85,2.818-9.838,2.991-14.615.233l.026-8.969C386.344,287.977,391.332,287.8,396.183,284.986Z"/></clipPath><clipPath id="d"><path class="a" d="M413.837,287.284l-.025,8.968c0-.5-.413-.954-1.143-1.375-1.51-.872-3.3-.953-5.459.3l.025-8.969c2.164-1.258,3.95-1.176,5.46-.3C413.424,286.33,413.839,286.785,413.837,287.284Z"/></clipPath><clipPath id="e"><path class="a" d="M420.434,287.551l-.026,8.969c0,1.5-1.267,3.019-3.748,4.461l.025-8.969C419.167,290.57,420.429,289.053,420.434,287.551Z"/></clipPath><clipPath id="f"><path class="a" d="M389.244,306.473l.025-8.968c0-.545.5-1.143,1.635-1.8l-.025,8.969C389.745,305.331,389.246,305.928,389.244,306.473Z"/></clipPath><clipPath id="g"><path class="a" d="M382.648,306.206l.025-8.969c0,1.422,1.118,2.828,3.4,4.144a14.394,14.394,0,0,0,14.878-.223l-.026,8.969a14.4,14.4,0,0,1-14.878.223C383.765,309.034,382.644,307.627,382.648,306.206Z"/></clipPath><clipPath id="h"><path class="a" d="M453.725,310.268l-.026,8.969c0-.467-.387-.895-1.094-1.3-1.528-.882-3.209-.9-5.372.355a4.637,4.637,0,0,0-2.586,4.463l.025-8.969a4.639,4.639,0,0,1,2.586-4.463c2.164-1.257,3.844-1.237,5.372-.355C453.337,309.374,453.726,309.8,453.725,310.268Z"/></clipPath><clipPath id="i"><path class="a" d="M460.116,310.372l-.026,8.969c0,1.5-1.315,3.023-3.846,4.494l.025-8.969C458.8,313.4,460.111,311.875,460.116,310.372Z"/></clipPath><clipPath id="j"><path class="a" d="M438.062,317.015l-.025,8.968c0-1.162-.2-2.4-.2-3.654l.026-8.969C437.859,314.618,438.066,315.852,438.062,317.015Z"/></clipPath><clipPath id="k"><path class="a" d="M428.884,329.319l.026-8.969c0-.536.493-1.122,1.613-1.773l-.025,8.969C429.378,328.2,428.886,328.783,428.884,329.319Z"/></clipPath><clipPath id="l"><path class="a" d="M444.865,317.4l-.025,8.968c-.006,2.225-.663,4.524-4.3,6.637-4.833,2.809-10.03,3.022-14.737.3-2.255-1.3-3.349-2.671-3.345-4.054l.025-8.969c0,1.383,1.09,2.752,3.345,4.055,4.707,2.717,9.9,2.5,14.738-.3C444.2,321.92,444.859,319.62,444.865,317.4Z"/></clipPath></defs><g transform="translate(-640 -1522.971)"><g transform="translate(640.684 1584.479)"><g class="b"><path class="c" d="M115.465,17.616l-7.093-4.095L5.974,73.448c-8.918,5.183-8.871,13.617.106,18.8l123.892,70.781,7.047-4.1L13.127,88.152c-5.063-2.923-5.1-7.682-.059-10.609l102.4-59.927"/></g></g><g transform="translate(657.675 1469)"><g transform="translate(0 53.971)"><g class="b"><g transform="translate(0.045)"><path class="d" d="M75.562,20.135c10.427-6.114,27.514-6.156,38.1-.1l68.623,39.287c10.583,6.059,10.711,15.956.288,22.065l-67.775,39.724c-10.427,6.114-27.514,6.156-38.1.1L8.075,81.923C-2.509,75.865-2.636,65.968,7.786,59.858Zm103.5,41.08L110.435,21.927c-8.787-5.029-22.976-4.974-31.6.08L11.061,61.731C2.406,66.8,2.512,75,11.3,80.034l68.623,39.287c8.757,5.012,22.946,4.991,31.6-.08L179.3,79.517c8.622-5.054,8.516-13.291-.242-18.3" transform="translate(-0.053 -15.521)"/></g><g transform="translate(4.631 2.664)"><path class="e" d="M75.333,19.972c8.622-5.054,22.811-5.11,31.6-.08l68.623,39.287c8.757,5.012,8.863,13.248.241,18.3L108.02,117.205c-8.656,5.071-22.845,5.093-31.6.08L7.8,78C-.992,72.969-1.1,64.767,7.558,59.7Z" transform="translate(-1.135 -16.15)"/></g><path class="f" d="M190.34,28.5c0,.258-.042.517-.068.775-.025.288-.047.576-.1.86-.042.229-.11.453-.169.678a8.046,8.046,0,0,1-.233.813c-.076.22-.178.432-.271.648-.123.284-.246.568-.4.847-.106.2-.233.4-.356.6-.195.318-.4.631-.636.941-.136.182-.28.364-.428.542a16.134,16.134,0,0,1-1.174,1.263c-.136.131-.258.263-.4.394-.263.233-.551.462-.835.686-.242.195-.475.394-.733.585-.309.225-.648.436-.974.652s-.623.424-.966.627L114.829,79.131a29.361,29.361,0,0,1-3.745,1.792c-.352.14-.712.275-1.072.407-.818.3-1.678.538-2.542.78-.881.25-1.775.483-2.69.674-1.046.216-2.1.411-3.178.551-.3.038-.585.093-.881.123-1.487.161-2.991.246-4.5.263-.246,0-.487,0-.733,0-1.5-.008-2.991-.089-4.47-.237l-.669-.076a42.827,42.827,0,0,1-4.355-.733c-.246-.055-.487-.119-.733-.178a37.575,37.575,0,0,1-3.686-1.11c-.25-.089-.513-.161-.763-.258a29.511,29.511,0,0,1-4.08-1.907L8.109,39.936C4.092,37.64,1.58,34.789.58,31.8a9.553,9.553,0,0,1-.5-3.017L.042,43.771c-.008,4.046,2.669,8.092,8.024,11.16L76.689,94.213a29.021,29.021,0,0,0,3.8,1.813c.093.038.191.059.284.1.25.093.513.165.767.258.733.258,1.457.53,2.22.746.475.136.974.241,1.462.36.246.059.483.123.733.178.2.047.4.106.61.148.877.182,1.771.339,2.669.466.356.051.716.081,1.076.123.225.025.445.051.669.072.292.03.585.076.881.1.881.076,1.771.123,2.656.144.314.008.623,0,.932,0,.246,0,.487,0,.733,0,.369,0,.737.008,1.106,0,1-.034,2-.1,2.991-.2.136-.013.267-.042.4-.055.3-.034.585-.085.881-.123.724-.093,1.453-.174,2.165-.305.347-.059.669-.178,1.013-.25.919-.191,1.8-.419,2.695-.669.453-.131.945-.2,1.39-.347.4-.127.763-.3,1.148-.436.364-.131.72-.263,1.072-.407a28.539,28.539,0,0,0,3.745-1.792L182.562,54.4l.254-.153c.254-.153.475-.318.716-.479.326-.212.665-.424.966-.644.267-.195.5-.394.746-.593.28-.225.568-.445.822-.678.042-.038.1-.076.14-.114.1-.093.169-.195.267-.288a15.2,15.2,0,0,0,1.165-1.254c.072-.089.169-.169.241-.258s.123-.191.195-.288c.229-.309.432-.619.627-.936.081-.127.186-.254.258-.381.042-.072.064-.148.1-.22a8.818,8.818,0,0,0,.394-.839c.072-.161.165-.318.225-.475.021-.059.03-.123.051-.182.1-.267.161-.538.233-.809.047-.178.114-.352.153-.53.009-.051.009-.1.017-.153.051-.284.072-.572.1-.864.017-.178.055-.356.064-.534l0-.237h0Z" transform="translate(-0.042 26.479)"/></g></g></g><g transform="translate(335.876 1434.838)"><path class="g" d="M471.1,315.018h0L466.3,312.25l-6.2,3.6.016-5.482c0,.034-.021.067-.022.1a3.1,3.1,0,0,0-.761-2.081c-.028-.034-.075-.068-.1-.1a6.531,6.531,0,0,0-.926-.914,11.517,11.517,0,0,0-1.487-1.005,14.42,14.42,0,0,0-1.554-.766c-.169-.073-.339-.139-.509-.2-.366-.141-.735-.262-1.106-.369-.189-.055-.376-.118-.566-.164a13.087,13.087,0,0,0-1.379-.253c-.318-.043-.637-.061-.957-.08-.168-.01-.335-.018-.5-.02a13.866,13.866,0,0,0-3.691.425l.012-4.069v-.016h0l-30.254,17.582-2.554-1.475h0l.227.131,2.327,1.343,30.254-17.581h0l-4.795-2.768h0l-18.8,10.928-9.2,5.347.007-2.4h0l-4.327,2.515-.156-.09h0l.151.087,4.327-2.515-.151-.087,18.172-10.56.025-8.959.009,0-4.8-2.767-6.608,3.841.017-5.865h0c0,.019-.012.039-.013.058a3.275,3.275,0,0,0-.815-2.145c-.027-.034-.075-.068-.1-.1a6.849,6.849,0,0,0-.961-.944,12.036,12.036,0,0,0-1.391-.937c-.048-.029-.079-.059-.128-.087l-.008,0a15.118,15.118,0,0,0-1.68-.83c-.2-.082-.393-.141-.59-.214-.377-.14-.754-.276-1.135-.383-.243-.067-.487-.115-.731-.169-.339-.075-.678-.146-1.02-.2-.269-.038-.537-.063-.806-.086-.32-.027-.639-.044-.96-.048-.285,0-.57,0-.855.012-.3.015-.609.044-.913.079s-.594.067-.892.12-.579.124-.869.194c-.306.073-.612.14-.916.233-.28.086-.557.2-.835.3-.308.114-.618.214-.924.349h0l.012-4.439h0a.123.123,0,0,1-.008.038c0,.01-.006.019-.006.028a3.119,3.119,0,0,0-.814-2.085c-.02-.024-.055-.049-.076-.073a6.964,6.964,0,0,0-1-.958,12.817,12.817,0,0,0-1.536-1.027l-7.059-4.076h0L363.15,287.744l-.026,8.969,4.794,2.768,11.359-6.6,2.265,1.308a15.972,15.972,0,0,0,1.976.958l0,0a3.949,3.949,0,0,0-.668,1.258c-.016.055-.028.109-.041.163a2.73,2.73,0,0,0-.032,1.219,2.8,2.8,0,0,1-.108-.551l-.025,8.969c0,1.421,1.117,2.828,3.4,4.144a15.083,15.083,0,0,0,1.919.928l.027.014c.026.013.051.027.077.037q.656.258,1.321.449c.066.018.132.031.2.049s.155.038.233.057h0c.194.049.386.1.58.143q.429.088.859.15c.073.01.146.015.219.024.052.007.1.012.157.018.142.016.283.036.425.047q.395.033.79.042c.165,0,.33,0,.5,0h.152c.058,0,.115,0,.173,0q.458-.016.915-.062c.115-.012.229-.034.343-.048l.224-.031h0c.1-.013.2-.025.3-.041.082-.014.164-.02.246-.035.229-.041.455-.119.682-.172.129-.029.258-.052.387-.086l-.012,4.3,6.331,3.656,6.331,3.655h0l1.179-.685.9-.523-.007,2.4,4.794,2.768,6.191-3.6-.015,5.444a4.064,4.064,0,0,0,1.87,3.066,12.089,12.089,0,0,0,1.475.988,15.023,15.023,0,0,0,1.9.921c.033.013.064.034.1.047a13.574,13.574,0,0,0,1.288.438c.075.022.151.036.226.056s.158.039.237.058c.172.043.344.092.516.128.278.057.557.106.837.145.092.013.185.02.278.031.052.007.105.013.158.018h0c.1.011.191.023.287.032l.049.006c.254.021.508.034.762.041.208,0,.417,0,.625,0h.089c.028,0,.055,0,.083,0,.277-.009.555-.03.833-.056l.061,0c.232-.024.465-.063.7-.1.083-.013.166-.021.249-.035.053-.009.1-.013.158-.023.231-.041.46-.12.691-.174l.106-.025-.011,3.994,4.794,2.768,30.254-17.582.013-4.484Zm-67.455-35.592-.015.032a2.745,2.745,0,0,0,.121-.456,2.561,2.561,0,0,1-.081.371C403.659,279.391,403.65,279.409,403.642,279.426Zm15.879,10.327,0,0-.031.032a4.239,4.239,0,0,0,.257-.392C419.664,289.514,419.618,289.634,419.521,289.753Zm-29.539,6.6.029-.025-.025.023Zm.206-.182c.066-.049.155-.1.229-.152h.005c-.074.051-.167.1-.234.154Zm-.425.376-.034.036h0c-.011.012-.031.026-.042.038.022-.024.051-.049.076-.074Zm12.118-15.058-.009.007c.1-.076.162-.152.25-.227-.074.065-.131.131-.212.2Zm18.4,6.757c-.011.042-.014.084-.027.127a1.067,1.067,0,0,1-.057.269c-.009.023-.022.046-.032.069a2.907,2.907,0,0,0,.1-.389C420.272,288.3,420.279,288.274,420.286,288.249Zm-1.831,2.538-.018.014-.01.009c.1-.08.167-.161.258-.241C418.6,290.641,418.543,290.715,418.455,290.787ZM402.99,280.438c-.012.013-.027.027-.039.041.1-.121.163-.242.249-.363C403.124,280.224,403.08,280.33,402.99,280.438ZM437.961,315.2c.034.411.051.808.067,1.206-.013-.286-.024-.573-.048-.866-.008-.108-.009-.21-.018-.319V315.2Zm6.835-2.733c.008-.04.022-.08.033-.12l-.008.032c-.007.03-.019.058-.025.088Zm15.081-1.007c-.013.032-.03.064-.045.1l-.011.018a2.936,2.936,0,0,0,.134-.468A2.807,2.807,0,0,1,459.877,311.462Zm-.691,1.1c-.009.011-.019.021-.029.031s-.021.021-.03.032c.108-.127.174-.254.264-.382C459.316,312.348,459.274,312.454,459.186,312.56Zm-1.1,1.052-.053.044c.1-.077.167-.155.255-.232C458.219,313.487,458.167,313.55,458.09,313.612Zm-9.3,3.962a5.188,5.188,0,0,1,1.08-.21c.088-.01.185-.048.271-.053h.021a4.024,4.024,0,0,1,.429.044c.056.009.114.013.171.018l-.011,3.913-5.745,3.339-.166.1.008-2.575,0-1.006c.027-.1.049-.2.084-.3s.073-.183.112-.273c.029-.066.06-.131.091-.2.015-.03.027-.061.043-.091.05-.1.112-.189.172-.283s.109-.173.173-.258c.039-.052.088-.1.129-.152.026-.029.049-.058.075-.087.091-.105.184-.209.29-.311.061-.058.131-.114.2-.171.092-.08.215-.154.317-.232a6.385,6.385,0,0,1,.521-.382c.061-.038.11-.078.175-.115A8.194,8.194,0,0,1,448.794,317.574Zm-3.239-6.8c-.009.012-.021.024-.03.035.013-.017.028-.033.041-.05Zm-.479.83c-.011.025-.024.049-.034.074.021-.051.043-.1.066-.151C445.1,311.549,445.087,311.575,445.076,311.6Zm-3.232,11.59-.044.038c-.024.017-.053.033-.076.05-.124.09-.277.178-.409.267-.241.161-.468.323-.742.483a13.148,13.148,0,0,0,1.326-.883C441.879,323.16,441.864,323.176,441.844,323.19Zm4.511-13.236c-.038.032-.073.064-.11.1-.013.011-.031.021-.044.032l-.007.005h0C446.245,310.042,446.3,310,446.355,309.954Zm-1.775,9.527c-.042.15-.071.3-.127.452-.011.03-.03.061-.042.091a4.9,4.9,0,0,0,.147-.47C444.565,319.529,444.573,319.505,444.58,319.481Zm-.315.863c-.061.134-.115.269-.188.4a.187.187,0,0,1-.011.025c-.034.061-.084.122-.121.183.042-.07.072-.141.11-.211C444.129,320.611,444.2,320.478,444.265,320.344Zm-.554.963c-.069.1-.121.2-.2.293-.037.048-.09.1-.13.143s-.081.085-.118.127c.016-.018.028-.037.044-.056C443.453,321.645,443.592,321.477,443.711,321.307Zm-.833.981c-.059.058-.1.118-.164.177-.117.11-.259.218-.393.327l-.066.056c.083-.069.152-.139.231-.208C442.618,322.523,442.76,322.406,442.878,322.288Zm15.157.321.389-.226-.389.226Zm-20.177-7.743-.01,3.758a4.288,4.288,0,0,1-.281.74c-.018.036-.042.071-.061.106a4.121,4.121,0,0,1-.39.613c-.074.094-.173.183-.258.274a4.816,4.816,0,0,1-.414.422,6.65,6.65,0,0,1-.951.668,7.542,7.542,0,0,1-1.479.666,5.372,5.372,0,0,1-1.341.251l.012-4.492,1.724-1Zm-13.914,8.086h0c.011.01.019.02.03.03h0Zm18.4,8.773h0l12.776-7.425h0l-1.258.732Z"/><path class="h" d="M379.277,292.88l2.265,1.308a15.9,15.9,0,0,0,1.976.958l0,0a3.172,3.172,0,0,0-.74,2.644,2.85,2.85,0,0,1-.109-.555l-.025,8.969c0,1.421,1.117,2.828,3.4,4.144a15.275,15.275,0,0,0,1.918.928c.036.014.07.037.1.051q.656.258,1.321.449c.066.019.133.031.2.049s.155.038.232.057c.194.049.386.1.58.143q.429.088.859.15c.072.01.145.015.217.024l.161.018c.141.016.282.036.423.047q.395.033.79.042c.165,0,.33,0,.5,0h.153c.057,0,.115,0,.172,0,.305-.01.61-.031.915-.061.189-.019.378-.053.567-.079.1-.014.2-.026.3-.042.082-.014.165-.02.248-.035.228-.041.455-.12.683-.172.128-.03.257-.052.385-.086l-.012,4.3,12.662,7.311,2.079-1.208-.007,2.4,4.794,2.768,6.191-3.6-.015,5.444c0,1.382,1.09,2.752,3.345,4.054a14.945,14.945,0,0,0,1.9.921c.033.013.065.034.1.047a13.574,13.574,0,0,0,1.288.438c.075.022.151.036.227.056s.157.039.236.058c.172.043.344.092.516.128.278.057.557.106.837.145.092.013.185.02.278.032l.159.017c.112.012.224.029.336.038.254.021.508.034.762.041.207,0,.415,0,.622,0h.094c.027,0,.054,0,.081,0q.445-.015.893-.06c.233-.024.466-.063.7-.1.082-.013.165-.021.247-.035.053-.009.106-.013.159-.022.234-.043.466-.123.7-.177l.1-.023-.011,3.994,4.794,2.768,30.254-17.582.026-8.969-13.063,7.591h0l13.061-7.591L466.3,312.25l-6.2,3.605.016-5.483c0,.034-.021.067-.022.1.057-1.4-1-2.787-3.277-4.1a13.479,13.479,0,0,0-10.266-1.431l.012-4.085-30.254,17.582-2.554-1.475h0l2.554,1.474,30.254-17.581-4.794-2.768-28.007,16.275.007-2.4-4.327,2.515-.156-.09h0l.151.088,4.327-2.515-.151-.087,18.172-10.56.025-8.959.009,0-4.8-2.767-6.608,3.841.017-5.865c0,.019-.012.039-.013.058.036-1.443-1.078-2.875-3.4-4.215a14.168,14.168,0,0,0-13.134-.64l.012-4.439c0,.022-.014.044-.014.066.04-1.4-1.072-2.786-3.423-4.143l-7.059-4.076L363.15,287.744l-.026,8.969,4.8,2.768Zm44.668,30.072c.011.01.02.021.031.031-.011-.01-.02-.021-.032-.031Zm24.85-5.378a5.213,5.213,0,0,1,1.35-.263h.021a3.957,3.957,0,0,1,.6.062l-.011,3.913-5.911,3.435.011-3.581c.027-.1.049-.2.084-.3s.073-.183.112-.273.083-.193.133-.287.113-.191.174-.285.108-.173.172-.257.135-.161.2-.24c.091-.1.183-.208.289-.309.06-.059.131-.115.2-.172a6.412,6.412,0,0,1,.837-.614c.061-.037.11-.078.175-.115A8.139,8.139,0,0,1,448.8,317.574Zm9.295-3.962-.055.045c.1-.08.172-.16.265-.241C458.224,313.482,458.17,313.547,458.09,313.612Zm-29.175,6.67,0,.021Zm16.641-9.512c-.01.013-.023.025-.032.037.013-.018.029-.035.043-.053Zm-.48.829c-.01.025-.024.05-.034.075.021-.051.043-.1.066-.151C445.1,311.548,445.087,311.574,445.076,311.6Zm-.254.778c-.007.031-.02.061-.026.092.009-.043.025-.085.035-.129Zm-.137,1.092c0-.066,0-.133.008-.2C444.689,313.336,444.687,313.4,444.685,313.469Zm-.232,6.464c-.011.03-.03.061-.042.092.071-.181.118-.363.17-.545C444.538,319.631,444.509,319.782,444.453,319.933Zm-.388.84c-.034.061-.084.122-.121.182a5.614,5.614,0,0,0,.321-.612C444.2,320.487,444.145,320.63,444.065,320.773Zm-.552.828c-.036.047-.089.093-.127.14s-.083.086-.12.129a7.1,7.1,0,0,0,.445-.563C443.642,321.4,443.59,321.5,443.513,321.6Zm-.8.864c-.137.129-.306.256-.46.383.225-.186.436-.373.625-.561C442.82,322.346,442.776,322.406,442.714,322.465Zm-.914.763c-.023.017-.053.033-.076.05a13.59,13.59,0,0,1-1.157.754,12.985,12.985,0,0,0,1.332-.887C441.863,323.172,441.837,323.2,441.8,323.228Zm-3.748-6.4c-.008-.525-.044-1.059-.09-1.607V315.2C438.007,315.755,438.044,316.3,438.052,316.83Zm4.3,14.894,12.775-7.424h0l-12.777,7.426Zm3.9-21.674c-.015.013-.036.025-.051.037.052-.045.109-.09.164-.135C446.318,309.984,446.283,310.018,446.245,310.05Zm-8.4,8.574a4.611,4.611,0,0,1-2.355,2.823,6.256,6.256,0,0,1-2.82.917l.012-4.492,5.173-3.006Zm-13.517,4.7a11.9,11.9,0,0,0,1.5,1.011A11.9,11.9,0,0,1,424.331,323.325Zm35.546-11.863c-.013.032-.03.064-.045.1l-.011.017a2.929,2.929,0,0,0,.134-.47A2.669,2.669,0,0,1,459.877,311.462Zm-.486.779c-.075.107-.117.213-.2.319-.018.021-.042.043-.059.064C459.235,312.5,459.3,312.369,459.391,312.241Zm-5.689-2.027a1.021,1.021,0,0,0-.252-.6A1.021,1.021,0,0,1,453.7,310.214Zm-.309-.658a3.147,3.147,0,0,0-.763-.591A3.147,3.147,0,0,1,453.393,309.556Zm-64.115-12.143,0,.029Zm.11-.365.017-.035Zm.3-.421c.024-.026.055-.053.081-.079l-.036.038C389.717,296.6,389.7,296.614,389.684,296.627Zm.739-.607c-.075.051-.169.1-.236.155.067-.05.158-.1.232-.154Zm-.442.337.032-.028-.027.025Zm28.474-5.57-.029.024c.1-.081.168-.162.259-.242C418.6,290.641,418.543,290.715,418.455,290.787Zm-16.545-9.318-.039.031c.1-.078.168-.157.259-.236C402.051,281.332,401.994,281.4,401.91,281.469Zm-19.038,16.784a3.985,3.985,0,0,0,.366.637A3.985,3.985,0,0,1,382.872,298.253Zm.625,1.065a6.832,6.832,0,0,0,.7.7A6.832,6.832,0,0,1,383.5,299.318Zm1.064,1.045a12.01,12.01,0,0,0,1.509,1.018A12.01,12.01,0,0,1,384.561,300.363ZM420.2,288.645c-.009.023-.022.046-.032.069a2.94,2.94,0,0,0,.116-.466A2.805,2.805,0,0,1,420.2,288.645Zm-.453.745c-.083.121-.129.242-.228.362-.01.012-.023.024-.033.036A4.6,4.6,0,0,0,419.749,289.39Zm-5.931-2.152a1.1,1.1,0,0,0-.273-.66A1.1,1.1,0,0,1,413.818,287.238Zm-.313-.7a3.21,3.21,0,0,0-.81-.631A3.21,3.21,0,0,1,413.505,286.54Zm-9.838-7.166c-.012.028-.028.057-.041.085a2.782,2.782,0,0,0,.123-.461A2.661,2.661,0,0,1,403.667,279.374Zm-.465.739c-.077.108-.121.216-.212.325-.012.014-.027.028-.039.042C403.055,280.358,403.115,280.235,403.2,280.113ZM397.244,278a.978.978,0,0,0-.27-.605A.978.978,0,0,1,397.244,278Zm-.31-.643a3.453,3.453,0,0,0-.8-.6A3.453,3.453,0,0,1,396.934,277.353Z"/><g class="b"><path class="i" d="M396.136,276.753l-.025,8.969-2.266-1.308.025-8.969Z"/><g class="b"><g class="j"><g class="b"><path class="k" d="M397.263,278.039l-.025,8.969c0-.457-.408-.871-1.127-1.286l.025-8.969c.719.415,1.129.83,1.127,1.286"/></g></g></g><path class="l" d="M393.871,275.445l-.025,8.969L383.6,290.365l.025-8.969Z"/><g class="b"><g class="m"><g class="b"><path class="n" d="M403.9,278.315l-.025,8.969v.065l.025-8.969v-.065"/><path class="o" d="M403.9,278.38l-.025,8.969a2.567,2.567,0,0,1-.05.433l.025-8.969a2.555,2.555,0,0,0,.05-.433"/><path class="p" d="M403.849,278.813l-.025,8.969a2.854,2.854,0,0,1-.128.444l.025-8.969a2.746,2.746,0,0,0,.128-.444"/><path class="q" d="M403.721,279.257l-.025,8.969a3.434,3.434,0,0,1-.227.482l.026-8.969a3.369,3.369,0,0,0,.226-.482"/><path class="r" d="M403.495,279.739l-.026,8.969a4.523,4.523,0,0,1-.389.576l.025-8.969a4.644,4.644,0,0,0,.39-.576"/><path class="s" d="M403.105,280.315l-.025,8.969a6.6,6.6,0,0,1-.707.754l.026-8.968a6.684,6.684,0,0,0,.706-.755"/><path class="t" d="M402.4,281.07l-.026,8.968a12.438,12.438,0,0,1-2.025,1.479l.025-8.969a12.5,12.5,0,0,0,2.026-1.478"/><path class="u" d="M400.373,282.548l-.025,8.969-.265.156.026-8.968.264-.157"/></g></g></g><path class="l" d="M400.109,282.7l-.025,8.969-3.926,2.281.025-8.969Z"/><path class="i" d="M381.568,285.219l-.025,8.969-2.265-1.308.025-8.969Z"/><g class="b"><g class="v"><g class="b"><path class="u" d="M396.183,284.986l-.026,8.969a17.349,17.349,0,0,1-3.363,1.521l.025-8.969a17.355,17.355,0,0,0,3.364-1.521"/><path class="t" d="M392.819,286.507l-.025,8.969a14.367,14.367,0,0,1-1.882.475l.025-8.968a14.494,14.494,0,0,0,1.882-.476"/><path class="s" d="M390.937,286.983l-.025,8.968q-.528.1-1.056.149l.025-8.969c.352-.035.7-.085,1.056-.148"/><path class="r" d="M389.881,287.131l-.025,8.969q-.427.043-.855.058l.025-8.969q.428-.015.855-.058"/><path class="q" d="M389.026,287.189,389,296.158c-.255.008-.51.01-.765,0l.025-8.968q.383.009.765,0"/><path class="p" d="M388.261,287.193l-.025,8.968q-.369-.009-.737-.039l.025-8.969c.246.02.491.034.737.04"/><path class="o" d="M387.524,287.153l-.025,8.969q-.377-.031-.753-.085l.025-8.968q.377.053.753.084"/><path class="n" d="M386.771,287.069l-.025,8.968q-.408-.057-.814-.141l.025-8.969c.271.056.543.1.814.142"/><path class="w" d="M385.957,286.927l-.025,8.969c-.325-.068-.649-.147-.972-.24l.025-8.969q.486.139.972.24"/><path class="x" d="M384.985,286.687l-.025,8.969q-.651-.186-1.3-.441l.025-8.969q.648.255,1.3.441"/><path class="k" d="M383.687,286.246l-.025,8.969a15.843,15.843,0,0,1-2.12-1.027l.026-8.969a15.709,15.709,0,0,0,2.119,1.027"/></g></g></g><path class="l" d="M379.3,283.911l-.025,8.969-11.358,6.6.025-8.969Z"/><path class="y" d="M400.463,274.238c4.777,2.758,4.5,5.648-.354,8.467l-3.926,2.281c-4.851,2.819-9.839,2.991-14.615.233l-2.266-1.308-11.358,6.6-4.794-2.768L393.4,270.162Zm-9.371,8.152,4.536-2.636c2.164-1.257,2.019-2.129.508-3l-2.265-1.308L383.629,281.4l2.266,1.308c1.51.872,3.033.943,5.2-.315"/><path class="i" d="M367.944,290.512l-.025,8.969-4.794-2.768.025-8.969Z"/></g><g class="b"><g class="b"><g class="z"><g class="b"><path class="k" d="M413.837,287.284l-.025,8.968c0-.5-.413-.954-1.143-1.375a5.121,5.121,0,0,0-.684-.331l.025-8.969a4.967,4.967,0,0,1,.685.332c.729.421,1.144.876,1.142,1.375"/><path class="x" d="M412.01,285.577l-.025,8.969c-.14-.055-.281-.1-.426-.145l.026-8.969c.144.042.286.09.425.145"/><path class="w" d="M411.585,285.432l-.026,8.969c-.107-.031-.216-.057-.325-.08l.025-8.969c.11.023.219.05.326.08"/><path class="n" d="M411.259,285.352l-.025,8.969q-.137-.029-.276-.048l.025-8.969q.139.02.276.048"/><path class="o" d="M410.983,285.3l-.025,8.969c-.086-.012-.172-.022-.259-.029l.025-8.969c.087.007.174.017.259.029"/><path class="p" d="M410.724,285.275l-.025,8.969c-.085-.007-.171-.012-.258-.014l.026-8.969c.086,0,.172.007.257.014"/><path class="q" d="M410.467,285.261l-.026,8.969c-.09,0-.181,0-.272,0l.025-8.968c.092,0,.183,0,.273,0"/><path class="r" d="M410.194,285.263l-.025,8.968c-.1,0-.208.011-.313.021l.025-8.968c.106-.011.21-.018.313-.021"/><path class="s" d="M409.881,285.284l-.025,8.968c-.133.014-.267.033-.4.057l.026-8.968c.136-.025.271-.044.4-.057"/><path class="t" d="M409.478,285.341l-.026,8.968a5.756,5.756,0,0,0-.733.186l.025-8.969a5.762,5.762,0,0,1,.734-.185"/><path class="u" d="M408.744,285.526l-.025,8.969a7.726,7.726,0,0,0-1.509.687l.025-8.969a7.813,7.813,0,0,1,1.509-.687"/></g></g></g><g class="b"><g class="aa"><g class="b"><path class="n" d="M420.434,287.551l-.026,8.969c0,.023,0,.046,0,.07l.026-8.969c0-.023,0-.047,0-.07"/><path class="o" d="M420.433,287.621l-.026,8.969a2.726,2.726,0,0,1-.053.464l.025-8.969a2.821,2.821,0,0,0,.054-.464"/><path class="p" d="M420.379,288.085l-.025,8.969a3.127,3.127,0,0,1-.136.474l.025-8.969a3.017,3.017,0,0,0,.136-.474"/><path class="q" d="M420.243,288.559l-.025,8.969a3.683,3.683,0,0,1-.243.515l.025-8.968a3.638,3.638,0,0,0,.243-.516"/><path class="r" d="M420,289.075l-.025,8.968a4.715,4.715,0,0,1-.4.6l.025-8.969a4.778,4.778,0,0,0,.4-.6"/><path class="s" d="M419.6,289.673l-.025,8.969a6.792,6.792,0,0,1-.726.775l.025-8.968a6.792,6.792,0,0,0,.726-.776"/><path class="t" d="M418.869,290.449l-.025,8.968a11.946,11.946,0,0,1-1.944,1.422l.026-8.969a11.993,11.993,0,0,0,1.943-1.421"/><path class="u" d="M416.926,291.87l-.026,8.969-.24.142.025-8.969c.082-.047.162-.094.241-.142"/></g></g></g><path class="l" d="M407.235,286.213l-.025,8.969-16.331,9.49.025-8.969Z"/><g class="b"><g class="ab"><g class="b"><path class="u" d="M390.9,295.7l-.025,8.969-.129.076.026-8.969.128-.076"/><path class="t" d="M390.776,295.779l-.026,8.969a5.63,5.63,0,0,0-.912.663l.026-8.968a5.631,5.631,0,0,1,.912-.664"/><path class="s" d="M389.864,296.443l-.026,8.968a2.712,2.712,0,0,0-.29.31l.025-8.968a2.652,2.652,0,0,1,.291-.31"/><path class="r" d="M389.573,296.753l-.025,8.968a1.827,1.827,0,0,0-.151.223l.025-8.968a1.791,1.791,0,0,1,.151-.223"/><path class="q" d="M389.422,296.976l-.025,8.968a1.384,1.384,0,0,0-.087.184l.026-8.969a1.249,1.249,0,0,1,.086-.183"/><path class="p" d="M389.336,297.159l-.026,8.969a1.082,1.082,0,0,0-.047.165l.025-8.969a1.092,1.092,0,0,1,.048-.165"/><path class="o" d="M389.288,297.324l-.025,8.969a.951.951,0,0,0-.019.157l.026-8.968a.862.862,0,0,1,.018-.158"/><path class="n" d="M389.27,297.482l-.026,8.968v.023l.026-8.968v-.023"/></g></g></g><path class="l" d="M416.685,292.012l-.025,8.969-15.738,9.146.025-8.969Z"/><g class="b"><g class="ac"><g class="b"><path class="u" d="M400.948,301.158l-.026,8.969a16.78,16.78,0,0,1-3.255,1.464l.025-8.968a16.764,16.764,0,0,0,3.256-1.465"/><path class="t" d="M397.692,302.623l-.025,8.968a15.014,15.014,0,0,1-1.969.5l.026-8.969a14.95,14.95,0,0,0,1.968-.5"/><path class="s" d="M395.724,303.118l-.026,8.969q-.555.1-1.112.156l.026-8.969q.557-.055,1.112-.156"/><path class="r" d="M394.612,303.274l-.026,8.969q-.457.045-.915.062l.026-8.969c.305-.011.61-.031.915-.062"/><path class="q" d="M393.7,303.336l-.026,8.969q-.411.014-.821,0l.025-8.969c.274.007.548.005.822,0"/><path class="p" d="M392.875,303.34l-.025,8.969q-.4-.01-.79-.043l.026-8.968c.262.021.526.035.789.042"/><path class="o" d="M392.086,303.3l-.026,8.968q-.4-.033-.8-.089l.026-8.969c.266.038.533.067.8.09"/><path class="n" d="M391.285,303.208l-.026,8.969q-.431-.062-.859-.15l.026-8.969q.428.088.859.15"/><path class="w" d="M390.426,303.058l-.026,8.969q-.508-.105-1.012-.249l.025-8.969q.5.144,1.013.249"/><path class="x" d="M389.413,302.809l-.025,8.969q-.666-.191-1.321-.449l.026-8.969c.436.173.877.322,1.32.449"/><path class="k" d="M388.093,302.36l-.026,8.969a15.209,15.209,0,0,1-2.023-.979c-2.279-1.316-3.4-2.723-3.4-4.144l.025-8.969c0,1.422,1.118,2.828,3.4,4.144a15.145,15.145,0,0,0,2.023.979"/></g></g></g><path class="y" d="M417.022,283.394c4.706,2.717,4.5,5.81-.337,8.618l-15.737,9.146a14.394,14.394,0,0,1-14.878.223c-4.689-2.707-4.479-5.8.354-8.608l15.738-9.146A14.389,14.389,0,0,1,417.022,283.394Zm-21.148,15.179,16.331-9.491c2.164-1.257,2.018-2.291.49-3.173-1.51-.872-3.3-.954-5.46.3L390.9,295.7c-2.163,1.258-2.017,2.292-.507,3.164,1.528.882,3.314.963,5.477-.294"/></g><g class="b"><path class="l" d="M431.811,292.337l-.025,8.969-25.927,15.067.025-8.969Z"/><path class="y" d="M431.82,292.342,405.9,307.412l7.868,4.541-4.326,2.515-12.662-7.308,30.249-17.586Z"/><path class="l" d="M413.769,311.956l-.025,8.969-4.327,2.515.025-8.969Z"/><path class="i" d="M409.442,314.471l-.025,8.969-12.662-7.31.025-8.969Z"/></g><g class="b"><path class="y" d="M446.563,300.854l-30.254,17.582-4.794-2.768,30.254-17.582Z"/><path class="l" d="M446.563,300.854l-.025,8.969L416.283,327.4l.025-8.969Z"/><path class="i" d="M416.309,318.436l-.025,8.969-4.794-2.768.025-8.969Z"/></g><g class="b"><g class="b"><g class="ad"><g class="b"><path class="k" d="M453.725,310.268l-.026,8.969c0-.467-.387-.895-1.094-1.3a5.091,5.091,0,0,0-.678-.329l.025-8.969a5.156,5.156,0,0,1,.678.329c.707.409,1.1.837,1.1,1.3"/><path class="x" d="M451.952,308.636l-.025,8.969c-.135-.053-.27-.1-.407-.139l.025-8.968c.137.039.273.085.407.138"/><path class="w" d="M451.545,308.5l-.025,8.968c-.1-.028-.2-.054-.306-.075l.025-8.969c.1.022.2.047.306.076"/><path class="n" d="M451.239,308.422l-.025,8.969c-.086-.018-.173-.033-.26-.045l.025-8.969c.088.012.174.027.26.045"/><path class="o" d="M450.979,308.377l-.025,8.969c-.08-.012-.161-.021-.242-.028l.025-8.968c.082.006.162.015.242.027"/><path class="p" d="M450.737,308.35l-.025,8.968c-.08-.006-.16-.01-.242-.012l.026-8.969c.081,0,.161.006.241.013"/><path class="q" d="M450.5,308.337l-.026,8.969c-.084,0-.17,0-.256,0l.026-8.969c.086,0,.171,0,.256,0"/><path class="r" d="M450.24,308.338l-.026,8.969c-.1,0-.193.01-.292.019l.026-8.968c.1-.01.2-.017.292-.02"/><path class="s" d="M449.948,308.358l-.026,8.968c-.126.013-.255.031-.385.055l.026-8.969c.13-.024.258-.042.385-.054"/><path class="t" d="M449.563,308.412l-.026,8.969a5.6,5.6,0,0,0-.718.182l.026-8.969a5.526,5.526,0,0,1,.718-.182"/><path class="u" d="M448.845,308.594l-.026,8.969a8.143,8.143,0,0,0-1.586.726l-.087.051.025-8.969.087-.051a8.182,8.182,0,0,1,1.587-.726"/><path class="t" d="M447.171,309.371l-.025,8.969a6.42,6.42,0,0,0-1.042.764l.025-8.969a6.419,6.419,0,0,1,1.042-.764"/><path class="s" d="M446.129,310.135,446.1,319.1a4.763,4.763,0,0,0-.524.56l.026-8.968a4.6,4.6,0,0,1,.523-.561"/><path class="r" d="M445.606,310.7l-.026,8.968a4.048,4.048,0,0,0-.356.532l.025-8.969a4.079,4.079,0,0,1,.357-.531"/><path class="q" d="M445.249,311.227l-.025,8.969a3.935,3.935,0,0,0-.264.568l.026-8.969a4.091,4.091,0,0,1,.263-.568"/><path class="p" d="M444.986,311.8l-.026,8.969a4.466,4.466,0,0,0-.2.7l.025-8.969a4.58,4.58,0,0,1,.2-.7"/><path class="o" d="M444.787,312.5l-.025,8.969a6.364,6.364,0,0,0-.112,1.084l.025-8.968a6.367,6.367,0,0,1,.112-1.085"/><path class="n" d="M444.675,313.584l-.025,8.968c0,.067,0,.133,0,.2l.026-8.969c0-.067,0-.133,0-.2"/></g></g></g><g class="b"><g class="ae"><g class="b"><path class="n" d="M460.116,310.372l-.026,8.969v.067l.026-8.969v-.067"/><path class="o" d="M460.115,310.439l-.026,8.969a2.651,2.651,0,0,1-.051.45l.025-8.969a2.76,2.76,0,0,0,.052-.45"/><path class="p" d="M460.063,310.889l-.025,8.969a2.979,2.979,0,0,1-.134.462l.026-8.969a2.971,2.971,0,0,0,.133-.462"/><path class="q" d="M459.93,311.351l-.026,8.969a3.577,3.577,0,0,1-.235.5l.025-8.968a3.648,3.648,0,0,0,.236-.5"/><path class="r" d="M459.694,311.852l-.025,8.968a4.759,4.759,0,0,1-.4.6l.026-8.969a4.737,4.737,0,0,0,.4-.6"/><path class="s" d="M459.291,312.448l-.026,8.969a6.815,6.815,0,0,1-.727.778l.025-8.969a6.825,6.825,0,0,0,.728-.778"/><path class="t" d="M458.563,313.226l-.025,8.969a12.519,12.519,0,0,1-2.034,1.486l.025-8.969a12.517,12.517,0,0,0,2.034-1.486"/><path class="u" d="M456.529,314.712l-.025,8.969c-.085.052-.172.1-.26.154l.025-8.969c.088-.051.175-.1.26-.154"/></g></g></g><path class="l" d="M456.269,314.866l-.025,8.969-.96.558.025-8.969Z"/><path class="i" d="M455.31,315.424l-.025,8.969-4.531-2.616.025-8.969Z"/><g class="b"><g class="af"><g class="b"><path class="k" d="M438.062,317.015l-.025,8.968c0-1.162-.2-2.4-.2-3.654l.026-8.969c0,1.258.2,2.492.2,3.655"/></g></g></g><path class="l" d="M432.687,317.32l-.025,8.969-2.164,1.257.025-8.969Z"/><g class="b"><g class="ag"><g class="b"><path class="u" d="M430.523,318.577l-.025,8.969-.128.076.025-8.969.128-.076"/><path class="t" d="M430.395,318.653l-.025,8.969a5.531,5.531,0,0,0-.9.657l.025-8.969a5.638,5.638,0,0,1,.9-.657"/><path class="s" d="M429.491,319.31l-.025,8.969a2.786,2.786,0,0,0-.284.3l.026-8.969a2.678,2.678,0,0,1,.283-.3"/><path class="r" d="M429.208,319.613l-.026,8.969a1.8,1.8,0,0,0-.148.219l.025-8.968a1.642,1.642,0,0,1,.149-.22"/><path class="q" d="M429.059,319.833l-.025,8.968a1.213,1.213,0,0,0-.085.18l.025-8.969a1.38,1.38,0,0,1,.085-.179"/><path class="p" d="M428.974,320.012l-.025,8.969a1.119,1.119,0,0,0-.047.161l.026-8.968a1.093,1.093,0,0,1,.046-.162"/><path class="o" d="M428.928,320.174l-.026,8.968a.915.915,0,0,0-.017.154l.025-8.968a.9.9,0,0,1,.018-.154"/><path class="n" d="M428.91,320.328l-.025,8.968v.023l.026-8.969v-.022"/></g></g></g><g class="b"><g class="ah"><g class="b"><path class="n" d="M444.865,317.4l-.025,8.968c0,.091,0,.181,0,.271l.025-8.968c0-.091,0-.181,0-.271"/><path class="o" d="M444.861,317.667l-.025,8.968a7.925,7.925,0,0,1-.14,1.312l.026-8.969a7.916,7.916,0,0,0,.139-1.311"/><path class="p" d="M444.722,318.978l-.026,8.969a6.2,6.2,0,0,1-.273.972l.025-8.968a6.216,6.216,0,0,0,.274-.973"/><path class="q" d="M444.448,319.951l-.025,8.968a5.892,5.892,0,0,1-.392.842l.026-8.969a5.984,5.984,0,0,0,.391-.841"/><path class="r" d="M444.057,320.792l-.026,8.969a6.371,6.371,0,0,1-.55.819l.025-8.969a6.421,6.421,0,0,0,.551-.819"/><path class="s" d="M443.506,321.611l-.025,8.969a7.773,7.773,0,0,1-.838.9l.026-8.969a7.686,7.686,0,0,0,.837-.9"/><path class="t" d="M442.669,322.513l-.026,8.969a11.562,11.562,0,0,1-1.92,1.412l.026-8.969a11.548,11.548,0,0,0,1.92-1.412"/><path class="u" d="M440.749,323.925l-.026,8.969-.182.107a17.345,17.345,0,0,1-3.357,1.514l.026-8.969a17.251,17.251,0,0,0,3.357-1.514l.182-.107"/><path class="t" d="M437.21,325.546l-.026,8.969a14.922,14.922,0,0,1-1.947.492l.025-8.969a14.931,14.931,0,0,0,1.948-.492"/><path class="s" d="M435.262,326.038l-.025,8.969q-.552.1-1.105.155l.026-8.969q.552-.055,1.1-.155"/><path class="r" d="M434.158,326.193l-.026,8.969q-.447.045-.893.06l.025-8.969q.447-.015.894-.06"/><path class="q" d="M433.264,326.253l-.025,8.969q-.4.014-.8,0l.026-8.969c.265.007.53.005.8,0"/><path class="p" d="M432.468,326.257l-.026,8.969c-.254-.007-.508-.02-.762-.041l.025-8.969q.381.031.763.041"/><path class="o" d="M431.7,326.216l-.025,8.969q-.387-.031-.773-.087l.025-8.968q.385.054.773.086"/><path class="n" d="M430.932,326.13l-.025,8.968c-.28-.039-.559-.088-.837-.145l.026-8.969q.417.085.836.146"/><path class="w" d="M430.1,325.984l-.026,8.969c-.327-.068-.654-.149-.979-.242l.025-8.968q.489.139.98.241"/><path class="x" d="M429.116,325.743l-.025,8.968a13.574,13.574,0,0,1-1.288-.438l.025-8.968q.641.252,1.288.438"/><path class="k" d="M427.828,325.3l-.025,8.968a14.909,14.909,0,0,1-2-.968c-2.255-1.3-3.349-2.671-3.345-4.054l.025-8.969c0,1.383,1.09,2.752,3.345,4.055a15.147,15.147,0,0,0,2,.968"/></g></g></g><path class="y" d="M456.817,306.37c4.671,2.7,4.285,5.688-.548,8.5l-.959.558-4.531-2.616,1.256-.73c2.164-1.257,2.123-2.231.6-3.113s-3.208-.9-5.372.355c-6.229,3.62,1.945,9.693-6.691,14.712-4.833,2.809-10.031,3.022-14.738.3s-4.355-5.729.478-8.538l1.867-1.085,4.513,2.606-2.164,1.257c-2.163,1.258-1.982,2.272-.455,3.154,1.511.872,3.262.973,5.425-.284,6.212-3.61-1.98-9.693,6.674-14.723C447,303.916,452.163,303.683,456.817,306.37Z"/></g><g class="b"><path class="y" d="M471.1,315.018,440.842,332.6l-4.794-2.768L466.3,312.25Z"/><path class="l" d="M471.1,315.018l-.025,8.969-30.254,17.582.025-8.969Z"/><path class="i" d="M440.842,332.6l-.025,8.969-4.794-2.768.025-8.969Z"/></g></g></g></svg>