<svg xmlns="http://www.w3.org/2000/svg" xmlns:xlink="http://www.w3.org/1999/xlink" width="204.703" height="234.985" viewBox="0 0 204.703 234.985"><defs><style>.a,.h{fill:none;}.b{isolation:isolate;}.c{fill:#d10000;}.d{fill:#b0b2b2;}.e{fill:#2d2d2c;}.f{fill:#6e7072;}.g,.r{fill:#991d1b;}.g{stroke:#fff;stroke-width:9.089px;}.g,.h{stroke-linejoin:round;}.h{stroke:#831412;stroke-width:4.545px;}.i{fill:#831412;}.j{clip-path:url(#a);}.k{fill:#811310;}.l{fill:#ac2322;}.m{clip-path:url(#b);}.n{fill:#8b1815;}.o{fill:#8e1917;}.p{fill:#921a19;}.q{fill:#951c1a;}.s{fill:#9c1e1d;}.t{fill:#a01f1e;}.u{fill:#a3201f;}.v{clip-path:url(#c);}.w{fill:#871614;}.x{fill:#841512;}.y{fill:#fff;}.z{clip-path:url(#d);}.aa{clip-path:url(#e);}.ab{clip-path:url(#f);}.ac{clip-path:url(#g);}.ad{clip-path:url(#h);}.ae{clip-path:url(#i);}.af{clip-path:url(#j);}.ag{clip-path:url(#k);}.ah{clip-path:url(#l);}.ai{clip-path:url(#m);}.aj{clip-path:url(#n);}.ak{clip-path:url(#o);}.al{clip-path:url(#p);}.am{clip-path:url(#q);}.an{clip-path:url(#r);}.ao{clip-path:url(#s);}.ap{clip-path:url(#t);}.aq{clip-path:url(#u);}.ar{clip-path:url(#v);}</style><clipPath id="a"><path class="a" d="M590.242-424l-.024,8.553c0-.438-.394-.837-1.089-1.239l.024-8.553C589.849-424.834,590.244-424.435,590.242-424Z"/></clipPath><clipPath id="b"><path class="a" d="M596.557-423.746l-.024,8.553c0,1.4-1.231,2.8-3.616,4.186l.024-8.553C595.327-420.946,596.553-422.35,596.557-423.746Z"/></clipPath><clipPath id="c"><path class="a" d="M589.2-417.384l-.024,8.553c-4.609,2.678-9.366,2.843-13.921.213l.024-8.553C579.832-414.541,584.588-414.706,589.2-417.384Z"/></clipPath><clipPath id="d"><path class="a" d="M605.913-414.916l-.025,8.554c0-.438-.361-.853-1.083-1.27l.024-8.553C605.551-415.768,605.914-415.353,605.913-414.916Z"/></clipPath><clipPath id="e"><path class="a" d="M612.586-414.578l-.024,8.553c0,1.275-1.157,2.532-3.386,3.827l.024-8.553C611.429-412.047,612.582-413.3,612.586-414.578Z"/></clipPath><clipPath id="f"><path class="a" d="M592.686-407.355l-.024,8.553c0-.563-.5-1.093-1.455-1.646l.024-8.553C592.188-408.448,592.688-407.918,592.686-407.355Z"/></clipPath><clipPath id="g"><path class="a" d="M606.937-409.436l-.024,8.553a12.143,12.143,0,0,1-8.838,1.683l.024-8.553A12.148,12.148,0,0,0,606.937-409.436Z"/></clipPath><clipPath id="h"><path class="a" d="M598.6-406.349l-.024,8.554c0,1.336-1.367,2.611-3.608,3.913l.025-8.553C597.231-403.737,598.594-405.013,598.6-406.349Z"/></clipPath><clipPath id="i"><path class="a" d="M590.548-399.854l-.024,8.554a9.1,9.1,0,0,0-3.025,2.32l.024-8.553A9.108,9.108,0,0,1,590.548-399.854Z"/></clipPath><clipPath id="j"><path class="a" d="M622.707-405.574l-.024,8.553c0-.47-.39-.9-1.082-1.3-1.44-.831-3.144-.908-5.207.291l.024-8.554c2.064-1.2,3.767-1.121,5.207-.29C622.317-406.474,622.708-406.044,622.707-405.574Z"/></clipPath><clipPath id="k"><path class="a" d="M629.005-405.308l-.024,8.554c0,1.433-1.208,2.879-3.575,4.254l.025-8.553C627.8-402.428,629-403.875,629.005-405.308Z"/></clipPath><clipPath id="l"><path class="a" d="M599.261-387.262l.024-8.553c0-.52.478-1.09,1.559-1.718l-.024,8.553C599.739-388.352,599.263-387.782,599.261-387.262Z"/></clipPath><clipPath id="m"><path class="a" d="M592.962-387.529l.025-8.553c0,1.36,1.069,2.707,3.247,3.964a13.728,13.728,0,0,0,14.188-.213l-.024,8.553a13.725,13.725,0,0,1-14.188.213C594.032-384.822,592.959-386.169,592.962-387.529Z"/></clipPath><clipPath id="n"><path class="a" d="M638.979-395.859l-.025,8.553c0-.438-.393-.837-1.089-1.239l.024-8.553C638.585-396.7,638.98-396.3,638.979-395.859Z"/></clipPath><clipPath id="o"><path class="a" d="M645.293-395.608l-.024,8.553c0,1.4-1.23,2.8-3.616,4.186l.024-8.553C644.063-392.808,645.289-394.212,645.293-395.608Z"/></clipPath><clipPath id="p"><path class="a" d="M637.934-389.246l-.025,8.553c-4.609,2.678-9.365,2.843-13.921.213l.025-8.554C628.568-386.4,633.325-386.568,637.934-389.246Z"/></clipPath><clipPath id="q"><path class="a" d="M669.906-377.969l-.024,8.553c0-.438-.361-.853-1.084-1.269l.025-8.554C669.545-378.822,669.907-378.407,669.906-377.969Z"/></clipPath><clipPath id="r"><path class="a" d="M676.59-377.622l-.024,8.553c0,1.275-1.153,2.533-3.38,3.827l.024-8.553C675.438-375.089,676.586-376.347,676.59-377.622Z"/></clipPath><clipPath id="s"><path class="a" d="M656.687-370.4l-.024,8.553c0-.567-.5-1.1-1.463-1.656l.025-8.553C656.185-371.5,656.689-370.966,656.687-370.4Z"/></clipPath><clipPath id="t"><path class="a" d="M670.947-372.48l-.024,8.553a12.111,12.111,0,0,1-8.855,1.673l.025-8.553A12.109,12.109,0,0,0,670.947-372.48Z"/></clipPath><clipPath id="u"><path class="a" d="M662.591-369.4l-.024,8.553c0,1.336-1.367,2.612-3.607,3.914l.024-8.554C661.225-366.791,662.588-368.066,662.591-369.4Z"/></clipPath><clipPath id="v"><path class="a" d="M654.542-362.907l-.025,8.553a9.016,9.016,0,0,0-3.008,2.331l.024-8.553A9.021,9.021,0,0,1,654.542-362.907Z"/></clipPath></defs><g transform="translate(-968.297 -3527.103)"><g class="b" transform="translate(968.981 3564.479)"><path class="c" d="M115.465,17.616l-7.093-4.095L5.974,73.448c-8.918,5.183-8.871,13.617.106,18.8l123.892,70.781,7.047-4.1L13.127,88.152c-5.063-2.923-5.1-7.682-.059-10.609l102.4-59.927"/></g><g transform="translate(981.958 3490.088)"><g transform="translate(0.042 37.015)"><g class="b"><g transform="translate(0.045)"><path class="d" d="M75.84,20.152c10.465-6.136,27.615-6.179,38.237-.1l68.876,39.432c10.622,6.081,10.75,16.014.289,22.146L115.217,121.5c-10.465,6.136-27.615,6.179-38.237.1L8.1,82.168c-10.622-6.081-10.75-16.014-.289-22.146ZM179.718,61.383,110.842,21.95c-8.819-5.048-23.061-4.992-31.714.081L11.1,61.9c-8.688,5.09-8.581,13.323.238,18.37L80.216,119.7c8.79,5.031,23.031,5.009,31.719-.081l68.025-39.87c8.654-5.073,8.547-13.34-.242-18.37" transform="translate(-0.053 -15.521)"/></g><g transform="translate(4.648 2.674)"><path class="e" d="M75.607,19.986c8.654-5.073,22.895-5.128,31.714-.081L176.2,59.337c8.79,5.031,8.9,13.3.242,18.37l-68.025,39.87c-8.688,5.09-22.929,5.111-31.719.081L7.82,78.226C-1,73.179-1.106,64.946,7.582,59.856Z" transform="translate(-1.135 -16.15)"/></g><path class="f" d="M191.042,28.5c0,.259-.043.519-.068.778-.026.289-.047.578-.1.863-.043.23-.111.455-.17.68a8.08,8.08,0,0,1-.234.816c-.077.221-.179.434-.272.651-.123.285-.247.57-.4.85-.106.2-.234.4-.357.6-.2.319-.4.634-.638.944-.136.183-.281.366-.429.544a16.2,16.2,0,0,1-1.178,1.267c-.136.132-.259.264-.4.4-.264.234-.553.464-.838.689-.242.2-.476.4-.736.587-.31.225-.651.438-.978.655s-.625.425-.97.629l-68.025,39.87a29.468,29.468,0,0,1-3.759,1.8c-.353.14-.714.276-1.076.408-.821.3-1.684.54-2.551.782-.884.251-1.782.485-2.7.676-1.05.217-2.109.412-3.189.553-.3.038-.587.094-.884.123-1.493.162-3,.247-4.516.264-.247,0-.489,0-.736,0-1.5-.009-3-.089-4.486-.238l-.672-.077a42.993,42.993,0,0,1-4.371-.736c-.247-.055-.489-.119-.736-.179a37.715,37.715,0,0,1-3.7-1.114c-.251-.089-.515-.162-.765-.259a29.625,29.625,0,0,1-4.1-1.914L8.139,39.978c-4.031-2.3-6.553-5.167-7.556-8.169a9.589,9.589,0,0,1-.5-3.028L.042,43.827c-.009,4.061,2.679,8.122,8.054,11.2L76.972,94.456a29.128,29.128,0,0,0,3.81,1.82c.094.038.191.06.285.1.251.094.515.166.77.259.736.259,1.463.532,2.228.748.476.136.978.242,1.467.361.247.06.485.123.736.179.2.047.4.106.612.149.88.183,1.777.34,2.679.468.357.051.719.081,1.08.123.225.025.446.051.672.072.293.03.587.077.884.1.884.077,1.778.123,2.666.145.315.009.625,0,.936,0,.247,0,.489,0,.736,0,.37,0,.74.009,1.11,0,1-.034,2.007-.1,3-.2.136-.013.268-.043.4-.055.3-.034.587-.085.884-.123.727-.094,1.459-.174,2.173-.306.349-.06.672-.179,1.016-.251.923-.191,1.812-.421,2.7-.672.455-.132.948-.2,1.395-.349.4-.128.765-.3,1.152-.438.366-.132.723-.264,1.076-.408a28.643,28.643,0,0,0,3.759-1.8l68.025-39.87.255-.153c.255-.153.476-.319.719-.481.327-.213.668-.425.97-.646.268-.2.5-.4.748-.6.281-.225.57-.446.825-.68.043-.038.1-.077.14-.115.1-.094.17-.2.268-.289a15.255,15.255,0,0,0,1.169-1.259c.072-.089.17-.17.242-.259s.123-.191.2-.289c.23-.31.434-.621.629-.94.081-.128.187-.255.259-.383.043-.072.064-.149.1-.221a8.847,8.847,0,0,0,.4-.842c.072-.162.166-.319.225-.476.021-.06.03-.123.051-.183.1-.268.162-.54.234-.812.047-.179.115-.353.153-.532.009-.051.009-.1.017-.153.051-.285.072-.574.1-.867.017-.179.055-.357.064-.536l0-.238h0Z" transform="translate(-0.042 26.682)"/></g></g></g><g transform="translate(444.302 4096.978)"><path class="g" d="M573.092-409.866l2.16,1.248a15.464,15.464,0,0,0,1.651.823l-3.566,2.072-.012,4.277-.012,4.276h0l4.572,2.64h0l3.14-1.825,1.85-1.075-.016,5.772,4.639,2.678a4.226,4.226,0,0,1,.409-.472c.046-.048.089-.1.134-.144.013-.013.023-.027.037-.04.09-.085.2-.165.3-.246.019-.016.04-.031.058-.047.122-.1.235-.2.37-.294.12-.086.258-.174.39-.26.161-.106.318-.212.5-.321.262-.161.533-.322.833-.5l2.453-1.426-.015,5.2a3.182,3.182,0,0,0,.806,2.021,6.64,6.64,0,0,0,1.015.985,11.539,11.539,0,0,0,1.427.958,14.412,14.412,0,0,0,1.829.885c.033.014.066.036.1.049q.624.246,1.259.428c.063.017.126.029.189.046s.151.037.226.056c.184.046.366.1.551.135.272.057.545.1.819.143.069.01.138.015.207.023h0l.148.016h0c.134.016.269.034.4.046.25.02.5.034.753.04.158,0,.316,0,.475,0h.143c.053,0,.1,0,.158,0h.007q.437-.015.873-.059c.18-.018.359-.05.539-.075.095-.014.19-.025.285-.04h0c.078-.013.156-.019.234-.033.217-.04.432-.114.648-.163.124-.029.248-.051.371-.083l-.011,4.1,4.555,2.63,10.849-6.3,1.37.791.79.457a15.387,15.387,0,0,0,1.652.823l-.552.321-3.014,1.751-.025,8.553,12.444,7.185,2.84-1.651-.009,3.285h0l2.888,1.667,1.667.963h0L645-359.4l1.87-1.087-.016,5.771,4.656,2.689a4.225,4.225,0,0,1,.387-.45c.068-.073.13-.15.2-.22.09-.085.2-.165.293-.247.142-.118.281-.237.442-.352.119-.086.252-.172.381-.258.169-.111.336-.223.523-.338.247-.151.5-.3.778-.466l1.334-.775,1.608-.934-.021,7.395v.067h0l4.555,2.63,6.788-3.945-.012,4.4-.01,3.449,2.63,1.518,1.926,1.112L702.167-356.2v-.124l.024-8.42.007,0-.007,0h0l-4.564-2.635-1.99,1.156.007-2.3,0,0h0l0,0v0h0l0,0-14.108-8.146-4.126,2.4.008.005-.015,5.528-1.043.606,0-.011c.018-.041.042-.081.058-.122a2.464,2.464,0,0,0,.107-.373,2.272,2.272,0,0,0,.042-.366v-.054h0l.024-8.553h0a2.27,2.27,0,0,1-.127.561,2.179,2.179,0,0,0,.027-1.012c-.01-.053-.021-.106-.036-.159a2.79,2.79,0,0,0-.3-.681,3.972,3.972,0,0,0-.3-.455c-.095-.117-.194-.235-.308-.353a7.493,7.493,0,0,0-.833-.753c-.085-.066-.181-.132-.271-.2a14.424,14.424,0,0,0-1.357-.887l-4.364-2.52-2.519-1.455h0l-2.84,1.651.009-3.285-12.443-7.184-5.645,3.281.012-4.537h0a.109.109,0,0,1-.005.023c0,.013-.008.026-.008.04a2.97,2.97,0,0,0-.777-1.989c-.013-.016-.035-.031-.048-.047a6.748,6.748,0,0,0-.974-.936,12.166,12.166,0,0,0-1.348-.9c-.044-.026-.072-.052-.117-.078l-6.716-3.877-6.31,3.667.015-5.6c0,.019-.011.037-.011.056a3.129,3.129,0,0,0-.778-2.046c-.02-.025-.055-.05-.077-.075a6.485,6.485,0,0,0-.939-.922,11.55,11.55,0,0,0-1.448-.977,14.264,14.264,0,0,0-1.637-.808c-.242-.1-.49-.172-.735-.259-.308-.108-.614-.227-.925-.312-.334-.092-.671-.15-1.008-.216-.221-.042-.44-.1-.661-.126-.4-.057-.8-.081-1.21-.1-.152-.007-.3-.022-.457-.024a13.4,13.4,0,0,0-1.371.061c-.1.009-.191.013-.287.024a13.807,13.807,0,0,0-1.492.254c-.051.011-.1.021-.154.034a14.531,14.531,0,0,0-1.573.467l-.055.019a15.669,15.669,0,0,0-1.614.689h0v-.377l.013-4.632h0a2.213,2.213,0,0,0-.07-.314,2.3,2.3,0,0,0-.068-.308,2.743,2.743,0,0,0-.256-.608,3.727,3.727,0,0,0-.345-.514c-.085-.105-.167-.211-.268-.317a7.535,7.535,0,0,0-.865-.781c-.088-.068-.186-.137-.28-.206a15.059,15.059,0,0,0-1.361-.89l-6.883-3.974-5.646,3.281.013-4.537h0c0,.021-.013.042-.014.063v0a2.971,2.971,0,0,0-.776-1.987c-.025-.031-.07-.062-.1-.093a6.644,6.644,0,0,0-.925-.889,12.281,12.281,0,0,0-1.465-.98l-6.733-3.887L557.7-414.754l-.024,8.553,4.572,2.64Zm103.252,33.241v0a2.689,2.689,0,0,1-.266.4A3.855,3.855,0,0,0,676.344-376.625Zm-.748,1.034,0,0c-.147.155-.336.311-.516.467C675.259-375.278,675.448-375.435,675.6-375.591Zm-1,.887h0a14.427,14.427,0,0,1-1.382.908A14.448,14.448,0,0,0,674.593-374.7Zm-5.2,24.435,3.95,2.281h0l-3.951-2.281Zm-6.964-9.838a2.166,2.166,0,0,0,.1-.35,1.956,1.956,0,0,0,.039-.34v-.052l0-1.316c.076.013.153.029.229.04l.033.006c.11.016.22.025.331.037s.22.028.33.037c.212.018.423.029.635.034h0c.045,0,.09,0,.135,0h.075c.146,0,.292,0,.438,0,.24-.008.479-.024.719-.048.174-.017.348-.047.522-.073l-2.72,1.58-.911.53C662.4-360.052,662.416-360.079,662.426-360.107Zm-1.809-6.461-.024.02,0,0c-.045.033-.078.067-.125.1-.018.013-.043.026-.062.04s-.059.036-.085.054C660.421-366.422,660.52-366.495,660.617-366.568Zm-2.211,9.954,1.22.705,2.4,1.383,0,0-2.621-1.513-.994-.574ZM649.588-377.2l.007-2.542,1.752-1.019,2.685,1.55.646.373-5.094,2.961Zm-4.439-17.755c-.017.064-.019.128-.042.192a.678.678,0,0,1-.036.164l-.017.035-.021.046A2.716,2.716,0,0,0,645.149-394.955Zm-.522,1.062-.023.036c-.066.091-.1.182-.179.273-.011.014-.025.027-.037.04A4.03,4.03,0,0,0,644.627-393.893Zm-1.035,1.109c-.071.061-.122.123-.2.184l-.034.027C643.448-392.643,643.511-392.713,643.592-392.784ZM639.2-373.7l2.71,1.565.621.358-3,1.745-.894.52.009-3.238v-.047h0l-.5-.289Zm-10.337-30.936a2.589,2.589,0,0,1-.079.374c-.009.022-.022.044-.031.065A2.908,2.908,0,0,0,628.864-404.638Zm-.513,1.086c-.078.114-.122.229-.216.344l-.007.007-.024.026A4.5,4.5,0,0,0,628.351-403.552Zm-1.187,1.285c.063-.053.109-.106.169-.158-.026.023-.05.046-.073.069-.052.045-.087.09-.142.135l-.015.012-.012.01C627.119-402.222,627.14-402.245,627.164-402.267Zm-26.578,4.9.029-.019-.011.008c-.155.1-.317.2-.442.291C600.283-397.175,600.436-397.27,600.586-397.364Zm-.619.452.021-.019-.02.019,0,0Zm-.21.185h0l-.032.035c-.013.013-.032.027-.044.039C599.7-396.677,599.733-396.7,599.757-396.727Zm-3.188-6.748.054-.039c-.011.008-.018.016-.029.025s-.023.019-.036.028-.055.047-.087.071-.063.038-.09.058a.631.631,0,0,0-.057.037C596.408-403.355,596.489-403.415,596.569-403.475Zm-.157-19.615a2.494,2.494,0,0,1-.078.354c-.011.026-.025.053-.037.08A2.782,2.782,0,0,0,596.412-423.09Zm-.523,1.063c-.072.1-.114.2-.2.305-.011.014-.025.027-.037.04C595.75-421.8,595.806-421.912,595.889-422.027Zm-1.023,1.1c-.073.063-.128.127-.206.191l-.035.028C594.716-420.784,594.781-420.857,594.866-420.93Zm-.517,27.407q.026.024.048.048l.045.044-.028-.027-.066-.065Z"/><path class="h" d="M573.092-409.866l2.16,1.248a15.386,15.386,0,0,0,1.652.823l-3.566,2.072-.025,8.553,4.572,2.64,4.991-2.9-.016,5.772,4.639,2.678a4.328,4.328,0,0,1,.409-.473c.058-.06.109-.125.171-.183.09-.085.2-.165.3-.246.137-.114.271-.229.426-.34.122-.088.261-.176.4-.263.16-.106.316-.211.494-.319.262-.16.533-.322.833-.5l2.453-1.426-.015,5.2c0,1.36,1.07,2.707,3.248,3.964a14.4,14.4,0,0,0,1.828.885c.034.014.067.035.1.049q.624.246,1.259.428c.063.017.126.029.188.046s.152.037.228.056c.183.046.366.1.55.135.272.057.545.1.819.143.069.01.138.015.207.023.051.007.1.011.153.017.134.016.269.035.4.046.25.02.5.034.753.04.157,0,.315,0,.473,0h.145c.055,0,.11,0,.165,0q.437-.015.873-.059c.179-.018.359-.05.538-.075.1-.014.192-.025.288-.04.078-.013.156-.019.234-.033.217-.039.432-.114.648-.163.124-.029.248-.051.371-.083l-.011,4.1,4.555,2.63,10.849-6.3,2.16,1.248a15.387,15.387,0,0,0,1.652.823l-3.566,2.072-.025,8.553,12.444,7.185,2.84-1.651-.009,3.285,4.555,2.63,4.99-2.9-.016,5.772,4.656,2.688a4.225,4.225,0,0,1,.387-.45c.068-.073.13-.15.2-.22.089-.085.2-.165.292-.246.142-.119.283-.238.444-.354.118-.085.251-.171.38-.257.168-.111.335-.222.522-.337.247-.151.5-.3.779-.467l2.942-1.709-.021,7.463,4.555,2.63,6.789-3.945-.023,7.851,4.556,2.63L702.167-356.2l.024-8.544.007,0-.007,0h0l-4.564-2.635-1.99,1.156.006-2.3,0,0,0,0v0l0,0-14.108-8.145-4.126,2.4.008.005-.015,5.528-1.043.606,0-.011c.018-.041.042-.081.057-.122a2.354,2.354,0,0,0,.108-.373,2.272,2.272,0,0,0,.042-.366v-.055l.024-8.553a2.27,2.27,0,0,1-.127.561c.389-1.461-.669-2.933-3.38-4.5l-6.883-3.974-2.84,1.65.009-3.285-12.443-7.184-5.646,3.281.013-4.537c0,.021-.013.042-.014.063.039-1.332-1.021-2.657-3.263-3.951l-6.716-3.877-6.31,3.667.015-5.6c0,.019-.011.038-.011.056.034-1.376-1.029-2.742-3.242-4.02a13.609,13.609,0,0,0-13.18-.3l.014-5.009a2.3,2.3,0,0,1-.161.706c.507-1.505-.543-3.022-3.352-4.644l-6.884-3.974-5.645,3.281.013-4.537c0,.021-.013.042-.014.063.039-1.332-1.022-2.657-3.263-3.951l-6.733-3.887L557.7-414.754l-.024,8.553,4.572,2.64Zm39.246-3.712a3.8,3.8,0,0,1-.36.534,3.716,3.716,0,0,0,.36-.535Zm64.005,36.956a3.822,3.822,0,0,1-.34.505,3.825,3.825,0,0,0,.341-.508Zm-77.05-19.28,0,.027Zm.106-.35.015-.031Zm.282-.4c.023-.024.052-.05.077-.074l-.033.035C599.712-396.679,599.693-396.665,599.681-396.653Zm.283-.256.028-.025-.024.022Zm.2-.174c.13-.1.3-.2.457-.3l-.013.009C600.449-397.277,600.286-397.178,600.16-397.083Zm-3.565-6.407c-.045.033-.078.066-.124.1s-.1.064-.148.1c.1-.073.2-.147.3-.22C596.613-403.507,596.606-403.5,596.595-403.49Zm3.689-4.027h0c-.014,0-.028,0-.043-.005h0C600.256-407.521,600.27-407.517,600.284-407.517Zm-8.4-1.055c.061.046.1.092.154.138C591.982-408.48,591.943-408.526,591.882-408.572Zm.461.426a1.683,1.683,0,0,1,.112.167A1.809,1.809,0,0,0,592.343-408.146Zm.263.43a.973.973,0,0,1,.041.182A.973.973,0,0,0,592.606-407.716ZM639.2-373.7l3.331,1.923-3.9,2.265.009-3.285-.5-.289Zm21.387,7.159c-.044.033-.077.066-.123.1s-.1.065-.15.1c.1-.074.205-.148.3-.222C660.607-366.561,660.6-366.552,660.588-366.543Zm1.838,6.436a2.166,2.166,0,0,0,.1-.35,1.956,1.956,0,0,0,.039-.34v-.052l0-1.316c.087.014.175.034.262.046q.332.046.661.074c.212.018.423.029.635.034.045,0,.091,0,.137,0h.074c.146,0,.292,0,.438,0,.24-.008.479-.024.719-.048.174-.017.348-.047.522-.073l-3.632,2.11C662.4-360.052,662.416-360.079,662.426-360.107ZM656.34-371.2a1.554,1.554,0,0,1,.113.168A1.554,1.554,0,0,0,656.34-371.2Zm.266.431a.993.993,0,0,1,.041.184A.993.993,0,0,0,656.606-370.765Zm-.573-.72c-.054-.046-.094-.093-.155-.139C655.939-371.578,655.979-371.531,656.033-371.485Zm19.561-4.1c-.147.155-.336.311-.516.467.181-.156.37-.313.518-.469Zm-26.01-.288.011-3.866,1.752-1.018,3.331,1.923ZM643.4-392.6l-.034.027c.087-.07.15-.14.231-.21C643.521-392.722,643.47-392.661,643.4-392.6Zm-16.276-9.622-.028.023c.095-.077.162-.156.25-.234C627.262-402.363,627.2-402.292,627.119-402.222Zm-15.53-10.326c-.018.02-.046.04-.066.06.02-.02.048-.04.067-.06Zm-16.929-8.191-.037.03c.094-.076.162-.151.249-.227C594.8-420.87,594.741-420.8,594.66-420.739Zm-.311,27.216c.033.032.062.064.1.1-.035-.032-.065-.064-.1-.1Zm.445.433a11.455,11.455,0,0,0,1.44.972A11.455,11.455,0,0,1,594.794-393.09ZM658.4-356.611l0,0,3.616,2.087,0,0Zm10.986,6.343h0l3.95,2.281h0Zm5.205-24.436h0a14.427,14.427,0,0,1-1.382.908A14.259,14.259,0,0,0,674.593-374.7Zm-4.709-3.319a.972.972,0,0,0-.237-.562A.979.979,0,0,1,669.884-378.023Zm-.314-.639a3.137,3.137,0,0,0-.747-.577A3.137,3.137,0,0,1,669.57-378.662Zm-24.5-15.937c-.012.028-.026.055-.039.082a2.675,2.675,0,0,0,.118-.439A2.693,2.693,0,0,1,645.071-394.6Zm-.444.706c-.073.1-.115.206-.2.309-.012.014-.026.027-.038.04A4.03,4.03,0,0,0,644.627-393.893ZM638.96-395.9a.943.943,0,0,0-.26-.583A.943.943,0,0,1,638.96-395.9Zm-.3-.619a3.376,3.376,0,0,0-.77-.579A3.376,3.376,0,0,1,638.66-396.519Zm-9.875-7.745c-.009.022-.022.044-.031.066a2.806,2.806,0,0,0,.111-.447A2.87,2.87,0,0,1,628.785-404.264Zm-.431.707c-.079.116-.124.233-.219.349-.009.011-.022.022-.032.034A4.252,4.252,0,0,0,628.354-403.557Zm-5.666-2.062a1.034,1.034,0,0,0-.257-.62A1.034,1.034,0,0,1,622.688-405.619Zm-.3-.659a3.049,3.049,0,0,0-.765-.6A3.049,3.049,0,0,1,622.39-406.278Zm-16.5-8.691a.975.975,0,0,0-.237-.563A.975.975,0,0,1,605.89-414.969Zm-.314-.64a3.112,3.112,0,0,0-.747-.576A3.112,3.112,0,0,1,605.576-415.609Zm-9.242-7.127c-.011.027-.025.053-.038.08a2.693,2.693,0,0,0,.116-.435A2.507,2.507,0,0,1,596.334-422.736Zm-.442.7c-.074.1-.116.207-.2.31-.011.014-.026.027-.038.041C595.751-421.8,595.809-421.915,595.892-422.032Zm-5.668-2a.939.939,0,0,0-.261-.584A.939.939,0,0,1,590.224-424.037Zm-.3-.619a3.364,3.364,0,0,0-.772-.58A3.364,3.364,0,0,1,589.925-424.656Z"/><g class="b"><path class="i" d="M589.153-425.236l-.024,8.553-2.161-1.247.024-8.553Z"/><g class="b"><g class="j"><g class="b"><path class="k" d="M590.242-424l-.024,8.553c0-.438-.394-.837-1.089-1.239l.024-8.553c.7.4,1.091.8,1.089,1.239"/></g></g></g><path class="l" d="M586.993-426.483l-.024,8.553-9.767,5.676.024-8.553Z"/><g class="b"><g class="m"><g class="b"><path class="n" d="M596.557-423.746l-.024,8.553v.062l.024-8.553v-.062"/><path class="o" d="M596.556-423.684l-.024,8.553a2.417,2.417,0,0,1-.048.413l.025-8.553a2.523,2.523,0,0,0,.047-.413"/><path class="p" d="M596.509-423.271l-.025,8.553a2.686,2.686,0,0,1-.121.423l.024-8.553a2.808,2.808,0,0,0,.122-.423"/><path class="q" d="M596.387-422.848l-.024,8.553a3.24,3.24,0,0,1-.217.46l.025-8.553a3.406,3.406,0,0,0,.216-.46"/><path class="r" d="M596.171-422.388l-.025,8.553a4.39,4.39,0,0,1-.371.55l.024-8.554a4.433,4.433,0,0,0,.372-.549"/><path class="s" d="M595.8-421.839l-.024,8.554a6.34,6.34,0,0,1-.674.719l.024-8.553a6.348,6.348,0,0,0,.674-.72"/><path class="t" d="M595.125-421.119l-.024,8.553a11.908,11.908,0,0,1-1.932,1.41l.025-8.553a11.956,11.956,0,0,0,1.931-1.41"/><path class="u" d="M593.194-419.709l-.025,8.553c-.082.05-.166.1-.252.149l.024-8.553c.086-.05.17-.1.253-.149"/></g></g></g><path class="l" d="M592.941-419.56l-.024,8.553-3.744,2.176.024-8.553Z"/><path class="i" d="M575.276-417.171l-.024,8.553-2.16-1.247.024-8.553Z"/><g class="b"><g class="v"><g class="b"><path class="u" d="M589.2-417.384l-.024,8.553a16.448,16.448,0,0,1-3.191,1.443l.024-8.553a16.507,16.507,0,0,0,3.191-1.443"/><path class="t" d="M586.006-415.941l-.024,8.553a13.793,13.793,0,0,1-1.792.453l.024-8.553a13.907,13.907,0,0,0,1.792-.453"/><path class="s" d="M584.214-415.488l-.024,8.553c-.335.06-.671.108-1.006.141l.025-8.553q.5-.051,1.005-.141"/><path class="r" d="M583.209-415.347l-.025,8.553c-.271.027-.543.046-.815.055l.024-8.553c.272-.009.544-.028.816-.055"/><path class="q" d="M582.393-415.292l-.024,8.553c-.243.009-.487.01-.73,0l.025-8.553c.243.006.486,0,.729,0"/><path class="p" d="M581.664-415.288l-.025,8.553c-.234-.006-.469-.019-.7-.038l.024-8.553c.235.019.469.032.7.038"/><path class="o" d="M580.96-415.326l-.024,8.553q-.36-.03-.718-.08l.024-8.554c.239.034.479.061.718.081"/><path class="n" d="M580.242-415.407l-.024,8.554q-.39-.056-.777-.136l.024-8.553c.259.053.518.1.777.135"/><path class="w" d="M579.465-415.542l-.024,8.553q-.465-.1-.928-.228l.024-8.554q.464.133.928.229"/><path class="x" d="M578.537-415.771l-.024,8.554q-.621-.178-1.239-.421l.024-8.553q.618.243,1.239.42"/><path class="k" d="M577.3-416.191l-.024,8.553a15.112,15.112,0,0,1-2.022-.98l.024-8.553a15.3,15.3,0,0,0,2.022.98"/></g></g></g><path class="l" d="M573.116-418.419l-.024,8.553-10.849,6.3.024-8.553Z"/><path class="y" d="M593.28-427.634c4.555,2.63,4.287,5.386-.339,8.074l-3.744,2.176c-4.609,2.678-9.365,2.843-13.921.213l-2.16-1.248-10.849,6.3-4.572-2.64,28.852-16.767Zm-8.921,7.784,4.326-2.514c2.064-1.2,1.925-2.031.468-2.872l-2.16-1.247-9.767,5.676,2.16,1.247c1.457.841,2.91.909,4.973-.29"/><path class="i" d="M562.267-412.114l-.024,8.553-4.572-2.64.024-8.553Z"/></g><g class="b"><path class="i" d="M604.829-416.185l-.024,8.553-2.194-1.267.024-8.553Z"/><g class="b"><g class="z"><g class="b"><path class="k" d="M605.913-414.916l-.025,8.554c0-.438-.361-.853-1.083-1.27l.024-8.553c.722.417,1.085.832,1.084,1.269"/></g></g></g><path class="l" d="M602.635-417.452l-.024,8.553-8.852,5.144.024-8.553Z"/><g class="b"><g class="aa"><g class="b"><path class="n" d="M612.586-414.578l-.024,8.553v.055l.024-8.553v-.055"/><path class="o" d="M612.585-414.523l-.024,8.553a2.234,2.234,0,0,1-.042.364l.024-8.553a2.049,2.049,0,0,0,.042-.364"/><path class="p" d="M612.543-414.159l-.024,8.553a2.362,2.362,0,0,1-.107.372l.024-8.553a2.37,2.37,0,0,0,.107-.372"/><path class="q" d="M612.436-413.787l-.024,8.553a3.022,3.022,0,0,1-.191.406l.024-8.553a2.9,2.9,0,0,0,.191-.406"/><path class="r" d="M612.245-413.381l-.024,8.553a3.817,3.817,0,0,1-.328.483l.024-8.553a3.714,3.714,0,0,0,.328-.483"/><path class="s" d="M611.917-412.9l-.024,8.553a5.576,5.576,0,0,1-.6.645l.025-8.553a5.563,5.563,0,0,0,.6-.645"/><path class="t" d="M611.314-412.253l-.025,8.553a11.4,11.4,0,0,1-1.855,1.349l.024-8.553a11.418,11.418,0,0,0,1.856-1.349"/><path class="u" d="M609.458-410.9l-.024,8.553q-.126.077-.258.153l.024-8.553q.132-.076.258-.153"/></g></g></g><path class="l" d="M609.2-410.751l-.024,8.553-2.263,1.315.024-8.553Z"/><path class="i" d="M591.231-409l-.024,8.553-1.574-.909.024-8.553Z"/><g class="b"><g class="ab"><g class="b"><path class="k" d="M592.686-407.355l-.024,8.553c0-.563-.5-1.093-1.455-1.646l.024-8.553c.957.553,1.457,1.083,1.455,1.646"/></g></g></g><g class="b"><g class="ac"><g class="b"><path class="u" d="M606.937-409.436l-.024,8.553a15.28,15.28,0,0,1-2.98,1.35l.024-8.553a15.249,15.249,0,0,0,2.98-1.35"/><path class="t" d="M603.957-408.086l-.024,8.553a12.144,12.144,0,0,1-1.565.393l.024-8.553a12.143,12.143,0,0,0,1.565-.393"/><path class="s" d="M602.392-407.693l-.024,8.553q-.447.081-.893.126l.024-8.553c.3-.03.595-.072.893-.126"/><path class="r" d="M601.5-407.567l-.024,8.553c-.24.024-.481.04-.721.048l.024-8.553c.24-.008.481-.025.721-.048"/><path class="q" d="M600.778-407.519l-.024,8.553q-.324.01-.648,0l.024-8.553q.324.008.648,0"/><path class="p" d="M600.13-407.516l-.024,8.553c-.212,0-.423-.017-.634-.034l.024-8.553c.211.017.423.028.634.034"/><path class="o" d="M599.5-407.55,599.472-399c-.22-.018-.439-.043-.66-.074l.025-8.553c.22.031.439.056.659.074"/><path class="n" d="M598.837-407.624l-.025,8.553c-.241-.034-.482-.077-.724-.127l.024-8.553q.363.075.725.127"/><path class="w" d="M598.112-407.751l-.024,8.553-.013,0,.024-8.553.013,0"/></g></g></g><path class="i" d="M577.91-403.083l-.024,8.553-4.572-2.64.024-8.553Z"/><path class="l" d="M589.657-409.91l-.024,8.553-11.747,6.827.024-8.553Z"/><g class="b"><g class="ad"><g class="b"><path class="n" d="M598.6-406.349l-.024,8.553v.052l.024-8.553v-.052"/><path class="o" d="M598.6-406.3l-.024,8.553a2.066,2.066,0,0,1-.039.341l.024-8.553a1.978,1.978,0,0,0,.039-.341"/><path class="p" d="M598.558-405.956l-.024,8.553a2.421,2.421,0,0,1-.1.35l.024-8.554a2.259,2.259,0,0,0,.1-.349"/><path class="q" d="M598.457-405.607l-.024,8.554a2.738,2.738,0,0,1-.184.389l.025-8.553a2.79,2.79,0,0,0,.183-.39"/><path class="r" d="M598.274-405.217l-.025,8.553a3.547,3.547,0,0,1-.314.464l.024-8.553a3.659,3.659,0,0,0,.315-.464"/><path class="s" d="M597.959-404.753l-.024,8.553a5.673,5.673,0,0,1-.614.656l.024-8.553a5.674,5.674,0,0,0,.614-.656"/><path class="t" d="M597.345-404.1l-.024,8.553a12.589,12.589,0,0,1-2.013,1.459l.024-8.553a12.589,12.589,0,0,0,2.013-1.459"/><path class="u" d="M595.332-402.638l-.024,8.553c-.111.068-.225.135-.342.2l.025-8.553c.116-.068.23-.135.341-.2"/></g></g></g><path class="l" d="M594.991-402.435l-.024,8.553-4.443,2.582.024-8.553Z"/><path class="y" d="M590.548-399.854a9.108,9.108,0,0,0-3.025,2.321l-4.639-2.678c.5-.58.779-.938,3.125-2.3l4.543-2.639c2.679-1.557,2.756-2.65.679-3.849l-1.574-.909-11.747,6.827-4.573-2.64L602.19-422.49l6.883,3.974c4.74,2.737,4.586,5.173.127,7.765l-2.263,1.315a12.148,12.148,0,0,1-8.838,1.683c1.329,1.866-.1,3.568-3.108,5.318Zm10.8-11.613,2.845-1.653c2.064-1.2,2.259-2.127.634-3.065l-2.194-1.267-8.852,5.144,1.776,1.025a5.245,5.245,0,0,0,5.791-.184"/><path class="i" d="M587.523-397.533l-.024,8.553-4.639-2.678.024-8.553Z"/><g class="b"><g class="ae"><g class="b"><path class="u" d="M590.548-399.854l-.024,8.554c-.267.155-.518.3-.755.445l.024-8.553c.237-.143.488-.291.755-.446"/><path class="t" d="M589.793-399.408l-.024,8.553a10.174,10.174,0,0,0-1.655,1.182l.024-8.554a10.231,10.231,0,0,1,1.655-1.181"/><path class="s" d="M588.138-398.227l-.024,8.554a4.472,4.472,0,0,0-.494.531l.024-8.553a4.645,4.645,0,0,1,.494-.532"/><path class="r" d="M587.644-397.7l-.024,8.553c-.042.053-.082.107-.121.162l.024-8.553c.039-.055.079-.109.121-.162"/></g></g></g></g><g class="b"><g class="b"><g class="af"><g class="b"><path class="k" d="M622.707-405.574l-.024,8.553c0-.47-.39-.9-1.082-1.3a4.9,4.9,0,0,0-.653-.316l.024-8.553a4.9,4.9,0,0,1,.653.316c.692.4,1.083.83,1.082,1.3"/><path class="x" d="M620.972-407.19l-.024,8.553c-.133-.052-.268-.1-.406-.138l.025-8.553q.205.06.4.138"/><path class="w" d="M620.567-407.328l-.025,8.553c-.1-.029-.206-.054-.31-.076l.024-8.553c.105.021.208.047.311.076"/><path class="n" d="M620.256-407.4l-.024,8.553c-.087-.018-.175-.033-.263-.046l.024-8.553c.088.013.176.028.263.046"/><path class="o" d="M619.993-407.45l-.024,8.553c-.082-.011-.164-.021-.247-.028l.024-8.553c.083.007.165.016.247.028"/><path class="p" d="M619.746-407.478l-.024,8.553c-.082-.006-.163-.011-.246-.013l.024-8.553c.083,0,.165.007.246.013"/><path class="q" d="M619.5-407.491l-.024,8.553c-.086,0-.172,0-.26,0l.024-8.554c.088,0,.174,0,.26,0"/><path class="r" d="M619.24-407.49l-.024,8.554c-.1,0-.2.01-.3.02l.024-8.554c.1-.01.2-.016.3-.02"/><path class="s" d="M618.942-407.47l-.024,8.554c-.127.012-.255.03-.385.054l.024-8.553c.13-.024.258-.042.385-.055"/><path class="t" d="M618.557-407.415l-.024,8.553a5.4,5.4,0,0,0-.7.177l.025-8.553a5.35,5.35,0,0,1,.7-.177"/><path class="u" d="M617.858-407.238l-.025,8.553a7.4,7.4,0,0,0-1.439.655l.024-8.554a7.43,7.43,0,0,1,1.44-.654"/></g></g></g><g class="b"><g class="ag"><g class="b"><path class="n" d="M629.005-405.308l-.024,8.554v.067l.024-8.554v-.067"/><path class="o" d="M629-405.241l-.024,8.554a2.571,2.571,0,0,1-.051.442l.025-8.553a2.675,2.675,0,0,0,.05-.443"/><path class="p" d="M628.954-404.8l-.025,8.553a2.848,2.848,0,0,1-.13.452l.024-8.553a2.96,2.96,0,0,0,.131-.452"/><path class="q" d="M628.823-404.346l-.024,8.553a3.406,3.406,0,0,1-.231.492l.024-8.553a3.4,3.4,0,0,0,.231-.492"/><path class="r" d="M628.592-403.854l-.024,8.553a4.566,4.566,0,0,1-.387.571l.025-8.553a4.663,4.663,0,0,0,.386-.571"/><path class="s" d="M628.206-403.283l-.025,8.553a6.426,6.426,0,0,1-.692.739l.025-8.553a6.51,6.51,0,0,0,.692-.739"/><path class="t" d="M627.514-402.544l-.025,8.553a11.472,11.472,0,0,1-1.853,1.356l.024-8.553a11.482,11.482,0,0,0,1.854-1.356"/><path class="u" d="M625.66-401.188l-.024,8.553-.23.135.025-8.553.229-.135"/></g></g></g><path class="l" d="M616.418-406.584l-.024,8.553L600.82-388.98l.024-8.553Z"/><g class="b"><g class="ah"><g class="b"><path class="u" d="M600.844-397.533l-.024,8.553-.123.073.025-8.553c.04-.024.08-.049.122-.073"/><path class="t" d="M600.722-397.46l-.025,8.553a5.347,5.347,0,0,0-.869.632l.024-8.553a5.318,5.318,0,0,1,.87-.632"/><path class="s" d="M599.852-396.828l-.024,8.553a2.56,2.56,0,0,0-.277.3l.024-8.553a2.484,2.484,0,0,1,.277-.3"/><path class="r" d="M599.575-396.532l-.024,8.553a1.6,1.6,0,0,0-.144.213l.024-8.553a1.811,1.811,0,0,1,.144-.213"/><path class="q" d="M599.431-396.319l-.024,8.553a1.206,1.206,0,0,0-.083.175l.024-8.553a1.31,1.31,0,0,1,.083-.175"/><path class="p" d="M599.348-396.144l-.024,8.553a.959.959,0,0,0-.045.157l.024-8.553a1.059,1.059,0,0,1,.045-.157"/><path class="o" d="M599.3-395.987l-.024,8.553a.989.989,0,0,0-.018.15l.025-8.553a.854.854,0,0,1,.017-.15"/><path class="n" d="M599.286-395.837l-.025,8.553v.022l.024-8.553v-.022"/></g></g></g><path class="l" d="M625.431-401.053l-.024,8.553L610.4-383.778l.024-8.553Z"/><g class="b"><g class="ai"><g class="b"><path class="u" d="M610.422-392.331l-.024,8.553a15.977,15.977,0,0,1-3.1,1.4l.024-8.553a16.04,16.04,0,0,0,3.1-1.4"/><path class="t" d="M607.318-390.934l-.024,8.553a14.418,14.418,0,0,1-1.878.473l.025-8.553a14.448,14.448,0,0,0,1.877-.473"/><path class="s" d="M605.441-390.461l-.025,8.553q-.53.094-1.06.148l.024-8.553c.354-.035.708-.085,1.061-.148"/><path class="r" d="M604.38-390.313l-.024,8.553q-.437.044-.873.059l.025-8.553q.435-.015.872-.059"/><path class="q" d="M603.508-390.254l-.025,8.553q-.391.014-.783,0l.024-8.553q.391.009.784,0"/><path class="p" d="M602.724-390.25,602.7-381.7c-.252-.006-.5-.02-.753-.04l.024-8.554q.376.031.753.041"/><path class="o" d="M601.971-390.291l-.024,8.554q-.383-.031-.764-.086l.024-8.553q.381.054.764.085"/><path class="n" d="M601.207-390.376l-.024,8.553c-.274-.039-.547-.086-.819-.143l.024-8.553c.272.057.545.1.819.143"/><path class="w" d="M600.388-390.519l-.024,8.553c-.324-.067-.645-.146-.966-.237l.024-8.554q.481.138.966.238"/><path class="x" d="M599.422-390.757,599.4-382.2q-.635-.182-1.259-.428l.024-8.553q.625.246,1.259.427"/><path class="k" d="M598.163-391.184l-.024,8.553a14.538,14.538,0,0,1-1.929-.934c-2.178-1.257-3.251-2.6-3.248-3.964l.025-8.553c0,1.36,1.069,2.707,3.247,3.964a14.535,14.535,0,0,0,1.929.934"/></g></g></g><path class="y" d="M625.752-409.272c4.488,2.592,4.288,5.541-.321,8.219l-15.009,8.722a13.728,13.728,0,0,1-14.188.213c-4.472-2.582-4.288-5.541.321-8.219l15.008-8.722A13.754,13.754,0,0,1,625.752-409.272Zm-20.185,14.466,15.574-9.051c2.063-1.2,1.941-2.175.484-3.017-1.44-.831-3.143-.909-5.207.29l-15.574,9.051c-2.063,1.2-1.924,2.185-.483,3.017,1.457.841,3.143.909,5.206-.29"/></g><g class="b"><path class="i" d="M637.889-397.1l-.024,8.553-2.16-1.247.024-8.553Z"/><g class="b"><g class="aj"><g class="b"><path class="k" d="M638.979-395.859l-.025,8.553c0-.438-.393-.837-1.089-1.239l.024-8.553c.7.4,1.091.8,1.09,1.239"/></g></g></g><path class="l" d="M635.729-398.345l-.024,8.553-9.767,5.676.024-8.553Z"/><g class="b"><g class="ak"><g class="b"><path class="n" d="M645.293-395.608l-.024,8.553v.062l.024-8.553v-.062"/><path class="o" d="M645.292-395.546l-.024,8.553a2.53,2.53,0,0,1-.047.413l.024-8.553a2.426,2.426,0,0,0,.047-.413"/><path class="p" d="M645.245-395.133l-.024,8.553a2.807,2.807,0,0,1-.122.423l.024-8.553a2.692,2.692,0,0,0,.122-.423"/><path class="q" d="M645.123-394.71l-.024,8.553a3.4,3.4,0,0,1-.216.46l.024-8.553a3.4,3.4,0,0,0,.216-.46"/><path class="r" d="M644.907-394.25l-.024,8.553a4.426,4.426,0,0,1-.372.549l.024-8.553a4.426,4.426,0,0,0,.372-.549"/><path class="s" d="M644.535-393.7l-.024,8.553a6.343,6.343,0,0,1-.674.72l.025-8.553a6.334,6.334,0,0,0,.673-.72"/><path class="t" d="M643.862-392.981l-.025,8.553a11.953,11.953,0,0,1-1.931,1.41l.024-8.553a11.97,11.97,0,0,0,1.932-1.41"/><path class="u" d="M641.93-391.571l-.024,8.553c-.083.05-.167.1-.253.149l.024-8.553.253-.149"/></g></g></g><path class="l" d="M641.677-391.422l-.024,8.553-3.744,2.176.024-8.553Z"/><path class="i" d="M624.013-389.034l-.024,8.553-2.161-1.247.024-8.553Z"/><g class="b"><g class="al"><g class="b"><path class="u" d="M637.934-389.246l-.025,8.553a16.51,16.51,0,0,1-3.191,1.443l.024-8.553a16.544,16.544,0,0,0,3.192-1.443"/><path class="t" d="M634.742-387.8l-.024,8.553a13.919,13.919,0,0,1-1.792.453l.024-8.553a13.914,13.914,0,0,0,1.792-.453"/><path class="s" d="M632.95-387.35l-.024,8.553q-.5.09-1.005.141l.024-8.553q.5-.051,1.005-.141"/><path class="r" d="M631.945-387.209l-.024,8.553c-.272.027-.544.046-.816.055l.025-8.553c.271-.009.543-.028.815-.055"/><path class="q" d="M631.13-387.154,631.1-378.6c-.243.008-.486.01-.729,0l.024-8.553c.243.006.486,0,.73,0"/><path class="p" d="M630.4-387.15l-.024,8.553c-.235-.006-.469-.019-.7-.038l.025-8.553q.351.028.7.038"/><path class="o" d="M629.7-387.188l-.025,8.553c-.239-.02-.479-.047-.718-.081l.024-8.553q.358.051.719.081"/><path class="n" d="M628.978-387.269l-.024,8.553c-.259-.036-.518-.082-.777-.135l.024-8.553q.389.079.777.135"/><path class="w" d="M628.2-387.4l-.024,8.553q-.465-.1-.928-.229l.025-8.553q.462.133.927.229"/><path class="x" d="M627.274-387.633l-.025,8.553q-.621-.177-1.239-.42l.025-8.553c.411.162.825.3,1.239.42"/><path class="k" d="M626.035-388.053l-.025,8.553a15.3,15.3,0,0,1-2.022-.98l.025-8.554a15.124,15.124,0,0,0,2.022.981"/></g></g></g><path class="l" d="M621.852-390.281l-.024,8.553-10.849,6.3.024-8.553Z"/><path class="y" d="M642.016-399.5c4.555,2.63,4.287,5.386-.339,8.074l-3.743,2.176c-4.609,2.678-9.366,2.843-13.921.212l-2.161-1.247L611-383.976l-4.555-2.63L635.3-403.373Zm-8.921,7.784,4.327-2.514c2.063-1.2,1.925-2.031.467-2.872l-2.16-1.247-9.767,5.676,2.16,1.247c1.457.841,2.91.909,4.973-.29"/><path class="i" d="M611-383.976l-.024,8.553-4.555-2.63.024-8.553Z"/></g><g class="b"><path class="l" d="M663.369-387.168l-.024,8.553-4.126,2.4.024-8.553Z"/><path class="i" d="M659.243-384.769l-.024,8.553-7.871-4.545.024-8.553Z"/><path class="l" d="M651.372-389.314l-.024,8.553-8.037,4.67.024-8.553Z"/><path class="l" d="M649.6-381.027l-.024,8.553-4.11,2.388.024-8.553Z"/><path class="i" d="M645.489-378.639l-.024,8.553L639.2-373.7l.024-8.553Z"/><path class="l" d="M639.225-382.255,639.2-373.7l-8.453,4.912.024-8.553Z"/><path class="i" d="M634.517-370.4l-.024,8.553-12.444-7.184.024-8.553Z"/><path class="l" d="M638.644-372.8l-.024,8.553-4.126,2.4.024-8.553Z"/><path class="y" d="M663.369-387.168l-4.126,2.4-7.871-4.545-8.037,4.67,6.264,3.616-4.11,2.388-6.264-3.616-8.453,4.912,7.871,4.545-4.126,2.4-12.444-7.184,28.852-16.767Z"/></g><g class="b"><path class="i" d="M668.823-379.239l-.024,8.553-2.194-1.267.024-8.553Z"/><g class="b"><g class="am"><g class="b"><path class="k" d="M669.906-377.969l-.024,8.553c0-.438-.361-.853-1.084-1.269l.025-8.554c.722.417,1.084.832,1.083,1.27"/></g></g></g><path class="l" d="M666.629-380.505l-.024,8.553-8.852,5.144.024-8.553Z"/><g class="b"><g class="an"><g class="b"><path class="n" d="M676.59-377.622l-.024,8.553v.056l.024-8.554v-.055"/><path class="o" d="M676.589-377.567l-.024,8.554a2.26,2.26,0,0,1-.042.365l.024-8.553a2.071,2.071,0,0,0,.042-.366"/><path class="p" d="M676.547-377.2l-.024,8.553a2.354,2.354,0,0,1-.108.373l.025-8.553a2.457,2.457,0,0,0,.107-.373"/><path class="q" d="M676.44-376.828l-.025,8.553a2.922,2.922,0,0,1-.191.407l.024-8.553a2.823,2.823,0,0,0,.192-.407"/><path class="r" d="M676.248-376.421l-.024,8.553a3.845,3.845,0,0,1-.329.485l.024-8.553a3.844,3.844,0,0,0,.329-.485"/><path class="s" d="M675.919-375.936l-.024,8.553a5.678,5.678,0,0,1-.605.646l.025-8.553a5.753,5.753,0,0,0,.6-.646"/><path class="t" d="M675.315-375.29l-.025,8.553a11.466,11.466,0,0,1-1.848,1.344l.024-8.553a11.523,11.523,0,0,0,1.849-1.344"/><path class="u" d="M673.466-373.946l-.024,8.553c-.084.05-.169.1-.256.151l.024-8.553c.087-.05.173-.1.256-.151"/></g></g></g><path class="l" d="M673.21-373.795l-.024,8.553-2.263,1.315.024-8.553Z"/><path class="i" d="M655.225-372.054,655.2-363.5l-1.574-.909.024-8.553Z"/><g class="b"><g class="ao"><g class="b"><path class="k" d="M656.687-370.4l-.024,8.553c0-.567-.5-1.1-1.463-1.656l.025-8.553c.96.555,1.464,1.088,1.462,1.656"/></g></g></g><g class="b"><g class="ap"><g class="b"><path class="u" d="M670.947-372.48l-.024,8.553a15.181,15.181,0,0,1-2.973,1.347l.024-8.553a15.181,15.181,0,0,0,2.973-1.347"/><path class="t" d="M667.974-371.133l-.024,8.553a12.062,12.062,0,0,1-1.562.393l.024-8.553a12.067,12.067,0,0,0,1.562-.393"/><path class="s" d="M666.412-370.74l-.024,8.553q-.445.081-.891.125l.024-8.553c.3-.03.594-.071.891-.125"/><path class="r" d="M665.521-370.615l-.024,8.553c-.24.024-.479.04-.719.048l.024-8.553q.36-.012.719-.048"/><path class="q" d="M664.8-370.567l-.024,8.553c-.216.008-.433.009-.649,0l.024-8.553c.216.006.433.005.649,0"/><path class="p" d="M664.153-370.564l-.024,8.553c-.212-.005-.423-.016-.635-.034l.024-8.553c.212.017.424.029.635.034"/><path class="o" d="M663.518-370.6l-.024,8.553q-.33-.027-.661-.074l.024-8.553q.332.047.661.074"/><path class="n" d="M662.857-370.672l-.024,8.553c-.242-.034-.485-.077-.729-.127l.024-8.553q.366.075.729.127"/><path class="w" d="M662.128-370.8l-.024,8.553-.036-.008.025-8.553.035.008"/></g></g></g><path class="i" d="M641.9-366.136l-.024,8.553-4.555-2.63.024-8.553Z"/><path class="l" d="M653.65-372.963l-.024,8.553-11.747,6.827.024-8.553Z"/><g class="b"><g class="aq"><g class="b"><path class="n" d="M662.591-369.4l-.024,8.553v.052l.025-8.553v-.052"/><path class="o" d="M662.591-369.35l-.025,8.553a1.956,1.956,0,0,1-.039.34l.024-8.553a2.069,2.069,0,0,0,.04-.34"/><path class="p" d="M662.551-369.01l-.024,8.553a2.166,2.166,0,0,1-.1.35l.024-8.553a2.167,2.167,0,0,0,.1-.35"/><path class="q" d="M662.45-368.66l-.024,8.553a2.851,2.851,0,0,1-.183.39l.024-8.554a2.68,2.68,0,0,0,.183-.389"/><path class="r" d="M662.267-368.271l-.024,8.554a3.829,3.829,0,0,1-.314.464l.024-8.553a3.768,3.768,0,0,0,.314-.465"/><path class="s" d="M661.953-367.806l-.024,8.553a5.764,5.764,0,0,1-.614.655l.024-8.553a5.756,5.756,0,0,0,.614-.655"/><path class="t" d="M661.339-367.151l-.024,8.553a12.619,12.619,0,0,1-2.013,1.46l.024-8.553a12.57,12.57,0,0,0,2.013-1.46"/><path class="u" d="M659.326-365.691l-.024,8.553c-.112.068-.226.135-.342.2l.024-8.554c.116-.067.23-.135.342-.2"/></g></g></g><path class="l" d="M658.984-365.489l-.024,8.553-4.443,2.582.024-8.553Z"/><path class="y" d="M654.542-362.907a9.021,9.021,0,0,0-3.009,2.331l-4.656-2.689c.5-.58.8-.928,3.142-2.291l4.543-2.64c2.679-1.557,2.739-2.659.663-3.858l-1.575-.909L641.9-366.136l-4.555-2.63L666.2-385.533l6.883,3.974c4.723,2.726,4.587,5.173.127,7.764l-2.263,1.315a12.109,12.109,0,0,1-8.854,1.673c1.329,1.866-.1,3.568-3.109,5.318Zm10.8-11.613,2.845-1.653c2.063-1.2,2.258-2.128.634-3.066l-2.194-1.266-8.852,5.144,1.792,1.035a5.241,5.241,0,0,0,5.775-.194"/><path class="i" d="M651.533-360.576l-.024,8.553-4.656-2.688.024-8.553Z"/><g class="b"><g class="ar"><g class="b"><path class="u" d="M654.542-362.907l-.025,8.553q-.354.205-.67.4l.024-8.553q.316-.192.671-.4"/><path class="t" d="M653.871-362.51l-.024,8.553a10.4,10.4,0,0,0-1.7,1.214l.024-8.553a10.442,10.442,0,0,1,1.7-1.214"/><path class="s" d="M652.171-361.3l-.024,8.553a4.811,4.811,0,0,0-.512.551l.024-8.553a4.8,4.8,0,0,1,.512-.551"/><path class="r" d="M651.659-360.745l-.024,8.553c-.043.055-.085.111-.126.169l.024-8.553c.041-.058.083-.114.126-.169"/></g></g></g></g><g class="b"><path class="i" d="M682.188-371.522l-.024,8.553-4.773-2.756.024-8.553Z"/><path class="l" d="M695.643-368.535l-.024,8.553-4.126,2.4.024-8.553Z"/><path class="i" d="M691.516-366.137l-.024,8.553-4.773-2.756.024-8.553Z"/><path class="y" d="M695.647-368.529l-4.125,2.4-4.772-2.755-24.72,14.365-4.571-2.639,24.72-14.365-4.772-2.755,4.125-2.4Z"/><path class="l" d="M686.743-368.892l-.024,8.553L661.993-345.97l.024-8.553Z"/><path class="i" d="M662.017-354.523l-.024,8.553-4.555-2.63.024-8.553Z"/></g><g class="b"><path class="y" d="M702.2-364.748l-28.85,16.765-4.572-2.639,28.85-16.765Z"/><path class="l" d="M702.191-364.754l-.024,8.553-28.852,16.767.024-8.553Z"/><path class="i" d="M673.339-347.987l-.024,8.553-4.555-2.63.024-8.553Z"/></g></g></g></svg>