<svg xmlns="http://www.w3.org/2000/svg" xmlns:xlink="http://www.w3.org/1999/xlink" width="192.703" height="253.348" viewBox="0 0 192.703 253.348"><defs><style>.a,.h{fill:none;}.b{isolation:isolate;}.c{fill:#d10000;}.d{fill:#b0b2b2;}.e{fill:#2d2d2c;}.f{fill:#6e7072;}.g,.r{fill:#991d1b;}.g{stroke:#fff;stroke-width:9.089px;}.g,.h{stroke-linejoin:round;}.h{stroke:#831412;stroke-width:4.545px;}.i{fill:#831412;}.j{clip-path:url(#a);}.k{fill:#811310;}.l{fill:#ac2322;}.m{clip-path:url(#b);}.n{fill:#8b1815;}.o{fill:#8e1917;}.p{fill:#921a19;}.q{fill:#951c1a;}.s{fill:#9c1e1d;}.t{fill:#a01f1e;}.u{fill:#a3201f;}.v{clip-path:url(#c);}.w{clip-path:url(#d);}.x{fill:#871614;}.y{clip-path:url(#e);}.z{fill:#fff;}.aa{clip-path:url(#f);}.ab{clip-path:url(#g);}.ac{clip-path:url(#h);}.ad{fill:#841512;}.ae{fill:#a22;}.af{fill:#ac2323;}.ag{clip-path:url(#i);}.ah{clip-path:url(#j);}.ai{clip-path:url(#k);}.aj{clip-path:url(#l);}.ak{clip-path:url(#m);}.al{fill:#a82221;}.am{fill:#a72221;}.an{fill:#a2201f;}</style><clipPath id="a"><path class="a" d="M634.669-334.123l-.024,8.553c0-.437-.358-.852-1.077-1.267l.025-8.553C634.311-334.975,634.67-334.56,634.669-334.123Z"/></clipPath><clipPath id="b"><path class="a" d="M641.345-333.785l-.024,8.553c0,1.277-1.157,2.537-3.382,3.83l.024-8.554C640.188-331.249,641.342-332.508,641.345-333.785Z"/></clipPath><clipPath id="c"><path class="a" d="M621.45-326.551,621.425-318c0-.568-.5-1.1-1.455-1.654l.025-8.553C620.952-327.653,621.451-327.119,621.45-326.551Z"/></clipPath><clipPath id="d"><path class="a" d="M635.7-328.641l-.025,8.554a12.05,12.05,0,0,1-8.838,1.682l.025-8.553A12.048,12.048,0,0,0,635.7-328.641Z"/></clipPath><clipPath id="e"><path class="a" d="M627.361-325.553,627.337-317c0,1.336-1.367,2.611-3.607,3.913l.024-8.553C625.995-322.942,627.358-324.217,627.361-325.553Z"/></clipPath><clipPath id="f"><path class="a" d="M619.295-319.048l-.024,8.553a8.641,8.641,0,0,0-2.992,2.32l.024-8.553A8.641,8.641,0,0,1,619.295-319.048Z"/></clipPath><clipPath id="g"><path class="a" d="M628.169-306.377l.024-8.554c0-.506.466-1.061,1.532-1.681l-.024,8.553C628.635-307.439,628.17-306.884,628.169-306.377Z"/></clipPath><clipPath id="h"><path class="a" d="M621.783-306.578l.024-8.553c0,1.319,1.04,2.625,3.191,3.867,4.471,2.581,9.445,2.388,14.054-.291L639.028-303c-4.609,2.678-9.583,2.871-14.055.29C622.823-303.953,621.779-305.259,621.783-306.578Z"/></clipPath><clipPath id="i"><path class="a" d="M595.114-308.917l-.024,8.553c0-.561-.465-1.075-1.312-1.564-1.826-1.054-3.846-1.083-6.425.416a5.551,5.551,0,0,0-3.093,5.343l.024-8.554a5.55,5.55,0,0,1,3.094-5.342c2.579-1.5,4.6-1.47,6.424-.416C594.65-309.992,595.116-309.478,595.114-308.917Z"/></clipPath><clipPath id="j"><path class="a" d="M602.752-308.8l-.024,8.553c-.005,1.8-1.572,3.616-4.6,5.378l.024-8.553C601.18-305.184,602.747-307,602.752-308.8Z"/></clipPath><clipPath id="k"><path class="a" d="M576.358-300.868l-.024,8.554c0-1.389-.241-2.863-.237-4.364l.024-8.553C576.117-303.73,576.362-302.256,576.358-300.868Z"/></clipPath><clipPath id="l"><path class="a" d="M565.375-288.288l.024-8.553c0-.64.594-1.34,1.942-2.124l-.024,8.553C565.969-289.628,565.377-288.928,565.375-288.288Z"/></clipPath><clipPath id="m"><path class="a" d="M584.513-300.409l-.024,8.553c-.008,2.669-.8,5.431-5.166,7.971-5.791,3.365-12.016,3.607-17.643.358-2.7-1.559-4.014-3.2-4.009-4.859l.024-8.553c-.005,1.658,1.309,3.3,4.009,4.859,5.627,3.249,11.853,3.007,17.643-.358C583.718-294.978,584.505-297.74,584.513-300.409Z"/></clipPath></defs><g transform="translate(-745.297 -3902.453)"><g class="b" transform="translate(745.981 3947.479)"><path class="c" d="M115.465,17.616l-7.093-4.095L5.974,73.448c-8.918,5.183-8.871,13.617.106,18.8l123.892,70.781,7.047-4.1L13.127,88.152c-5.063-2.923-5.1-7.682-.059-10.609l102.4-59.927"/></g><g transform="translate(746.958 3860.581)"><g transform="translate(0.042 41.872)"><g class="b"><g transform="translate(0.045)"><path class="d" d="M75.84,20.152c10.465-6.136,27.615-6.179,38.237-.1l68.876,39.432c10.622,6.081,10.75,16.014.289,22.146L115.217,121.5c-10.465,6.136-27.615,6.179-38.237.1L8.1,82.168c-10.622-6.081-10.75-16.014-.289-22.146ZM179.718,61.383,110.842,21.95c-8.819-5.048-23.061-4.992-31.714.081L11.1,61.9c-8.688,5.09-8.581,13.323.238,18.37L80.216,119.7c8.79,5.031,23.031,5.009,31.719-.081l68.025-39.87c8.654-5.073,8.547-13.34-.242-18.37" transform="translate(-0.053 -15.521)"/></g><g transform="translate(4.648 2.674)"><path class="e" d="M75.607,19.986c8.654-5.073,22.895-5.128,31.714-.081L176.2,59.337c8.79,5.031,8.9,13.3.242,18.37l-68.025,39.87c-8.688,5.09-22.929,5.111-31.719.081L7.82,78.226C-1,73.179-1.106,64.946,7.582,59.856Z" transform="translate(-1.135 -16.15)"/></g><path class="f" d="M191.042,28.5c0,.259-.043.519-.068.778-.026.289-.047.578-.1.863-.043.23-.111.455-.17.68a8.08,8.08,0,0,1-.234.816c-.077.221-.179.434-.272.651-.123.285-.247.57-.4.85-.106.2-.234.4-.357.6-.2.319-.4.634-.638.944-.136.183-.281.366-.429.544a16.2,16.2,0,0,1-1.178,1.267c-.136.132-.259.264-.4.4-.264.234-.553.464-.838.689-.242.2-.476.4-.736.587-.31.225-.651.438-.978.655s-.625.425-.97.629l-68.025,39.87a29.468,29.468,0,0,1-3.759,1.8c-.353.14-.714.276-1.076.408-.821.3-1.684.54-2.551.782-.884.251-1.782.485-2.7.676-1.05.217-2.109.412-3.189.553-.3.038-.587.094-.884.123-1.493.162-3,.247-4.516.264-.247,0-.489,0-.736,0-1.5-.009-3-.089-4.486-.238l-.672-.077a42.993,42.993,0,0,1-4.371-.736c-.247-.055-.489-.119-.736-.179a37.715,37.715,0,0,1-3.7-1.114c-.251-.089-.515-.162-.765-.259a29.625,29.625,0,0,1-4.1-1.914L8.139,39.978c-4.031-2.3-6.553-5.167-7.556-8.169a9.589,9.589,0,0,1-.5-3.028L.042,43.827c-.009,4.061,2.679,8.122,8.054,11.2L76.972,94.456a29.128,29.128,0,0,0,3.81,1.82c.094.038.191.06.285.1.251.094.515.166.77.259.736.259,1.463.532,2.228.748.476.136.978.242,1.467.361.247.06.485.123.736.179.2.047.4.106.612.149.88.183,1.777.34,2.679.468.357.051.719.081,1.08.123.225.025.446.051.672.072.293.03.587.077.884.1.884.077,1.778.123,2.666.145.315.009.625,0,.936,0,.247,0,.489,0,.736,0,.37,0,.74.009,1.11,0,1-.034,2.007-.1,3-.2.136-.013.268-.043.4-.055.3-.034.587-.085.884-.123.727-.094,1.459-.174,2.173-.306.349-.06.672-.179,1.016-.251.923-.191,1.812-.421,2.7-.672.455-.132.948-.2,1.395-.349.4-.128.765-.3,1.152-.438.366-.132.723-.264,1.076-.408a28.643,28.643,0,0,0,3.759-1.8l68.025-39.87.255-.153c.255-.153.476-.319.719-.481.327-.213.668-.425.97-.646.268-.2.5-.4.748-.6.281-.225.57-.446.825-.68.043-.038.1-.077.14-.115.1-.094.17-.2.268-.289a15.255,15.255,0,0,0,1.169-1.259c.072-.089.17-.17.242-.259s.123-.191.2-.289c.23-.31.434-.621.629-.94.081-.128.187-.255.259-.383.043-.072.064-.149.1-.221a8.847,8.847,0,0,0,.4-.842c.072-.162.166-.319.225-.476.021-.06.03-.123.051-.183.1-.268.162-.54.234-.812.047-.179.115-.353.153-.532.009-.051.009-.1.017-.153.051-.285.072-.574.1-.867.017-.179.055-.357.064-.536l0-.238h0Z" transform="translate(-0.042 26.682)"/></g></g></g><g transform="translate(203.329 4391.978)"><path class="g" d="M713.218-294.2l-5.208,3.027.017-6.025-4.556-2.63-6.788,3.945.022-7.851h0l-6.682-3.858h0l-6.769,2.847.019-6.744h0l-6.347-3.665-6.5,2.784.018-6.5v-.024h0l-6.347-3.665-3.075,1.787.01-3.556-4.3-2.485-4.755,2.763.015-5.5-4.555-2.63-6.1,3.546.012-4.24,0-.9v0c0-.044-.027-.088-.03-.133a2.3,2.3,0,0,0-.182-.827c-.016-.037-.056-.074-.074-.112a3.835,3.835,0,0,0-.573-.859c-.047-.053-.127-.108-.178-.161a7.562,7.562,0,0,0-.913-.827,14.768,14.768,0,0,0-1.542-1.01l-6.9-3.983L602.1-324.927l-.024,8.553,4.572,2.639,4.99-2.9-.006,2.111-.01,3.661h0l4.656,2.688a3.8,3.8,0,0,1,.412-.491c.056-.06.106-.122.166-.179.1-.1.217-.184.328-.276.127-.1.249-.209.391-.311.126-.09.268-.181.406-.272s.288-.19.446-.288l.023-.014c.259-.159.525-.318.82-.489l2.527-1.469-.015,5.386c0,1.319,1.04,2.625,3.19,3.867a14.335,14.335,0,0,0,1.807.875c.031.012.06.031.09.043q.61.242,1.228.418c.072.02.145.034.217.053s.153.038.23.057c.163.04.325.086.488.12.266.055.533.1.8.139.087.013.175.019.263.03l.155.017c.108.012.214.027.322.036.242.02.486.033.729.039h0c.2.005.39,0,.584,0h.093c.027,0,.055,0,.083,0,.142-.005.285-.02.428-.029s.285-.015.427-.029c.219-.022.437-.059.655-.092.081-.012.161-.02.242-.034.053-.009.106-.013.159-.022.22-.04.44-.116.66-.167l.259-.06c.112-.028.225-.046.338-.078v.366l-.011,3.793,3.986,2.3,3.411-1.982-.011,3.9v.04h0l4.321,2.494,3.157-1.351-.009,3.169,4.321,2.495,2.117-1.231-.007,2.449,4.187,2.418,6.012-2.582,1.19.687-.017,6.043,4.589,2.649,2.135-1.715-.008,2.943,4.555,2.63,5.209-3.027,0,1.267-.014,4.758,2.32,1.339,2.319,1.339h0l28.852-16.767.025-8.553Zm-90.144-18.508h0c.049.048.093.1.145.144C623.171-312.611,623.124-312.658,623.074-312.706Zm2.287-9.991c-.014.011-.027.021-.039.032-.032.024-.056.047-.088.071l-.027.017c-.039.026-.084.052-.12.078.034-.024.065-.049.1-.072.068-.05.137-.1.2-.148C625.377-322.712,625.371-322.7,625.361-322.7Zm3.26,6.913c-.013.013-.034.028-.046.042.019-.022.047-.045.069-.067h0Zm.243-.219-.006.005h0l.019-.017,0,0Zm.625-.454c-.154.1-.316.2-.441.29.111-.084.253-.171.392-.258l.055-.036Zm10.155-14.656c-.024.021-.044.042-.071.064l0,0c.049-.039.088-.078.129-.116C639.679-331.146,639.664-331.13,639.644-331.113Zm.93-.892c-.013.016-.019.032-.032.048l0,0c.073-.085.109-.17.172-.255C640.661-332.142,640.623-332.073,640.574-332.005Zm.563-.863,0,0,0-.01a2.619,2.619,0,0,0,.081-.351A2.3,2.3,0,0,1,641.137-332.868Z"/><path class="g" d="M559.223-285.312q.313.3.69.6a14.594,14.594,0,0,0,1.767,1.184l.007,0a18.093,18.093,0,0,0,2.269,1.1c.04.016.079.041.119.057q.766.3,1.544.525c.088.025.176.041.265.065s.188.046.283.07h0c.209.052.417.111.626.154q.5.1,1,.175c.107.015.215.023.323.036h0c.063.008.127.014.191.021.137.015.274.035.412.047q.456.037.913.048c.244.007.488,0,.732,0h0c.038,0,.076,0,.114,0s.072,0,.108,0c.184-.006.369-.025.554-.037s.344-.018.516-.035c.254-.026.509-.07.763-.107l-.01,3.571v.026h0l5.258,3.036,7.561-3.249,1.456.841.032.018-.022,7.6h0l5.778,3.336,2.674-2.148-.011,3.685h0l3.632,2.1,2.1,1.21h0l7.36-4.277-.024,8.512,5.9,3.4h0l2.627-3.53-.014,5.023v.015h0l5.727,3.307,33.552-19.5,0,1.292-15.219,8.844-9.818,5.706,5.734,3.311h0l-5.728-3.307-.024,8.554,5.727,3.306,31.049-18.043L673.7-255.3l5.192-3.017.024-8.553-.008,0L661.186-277.1l-2.492,1.448.008-2.881.007,0-.007,0h0l-5.735-3.312-2.613,1.519.009-3.024-5.728-3.307h0l-7.52,1.564.017-5.869V-291h0L631.4-294.3l-14.361,8.346,5.846-4.7.024-8.553-8.391-4.844-12.06,5.068c.013-.031.033-.062.044-.093a3.808,3.808,0,0,0,.109-.376c.012-.048.031-.1.042-.146,0-.01.007-.021.009-.031a3.3,3.3,0,0,0,.062-.538c0-.027,0-.053,0-.08l.024-8.553h0a.223.223,0,0,1-.014.065c.034-1.447-.932-2.879-2.971-4.254q-.446-.3-.958-.6a17.085,17.085,0,0,0-4.279-1.767,16.26,16.26,0,0,0-8.864.245,20.737,20.737,0,0,0-4.4,1.938,15.607,15.607,0,0,0-1.6,1.068c-.161.122-.291.246-.438.369-.287.239-.564.479-.8.72-.145.148-.27.3-.4.445-.189.219-.367.439-.522.66-.111.159-.215.319-.31.478a7.115,7.115,0,0,0-.332.633c-.078.168-.158.334-.221.5-.075.2-.131.4-.187.6-.049.177-.108.355-.144.532-.03.148-.043.295-.064.442a10.7,10.7,0,0,0-.116,1.632h0c0-.049-.008-.1-.008-.143l-.018,6.289a5.138,5.138,0,0,1-.338.894c-.02.041-.048.08-.07.121a4.814,4.814,0,0,1-.473.745c-.086.109-.2.213-.3.32a5.742,5.742,0,0,1-.508.518,8.013,8.013,0,0,1-1.126.79l-.017.012c-.025.015-.048.024-.073.038-.286.164-.567.31-.841.435-.232.105-.457.187-.68.265-.058.021-.119.049-.176.068a6.292,6.292,0,0,1-1.6.307h0l.017-6.035-5.426-3.133-2.23,1.3c-.4.233-.768.467-1.116.7-.072.048-.134.1-.2.145-.285.2-.553.4-.8.6l-.1.087c-1.574,1.3-2.36,2.615-2.326,3.923a.917.917,0,0,1-.018-.091l-.024,8.553a3.527,3.527,0,0,0,.554,1.855A6.2,6.2,0,0,0,559.223-285.312Zm108.516,18,4.017,2.319,1.972,1.139h0l-5.989-3.458Zm-9.054-5.227L662-270.629h0l-2.628-1.516-.683-.395Zm-32.476,2.522,9.705-1.925-14.576,8.47Zm-7.651,10.281h0l3.906,2.254h0l-3.905-2.255Zm-16.084-47.79c0,.011,0,.021-.007.031l-.008.017c-.007.015-.014.031-.022.047C602.451-307.465,602.461-307.5,602.474-307.528Zm-4.325,4.106v.007l-.7.4Zm-11.85-5.886c-.046.038-.088.077-.133.116l-.017.012a.464.464,0,0,0-.043.031c.062-.053.129-.106.193-.159Zm-.945.958-.013.019c-.011.015-.027.03-.038.045C585.319-308.307,585.338-308.328,585.354-308.35Zm-.549.922c-.014.03-.025.061-.038.091l-.008.017c-.009.022-.022.044-.031.067C584.752-307.312,584.778-307.37,584.8-307.428Zm-.317,15.577v0h0l.017-6.239c.011-.04.022-.08.034-.12.021-.081.04-.163.069-.243.038-.111.087-.219.135-.328s.1-.23.159-.343c.029-.055.066-.109.1-.163s.071-.12.109-.179l.074-.111c.043-.065.083-.131.131-.2.074-.1.162-.192.246-.288.052-.06.112-.119.167-.179s.113-.129.179-.191.156-.136.234-.2a7.568,7.568,0,0,1,1-.735c.073-.045.131-.093.208-.138.316-.183.621-.34.921-.479a8.981,8.981,0,0,1,.863-.343l.032-.013.036-.014a6.2,6.2,0,0,1,1.629-.314l.024,0a4.936,4.936,0,0,1,.724.076l-.015,5.276,2.928,1.69-10.023,4.212c0-.037.011-.074.012-.11C584.487-291.639,584.488-291.746,584.488-291.851Zm-.016-14.6h0l-.011.043c-.009.037-.023.071-.031.108C584.442-306.347,584.46-306.4,584.472-306.446Zm-.421,8.924c.039-.124.081-.248.117-.372-.051.177-.085.354-.15.531-.014.038-.037.077-.053.115C584-297.34,584.02-297.431,584.051-297.522Zm-.364.853c.032-.064.072-.128.1-.192-.041.091-.086.181-.126.271s-.066.157-.109.235-.1.148-.148.223C583.513-296.311,583.6-296.49,583.687-296.669Zm-.564.96c-.081.117-.143.233-.234.349l-.018.02c-.042.049-.093.1-.134.147s-.1.1-.147.158A8.347,8.347,0,0,0,583.123-295.709Zm-1,1.176c-.07.07-.121.141-.2.21-.148.139-.326.276-.495.414l-.06.049C581.644-294.083,581.9-294.308,582.124-294.533Zm-1.177,1.03c-.043.032-.073.065-.117.1-.029.02-.064.041-.094.062-.217.158-.478.313-.72.469-.219.143-.416.288-.659.43A15.836,15.836,0,0,0,580.947-293.5Zm-14.431-4.92h0c-.009.007-.022.014-.031.02Zm-.539.467-.033.036c-.015.015-.036.031-.051.046l-.006.005C565.914-297.9,565.949-297.927,565.977-297.956Z"/><path class="h" d="M713.218-294.2l-5.208,3.027.017-6.025-4.556-2.63-6.788,3.945.022-7.851-6.682-3.858-6.769,2.847.019-6.744-6.347-3.665-6.5,2.784.018-6.526-6.347-3.665-3.075,1.787.01-3.556-4.3-2.485-4.755,2.763.015-5.5-4.555-2.63-6.1,3.547.014-5.146h0v0c.005-1.274-1.132-2.566-3.492-3.929l-6.9-3.983L602.1-324.927l-.024,8.553,4.572,2.639,4.99-2.9-.016,5.772,4.656,2.688a3.8,3.8,0,0,1,.412-.491c.056-.06.106-.122.166-.179.1-.094.216-.184.327-.275.127-.1.249-.21.392-.312.126-.09.268-.181.406-.272.153-.1.3-.2.469-.3.259-.158.526-.317.82-.488l2.527-1.469-.015,5.386c0,1.319,1.04,2.625,3.191,3.867a14.373,14.373,0,0,0,1.8.874c.031.012.061.032.091.044q.61.242,1.228.418c.072.02.145.034.217.053s.154.038.231.057c.162.04.324.086.487.12.266.055.533.1.8.139.087.013.175.019.262.03l.157.017c.107.012.213.027.321.036.242.02.486.033.729.039.2.005.391,0,.587,0,.031,0,.062,0,.093,0s.055,0,.083,0q.427-.015.855-.058c.219-.022.437-.059.655-.092.081-.012.161-.02.242-.034.053-.009.106-.013.159-.022.22-.04.44-.116.66-.167.2-.046.4-.083.6-.138l-.011,4.159,3.986,2.3,3.411-1.983-.011,3.946,4.321,2.494,3.157-1.351-.009,3.169,4.321,2.495,2.117-1.231-.007,2.449,4.187,2.418,6.012-2.582,1.19.687-.017,6.043,4.589,2.649,2.135-1.715-.008,2.943,4.555,2.63,5.209-3.027-.017,6.025,4.639,2.678,28.852-16.767.025-8.553Zm-96.5-23.021c.04-.042.069-.091.112-.132-.043.041-.071.09-.112.132Zm11.484,2.227,0,.019Zm.1-.347.017-.035Zm.279-.4c.02-.022.048-.046.07-.068l-.024.026C628.608-315.771,628.587-315.756,628.575-315.742Zm.28-.254.03-.026-.027.024Zm.192-.17c.128-.1.292-.2.451-.3l-.009.006C629.335-316.359,629.172-316.261,629.047-316.166Zm-3.686-6.531c-.046.034-.08.069-.127.1s-.1.063-.148.1c.1-.074.2-.147.3-.22C625.377-322.712,625.371-322.7,625.361-322.7Zm15.181-9.26,0,0c.073-.085.109-.17.172-.255C640.649-332.126,640.614-332.041,640.542-331.957Zm-.969.908,0,0c.1-.076.165-.152.253-.228C639.736-331.2,639.668-331.125,639.573-331.049Zm1.564-1.819,0,0a2.355,2.355,0,0,0,.083-.361A2.184,2.184,0,0,1,641.137-332.868Zm-6.49-1.308a.972.972,0,0,0-.235-.561A.979.979,0,0,1,634.647-334.176Zm-.313-.64a3.079,3.079,0,0,0-.741-.574A3.079,3.079,0,0,1,634.334-334.816Zm-13.115,7.638a1.67,1.67,0,0,0-.113-.17A1.434,1.434,0,0,1,621.219-327.178Zm.191.447a1.036,1.036,0,0,0-.04-.185A1.036,1.036,0,0,1,621.41-326.731Zm-.607-.9c-.055-.048-.1-.1-.158-.142C620.707-327.729,620.748-327.682,620.8-327.634Zm2.274,14.927c.053.051.1.1.155.153-.055-.05-.1-.1-.157-.152Zm.492.478a11.459,11.459,0,0,0,1.429.965A11.459,11.459,0,0,1,623.569-312.229Z"/><path class="h" d="M561.68-283.527a18.094,18.094,0,0,0,2.277,1.1c.039.016.078.041.118.057q.766.3,1.544.525c.087.025.176.041.264.065s.19.047.284.07c.209.052.417.111.626.154q.5.1,1,.175c.107.015.215.023.322.036l.193.021c.137.015.274.035.412.047q.456.037.913.048c.244.007.488,0,.732,0h.114c.036,0,.072,0,.109,0q.534-.018,1.07-.072c.254-.026.509-.07.763-.107l-.01,3.6,5.258,3.036,7.561-3.249,1.488.859-.022,7.6,5.778,3.336,2.674-2.148-.011,3.685,5.728,3.307,7.36-4.277-.024,8.512,5.9,3.4,2.627-3.53-.014,5.038,5.727,3.307,33.552-19.5,0,1.292-25.037,14.55,5.734,3.311h0l-5.728-3.307-.024,8.554,5.727,3.306,31.049-18.043L673.7-255.3l5.192-3.017.024-8.553-.008,0L661.186-277.1l-2.492,1.448.008-2.881.006,0-.006,0h0l-5.735-3.311-2.613,1.518.009-3.024-5.728-3.307-7.52,1.564.017-5.9L631.4-294.3l-14.361,8.346,5.846-4.7.024-8.553-8.391-4.844-12.06,5.068c.013-.031.033-.062.044-.093a3.519,3.519,0,0,0,.16-.553,3.178,3.178,0,0,0,.061-.538c0-.026,0-.053,0-.08l.024-8.553c0,.039-.024.079-.026.118.069-1.675-1.2-3.332-3.917-4.9-5.577-3.22-11.752-2.949-17.542.416-4.426,2.572-5.158,5.375-5.138,8.081,0-.049-.008-.1-.008-.143l-.018,6.288a5.536,5.536,0,0,1-2.833,3.4,7.543,7.543,0,0,1-3.367,1.114l.017-6.035-5.426-3.133-2.23,1.3c-3.358,1.952-4.84,3.984-4.447,5.981a3.284,3.284,0,0,1-.122-.619l-.024,8.553C557.666-286.728,558.979-285.086,561.68-283.527Zm25.466-17.848c.073-.045.131-.093.207-.137a9.709,9.709,0,0,1,1.79-.825c.02-.006.042-.017.062-.024a6.2,6.2,0,0,1,1.63-.314l.023,0a4.95,4.95,0,0,1,.724.076l-.015,5.276,2.928,1.69-10.023,4.212c0-.037.011-.074.012-.11,0-.108,0-.216.005-.323h0l.017-6.239c.033-.121.061-.244.1-.363s.088-.219.136-.328.1-.23.159-.343.135-.228.207-.34.13-.207.206-.308.162-.192.246-.288c.108-.124.219-.249.345-.37.073-.069.157-.136.236-.205A7.756,7.756,0,0,1,587.146-301.375Zm13.182-3.548-.066.054c.122-.1.21-.2.323-.294C600.493-305.083,600.426-305,600.328-304.923Zm-14.987-3.408c-.011.015-.027.03-.038.045.016-.021.034-.042.051-.063Zm-.574.994c-.013.03-.029.059-.041.089.025-.061.051-.121.079-.181C584.791-307.4,584.78-307.367,584.767-307.337Zm-.305.933c-.008.037-.023.071-.031.108.011-.052.03-.1.042-.153ZM584.3-305.1c0-.08,0-.16.009-.239C584.3-305.258,584.3-305.178,584.3-305.1Zm-.281,7.735c-.014.038-.038.077-.053.115.084-.215.141-.431.2-.646C584.117-297.717,584.083-297.54,584.018-297.363Zm-.465,1.008c-.042.074-.1.148-.148.223a7.2,7.2,0,0,0,.383-.729C583.711-296.692,583.647-296.523,583.553-296.355Zm-.664,1c-.044.056-.1.111-.151.167s-.1.106-.148.159c.194-.225.376-.45.534-.675C583.042-295.593,582.98-295.476,582.889-295.36Zm-.96,1.037c-.166.156-.37.31-.557.465.271-.224.526-.449.753-.676C582.055-294.464,582-294.393,581.929-294.323Zm-14.89-4.443c-.194.122-.4.245-.555.364.162-.122.369-.249.569-.374Zm-.8.581-.005,0,.049-.043C566.267-298.212,566.255-298.2,566.239-298.185Zm-.705.82c.007-.014.012-.028.019-.042C565.546-297.393,565.541-297.379,565.534-297.365Zm108.194,33.509h0l-5.989-3.458h0ZM662-270.629h0l-3.311-1.911v0Zm-39.535,13.146-3.905-2.255h0l3.906,2.254Zm-1.125-5.991,4.871-6.545,9.705-1.925ZM602.467-307.5c-.016.039-.036.077-.054.115,0,.007-.01.014-.013.021a3.62,3.62,0,0,0,.16-.562A3.244,3.244,0,0,1,602.467-307.5Zm-.579.929c-.091.128-.141.257-.248.385-.021.025-.049.05-.071.075C601.7-306.261,601.779-306.415,601.888-306.568Zm-3.739,3.153-.707.4.707-.41Zm-3.249-6.118a1.822,1.822,0,0,0-.1-.162A1.687,1.687,0,0,1,594.9-309.533Zm.177.433a1.037,1.037,0,0,0-.038-.18A1.037,1.037,0,0,1,595.077-309.1Zm-.555-.863c-.049-.044-.086-.088-.141-.131C594.436-310.051,594.473-310.006,594.522-309.963Zm-8.222.654c-.047.039-.089.078-.134.117-.018.015-.044.029-.061.044C586.166-309.2,586.235-309.255,586.3-309.309Zm-5.351,15.8c-.044.033-.074.067-.119.1s-.074.048-.106.071a16.286,16.286,0,0,1-1.377.9A15.785,15.785,0,0,0,580.949-293.505Zm-4.711-9.532c.055.664.1,1.315.108,1.95C576.337-301.723,576.293-302.372,576.238-303.037Zm-10.261,5.081-.033.036c-.016.017-.042.035-.057.051C565.913-297.9,565.949-297.927,565.977-297.956Zm-.57,1.026,0,.028Zm-5.5,3.64a14.3,14.3,0,0,0,1.793,1.21A14.3,14.3,0,0,1,559.911-293.29Zm-.426-.411a8.021,8.021,0,0,1-.832-.824A8.021,8.021,0,0,0,559.485-293.7Zm-1.136-1.324a4.526,4.526,0,0,1-.425-.755A4.487,4.487,0,0,0,558.349-295.025Z"/><g class="b"><path class="i" d="M633.593-335.39l-.024,8.553-2.194-1.267.024-8.553Z"/><g class="b"><g class="j"><g class="b"><path class="k" d="M634.669-334.123l-.024,8.553c0-.437-.358-.852-1.077-1.267l.025-8.553c.718.415,1.077.83,1.076,1.267"/></g></g></g><path class="l" d="M631.4-336.656l-.024,8.553-8.869,5.154.024-8.553Z"/><g class="b"><g class="m"><g class="b"><path class="n" d="M641.345-333.785l-.024,8.553v.056l.024-8.553v-.056"/><path class="o" d="M641.344-333.729l-.024,8.553a2.055,2.055,0,0,1-.042.365l.024-8.553a2.049,2.049,0,0,0,.042-.365"/><path class="p" d="M641.3-333.364l-.024,8.553a2.465,2.465,0,0,1-.107.373l.024-8.553a2.245,2.245,0,0,0,.107-.373"/><path class="q" d="M641.2-332.991l-.024,8.553a2.823,2.823,0,0,1-.192.407l.024-8.553a2.874,2.874,0,0,0,.192-.407"/><path class="r" d="M641-332.584l-.024,8.553a3.749,3.749,0,0,1-.329.486l.024-8.554a3.676,3.676,0,0,0,.329-.485"/><path class="s" d="M640.674-332.1l-.024,8.554a5.665,5.665,0,0,1-.6.645l.024-8.553a5.664,5.664,0,0,0,.6-.646"/><path class="t" d="M640.07-331.453l-.024,8.553a11.479,11.479,0,0,1-1.85,1.346l.024-8.553a11.475,11.475,0,0,0,1.85-1.346"/><path class="u" d="M638.22-330.107l-.024,8.553-.257.152.024-8.554c.088-.05.173-.1.257-.151"/></g></g></g><path class="l" d="M637.964-329.956l-.024,8.553-2.263,1.315.024-8.553Z"/><path class="i" d="M619.995-328.205l-.024,8.553-1.574-.909.024-8.553Z"/><g class="b"><g class="v"><g class="b"><path class="k" d="M621.45-326.551,621.425-318c0-.568-.5-1.1-1.455-1.654l.025-8.553c.957.552,1.456,1.086,1.455,1.654"/></g></g></g><g class="b"><g class="w"><g class="b"><path class="u" d="M635.7-328.641l-.025,8.554a15.363,15.363,0,0,1-3,1.362l.024-8.553a15.341,15.341,0,0,0,3.005-1.363"/><path class="t" d="M632.7-327.278l-.024,8.553a12,12,0,0,1-1.545.389l.025-8.553a11.984,11.984,0,0,0,1.544-.389"/><path class="s" d="M631.152-326.889l-.025,8.553q-.44.08-.88.123l.024-8.553c.294-.029.587-.07.881-.123"/><path class="r" d="M630.271-326.766l-.024,8.553q-.355.036-.711.048l.024-8.553q.355-.012.711-.048"/><path class="q" d="M629.56-326.718l-.024,8.553q-.321.011-.643,0l.025-8.553q.321.008.642,0"/><path class="p" d="M628.918-326.715l-.025,8.553c-.209-.005-.419-.017-.63-.034l.024-8.553q.316.025.631.034"/><path class="o" d="M628.287-326.749l-.024,8.553q-.328-.027-.658-.074l.024-8.553q.33.047.658.074"/><path class="n" d="M627.629-326.823l-.024,8.553c-.243-.034-.487-.077-.731-.127l.024-8.554c.245.051.488.093.731.128"/><path class="x" d="M626.9-326.951l-.024,8.554-.036-.008.025-8.553.035.007"/></g></g></g><path class="i" d="M606.673-322.288l-.024,8.553-4.572-2.64.024-8.553Z"/><path class="l" d="M618.42-329.114l-.024,8.553-11.747,6.827.024-8.553Z"/><g class="b"><g class="y"><g class="b"><path class="n" d="M627.361-325.553,627.337-317v.052l.025-8.554v-.051"/><path class="o" d="M627.361-325.5l-.025,8.554a1.956,1.956,0,0,1-.039.34l.024-8.553a2.075,2.075,0,0,0,.04-.341"/><path class="p" d="M627.321-325.161l-.024,8.553a2.167,2.167,0,0,1-.1.35l.024-8.553a2.167,2.167,0,0,0,.1-.35"/><path class="q" d="M627.22-324.811l-.024,8.553a2.787,2.787,0,0,1-.183.389l.024-8.553a2.673,2.673,0,0,0,.183-.389"/><path class="r" d="M627.037-324.422l-.024,8.553a3.838,3.838,0,0,1-.314.465l.024-8.554a3.758,3.758,0,0,0,.314-.464"/><path class="s" d="M626.723-323.958,626.7-315.4a5.764,5.764,0,0,1-.614.655l.024-8.553a5.6,5.6,0,0,0,.614-.656"/><path class="t" d="M626.109-323.3l-.024,8.553a12.621,12.621,0,0,1-2.013,1.46l.024-8.553a12.572,12.572,0,0,0,2.013-1.46"/><path class="u" d="M624.1-321.842l-.024,8.553c-.112.067-.226.135-.342.2l.024-8.553c.117-.067.23-.135.342-.2"/></g></g></g><path class="l" d="M623.754-321.64l-.024,8.553-4.459,2.592.024-8.553Z"/><path class="z" d="M619.295-319.048a8.641,8.641,0,0,0-2.992,2.32l-4.656-2.688c.481-.57.78-.918,3.142-2.291l4.526-2.631c2.679-1.556,2.756-2.668.68-3.867l-1.575-.909-11.747,6.826-4.572-2.639,28.852-16.767,6.9,3.983c4.723,2.727,4.553,5.174.11,7.755l-2.262,1.315a12.048,12.048,0,0,1-8.838,1.683c1.329,1.866-.1,3.568-3.109,5.318Zm10.819-11.623,2.828-1.644c2.063-1.2,2.275-2.137.651-3.075l-2.194-1.266L622.53-331.5l1.775,1.025a5.277,5.277,0,0,0,5.809-.193"/><path class="i" d="M616.3-316.728l-.024,8.553-4.656-2.688.024-8.553Z"/><g class="b"><g class="aa"><g class="b"><path class="u" d="M619.295-319.048l-.024,8.553c-.259.15-.5.294-.736.434l.024-8.553c.232-.14.477-.284.736-.434"/><path class="t" d="M618.559-318.614l-.024,8.553a10.079,10.079,0,0,0-1.626,1.16l.024-8.553a10.124,10.124,0,0,1,1.626-1.16"/><path class="s" d="M616.933-317.454l-.024,8.553a4.228,4.228,0,0,0-.467.5l.024-8.554a4.3,4.3,0,0,1,.467-.5"/><path class="r" d="M616.466-316.952l-.024,8.554c-.058.072-.112.147-.163.223l.024-8.553c.051-.076.106-.151.163-.224"/></g></g></g></g><g class="b"><path class="l" d="M651.988-329.55,651.964-321,629.7-308.059l.024-8.553Z"/><g class="b"><g class="ab"><g class="b"><path class="u" d="M629.725-316.612l-.024,8.553-.122.073.024-8.553.122-.073"/><path class="t" d="M629.6-316.539l-.024,8.553a5.359,5.359,0,0,0-.86.624l.025-8.553a5.242,5.242,0,0,1,.859-.624"/><path class="s" d="M628.744-315.915l-.025,8.553a2.583,2.583,0,0,0-.268.287l.024-8.553a2.505,2.505,0,0,1,.269-.287"/><path class="r" d="M628.475-315.628l-.024,8.553a1.6,1.6,0,0,0-.141.208l.024-8.553a1.736,1.736,0,0,1,.141-.208"/><path class="q" d="M628.334-315.42l-.024,8.553a1.239,1.239,0,0,0-.08.17l.024-8.553a1.238,1.238,0,0,1,.08-.17"/><path class="p" d="M628.254-315.25l-.024,8.553a.981.981,0,0,0-.044.153l.024-8.554a.988.988,0,0,1,.044-.152"/><path class="o" d="M628.21-315.1l-.024,8.554a.81.81,0,0,0-.017.145l.024-8.553a.921.921,0,0,1,.017-.146"/><path class="n" d="M628.193-314.952l-.024,8.553v.022l.024-8.554v-.021"/></g></g></g><path class="l" d="M661.032-324.328l-.024,8.553L639.028-303l.024-8.553Z"/><path class="z" d="M661.032-324.328l-21.98,12.773c-4.609,2.679-9.583,2.872-14.054.291-4.489-2.592-4.154-5.464.455-8.142l21.98-12.774,4.555,2.63-22.263,12.938c-2.063,1.2-1.874,2.157-.433,2.988a4.79,4.79,0,0,0,5.173-.251l22.263-12.938Z"/><g class="b"><g class="ac"><g class="b"><path class="u" d="M639.052-311.555,639.028-303a16.47,16.47,0,0,1-3.191,1.438l.024-8.553a16.416,16.416,0,0,0,3.191-1.439"/><path class="t" d="M635.861-310.116l-.024,8.553a14.41,14.41,0,0,1-1.861.47l.024-8.553a14.408,14.408,0,0,0,1.861-.47"/><path class="s" d="M634-309.646l-.024,8.553q-.528.094-1.056.148l.024-8.553c.352-.035.7-.085,1.056-.148"/><path class="r" d="M632.944-309.5l-.024,8.553q-.427.044-.855.058l.024-8.553q.428-.015.855-.058"/><path class="q" d="M632.089-309.44l-.024,8.553c-.255.008-.509.01-.763,0l.025-8.553c.253.007.508.005.762,0"/><path class="p" d="M631.327-309.437l-.025,8.553c-.243-.006-.487-.019-.729-.039l.024-8.553q.365.03.73.039"/><path class="o" d="M630.6-309.476l-.024,8.553q-.371-.03-.74-.083l.024-8.553q.369.053.74.083"/><path class="n" d="M629.857-309.559l-.024,8.553c-.267-.037-.534-.084-.8-.139l.025-8.553c.265.055.532.1.8.139"/><path class="x" d="M629.058-309.7l-.025,8.553c-.312-.065-.624-.141-.935-.23l.025-8.553q.465.132.935.23"/><path class="ad" d="M628.123-309.928l-.025,8.553q-.618-.177-1.228-.418l.025-8.553q.609.242,1.228.418"/><path class="k" d="M626.9-310.346l-.025,8.553a14.348,14.348,0,0,1-1.9-.918c-2.15-1.242-3.194-2.548-3.19-3.867l.024-8.553c0,1.319,1.04,2.625,3.191,3.867a14.353,14.353,0,0,0,1.9.918"/></g></g></g></g><g class="b"><path class="l" d="M659.63-315.345l-.024,8.553-20.4,11.855.024-8.553Z"/><path class="ae" d="M670.444-318.894l-.024,8.553-17.133,13.856.024-8.553Z"/><path class="i" d="M639.231-303.49l-.024,8.553-3.986-2.3.024-8.553Z"/><path class="i" d="M646.952-299.033l-.024,8.553-4.321-2.495.024-8.553Z"/><path class="af" d="M670.782-309.234l-.024,8.553-23.831,10.2.024-8.553Z"/><path class="z" d="M683.273-311.487,654.421-294.72l-4.321-2.495,20.682-12.019-23.831,10.2-4.321-2.495,17-13.818-20.4,11.855-3.986-2.3L664.1-322.559l6.347,3.665-17.133,13.856,23.614-10.114Z"/><path class="i" d="M654.421-294.72l-.024,8.553-4.321-2.495.024-8.553Z"/><path class="l" d="M683.273-311.487l-.024,8.553L654.4-286.167l.024-8.553Z"/></g><g class="b"><path class="af" d="M688.013-302.814l-.024,8.553-16.77,7.2.024-8.553Z"/><path class="af" d="M666.73-293.666l-.024,8.553-6.012,2.582.024-8.553Z"/><path class="i" d="M660.719-291.085l-.024,8.553-4.187-2.417.024-8.553Z"/><path class="i" d="M672.324-290.437l-.024,8.553-5.594-3.23.024-8.553Z"/><path class="z" d="M696.705-303.732l-24.213,19.445-4.589-2.649,4.421-3.5-5.594-3.229-6.011,2.581-4.187-2.417,33.491-14.088Zm-25.462,8.122,4.388,2.534,12.382-9.738-16.77,7.2"/><path class="ae" d="M696.705-303.732l-.024,8.553-24.213,19.445.024-8.553Z"/><path class="i" d="M672.492-284.287l-.024,8.553-4.589-2.649.024-8.553Z"/></g><g class="b"><path class="l" d="M708.027-297.2,708-288.643l-12.379,7.194.024-8.553Z"/><path class="i" d="M696.729-284.616l-.024,8.553-5.192-3,.024-8.553Z"/><path class="l" d="M691.537-287.613l-.024,8.553-12.363,7.184.024-8.553Z"/><path class="i" d="M679.175-280.429l-.024,8.553-4.555-2.63.024-8.553Z"/><path class="z" d="M717.858-291.52l-28.852,16.767-4.639-2.678,12.363-7.184-5.192-3-12.363,7.184-4.555-2.63,28.852-16.767,4.555,2.63L695.647-290l5.192,3,12.379-7.194Z"/><path class="l" d="M717.858-291.52l-.024,8.553L688.981-266.2l.024-8.553Z"/><path class="i" d="M689.006-274.753l-.024,8.553-4.639-2.678.024-8.553Z"/></g><g class="b"><g class="b"><g class="ag"><g class="b"><path class="k" d="M595.114-308.917l-.024,8.553c0-.561-.465-1.075-1.312-1.564a6.233,6.233,0,0,0-.811-.394l.024-8.553a6.11,6.11,0,0,1,.811.394c.848.489,1.314,1,1.312,1.564"/><path class="ad" d="M592.991-310.875l-.024,8.553c-.161-.063-.324-.119-.489-.166l.025-8.553c.164.047.327.1.488.166"/><path class="x" d="M592.5-311.041l-.025,8.553c-.121-.035-.244-.065-.368-.091l.025-8.553c.123.026.246.056.368.091"/><path class="n" d="M592.135-311.132l-.025,8.553q-.154-.031-.312-.054l.024-8.553c.1.015.209.033.313.054"/><path class="o" d="M591.822-311.186l-.024,8.553q-.145-.021-.291-.033l.024-8.553q.147.012.291.033"/><path class="p" d="M591.531-311.219l-.024,8.553c-.1-.008-.193-.013-.29-.015l.024-8.553c.1,0,.194.007.29.015"/><path class="q" d="M591.241-311.234l-.024,8.553c-.1,0-.2,0-.308,0l.024-8.553c.1,0,.206,0,.308,0"/><path class="r" d="M590.933-311.233l-.024,8.553q-.174.006-.351.024l.024-8.553q.177-.018.351-.024"/><path class="s" d="M590.582-311.209l-.024,8.553c-.152.015-.307.037-.463.065l.024-8.553c.157-.028.311-.05.463-.065"/><path class="t" d="M590.119-311.144l-.024,8.553a6.817,6.817,0,0,0-.857.217l.024-8.553a6.82,6.82,0,0,1,.857-.217"/><path class="u" d="M589.262-310.927l-.024,8.553a9.7,9.7,0,0,0-1.885.862l-.1.061.024-8.553.1-.061a9.664,9.664,0,0,1,1.884-.862"/><path class="t" d="M587.273-310l-.024,8.553a7.743,7.743,0,0,0-1.246.913l.025-8.553a7.688,7.688,0,0,1,1.245-.913"/><path class="s" d="M586.028-309.091,586-300.538a5.629,5.629,0,0,0-.626.671l.024-8.553a5.561,5.561,0,0,1,.627-.671"/><path class="r" d="M585.4-308.42l-.024,8.553a4.981,4.981,0,0,0-.427.636l.025-8.553a4.871,4.871,0,0,1,.426-.636"/><path class="q" d="M584.975-307.784l-.025,8.553a4.825,4.825,0,0,0-.315.679l.024-8.553a4.834,4.834,0,0,1,.316-.679"/><path class="p" d="M584.659-307.105l-.024,8.553a5.45,5.45,0,0,0-.238.843l.025-8.553a5.453,5.453,0,0,1,.237-.843"/><path class="o" d="M584.422-306.262l-.025,8.553a7.639,7.639,0,0,0-.134,1.3l.024-8.553a7.639,7.639,0,0,1,.135-1.3"/><path class="n" d="M584.287-304.962l-.024,8.553q0,.12,0,.24l.024-8.554c0-.08,0-.159,0-.239"/></g></g></g><g class="b"><g class="ah"><g class="b"><path class="n" d="M602.752-308.8l-.024,8.553c0,.027,0,.054,0,.08l.024-8.553c0-.027,0-.053,0-.08"/><path class="o" d="M602.751-308.72l-.024,8.553a3.283,3.283,0,0,1-.062.538l.024-8.553a3.185,3.185,0,0,0,.062-.538"/><path class="p" d="M602.689-308.182l-.024,8.553a3.489,3.489,0,0,1-.16.553l.025-8.553a3.635,3.635,0,0,0,.159-.553"/><path class="q" d="M602.53-307.629l-.025,8.553a4.42,4.42,0,0,1-.281.6l.024-8.553a4.428,4.428,0,0,0,.282-.6"/><path class="r" d="M602.248-307.03l-.024,8.553a5.764,5.764,0,0,1-.483.714l.024-8.553a5.752,5.752,0,0,0,.483-.714"/><path class="s" d="M601.765-306.316l-.024,8.553a8.253,8.253,0,0,1-.871.931l.024-8.554a8.156,8.156,0,0,0,.871-.93"/><path class="t" d="M600.894-305.386l-.024,8.554a15.015,15.015,0,0,1-2.434,1.779l.024-8.554a14.9,14.9,0,0,0,2.434-1.779"/><path class="u" d="M598.46-303.607l-.024,8.554-.311.184.024-8.553c.105-.062.209-.123.311-.185"/></g></g></g><path class="z" d="M598.161-303.422l-.022,8.549-1.175.67.022-8.549Z"/><path class="i" d="M597-302.755l-.024,8.553-5.41-3.123.024-8.553Z"/><g class="b"><g class="ai"><g class="b"><path class="k" d="M576.358-300.868l-.024,8.554c0-1.389-.241-2.863-.237-4.364l.024-8.553c0,1.5.241,2.975.237,4.363"/></g></g></g><path class="l" d="M569.92-300.463l-.024,8.553-2.579,1.5.024-8.553Z"/><g class="b"><g class="aj"><g class="b"><path class="u" d="M567.341-298.965l-.024,8.553-.157.093.024-8.553.157-.093"/><path class="t" d="M567.184-298.872l-.024,8.553a6.714,6.714,0,0,0-1.091.793l.024-8.553a6.757,6.757,0,0,1,1.091-.793"/><path class="s" d="M566.093-298.079l-.024,8.553a3.053,3.053,0,0,0-.341.364l.025-8.553a3.045,3.045,0,0,1,.34-.364"/><path class="r" d="M565.753-297.715l-.025,8.553a2.051,2.051,0,0,0-.176.26l.024-8.553a1.966,1.966,0,0,1,.177-.26"/><path class="q" d="M565.576-297.455l-.024,8.553a1.576,1.576,0,0,0-.1.213l.025-8.553a1.509,1.509,0,0,1,.1-.213"/><path class="p" d="M565.476-297.242l-.025,8.553a1.317,1.317,0,0,0-.055.191l.024-8.553a1.288,1.288,0,0,1,.056-.191"/><path class="o" d="M565.42-297.051,565.4-288.5a1.165,1.165,0,0,0-.021.183l.024-8.553a1.172,1.172,0,0,1,.021-.183"/><path class="n" d="M565.4-296.868l-.024,8.553v.027l.024-8.553v-.027"/></g></g></g><g class="b"><g class="ak"><g class="b"><path class="n" d="M584.513-300.409l-.024,8.553c0,.107,0,.215-.005.323l.024-8.553c0-.108.005-.216.005-.323"/><path class="o" d="M584.508-300.086l-.024,8.553a9.525,9.525,0,0,1-.168,1.576l.025-8.553a9.634,9.634,0,0,0,.167-1.576"/><path class="p" d="M584.341-298.51l-.025,8.553a7.352,7.352,0,0,1-.328,1.167l.024-8.553a7.475,7.475,0,0,0,.329-1.167"/><path class="q" d="M584.012-297.343l-.024,8.553a7.157,7.157,0,0,1-.47,1.011l.024-8.553a7.158,7.158,0,0,0,.47-1.011"/><path class="r" d="M583.542-296.332l-.024,8.553a7.737,7.737,0,0,1-.661.984l.024-8.553a7.629,7.629,0,0,0,.661-.984"/><path class="s" d="M582.881-295.348l-.024,8.553a9.5,9.5,0,0,1-1.006,1.083l.025-8.553a9.387,9.387,0,0,0,1.005-1.083"/><path class="t" d="M581.876-294.265l-.025,8.553a13.9,13.9,0,0,1-2.309,1.7l.024-8.553a13.951,13.951,0,0,0,2.31-1.7"/><path class="u" d="M579.566-292.567l-.024,8.553-.219.129a20.7,20.7,0,0,1-4.011,1.809l.024-8.553a20.672,20.672,0,0,0,4.011-1.809l.219-.129"/><path class="t" d="M575.336-290.629l-.024,8.553a17.878,17.878,0,0,1-2.331.588l.024-8.553a17.878,17.878,0,0,0,2.331-.588"/><path class="s" d="M573.005-290.041l-.024,8.553q-.66.12-1.321.186l.024-8.553q.661-.066,1.321-.186"/><path class="r" d="M571.684-289.855l-.024,8.553q-.535.054-1.07.072l.024-8.553c.357-.012.713-.036,1.07-.072"/><path class="q" d="M570.614-289.783l-.024,8.553c-.319.011-.637.012-.955.005l.025-8.554c.317.008.636.007.954,0"/><path class="p" d="M569.66-289.779l-.025,8.554q-.457-.012-.913-.049l.024-8.554c.3.025.609.042.914.049"/><path class="o" d="M568.746-289.828l-.024,8.554q-.465-.039-.927-.1l.024-8.553c.308.043.617.078.927.1"/><path class="n" d="M567.819-289.931l-.024,8.553q-.5-.072-1-.175l.024-8.553q.5.1,1,.175"/><path class="x" d="M566.817-290.106l-.024,8.553q-.59-.121-1.174-.289l.024-8.553q.585.166,1.174.289"/><path class="ad" d="M565.643-290.395l-.024,8.553q-.777-.222-1.544-.525l.024-8.553q.768.3,1.544.525"/><path class="k" d="M564.1-290.92l-.024,8.553a18.026,18.026,0,0,1-2.4-1.16c-2.7-1.559-4.014-3.2-4.009-4.859l.024-8.553c-.005,1.658,1.309,3.3,4.009,4.859a18.03,18.03,0,0,0,2.4,1.16"/></g></g></g><path class="z" d="M598.809-313.585c5.577,3.22,5.13,6.8-.66,10.163l-1.148.667-5.41-3.123,1.514-.88c2.579-1.5,2.523-2.669.7-3.723s-3.845-1.083-6.424.416c-7.455,4.332,2.335,11.6-8.031,17.627-5.79,3.365-12.016,3.607-17.643.358s-5.23-6.856.56-10.221l2.23-1.3,5.426,3.133-2.579,1.5c-2.6,1.509-2.388,2.708-.563,3.762s3.9,1.17,6.492-.339c7.454-4.332-2.353-11.613,8-17.627C587.057-316.534,593.232-316.8,598.809-313.585Z"/></g><g class="b"><path class="af" d="M612-298.066l-.024,8.553-21.1,9.06.024-8.553Z"/><path class="af" d="M585.256-286.578l-.024,8.553-7.561,3.249.024-8.553Z"/><path class="i" d="M577.7-283.329l-.024,8.553-5.259-3.036.024-8.553Z"/><path class="i" d="M592.307-282.507l-.024,8.553-7.051-4.071.024-8.553Z"/><path class="z" d="M622.912-299.207,592.5-274.781l-5.778-3.336,5.584-4.39-7.051-4.071-7.56,3.249-5.259-3.036,42.085-17.686Zm-32.01,10.2,5.526,3.191L612-298.066l-21.1,9.061"/><path class="ae" d="M622.912-299.207l-.024,8.553-30.411,24.425.024-8.553Z"/><path class="i" d="M592.5-274.781l-.024,8.553-5.778-3.336.024-8.553Z"/></g><g class="b"><path class="l" d="M637.131-291l-.024,8.553-15.79,9.176.024-8.553Z"/><path class="al" d="M650.362-283.358l-.024,8.553-24.128,4.786.024-8.553Z"/><path class="am" d="M617.109-277.305l-.024,8.553-5.087.9.024-8.553Z"/><path class="l" d="M612.023-276.406,612-267.853l-11.131,6.469.024-8.553Z"/><path class="i" d="M600.891-269.937l-.024,8.553-5.728-3.307.024-8.553Z"/><path class="i" d="M614.122-262.3l-.024,8.553-5.9-3.4.024-8.553Z"/><path class="z" d="M650.362-283.358l-24.128,4.786L614.122-262.3l-5.9-3.4,8.882-11.6-5.086.9-11.132,6.469-5.728-3.307L631.4-294.3,637.131-291l-15.79,9.176,23.293-4.844Z"/><path class="an" d="M626.234-278.572l-.024,8.553L614.1-253.745l.024-8.553Z"/></g><g class="b"><path class="z" d="M658.708-278.538l-36.237,21.059-5.742-3.315,36.237-21.059Z"/><path class="l" d="M658.7-278.543l-.024,8.553-36.24,21.06.024-8.553Z"/><path class="i" d="M622.463-257.483l-.024,8.553-5.728-3.307.024-8.553Z"/></g><g class="b"><path class="i" d="M662-270.624l-.024,8.553-6-3.462.024-8.553Z"/><path class="l" d="M678.917-266.872l-.024,8.553L673.7-255.3l.024-8.553Z"/><path class="i" d="M673.726-263.855,673.7-255.3l-6-3.462.024-8.553Z"/><path class="z" d="M678.914-266.865l-5.182,3.011-5.994-3.46-31.048,18.043-5.741-3.315L662-270.629,656-274.089l5.182-3.011Z"/><path class="l" d="M667.73-267.317l-.024,8.553-31.048,18.043.024-8.553Z"/><path class="i" d="M636.682-249.274l-.024,8.553-5.728-3.307.024-8.553Z"/></g></g></g></svg>