<svg xmlns="http://www.w3.org/2000/svg" xmlns:xlink="http://www.w3.org/1999/xlink" width="191" height="231.276" viewBox="0 0 191 231.276"><defs><style>.a,.h{fill:none;}.b{isolation:isolate;}.c{fill:#d10000;}.d{fill:#b0b2b2;}.e{fill:#2d2d2c;}.f{fill:#6e7072;}.g,.q{fill:#991d1b;}.g{stroke:#fff;stroke-width:9.089px;}.g,.h{stroke-linejoin:round;}.h{stroke:#831412;stroke-width:4.545px;}.i{clip-path:url(#a);}.j{fill:#811310;}.k{fill:#841512;}.l{fill:#871614;}.m{fill:#8b1815;}.n{fill:#8e1917;}.o{fill:#921a19;}.p{fill:#951c1a;}.r{fill:#9c1e1d;}.s{fill:#a01f1e;}.t{fill:#a3201f;}.u{clip-path:url(#b);}.v{fill:#ac2322;}.w{fill:#831412;}.x{clip-path:url(#c);}.y{clip-path:url(#d);}.z{clip-path:url(#e);}.aa{fill:#fff;}.ab{fill:#ac2323;}.ac{fill:#a22;}.ad{clip-path:url(#f);}.ae{clip-path:url(#g);}.af{clip-path:url(#h);}.ag{clip-path:url(#i);}.ah{fill:#a62121;}</style><clipPath id="a"><path class="a" d="M587.489-125.228l-.024,8.554c0-.447-.365-.857-1.031-1.241-1.457-.842-3.093-.861-5.14.328a4.412,4.412,0,0,0-2.461,4.244l.024-8.553a4.415,4.415,0,0,1,2.461-4.244c2.047-1.189,3.683-1.17,5.14-.329C587.124-126.084,587.491-125.674,587.489-125.228Z"/></clipPath><clipPath id="b"><path class="a" d="M593.572-125.129l-.025,8.553c0,1.43-1.254,2.88-3.676,4.288l.024-8.553C592.317-122.249,593.568-123.7,593.572-125.129Z"/></clipPath><clipPath id="c"><path class="a" d="M572.548-118.821l-.024,8.553c0-1.1-.188-2.26-.184-3.446l.024-8.553C572.361-121.082,572.551-119.919,572.548-118.821Z"/></clipPath><clipPath id="d"><path class="a" d="M563.8-107.058l.025-8.553c0-.507.466-1.062,1.532-1.681l-.024,8.553C564.269-108.119,563.8-107.564,563.8-107.058Z"/></clipPath><clipPath id="e"><path class="a" d="M579.047-118.415l-.025,8.553c-.006,2.118-.635,4.306-4.093,6.315-4.625,2.688-9.582,2.872-14.054.291-2.157-1.246-3.208-2.556-3.2-3.88l.024-8.553c0,1.324,1.047,2.634,3.2,3.879,4.472,2.582,9.429,2.4,14.055-.29C578.411-114.109,579.041-116.3,579.047-118.415Z"/></clipPath><clipPath id="f"><path class="a" d="M634.27-98.183l-.024,8.553c0-.472-.385-.9-1.069-1.3-1.457-.842-3.16-.9-5.207.29l.025-8.553c2.046-1.19,3.749-1.132,5.206-.29C633.885-99.087,634.272-98.655,634.27-98.183Z"/></clipPath><clipPath id="g"><path class="a" d="M640.557-97.918l-.025,8.554c0,1.43-1.208,2.876-3.583,4.257l.024-8.553C639.348-95.041,640.553-96.487,640.557-97.918Z"/></clipPath><clipPath id="h"><path class="a" d="M610.814-79.861l.024-8.553c0-.519.483-1.087,1.566-1.717l-.024,8.553C611.3-80.948,610.816-80.38,610.814-79.861Z"/></clipPath><clipPath id="i"><path class="a" d="M604.526-80.137l.024-8.553c0,1.358,1.074,2.7,3.26,3.964a13.7,13.7,0,0,0,14.172-.222l-.025,8.553a13.7,13.7,0,0,1-14.171.222C605.6-77.435,604.522-78.779,604.526-80.137Z"/></clipPath></defs><g transform="translate(-513 -3901.921)"><g class="b" transform="translate(513.981 3947.479)"><path class="c" d="M115.465,17.616l-7.093-4.095L5.974,73.448c-8.918,5.183-8.871,13.617.106,18.8l123.892,70.781,7.047-4.1L13.127,88.152c-5.063-2.923-5.1-7.682-.059-10.609l102.4-59.927"/></g><g transform="translate(512.958 3857.396)"><g transform="translate(0.042 44.525)"><g class="b"><g transform="translate(0.045)"><path class="d" d="M75.84,20.152c10.465-6.136,27.615-6.179,38.237-.1l68.876,39.432c10.622,6.081,10.75,16.014.289,22.146L115.217,121.5c-10.465,6.136-27.615,6.179-38.237.1L8.1,82.168c-10.622-6.081-10.75-16.014-.289-22.146ZM179.718,61.383,110.842,21.95c-8.819-5.048-23.061-4.992-31.714.081L11.1,61.9c-8.688,5.09-8.581,13.323.238,18.37L80.216,119.7c8.79,5.031,23.031,5.009,31.719-.081l68.025-39.87c8.654-5.073,8.547-13.34-.242-18.37" transform="translate(-0.053 -15.521)"/></g><g transform="translate(4.648 2.674)"><path class="e" d="M75.607,19.986c8.654-5.073,22.895-5.128,31.714-.081L176.2,59.337c8.79,5.031,8.9,13.3.242,18.37l-68.025,39.87c-8.688,5.09-22.929,5.111-31.719.081L7.82,78.226C-1,73.179-1.106,64.946,7.582,59.856Z" transform="translate(-1.135 -16.15)"/></g><path class="f" d="M191.042,28.5c0,.259-.043.519-.068.778-.026.289-.047.578-.1.863-.043.23-.111.455-.17.68a8.08,8.08,0,0,1-.234.816c-.077.221-.179.434-.272.651-.123.285-.247.57-.4.85-.106.2-.234.4-.357.6-.2.319-.4.634-.638.944-.136.183-.281.366-.429.544a16.2,16.2,0,0,1-1.178,1.267c-.136.132-.259.264-.4.4-.264.234-.553.464-.838.689-.242.2-.476.4-.736.587-.31.225-.651.438-.978.655s-.625.425-.97.629l-68.025,39.87a29.468,29.468,0,0,1-3.759,1.8c-.353.14-.714.276-1.076.408-.821.3-1.684.54-2.551.782-.884.251-1.782.485-2.7.676-1.05.217-2.109.412-3.189.553-.3.038-.587.094-.884.123-1.493.162-3,.247-4.516.264-.247,0-.489,0-.736,0-1.5-.009-3-.089-4.486-.238l-.672-.077a42.993,42.993,0,0,1-4.371-.736c-.247-.055-.489-.119-.736-.179a37.715,37.715,0,0,1-3.7-1.114c-.251-.089-.515-.162-.765-.259a29.625,29.625,0,0,1-4.1-1.914L8.139,39.978c-4.031-2.3-6.553-5.167-7.556-8.169a9.589,9.589,0,0,1-.5-3.028L.042,43.827c-.009,4.061,2.679,8.122,8.054,11.2L76.972,94.456a29.128,29.128,0,0,0,3.81,1.82c.094.038.191.06.285.1.251.094.515.166.77.259.736.259,1.463.532,2.228.748.476.136.978.242,1.467.361.247.06.485.123.736.179.2.047.4.106.612.149.88.183,1.777.34,2.679.468.357.051.719.081,1.08.123.225.025.446.051.672.072.293.03.587.077.884.1.884.077,1.778.123,2.666.145.315.009.625,0,.936,0,.247,0,.489,0,.736,0,.37,0,.74.009,1.11,0,1-.034,2.007-.1,3-.2.136-.013.268-.043.4-.055.3-.034.587-.085.884-.123.727-.094,1.459-.174,2.173-.306.349-.06.672-.179,1.016-.251.923-.191,1.812-.421,2.7-.672.455-.132.948-.2,1.395-.349.4-.128.765-.3,1.152-.438.366-.132.723-.264,1.076-.408a28.643,28.643,0,0,0,3.759-1.8l68.025-39.87.255-.153c.255-.153.476-.319.719-.481.327-.213.668-.425.97-.646.268-.2.5-.4.748-.6.281-.225.57-.446.825-.68.043-.038.1-.077.14-.115.1-.094.17-.2.268-.289a15.255,15.255,0,0,0,1.169-1.259c.072-.089.17-.17.242-.259s.123-.191.2-.289c.23-.31.434-.621.629-.94.081-.128.187-.255.259-.383.043-.072.064-.149.1-.221a8.847,8.847,0,0,0,.4-.842c.072-.162.166-.319.225-.476.021-.06.03-.123.051-.183.1-.268.162-.54.234-.812.047-.179.115-.353.153-.532.009-.051.009-.1.017-.153.051-.285.072-.574.1-.867.017-.179.055-.357.064-.536l0-.238h0Z" transform="translate(-0.042 26.682)"/></g></g></g><g transform="translate(3.329 4190.978)"><path class="g" d="M630.421-63.47l1.982,1.144,28.852-16.767.025-8.553-2.035-1.175L657.21-90h0l-4.705,2.734.015-5.441h0L646.809-96l-2.425,1.41-3.843,2.233.016-5.56h0a.13.13,0,0,1-.007.033c0,.007-.005.015-.005.023a3.114,3.114,0,0,0-.777-2.041c-.021-.027-.058-.053-.081-.08a6.536,6.536,0,0,0-.932-.913,11.343,11.343,0,0,0-1.444-.974,14.549,14.549,0,0,0-1.708-.845,13.25,13.25,0,0,0-5.334-1.028,14.689,14.689,0,0,0-7.146,2.086l-14.992,8.712a13.486,13.486,0,0,0-1.343.9c-.089.068-.183.135-.268.2a7.617,7.617,0,0,0-.847.793c-.114.123-.214.246-.311.37a4.555,4.555,0,0,0-.321.49,3.39,3.39,0,0,0-.326.744c-.017.06-.032.12-.045.179a2.6,2.6,0,0,0-.015,1.113,2.713,2.713,0,0,1-.105-.533l-.024,8.554a2.709,2.709,0,0,0,.2,1.015,6.69,6.69,0,0,0,3.06,2.949,14.492,14.492,0,0,0,1.825.884c.034.013.067.035.1.048q.623.246,1.255.427c.053.015.106.025.159.039l.027.007h0c.074.02.149.036.223.055.185.046.368.1.553.136q.406.084.816.142c.068.009.136.014.2.023l.152.017c.135.015.27.034.4.045q.375.031.75.04c.158,0,.316,0,.474,0h.142c.055,0,.11,0,.166,0,.271-.01.543-.029.815-.055l.055,0c.179-.018.359-.051.538-.076.1-.013.192-.025.289-.04.077-.013.154-.019.231-.033.217-.039.432-.113.649-.163.11-.025.22-.045.33-.073l-.012,4.077h0l4.1,2.369,5.7-3.311-.018,6.588Zm9.995-33.785a2.842,2.842,0,0,1-.08.379c-.009.022-.021.044-.031.066A2.811,2.811,0,0,0,640.416-97.255Zm-.682,1.347c.054-.084.108-.169.166-.253-.078.113-.122.227-.214.34-.01.012-.022.023-.031.034C639.688-95.827,639.7-95.868,639.734-95.908Zm-.854.873c-.076.067-.131.135-.213.2l-.027.022C638.731-94.885,638.795-94.96,638.88-95.035ZM611.29-89.3l-.01.01c-.008.009-.021.018-.029.027l-.013.012h0c.022-.024.05-.049.075-.074h0Zm.23-.206-.005,0,.036-.031Zm.641-.466c-.154.1-.317.2-.442.291.13-.1.295-.2.456-.3Z"/><path class="g" d="M560.875-103.257a14.2,14.2,0,0,0,1.811.877c.032.013.063.034.1.046q.609.242,1.228.418l.056.014c.051.014.1.024.153.037.075.02.15.037.225.056.167.041.333.088.5.123.265.055.53.1.8.139l.028,0c.075.011.151.016.226.026l.153.017c.11.012.22.028.331.037q.363.03.727.039c.192,0,.385,0,.577,0h.183q.426-.015.853-.057c.2-.02.391-.055.587-.083L569.4-98.7l4.187,2.417,6.028-2.591,1.174.677-.007,2.446-.011,3.616h0l4.6,2.659,2.119-1.7-.009,2.922,12.076,6.971h0l4.126-2.4.024-8.553h0l-4.126,2.4-.149-.086h0l.144.083h0l4.126-2.4-.144-.083,17.33-10.071.024-8.544.008,0-4.572-2.639-6.779,3.942.022-7.844-6.683-3.858L593.55-117.4l.022-7.724c0,.032-.02.063-.021.1a2.952,2.952,0,0,0-.724-1.979c-.03-.038-.082-.075-.114-.113a6.2,6.2,0,0,0-.865-.853,10.987,10.987,0,0,0-1.341-.906c-.028-.016-.045-.033-.073-.049a13.605,13.605,0,0,0-3.405-1.407,12.918,12.918,0,0,0-7.055.2,16.59,16.59,0,0,0-3.511,1.547,12.524,12.524,0,0,0-1.277.851c-.127.1-.229.194-.345.29a8.62,8.62,0,0,0-.643.578c-.115.117-.214.234-.315.351a6.5,6.5,0,0,0-.417.528c-.088.126-.171.252-.246.379a5.5,5.5,0,0,0-.266.508c-.062.131-.125.262-.174.394-.062.163-.108.327-.153.491-.038.136-.083.273-.111.409s-.04.268-.059.4a8.616,8.616,0,0,0-.087,1.237v.018c0-.036-.006-.071-.006-.107v0l-.014,4.969a4.176,4.176,0,0,1-.27.722c-.015.031-.037.061-.054.093a3.884,3.884,0,0,1-.38.6c-.069.087-.162.17-.241.255a4.315,4.315,0,0,1-.408.417,6.359,6.359,0,0,1-.9.629l-.019.013c-.045.027-.084.034-.128.059a7.4,7.4,0,0,1-1.276.576,5.1,5.1,0,0,1-1.269.238l.013-4.8-4.321-2.5-1.763,1.025a13.665,13.665,0,0,0-1.346.893c-.091.068-.187.135-.273.2a7.937,7.937,0,0,0-.858.787c-.117.123-.218.246-.317.369a4.5,4.5,0,0,0-.325.478,3.383,3.383,0,0,0-.344.743c-.02.064-.037.128-.052.192a2.522,2.522,0,0,0-.03,1.1v0a2.611,2.611,0,0,1-.1-.5l-.024,8.553h0a3.083,3.083,0,0,0,.792,1.969A8.742,8.742,0,0,0,560.875-103.257Zm32.513-21.068c.012-.035.021-.07.031-.106a2.843,2.843,0,0,1-.073.334v0c-.013.031-.03.062-.044.093l-.007.011,0,.006A1.653,1.653,0,0,0,593.388-124.325Zm-.637,1.164c.048-.062.085-.125.129-.187-.072.1-.112.2-.2.3-.016.02-.039.04-.056.06A1.706,1.706,0,0,0,592.751-123.161Zm-.923.942c-.057.051-.1.1-.162.152-.011.009-.018.018-.029.027l-.035.028-.017.015C591.676-122.071,591.743-122.145,591.828-122.219Zm-11.368-3.318c-.027.022-.053.045-.079.068l-.027.024-.016.012a.2.2,0,0,0-.032.023C580.355-125.453,580.409-125.5,580.46-125.537Zm-.754.764h0l-.008.013c-.009.012-.022.024-.031.036C579.679-124.74,579.694-124.756,579.706-124.773Zm-.437.735c-.007.016-.012.032-.019.047l-.008.018c-.01.024-.023.048-.033.072C579.228-123.947,579.248-123.992,579.269-124.038Zm-.232,9.141c.024-.087.043-.175.073-.261s.07-.174.108-.261c.01-.024.022-.047.033-.071.031-.067.058-.136.094-.2s.082-.136.124-.2c.014-.021.026-.043.04-.065.038-.06.079-.12.12-.179.016-.022.028-.045.044-.067.059-.077.129-.152.2-.228.048-.055.1-.11.153-.164s.078-.088.123-.131.124-.108.186-.162c.084-.073.2-.141.289-.212a5.6,5.6,0,0,1,.51-.373c.058-.036.1-.074.165-.11a7.636,7.636,0,0,1,1.478-.674,4.873,4.873,0,0,1,.942-.18c.117-.016.245-.064.36-.07h.019a1.331,1.331,0,0,1,.156.016c.148,0,.287.031.431.045l-.012,4.2.583.337-6.225,2.618ZM579-123.25l0,.016,0,.008c-.006.025-.016.048-.021.073C578.985-123.186,579-123.218,579-123.25Zm-.243,6.864c.005-.019.012-.038.017-.057-.041.147-.07.295-.124.442-.007.016-.015.033-.023.049a.345.345,0,0,1-.016.034C578.676-116.074,578.717-116.23,578.761-116.386Zm-.282.765c-.023.052-.049.1-.071.154-.044.089-.074.177-.124.265-.018.034-.047.067-.067.1s-.032.046-.046.07A5.467,5.467,0,0,0,578.479-115.621Zm-.528.921,0,0v0l-.041.06c-.052.072-.089.145-.146.218-.035.044-.083.087-.119.13-.008.009-.017.018-.025.028-.027.032-.062.063-.09.1A6.688,6.688,0,0,0,577.951-114.7Zm-.795.937c-.057.057-.1.115-.159.172-.13.122-.289.242-.435.362C576.776-113.406,576.977-113.584,577.156-113.763Zm-.933.817c-.031.024-.053.048-.085.072l-.011.009c-.025.018-.057.036-.082.054a12.819,12.819,0,0,1-1.091.711A12.312,12.312,0,0,0,576.223-112.946Zm-11.117-4.18.023-.016-.008.006c-.153.1-.315.195-.44.289C564.8-116.938,564.956-117.032,565.106-117.126Zm-.593.428.005-.005h0l-.026.023,0,0Zm-.235.208-.023.025c-.012.013-.031.027-.044.04.02-.021.046-.043.067-.064Z"/><path class="h" d="M560.875-103.256a14.378,14.378,0,0,0,1.81.876c.032.013.063.034.1.046q.609.242,1.228.418c.069.02.139.032.208.051s.151.037.227.056c.167.041.333.089.5.123.265.055.53.1.8.139.084.012.169.018.253.028l.156.018c.109.012.219.028.329.037q.363.03.727.039c.192,0,.384,0,.576,0h.184q.426-.015.853-.057c.2-.02.391-.054.587-.083L569.4-98.7l4.187,2.417,6.028-2.591,1.174.677-.017,6.062,4.6,2.659,2.119-1.7-.009,2.922,12.076,6.971,4.126-2.4.024-8.553-4.126,2.4-.149-.086h0l.144.083,4.126-2.4-.144-.083,17.33-10.071.024-8.544.008,0-4.572-2.639-6.78,3.942.023-7.844-6.683-3.858L593.55-117.4l.022-7.724c0,.032-.02.064-.021.1.055-1.333-.952-2.65-3.117-3.9-4.438-2.563-9.345-2.35-13.971.338-3.526,2.049-4.108,4.282-4.093,6.438,0-.037-.006-.072-.006-.109l-.014,4.969a4.421,4.421,0,0,1-2.268,2.732,5.919,5.919,0,0,1-2.673.873l.013-4.8-4.321-2.5-1.763,1.025c-2.681,1.558-3.86,3.177-3.545,4.768a2.636,2.636,0,0,1-.1-.5l-.024,8.553C557.667-105.812,558.718-104.5,560.875-103.256Zm20.254-14.222c.058-.035.1-.073.165-.109a7.629,7.629,0,0,1,1.477-.674,4.982,4.982,0,0,1,1.3-.25h.019a3.917,3.917,0,0,1,.587.061l-.012,4.2.583.337-6.225,2.618.011-3.6c.024-.087.043-.176.073-.261s.07-.174.107-.26.08-.184.128-.275.107-.179.164-.268.1-.166.165-.247.127-.15.192-.225c.088-.1.177-.2.279-.3.057-.055.123-.107.184-.16A5.983,5.983,0,0,1,581.129-117.478Zm10.507-4.561-.053.043c.1-.077.164-.153.252-.23C591.764-122.164,591.712-122.1,591.636-122.039ZM579.7-124.76c-.009.013-.022.025-.031.037.013-.017.028-.033.041-.05Zm-.455.787c-.011.026-.025.051-.035.076.02-.048.042-.1.064-.144C579.26-124.019,579.252-124,579.242-123.973Zm-.245.749c-.006.029-.018.057-.024.085.008-.039.023-.076.032-.114Zm-.129,1.042c0-.064,0-.129.008-.192C578.872-122.311,578.871-122.246,578.868-122.182ZM578.654-116c-.011.028-.028.056-.039.084.068-.175.114-.351.163-.526C578.737-116.3,578.708-116.148,578.654-116Zm-.369.8c-.032.057-.08.114-.114.171a5.852,5.852,0,0,0,.309-.59C578.416-115.482,578.362-115.341,578.285-115.2Zm-.339.51c-.065.092-.115.185-.187.277-.034.044-.083.088-.119.132s-.08.083-.116.124a6.8,6.8,0,0,0,.428-.542Zm-.949,1.1c-.131.122-.291.243-.438.365.215-.178.418-.358.6-.538C577.1-113.707,577.057-113.648,577-113.591Zm-11.876-3.545c-.154.1-.316.195-.44.289.127-.1.291-.2.449-.3Zm-.629.457,0,0,.03-.026Zm-.562.66.016-.036Zm29.415-8.073c-.013.031-.03.062-.044.093l-.011.017a2.815,2.815,0,0,0,.129-.45A2.7,2.7,0,0,1,593.345-124.092Zm-.464.743c-.072.1-.112.2-.2.3-.016.02-.039.041-.056.061C592.732-123.106,592.794-123.227,592.881-123.349Zm-5.413-1.931a.984.984,0,0,0-.237-.574A.984.984,0,0,1,587.468-125.28Zm-.292-.629a2.933,2.933,0,0,0-.718-.56A2.933,2.933,0,0,1,587.176-125.909Zm-6.716.372c-.037.03-.071.061-.106.092-.014.012-.035.024-.049.036C580.354-125.452,580.408-125.5,580.46-125.537Zm-4.236,12.591c-.036.027-.061.054-.1.081s-.057.036-.082.054a12.819,12.819,0,0,1-1.091.711A12.606,12.606,0,0,0,576.224-112.946Zm-3.769-7.586c.042.523.076,1.037.083,1.538C572.531-119.5,572.5-120.007,572.455-120.532Zm-8.176,4.042-.024.025c-.013.014-.034.029-.047.042C564.229-116.445,564.257-116.468,564.279-116.49Zm-.447.818,0,.019Zm-4.364,2.9a11.455,11.455,0,0,0,1.431.965A11.455,11.455,0,0,1,559.468-112.775Zm-.343-.33a6.339,6.339,0,0,1-.663-.656A6.339,6.339,0,0,0,559.125-113.105Zm-.906-1.056a3.5,3.5,0,0,1-.34-.6A3.537,3.537,0,0,0,558.219-114.161Z"/><path class="h" d="M632.4-62.326l28.852-16.767.024-8.553L657.21-90l-4.705,2.734.015-5.441L646.809-96l-6.268,3.643.016-5.56c0,.019-.012.038-.012.056.034-1.374-1.028-2.735-3.234-4.008a13.708,13.708,0,0,0-14.188.213l-14.992,8.712c-2.669,1.551-3.808,3.185-3.476,4.788a2.786,2.786,0,0,1-.105-.534l-.024,8.554c0,1.358,1.074,2.7,3.26,3.964a14.471,14.471,0,0,0,1.824.883c.035.014.067.036.1.049q.623.246,1.255.427c.062.017.124.029.186.046s.148.036.223.054c.184.047.368.1.553.137q.406.084.816.142c.068.01.137.014.206.023l.149.017c.136.015.271.034.406.045q.375.031.75.04c.157,0,.315,0,.472,0h.146c.054,0,.109,0,.163,0,.29-.009.58-.029.87-.058.18-.018.36-.05.54-.076.095-.013.192-.024.287-.04.078-.013.155-.019.232-.033.217-.039.432-.113.649-.163.11-.025.22-.045.33-.073l-.012,4.077,4.1,2.369,5.7-3.311-.018,6.589Zm6.264-32.507-.027.022c.091-.074.155-.149.24-.224C638.8-94.968,638.749-94.9,638.667-94.833Zm-26.506,4.861c-.154.1-.317.2-.442.291.13-.1.295-.2.456-.3Zm-.641.467-.006,0,.04-.034C611.541-89.526,611.532-89.516,611.52-89.5Zm-.566.652.014-.03Zm29.382-8.023c-.009.022-.021.044-.031.066a2.92,2.92,0,0,0,.112-.447A2.727,2.727,0,0,1,640.336-96.876Zm-.436.715c-.078.114-.122.227-.214.341l-.032.033A4.286,4.286,0,0,0,639.9-96.161Zm-5.648-2.068A1.043,1.043,0,0,0,634-98.85,1.046,1.046,0,0,1,634.252-98.229Zm-.3-.66a2.972,2.972,0,0,0-.756-.593A2.972,2.972,0,0,1,633.957-98.889Zm-22.643,9.563c-.012.012-.023.025-.034.037s-.031.026-.043.038C611.26-89.276,611.289-89.3,611.314-89.326Zm-.468.823,0,.027Zm-6.1.786a3.807,3.807,0,0,0,.354.612A3.807,3.807,0,0,1,604.742-87.717Zm.6,1.017a6.6,6.6,0,0,0,.677.666A6.6,6.6,0,0,1,605.342-86.7Zm1.022,1a11.551,11.551,0,0,0,1.446.974A11.551,11.551,0,0,1,606.364-85.7Z"/><g class="b"><g class="b"><g class="i"><g class="b"><path class="j" d="M587.489-125.228l-.024,8.553c0-.446-.365-.856-1.031-1.24a4.61,4.61,0,0,0-.641-.311l.024-8.554a4.847,4.847,0,0,1,.641.311c.666.385,1.033.795,1.031,1.241"/><path class="k" d="M585.817-126.78l-.024,8.554c-.129-.051-.26-.1-.392-.134l.024-8.553c.133.038.263.083.392.133"/><path class="l" d="M585.425-126.913l-.024,8.553c-.1-.028-.2-.052-.3-.073l.024-8.553c.1.021.2.045.3.073"/><path class="m" d="M585.129-126.986l-.024,8.553c-.083-.017-.168-.032-.252-.044l.024-8.553c.085.012.169.027.252.044"/><path class="n" d="M584.877-127.03l-.024,8.553c-.078-.011-.157-.02-.236-.026l.025-8.553c.079.006.157.015.235.026"/><path class="o" d="M584.642-127.056l-.025,8.553c-.077-.007-.156-.011-.235-.013l.025-8.553c.079,0,.157.006.235.013"/><path class="p" d="M584.407-127.069l-.025,8.553c-.082,0-.165,0-.249,0l.024-8.553c.084,0,.167,0,.25,0"/><path class="q" d="M584.157-127.068l-.024,8.553c-.093,0-.188.01-.283.02l.024-8.554c.095-.009.19-.015.283-.019"/><path class="r" d="M583.874-127.049l-.024,8.554c-.123.012-.248.029-.375.052L583.5-127c.126-.023.251-.04.374-.053"/><path class="s" d="M583.5-127l-.025,8.553a5.488,5.488,0,0,0-.687.174l.024-8.553A5.549,5.549,0,0,1,583.5-127"/><path class="t" d="M582.812-126.822l-.024,8.553a7.687,7.687,0,0,0-1.494.682l-.083.049.024-8.553.083-.049a7.713,7.713,0,0,1,1.494-.682"/><path class="s" d="M581.235-126.091l-.024,8.553a6.125,6.125,0,0,0-.992.727l.025-8.553a6.069,6.069,0,0,1,.991-.727"/><path class="r" d="M580.244-125.364l-.025,8.553a4.553,4.553,0,0,0-.5.534l.024-8.553a4.407,4.407,0,0,1,.5-.534"/><path class="q" d="M579.745-124.83l-.024,8.553a3.911,3.911,0,0,0-.339.5l.024-8.553a3.91,3.91,0,0,1,.339-.505"/><path class="p" d="M579.406-124.325l-.024,8.553a3.759,3.759,0,0,0-.251.541l.024-8.553a3.82,3.82,0,0,1,.251-.541"/><path class="o" d="M579.155-123.784l-.024,8.553a4.272,4.272,0,0,0-.189.669l.024-8.553a4.265,4.265,0,0,1,.189-.669"/><path class="n" d="M578.966-123.115l-.024,8.553a6.052,6.052,0,0,0-.107,1.031l.025-8.553a5.954,5.954,0,0,1,.106-1.031"/><path class="m" d="M578.86-122.084l-.025,8.553c0,.062,0,.125,0,.188l.024-8.553c0-.063,0-.126,0-.188"/></g></g></g><g class="b"><g class="u"><g class="b"><path class="m" d="M593.572-125.129l-.025,8.553v.064l.025-8.553v-.064"/><path class="n" d="M593.571-125.065l-.025,8.553a2.488,2.488,0,0,1-.049.427l.025-8.553a2.582,2.582,0,0,0,.049-.427"/><path class="o" d="M593.522-124.638l-.025,8.553a2.792,2.792,0,0,1-.126.44l.024-8.553a2.912,2.912,0,0,0,.127-.44"/><path class="p" d="M593.4-124.2l-.024,8.553a3.462,3.462,0,0,1-.225.476l.025-8.553a3.578,3.578,0,0,0,.224-.476"/><path class="q" d="M593.171-123.722l-.025,8.553a4.437,4.437,0,0,1-.384.568l.024-8.553a4.416,4.416,0,0,0,.385-.568"/><path class="r" d="M592.786-123.154l-.024,8.553a6.46,6.46,0,0,1-.694.742l.025-8.553a6.451,6.451,0,0,0,.693-.742"/><path class="s" d="M592.093-122.412l-.025,8.553a11.945,11.945,0,0,1-1.947,1.423l.024-8.553a12.061,12.061,0,0,0,1.948-1.423"/><path class="t" d="M590.145-120.989l-.024,8.553c-.082.05-.165.1-.25.148l.024-8.553c.085-.049.168-.1.25-.148"/></g></g></g><path class="v" d="M589.9-120.841l-.024,8.553-.9.522.024-8.553Z"/><path class="w" d="M589-120.319l-.024,8.553-4.3-2.485.024-8.553Z"/><g class="b"><g class="x"><g class="b"><path class="j" d="M572.548-118.821l-.024,8.553c0-1.1-.188-2.26-.184-3.446l.024-8.553c0,1.185.187,2.348.184,3.446"/></g></g></g><path class="v" d="M567.422-118.491l-.024,8.553-2.063,1.2.024-8.553Z"/><g class="b"><g class="y"><g class="b"><path class="t" d="M565.359-117.292l-.024,8.553-.122.072.024-8.553.122-.072"/><path class="s" d="M565.237-117.22l-.024,8.553a5.253,5.253,0,0,0-.86.625l.024-8.553a5.3,5.3,0,0,1,.86-.625"/><path class="r" d="M564.377-116.6l-.024,8.553a2.6,2.6,0,0,0-.269.287l.025-8.553a2.487,2.487,0,0,1,.268-.287"/><path class="q" d="M564.109-116.308l-.025,8.553a1.551,1.551,0,0,0-.14.208l.024-8.553a1.463,1.463,0,0,1,.141-.208"/><path class="p" d="M563.968-116.1l-.024,8.553a1.132,1.132,0,0,0-.08.17l.024-8.554a1.118,1.118,0,0,1,.08-.169"/><path class="o" d="M563.888-115.931l-.024,8.554a.9.9,0,0,0-.044.152l.024-8.553a1.048,1.048,0,0,1,.044-.153"/><path class="n" d="M563.844-115.778l-.024,8.553a.82.82,0,0,0-.017.146l.024-8.554a.8.8,0,0,1,.017-.145"/><path class="m" d="M563.827-115.633l-.024,8.554v.021l.025-8.553v-.022"/></g></g></g><g class="b"><g class="z"><g class="b"><path class="m" d="M579.047-118.415l-.025,8.553c0,.087,0,.173,0,.26l.025-8.553c0-.087,0-.174,0-.26"/><path class="n" d="M579.043-118.155l-.025,8.553a7.429,7.429,0,0,1-.132,1.243l.024-8.553a7.542,7.542,0,0,0,.133-1.243"/><path class="o" d="M578.91-116.912l-.024,8.553a5.974,5.974,0,0,1-.261.926l.025-8.554a5.927,5.927,0,0,0,.26-.925"/><path class="p" d="M578.65-115.987l-.025,8.554a5.582,5.582,0,0,1-.373.8l.025-8.553a5.708,5.708,0,0,0,.373-.8"/><path class="q" d="M578.277-115.185l-.025,8.553a6.182,6.182,0,0,1-.523.78l.024-8.553a6.186,6.186,0,0,0,.524-.78"/><path class="r" d="M577.753-114.4l-.024,8.553a7.4,7.4,0,0,1-.8.859l.025-8.553a7.473,7.473,0,0,0,.8-.859"/><path class="s" d="M576.955-113.546l-.025,8.553a10.931,10.931,0,0,1-1.827,1.344l.024-8.553a10.986,10.986,0,0,0,1.828-1.344"/><path class="t" d="M575.127-112.2l-.024,8.553-.174.1a16.508,16.508,0,0,1-3.2,1.444l.024-8.554a16.476,16.476,0,0,0,3.2-1.443l.173-.1"/><path class="s" d="M571.753-110.657l-.024,8.554a14.44,14.44,0,0,1-1.858.469l.024-8.553a14.206,14.206,0,0,0,1.858-.47"/><path class="r" d="M569.9-110.187l-.024,8.553q-.526.095-1.052.148l.024-8.554q.526-.052,1.052-.147"/><path class="q" d="M568.843-110.04l-.024,8.554q-.427.042-.853.057l.024-8.553c.284-.01.569-.029.853-.058"/><path class="p" d="M567.99-109.982l-.024,8.553c-.253.009-.507.01-.76,0l.025-8.553q.379.009.759,0"/><path class="o" d="M567.231-109.978l-.025,8.553q-.364-.009-.727-.039l.024-8.553q.363.028.728.039"/><path class="n" d="M566.5-110.017l-.024,8.553c-.247-.021-.493-.048-.738-.083l.024-8.553c.245.035.491.062.738.083"/><path class="m" d="M565.765-110.1l-.024,8.553c-.267-.038-.532-.084-.8-.139l.024-8.553q.4.083.8.139"/><path class="l" d="M564.968-110.239l-.024,8.553c-.313-.065-.625-.141-.935-.23l.024-8.553q.465.132.935.23"/><path class="k" d="M564.033-110.469l-.024,8.553q-.618-.177-1.228-.418l.024-8.553q.61.242,1.228.418"/><path class="j" d="M562.8-110.887l-.024,8.553a14.3,14.3,0,0,1-1.906-.922c-2.157-1.246-3.208-2.556-3.2-3.88l.024-8.553c0,1.324,1.047,2.634,3.2,3.879a14.368,14.368,0,0,0,1.906.923"/></g></g></g><path class="aa" d="M590.434-128.934c4.438,2.562,4.087,5.405-.539,8.093l-.9.522-4.3-2.485,1.2-.7c2.047-1.189,2.008-2.137.568-2.969-1.457-.841-3.093-.86-5.14.329-5.94,3.452,1.872,9.254-6.364,14.04-4.626,2.688-9.583,2.872-14.055.29-4.488-2.591-4.187-5.463.439-8.151l1.763-1.025,4.321,2.5-2.063,1.2c-2.063,1.2-1.874,2.156-.434,2.988,1.457.841,3.094.938,5.157-.261,5.94-3.452-1.855-9.244,6.381-14.031C581.089-131.284,586-131.5,590.434-128.934Z"/></g><g class="b"><path class="ab" d="M600.92-116.577l-.024,8.553L584.11-100.81l.024-8.553Z"/><path class="ab" d="M579.638-107.43l-.024,8.553-6.029,2.591.024-8.553Z"/><path class="w" d="M573.609-104.838l-.024,8.553L569.4-98.7l.024-8.553Z"/><path class="w" d="M585.248-104.19l-.024,8.553-5.611-3.239.024-8.553Z"/><path class="aa" d="M609.6-117.486,585.4-98.031l-4.6-2.659,4.454-3.5-5.611-3.24-6.028,2.592-4.187-2.417,33.491-14.089Zm-25.462,8.123,4.388,2.533,12.4-9.747-16.786,7.214"/><path class="ac" d="M609.6-117.486l-.024,8.553-24.2,19.455.024-8.553Z"/><path class="w" d="M585.4-98.031l-.024,8.553-4.606-2.659.024-8.553Z"/></g><g class="b"><path class="v" d="M620.917-110.949l-.024,8.553L596.167-88.027l.024-8.553Z"/><path class="aa" d="M620.926-110.945,596.2-96.573l7.5,4.33-4.126,2.4-12.076-6.969,28.848-16.771Z"/><path class="v" d="M603.711-92.239l-.024,8.553-4.126,2.4.024-8.553Z"/><path class="w" d="M599.585-89.841l-.024,8.553-12.075-6.972.024-8.553Z"/></g><g class="b"><g class="b"><g class="ad"><g class="b"><path class="j" d="M634.27-98.183l-.024,8.553c0-.472-.385-.9-1.069-1.3a4.844,4.844,0,0,0-.653-.317l.024-8.553a4.844,4.844,0,0,1,.653.317c.684.394,1.071.826,1.069,1.3"/><path class="k" d="M632.548-99.8l-.024,8.553c-.133-.052-.269-.1-.406-.138l.024-8.553c.138.039.273.086.406.138"/><path class="l" d="M632.142-99.936l-.024,8.553c-.1-.029-.206-.055-.31-.076l.024-8.553c.1.021.208.047.31.076"/><path class="m" d="M631.832-100.012l-.024,8.553c-.088-.018-.176-.034-.264-.046l.024-8.553c.089.012.177.028.264.046"/><path class="n" d="M631.568-100.058l-.024,8.553c-.082-.012-.164-.021-.247-.028l.024-8.553c.083.007.165.016.247.028"/><path class="o" d="M631.321-100.086l-.024,8.553c-.081-.006-.163-.011-.245-.013l.024-8.553c.083,0,.164.006.245.013"/><path class="p" d="M631.076-100.1l-.024,8.553c-.086,0-.172,0-.259,0l.024-8.553c.087,0,.174,0,.259,0"/><path class="q" d="M630.817-100.1l-.024,8.553c-.1,0-.2.01-.3.02l.024-8.553c.1-.01.2-.016.3-.02"/><path class="r" d="M630.519-100.078l-.024,8.553c-.127.013-.256.031-.386.055l.025-8.553c.13-.024.258-.042.385-.055"/><path class="s" d="M630.134-100.023l-.025,8.553a5.3,5.3,0,0,0-.7.176l.025-8.553a5.26,5.26,0,0,1,.7-.176"/><path class="t" d="M629.438-99.847l-.025,8.553a7.378,7.378,0,0,0-1.443.656l.025-8.553a7.293,7.293,0,0,1,1.443-.656"/></g></g></g><g class="b"><g class="ae"><g class="b"><path class="m" d="M640.557-97.918l-.025,8.554v.066l.025-8.553v-.067"/><path class="n" d="M640.556-97.851l-.025,8.553a2.652,2.652,0,0,1-.05.441l.024-8.553a2.761,2.761,0,0,0,.051-.441"/><path class="o" d="M640.505-97.41l-.024,8.553a2.918,2.918,0,0,1-.13.451l.024-8.553a2.837,2.837,0,0,0,.13-.451"/><path class="p" d="M640.375-96.959l-.024,8.553a3.4,3.4,0,0,1-.231.491l.024-8.553a3.389,3.389,0,0,0,.231-.491"/><path class="q" d="M640.144-96.468l-.024,8.553a4.547,4.547,0,0,1-.386.57l.024-8.553a4.437,4.437,0,0,0,.386-.57"/><path class="r" d="M639.758-95.9l-.024,8.553a6.359,6.359,0,0,1-.693.74l.025-8.553a6.433,6.433,0,0,0,.692-.74"/><path class="s" d="M639.066-95.158l-.025,8.553a11.5,11.5,0,0,1-1.861,1.361L637.2-93.8a11.51,11.51,0,0,0,1.862-1.361"/><path class="t" d="M637.2-93.8l-.024,8.553-.231.137.024-8.553c.079-.046.156-.091.231-.137"/></g></g></g><path class="v" d="M627.995-99.191l-.024,8.553-15.591,9.06.024-8.553Z"/><g class="b"><g class="af"><g class="b"><path class="t" d="M612.4-90.131l-.024,8.553-.126.074.025-8.553c.04-.025.082-.049.125-.074"/><path class="s" d="M612.279-90.057l-.025,8.553a5.451,5.451,0,0,0-.876.637l.025-8.554a5.451,5.451,0,0,1,.876-.636"/><path class="r" d="M611.4-89.421l-.025,8.554a2.659,2.659,0,0,0-.277.3l.024-8.553a2.674,2.674,0,0,1,.278-.3"/><path class="q" d="M611.125-89.124l-.024,8.553a1.65,1.65,0,0,0-.142.21l.024-8.553a1.767,1.767,0,0,1,.142-.21"/><path class="p" d="M610.983-88.914l-.024,8.553a1.237,1.237,0,0,0-.082.174l.024-8.553a1.238,1.238,0,0,1,.082-.174"/><path class="o" d="M610.9-88.74l-.024,8.553a.971.971,0,0,0-.045.156l.024-8.553a.942.942,0,0,1,.045-.156"/><path class="n" d="M610.856-88.584l-.024,8.553a.85.85,0,0,0-.018.149l.025-8.554a.842.842,0,0,1,.017-.148"/><path class="m" d="M610.839-88.436l-.025,8.554v.021l.024-8.553v-.022"/></g></g></g><path class="v" d="M636.973-93.66l-.024,8.553L621.957-76.4l.024-8.553Z"/><g class="b"><g class="ag"><g class="b"><path class="t" d="M621.982-84.948l-.025,8.553a16.024,16.024,0,0,1-3.115,1.4l.024-8.553a16.061,16.061,0,0,0,3.116-1.4"/><path class="s" d="M618.866-83.546l-.024,8.553a14.472,14.472,0,0,1-1.876.473l.024-8.554a14.229,14.229,0,0,0,1.876-.472"/><path class="r" d="M616.99-83.074l-.024,8.554c-.353.063-.706.113-1.059.148l.025-8.553q.529-.054,1.058-.149"/><path class="q" d="M615.932-82.925l-.025,8.553q-.435.043-.869.059l.024-8.554q.435-.015.87-.058"/><path class="p" d="M615.062-82.867l-.024,8.554q-.392.014-.782,0l.025-8.553c.26.007.52,0,.781,0"/><path class="o" d="M614.281-82.863l-.025,8.553q-.375-.009-.75-.04l.025-8.553q.374.031.75.04"/><path class="n" d="M613.531-82.9l-.025,8.553q-.381-.032-.761-.085l.025-8.553c.253.036.506.064.761.085"/><path class="m" d="M612.77-82.988l-.025,8.553q-.41-.059-.816-.142l.025-8.553q.406.084.816.142"/><path class="l" d="M611.954-83.13l-.025,8.553q-.483-.1-.962-.237l.024-8.553q.478.136.963.237"/><path class="k" d="M610.991-83.367l-.024,8.553q-.633-.181-1.255-.427l.024-8.553q.622.246,1.255.427"/><path class="j" d="M609.736-83.794l-.024,8.553a14.366,14.366,0,0,1-1.926-.932c-2.186-1.262-3.264-2.606-3.26-3.964l.024-8.553c0,1.358,1.074,2.7,3.26,3.964a14.364,14.364,0,0,0,1.926.932"/></g></g></g><path class="aa" d="M637.311-101.87c4.472,2.582,4.288,5.521-.338,8.21l-14.991,8.712a13.7,13.7,0,0,1-14.172.222c-4.488-2.591-4.3-5.531.321-8.219l14.992-8.712A13.708,13.708,0,0,1,637.311-101.87ZM617.127-87.4l15.59-9.061c2.047-1.189,1.925-2.185.484-3.016-1.457-.842-3.16-.9-5.206.29L612.4-90.131c-2.063,1.2-1.941,2.176-.484,3.017a4.881,4.881,0,0,0,5.207-.29"/></g><g class="b"><path class="v" d="M642.959-89.009l-.024,8.553-20.9,12.145.024-8.553Z"/><path class="ah" d="M652.52-92.7,652.5-84.15,639.931-71.415l.024-8.553Z"/><path class="w" d="M622.061-76.865l-.024,8.553-4.1-2.369.024-8.553Z"/><path class="aa" d="M661.279-87.646,632.427-70.879l-4.689-2.707,15.221-15.423-20.9,12.145-4.1-2.369L646.809-96l5.711,3.3L639.955-79.969,657.21-90Z"/><path class="v" d="M661.279-87.646l-.024,8.553L632.4-62.326l.024-8.553Z"/><path class="w" d="M632.427-70.879l-.024,8.553-4.689-2.707.024-8.553Z"/></g></g></g></svg>