<svg xmlns="http://www.w3.org/2000/svg" xmlns:xlink="http://www.w3.org/1999/xlink" width="195.325" height="238.759" viewBox="0 0 195.325 238.759"><defs><style>.a,.h{fill:none;}.b{isolation:isolate;}.c{fill:#521168;}.d{fill:#b0b2b2;}.e{fill:#2d2d2c;}.f{fill:#6e7072;}.g,.j{fill:#490c5a;}.g{stroke:#fff;stroke-width:9.531px;}.g,.h{stroke-linejoin:round;}.h{stroke:#490c5a;stroke-width:4.765px;}.i{clip-path:url(#a);}.k{fill:#4b0e5c;}.l{fill:#4d115f;}.m{fill:#4f1361;}.n{fill:#511463;}.o{fill:#531666;}.p{fill:#551868;}.q{fill:#571a6a;}.r{fill:#591c6d;}.s{fill:#5b1d70;}.t{fill:#5d1f72;}.u{clip-path:url(#b);}.v{fill:#622378;}.w{fill:#4a0e5c;}.x{clip-path:url(#c);}.y{clip-path:url(#d);}.z{clip-path:url(#e);}.aa{fill:#fff;}.ab{clip-path:url(#f);}.ac{clip-path:url(#g);}.ad{clip-path:url(#h);}.ae{clip-path:url(#i);}.af{clip-path:url(#j);}.ag{clip-path:url(#k);}.ah{clip-path:url(#l);}.ai{clip-path:url(#m);}.aj{clip-path:url(#n);}.ak{clip-path:url(#o);}.al{clip-path:url(#p);}</style><clipPath id="a"><path class="a" d="M393.5,592.263l-.025,8.969c0-.472-.387-.9-1.1-1.314-1.511-.872-3.226-.892-5.372.355a4.626,4.626,0,0,0-2.581,4.45l.025-8.969a4.627,4.627,0,0,1,2.581-4.45c2.146-1.247,3.862-1.227,5.372-.355C393.117,591.358,393.506,591.792,393.5,592.263Z"/></clipPath><clipPath id="b"><path class="a" d="M399.885,592.364l-.026,8.969c0,1.5-1.315,3.02-3.855,4.5l.026-8.969C398.57,595.384,399.881,593.864,399.885,592.364Z"/></clipPath><clipPath id="c"><path class="a" d="M377.839,598.978l-.025,8.969c0-1.151-.2-2.37-.193-3.613l.026-8.969C377.643,596.608,377.843,597.827,377.839,598.978Z"/></clipPath><clipPath id="d"><path class="a" d="M368.662,611.313l.026-8.969c0-.531.493-1.111,1.613-1.762l-.025,8.968C369.156,610.2,368.664,610.782,368.662,611.313Z"/></clipPath><clipPath id="e"><path class="a" d="M384.654,599.4l-.025,8.969c-.007,2.221-.667,4.515-4.292,6.622-4.851,2.819-10.048,3.012-14.755.294-2.251-1.3-3.349-2.669-3.345-4.054l.026-8.969c0,1.385,1.093,2.755,3.344,4.054,4.707,2.718,9.9,2.525,14.755-.294C383.987,603.919,384.648,601.625,384.654,599.4Z"/></clipPath><clipPath id="f"><path class="a" d="M409.947,602.121l-.026,8.969c0-.459-.408-.878-1.134-1.3l.026-8.968C409.538,601.243,409.948,601.662,409.947,602.121Z"/></clipPath><clipPath id="g"><path class="a" d="M416.561,602.4l-.025,8.968c0,1.461-1.286,2.93-3.776,4.377l.025-8.969C415.275,605.329,416.557,603.861,416.561,602.4Z"/></clipPath><clipPath id="h"><path class="a" d="M408.842,609.068l-.025,8.969c-4.834,2.808-9.821,2.981-14.6.223l.025-8.969C399.021,612.049,404.009,611.877,408.842,609.068Z"/></clipPath><clipPath id="i"><path class="a" d="M426.38,611.644l-.026,8.968c0-.458-.375-.893-1.129-1.328l.026-8.969C426,610.75,426.381,611.185,426.38,611.644Z"/></clipPath><clipPath id="j"><path class="a" d="M433.369,612.012l-.025,8.969c0,1.335-1.209,2.649-3.536,4l.026-8.969C432.161,614.661,433.365,613.347,433.369,612.012Z"/></clipPath><clipPath id="k"><path class="a" d="M428.752,616.642l-.025,8.969a12.462,12.462,0,0,1-9.2,1.764l.026-8.969A12.46,12.46,0,0,0,428.752,616.642Z"/></clipPath><clipPath id="l"><path class="a" d="M414.338,619.093l-.026,8.969c0-.582-.55-1.126-1.58-1.721l.025-8.969C413.787,617.967,414.339,618.512,414.338,619.093Z"/></clipPath><clipPath id="m"><path class="a" d="M420.223,620.16l-.025,8.969c0,1.4-1.309,2.748-3.577,4.066l.026-8.969C418.914,622.908,420.219,621.565,420.223,620.16Z"/></clipPath><clipPath id="n"><path class="a" d="M414.187,625.656l-.026,8.969a13.725,13.725,0,0,1-14.441-.01l.025-8.969A13.725,13.725,0,0,0,414.187,625.656Z"/></clipPath><clipPath id="o"><path class="a" d="M419.723,640.851l.025-8.969c0-.535.5-1.121,1.623-1.775l-.025,8.969C420.22,639.73,419.724,640.315,419.723,640.851Z"/></clipPath><clipPath id="p"><path class="a" d="M413.035,640.616l.025-8.969c0,1.388,1.094,2.762,3.354,4.067,4.689,2.707,9.9,2.5,14.737-.3l-.025,8.969c-4.833,2.808-10.049,3.011-14.738.3C414.129,643.378,413.031,642,413.035,640.616Z"/></clipPath></defs><g transform="translate(-1531.675 -1522.128)"><g transform="translate(1532.359 1584.479)"><g class="b"><path class="c" d="M115.465,17.616l-7.093-4.095L5.974,73.448c-8.918,5.183-8.871,13.617.106,18.8l123.892,70.781,7.047-4.1L13.127,88.152c-5.063-2.923-5.1-7.682-.059-10.609l102.4-59.927"/></g></g><g transform="translate(1535.958 1491.977)"><g transform="translate(0.042 30.151)"><g class="b"><g transform="translate(0.045)"><path class="d" d="M75.84,20.152c10.465-6.136,27.615-6.179,38.237-.1l68.876,39.432c10.622,6.081,10.75,16.014.289,22.146L115.217,121.5c-10.465,6.136-27.615,6.179-38.237.1L8.1,82.168c-10.622-6.081-10.75-16.014-.289-22.146ZM179.718,61.383,110.842,21.95c-8.819-5.048-23.061-4.992-31.714.081L11.1,61.9c-8.688,5.09-8.581,13.323.238,18.37L80.216,119.7c8.79,5.031,23.031,5.009,31.719-.081l68.025-39.87c8.654-5.073,8.547-13.34-.242-18.37" transform="translate(-0.053 -15.521)"/></g><g transform="translate(4.648 2.674)"><path class="e" d="M75.607,19.986c8.654-5.073,22.895-5.128,31.714-.081L176.2,59.337c8.79,5.031,8.9,13.3.242,18.37l-68.025,39.87c-8.688,5.09-22.929,5.111-31.719.081L7.82,78.226C-1,73.179-1.106,64.946,7.582,59.856Z" transform="translate(-1.135 -16.15)"/></g><path class="f" d="M191.042,28.5c0,.259-.043.519-.068.778-.026.289-.047.578-.1.863-.043.23-.111.455-.17.68a8.08,8.08,0,0,1-.234.816c-.077.221-.179.434-.272.651-.123.285-.247.57-.4.85-.106.2-.234.4-.357.6-.2.319-.4.634-.638.944-.136.183-.281.366-.429.544a16.2,16.2,0,0,1-1.178,1.267c-.136.132-.259.264-.4.4-.264.234-.553.464-.838.689-.242.2-.476.4-.736.587-.31.225-.651.438-.978.655s-.625.425-.97.629l-68.025,39.87a29.468,29.468,0,0,1-3.759,1.8c-.353.14-.714.276-1.076.408-.821.3-1.684.54-2.551.782-.884.251-1.782.485-2.7.676-1.05.217-2.109.412-3.189.553-.3.038-.587.094-.884.123-1.493.162-3,.247-4.516.264-.247,0-.489,0-.736,0-1.5-.009-3-.089-4.486-.238l-.672-.077a42.993,42.993,0,0,1-4.371-.736c-.247-.055-.489-.119-.736-.179a37.715,37.715,0,0,1-3.7-1.114c-.251-.089-.515-.162-.765-.259a29.625,29.625,0,0,1-4.1-1.914L8.139,39.978c-4.031-2.3-6.553-5.167-7.556-8.169a9.589,9.589,0,0,1-.5-3.028L.042,43.827c-.009,4.061,2.679,8.122,8.054,11.2L76.972,94.456a29.128,29.128,0,0,0,3.81,1.82c.094.038.191.06.285.1.251.094.515.166.77.259.736.259,1.463.532,2.228.748.476.136.978.242,1.467.361.247.06.485.123.736.179.2.047.4.106.612.149.88.183,1.777.34,2.679.468.357.051.719.081,1.08.123.225.025.446.051.672.072.293.03.587.077.884.1.884.077,1.778.123,2.666.145.315.009.625,0,.936,0,.247,0,.489,0,.736,0,.37,0,.74.009,1.11,0,1-.034,2.007-.1,3-.2.136-.013.268-.043.4-.055.3-.034.587-.085.884-.123.727-.094,1.459-.174,2.173-.306.349-.06.672-.179,1.016-.251.923-.191,1.812-.421,2.7-.672.455-.132.948-.2,1.395-.349.4-.128.765-.3,1.152-.438.366-.132.723-.264,1.076-.408a28.643,28.643,0,0,0,3.759-1.8l68.025-39.87.255-.153c.255-.153.476-.319.719-.481.327-.213.668-.425.97-.646.268-.2.5-.4.748-.6.281-.225.57-.446.825-.68.043-.038.1-.077.14-.115.1-.094.17-.2.268-.289a15.255,15.255,0,0,0,1.169-1.259c.072-.089.17-.17.242-.259s.123-.191.2-.289c.23-.31.434-.621.629-.94.081-.128.187-.255.259-.383.043-.072.064-.149.1-.221a8.847,8.847,0,0,0,.4-.842c.072-.162.166-.319.225-.476.021-.06.03-.123.051-.183.1-.268.162-.54.234-.812.047-.179.115-.353.153-.532.009-.051.009-.1.017-.153.051-.285.072-.574.1-.867.017-.179.055-.357.064-.536l0-.238h0Z" transform="translate(-0.042 26.682)"/></g></g></g><g transform="translate(1223.763 1109.52)"><path class="g" d="M449.651,619.41l-4.969,2.887.016-5.747-4.794-2.767-6.551,3.806.016-5.577a1.777,1.777,0,0,1-.113.5,2.246,2.246,0,0,0,.008-.969c-.011-.055-.022-.11-.037-.165a2.96,2.96,0,0,0-.313-.715,3.97,3.97,0,0,0-.32-.476c-.1-.123-.2-.248-.324-.372a7.97,7.97,0,0,0-.874-.789c-.09-.069-.191-.14-.287-.21a15.66,15.66,0,0,0-1.426-.932l-7.218-4.167-5.917,3.439,0-.939.011-3.815h0c0,.022-.013.043-.014.065h0a3.12,3.12,0,0,0-.815-2.084c-.026-.032-.07-.063-.1-.1a6.918,6.918,0,0,0-.975-.936,12.635,12.635,0,0,0-1.537-1.028l-7.042-4.066-6.211,3.61.016-5.5c0,.033-.021.067-.022.1a3.086,3.086,0,0,0-.759-2.075c-.032-.04-.086-.079-.12-.119a6.47,6.47,0,0,0-.907-.9,11.524,11.524,0,0,0-1.407-.951c-.029-.017-.046-.034-.075-.05a14.257,14.257,0,0,0-3.571-1.475,13.534,13.534,0,0,0-7.4.207,16.716,16.716,0,0,0-2.468,1c-.4.2-.811.385-1.213.618a13.079,13.079,0,0,0-1.34.894c-.133.1-.239.2-.361.3-.241.2-.474.4-.674.607-.12.122-.225.245-.331.368a6.919,6.919,0,0,0-.437.554c-.092.132-.179.264-.258.4a5.785,5.785,0,0,0-.279.533c-.064.137-.131.275-.183.413-.064.171-.113.343-.16.514-.04.143-.087.286-.116.43s-.042.281-.062.422a9.006,9.006,0,0,0-.091,1.3v.021c0-.039-.006-.075-.006-.114v0l-.015,5.21h0a4.321,4.321,0,0,1-.283.756c-.016.033-.039.065-.056.1a4.2,4.2,0,0,1-.4.633c-.074.093-.172.181-.257.272a4.637,4.637,0,0,1-.423.433,6.776,6.776,0,0,1-.96.674,7.617,7.617,0,0,1-1.472.665,5.349,5.349,0,0,1-1.331.25l.014-5.032-4.531-2.616h0l-1.849,1.075a14.44,14.44,0,0,0-1.413.937c-.1.071-.194.141-.284.212a8.374,8.374,0,0,0-.9.827c-.122.128-.227.257-.331.385a4.819,4.819,0,0,0-.342.5,3.562,3.562,0,0,0-.361.777c-.021.068-.04.135-.055.2a2.652,2.652,0,0,0-.033,1.155,2.74,2.74,0,0,1-.1-.515l-.026,8.968h0c0,1.385,1.094,2.754,3.345,4.054a15.069,15.069,0,0,0,1.909.925c.034.013.067.035.1.049q.642.254,1.292.439c.071.021.143.034.214.053s.156.038.234.058c.179.044.356.094.535.131q.417.087.837.146c.022,0,.045,0,.068.008l.192.022.16.017c.118.014.236.03.355.04q.381.031.763.041c.09,0,.179,0,.268,0,.11,0,.22,0,.33,0h.2c.154-.005.309-.02.463-.031s.287-.015.431-.029c.224-.023.449-.061.673-.095.087-.013.174-.022.26-.036.056-.01.113-.014.169-.024.232-.042.464-.121.7-.176l.08-.018-.011,4,4.777,2.758,11.375-6.611,2.266,1.308a16.125,16.125,0,0,0,1.731.863l-3.739,2.173-.025,8.969,7.534,4.349,0,0a16.689,16.689,0,0,0,2.033.985h0c.06.024.119.063.18.087q.681.269,1.365.463l.019,0,.048.012c.2.055.392.1.588.145.11.026.22.058.33.081.28.058.559.107.84.147l.018,0h0l.024,0h0c.24.033.48.061.721.081s.5.033.746.04c.087,0,.173,0,.259,0h.161c.115,0,.229,0,.343,0h.005q.421-.015.843-.057c.13-.013.259-.037.389-.054.1-.013.2-.027.3-.042.117-.018.235-.028.352-.05.22-.04.438-.115.658-.166.3-.069.6-.135.894-.225.082-.025.164-.036.245-.062.292-.095.582-.223.872-.338.18-.071.36-.13.539-.208s.365-.177.548-.266l-.007,2.531-.008,2.888a2.762,2.762,0,0,0,.17.866,6.5,6.5,0,0,0,3.183,3.2,15.094,15.094,0,0,0,1.894.917c.032.013.063.033.1.046.318.126.64.226.961.327.109.034.217.079.327.111l.1.025.126.031c.08.021.159.039.239.059.171.042.342.091.514.126.278.058.558.107.838.146.092.013.184.02.276.031l.163.019c.112.012.224.028.336.037q.383.031.766.041h0c.2.005.408,0,.612,0h.184q.448-.015.9-.06c.229-.023.458-.062.686-.1.085-.013.17-.022.255-.036.055-.009.11-.013.166-.024.231-.041.462-.121.693-.174.365-.085.73-.163,1.094-.277h0c.054-.017.109-.024.164-.041.339-.11.674-.257,1.011-.392.2-.077.39-.14.584-.226h0a18.481,18.481,0,0,0,1.75-.89l23.03-13.385.026-8.968Zm-80.559-17.918c.021-.023.05-.046.074-.07l-.026.027,0,0c-.013.013-.033.027-.045.041Zm.318-.285.008-.007,0,0-.031.028h0l0,0Zm.645-.465.005,0-.007.005h0c-.124.079-.25.158-.356.235-.034.023-.076.046-.106.069h0C369.721,600.949,369.891,600.845,370.055,600.742Zm45.785,3.489.025-.037c-.077.108-.121.217-.211.325l-.016.017-.022.023C415.709,604.449,415.761,604.34,415.84,604.231Zm4.362,26.751c-.012.012-.031.026-.043.038.022-.023.05-.048.074-.071l-.03.031Zm-1.893-7.882,0,0c-.057.045-.11.091-.166.136-.02.015-.036.03-.056.045s-.062.04-.09.059C418.105,623.262,418.206,623.181,418.309,623.1Zm2.142,7.658,0,0h0l.031-.027Zm.677-.493-.01.008c-.144.091-.293.182-.413.271.125-.09.269-.182.416-.274Zm-21.48-36.82v.007c-.014.032-.031.064-.046.1l0,.006-.008.012a2.921,2.921,0,0,0,.134-.469A2.71,2.71,0,0,1,399.648,593.445Zm33.462,19.613a2.555,2.555,0,0,1-.267.4,3.864,3.864,0,0,0,.268-.4Zm-.783,1.08c-.048.051-.118.1-.17.154-.073.067-.146.135-.225.2.132-.119.283-.239.4-.358Zm-15.916-11.055a2.786,2.786,0,0,1-.083.374c-.011.027-.026.054-.038.081.039-.086.038-.171.068-.257C416.372,603.215,416.393,603.149,416.411,603.083ZM414.8,605.34c-.024.02-.042.041-.066.061-.049.048-.1.1-.154.143l-.029.023-.008.007c.083-.066.146-.133.218-.2Zm-15.845-10.791c-.018.021-.041.042-.059.063.108-.126.173-.253.264-.38C399.085,594.338,399.042,594.443,398.955,594.549Zm-.89.858c-.074.066-.129.131-.209.2l-.056.046.006-.006C397.9,595.565,397.975,595.486,398.065,595.407Zm-9.505,4.158a5.208,5.208,0,0,1,1.363-.262l.021,0a4.291,4.291,0,0,1,.617.063v.117l-.011,3.8-5.719,3.324-.2.115.01-3.5v-.129c.026-.091.046-.184.078-.273s.063-.155.1-.232l.017-.041c.042-.1.083-.193.134-.288.022-.041.051-.081.075-.122s.063-.107.1-.16c.024-.037.05-.074.074-.111s.062-.1.1-.147c.06-.08.134-.158.2-.237.091-.1.185-.21.291-.312.06-.057.13-.112.194-.168.111-.1.257-.188.384-.282.149-.111.281-.226.455-.333.06-.037.109-.077.173-.114A8.039,8.039,0,0,1,388.56,599.565Zm-5.06,3.743c-.068.1-.12.194-.2.291-.036.046-.087.091-.125.138-.009.011-.021.021-.031.032-.027.033-.062.065-.09.1a7.043,7.043,0,0,0,.448-.567Zm-1.9,1.906-.012.009c-.023.018-.053.035-.078.053-.345.25-.72.5-1.142.744a12.89,12.89,0,0,0,1.321-.881C381.661,605.164,381.637,605.189,381.6,605.214Zm4.421-13.182c-.014.013-.036.025-.051.038.051-.045.107-.089.161-.133C386.1,591.968,386.062,592,386.025,592.032Zm-.679.705-.009.013c-.01.013-.023.026-.033.039l.041-.051Zm-.458.769-.014.035-.015.035c-.011.026-.025.052-.036.078h0C384.843,593.6,384.866,593.555,384.888,593.506Zm-.278.825-.007.028c-.007.028-.018.054-.023.082.008-.037.021-.073.03-.109Zm-.237,7.141c-.044.154-.074.309-.131.463-.007.019-.017.038-.026.057s-.01.021-.014.031a5.141,5.141,0,0,0,.152-.492C384.36,601.511,384.367,601.492,384.373,601.472Zm-.314.862c-.053.118-.1.235-.164.353-.015.028-.024.058-.04.086-.034.06-.083.119-.119.179A5.9,5.9,0,0,0,384.059,602.334Zm-1.555,2.129c-.136.128-.3.254-.458.382.226-.187.437-.375.626-.563C382.612,604.342,382.568,604.4,382.5,604.463Z"/><path class="h" d="M444.682,622.3l.016-5.746-4.794-2.768-6.551,3.806.016-5.577a2.387,2.387,0,0,1-.133.588c.408-1.528-.7-3.071-3.553-4.719l-7.218-4.167-5.917,3.439.013-4.754c0,.022-.013.043-.014.065.04-1.4-1.073-2.786-3.425-4.144l-7.042-4.066-6.211,3.61.016-5.5c0,.033-.021.067-.022.1.058-1.4-1-2.78-3.268-4.09-4.654-2.687-9.8-2.464-14.65.355-3.7,2.148-4.308,4.49-4.292,6.75,0-.038-.006-.075-.006-.114l-.015,5.21a4.636,4.636,0,0,1-2.378,2.866,6.213,6.213,0,0,1-2.8.915l.014-5.032-4.531-2.616-1.849,1.075c-2.813,1.634-4.049,3.332-3.721,5a2.749,2.749,0,0,1-.1-.516l-.026,8.969c0,1.385,1.094,2.754,3.345,4.054a14.984,14.984,0,0,0,1.908.924c.035.014.068.036.1.05q.642.254,1.292.439c.071.021.143.034.214.053s.156.038.235.058c.178.044.355.094.534.131q.417.087.837.146c.087.013.174.019.261.03l.158.017c.119.013.237.03.356.04q.381.031.763.041c.2.005.4,0,.6,0h.2q.447-.015.894-.06c.224-.023.449-.061.674-.095.086-.013.172-.022.259-.036.056-.01.112-.014.169-.024.233-.042.464-.122.7-.176l.079-.018-.011,4,4.777,2.758,11.375-6.611,2.266,1.308a16.048,16.048,0,0,0,1.732.863l-3.74,2.173-.025,8.969,7.534,4.35a16.563,16.563,0,0,0,2.038.988c.06.024.119.063.18.087q.681.269,1.365.463l.019,0,.05.013c.3.085.61.162.916.225.28.058.559.107.839.147l.019,0,.03,0c.24.033.48.061.721.081s.5.034.746.04c.087,0,.173,0,.259,0h.161c.116,0,.232,0,.348,0q.421-.015.843-.057c.13-.013.26-.037.389-.054.1-.013.2-.027.3-.042.118-.018.236-.028.353-.05.22-.04.437-.114.656-.165.3-.07.6-.136.9-.227.081-.024.163-.035.244-.061.29-.094.576-.221.864-.335.183-.072.367-.132.549-.212s.364-.176.546-.265l-.015,5.419c0,1.387,1.094,2.762,3.353,4.067a15.029,15.029,0,0,0,1.894.917c.032.013.063.033.1.046q.64.252,1.288.438c.075.021.152.036.227.056s.161.039.242.059c.171.042.34.091.511.126q.419.087.839.146c.092.013.184.02.276.031l.162.018c.113.013.225.029.337.038q.383.031.766.041c.2.005.409,0,.615,0h.184q.448-.015.9-.06c.229-.023.458-.062.687-.1.084-.013.169-.022.253-.036.056-.009.111-.013.167-.024.231-.041.461-.121.692-.174.366-.085.732-.163,1.1-.277.055-.017.109-.024.164-.041.337-.11.671-.256,1.007-.39.2-.078.393-.141.589-.228a18.015,18.015,0,0,0,1.75-.891l23.03-13.384.026-8.968-4.531-2.616ZM370.05,600.746c-.161.1-.331.205-.461.3.133-.1.305-.206.471-.31Zm-.666.484,0,0,.038-.033Zm-.586.682.016-.034C368.808,601.89,368.8,601.9,368.8,601.912Zm18.04-1.525c.06-.037.109-.077.173-.114a8.018,8.018,0,0,1,1.55-.708,5.193,5.193,0,0,1,1.362-.262l.021,0a4.17,4.17,0,0,1,.617.063l-.011,3.915-5.917,3.439.01-3.625c.026-.091.046-.184.078-.274s.073-.182.112-.272.083-.193.134-.288.112-.188.172-.282.109-.173.173-.258.133-.158.2-.236c.092-.106.186-.211.293-.313.059-.057.128-.112.192-.168A6.387,6.387,0,0,1,386.838,600.387Zm46.272,12.671a3.825,3.825,0,0,1-.357.531,3.961,3.961,0,0,0,.359-.534Zm-19.036,5.376a1.686,1.686,0,0,0-.122-.172A1.686,1.686,0,0,1,414.074,618.434Zm-.46-.473c-.056-.046-.1-.092-.16-.138C413.517,617.869,413.558,617.915,413.614,617.961Zm.631.739a.967.967,0,0,1,.044.188A.967.967,0,0,0,414.245,618.7Zm5.958,12.28c-.013.014-.034.029-.046.042.022-.024.052-.049.076-.073Zm-.448.825,0,.024Zm-1.671-8.522c-.027.02-.064.04-.091.06.111-.081.214-.162.317-.244l0,0C418.23,623.163,418.165,623.223,418.084,623.283Zm1.778,8.158c.006-.011.01-.022.016-.033Zm.589-.684,0,0,.037-.033Zm.206-.181c.134-.1.306-.206.472-.311l-.011.008C420.957,630.375,420.788,630.477,420.657,630.576Zm11.67-16.438c-.155.163-.354.328-.544.492.191-.165.39-.33.546-.494Zm-17.747-8.594-.037.03c.1-.078.168-.157.259-.236C414.723,605.407,414.664,605.475,414.58,605.544ZM397.856,595.6l-.056.046c.1-.082.175-.163.269-.245C397.993,595.471,397.938,595.537,397.856,595.6Zm-12.519-2.852c-.01.013-.024.026-.033.039.013-.018.029-.035.042-.053Zm-.478.825c-.011.027-.026.053-.037.08.021-.05.044-.1.067-.151C384.878,593.528,384.87,593.552,384.859,593.576Zm-.257.786c-.007.03-.019.059-.025.089.008-.041.024-.08.033-.12Zm-.135,1.092c0-.067,0-.135.008-.2C384.471,595.319,384.47,595.387,384.467,595.454Zm-.225,6.481c-.011.03-.029.059-.04.088.071-.183.119-.367.171-.551C384.329,601.626,384.3,601.781,384.242,601.935Zm-.387.838c-.034.06-.083.12-.119.18a6.339,6.339,0,0,0,.324-.619C383.993,602.48,383.937,602.627,383.855,602.773Zm-.355.535c-.068.1-.121.194-.2.291-.036.046-.087.092-.125.138s-.084.087-.122.13a7.018,7.018,0,0,0,.449-.568Zm-1,1.155c-.136.128-.3.255-.459.382.226-.187.439-.375.628-.564C382.613,604.341,382.568,604.4,382.5,604.463Zm48.777,10.6h0a14.977,14.977,0,0,1-1.447.951A15.163,15.163,0,0,0,431.281,615.062Zm-4.925-3.474a1.012,1.012,0,0,0-.246-.588A1.012,1.012,0,0,1,426.356,611.588Zm-.328-.671a3.239,3.239,0,0,0-.777-.6A3.239,3.239,0,0,1,426.028,610.917Zm-9.7-7.461c-.012.028-.027.055-.039.082a2.771,2.771,0,0,0,.121-.458A2.776,2.776,0,0,1,416.329,603.456Zm-.46.733c-.078.11-.123.22-.215.329-.011.014-.027.028-.038.041C415.721,604.436,415.781,604.313,415.869,604.189Zm-5.942-2.113a.985.985,0,0,0-.27-.607A.988.988,0,0,1,409.927,602.076Zm-.314-.648a3.451,3.451,0,0,0-.8-.6A3.451,3.451,0,0,1,409.613,601.428Zm-9.966-7.976c-.014.032-.031.064-.046.1l-.011.018a3.047,3.047,0,0,0,.135-.47A3.022,3.022,0,0,1,399.647,593.452Zm-.486.778c-.076.107-.118.213-.206.319-.018.021-.041.042-.06.063C399,594.485,399.07,594.358,399.161,594.23Zm-5.679-2.021a1.037,1.037,0,0,0-.252-.609A1.037,1.037,0,0,1,393.482,592.209Zm-.309-.665a3.1,3.1,0,0,0-.765-.6A3.1,3.1,0,0,1,393.173,591.544Zm-7.037.392c-.039.032-.074.064-.111.1-.015.012-.037.024-.051.037C386.025,592.025,386.082,591.981,386.136,591.936Zm-4.442,13.2c-.037.028-.064.057-.1.084s-.06.038-.086.057a13.3,13.3,0,0,1-1.145.746A12.984,12.984,0,0,0,381.694,605.139Zm-3.952-7.955c.044.549.08,1.087.088,1.613C377.822,598.27,377.786,597.734,377.742,597.184Zm-8.576,4.238-.025.027c-.014.014-.036.029-.049.044C369.113,601.469,369.143,601.445,369.166,601.422Zm-.473.854,0,.021Zm-6.239.959a3.778,3.778,0,0,0,.354.627A3.778,3.778,0,0,1,362.454,603.235Zm.609,1.046a6.534,6.534,0,0,0,.688.682A6.534,6.534,0,0,1,363.063,604.281Zm1.05,1.031a11.856,11.856,0,0,0,1.495,1.008A11.856,11.856,0,0,1,364.113,605.312Zm50.8,29.389a11.948,11.948,0,0,0,1.5,1.013A11.948,11.948,0,0,1,414.913,634.7Z"/><g class="b"><g class="b"><g class="i"><g class="b"><path class="j" d="M393.5,592.263l-.025,8.969c0-.472-.387-.9-1.1-1.314a5.116,5.116,0,0,0-.659-.32l.025-8.969a5.06,5.06,0,0,1,.659.32c.709.409,1.1.843,1.1,1.314"/><path class="k" d="M391.749,590.629l-.025,8.969c-.134-.053-.27-.1-.407-.138l.025-8.969c.137.039.273.085.407.138"/><path class="l" d="M391.342,590.491l-.025,8.969c-.1-.029-.2-.055-.308-.076l.025-8.969c.1.021.207.047.308.076"/><path class="m" d="M391.034,590.415l-.025,8.969c-.087-.018-.175-.034-.264-.046l.026-8.969c.089.013.176.028.263.046"/><path class="n" d="M390.771,590.369l-.026,8.969c-.081-.012-.163-.021-.246-.028l.026-8.969c.083.007.165.016.246.028"/><path class="o" d="M390.525,590.341l-.026,8.969c-.081-.007-.163-.011-.246-.013l.026-8.969c.083,0,.165.007.246.013"/><path class="p" d="M390.279,590.328l-.026,8.969c-.086,0-.173,0-.261,0l.026-8.968c.088,0,.175,0,.261,0"/><path class="q" d="M390.018,590.33l-.026,8.968c-.1,0-.2.01-.3.02l.025-8.968c.1-.01.2-.017.3-.02"/><path class="r" d="M389.72,590.35l-.025,8.968c-.129.013-.26.032-.393.056l.026-8.969c.132-.024.263-.043.392-.055"/><path class="s" d="M389.328,590.405l-.026,8.969a5.469,5.469,0,0,0-.723.183l.025-8.969a5.6,5.6,0,0,1,.724-.183"/><path class="t" d="M388.6,590.588l-.025,8.969a7.993,7.993,0,0,0-1.568.716l-.087.051.025-8.969.087-.051a8.018,8.018,0,0,1,1.568-.716"/><path class="s" d="M386.949,591.355l-.025,8.969a6.4,6.4,0,0,0-1.04.762l.025-8.969a6.455,6.455,0,0,1,1.04-.762"/><path class="r" d="M385.909,592.117l-.025,8.969a4.671,4.671,0,0,0-.523.56l.025-8.969a4.754,4.754,0,0,1,.523-.56"/><path class="q" d="M385.386,592.677l-.025,8.969a4.122,4.122,0,0,0-.356.53l.026-8.969a4.116,4.116,0,0,1,.355-.53"/><path class="p" d="M385.031,593.207l-.026,8.969a4.131,4.131,0,0,0-.263.567l.026-8.969a4.016,4.016,0,0,1,.263-.567"/><path class="o" d="M384.768,593.774l-.026,8.969a4.522,4.522,0,0,0-.2.7l.026-8.969a4.474,4.474,0,0,1,.2-.7"/><path class="n" d="M384.57,594.476l-.026,8.969a6.417,6.417,0,0,0-.112,1.081l.026-8.969a6.328,6.328,0,0,1,.112-1.081"/><path class="m" d="M384.458,595.557l-.026,8.969c0,.065,0,.131,0,.2l.025-8.969c0-.066,0-.132,0-.2"/></g></g></g><g class="b"><g class="u"><g class="b"><path class="m" d="M399.885,592.364l-.026,8.969v.067l.026-8.969v-.067"/><path class="n" d="M399.884,592.431l-.026,8.969a2.64,2.64,0,0,1-.051.448l.025-8.969a2.642,2.642,0,0,0,.052-.448"/><path class="o" d="M399.832,592.879l-.025,8.969a2.953,2.953,0,0,1-.133.46l.025-8.968a2.891,2.891,0,0,0,.133-.461"/><path class="p" d="M399.7,593.34l-.025,8.968a3.578,3.578,0,0,1-.235.5l.025-8.969a3.509,3.509,0,0,0,.235-.5"/><path class="q" d="M399.464,593.839l-.025,8.969a4.736,4.736,0,0,1-.4.6l.025-8.969a4.563,4.563,0,0,0,.4-.6"/><path class="r" d="M399.061,594.435l-.025,8.969a6.9,6.9,0,0,1-.727.778l.025-8.969a6.728,6.728,0,0,0,.727-.778"/><path class="s" d="M398.334,595.213l-.025,8.969a12.661,12.661,0,0,1-2.043,1.492l.026-8.969a12.592,12.592,0,0,0,2.042-1.492"/><path class="t" d="M396.292,596.705l-.026,8.969c-.086.052-.173.1-.262.155l.026-8.969c.089-.051.176-.1.262-.155"/></g></g></g><path class="v" d="M396.03,596.86,396,605.829l-.942.548.025-8.969Z"/><path class="w" d="M395.088,597.408l-.025,8.969-4.513-2.606.025-8.969Z"/><g class="b"><g class="x"><g class="b"><path class="j" d="M377.839,598.978l-.025,8.969c0-1.151-.2-2.37-.193-3.613l.026-8.969c0,1.243.2,2.462.192,3.613"/></g></g></g><path class="v" d="M372.465,599.324l-.025,8.969-2.164,1.257.025-8.969Z"/><g class="b"><g class="y"><g class="b"><path class="t" d="M370.3,600.582l-.025,8.968-.131.078.026-8.969c.042-.026.086-.052.13-.077"/><path class="s" d="M370.171,600.659l-.026,8.969a5.544,5.544,0,0,0-.907.659l.025-8.969a5.558,5.558,0,0,1,.908-.659"/><path class="r" d="M369.263,601.318l-.025,8.969a2.587,2.587,0,0,0-.283.3l.026-8.969a2.653,2.653,0,0,1,.282-.3"/><path class="q" d="M368.981,601.619l-.026,8.969a1.748,1.748,0,0,0-.146.216l.026-8.969a1.643,1.643,0,0,1,.146-.216"/><path class="p" d="M368.835,601.835l-.026,8.969a1.218,1.218,0,0,0-.083.177l.025-8.969a1.281,1.281,0,0,1,.084-.177"/><path class="o" d="M368.751,602.012l-.025,8.969a1.079,1.079,0,0,0-.046.158l.025-8.968a1.055,1.055,0,0,1,.046-.159"/><path class="n" d="M368.7,602.171l-.025,8.968a.876.876,0,0,0-.017.151l.025-8.968a.864.864,0,0,1,.017-.151"/><path class="m" d="M368.688,602.322l-.025,8.968v.023l.026-8.969v-.022"/></g></g></g><g class="b"><g class="z"><g class="b"><path class="m" d="M384.654,599.4l-.025,8.969c0,.091,0,.181-.005.272l.026-8.969c0-.09,0-.181,0-.272"/><path class="n" d="M384.65,599.676l-.026,8.969a7.939,7.939,0,0,1-.138,1.3l.025-8.969a7.945,7.945,0,0,0,.139-1.3"/><path class="o" d="M384.511,600.98l-.025,8.969a6.183,6.183,0,0,1-.274.97l.026-8.968a6.331,6.331,0,0,0,.273-.971"/><path class="p" d="M384.238,601.951l-.026,8.968a5.816,5.816,0,0,1-.391.841l.026-8.969a6.022,6.022,0,0,0,.391-.84"/><path class="q" d="M383.847,602.791l-.026,8.969a6.466,6.466,0,0,1-.549.818l.025-8.969a6.4,6.4,0,0,0,.55-.818"/><path class="r" d="M383.3,603.609l-.025,8.969a7.847,7.847,0,0,1-.837.9l.025-8.969a7.676,7.676,0,0,0,.837-.9"/><path class="s" d="M382.46,604.51l-.025,8.969a11.565,11.565,0,0,1-1.917,1.409l.026-8.969a11.545,11.545,0,0,0,1.916-1.409"/><path class="t" d="M380.544,605.919l-.026,8.969c-.059.036-.12.071-.181.107a17.371,17.371,0,0,1-3.354,1.513l.025-8.969a17.285,17.285,0,0,0,3.354-1.513c.062-.035.122-.071.182-.107"/><path class="s" d="M377.008,607.539l-.025,8.969a15.131,15.131,0,0,1-1.947.491l.025-8.969a14.757,14.757,0,0,0,1.947-.491"/><path class="r" d="M375.061,608.03,375.036,617q-.551.1-1.1.155l.025-8.969q.552-.055,1.1-.155"/><path class="q" d="M373.959,608.185l-.025,8.969q-.447.045-.894.06l.026-8.969q.445-.015.893-.06"/><path class="p" d="M373.066,608.245l-.026,8.969c-.266.009-.531.011-.8,0l.026-8.969q.4.01.8,0"/><path class="o" d="M372.269,608.249l-.026,8.969q-.383-.009-.763-.041l.025-8.969q.381.031.764.041"/><path class="n" d="M371.505,608.208l-.025,8.969q-.389-.031-.775-.087l.025-8.968q.387.054.775.086"/><path class="m" d="M370.73,608.122l-.025,8.968c-.28-.039-.559-.088-.837-.145l.026-8.969q.417.086.836.146"/><path class="l" d="M369.894,607.976l-.026,8.969c-.329-.069-.656-.149-.983-.243l.026-8.968q.489.14.983.242"/><path class="k" d="M368.911,607.734l-.026,8.968q-.65-.186-1.292-.439l.025-8.969q.642.254,1.293.44"/><path class="j" d="M367.618,607.294l-.025,8.969a15.087,15.087,0,0,1-2.011-.974c-2.251-1.3-3.349-2.669-3.345-4.054l.026-8.969c0,1.385,1.093,2.755,3.344,4.054a15.085,15.085,0,0,0,2.011.974"/></g></g></g><path class="aa" d="M396.6,588.374c4.654,2.687,4.285,5.668-.565,8.486l-.942.548-4.514-2.606,1.256-.73c2.146-1.247,2.106-2.241.578-3.123-1.51-.872-3.226-.892-5.372.355-6.229,3.62,1.963,9.7-6.674,14.722-4.85,2.819-10.048,3.012-14.755.294-4.688-2.707-4.373-5.718.478-8.537l1.849-1.075,4.531,2.616-2.164,1.258c-2.163,1.257-1.982,2.25-.455,3.133s3.244.983,5.408-.274c6.229-3.62-1.945-9.693,6.691-14.712C386.8,585.91,391.941,585.687,396.6,588.374Z"/></g><g class="b"><path class="w" d="M408.813,600.825l-.025,8.969-2.265-1.308.025-8.969Z"/><g class="b"><g class="ab"><g class="b"><path class="j" d="M409.947,602.121l-.026,8.969c0-.459-.408-.878-1.134-1.3l.026-8.968c.725.418,1.135.837,1.134,1.3"/></g></g></g><path class="v" d="M406.547,599.517l-.025,8.969-10.242,5.952.025-8.969Z"/><g class="b"><g class="ac"><g class="b"><path class="m" d="M416.561,602.4l-.025,8.968v.065l.025-8.968V602.4"/><path class="n" d="M416.56,602.465l-.025,8.968a2.541,2.541,0,0,1-.05.433l.025-8.969a2.543,2.543,0,0,0,.05-.432"/><path class="o" d="M416.51,602.9l-.025,8.969a2.855,2.855,0,0,1-.128.444l.026-8.969a2.852,2.852,0,0,0,.127-.444"/><path class="p" d="M416.383,603.341l-.026,8.969a3.539,3.539,0,0,1-.226.482l.025-8.969a3.49,3.49,0,0,0,.227-.482"/><path class="q" d="M416.156,603.823l-.025,8.969a4.6,4.6,0,0,1-.39.575l.026-8.969a4.515,4.515,0,0,0,.389-.575"/><path class="r" d="M415.767,604.4l-.026,8.969a6.555,6.555,0,0,1-.7.752l.026-8.969a6.555,6.555,0,0,0,.7-.752"/><path class="s" d="M415.063,605.15l-.026,8.969a12.448,12.448,0,0,1-2.015,1.471l.026-8.969a12.43,12.43,0,0,0,2.015-1.471"/><path class="t" d="M413.048,606.621l-.026,8.969-.262.155.025-8.969c.089-.051.177-.1.263-.155"/></g></g></g><path class="v" d="M412.785,606.776l-.025,8.969-3.943,2.291.025-8.969Z"/><path class="w" d="M394.244,609.291l-.025,8.969-2.265-1.308.025-8.969Z"/><g class="b"><g class="ad"><g class="b"><path class="t" d="M408.842,609.068l-.025,8.969a17.267,17.267,0,0,1-3.347,1.513l.026-8.969a17.291,17.291,0,0,0,3.346-1.513"/><path class="s" d="M405.5,610.581l-.026,8.969a14.447,14.447,0,0,1-1.879.475l.025-8.969a14.5,14.5,0,0,0,1.88-.475"/><path class="r" d="M403.616,611.056l-.025,8.969c-.352.063-.7.113-1.054.148l.025-8.969c.351-.035.7-.085,1.054-.148"/><path class="q" d="M402.562,611.2l-.025,8.969q-.427.044-.855.058l.025-8.969q.428-.015.855-.058"/><path class="p" d="M401.707,611.262l-.025,8.969c-.255.008-.511.01-.766,0l.026-8.968q.383.009.765,0"/><path class="o" d="M400.942,611.266l-.026,8.968c-.246-.006-.491-.019-.737-.039l.025-8.969q.369.03.738.04"/><path class="n" d="M400.2,611.226l-.025,8.969q-.376-.031-.753-.085l.025-8.968q.377.052.753.084"/><path class="m" d="M399.451,611.142l-.025,8.968c-.272-.038-.544-.086-.815-.142l.025-8.969c.272.057.543.1.815.143"/><path class="l" d="M398.636,611l-.025,8.969q-.487-.1-.973-.239l.026-8.969c.323.092.648.172.972.239"/><path class="k" d="M397.664,610.76l-.026,8.969q-.651-.186-1.3-.442l.025-8.968q.648.255,1.3.441"/><path class="j" d="M396.364,610.319l-.025,8.968a15.787,15.787,0,0,1-2.12-1.027l.025-8.969a15.905,15.905,0,0,0,2.12,1.028"/></g></g></g><path class="v" d="M391.979,607.983l-.025,8.969-11.376,6.611.025-8.969Z"/><path class="aa" d="M413.122,598.32c4.777,2.758,4.5,5.648-.337,8.456l-3.943,2.292c-4.833,2.809-9.821,2.981-14.6.223l-2.265-1.308L380.6,614.594l-4.777-2.758,30.254-17.582Zm-9.353,8.162,4.536-2.636c2.163-1.257,2.036-2.139.508-3.021l-2.266-1.308-10.241,5.952,2.265,1.307c1.528.883,3.034.964,5.2-.294"/><path class="w" d="M380.6,614.594l-.025,8.969L375.8,620.8l.025-8.969Z"/></g><g class="b"><path class="w" d="M425.251,610.315l-.025,8.969-2.3-1.328.025-8.969Z"/><g class="b"><g class="ae"><g class="b"><path class="j" d="M426.38,611.644l-.026,8.968c0-.458-.375-.893-1.129-1.328l.026-8.969c.753.435,1.13.87,1.129,1.329"/></g></g></g><path class="v" d="M422.95,608.987l-.025,8.969-8.008,4.654.025-8.969Z"/><g class="b"><g class="af"><g class="b"><path class="m" d="M433.369,612.012l-.025,8.969v.058l.025-8.968v-.059"/><path class="n" d="M433.368,612.071l-.025,8.968a2.354,2.354,0,0,1-.044.382l.025-8.968a2.174,2.174,0,0,0,.044-.382"/><path class="o" d="M433.324,612.453l-.025,8.968a2.556,2.556,0,0,1-.112.389l.025-8.968a2.509,2.509,0,0,0,.112-.389"/><path class="p" d="M433.212,612.842l-.025,8.968a3.144,3.144,0,0,1-.2.426l.025-8.969a3.069,3.069,0,0,0,.2-.425"/><path class="q" d="M433.012,613.267l-.025,8.969a4.049,4.049,0,0,1-.344.506l.026-8.969a4.076,4.076,0,0,0,.343-.506"/><path class="r" d="M432.669,613.773l-.026,8.969a5.894,5.894,0,0,1-.631.674l.025-8.969a5.908,5.908,0,0,0,.632-.674"/><path class="s" d="M432.037,614.447l-.025,8.969a12.013,12.013,0,0,1-1.935,1.407l.026-8.969a11.893,11.893,0,0,0,1.934-1.407"/><path class="t" d="M430.1,615.854l-.026,8.969c-.088.053-.177.106-.269.159l.026-8.969.269-.159"/></g></g></g><path class="v" d="M429.834,616.013l-.025,8.969-1.082.629.025-8.969Z"/><path class="w" d="M412.757,617.372l-.025,8.969-2.125-1.227.025-8.969Z"/><g class="b"><g class="ag"><g class="b"><path class="t" d="M428.752,616.642l-.025,8.969a16.184,16.184,0,0,1-3.176,1.443l.025-8.969a16.159,16.159,0,0,0,3.176-1.443"/><path class="s" d="M425.576,618.085l-.025,8.969a12.416,12.416,0,0,1-1.58.4l.025-8.969a12.171,12.171,0,0,0,1.58-.4"/><path class="r" d="M424,618.482l-.025,8.969c-.3.054-.6.1-.9.127l.026-8.969q.451-.045.9-.127"/><path class="q" d="M423.094,618.609l-.026,8.969q-.364.036-.73.049l.026-8.969c.243-.008.487-.025.73-.049"/><path class="p" d="M422.364,618.658l-.026,8.969q-.33.01-.661,0l.025-8.969q.332.008.662,0"/><path class="o" d="M421.7,618.661l-.025,8.969q-.326-.009-.653-.036l.025-8.968c.219.018.436.029.653.035"/><path class="n" d="M421.049,618.626l-.025,8.968q-.342-.027-.687-.077l.025-8.968q.345.048.687.077"/><path class="m" d="M420.362,618.549l-.025,8.968q-.383-.054-.77-.134l.025-8.969q.387.079.77.135"/><path class="l" d="M419.592,618.414l-.025,8.969-.038-.008.026-8.969.037.008"/></g></g></g><g class="b"><g class="ah"><g class="b"><path class="j" d="M414.338,619.093l-.026,8.969c0-.582-.55-1.126-1.58-1.721l.025-8.969c1.03.595,1.582,1.14,1.581,1.721"/></g></g></g><path class="v" d="M410.632,616.145l-.025,8.969-9.3,5.4.025-8.969Z"/><g class="b"><g class="ai"><g class="b"><path class="m" d="M420.223,620.16l-.025,8.969v.06l.025-8.969v-.06"/><path class="n" d="M420.222,620.22l-.025,8.969a2.354,2.354,0,0,1-.045.391l.025-8.969a2.354,2.354,0,0,0,.045-.391"/><path class="o" d="M420.177,620.611l-.025,8.969a2.722,2.722,0,0,1-.115.4l.025-8.969a2.545,2.545,0,0,0,.115-.4"/><path class="p" d="M420.062,621.01l-.025,8.969a3.2,3.2,0,0,1-.2.434l.025-8.969a3.2,3.2,0,0,0,.2-.434"/><path class="q" d="M419.858,621.444l-.025,8.969a4.243,4.243,0,0,1-.345.51l.025-8.969a4.09,4.09,0,0,0,.345-.51"/><path class="r" d="M419.513,621.954l-.025,8.969a6.129,6.129,0,0,1-.652.7l.026-8.969a5.948,5.948,0,0,0,.651-.7"/><path class="s" d="M418.862,622.651l-.026,8.969a12,12,0,0,1-1.928,1.405l.025-8.969a11.954,11.954,0,0,0,1.929-1.405"/><path class="t" d="M416.933,624.056l-.025,8.969c-.094.057-.189.113-.287.17l.026-8.969c.1-.056.193-.113.286-.17"/></g></g></g><path class="v" d="M416.647,624.226l-.025,8.969-2.46,1.43.025-8.969Z"/><path class="w" d="M399.745,625.646l-.025,8.969-7.534-4.35.025-8.969Z"/><path class="aa" d="M419.555,618.406c1.569,2.058.285,3.965-2.908,5.82l-2.46,1.43a13.725,13.725,0,0,1-14.442-.01l-7.534-4.35,30.254-17.582,7.218,4.168c4.97,2.869,4.809,5.424.151,8.131l-1.082.629A12.46,12.46,0,0,1,419.555,618.406Zm-10.023,4.421,2.635-1.531c2.809-1.633,2.768-2.667.59-3.924l-2.125-1.227-9.3,5.4,2.739,1.582c1.6.923,3.209,1,5.46-.3m13.418-13.84-8.008,4.654,1.861,1.074c1.792,1.035,3.665,1.207,6.091-.2l1.675-.974c2.163-1.257,2.385-2.241.682-3.224l-2.3-1.328"/><g class="b"><g class="aj"><g class="b"><path class="t" d="M414.187,625.656l-.026,8.969a15.851,15.851,0,0,1-3.07,1.384l.026-8.969a15.843,15.843,0,0,0,3.07-1.384"/><path class="s" d="M411.117,627.04l-.026,8.969a13.846,13.846,0,0,1-1.8.453l.025-8.968a13.885,13.885,0,0,0,1.8-.454"/><path class="r" d="M409.319,627.494l-.025,8.968q-.519.095-1.04.146l.026-8.968q.521-.053,1.039-.146"/><path class="q" d="M408.28,627.64l-.026,8.968q-.422.042-.843.057l.025-8.969q.423-.013.844-.056"/><path class="p" d="M407.436,627.7l-.025,8.969q-.384.014-.768,0l.026-8.969q.384.009.767,0"/><path class="o" d="M406.669,627.7l-.026,8.969c-.249-.006-.5-.02-.746-.04l.025-8.969c.249.02.5.034.747.04"/><path class="n" d="M405.922,627.66l-.025,8.969c-.257-.022-.513-.05-.77-.087l.026-8.969c.256.037.513.066.769.087"/><path class="m" d="M405.153,627.573l-.026,8.969q-.419-.06-.839-.147l.025-8.968q.42.087.84.146"/><path class="l" d="M404.313,627.427l-.025,8.968q-.493-.1-.985-.242l.025-8.969c.328.094.657.174.985.243"/><path class="k" d="M403.328,627.184l-.025,8.969q-.684-.2-1.365-.463l.025-8.969q.681.269,1.365.463"/><path class="j" d="M401.963,626.721l-.025,8.969a16.706,16.706,0,0,1-2.218-1.075l.025-8.969a16.706,16.706,0,0,0,2.218,1.075"/></g></g></g></g><g class="b"><path class="v" d="M444.7,616.551l-.025,8.969-23.327,13.556.025-8.969Z"/><g class="b"><g class="ak"><g class="b"><path class="t" d="M421.371,630.107l-.025,8.969-.131.077.025-8.969.131-.077"/><path class="s" d="M421.24,630.184l-.025,8.969a5.59,5.59,0,0,0-.911.662l.025-8.969a5.693,5.693,0,0,1,.911-.662"/><path class="r" d="M420.329,630.846l-.025,8.969a2.647,2.647,0,0,0-.286.3l.026-8.969a2.628,2.628,0,0,1,.285-.3"/><path class="q" d="M420.044,631.151l-.026,8.969a1.806,1.806,0,0,0-.147.217l.026-8.969a1.663,1.663,0,0,1,.147-.217"/><path class="p" d="M419.9,631.368l-.026,8.969a1.25,1.25,0,0,0-.084.179l.025-8.969a1.374,1.374,0,0,1,.085-.179"/><path class="o" d="M419.812,631.547l-.025,8.969a.964.964,0,0,0-.046.16l.025-8.969a1.105,1.105,0,0,1,.046-.16"/><path class="n" d="M419.766,631.707l-.025,8.969a.8.8,0,0,0-.018.152l.025-8.968a1,1,0,0,1,.018-.153"/><path class="m" d="M419.748,631.86l-.025,8.968v.023l.025-8.969v-.022"/></g></g></g><path class="v" d="M454.182,622.026l-.025,8.969-23.031,13.384.025-8.969Z"/><path class="aa" d="M454.182,622.026,431.151,635.41c-4.833,2.808-10.048,3.011-14.737.3-4.707-2.717-4.374-5.739.459-8.547L439.9,613.783l4.794,2.768-23.327,13.556c-2.163,1.257-2,2.261-.472,3.143s3.261.973,5.424-.284l23.328-13.556Z"/><g class="b"><g class="al"><g class="b"><path class="t" d="M431.151,635.41l-.025,8.969a17.349,17.349,0,0,1-3.346,1.508l.025-8.969a17.258,17.258,0,0,0,3.346-1.508"/><path class="s" d="M427.8,636.918l-.025,8.969a15.047,15.047,0,0,1-1.952.492l.025-8.968a14.96,14.96,0,0,0,1.952-.493"/><path class="r" d="M425.853,637.411l-.025,8.968q-.553.1-1.107.156l.026-8.969q.553-.055,1.106-.155"/><path class="q" d="M424.747,637.566l-.026,8.969q-.449.045-.9.06l.026-8.968q.447-.016.9-.061"/><path class="p" d="M423.85,637.627l-.026,8.968q-.4.015-.8,0l.025-8.968q.4.009.8,0"/><path class="o" d="M423.05,637.631l-.025,8.968q-.384-.009-.766-.041l.026-8.968c.255.021.51.034.765.041"/><path class="n" d="M422.285,637.59l-.026,8.968q-.389-.031-.775-.087l.025-8.968q.387.054.776.087"/><path class="m" d="M421.509,637.5l-.025,8.968q-.42-.059-.839-.146l.026-8.968q.419.086.838.146"/><path class="l" d="M420.671,637.357l-.026,8.968q-.492-.1-.98-.241l.025-8.969q.489.14.981.242"/><path class="k" d="M419.69,637.115l-.025,8.969q-.648-.186-1.288-.438l.026-8.969c.426.169.855.314,1.287.438"/><path class="j" d="M418.4,636.677l-.026,8.969a15.06,15.06,0,0,1-1.989-.963c-2.259-1.3-3.357-2.68-3.353-4.067l.025-8.969c0,1.388,1.094,2.762,3.354,4.067a14.939,14.939,0,0,0,1.989.963"/></g></g></g></g></g></g></svg>