<svg xmlns="http://www.w3.org/2000/svg" xmlns:xlink="http://www.w3.org/1999/xlink" width="192.703" height="268.876" viewBox="0 0 192.703 268.876"><defs><style>.a,.g{fill:none;}.b{isolation:isolate;}.c{fill:#00b7d1;}.d{fill:#b0b2b2;}.e{fill:#2d2d2c;}.f{fill:#6e7072;}.g{stroke:#fff;stroke-width:9.319px;}.g,.h{stroke-linejoin:round;}.h,.k{fill:#fff;}.h{stroke:#155e85;stroke-width:4.66px;}.i{fill:#08547f;}.j{fill:#166fa4;}.l{clip-path:url(#a);}.m{fill:#14699c;}.n{fill:#136798;}.o{fill:#126495;}.p{fill:#116292;}.q{fill:#105f8e;}.r{fill:#0f5d8b;}.s{fill:#0d5b88;}.t{fill:#0c5985;}.u{clip-path:url(#b);}.v{fill:#0a5682;}.w{fill:#085480;}.x{fill:#07527d;}.y{fill:#166ca1;}.z{fill:#166ca0;}.aa{fill:#14689b;}.ab{fill:#166da2;}.ac{fill:#156b9f;}.ad{clip-path:url(#c);}.ae{clip-path:url(#d);}.af{clip-path:url(#e);}.ag{clip-path:url(#f);}</style><clipPath id="a"><path class="a" d="M-557.865,1051.638l.03-10.423c0-.617.591-1.3,1.934-2.085l-.03,10.423C-557.274,1050.334-557.864,1051.021-557.865,1051.638Z" transform="translate(557.865 -1039.13)"/></clipPath><clipPath id="b"><path class="a" d="M-564.205,1051.283l.03-10.423c0,1.512,1.156,2.987,3.545,4.365,5.143,2.97,11.04,2.64,16.657-.624l-.03,10.423c-5.617,3.264-11.515,3.594-16.657.624C-563.049,1054.27-564.209,1052.8-564.205,1051.283Z" transform="translate(564.205 -1040.86)"/></clipPath><clipPath id="c"><path class="a" d="M-466.938,1069.055l-.03,10.423c0-.543-.437-1.034-1.212-1.481-1.653-.954-3.668-1.014-6.183.448l.03-10.423c2.515-1.461,4.53-1.4,6.183-.448C-467.376,1068.022-466.937,1068.512-466.938,1069.055Z" transform="translate(474.363 -1066.887)"/></clipPath><clipPath id="d"><path class="a" d="M-461.316,1068.622l-.03,10.423c0,1.74-1.564,3.529-4.583,5.283l.03-10.423C-462.88,1072.151-461.321,1070.362-461.316,1068.622Z" transform="translate(465.929 -1068.622)"/></clipPath><clipPath id="e"><path class="a" d="M-491.954,1089.627l.03-10.423c0-.616.581-1.3,1.908-2.072l-.029,10.423C-491.373,1088.327-491.952,1089.011-491.954,1089.627Z" transform="translate(491.954 -1077.132)"/></clipPath><clipPath id="f"><path class="a" d="M-498.3,1089.274l.03-10.423c0,1.512,1.16,2.987,3.551,4.367,5.163,2.982,11.02,2.651,16.657-.624l-.03,10.423c-5.636,3.276-11.493,3.6-16.657.624C-497.144,1092.261-498.309,1090.786-498.3,1089.274Z" transform="translate(498.304 -1078.851)"/></clipPath></defs><g transform="translate(-1201.297 -4013.87)"><g class="b" transform="translate(1201.981 4073.479)"><path class="c" d="M115.465,17.616l-7.093-4.095L5.974,73.448c-8.918,5.183-8.871,13.617.106,18.8l123.892,70.781,7.047-4.1L13.127,88.152c-5.063-2.923-5.1-7.682-.059-10.609l102.4-59.927"/></g><g transform="translate(1202.958 3962.501)"><g transform="translate(0.042 51.369)"><g class="b"><g transform="translate(0.045)"><path class="d" d="M75.84,20.152c10.465-6.136,27.615-6.179,38.237-.1l68.876,39.432c10.622,6.081,10.75,16.014.289,22.146L115.217,121.5c-10.465,6.136-27.615,6.179-38.237.1L8.1,82.168c-10.622-6.081-10.75-16.014-.289-22.146ZM179.718,61.383,110.842,21.95c-8.819-5.048-23.061-4.992-31.714.081L11.1,61.9c-8.688,5.09-8.581,13.323.238,18.37L80.216,119.7c8.79,5.031,23.031,5.009,31.719-.081l68.025-39.87c8.654-5.073,8.547-13.34-.242-18.37" transform="translate(-0.053 -15.521)"/></g><g transform="translate(4.648 2.674)"><path class="e" d="M75.607,19.986c8.654-5.073,22.895-5.128,31.714-.081L176.2,59.337c8.79,5.031,8.9,13.3.242,18.37l-68.025,39.87c-8.688,5.09-22.929,5.111-31.719.081L7.82,78.226C-1,73.179-1.106,64.946,7.582,59.856Z" transform="translate(-1.135 -16.15)"/></g><path class="f" d="M191.042,28.5c0,.259-.043.519-.068.778-.026.289-.047.578-.1.863-.043.23-.111.455-.17.68a8.08,8.08,0,0,1-.234.816c-.077.221-.179.434-.272.651-.123.285-.247.57-.4.85-.106.2-.234.4-.357.6-.2.319-.4.634-.638.944-.136.183-.281.366-.429.544a16.2,16.2,0,0,1-1.178,1.267c-.136.132-.259.264-.4.4-.264.234-.553.464-.838.689-.242.2-.476.4-.736.587-.31.225-.651.438-.978.655s-.625.425-.97.629l-68.025,39.87a29.468,29.468,0,0,1-3.759,1.8c-.353.14-.714.276-1.076.408-.821.3-1.684.54-2.551.782-.884.251-1.782.485-2.7.676-1.05.217-2.109.412-3.189.553-.3.038-.587.094-.884.123-1.493.162-3,.247-4.516.264-.247,0-.489,0-.736,0-1.5-.009-3-.089-4.486-.238l-.672-.077a42.993,42.993,0,0,1-4.371-.736c-.247-.055-.489-.119-.736-.179a37.715,37.715,0,0,1-3.7-1.114c-.251-.089-.515-.162-.765-.259a29.625,29.625,0,0,1-4.1-1.914L8.139,39.978c-4.031-2.3-6.553-5.167-7.556-8.169a9.589,9.589,0,0,1-.5-3.028L.042,43.827c-.009,4.061,2.679,8.122,8.054,11.2L76.972,94.456a29.128,29.128,0,0,0,3.81,1.82c.094.038.191.06.285.1.251.094.515.166.77.259.736.259,1.463.532,2.228.748.476.136.978.242,1.467.361.247.06.485.123.736.179.2.047.4.106.612.149.88.183,1.777.34,2.679.468.357.051.719.081,1.08.123.225.025.446.051.672.072.293.03.587.077.884.1.884.077,1.778.123,2.666.145.315.009.625,0,.936,0,.247,0,.489,0,.736,0,.37,0,.74.009,1.11,0,1-.034,2.007-.1,3-.2.136-.013.268-.043.4-.055.3-.034.587-.085.884-.123.727-.094,1.459-.174,2.173-.306.349-.06.672-.179,1.016-.251.923-.191,1.812-.421,2.7-.672.455-.132.948-.2,1.395-.349.4-.128.765-.3,1.152-.438.366-.132.723-.264,1.076-.408a28.643,28.643,0,0,0,3.759-1.8l68.025-39.87.255-.153c.255-.153.476-.319.719-.481.327-.213.668-.425.97-.646.268-.2.5-.4.748-.6.281-.225.57-.446.825-.68.043-.038.1-.077.14-.115.1-.094.17-.2.268-.289a15.255,15.255,0,0,0,1.169-1.259c.072-.089.17-.17.242-.259s.123-.191.2-.289c.23-.31.434-.621.629-.94.081-.128.187-.255.259-.383.043-.072.064-.149.1-.221a8.847,8.847,0,0,0,.4-.842c.072-.162.166-.319.225-.476.021-.06.03-.123.051-.183.1-.268.162-.54.234-.812.047-.179.115-.353.153-.532.009-.051.009-.1.017-.153.051-.285.072-.574.1-.867.017-.179.055-.357.064-.536l0-.238h0Z" transform="translate(-0.042 26.682)"/></g></g></g><g transform="translate(1822.157 3170.255)"><path class="g" d="M-440.157,1078.837c0,.055-.033.112-.037.166a3.376,3.376,0,0,0-.792-2.31c-.037-.049-.1-.1-.139-.143a6.866,6.866,0,0,0-.969-.977,12.3,12.3,0,0,0-1.624-1.1,15.509,15.509,0,0,0-2.505-1.137c-.2-.07-.4-.131-.6-.194a14.7,14.7,0,0,0-2.4-.547c-.058-.007-.115-.022-.174-.03a15.642,15.642,0,0,0-5.868.424h0l.013-4.691v-.036h0l-4.673-2.7-5.407,3.141.018-6.253-6.592-3.806-7.741,4.5.026-8.87v-.082h0l-7.674-4.431-6.366,2.726.018-6.329v-.062h0l-5.245-3.028-6.873,1.533.015-5.492-5.245-3.028-3.583,2.082.012-4.144-4.96-2.863-5.447,3.165.018-6.3h0l-5.245-3.028-2.068,1.2.007-2.351v-.042h0l-16.206-9.356-5.029,2.923-.018,6.371-24.624,14.31-.03,10.423,5.245,3.028h0l11.632-6.76a3.073,3.073,0,0,0-.171,1.595,2.966,2.966,0,0,1-.1-.492l-.03,10.423a4.375,4.375,0,0,0,1.984,3.315,12.5,12.5,0,0,0,1.562,1.051,15.461,15.461,0,0,0,2.021.979c.018.007.034.018.051.025q.685.269,1.381.469c.044.013.089.02.133.032l.265.065c.089.024.178.045.267.067.128.03.256.068.385.1q.456.094.916.159c.181.026.362.043.544.062l.145.017.078.008.09.01q.426.036.853.046.447.011.9,0l.087-.006c.039,0,.077,0,.116-.007h0c.266-.013.534-.027.8-.054.389-.039.777-.1,1.166-.164.032-.006.064-.008.1-.014h0l.036,0c.172-.031.345-.094.517-.131.34-.073.68-.155,1.02-.25l-.014,4.905,5.245,3.028,6.738-3.915-.023,7.791,5.388,3.112,1.005-1.28,0,1.857,4.816,2.781,7.286-3.17.982.567-.021,7.364h0l5.307,3.063h0l2.376-1.874-.008,3.241,4.735,2.735,6.552-3.808-.021,7.578,5.388,3.112,7.2-4.187-.017,6.133v.355h0a3.029,3.029,0,0,0,.216,1.126,4.218,4.218,0,0,0,.661,1.107,7.145,7.145,0,0,0,1.11,1.083,12.624,12.624,0,0,0,1.564,1.052,15.828,15.828,0,0,0,2.034.985c.02.008.039.02.058.028q.686.271,1.383.471c.126.036.255.061.383.094.089.022.178.045.269.066.133.031.264.07.4.1q.453.094.912.159c.177.025.355.042.532.061l.145.015h0c.059.006.118.016.177.02.282.023.563.038.847.045s.592.006.89,0l.063,0h.024l.112-.008h.006c.264-.013.529-.027.794-.054.392-.039.787-.1,1.181-.166.026,0,.053-.006.081-.011l.027,0c.156-.029.31-.086.466-.118a17.506,17.506,0,0,0,1.7-.429c.025-.008.05-.011.075-.019.439-.141.876-.33,1.315-.507l.013-.006c.229-.093.46-.163.688-.266a22.326,22.326,0,0,0,2.085-1.07l11.153-6.481.012-4.292,3.7,2.135h0l3.406-1.979.32-.19a17.473,17.473,0,0,0,1.536-1.042c.117-.088.214-.176.322-.263.2-.164.423-.327.6-.491s.3-.319.446-.477c.087-.094.183-.188.261-.282.045-.052.107-.1.149-.158a5.516,5.516,0,0,0,.464-.685c.059-.106.1-.212.149-.316.019-.039.039-.077.055-.116h0c.02-.05.05-.1.069-.147a3.467,3.467,0,0,0,.153-.53,2.978,2.978,0,0,0,.058-.51c0-.026,0-.051,0-.076v-.03l.03-10.394h0Zm-113.311-34.017c-.007.007-.019.016-.026.024l-.014.012h0c.027-.03.061-.061.091-.09h0C-553.435,1044.783-553.451,1044.8-553.469,1044.82Zm.283-.252,0,0-.011.007c.026-.023.051-.045.08-.068C-553.144,1044.53-553.163,1044.549-553.186,1044.568Zm.809-.587,0,0c-.17.108-.34.215-.486.318-.013.011-.033.02-.046.031.152-.113.341-.231.528-.347l.024-.015Zm34.683,18.8,1.067-1.36,4.2-.9Zm75.131,19.846-.071.058-.033.027c.121-.1.212-.193.325-.289C-442.422,1082.489-442.48,1082.557-442.563,1082.625Zm1.357-1.324c-.017.025-.029.05-.049.075s-.073.073-.1.112c.127-.146.21-.291.317-.436C-441.1,1081.134-441.138,1081.217-441.206,1081.3Zm.767-1.2v0l-.006.013c-.014.034-.032.069-.049.1-.008.019-.029.038-.037.057v0a3.62,3.62,0,0,0,.174-.537A2.981,2.981,0,0,1-440.439,1080.1Z"/><g transform="translate(-578.157 1014.443)"><path class="h" d="M-443.717,1074.469a15.01,15.01,0,0,0-11.542-1.483l.013-4.727-4.673-2.7-5.407,3.141.018-6.253-6.592-3.806-7.741,4.5.026-8.952-7.674-4.431-6.366,2.726.018-6.391-5.245-3.028-6.873,1.533.015-5.492-5.245-3.028-3.583,2.082.012-4.144-4.96-2.863-5.447,3.165.018-6.3-5.245-3.028-2.068,1.2.007-2.393-16.206-9.356-5.029,2.923-.018,6.371-24.624,14.31-.03,10.423,5.245,3.028,11.633-6.76a3.081,3.081,0,0,0-.171,1.6,3.125,3.125,0,0,1-.1-.494l-.03,10.423c0,1.512,1.156,2.987,3.545,4.365a15.586,15.586,0,0,0,2.019.978c.018.007.034.019.052.026q.685.271,1.381.469c.132.038.266.064.4.1l.267.065c.128.03.256.068.385.1q.456.094.916.159c.181.026.364.043.546.062.047,0,.1.012.143.015s.113.016.17.019q.426.036.853.046.447.011.9,0l.086,0c.04,0,.08-.007.12-.008.266-.013.534-.027.8-.054.387-.039.776-.1,1.166-.164.032-.006.064-.008.1-.014l.036,0c.171-.031.343-.093.515-.13.34-.074.681-.156,1.022-.251l-.014,4.905,5.245,3.027,6.738-3.915-.023,7.792,5.388,3.112,1.005-1.28,0,1.857,4.816,2.781,7.286-3.17.982.567-.021,7.364,5.307,3.063,2.376-1.874-.008,3.241,4.735,2.735,6.552-3.808-.021,7.578,5.388,3.112,7.2-4.187-.018,6.488c0,1.513,1.16,2.988,3.551,4.368a15.735,15.735,0,0,0,2.032.984c.02.008.039.021.059.03q.686.271,1.383.469c.126.037.254.062.381.1l.271.066c.132.031.264.07.4.1q.453.094.912.159c.177.025.354.042.532.061.049,0,.1.012.145.015s.118.016.177.02c.282.023.563.038.847.045s.592.006.89,0l.084-.006.12-.008c.264-.013.529-.027.794-.054.393-.039.788-.1,1.183-.166.026,0,.052-.006.08-.011l.027,0c.157-.029.315-.087.472-.12a17.334,17.334,0,0,0,1.694-.427c.025-.008.05-.011.075-.019.439-.141.876-.33,1.315-.507.234-.1.468-.168.7-.272a22.326,22.326,0,0,0,2.085-1.07l11.153-6.481.012-4.292,3.7,2.135,3.406-1.979.32-.19a17.371,17.371,0,0,0,1.534-1.041c.116-.089.215-.177.326-.266.2-.163.422-.326.6-.489s.3-.319.446-.478c.087-.093.184-.187.261-.279.045-.053.107-.106.149-.159a5.6,5.6,0,0,0,.464-.685c.059-.106.1-.212.15-.317.017-.038.038-.077.053-.115s.051-.1.07-.147a3.467,3.467,0,0,0,.153-.53,2.978,2.978,0,0,0,.058-.51c0-.025,0-.051,0-.076l.03-10.423c0,.056-.033.112-.037.167C-440.1,1077.437-441.231,1075.9-443.717,1074.469Zm3.277,5.631c-.017.039-.037.077-.055.116-.008.02-.03.039-.039.059a3.393,3.393,0,0,0,.176-.54A3.129,3.129,0,0,1-440.44,1080.1Zm-2.231,2.612c.125-.1.219-.2.334-.3-.082.071-.14.141-.227.21C-442.6,1082.654-442.634,1082.684-442.671,1082.713Zm1.312-1.225c.127-.146.212-.292.319-.439-.08.109-.122.218-.214.327C-441.286,1081.412-441.327,1081.45-441.359,1081.487Zm-34.3,9.4,0,.036Zm.139-.417.011-.025Zm28.126-11.6a1.2,1.2,0,0,0-.282-.694A1.2,1.2,0,0,1-447.394,1078.879Zm-.345-.756a3.371,3.371,0,0,0-.843-.662A3.371,3.371,0,0,1-447.739,1078.124ZM-554,1045.732l0,.034Zm1.616-1.748c-.188.118-.386.238-.538.352.159-.119.362-.244.561-.368Zm-.806.584-.017.012c.03-.025.058-.051.089-.076C-553.14,1044.525-553.161,1044.546-553.186,1044.568Zm-.283.252c-.011.012-.03.025-.042.037.029-.031.063-.062.1-.094C-553.434,1044.782-553.45,1044.8-553.469,1044.82Zm-.382.487.006-.013Zm37.224,16.112,4.2-.9-5.268,2.256Zm-44.1-13.434a6.713,6.713,0,0,0,.731.751A6.713,6.713,0,0,1-560.722,1047.985Zm-.632-1.155a3.83,3.83,0,0,0,.36.7A3.83,3.83,0,0,1-561.355,1046.829Zm1.748,2.282a12.135,12.135,0,0,0,1.607,1.095A12.135,12.135,0,0,1-559.606,1049.111Zm78.33,45.155a12.26,12.26,0,0,0,1.608,1.095A12.26,12.26,0,0,1-481.276,1094.266Z" transform="translate(578.157 -1014.443)"/><g transform="translate(0 0)"><g class="b"><g transform="translate(24.642 2.922)"><path class="i" d="M-551.9,1020.072l-.03,10.423-5.49-3.17.03-10.423Z" transform="translate(557.424 -1016.902)"/></g><g transform="translate(40.847 9.356)"><path class="j" d="M-538.731,1022.315l-.03,10.423-5.029,2.922.03-10.423Z" transform="translate(543.789 -1022.315)"/></g><g transform="translate(35.377 9.121)"><path class="i" d="M-542.892,1025.275l-.03,10.423-5.47-3.158.03-10.423Z" transform="translate(548.391 -1022.117)"/></g><g transform="translate(0.03)"><path class="k" d="M-532.256,1023.8l-5.029,2.923-5.47-3.158-30.132,17.511-5.245-3.028L-548,1020.535l-5.49-3.17,5.029-2.922Z" transform="translate(578.132 -1014.443)"/></g><g transform="translate(5.245 9.121)"><path class="j" d="M-543.582,1022.117l-.03,10.423-30.132,17.51.03-10.423Z" transform="translate(573.743 -1022.117)"/></g><g transform="translate(0 23.603)"><path class="i" d="M-572.882,1037.33l-.03,10.423-5.245-3.028.029-10.423Z" transform="translate(578.157 -1034.302)"/></g></g><g class="b" transform="translate(16.582 10.547)"><g transform="translate(9.47 3.028)"><path class="j" d="M-529.077,1025.865l-.03,10.423-27.131,15.767.03-10.423Z" transform="translate(556.238 -1025.865)"/></g><g class="b" transform="translate(7.535 18.794)"><g class="l"><g class="b"><path class="m" d="M-556.183,1039.13l-.03,10.423-.162.1.03-10.423c.052-.032.107-.064.162-.1" transform="translate(558.146 -1039.13)"/><path class="n" d="M-556.171,1039.211l-.03,10.423a6.812,6.812,0,0,0-1.095.793l.03-10.423a6.788,6.788,0,0,1,1.095-.793" transform="translate(557.972 -1039.115)"/><path class="o" d="M-557.212,1039.878l-.03,10.423a3.2,3.2,0,0,0-.338.361l.029-10.423a3.218,3.218,0,0,1,.339-.361" transform="translate(557.919 -1038.989)"/><path class="p" d="M-557.524,1040.182l-.029,10.423a1.976,1.976,0,0,0-.17.25l.03-10.423a1.963,1.963,0,0,1,.169-.25" transform="translate(557.892 -1038.932)"/><path class="q" d="M-557.677,1040.392l-.03,10.423a1.532,1.532,0,0,0-.1.206l.03-10.423a1.6,1.6,0,0,1,.1-.206" transform="translate(557.877 -1038.892)"/><path class="r" d="M-557.766,1040.565l-.03,10.423a1.209,1.209,0,0,0-.052.182l.03-10.423a1.243,1.243,0,0,1,.052-.182" transform="translate(557.868 -1038.859)"/><path class="s" d="M-557.815,1040.718l-.03,10.423a1.088,1.088,0,0,0-.02.172l.03-10.423a.957.957,0,0,1,.02-.172" transform="translate(557.865 -1038.831)"/><path class="t" d="M-557.835,1040.863l-.03,10.423v.025l.03-10.423v-.025" transform="translate(557.865 -1038.803)"/></g></g></g><g transform="translate(20.203 9.026)"><path class="j" d="M-520.391,1030.911l-.03,10.423-26.786,15.566.03-10.423Z" transform="translate(547.207 -1030.911)"/></g><g transform="translate(0.03)"><path class="k" d="M-517.191,1032.343l-26.786,15.566c-5.617,3.264-11.515,3.594-16.657.624s-4.594-6.386,1.023-9.65l26.786-15.566,5.245,3.027-27.131,15.767c-2.514,1.462-2.385,2.592-.712,3.558s3.626,1.037,6.141-.424l27.131-15.766Z" transform="translate(564.18 -1023.317)"/></g><g class="b" transform="translate(0 20.85)"><g class="u"><g class="b"><path class="m" d="M-546.531,1044.008l-.03,10.423a20.977,20.977,0,0,1-4.072,1.836l.029-10.423a20.884,20.884,0,0,0,4.073-1.836" transform="translate(566.764 -1040.266)"/><path class="n" d="M-550.247,1045.553l-.029,10.423a17.632,17.632,0,0,1-2.253.568l.03-10.424a17.411,17.411,0,0,0,2.252-.568" transform="translate(566.406 -1039.975)"/><path class="o" d="M-552.293,1046.031l-.03,10.424c-.434.078-.866.14-1.3.183l.03-10.423c.431-.043.864-.1,1.3-.183" transform="translate(566.201 -1039.885)"/><path class="p" d="M-553.432,1046.185l-.03,10.423q-.5.05-1.007.067l.03-10.422q.5-.018,1.007-.068" transform="translate(566.041 -1039.856)"/><path class="q" d="M-554.3,1046.242l-.03,10.422q-.449.016-.9,0l.03-10.423q.448.011.9,0" transform="translate(565.899 -1039.845)"/><path class="r" d="M-555.057,1046.252l-.03,10.423q-.428-.011-.853-.046l.03-10.422q.426.034.853.045" transform="translate(565.763 -1039.852)"/><path class="s" d="M-555.774,1046.222l-.03,10.422q-.43-.034-.858-.1l.03-10.422c.285.041.571.073.858.1" transform="translate(565.627 -1039.867)"/><path class="t" d="M-556.487,1046.151l-.03,10.422q-.46-.064-.916-.159l.03-10.423q.456.094.916.16" transform="translate(565.482 -1039.893)"/><path class="v" d="M-557.237,1046.032l-.03,10.423c-.352-.074-.7-.159-1.051-.259l.03-10.423q.522.15,1.051.259" transform="translate(565.315 -1039.934)"/><path class="w" d="M-558.068,1045.847l-.03,10.423q-.7-.2-1.381-.469l.03-10.423q.685.271,1.381.469" transform="translate(565.096 -1040.008)"/><path class="x" d="M-558.558,1046.23l-.03,10.423a15.72,15.72,0,0,1-2.072-1c-2.389-1.379-3.549-2.854-3.545-4.365l.03-10.423c0,1.512,1.156,2.987,3.545,4.365a15.56,15.56,0,0,0,2.072,1" transform="translate(564.205 -1040.86)"/></g></g></g></g><g class="b" transform="translate(31.982 21.635)"><g transform="translate(25.076 3.028)"><path class="j" d="M-514.79,1035.194l-.03,10.423-15.33,8.908.03-10.423Z" transform="translate(530.149 -1035.194)"/></g><g transform="translate(29.548 10.016)"><path class="y" d="M-503.4,1041.073l-.03,10.423-22.96,4.9.03-10.423Z" transform="translate(526.387 -1041.073)"/></g><g transform="translate(16.033 16.262)"><path class="z" d="M-532.872,1046.328l-.029,10.423-4.857.931.03-10.423Z" transform="translate(537.758 -1046.328)"/></g><g transform="translate(5.245 17.192)"><path class="j" d="M-536.018,1047.111l-.03,10.423-10.788,6.269.03-10.423Z" transform="translate(546.835 -1047.111)"/></g><g transform="translate(0 20.433)"><path class="i" d="M-545.973,1052.866l-.03,10.423-5.245-3.028.03-10.423Z" transform="translate(551.248 -1049.838)"/></g><g transform="translate(11.96 27.338)"><path class="i" d="M-535.767,1058.758l-.03,10.423-5.388-3.111.03-10.423Z" transform="translate(541.185 -1055.648)"/></g><g transform="translate(0.03)"><path class="k" d="M-498.714,1042.662l-22.96,4.9-12.2,15.531-5.388-3.111,8.929-11.077-4.857.931-10.788,6.269-5.245-3.028,35.161-20.433,5.245,3.028-15.33,8.909,22.187-4.949Z" transform="translate(551.223 -1032.646)"/></g><g transform="translate(17.348 14.918)"><path class="aa" d="M-524.422,1045.2l-.03,10.423-12.2,15.531.03-10.423Z" transform="translate(536.652 -1045.198)"/></g></g><g class="b" transform="translate(50.33 35.315)"><g transform="translate(17.541 5.692)"><path class="j" d="M-500.729,1048.945l-.03,10.423-20.293,8.861.03-10.423Z" transform="translate(521.052 -1048.945)"/></g><g transform="translate(4.817 16.957)"><path class="j" d="M-524.443,1058.423l-.029,10.423-7.286,3.17.03-10.423Z" transform="translate(531.758 -1058.423)"/></g><g transform="translate(0 17.346)"><path class="i" d="M-530.964,1061.531l-.03,10.423-4.817-2.781.03-10.423Z" transform="translate(535.81 -1058.751)"/></g><g transform="translate(12.102 16.957)"><path class="i" d="M-519.169,1062.135l-.03,10.423-6.429-3.712.029-10.423Z" transform="translate(525.628 -1058.423)"/></g><g transform="translate(0.03)"><path class="k" d="M-487.6,1048.587l-29.813,23.521-5.307-3.064,5.469-4.219-6.429-3.712-7.286,3.17-4.816-2.78,40.508-17.347Zm-30.642,10.123,5.062,2.923,15.231-11.784-20.293,8.862" transform="translate(535.785 -1044.156)"/></g><g transform="translate(18.369 4.431)"><path class="ab" d="M-490.512,1047.884l-.03,10.423-29.813,23.52.03-10.423Z" transform="translate(520.355 -1047.884)"/></g><g transform="translate(13.062 24.888)"><path class="i" d="M-519.484,1068.16l-.03,10.423-5.307-3.064.029-10.423Z" transform="translate(524.82 -1065.096)"/></g></g><g class="b" transform="translate(71.067 44.2)"><g transform="translate(4.735 8.378)"><path class="j" d="M-488.9,1058.681l-.03,10.423-25.448,14.789.03-10.423Z" transform="translate(514.379 -1058.681)"/></g><g transform="translate(26.093 3.806)"><path class="ac" d="M-480.72,1054.834l-.03,10.423-15.66,15.342.03-10.423Z" transform="translate(496.409 -1054.834)"/></g><g transform="translate(0 20.433)"><path class="i" d="M-513.6,1071.557l-.03,10.423-4.735-2.734.03-10.423Z" transform="translate(518.363 -1068.824)"/></g><g transform="translate(0.03)"><path class="k" d="M-466.524,1061.247l-35.161,20.433-5.388-3.111,18.917-18.56L-513.6,1074.8l-4.735-2.734,35.16-20.433,6.592,3.806-15.66,15.343,21.048-12.232Z" transform="translate(518.338 -1051.632)"/></g><g transform="translate(16.654 9.615)"><path class="j" d="M-469.161,1059.722l-.03,10.423-35.161,20.433.029-10.423Z" transform="translate(504.351 -1059.722)"/></g><g transform="translate(11.266 26.938)"><path class="i" d="M-503.467,1077.407l-.029,10.423-5.388-3.111.03-10.423Z" transform="translate(508.884 -1074.297)"/></g></g><g class="b" transform="translate(94.908 57.983)"><g class="b" transform="translate(28.455 4.348)"><g class="ad"><g class="b" transform="translate(0 0)"><path class="x" d="M-467.806,1069l-.03,10.423c0-.543-.437-1.034-1.212-1.481a5.374,5.374,0,0,0-.711-.345l.03-10.423a5.644,5.644,0,0,1,.711.345c.775.448,1.214.938,1.212,1.481" transform="translate(475.231 -1066.832)"/><path class="w" d="M-469.657,1067.2l-.03,10.423c-.15-.058-.3-.11-.456-.155l.03-10.423c.155.044.307.1.456.155" transform="translate(475.159 -1066.857)"/><path class="v" d="M-470.058,1067.059l-.03,10.423c-.115-.033-.232-.062-.349-.087l.03-10.423c.118.025.234.053.349.087" transform="translate(475.103 -1066.87)"/><path class="t" d="M-470.359,1066.98l-.03,10.423c-.1-.02-.2-.038-.3-.053l.03-10.422c.1.014.2.032.3.052" transform="translate(475.055 -1066.879)"/><path class="s" d="M-470.618,1066.933l-.03,10.422q-.141-.02-.285-.032l.03-10.422q.144.011.285.032" transform="translate(475.01 -1066.884)"/><path class="r" d="M-470.858,1066.9l-.03,10.422c-.1-.007-.19-.012-.288-.014l.03-10.423c.1,0,.193.007.288.016" transform="translate(474.964 -1066.886)"/><path class="q" d="M-471.1,1066.888l-.03,10.423c-.1,0-.2,0-.305,0l.029-10.423c.1,0,.206,0,.307,0" transform="translate(474.916 -1066.887)"/><path class="p" d="M-471.348,1066.889l-.029,10.423c-.115,0-.233.012-.351.024l.03-10.423c.118-.012.234-.02.349-.024" transform="translate(474.86 -1066.886)"/><path class="o" d="M-471.624,1066.909l-.03,10.423c-.152.014-.307.037-.464.065l.03-10.423c.157-.029.311-.05.464-.065" transform="translate(474.786 -1066.882)"/><path class="n" d="M-471.953,1066.964l-.03,10.423a6.755,6.755,0,0,0-.849.214l.03-10.423a6.732,6.732,0,0,1,.849-.214" transform="translate(474.652 -1066.872)"/><path class="m" d="M-472.512,1067.144l-.03,10.423a9.33,9.33,0,0,0-1.821.83l.03-10.423a9.331,9.331,0,0,1,1.821-.83" transform="translate(474.363 -1066.838)"/></g></g></g><g class="b" transform="translate(38.479 6.411)"><g class="ae"><g class="b"><path class="t" d="M-462.043,1068.622l-.03,10.423v.076l.03-10.423v-.076" transform="translate(466.656 -1068.622)"/><path class="s" d="M-462.035,1068.686l-.03,10.423a2.978,2.978,0,0,1-.058.51l.03-10.423a2.984,2.984,0,0,0,.058-.51" transform="translate(466.647 -1068.61)"/><path class="r" d="M-462.069,1069.115l-.03,10.423a3.467,3.467,0,0,1-.153.53l.03-10.423a3.427,3.427,0,0,0,.153-.53" transform="translate(466.622 -1068.529)"/><path class="q" d="M-462.179,1069.561l-.03,10.423a4.178,4.178,0,0,1-.273.58l.03-10.423a4.179,4.179,0,0,0,.273-.58" transform="translate(466.579 -1068.445)"/><path class="p" d="M-462.379,1070.049l-.03,10.423a5.516,5.516,0,0,1-.464.685l.03-10.423a5.528,5.528,0,0,0,.464-.685" transform="translate(466.505 -1068.353)"/><path class="o" d="M-462.707,1070.625l-.03,10.423a8.042,8.042,0,0,1-.856.916l.03-10.423a8.048,8.048,0,0,0,.856-.916" transform="translate(466.37 -1068.244)"/><path class="n" d="M-463.172,1071.4l-.03,10.423a15.084,15.084,0,0,1-2.458,1.8l.03-10.423a15.087,15.087,0,0,0,2.458-1.8" transform="translate(465.98 -1068.099)"/><path class="m" d="M-465.58,1072.907l-.03,10.424-.32.19.03-10.424c.108-.063.215-.127.32-.19" transform="translate(465.929 -1067.814)"/></g></g></g><g transform="translate(35.072 11.694)"><path class="j" d="M-465.359,1073.067l-.03,10.423-3.406,1.979.03-10.423Z" transform="translate(468.795 -1073.067)"/></g><g transform="translate(30.133 10.822)"><path class="i" d="M-467.982,1075.185l-.03,10.423-4.939-2.852.03-10.423Z" transform="translate(472.951 -1072.333)"/></g><g transform="translate(9.456 5.484)"><path class="j" d="M-471.319,1067.842l-.03,10.423-19,11.041.03-10.423Z" transform="translate(490.348 -1067.842)"/></g><g transform="translate(19.006 14.522)"><path class="i" d="M-479.9,1076.825l-.03,10.423-2.388-1.379.03-10.423Z" transform="translate(482.313 -1075.446)"/></g><g class="b" transform="translate(7.547 16.525)"><g class="af"><g class="b"><path class="m" d="M-490.295,1077.132l-.029,10.423-.157.093.03-10.423.156-.093" transform="translate(492.232 -1077.132)"/><path class="n" d="M-490.28,1077.21l-.03,10.423a6.673,6.673,0,0,0-1.074.778l.03-10.423a6.749,6.749,0,0,1,1.074-.778" transform="translate(492.061 -1077.117)"/><path class="o" d="M-491.3,1077.865l-.03,10.423a3.206,3.206,0,0,0-.336.36l.03-10.423a3.18,3.18,0,0,1,.336-.36" transform="translate(492.008 -1076.994)"/><path class="p" d="M-491.611,1078.168l-.03,10.423a1.963,1.963,0,0,0-.169.25l.029-10.422a2.031,2.031,0,0,1,.17-.251" transform="translate(491.981 -1076.937)"/><path class="q" d="M-491.765,1078.379l-.029,10.422a1.488,1.488,0,0,0-.1.207l.03-10.424a1.524,1.524,0,0,1,.1-.206" transform="translate(491.966 -1076.897)"/><path class="r" d="M-491.854,1078.552l-.03,10.424a1.227,1.227,0,0,0-.052.184l.029-10.423a1.4,1.4,0,0,1,.053-.184" transform="translate(491.957 -1076.864)"/><path class="s" d="M-491.9,1078.707l-.029,10.423a.972.972,0,0,0-.02.173l.03-10.423a1.1,1.1,0,0,1,.019-.173" transform="translate(491.954 -1076.835)"/><path class="t" d="M-491.923,1078.853l-.03,10.423v.026l.03-10.423v-.026" transform="translate(491.954 -1076.807)"/></g></g></g><g transform="translate(20.209 15.83)"><path class="j" d="M-470.119,1076.547l-.03,10.423-11.153,6.481.03-10.423Z" transform="translate(481.301 -1076.547)"/></g><g class="b" transform="translate(0 18.568)"><g class="ag"><g class="b"><path class="m" d="M-480.621,1082l-.03,10.424a21.019,21.019,0,0,1-4.1,1.849l.03-10.424a21.021,21.021,0,0,0,4.1-1.849" transform="translate(500.859 -1078.257)"/><path class="n" d="M-484.366,1083.556l-.03,10.423a17.461,17.461,0,0,1-2.24.566l.03-10.423a17.461,17.461,0,0,0,2.24-.566" transform="translate(500.504 -1077.964)"/><path class="o" d="M-486.4,1084.032l-.03,10.423q-.645.116-1.29.181l.029-10.423q.645-.062,1.291-.181" transform="translate(500.299 -1077.874)"/><path class="p" d="M-487.534,1084.184l-.029,10.423q-.5.05-1,.068l.03-10.423q.5-.018,1-.068" transform="translate(500.141 -1077.845)"/><path class="q" d="M-488.391,1084.241l-.03,10.423q-.446.014-.889,0l.03-10.423c.295.007.592.006.889,0" transform="translate(500 -1077.835)"/><path class="r" d="M-489.146,1084.251l-.03,10.423c-.284-.007-.566-.023-.849-.045l.03-10.423c.282.024.565.038.849.045" transform="translate(499.865 -1077.841)"/><path class="s" d="M-489.859,1084.221l-.03,10.423q-.428-.036-.853-.1l.03-10.422q.426.059.853.1" transform="translate(499.73 -1077.856)"/><path class="t" d="M-490.568,1084.151l-.03,10.422q-.458-.064-.912-.159l.029-10.424q.455.094.913.16" transform="translate(499.585 -1077.882)"/><path class="v" d="M-491.314,1084.032l-.029,10.423c-.352-.073-.7-.159-1.049-.258l.03-10.423c.347.1.7.185,1.048.258" transform="translate(499.419 -1077.923)"/><path class="w" d="M-492.143,1083.849l-.03,10.423q-.7-.2-1.383-.471l.03-10.423q.686.271,1.383.471" transform="translate(499.199 -1077.997)"/><path class="x" d="M-492.631,1084.232l-.03,10.423a15.937,15.937,0,0,1-2.092-1.014c-2.391-1.38-3.556-2.855-3.551-4.367l.03-10.423c0,1.512,1.16,2.987,3.551,4.367a15.882,15.882,0,0,0,2.092,1.014" transform="translate(498.304 -1078.851)"/></g></g></g><g transform="translate(0.03)"><path class="k" d="M-458.777,1065.271c5.164,2.981,4.614,6.375-1.023,9.651l-3.406,1.979-4.94-2.851,3.771-2.192c2.515-1.461,2.407-2.628.733-3.594-1.653-.954-3.668-1.013-6.183.448l-19,11.041c-2.494,1.449-2.345,2.592-.692,3.547,1.674.966,3.648,1.048,6.141-.4l6.489-3.771-2.388-1.379,5.029-2.922,7.327,4.231-11.153,6.481c-5.637,3.276-11.494,3.606-16.657.624-5.143-2.969-4.613-6.374,1.023-9.651l18.27-10.617C-469.8,1062.619-463.92,1062.3-458.777,1065.271Z" transform="translate(498.279 -1063.228)"/></g></g></g></g></g></g></svg>