<svg xmlns="http://www.w3.org/2000/svg" xmlns:xlink="http://www.w3.org/1999/xlink" width="201.882" height="231.046" viewBox="0 0 201.882 231.046"><defs><style>.a,.d{fill:none;}.b{isolation:isolate;}.c{fill:#00b7d1;}.d{stroke:#fff;stroke-width:9.319px;}.d,.e{stroke-linejoin:round;}.e,.g{fill:#fff;}.e{stroke:#155e85;stroke-width:4.66px;}.f{fill:#166da2;}.h{fill:#166fa4;}.i{fill:#08547f;}.j{clip-path:url(#a);}.k{fill:#07527d;}.l{clip-path:url(#b);}.m{fill:#0c5985;}.n{fill:#0d5b88;}.o{fill:#0f5d8b;}.p{fill:#105f8e;}.q{fill:#116292;}.r{fill:#126495;}.s{fill:#136798;}.t{fill:#14699c;}.u{clip-path:url(#c);}.v{fill:#0a5682;}.w{fill:#085480;}.x{clip-path:url(#d);}.y{clip-path:url(#e);}.z{clip-path:url(#f);}.aa{clip-path:url(#g);}.ab{fill:#b0b2b2;}.ac{fill:#2d2d2c;}.ad{fill:#6e7072;}</style><clipPath id="a"><path class="a" d="M-522.522,254.325l-.025,8.77c0-.473-.4-.9-1.117-1.317l.025-8.77C-522.926,253.42-522.52,253.852-522.522,254.325Z"/></clipPath><clipPath id="b"><path class="a" d="M-515.961,254.585l-.025,8.77c0,1.431-1.262,2.871-3.708,4.292l.025-8.77C-517.223,257.456-515.965,256.016-515.961,254.585Z"/></clipPath><clipPath id="c"><path class="a" d="M-534.631,267.572l-.025,8.77c-4.726,2.747-9.6,2.915-14.274.219l.025-8.77C-544.234,270.487-539.357,270.319-534.631,267.572Z"/></clipPath><clipPath id="d"><path class="a" d="M-489.785,272.851l-.024,8.77c0-.482-.4-.923-1.11-1.333-1.493-.863-3.223-.932-5.338.3l.025-8.769c2.115-1.23,3.844-1.16,5.338-.3C-490.184,271.928-489.783,272.369-489.785,272.851Z"/></clipPath><clipPath id="e"><path class="a" d="M-483.326,273.124l-.025,8.77c0,1.469-1.239,2.952-3.666,4.363l.025-8.77C-484.565,276.077-483.331,274.593-483.326,273.124Z"/></clipPath><clipPath id="f"><path class="a" d="M-513.831,291.626l.025-8.77c0-.532.494-1.115,1.605-1.76l-.025,8.769C-513.337,290.511-513.829,291.094-513.831,291.626Z"/></clipPath><clipPath id="g"><path class="a" d="M-520.289,291.353l.025-8.77c0,1.392,1.1,2.772,3.336,4.065a14.077,14.077,0,0,0,14.548-.218l-.025,8.769a14.075,14.075,0,0,1-14.548.219C-519.192,294.125-520.293,292.745-520.289,291.353Z"/></clipPath></defs><g transform="translate(-853.599 -3659.203)"><g class="b" transform="translate(854.283 3725.479)"><path class="c" d="M115.465,17.616l-7.093-4.095L5.974,73.448c-8.918,5.183-8.871,13.617.106,18.8l123.892,70.781,7.047-4.1L13.127,88.152c-5.063-2.923-5.1-7.682-.059-10.609l102.4-59.927"/></g><g transform="translate(1490.925 3588.255)"><path class="d" d="M-564.4,260.841l-.019,6.777h0l4.688,2.706,3.411-1.982-.011,3.945,7.4,4.273A15.586,15.586,0,0,0-547,277.5c.047.019.093.049.14.067.422.167.845.31,1.27.432.044.012.087.02.131.032.061.017.121.029.182.045.213.055.425.113.638.157q.4.083.8.139c.058.008.116.012.175.019l.134.016c.142.016.285.036.427.047q.361.03.721.039c.166,0,.331,0,.5,0h.117c.045,0,.09,0,.135,0q.417-.015.836-.057c.148-.015.3-.043.446-.063l.18-.025h0c.079-.012.158-.02.237-.033.056-.01.112-.014.167-.024.238-.043.475-.124.713-.18l.078-.018-.012,4.213,12.759,7.366,4.231-2.459.012-4.385.013-4.384-.513-.3,1.067-.62,3.166,1.828c-1.544,1.24-2.163,2.516-1.9,3.775h0a2.658,2.658,0,0,1-.107-.543h0l-.013,4.379-.012,4.391a3.1,3.1,0,0,0,.592,1.682,7.917,7.917,0,0,0,2.744,2.383,14.878,14.878,0,0,0,1.876.907c.035.014.068.036.1.05q.641.252,1.291.438c.065.019.13.031.194.048s.154.038.231.057h0l.09.022c.158.039.315.084.474.117q.418.087.84.147c.071.01.143.014.214.024h0l.152.017.2.022c.072.007.144.018.216.024.257.021.515.035.772.042.163,0,.325,0,.487,0,.049,0,.1,0,.146,0h0c.056,0,.112,0,.169,0q.447-.017.895-.061c.183-.018.367-.051.55-.077.1-.014.2-.025.3-.041.081-.013.161-.02.241-.034.224-.04.445-.117.668-.168.348-.08.7-.156,1.043-.263.071-.021.143-.031.214-.054.109-.035.217-.084.326-.126.2-.07.4-.152.6-.231s.375-.135.561-.217a16.869,16.869,0,0,0,1.7-.858l15.388-8.943c.08-.046.158-.092.235-.139a12.872,12.872,0,0,0,1.236-.847c.093-.071.175-.142.261-.213.134-.11.284-.219.4-.33a6.556,6.556,0,0,0,.463-.494c.055-.062.123-.124.174-.186.022-.026.052-.052.073-.078a4.787,4.787,0,0,0,.4-.585,3.324,3.324,0,0,0,.156-.333c.013-.029.03-.058.041-.087s.03-.056.04-.085a2.96,2.96,0,0,0,.134-.463,2.8,2.8,0,0,0,.052-.453c0-.023,0-.046,0-.069l.025-8.77h0c0,.019-.012.038-.012.057v0a3.2,3.2,0,0,0-.8-2.1c-.027-.033-.073-.066-.1-.1a6.651,6.651,0,0,0-.94-.922,11.661,11.661,0,0,0-1.485-1,14.659,14.659,0,0,0-2.2-1.016c-.175-.065-.351-.12-.527-.178a13.707,13.707,0,0,0-2.014-.506c-.079-.013-.156-.033-.235-.045a13.652,13.652,0,0,0-5,.184l.011-3.792-12.759-7.367-3.271,1.9-3.327,1.934.015-5.558v-.031h0c0,.022-.014.043-.015.065v0a3.044,3.044,0,0,0-.795-2.037c-.026-.031-.07-.062-.1-.093a6.881,6.881,0,0,0-.953-.915,12.571,12.571,0,0,0-1.5-1l-7.4-4.273-3.411,1.982.011-3.945h0l-4.651,2.7L-537,248.358h0l6.874-3.994-4.688-2.707h0l-2.171,1.262v-.226l.006-2.285-2.146-1.239-2.147-1.24h0l-5.126,2.214-2.038.88.021-7.218h0l-2.362-1.363-2.361-1.364-25,19.839-.025,8.77,6.989,4.035Zm80.929,12.967a2.654,2.654,0,0,1-.082.386c-.006.016-.016.033-.023.049l-.008.018A3,3,0,0,0-483.471,273.808Zm-.528,1.119c-.08.116-.125.233-.22.349-.009.012-.022.023-.032.035A4.21,4.21,0,0,0-484,274.927Zm-1.168,1.27c.047-.04.082-.08.127-.119-.032.028-.061.056-.089.085-.049.042-.081.084-.132.125l-.014.012-.014.011C-485.242,276.273-485.206,276.235-485.167,276.2Zm-25.584-2.2.007-2.673,1.8-1.044,3.02,1.743-4.827,2.8Zm-1.708,7.272.021-.014-.011.008c-.158.1-.325.2-.454.3C-512.776,281.461-512.616,281.363-512.459,281.264Zm-.622.449-.026.024-.005,0Zm-.24.211h0c-.012.012-.022.024-.033.036l-.014.012c-.008.009-.022.018-.029.026C-513.374,281.973-513.345,281.948-513.321,281.924Zm-2.825-26.53c.009-.046.024-.092.036-.137-.007.028-.009.057-.018.085a1.2,1.2,0,0,1-.062.278c-.011.028-.026.055-.038.083A2.934,2.934,0,0,0-516.146,255.394Zm-.685,1.222c.073-.088.119-.177.182-.265-.073.1-.116.207-.2.311-.011.013-.026.026-.037.04C-516.865,256.673-516.851,256.644-516.831,256.616Zm-.88.87c-.069.061-.122.122-.2.183l-.034.029C-517.855,257.627-517.793,257.557-517.711,257.486Zm-44.7,2.507,2.7,1.561,17.445-10.137h0l-17.446,10.138-2.7-1.561Z"/><path class="e" d="M-564.4,260.841l-.019,6.777,4.688,2.706,3.411-1.982-.011,3.945,7.4,4.273A15.52,15.52,0,0,0-547,277.5c.046.019.093.049.14.067.422.167.845.31,1.27.432.043.012.087.02.131.032.061.017.122.029.183.045.212.055.424.113.637.157q.4.083.8.139c.058.008.117.012.175.02l.133.014c.143.017.285.037.428.049q.361.028.721.038c.165,0,.33,0,.495,0h.12c.044,0,.089,0,.134,0q.417-.015.836-.057c.208-.021.417-.057.625-.088.08-.012.159-.02.238-.033.055-.01.111-.014.167-.024.238-.043.476-.124.713-.18l.078-.018-.012,4.213,12.759,7.366,4.231-2.459.025-8.769-.513-.3,1.067-.62,3.166,1.828c-1.544,1.24-2.164,2.517-1.9,3.776a2.658,2.658,0,0,1-.107-.543l-.025,8.77c0,1.392,1.1,2.772,3.336,4.065a15.006,15.006,0,0,0,1.875.907c.035.014.068.036.1.05q.641.252,1.291.438c.065.019.13.031.194.048s.155.038.232.057c.188.048.375.1.564.139q.418.087.84.147c.071.01.143.015.214.024l.153.017c.139.015.277.035.417.046.256.021.514.035.771.042.162,0,.324,0,.486,0,.049,0,.1,0,.149,0s.113,0,.169,0q.447-.017.895-.061c.184-.018.368-.051.552-.077.1-.014.2-.025.294-.041.081-.013.161-.02.241-.034.224-.04.445-.117.668-.168.348-.08.7-.156,1.042-.262.071-.022.143-.031.215-.055.311-.1.619-.236.928-.358.186-.074.374-.135.56-.217a16.951,16.951,0,0,0,1.7-.857l15.388-8.942.236-.14a12.979,12.979,0,0,0,1.235-.847c.093-.07.175-.142.261-.213.134-.11.284-.219.4-.33a6.528,6.528,0,0,0,.462-.493c.056-.063.125-.125.176-.188.021-.026.051-.051.072-.077a4.787,4.787,0,0,0,.4-.585,3.563,3.563,0,0,0,.156-.333c.013-.029.03-.058.041-.087s.03-.056.04-.085a2.96,2.96,0,0,0,.134-.463,2.794,2.794,0,0,0,.052-.454c0-.022,0-.045,0-.068l.025-8.77c0,.019-.012.038-.012.057.034-1.412-1.055-2.811-3.325-4.122a13.715,13.715,0,0,0-9.968-1.561l.011-3.792-12.759-7.367-6.6,3.835.016-5.589c0,.022-.014.043-.015.065.04-1.366-1.048-2.724-3.346-4.051l-7.4-4.273-3.411,1.982.011-3.945L-537,248.358h0l6.874-3.994-4.688-2.707-2.171,1.262.007-2.511-4.293-2.479-7.164,3.094.021-7.218-4.723-2.726-25,19.838-.025,8.77,6.989,4.035Zm50.6,21.923,0,.028Zm1.349-1.506c-.159.1-.326.2-.455.3.134-.1.3-.205.469-.308Zm-.658.479-.006,0,.038-.033Zm-.246.222c-.012.012-.032.026-.044.039.023-.025.053-.051.078-.076Zm-.334.447.014-.031Zm2.933-7.582.01-3.505,1.8-1.045,3.02,1.744Zm-7.154-17.155-.037.03c.092-.074.158-.148.244-.221C-517.776,257.542-517.829,257.606-517.908,257.669Zm-2.16,25.911a3.736,3.736,0,0,0,.359.622A3.81,3.81,0,0,1-520.068,283.58Zm.613,1.044a6.549,6.549,0,0,0,.69.679A6.549,6.549,0,0,1-519.455,284.624Zm1.046,1.025a11.927,11.927,0,0,0,1.481,1A11.927,11.927,0,0,1-518.409,285.649Zm33.148-9.361-.028.023c.1-.078.163-.157.252-.236C-485.117,276.146-485.175,276.217-485.261,276.288Zm1.708-2.093c-.009.022-.022.044-.031.067a2.919,2.919,0,0,0,.113-.456A2.693,2.693,0,0,1-483.553,274.2Zm-.444.729c-.08.117-.126.235-.221.352-.01.012-.023.023-.033.035A4.5,4.5,0,0,0-484,274.924Zm-5.807-2.12a1.064,1.064,0,0,0-.263-.635A1.058,1.058,0,0,1-489.8,272.8Zm-.306-.676a3.148,3.148,0,0,0-.784-.61A3.148,3.148,0,0,1-490.11,272.128Zm-26.08-16.508c-.011.028-.026.056-.039.083a2.718,2.718,0,0,0,.12-.447A2.755,2.755,0,0,1-516.19,255.62Zm-.457.727c-.074.105-.117.21-.205.315-.011.013-.026.027-.038.04A4.232,4.232,0,0,0-516.647,256.347Zm-5.893-2.066a1.033,1.033,0,0,0-.268-.627A1.033,1.033,0,0,1-522.54,254.281Zm-.307-.664a3.253,3.253,0,0,0-.792-.609A3.253,3.253,0,0,1-522.847,253.617Zm-19.413-2.2-17.446,10.138-2.7-1.561h0l2.7,1.561,17.445-10.137Z"/><g class="b"><path class="f" d="M-548.411,233.8l-.025,8.77-20.569,16.091.025-8.77Z"/><path class="g" d="M-536.975,240.407l-34.168,14.545-6.989-4.035,25-19.839,4.722,2.726L-568.98,249.9l27.712-11.967Z"/><path class="h" d="M-536.975,240.407l-.025,8.77-34.168,14.545.025-8.77Z"/><path class="i" d="M-571.143,254.952l-.025,8.77-6.989-4.035.025-8.77Z"/></g><g class="b"><path class="g" d="M-530.123,244.363l-29.583,17.191-4.688-2.707,29.583-17.191Z"/><path class="h" d="M-530.123,244.363l-.025,8.77-29.583,17.192.025-8.77Z"/><path class="i" d="M-559.706,261.555l-.025,8.77-4.688-2.707.025-8.77Z"/></g><g class="b"><path class="i" d="M-523.639,253.008l-.025,8.77-2.645-1.527.025-8.77Z"/><g class="b"><g class="j"><g class="b"><path class="k" d="M-522.522,254.325l-.025,8.77c0-.473-.4-.9-1.117-1.317l.025-8.77c.713.412,1.119.844,1.117,1.317"/></g></g></g><g class="b"><g class="l"><g class="b"><path class="m" d="M-515.961,254.585l-.025,8.77v.064l.025-8.77v-.064"/><path class="n" d="M-515.962,254.649l-.025,8.77a2.542,2.542,0,0,1-.049.423l.025-8.77a2.541,2.541,0,0,0,.049-.423"/><path class="o" d="M-516.011,255.072l-.025,8.77a2.832,2.832,0,0,1-.125.434l.025-8.77a2.8,2.8,0,0,0,.125-.434"/><path class="p" d="M-516.136,255.506l-.025,8.77a3.393,3.393,0,0,1-.222.472l.025-8.77a3.348,3.348,0,0,0,.222-.472"/><path class="q" d="M-516.358,255.978l-.025,8.77a4.512,4.512,0,0,1-.381.563l.025-8.77a4.433,4.433,0,0,0,.381-.563"/><path class="r" d="M-516.739,256.541l-.025,8.77a6.474,6.474,0,0,1-.69.738l.025-8.77a6.469,6.469,0,0,0,.69-.738"/><path class="s" d="M-517.429,257.279l-.025,8.77a12.2,12.2,0,0,1-1.981,1.445l.025-8.77a12.2,12.2,0,0,0,1.981-1.445"/><path class="t" d="M-519.41,258.724l-.025,8.77-.259.153.025-8.77.259-.153"/></g></g></g><path class="h" d="M-526.283,251.481l-.025,8.77-21.121,12.274.025-8.77Z"/><path class="h" d="M-519.669,258.877l-.025,8.77-14.962,8.7.025-8.77Z"/><path class="i" d="M-548.9,267.791l-.025,8.77-7.4-4.273.025-8.77Z"/><path class="g" d="M-519.322,250.6c4.671,2.7,4.4,5.522-.347,8.278l-14.962,8.695c-4.726,2.747-9.6,2.915-14.274.219l-7.4-4.273,29.583-17.192Zm-20.185,14.4,15.389-8.943c2.116-1.23,1.973-2.181.479-3.044l-2.644-1.527L-547.4,263.755l2.644,1.527c1.494.863,3.138.942,5.253-.287"/><g class="b"><g class="u"><g class="b"><path class="t" d="M-534.631,267.572l-.025,8.77a16.864,16.864,0,0,1-3.272,1.48l.025-8.77a16.867,16.867,0,0,0,3.272-1.48"/><path class="s" d="M-537.9,269.052l-.025,8.77a14.137,14.137,0,0,1-1.838.464l.025-8.77a14.172,14.172,0,0,0,1.838-.464"/><path class="r" d="M-539.741,269.516l-.025,8.77c-.343.062-.687.111-1.03.145l.024-8.77q.516-.051,1.031-.145"/><path class="q" d="M-540.772,269.661l-.024,8.77q-.418.042-.836.057l.025-8.77c.278-.01.557-.029.835-.057"/><path class="p" d="M-541.607,269.718l-.025,8.77c-.25.008-.5.009-.749,0l.025-8.77c.25.007.5.005.749,0"/><path class="o" d="M-542.356,269.721l-.025,8.77q-.36-.009-.721-.038l.025-8.77c.24.02.481.032.721.038"/><path class="n" d="M-543.077,269.683l-.025,8.77c-.245-.021-.491-.048-.736-.083l.024-8.77c.246.035.491.062.737.083"/><path class="m" d="M-543.814,269.6l-.024,8.77q-.4-.057-.8-.139l.025-8.77c.265.055.531.1.8.139"/><path class="v" d="M-544.61,269.461l-.025,8.77q-.477-.1-.951-.234l.025-8.77q.474.135.951.234"/><path class="w" d="M-545.561,269.227l-.025,8.77c-.425-.122-.848-.265-1.27-.432l.024-8.769q.634.249,1.271.431"/><path class="k" d="M-546.832,268.8l-.024,8.769a15.518,15.518,0,0,1-2.074-1l.025-8.77a15.691,15.691,0,0,0,2.073,1.005"/></g></g></g></g><g class="b"><path class="h" d="M-496.62,263.706l-.025,8.77-4.231,2.459.025-8.77Z"/><path class="i" d="M-500.851,266.164l-.025,8.77-8.071-4.66.025-8.77Z"/><path class="h" d="M-508.922,261.5l-.025,8.77-8.24,4.789.025-8.77Z"/><path class="h" d="M-510.74,270l-.025,8.77L-515,281.23l.025-8.77Z"/><path class="i" d="M-514.971,272.46l-.025,8.77-6.422-3.708.025-8.77Z"/><path class="h" d="M-521.393,268.752l-.025,8.77-8.65,5.027.025-8.77Z"/><path class="i" d="M-526.2,280.9l-.025,8.77-12.759-7.366.025-8.77Z"/><path class="h" d="M-521.972,278.439l-.025,8.77-4.231,2.459.025-8.77Z"/><path class="g" d="M-496.62,263.706l-4.231,2.459-8.071-4.66-8.24,4.789L-510.74,270l-4.231,2.459-6.422-3.708-8.65,5.027,8.071,4.66L-526.2,280.9l-12.759-7.366,29.583-17.192Z"/></g><g class="b"><g class="b"><g class="x"><g class="b"><path class="k" d="M-489.785,272.851l-.024,8.77c0-.482-.4-.923-1.11-1.333a4.987,4.987,0,0,0-.679-.329l.025-8.77a5.106,5.106,0,0,1,.679.329c.71.41,1.111.851,1.109,1.333"/><path class="w" d="M-491.573,271.189l-.025,8.77a4.327,4.327,0,0,0-.416-.141l.025-8.77a4.336,4.336,0,0,1,.416.141"/><path class="v" d="M-491.989,271.048l-.025,8.77c-.1-.03-.21-.056-.317-.079l.025-8.769c.107.022.212.048.317.078"/><path class="m" d="M-492.306,270.97l-.025,8.769c-.089-.018-.178-.033-.268-.046l.025-8.77c.09.013.179.028.268.047"/><path class="n" d="M-492.574,270.923l-.025,8.77c-.083-.012-.167-.021-.251-.028l.025-8.77c.084.007.168.016.251.028"/><path class="o" d="M-492.825,270.895l-.025,8.77c-.083-.007-.166-.012-.249-.014l.024-8.77c.084,0,.167.007.25.014"/><path class="p" d="M-493.075,270.881l-.024,8.77c-.088,0-.175,0-.264,0l.025-8.77c.089,0,.176,0,.263,0"/><path class="q" d="M-493.338,270.883l-.025,8.77c-.1,0-.2.01-.3.02l.025-8.77c.1-.01.2-.017.3-.02"/><path class="r" d="M-493.641,270.9l-.025,8.77c-.129.013-.259.031-.392.055l.025-8.77c.132-.024.263-.042.392-.055"/><path class="s" d="M-494.033,270.958l-.025,8.77a5.544,5.544,0,0,0-.709.18l.025-8.77a5.5,5.5,0,0,1,.709-.18"/><path class="t" d="M-494.742,271.138l-.025,8.77a7.607,7.607,0,0,0-1.49.677l.025-8.769a7.556,7.556,0,0,1,1.49-.678"/></g></g></g><g class="b"><g class="y"><g class="b"><path class="m" d="M-483.326,273.124l-.025,8.77c0,.023,0,.046,0,.069l.025-8.77c0-.023,0-.046,0-.069"/><path class="n" d="M-483.327,273.193l-.025,8.77a2.8,2.8,0,0,1-.052.453l.024-8.77a2.69,2.69,0,0,0,.053-.453"/><path class="o" d="M-483.38,273.646l-.024,8.77a3,3,0,0,1-.134.464l.025-8.77a2.888,2.888,0,0,0,.133-.464"/><path class="p" d="M-483.513,274.11l-.025,8.77a3.577,3.577,0,0,1-.237.5l.025-8.77a3.572,3.572,0,0,0,.237-.5"/><path class="q" d="M-483.75,274.614l-.025,8.77a4.711,4.711,0,0,1-.4.585l.025-8.77a4.64,4.64,0,0,0,.4-.585"/><path class="r" d="M-484.146,275.2l-.025,8.77a6.5,6.5,0,0,1-.71.758l.025-8.769a6.679,6.679,0,0,0,.71-.759"/><path class="s" d="M-484.856,275.958l-.025,8.769a11.7,11.7,0,0,1-1.9,1.39l.025-8.769a11.758,11.758,0,0,0,1.9-1.39"/><path class="t" d="M-486.757,277.348l-.025,8.769c-.077.047-.155.093-.235.14l.025-8.77.235-.139"/></g></g></g><path class="h" d="M-496.232,271.816l-.025,8.77-15.969,9.28.025-8.77Z"/><g class="b"><g class="z"><g class="b"><path class="t" d="M-512.2,281.1l-.025,8.769-.128.076.025-8.769c.042-.026.084-.051.128-.076"/><path class="s" d="M-512.329,281.172l-.025,8.769a5.546,5.546,0,0,0-.9.653l.025-8.77a5.546,5.546,0,0,1,.9-.652"/><path class="r" d="M-513.227,281.824l-.025,8.77a2.624,2.624,0,0,0-.285.3l.025-8.77a2.633,2.633,0,0,1,.285-.3"/><path class="q" d="M-513.512,282.128l-.025,8.77a1.744,1.744,0,0,0-.146.216l.025-8.77a1.76,1.76,0,0,1,.146-.216"/><path class="p" d="M-513.658,282.344l-.025,8.77a1.244,1.244,0,0,0-.084.178l.025-8.77a1.244,1.244,0,0,1,.084-.178"/><path class="o" d="M-513.742,282.522l-.025,8.77a1.108,1.108,0,0,0-.046.16l.025-8.77a.99.99,0,0,1,.046-.16"/><path class="n" d="M-513.788,282.682l-.025,8.77a1,1,0,0,0-.018.152l.025-8.77a.89.89,0,0,1,.018-.152"/><path class="m" d="M-513.806,282.834l-.025,8.77v.022l.025-8.77v-.022"/></g></g></g><path class="h" d="M-486.992,277.487l-.025,8.77-15.389,8.943.025-8.77Z"/><g class="b"><g class="aa"><g class="b"><path class="t" d="M-502.38,286.43l-.025,8.769a16.4,16.4,0,0,1-3.183,1.432l.025-8.769a16.461,16.461,0,0,0,3.183-1.432"/><path class="s" d="M-505.563,287.862l-.025,8.769a14.658,14.658,0,0,1-1.925.485l.025-8.77a14.856,14.856,0,0,0,1.925-.484"/><path class="r" d="M-507.488,288.346l-.025,8.77q-.543.1-1.087.152l.024-8.769q.544-.055,1.088-.153"/><path class="q" d="M-508.576,288.5l-.024,8.769q-.448.045-.895.061l.025-8.77c.3-.01.6-.031.894-.06"/><path class="p" d="M-509.47,288.559l-.025,8.77q-.4.014-.8,0l.025-8.77q.4.009.8,0"/><path class="o" d="M-510.274,288.563l-.025,8.77c-.257-.007-.515-.021-.771-.042l.024-8.77c.257.022.515.035.772.042"/><path class="n" d="M-511.046,288.521l-.024,8.77c-.262-.021-.523-.051-.784-.087l.025-8.77q.392.056.783.087"/><path class="m" d="M-511.829,288.434l-.025,8.77q-.422-.06-.84-.147l.025-8.77q.418.087.84.147"/><path class="v" d="M-512.669,288.287l-.025,8.77q-.5-.1-.99-.244l.025-8.769q.493.141.99.243"/><path class="w" d="M-513.659,288.044l-.025,8.769q-.649-.186-1.291-.438l.025-8.77q.641.252,1.291.439"/><path class="k" d="M-514.95,287.605l-.025,8.77a14.9,14.9,0,0,1-1.978-.957c-2.239-1.293-3.34-2.673-3.336-4.065l.025-8.77c0,1.392,1.1,2.772,3.336,4.065a14.9,14.9,0,0,0,1.978.957"/></g></g></g><path class="g" d="M-486.663,269.059c4.6,2.657,4.4,5.681-.329,8.428l-15.388,8.943a14.077,14.077,0,0,1-14.548.218c-4.6-2.657-4.4-5.681.329-8.428l15.389-8.942A14.073,14.073,0,0,1-486.663,269.059Zm-20.7,14.833,15.968-9.28c2.116-1.23,1.99-2.231.5-3.094s-3.223-.932-5.338.3L-512.2,281.1c-2.115,1.229-1.99,2.23-.5,3.093s3.223.932,5.339-.3"/></g></g><g transform="translate(864.524 3616)"><g transform="translate(0 43.203)"><g class="b"><g transform="translate(0.045)"><path class="ab" d="M170.555,458.871c10.463-6.131,27.609-6.173,38.229-.094l68.86,39.419c10.62,6.08,10.748,16.011.289,22.141L209.924,560.2c-10.463,6.13-27.609,6.173-38.229.094l-68.86-39.423c-10.62-6.08-10.748-16.011-.289-22.141Zm103.854,41.222-68.86-39.419c-8.818-5.046-23.056-5-31.707.077l-68.01,39.861c-8.686,5.089-8.579,13.32.238,18.366L174.93,558.4c8.788,5.03,23.026,5.012,31.711-.076l68.01-39.866c8.652-5.072,8.545-13.337-.242-18.366" transform="translate(-94.785 -454.245)"/></g><g transform="translate(4.647 2.672)"><path class="ac" d="M170.322,458.706c8.652-5.072,22.89-5.123,31.707-.077l68.86,39.419c8.788,5.03,8.894,13.294.242,18.366l-68.01,39.866c-8.686,5.089-22.924,5.106-31.711.076l-68.86-39.423c-8.817-5.047-8.924-13.277-.238-18.366Z" transform="translate(-95.867 -454.874)"/></g><path class="ad" d="M285.731,467.22c0,.26-.043.519-.068.778-.025.289-.047.578-.1.863-.042.229-.111.455-.17.68a8.168,8.168,0,0,1-.234.821c-.077.217-.179.434-.272.65-.123.285-.247.565-.4.846-.106.2-.234.4-.357.6-.2.315-.4.629-.638.944-.136.183-.281.361-.429.54a14.817,14.817,0,0,1-1.178,1.267c-.136.132-.259.268-.4.4-.264.238-.553.464-.838.693-.242.2-.476.4-.735.587-.306.221-.651.438-.978.651s-.625.425-.969.629l-68.01,39.861a28.9,28.9,0,0,1-3.758,1.8c-.353.145-.714.276-1.076.408-.821.3-1.684.54-2.547.786-.889.247-1.786.48-2.7.672-1.05.217-2.109.417-3.189.557-.3.038-.587.089-.884.123-1.492.162-3,.242-4.515.26-.247,0-.489,0-.735,0-1.5-.009-3-.085-4.485-.238-.225-.021-.446-.047-.672-.077a41.815,41.815,0,0,1-4.37-.735c-.247-.055-.489-.119-.736-.179a36.242,36.242,0,0,1-3.695-1.114c-.255-.089-.519-.162-.769-.255a30.129,30.129,0,0,1-4.094-1.917L102.869,478.7c-4.03-2.309-6.551-5.17-7.555-8.167a9.612,9.612,0,0,1-.5-3.031l-.042,15.046c-.008,4.056,2.678,8.12,8.052,11.194l68.86,39.423a29.1,29.1,0,0,0,3.809,1.815c.094.038.2.064.285.1.251.1.514.17.77.259.735.263,1.462.531,2.228.752.476.136.978.238,1.467.357.247.06.485.128.736.183.2.043.4.106.612.149.88.183,1.777.336,2.678.468.357.047.718.076,1.08.119l.672.077c.293.029.587.072.884.1.884.072,1.777.119,2.666.14.315.008.625,0,.935,0,.247,0,.489,0,.736,0,.37,0,.74.009,1.11,0,1-.034,2.007-.1,3-.2.136-.013.268-.038.4-.055.3-.034.587-.085.884-.123.727-.094,1.458-.174,2.172-.3.349-.064.672-.183,1.016-.255.923-.191,1.811-.421,2.7-.672.455-.128.948-.2,1.394-.349.4-.128.765-.293,1.152-.438.366-.132.723-.264,1.076-.408a28.608,28.608,0,0,0,3.758-1.794l68.01-39.866.255-.153c.259-.153.476-.319.719-.476.327-.217.668-.425.969-.65.268-.191.5-.4.748-.6.281-.225.57-.446.825-.68.043-.038.1-.076.14-.115.1-.093.17-.191.268-.289a15.252,15.252,0,0,0,1.169-1.258c.072-.085.17-.17.242-.255s.123-.2.2-.289c.23-.31.434-.625.629-.939.081-.132.187-.255.259-.387.043-.072.064-.145.1-.217.153-.281.276-.561.4-.846.068-.161.162-.315.221-.476.021-.06.03-.119.051-.178.1-.272.162-.544.234-.816.047-.174.119-.353.153-.531.009-.047.009-.1.017-.149.051-.289.072-.578.1-.867.017-.179.055-.357.064-.536l0-.238h0Z" transform="translate(-94.774 -412.058)"/></g></g></g></g></svg>