<svg xmlns="http://www.w3.org/2000/svg" xmlns:xlink="http://www.w3.org/1999/xlink" width="200.735" height="271.093" viewBox="0 0 200.735 271.093"><defs><style>.a,.d{fill:none;}.b{isolation:isolate;}.c{fill:#00b7d1;}.d{stroke:#fff;stroke-width:9.319px;}.d,.e{stroke-linejoin:round;}.e,.i{fill:#fff;}.e{stroke:#155e85;stroke-width:4.66px;}.f{fill:#166ea2;}.g{fill:#176fa4;}.h{fill:#08547f;}.j{fill:#166fa4;}.k{clip-path:url(#a);}.l{fill:#07527d;}.m{fill:#085480;}.n{fill:#0a5682;}.o{fill:#0c5985;}.p{fill:#0d5b88;}.q{fill:#0f5d8b;}.r{fill:#105f8e;}.s{fill:#116292;}.t{fill:#126495;}.u{fill:#136798;}.v{fill:#14699c;}.w{clip-path:url(#b);}.x{clip-path:url(#c);}.y{clip-path:url(#d);}.z{clip-path:url(#e);}.aa{fill:#166da1;}.ab{clip-path:url(#f);}.ac{clip-path:url(#g);}.ad{clip-path:url(#h);}.ae{clip-path:url(#i);}.af{clip-path:url(#j);}.ag{fill:#186289;}.ah{clip-path:url(#k);}.ai{clip-path:url(#l);}.aj{clip-path:url(#m);}.ak{clip-path:url(#n);}.al{clip-path:url(#o);}.am{clip-path:url(#p);}.an{clip-path:url(#q);}.ao{clip-path:url(#r);}.ap{clip-path:url(#s);}.aq{clip-path:url(#t);}.ar{clip-path:url(#u);}.as{clip-path:url(#v);}.at{clip-path:url(#w);}.au{fill:#156b9f;}.av{fill:#166ea3;}.aw{fill:#b0b2b2;}.ax{fill:#2d2d2c;}.ay{fill:#6e7072;}</style><clipPath id="a"><path class="a" d="M-471.1,94.576l-.025,8.77c0-.462-.382-.884-1.078-1.286-1.476-.853-3.137-.882-5.252.347a4.505,4.505,0,0,0-2.512,4.334l.025-8.77a4.506,4.506,0,0,1,2.512-4.334c2.115-1.229,3.776-1.2,5.252-.347C-471.482,93.692-471.1,94.115-471.1,94.576Z"/></clipPath><clipPath id="b"><path class="a" d="M-464.856,94.663l-.025,8.77c0,1.469-1.286,2.958-3.763,4.4l.025-8.77C-466.142,97.621-464.86,96.132-464.856,94.663Z"/></clipPath><clipPath id="c"><path class="a" d="M-486.406,101.131l-.025,8.77c0-1.125-.192-2.317-.188-3.533l.025-8.769C-486.6,98.814-486.4,100.006-486.406,101.131Z"/></clipPath><clipPath id="d"><path class="a" d="M-495.38,113.192l.025-8.77c0-.519.483-1.086,1.578-1.723l-.025,8.77C-494.9,112.106-495.378,112.673-495.38,113.192Z"/></clipPath><clipPath id="e"><path class="a" d="M-479.747,101.545l-.025,8.77c-.006,2.174-.654,4.422-4.209,6.488-4.726,2.746-9.825,2.944-14.41.3-2.21-1.275-3.284-2.62-3.28-3.976l.025-8.77c0,1.357,1.07,2.7,3.279,3.977,4.585,2.647,9.685,2.448,14.411-.3C-480.4,105.967-479.753,103.719-479.747,101.545Z"/></clipPath><clipPath id="f"><path class="a" d="M-401.169,134.663l-.025,8.77c-1.494-.863-3.154-.932-5.27.3l.025-8.77C-404.323,133.731-402.663,133.8-401.169,134.663Z"/></clipPath><clipPath id="g"><path class="a" d="M-409.98,146.646l.025-8.769c0-.565.52-1.176,1.708-1.866l-.025,8.77C-409.46,145.471-409.978,146.082-409.98,146.646Z"/></clipPath><clipPath id="h"><path class="a" d="M-415.3,145.325l.025-8.77a2.638,2.638,0,0,0,.553,1.548l-.024,8.77A2.64,2.64,0,0,1-415.3,145.325Z"/></clipPath><clipPath id="i"><path class="a" d="M-412.544,142.049l-.025,8.77c-2.112-1.22-4.08-1.17-6.827.426l.025-8.77C-416.624,140.879-414.656,140.83-412.544,142.049Z"/></clipPath><clipPath id="j"><path class="a" d="M-423.741,154.6l.025-8.77c0-.533.49-1.117,1.6-1.761l-.025,8.769C-423.251,153.486-423.739,154.07-423.741,154.6Z"/></clipPath><clipPath id="k"><path class="a" d="M-430.97,154.527l.025-8.77c0,.983.716,1.913,2.194,2.766a9.711,9.711,0,0,0,7.023.952l-.025,8.77a9.711,9.711,0,0,1-7.023-.952C-430.254,156.44-430.973,155.51-430.97,154.527Z"/></clipPath><clipPath id="l"><path class="a" d="M-415.794,151.438l-.025,8.77A9.005,9.005,0,0,0-418.9,162.6l.025-8.77A9.005,9.005,0,0,1-415.794,151.438Z"/></clipPath><clipPath id="m"><path class="a" d="M-536.4,99.032l-.024,8.77c0-.558-.459-1.086-1.378-1.617l.024-8.77C-536.859,97.946-536.4,98.475-536.4,99.032Z"/></clipPath><clipPath id="n"><path class="a" d="M-527.839,99.476l-.025,8.77c-.005,1.635-1.481,3.248-4.337,4.909l.025-8.77C-529.32,102.725-527.844,101.112-527.839,99.476Z"/></clipPath><clipPath id="o"><path class="a" d="M-533.49,105.148l-.025,8.77a15.28,15.28,0,0,1-11.233,2.151l.025-8.769A15.286,15.286,0,0,0-533.49,105.148Z"/></clipPath><clipPath id="p"><path class="a" d="M-551.111,108.134l-.024,8.77c0-.709-.671-1.371-1.922-2.094l.025-8.769C-551.781,106.763-551.109,107.425-551.111,108.134Z"/></clipPath><clipPath id="q"><path class="a" d="M-543.9,109.448l-.025,8.77c-.005,1.717-1.605,3.359-4.378,4.97l.025-8.77C-545.505,112.807-543.905,111.165-543.9,109.448Z"/></clipPath><clipPath id="r"><path class="a" d="M-551.28,116.163l-.025,8.77a16.767,16.767,0,0,1-17.647-.03l.024-8.77A16.766,16.766,0,0,0-551.28,116.163Z"/></clipPath><clipPath id="s"><path class="a" d="M-544.522,132.531l.025-8.77c0-.654.6-1.368,1.976-2.165l-.024,8.77C-543.917,131.163-544.52,131.877-544.522,132.531Z"/></clipPath><clipPath id="t"><path class="a" d="M-552.683,132.258l.025-8.77c-.005,1.69,1.333,3.362,4.083,4.949,5.752,3.322,12.1,3.074,18.021-.367l-.025,8.77c-5.92,3.44-12.269,3.688-18.021.367C-551.35,135.619-552.688,133.947-552.683,132.258Z"/></clipPath><clipPath id="u"><path class="a" d="M-493.177,124l-.025,8.77c0-.588-.5-1.127-1.379-1.636l.025-8.77C-493.674,122.878-493.176,123.417-493.177,124Z"/></clipPath><clipPath id="v"><path class="a" d="M-484.954,124.345l-.025,8.77c-.005,1.789-1.579,3.587-4.631,5.361l.025-8.77C-486.533,127.932-484.959,126.134-484.954,124.345Z"/></clipPath><clipPath id="w"><path class="a" d="M-508.284,140.572l-.025,8.77c-5.92,3.44-12,3.649-17.85.268l.024-8.77C-520.279,144.221-514.2,144.013-508.284,140.572Z"/></clipPath></defs><g transform="translate(-381.523 -3659.174)"><g class="b" transform="translate(387.58 3725.479)"><path class="c" d="M115.465,17.616l-7.093-4.095L5.974,73.448c-8.918,5.183-8.871,13.617.106,18.8l123.892,70.781,7.047-4.1L13.127,88.152c-5.063-2.923-5.1-7.682-.059-10.609l102.4-59.927"/></g><g transform="translate(969.282 3734.773)"><path class="d" d="M-397.041,132.164a13.531,13.531,0,0,0-7.122-1.935,13.316,13.316,0,0,0-3.587.58,15.641,15.641,0,0,0-1.787.665,18.082,18.082,0,0,0-1.778.908l-.545.318,0,0a14.25,14.25,0,0,0-1.356.9c-.1.07-.185.14-.272.21a7.3,7.3,0,0,0-.952.875l0,.005a3.64,3.64,0,0,0-.6.93c-.017.038-.029.076-.044.114a2.266,2.266,0,0,0-.171.912h0c0-.029-.016-.059-.016-.089l0,1.455a12.932,12.932,0,0,0-8.878,1.836l0,0-1.5.873-1.5.872a16.193,16.193,0,0,0-1.6,1.059c-.118.09-.211.178-.32.267a8.254,8.254,0,0,0-.865.8c-.076.085-.142.169-.21.253a3.859,3.859,0,0,0-.525.836c-.025.058-.056.115-.076.172a2.177,2.177,0,0,0-.148.981,2.075,2.075,0,0,1-.038-.206l-.02,7.2-1.308-.755-3.661,1.539-.506.213.011-4.151-4.061-2.345,1.272-1.022,21.615-17.358.024-8.77-6.851-3.956-3.961,1.664.011-3.934.016-.01-14.477-8.362-4.232,2.459.02.012-.016,5.656-16.453,9.558,15.077-12.123.025-8.77h0l-6.851-3.955-9.607,4.041.022-7.9v-.021h0c0,.033-.02.066-.021.1a3.023,3.023,0,0,0-.74-2.029c-.034-.043-.092-.086-.129-.129a6.368,6.368,0,0,0-.872-.863,11.309,11.309,0,0,0-1.449-.979,14.147,14.147,0,0,0-1.519-.749c-.166-.071-.331-.135-.5-.2-.361-.138-.722-.258-1.086-.362-.184-.053-.366-.114-.55-.159a12.876,12.876,0,0,0-1.354-.249c-.309-.041-.619-.058-.929-.077-.169-.009-.338-.017-.507-.02a13.56,13.56,0,0,0-3.607.419h-.006l.012-4,.007,0-.007,0v0h0l-4.679-2.7-1.883,1.1-.45.262.007-2.63v-.071h0l-4.087-2.36-4.77,2.256.014-5h0l-4.517-2.608-4.77,2.286.014-5.032h0l-4.551-2.627-26.268,19.105-.018,6.1-7.092-4.094-36.97,21.484-.025,8.77h0l9.2,5.314a20.3,20.3,0,0,0,2.5,1.212c.075.03.149.079.224.108.444.175.891.317,1.337.454.113.035.226.083.339.115h.007l.005,0,.028.007c.388.109.776.206,1.164.286q.514.106,1.028.18h.021q.459.065.92.1t.912.049c.1,0,.2,0,.3,0,.064,0,.129,0,.193,0,.15,0,.3,0,.448,0q.515-.018,1.028-.069c.153-.015.3-.044.458-.064.122-.016.243-.033.365-.051.149-.023.3-.036.448-.063.267-.049.531-.14.8-.2.362-.085.724-.165,1.084-.274.1-.031.205-.045.307-.078.352-.113.7-.268,1.05-.406.222-.087.445-.16.666-.257s.442-.214.663-.321h0l-.018,6.6v.023h0c0,1.267.748,2.524,2.284,3.744q.384.3.834.606t.965.6l.014.007a18.312,18.312,0,0,0,2.313,1.12c.042.017.082.044.124.06q.783.309,1.576.536c.09.026.18.042.269.066s.191.047.286.071c.215.053.429.114.644.159q.51.105,1.022.178c.109.015.219.023.329.036l.2.022c.14.015.281.036.421.047.311.026.621.043.932.05h.006c.247.007.494,0,.741,0h.117c.036,0,.072,0,.109,0h0l.069,0c.341-.013.682-.035,1.023-.069.281-.028.562-.076.842-.118.1-.016.2-.026.306-.043.066-.011.133-.016.2-.028.253-.046.505-.134.758-.192.03-.007.06-.016.09-.022.271-.063.543-.113.814-.189l-.015,5.377,9.255,5.344,0,0a19.619,19.619,0,0,0,2.426,1.176c.027.011.055.029.082.04s.065.034.1.047c.134.053.269.088.4.137.4.145.791.29,1.187.4.051.015.1.024.153.038.074.02.148.035.222.054.27.071.541.144.812.2q.5.1.995.174c.07.01.14.015.21.023.054.008.109.013.164.019.182.021.363.046.545.061q.448.038.9.048c.2.005.407,0,.611,0,.05,0,.1,0,.151,0s.114,0,.17,0q.52-.018,1.041-.071c.231-.023.461-.064.692-.1l0,.468-.01,3.548,5.358,3.093h0l7.718-3.311,1.508.87-.022,7.755,5.907,3.411h0l31.011-24.925.009-3.006.008-3.091.927.535,4.084-2.373,0,1.081-.01,3.641h0l.139.08-15.716,16.888-6.125,3.56-6.125,3.559-.024,8.745v.025h0l5.855,3.381h0l5.6-3.254-.018,6.476h0l1.6.922,3.778,2.181,7.7-3.321,1.508.87-.022,7.755,5.907,3.411,31.012-24.925,0-1.47.017-5.946h0l.048,0h0l0,1.352,4.774,2.756a4.285,4.285,0,0,1,.425-.5c.059-.062.112-.127.175-.188.1-.1.22-.186.332-.278.133-.11.261-.22.41-.327.131-.094.277-.187.419-.28.159-.1.312-.208.486-.314.1-.059.205-.122.307-.183.173-.1.34-.205.531-.316l5.651-3.284,4.073-2.367h0l.025-8.769.019.011,0,.557-.023,8.216h0l.356.205.843.487.025-8.773.019.011-.025,8.769,4.214-2.448,0-1.435,2.052-1.193.015-5.249,2.651,1.531,4.214-2.449.025-8.769Zm-149.2-19.121c-.046.036-.087.072-.135.109s-.088.075-.138.113c-.034.024-.079.049-.113.074.136-.1.262-.2.388-.3Zm2.316,9.6-.012.012c-.017.018-.044.036-.059.054h0c.026-.028.062-.058.09-.086Zm.571-.5c-.01.007-.024.015-.033.022.009-.007.023-.015.033-.022Zm15.5-15.834.019-6.609.185.107,3.41-1.6-.01,3.561,2.11,1.218Zm13.844,5.741.02-7.034h0l-1.474-.851,3.1-1.438-.017,5.894,2.145,1.238Zm6.323-9.5h0l-.693-.4-1.22-.7h0l1.913,1.105Zm5.275,13.784.013-4.623-3-1.734,3.336-1.939.415-.241,0,1.291-.012,4.035v0a2.733,2.733,0,0,0,.252,1.1c0,.009.012.018.016.027a4.215,4.215,0,0,0,.727,1.069h0Zm2.194-9.369h0l0,0,.03.031Zm21.912-12.709-.1.09c-.012.011-.03.021-.044.032l-.006.005C-478.416,94.34-478.362,94.3-478.311,94.256Zm-.766.78-.007.009c-.01.013-.023.026-.033.039C-479.1,95.067-479.09,95.052-479.077,95.036Zm-.445.748c-.01.023-.018.045-.028.068s-.025.05-.035.075C-479.566,95.879-479.544,95.832-479.522,95.784Zm-.273.815,0,.014c-.008.031-.02.061-.026.092C-479.818,96.669-479.8,96.634-479.8,96.6Zm-.231,6.979c-.041.148-.07.3-.125.444-.011.03-.029.059-.04.089C-480.122,103.933-480.076,103.756-480.026,103.578Zm-.555,1.315c.089-.158.175-.315.248-.473-.065.141-.119.283-.2.424-.033.059-.082.118-.118.178C-480.623,104.979-480.606,104.936-480.581,104.893Zm-.3.47c-.068.1-.12.194-.2.29-.032.04-.075.08-.109.119s-.091.095-.132.143A6.658,6.658,0,0,0-480.876,105.363Zm-.816.961c-.042.042-.073.084-.116.125-.016.017-.029.034-.047.05-.134.126-.3.25-.449.375C-482.084,106.691-481.877,106.508-481.692,106.324Zm-.96.84c-.036.027-.061.055-.1.082l-.024.016c-.019.014-.042.027-.061.04a13.218,13.218,0,0,1-1.121.731A12.768,12.768,0,0,0-482.652,107.164Zm-2.584,18.455a.145.145,0,0,1,0,.02l-.014.03C-485.247,125.652-485.243,125.636-485.236,125.619Zm-4.392-6.532-.086-.049-.279-.162c.122-.014.243-.033.365-.051Zm3.019-16.394a4.233,4.233,0,0,1-.277.741c-.015.031-.036.06-.053.091a3.978,3.978,0,0,1-.392.622c-.071.09-.166.175-.248.263a4.476,4.476,0,0,1-.416.425,6.519,6.519,0,0,1-.939.66,7.507,7.507,0,0,1-1.44.651,5.225,5.225,0,0,1-1.3.244h0l.012-4.4,5.064-2.943Zm1.317,31.8c.017-.039.029-.078.045-.117s.037-.071.05-.106a3.48,3.48,0,0,0,.1-.36c.013-.049.032-.1.043-.147,0-.011.008-.023.01-.035a3.165,3.165,0,0,0,.061-.529c0-.026,0-.053,0-.079l.025-8.77a.167.167,0,0,1-.011.048c0-.1-.007-.207-.015-.31l5.818-2.5,1.2.694-.018,6.216,2.924,1.688Zm5.524-25.639.009-3.192,0-.51c.022-.078.039-.157.066-.234l.007-.028.025-.06c.026-.069.055-.136.085-.2.04-.094.081-.188.13-.28s.108-.184.167-.274.107-.17.169-.253c.027-.036.062-.071.091-.107l.106-.123c.089-.1.179-.2.283-.3.058-.056.126-.11.189-.165.03-.026.073-.05.1-.076a6.2,6.2,0,0,1,.711-.522l.06-.039c.035-.024.069-.049.109-.072a7.756,7.756,0,0,1,1.021-.467c.164-.067.343-.177.5-.229a5.057,5.057,0,0,1,1.1-.211c.075-.008.159-.041.233-.045h.018a3.553,3.553,0,0,1,.6.062l.019,0-.013,4.3.6.345Zm14.755-13.465a2.666,2.666,0,0,1-.076.345c-.013.031-.03.063-.044.1l-.012.018A3.039,3.039,0,0,0-465.013,95.384Zm-.552,1.109c-.038.053-.062.107-.1.16a.992.992,0,0,1-.1.151c-.017.021-.04.042-.058.063C-465.718,96.743-465.654,96.618-465.565,96.493Zm-1.068,1.15c-.074.063-.126.127-.2.19l-.055.045C-466.794,97.8-466.724,97.721-466.633,97.643Zm-.929,34.184-1.094-.631-2.66-1.536,2.181-1.753,1.588-1.277Zm4.705-3.39-4.038-2.332h0l0,0,4.038,2.332Zm17.755,19.19-5.86,1.984.023-8.186-.9-.523,3.523-1.514,1.182.682.005,0-.008,2.514-.01,3.7h0l2.219,1.282Zm21.836-2.693c-.012.013-.031.026-.043.039.023-.025.053-.051.078-.076Zm.276-.249-.026.023,0,0h0l.029-.025,0,0Zm.626-.451c-.159.1-.325.2-.454.3.124-.1.283-.192.438-.29l.027-.017Zm12.524-6.811-.009.013-.005.007c0-.007.011-.014.014-.022Zm.361-.492-.016.014c-.012.013-.031.026-.042.038l.037-.034c.006-.006.017-.013.023-.02Z"/><path class="e" d="M-397.041,132.164c-4.688-2.706-9.548-2.528-14.273.218l-.546.318c-2.316,1.346-3.451,2.639-3.4,3.944,0-.029-.016-.059-.016-.089l0,1.484a12.928,12.928,0,0,0-8.881,1.809l-3,1.745c-2.619,1.522-3.883,3-3.743,4.37a2.075,2.075,0,0,1-.038-.206l-.02,7.2-1.308-.755-4.167,1.752.011-4.151-4.061-2.345,22.887-18.38.024-8.77-6.851-3.956-3.961,1.664.011-3.934.016-.01-14.477-8.361-4.232,2.458.02.012-.016,5.656-16.453,9.558,15.077-12.124.025-8.769-6.852-3.956-9.606,4.041.022-7.923c0,.033-.02.067-.021.1.057-1.368-.971-2.72-3.19-4a13.178,13.178,0,0,0-10.055-1.4l.012-4,.007,0-.007,0v0h0l-4.679-2.7-2.333,1.357.007-2.7-4.087-2.36-4.77,2.256.014-5-4.517-2.608-4.771,2.287.015-5.033-4.551-2.627-26.268,19.105-.018,6.1-7.092-4.094-36.97,21.484-.025,8.77,9.2,5.314a20.438,20.438,0,0,0,2.5,1.212c.075.03.149.079.224.108q.836.33,1.676.569l.012,0,.028.007c.388.109.776.206,1.164.286q.514.106,1.028.18h.007l.016,0c.306.042.612.077.918.1s.608.041.912.049c.1,0,.2,0,.3,0,.065,0,.13,0,.195,0,.149,0,.3,0,.447,0q.515-.018,1.028-.069c.153-.015.306-.045.459-.064q.182-.024.363-.051c.15-.023.3-.036.449-.063.267-.049.531-.14.8-.2.362-.084.724-.164,1.085-.273.1-.031.2-.045.306-.078.352-.113.7-.268,1.05-.406.222-.087.444-.16.665-.257s.443-.214.665-.322l-.019,6.625c-.005,1.689,1.333,3.361,4.083,4.949a18.552,18.552,0,0,0,2.328,1.128c.042.016.082.043.123.059q.783.309,1.576.536c.089.026.179.042.268.066s.193.047.29.071c.214.054.427.114.641.158.34.071.681.13,1.022.179.109.015.218.023.327.036l.2.022c.14.016.28.036.42.047.311.026.621.043.932.05.249.007.5,0,.747,0h.117c.037,0,.073,0,.109,0,.364-.013.728-.037,1.092-.074.28-.028.56-.076.839-.118.1-.015.207-.026.311-.044.066-.011.132-.015.2-.027.283-.052.565-.149.848-.214s.543-.113.814-.189l-.015,5.377,9.256,5.344a19.608,19.608,0,0,0,2.43,1.178c.06.024.12.063.18.087q.793.312,1.59.54c.051.015.1.024.154.038.073.02.146.035.219.054.271.071.542.144.814.2q.5.1.995.174c.07.01.14.014.21.023.055.008.109.012.164.019.181.021.363.046.545.061.3.025.6.041.9.048.2.005.408,0,.612,0,.05,0,.1,0,.149,0s.114,0,.171,0q.52-.018,1.041-.071c.231-.023.461-.064.692-.1l-.012,4.016,5.358,3.093,7.718-3.312,1.508.871-.022,7.755,5.908,3.411,31.011-24.925.017-6.1.927.536,4.084-2.373-.014,4.722.139.08-15.716,16.888-12.25,7.119-.024,8.77,5.855,3.381,5.6-3.254-.019,6.476,5.375,3.1,7.7-3.321,1.508.87-.022,7.755,5.907,3.411,31.012-24.925.021-7.416.05,0h0l0,1.352,4.774,2.756a4.166,4.166,0,0,1,.424-.5c.06-.063.112-.129.176-.19.1-.1.221-.186.333-.279.132-.109.26-.219.409-.326.13-.093.277-.187.419-.28.158-.1.31-.206.483-.312.265-.162.539-.326.841-.5l9.724-5.652.025-8.769.019.011-.025,8.773,1.2.692.025-8.773.019.011-.025,8.769,4.214-2.448,0-1.435,2.052-1.193.015-5.249,2.651,1.531,4.214-2.449.025-8.769Zm-12.8,5.259c0,.007-.011.013-.014.02s.011-.015.015-.022Zm.363-.5v0c-.019.02-.049.041-.067.06C-409.527,136.97-409.5,136.949-409.477,136.928Zm-.478.946Zm-12.409,6.36c-.159.1-.326.2-.455.3.134-.1.3-.205.468-.309Zm-.652.474-.005,0,.032-.028Zm-.583.677.015-.032Zm8.426-8.249c.021.078.029.157.058.236C-415.144,137.293-415.152,137.214-415.173,137.136Zm-8.058,7.761-.035.038c-.012.013-.032.026-.044.04C-423.287,144.949-423.256,144.923-423.231,144.9Zm-.477.847,0,.027Zm-5.043,2.779a7.187,7.187,0,0,1-1.03-.717A7.187,7.187,0,0,0-428.751,148.523Zm-1.9-1.759a2.292,2.292,0,0,1-.2-.49A2.292,2.292,0,0,0-430.649,146.764Zm.626.8a3.833,3.833,0,0,1-.456-.509A3.833,3.833,0,0,0-430.023,147.566Zm-18.3-8.178,1.186.685-.018,6.215,2.22,1.282-6.03,2.041.023-8.186-.9-.523Zm-27.612-37.677a5.062,5.062,0,0,1,1.333-.256h.017a3.909,3.909,0,0,1,.616.064l-.013,4.3.6.345-6.387,2.687.011-3.7c.024-.087.043-.176.073-.262s.072-.178.11-.266.081-.186.129-.278.11-.185.169-.276.105-.168.167-.25.131-.155.2-.232c.089-.1.179-.2.283-.3.058-.056.126-.11.189-.165a6.246,6.246,0,0,1,.813-.6c.06-.037.108-.076.171-.113A7.947,7.947,0,0,1-475.932,101.711Zm-68.558,21.963,0,.027Zm.129-.445c.007-.015.013-.029.021-.044C-544.348,123.2-544.354,123.214-544.361,123.229Zm.36-.516c.027-.029.063-.059.092-.088l-.032.034C-543.958,122.677-543.985,122.695-544,122.713Zm.357-.322.032-.028-.029.026Zm.253-.223c.163-.123.373-.251.576-.379l-.012.009C-543.024,121.922-543.231,122.048-543.391,122.168Zm15.234-21.409a4.815,4.815,0,0,1-.607.9,4.83,4.83,0,0,0,.608-.9Zm-.96,1.324a9.641,9.641,0,0,1-.715.647c.253-.216.511-.433.716-.648Zm-1.285,1.135a18.466,18.466,0,0,1-1.774,1.167,18.658,18.658,0,0,0,1.774-1.167Zm-15.844,9.825c-.094.074-.173.148-.272.222-.034.024-.079.049-.113.074.136-.1.262-.2.388-.3Zm67.162-18c-.01.013-.024.026-.034.039.013-.017.029-.033.041-.05Zm-.466.806c-.012.026-.026.052-.037.079.02-.049.043-.1.065-.147C-479.532,95.807-479.54,95.829-479.55,95.852Zm-5.69,29.787c-.014.034-.033.069-.048.1a3.506,3.506,0,0,0,.148-.557A3.241,3.241,0,0,1-485.24,125.639Zm-10.109-21.283,0,.02Zm1.536,18.544c-.051-.044-.088-.089-.144-.133C-493.9,122.811-493.864,122.856-493.813,122.9Zm.4.444a1.765,1.765,0,0,0-.106-.165A1.765,1.765,0,0,1-493.415,123.344Zm.154.263a1.013,1.013,0,0,1,.039.186A1.013,1.013,0,0,0-493.261,123.607Zm3.633-4.782v.262l-.366-.211C-489.872,118.862-489.75,118.843-489.628,118.825Zm-10.594-11.861c.015.014.027.029.043.043-.016-.014-.029-.028-.044-.042Zm1.855,1.367a11.739,11.739,0,0,1-1.467-.991A11.739,11.739,0,0,0-498.367,108.331Zm10.98,19.867-.047.038c.119-.095.2-.191.315-.287C-487.215,128.032-487.285,128.115-487.387,128.2Zm1.321-1.26c-.015.017-.034.034-.048.051.126-.148.2-.3.3-.444C-485.9,126.676-485.957,126.807-486.066,126.938Zm6.267-30.327c-.007.032-.019.062-.026.094.007-.038.022-.074.031-.111Zm-.132,1.074c0-.064,0-.13.008-.194C-479.927,97.555-479.929,97.62-479.931,97.685Zm-.22,6.337c-.011.03-.029.059-.04.089.069-.178.116-.357.166-.535C-480.067,103.725-480.1,103.873-480.151,104.022Zm-.379.822c-.034.06-.083.119-.119.178a5.81,5.81,0,0,0,.316-.6C-480.4,104.561-480.451,104.7-480.53,104.844Zm-.35.525c-.066.095-.117.19-.19.283-.034.043-.081.085-.116.128s-.087.09-.126.136a6.879,6.879,0,0,0,.437-.555Zm-.975,1.13c-.134.126-.3.25-.449.375.22-.183.428-.366.613-.551C-481.75,106.382-481.793,106.441-481.855,106.5Zm-.895.747c-.024.018-.055.035-.08.053a13.181,13.181,0,0,1-1.126.734,12.768,12.768,0,0,0,1.3-.869C-482.688,107.191-482.713,107.219-482.75,107.246Zm-3.666-6.291c-.007-.515-.042-1.039-.085-1.576C-486.458,99.915-486.423,100.441-486.416,100.955Zm-.193,1.738a4.531,4.531,0,0,1-2.325,2.8,6.081,6.081,0,0,1-2.741.895l.012-4.4,5.064-2.943Zm-15.795,9.018-3-1.734,3.751-2.18-.015,5.327a3.331,3.331,0,0,0,1,2.2l-1.742,1.012ZM-485.3,134.49c.013-.027.021-.054.032-.081.021-.048.05-.1.068-.144a3.455,3.455,0,0,0,.156-.542,3.165,3.165,0,0,0,.061-.529c0-.026,0-.053,0-.079l.025-8.77c0,.027-.017.054-.018.081a3.279,3.279,0,0,0-.051-.325l5.861-2.519,1.2.694-.018,6.216,2.924,1.688Zm18.46-36.657-.055.045c.1-.078.168-.157.258-.235C-466.707,97.706-466.759,97.77-466.837,97.833Zm-11.577-3.487c-.014.013-.036.024-.051.037.049-.043.105-.086.158-.13C-478.344,94.284-478.378,94.315-478.414,94.346Zm-29.278,8.2h0l-1.914-1.1h0Zm-2.552,7.312-3.771,2.191.02-7.034-1.474-.851,3.1-1.438-.017,5.894Zm-11.9-6.871-5.715,3.321.019-6.609.185.107,3.41-1.6-.01,3.561Zm-5.741-3.314a2.89,2.89,0,0,1-.137.6,2.953,2.953,0,0,0,.137-.6Zm56.569,29.983,3.769-3.03-.015,5.2Zm6.227-33.931c-.013.031-.029.063-.044.094,0,.007-.009.013-.012.02a2.854,2.854,0,0,0,.132-.461A2.7,2.7,0,0,1-465.089,95.729Zm-.476.763c-.074.1-.114.208-.2.312-.017.021-.041.042-.059.063A4.444,4.444,0,0,0-465.565,96.492Zm-5.556-1.968a1.02,1.02,0,0,0-.25-.6A1.017,1.017,0,0,1-471.121,94.524Zm-.3-.649a3.063,3.063,0,0,0-.754-.585A3.063,3.063,0,0,1-471.424,93.875Zm-65.006,5.013a1.062,1.062,0,0,0-.038-.181A1.062,1.062,0,0,1-536.43,98.888Zm-.171-.45a1.463,1.463,0,0,0-.107-.167A1.463,1.463,0,0,1-536.6,98.438Zm-.394-.458c-.052-.046-.092-.093-.151-.139C-537.087,97.887-537.047,97.934-536.995,97.98Zm-14.438,9.35a2.038,2.038,0,0,0-.147-.208A2.038,2.038,0,0,1-551.433,107.33Zm.263.552a1.223,1.223,0,0,0-.053-.227A1.242,1.242,0,0,1-551.17,107.882Zm-.814-1.12c-.071-.058-.123-.116-.2-.175C-552.107,106.646-552.055,106.7-551.984,106.762Zm-.074,18.559c.023.038.041.077.065.115l-.069-.113Zm.374.624a8.163,8.163,0,0,0,.849.843A8.163,8.163,0,0,1-551.684,125.945Zm1.281,1.259a14.635,14.635,0,0,0,1.828,1.233A14.635,14.635,0,0,1-550.4,127.2Zm83.508-1.1.006,0,4.038,2.332-.006,0Z"/><g class="b"><path class="f" d="M-503.233,70.854l-.025,8.77-20.815,15,.025-8.77Z"/><path class="g" d="M-510.166,82.86l-.025,8.77-17.464,8.179.025-8.77Z"/><path class="h" d="M-527.63,91.04l-.025,8.77-6.422-3.708.025-8.77Z"/><path class="f" d="M-493.96,76.208l-.025,8.77-21.157,15,.025-8.77Z"/><path class="i" d="M-485.117,81.314l-32.9,15.278L-524.23,93l14.064-10.143L-527.63,91.04l-6.422-3.708,26.269-19.105,4.551,2.627-20.815,15L-498.477,73.6l4.516,2.607-21.157,15L-489.2,78.954Z"/><path class="g" d="M-485.117,81.314l-.025,8.77-32.9,15.278.025-8.77Z"/><path class="h" d="M-518.014,96.592l-.025,8.77-6.216-3.589.025-8.77Z"/></g><g class="b"><path class="i" d="M-478.1,85.365l-29.58,17.19-4.687-2.706,29.58-17.19Z"/><path class="j" d="M-478.11,85.359l-.025,8.77-29.583,17.192.025-8.77Z"/><path class="h" d="M-507.693,102.55l-.025,8.77-4.671-2.7.025-8.77Z"/></g><g class="b"><g class="b"><g class="k"><g class="b"><path class="l" d="M-471.1,94.576l-.025,8.77c0-.462-.382-.884-1.078-1.286a4.966,4.966,0,0,0-.653-.317l.025-8.77a4.965,4.965,0,0,1,.653.317c.7.4,1.08.825,1.078,1.286"/><path class="m" d="M-472.831,92.973l-.025,8.77a4.054,4.054,0,0,0-.4-.135l.025-8.77c.135.038.267.084.4.135"/><path class="n" d="M-473.229,92.838l-.025,8.77c-.1-.029-.2-.053-.3-.074l.025-8.77c.1.021.2.046.3.074"/><path class="o" d="M-473.529,92.764l-.025,8.77c-.084-.018-.17-.033-.256-.045l.025-8.77c.086.013.172.027.256.045"/><path class="p" d="M-473.785,92.719l-.025,8.77c-.079-.011-.158-.02-.238-.027l.025-8.769c.08.006.159.015.238.026"/><path class="q" d="M-474.023,92.693l-.025,8.769c-.079-.006-.158-.01-.238-.012l.024-8.77c.08,0,.16.006.239.013"/><path class="r" d="M-474.262,92.68l-.024,8.77c-.084,0-.168,0-.253,0l.024-8.77c.085,0,.17,0,.253,0"/><path class="s" d="M-474.515,92.681l-.024,8.77c-.1,0-.192.01-.289.019l.025-8.77c.1-.009.193-.016.288-.019"/><path class="t" d="M-474.8,92.7l-.025,8.77q-.187.02-.381.054l.025-8.77q.193-.034.381-.054"/><path class="u" d="M-475.184,92.754l-.025,8.77a5.675,5.675,0,0,0-.7.178l.025-8.769a5.512,5.512,0,0,1,.7-.179"/><path class="v" d="M-475.888,92.933l-.025,8.769a7.933,7.933,0,0,0-1.542.7l-.085.05.025-8.77.085-.05a7.925,7.925,0,0,1,1.542-.7"/><path class="u" d="M-477.515,93.687l-.025,8.77a6.228,6.228,0,0,0-1.011.741l.025-8.77a6.228,6.228,0,0,1,1.011-.741"/><path class="t" d="M-478.526,94.428l-.025,8.77a4.5,4.5,0,0,0-.509.545l.024-8.769a4.6,4.6,0,0,1,.51-.546"/><path class="s" d="M-479.036,94.974l-.024,8.769a4.089,4.089,0,0,0-.347.516l.025-8.769a4.044,4.044,0,0,1,.346-.516"/><path class="r" d="M-479.382,95.49l-.025,8.769a4.035,4.035,0,0,0-.256.552l.025-8.77a3.966,3.966,0,0,1,.256-.551"/><path class="q" d="M-479.638,96.041l-.025,8.77a4.533,4.533,0,0,0-.193.683l.025-8.769a4.578,4.578,0,0,1,.193-.684"/><path class="p" d="M-479.831,96.725l-.025,8.769a6.235,6.235,0,0,0-.109,1.055l.025-8.769a6.216,6.216,0,0,1,.109-1.055"/><path class="o" d="M-479.94,97.78l-.025,8.769c0,.064,0,.128,0,.192l.025-8.77c0-.064,0-.128,0-.191"/></g></g></g><g class="b"><g class="w"><g class="b"><path class="o" d="M-464.856,94.663l-.024,8.77,0,.066.025-8.77v-.066"/><path class="p" d="M-464.857,94.729l-.025,8.77a2.625,2.625,0,0,1-.05.439l.025-8.769a2.645,2.645,0,0,0,.05-.44"/><path class="q" d="M-464.907,95.169l-.025,8.769a2.923,2.923,0,0,1-.13.452l.024-8.769a2.881,2.881,0,0,0,.131-.452"/><path class="r" d="M-465.038,95.621l-.024,8.769a3.549,3.549,0,0,1-.231.49l.025-8.769a3.537,3.537,0,0,0,.23-.49"/><path class="s" d="M-465.268,96.111l-.025,8.769a4.587,4.587,0,0,1-.395.584l.025-8.77a4.647,4.647,0,0,0,.395-.583"/><path class="t" d="M-465.663,96.694l-.025,8.77a6.619,6.619,0,0,1-.712.761l.025-8.77a6.62,6.62,0,0,0,.712-.761"/><path class="u" d="M-466.375,97.455l-.025,8.77a12.24,12.24,0,0,1-1.99,1.455l.025-8.77a12.241,12.241,0,0,0,1.99-1.455"/><path class="v" d="M-468.365,98.91l-.025,8.77-.254.15.025-8.77.254-.15"/></g></g></g><path class="j" d="M-468.619,99.06l-.025,8.77-.921.535.025-8.77Z"/><path class="h" d="M-469.54,99.6l-.025,8.77-4.413-2.548.025-8.77Z"/><g class="b"><g class="x"><g class="b"><path class="l" d="M-486.406,101.131l-.025,8.77c0-1.125-.192-2.317-.188-3.533l.025-8.769c0,1.215.191,2.407.188,3.532"/></g></g></g><path class="j" d="M-491.661,101.47l-.025,8.77-2.115,1.229.025-8.77Z"/><g class="b"><g class="y"><g class="b"><path class="v" d="M-493.777,102.7l-.025,8.77-.128.076.025-8.77.128-.076"/><path class="u" d="M-493.9,102.775l-.025,8.77a5.515,5.515,0,0,0-.887.644l.025-8.77a5.471,5.471,0,0,1,.887-.644"/><path class="t" d="M-494.792,103.419l-.025,8.77a2.55,2.55,0,0,0-.276.295l.025-8.77a2.55,2.55,0,0,1,.276-.295"/><path class="s" d="M-495.068,103.714l-.025,8.77a1.6,1.6,0,0,0-.143.211l.025-8.77a1.674,1.674,0,0,1,.143-.211"/><path class="r" d="M-495.211,103.925l-.025,8.77a1.163,1.163,0,0,0-.081.173l.024-8.77a1.287,1.287,0,0,1,.082-.173"/><path class="q" d="M-495.293,104.1l-.024,8.77a.932.932,0,0,0-.045.155l.025-8.77a1.033,1.033,0,0,1,.044-.155"/><path class="p" d="M-495.337,104.253l-.025,8.77a.829.829,0,0,0-.017.148l.025-8.77a.842.842,0,0,1,.017-.148"/><path class="o" d="M-495.354,104.4l-.025,8.77v.021l.025-8.77V104.4"/></g></g></g><g class="b"><g class="z"><g class="b"><path class="o" d="M-479.747,101.545l-.025,8.77c0,.088,0,.176,0,.264l.025-8.769c0-.089,0-.177,0-.265"/><path class="p" d="M-479.751,101.81l-.025,8.769a7.7,7.7,0,0,1-.136,1.276l.025-8.769a7.726,7.726,0,0,0,.136-1.276"/><path class="q" d="M-479.887,103.086l-.025,8.769a6.045,6.045,0,0,1-.267.951l.024-8.77a6.069,6.069,0,0,0,.268-.95"/><path class="r" d="M-480.155,104.036l-.024,8.77a5.742,5.742,0,0,1-.384.823l.025-8.769a5.683,5.683,0,0,0,.383-.824"/><path class="s" d="M-480.538,104.86l-.025,8.769a6.242,6.242,0,0,1-.538.8l.025-8.769a6.388,6.388,0,0,0,.538-.8"/><path class="t" d="M-481.076,105.662l-.025,8.769a7.552,7.552,0,0,1-.821.883l.025-8.769a7.715,7.715,0,0,0,.821-.883"/><path class="u" d="M-481.9,106.545l-.025,8.769A11.3,11.3,0,0,1-483.8,116.7l.025-8.77a11.359,11.359,0,0,0,1.881-1.383"/><path class="v" d="M-483.778,107.928l-.025,8.77-.178.105a16.948,16.948,0,0,1-3.272,1.475l.025-8.77a16.887,16.887,0,0,0,3.272-1.475l.178-.1"/><path class="u" d="M-487.228,109.508l-.025,8.77a14.681,14.681,0,0,1-1.908.481l.025-8.769a14.85,14.85,0,0,0,1.908-.482"/><path class="t" d="M-489.136,109.99l-.025,8.769c-.361.066-.722.116-1.082.153l.024-8.77q.541-.054,1.083-.152"/><path class="s" d="M-490.219,110.142l-.024,8.77c-.293.029-.585.049-.878.059l.025-8.77q.439-.015.877-.059"/><path class="r" d="M-491.1,110.2l-.025,8.77c-.26.009-.521.01-.781,0l.025-8.769c.26.006.521,0,.781,0"/><path class="q" d="M-491.877,110.205l-.025,8.769c-.25-.006-.5-.019-.749-.04l.025-8.77c.249.021.5.034.749.041"/><path class="p" d="M-492.626,110.164l-.025,8.77q-.379-.031-.758-.085l.025-8.769c.252.035.505.064.758.084"/><path class="o" d="M-493.384,110.08l-.025,8.769c-.274-.038-.547-.086-.82-.142l.025-8.77q.41.084.82.143"/><path class="n" d="M-494.2,109.937l-.025,8.77q-.48-.1-.958-.237l.024-8.77q.479.137.959.237"/><path class="m" d="M-495.163,109.7l-.024,8.77q-.634-.182-1.259-.428l.024-8.77q.625.247,1.259.428"/><path class="l" d="M-496.422,109.272l-.024,8.77a14.588,14.588,0,0,1-1.945-.942c-2.21-1.275-3.284-2.62-3.28-3.976l.025-8.77c0,1.357,1.07,2.7,3.279,3.977a14.7,14.7,0,0,0,1.945.941"/></g></g></g><path class="i" d="M-468.067,90.762c4.551,2.627,4.174,5.552-.552,8.3l-.921.536-4.414-2.548,1.212-.7c2.115-1.229,2.058-2.191.564-3.054-1.476-.852-3.137-.882-5.252.347-6.074,3.53,1.936,9.478-6.526,14.4-4.726,2.746-9.826,2.945-14.411.3-4.6-2.658-4.276-5.612.45-8.358l1.825-1.061,4.431,2.558-2.116,1.229c-2.115,1.23-1.939,2.2-.445,3.064s3.172.961,5.288-.268c6.09-3.539-1.9-9.478,6.543-14.386C-477.666,88.363-472.617,88.135-468.067,90.762Z"/></g><g class="b"><path class="j" d="M-457.315,103.433l-.025,8.77-17.211,7.4.025-8.77Z"/><path class="j" d="M-479.137,112.812l-.025,8.77-6.181,2.657.025-8.77Z"/><path class="h" d="M-485.318,115.469l-.025,8.77-4.293-2.479.025-8.77Z"/><path class="h" d="M-473.384,116.133l-.025,8.77-5.753-3.321.025-8.77Z"/><path class="i" d="M-448.42,102.5l-24.809,19.948-4.722-2.727,4.567-3.589-5.753-3.321-6.181,2.657-4.293-2.479,34.34-14.445Zm-26.106,8.328,4.5,2.6,12.712-9.993-17.211,7.4"/><path class="aa" d="M-448.42,102.5l-.025,8.77-24.809,19.948.025-8.77Z"/><path class="h" d="M-473.229,122.449l-.025,8.77-4.722-2.726.025-8.77Z"/></g><g class="b"><path class="h" d="M-442.176,110.987l-.025,8.77-4.877-2.816.025-8.77Z"/><path class="j" d="M-428.38,114.071l-.025,8.77-4.214,2.449.025-8.77Z"/><path class="h" d="M-432.594,116.52l-.025,8.77-4.894-2.826.025-8.77Z"/><path class="i" d="M-428.364,114.071l-4.232,2.459-4.894-2.827-25.359,14.731-4.688-2.708,25.359-14.731-4.895-2.827,4.232-2.459Z"/><path class="j" d="M-437.488,113.694l-.025,8.77-25.369,14.743.025-8.77Z"/><path class="h" d="M-462.857,128.437l-.025,8.77-4.688-2.707.025-8.77Z"/><path class="j" d="M-426.474,121.239l-.025,8.77-17.229,7.386.025-8.77Z"/><path class="j" d="M-448.3,130.618l-.025,8.77-6.181,2.657.025-8.77Z"/><path class="h" d="M-454.477,133.275l-.025,8.77-4.31-2.488.025-8.77Z"/><path class="h" d="M-442.56,133.929l-.025,8.77-5.735-3.311.025-8.77Z"/><path class="aa" d="M-417.579,120.307l-.025,8.77-24.826,19.938.025-8.77Z"/><path class="h" d="M-442.4,140.245l-.025,8.77-4.722-2.726.025-8.77Z"/><path class="i" d="M-417.579,120.307-442.4,140.245l-4.722-2.727,4.567-3.589-5.736-3.311-6.181,2.657-4.31-2.489,34.357-14.435Zm-26.123,8.318,4.516,2.608,12.712-9.994-17.228,7.386"/></g><g class="b"><g class="b"><g class="ab"><g class="b"><path class="l" d="M-401.169,134.663l-.025,8.77a5.051,5.051,0,0,0-.691-.336l.025-8.77a5.171,5.171,0,0,1,.691.336"/><path class="m" d="M-401.86,134.327l-.025,8.77c-.136-.054-.273-.1-.412-.14l.025-8.77c.139.04.276.087.412.14"/><path class="n" d="M-402.272,134.187l-.025,8.77c-.1-.029-.2-.054-.308-.076l.025-8.77c.1.022.206.047.308.076"/><path class="o" d="M-402.58,134.111l-.025,8.77c-.086-.018-.173-.033-.26-.045l.025-8.77c.087.012.174.028.26.045"/><path class="p" d="M-402.84,134.066l-.025,8.77c-.08-.012-.161-.021-.242-.027l.024-8.77q.123.011.243.027"/><path class="q" d="M-403.083,134.039l-.024,8.77c-.08-.007-.16-.011-.24-.013l.024-8.77c.081,0,.161.006.24.013"/><path class="r" d="M-403.323,134.026l-.024,8.77c-.084,0-.168,0-.253,0l.024-8.77c.085,0,.17,0,.253,0"/><path class="s" d="M-403.576,134.027l-.024,8.77c-.1,0-.193.01-.291.02l.024-8.77c.1-.01.2-.017.291-.02"/><path class="t" d="M-403.867,134.047l-.024,8.77c-.125.012-.252.03-.38.053l.025-8.77c.128-.023.255-.041.379-.053"/><path class="u" d="M-404.246,134.1l-.025,8.77a5.5,5.5,0,0,0-.685.173l.025-8.77a5.5,5.5,0,0,1,.685-.173"/><path class="v" d="M-404.931,134.273l-.025,8.77a7.689,7.689,0,0,0-1.508.687l.025-8.77a7.748,7.748,0,0,1,1.508-.687"/></g></g></g><path class="j" d="M-406.439,134.96l-.025,8.77-1.809,1.051.025-8.77Z"/><path class="h" d="M-395.9,137.706l-.025,8.77-5.272-3.044.025-8.77Z"/><path class="j" d="M-391.683,135.258l-.025,8.77-4.214,2.449.025-8.77Z"/><g class="b"><g class="ac"><g class="b"><path class="v" d="M-408.247,136.011l-.025,8.77-.139.082.025-8.77.139-.082"/><path class="u" d="M-408.386,136.093l-.025,8.77a5.955,5.955,0,0,0-.963.7l.025-8.77a5.971,5.971,0,0,1,.963-.7"/><path class="t" d="M-409.349,136.792l-.025,8.77a2.815,2.815,0,0,0-.3.315l.025-8.77a2.907,2.907,0,0,1,.3-.315"/><path class="s" d="M-409.644,137.107l-.025,8.77a1.744,1.744,0,0,0-.155.229l.025-8.77a1.751,1.751,0,0,1,.155-.229"/><path class="r" d="M-409.8,137.336l-.025,8.77a1.386,1.386,0,0,0-.089.188l.025-8.77a1.445,1.445,0,0,1,.089-.188"/><path class="q" d="M-409.888,137.524l-.025,8.77a1.079,1.079,0,0,0-.048.167l.025-8.77a1.082,1.082,0,0,1,.048-.167"/><path class="p" d="M-409.936,137.691l-.025,8.77a.894.894,0,0,0-.018.161l.024-8.77a.994.994,0,0,1,.019-.161"/><path class="o" d="M-409.955,137.852l-.024,8.77v.024l.025-8.769v-.025"/></g></g></g><g class="b"><g class="ad"><g class="b"><path class="l" d="M-414.723,138.1l-.024,8.77a2.64,2.64,0,0,1-.554-1.548l.025-8.77a2.638,2.638,0,0,0,.553,1.548"/></g></g></g><g class="b"><g class="ae"><g class="b"><path class="l" d="M-412.544,142.049l-.025,8.77a7.249,7.249,0,0,0-.965-.471l.025-8.77a7.375,7.375,0,0,1,.965.471"/><path class="m" d="M-413.509,141.578l-.025,8.77c-.177-.069-.353-.13-.53-.18l.024-8.77c.177.05.354.111.531.18"/><path class="n" d="M-414.04,141.4l-.024,8.77c-.128-.037-.256-.068-.384-.1l.025-8.77c.128.027.256.058.383.1"/><path class="o" d="M-414.423,141.3l-.025,8.77c-.105-.022-.21-.04-.316-.055l.025-8.77c.106.015.211.034.316.055"/><path class="p" d="M-414.739,141.248l-.025,8.77c-.1-.014-.192-.024-.289-.032l.025-8.77c.1.008.193.019.289.032"/><path class="q" d="M-415.028,141.216l-.025,8.77c-.1-.008-.191-.013-.287-.016l.025-8.77c.1,0,.191.008.287.016"/><path class="r" d="M-415.315,141.2l-.025,8.77c-.1,0-.2,0-.3,0l.024-8.77c.1,0,.2,0,.3,0"/><path class="s" d="M-415.619,141.2l-.024,8.77c-.115,0-.23.011-.346.023l.025-8.77c.116-.011.231-.019.345-.023"/><path class="t" d="M-415.964,141.225l-.025,8.77c-.145.015-.293.035-.442.062l.025-8.769c.149-.027.3-.048.442-.063"/><path class="u" d="M-416.406,141.288l-.025,8.769a6.711,6.711,0,0,0-.879.224l.025-8.77a6.553,6.553,0,0,1,.879-.223"/><path class="v" d="M-417.285,141.511l-.025,8.77a10.876,10.876,0,0,0-2.086.964l.025-8.77a10.937,10.937,0,0,1,2.086-.964"/></g></g></g><path class="h" d="M-410.741,143.09l-.025,8.77-1.8-1.041.025-8.77Z"/><path class="j" d="M-398.563,141.424l-.025,8.77-3.293,1.913.025-8.77Z"/><path class="j" d="M-419.371,142.475l-.025,8.77-2.747,1.6.025-8.77Z"/><g class="b"><g class="af"><g class="b"><path class="v" d="M-422.117,144.072l-.025,8.769-.126.075.025-8.77.126-.074"/><path class="u" d="M-422.243,144.146l-.025,8.77a5.458,5.458,0,0,0-.892.648l.025-8.769a5.4,5.4,0,0,1,.892-.649"/><path class="t" d="M-423.135,144.795l-.025,8.769a2.706,2.706,0,0,0-.284.3l.025-8.77a2.532,2.532,0,0,1,.284-.3"/><path class="s" d="M-423.419,145.1l-.025,8.77a1.605,1.605,0,0,0-.147.218l.024-8.77a1.715,1.715,0,0,1,.148-.218"/><path class="r" d="M-423.567,145.316l-.024,8.77a1.158,1.158,0,0,0-.085.179l.025-8.77a1.248,1.248,0,0,1,.084-.179"/><path class="q" d="M-423.651,145.495l-.025,8.77a1.018,1.018,0,0,0-.047.162l.025-8.77a1.018,1.018,0,0,1,.047-.162"/><path class="p" d="M-423.7,145.657l-.025,8.77a.882.882,0,0,0-.017.153l.024-8.77a1.012,1.012,0,0,1,.018-.153"/><path class="o" d="M-423.716,145.81l-.024,8.77v.023l.025-8.77v-.023"/></g></g></g><path class="j" d="M-400.62,144.052l-.025,8.77-4.214,2.449.025-8.77Z"/><path class="ag" d="M-404.852,146.486l-.025,8.777-1.2-.692.025-8.777Z"/><g class="b"><g class="ah"><g class="b"><path class="u" d="M-421.728,149.475l-.025,8.77q-.177.038-.354.069l.025-8.77c.117-.021.236-.044.354-.069"/><path class="t" d="M-422.082,149.544l-.025,8.77c-.322.058-.64.1-.956.134l.025-8.77c.316-.031.634-.076.956-.134"/><path class="s" d="M-423.038,149.678l-.025,8.77c-.244.024-.486.041-.726.049l.025-8.77c.24-.008.482-.025.726-.049"/><path class="r" d="M-423.764,149.727l-.025,8.77c-.208.007-.416.008-.621,0l.025-8.77c.205.005.413,0,.621,0"/><path class="q" d="M-424.385,149.73l-.025,8.77c-.192-.005-.382-.015-.57-.031l.025-8.769q.282.022.57.03"/><path class="p" d="M-424.955,149.7l-.025,8.769q-.282-.022-.558-.062l.025-8.77q.276.039.558.063"/><path class="o" d="M-425.513,149.637l-.025,8.77c-.194-.027-.386-.061-.576-.1l.025-8.77c.19.039.382.073.576.1"/><path class="n" d="M-426.089,149.537l-.025,8.77q-.327-.068-.646-.159l.025-8.769q.319.09.646.158"/><path class="m" d="M-426.735,149.379l-.025,8.769a8.593,8.593,0,0,1-.82-.278l.025-8.769c.269.106.543.2.82.278"/><path class="l" d="M-427.555,149.1l-.025,8.769a8.994,8.994,0,0,1-1.2-.577c-1.478-.853-2.2-1.783-2.194-2.766l.025-8.77c0,.983.716,1.913,2.194,2.766a8.943,8.943,0,0,0,1.2.578"/></g></g></g><path class="j" d="M-406.07,145.787l-.025,8.77-9.724,5.651.025-8.77Z"/><path class="h" d="M-418.879,153.827l-.025,8.77-4.774-2.756.025-8.77Z"/><g class="b"><g class="ai"><g class="b"><path class="v" d="M-415.794,151.438l-.025,8.77q-.4.231-.754.445l.024-8.77q.357-.214.755-.445"/><path class="u" d="M-416.549,151.883l-.024,8.77a10.4,10.4,0,0,0-1.681,1.2l.025-8.769a10.432,10.432,0,0,1,1.68-1.2"/><path class="t" d="M-418.229,153.083l-.025,8.769a4.526,4.526,0,0,0-.492.531l.024-8.77a4.532,4.532,0,0,1,.493-.53"/><path class="s" d="M-418.722,153.613l-.024,8.77c-.055.069-.108.141-.158.214l.025-8.77c.05-.073.1-.144.157-.214"/></g></g></g><path class="i" d="M-404.833,146.5l-1.237-.714-9.724,5.651a9.005,9.005,0,0,0-3.085,2.389l-4.774-2.756a6.859,6.859,0,0,1,1.925-1.6,9.711,9.711,0,0,1-7.023-.952c-3.451-1.993-2.763-4.4,1.587-6.93l3-1.745a12.806,12.806,0,0,1,9.438-1.745c-1.294-1.814-.311-3.559,2.863-5.4l.546-.317c4.725-2.747,9.585-2.925,14.273-.219l5.358,3.094-4.214,2.448-5.272-3.043c-1.494-.863-3.154-.932-5.27.3l-1.808,1.051c-2.372,1.378-2.075,2.439-.323,3.45l2.043,1.18,3.293-1.913,4.671,2.7-3.293,1.914,1.236.714Zm-12.766.575,6.858-3.986-1.8-1.041c-2.112-1.219-4.08-1.17-6.827.426l-2.746,1.6c-2.116,1.229-1.973,2.24-.5,3.093a4.888,4.888,0,0,0,5.015-.089"/></g><g class="b"><path class="h" d="M-537.779,97.415l-.025,8.77-2.816-1.626.025-8.77Z"/><g class="b"><g class="aj"><g class="b"><path class="l" d="M-536.4,99.032l-.024,8.77c0-.558-.459-1.086-1.378-1.617l.024-8.77c.92.531,1.38,1.06,1.378,1.617"/></g></g></g><path class="j" d="M-540.595,95.789l-.025,8.77-9.776,5.681.025-8.77Z"/><g class="b"><g class="ak"><g class="b"><path class="o" d="M-527.839,99.476l-.025,8.77c0,.024,0,.048,0,.071l.024-8.769c0-.024,0-.048,0-.072"/><path class="p" d="M-527.841,99.548l-.024,8.769a2.868,2.868,0,0,1-.054.469l.025-8.77a2.757,2.757,0,0,0,.053-.468"/><path class="q" d="M-527.894,100.016l-.025,8.77a3.059,3.059,0,0,1-.138.477l.025-8.77a3.065,3.065,0,0,0,.138-.477"/><path class="r" d="M-528.032,100.493l-.025,8.77a3.614,3.614,0,0,1-.246.522l.025-8.77a3.614,3.614,0,0,0,.246-.522"/><path class="s" d="M-528.278,101.015l-.025,8.77a4.828,4.828,0,0,1-.421.621l.025-8.77a4.827,4.827,0,0,0,.421-.621"/><path class="t" d="M-528.7,101.636l-.025,8.77a7.155,7.155,0,0,1-.775.827l.025-8.769a7.248,7.248,0,0,0,.775-.828"/><path class="u" d="M-529.474,102.464l-.025,8.769a14.654,14.654,0,0,1-2.373,1.727l.025-8.77a14.659,14.659,0,0,0,2.373-1.726"/><path class="v" d="M-531.847,104.19l-.025,8.77c-.108.065-.217.13-.329.195l.025-8.77.329-.195"/></g></g></g><path class="j" d="M-532.176,104.385l-.025,8.77-1.314.763.025-8.77Z"/><path class="h" d="M-553.032,106.041l-.025,8.77-2.61-1.507.025-8.77Z"/><g class="b"><g class="al"><g class="b"><path class="v" d="M-533.49,105.148l-.025,8.77a19.691,19.691,0,0,1-3.852,1.75l.024-8.77a19.674,19.674,0,0,0,3.853-1.75"/><path class="u" d="M-537.343,106.9l-.024,8.77a15.027,15.027,0,0,1-1.939.487l.025-8.769a15.143,15.143,0,0,0,1.938-.488"/><path class="t" d="M-539.281,107.386l-.025,8.769q-.555.1-1.11.156l.025-8.77q.555-.056,1.11-.155"/><path class="s" d="M-540.391,107.541l-.025,8.77q-.45.045-.9.06l.025-8.769q.451-.016.9-.061"/><path class="r" d="M-541.292,107.6l-.025,8.769q-.408.015-.817,0l.025-8.77q.41.01.817,0"/><path class="q" d="M-542.109,107.605l-.025,8.77q-.4-.011-.808-.043l.024-8.77c.271.022.54.036.809.043"/><path class="p" d="M-542.918,107.562l-.024,8.77q-.426-.036-.853-.1l.024-8.77q.429.06.853.1"/><path class="o" d="M-543.771,107.466l-.024,8.77q-.474-.067-.953-.167l.025-8.769q.479.1.952.166"/></g></g></g><g class="b"><g class="am"><g class="b"><path class="l" d="M-551.111,108.134l-.024,8.77c0-.709-.671-1.371-1.922-2.094l.025-8.769c1.251.722,1.923,1.384,1.921,2.093"/></g></g></g><path class="j" d="M-555.642,104.534l-.025,8.77-11.362,6.6.025-8.77Z"/><g class="b"><g class="an"><g class="b"><path class="o" d="M-543.9,109.448l-.025,8.77c0,.024,0,.049,0,.073l.025-8.77c0-.024,0-.049,0-.073"/><path class="p" d="M-543.9,109.521l-.025,8.77a2.842,2.842,0,0,1-.055.476l.025-8.77a2.837,2.837,0,0,0,.055-.476"/><path class="q" d="M-543.956,110l-.025,8.77a3.046,3.046,0,0,1-.14.487l.025-8.77a3.237,3.237,0,0,0,.14-.487"/><path class="r" d="M-544.1,110.484l-.025,8.77a3.885,3.885,0,0,1-.249.529l.025-8.77a3.885,3.885,0,0,0,.249-.529"/><path class="s" d="M-544.345,111.013l-.025,8.77a5.1,5.1,0,0,1-.421.623l.025-8.77a5.026,5.026,0,0,0,.421-.623"/><path class="t" d="M-544.766,111.636l-.025,8.77a7.313,7.313,0,0,1-.8.851l.025-8.77a7.308,7.308,0,0,0,.8-.851"/><path class="u" d="M-545.562,112.487l-.025,8.77a14.7,14.7,0,0,1-2.363,1.722l.025-8.77a14.635,14.635,0,0,0,2.363-1.722"/><path class="v" d="M-547.925,114.209l-.025,8.77c-.115.07-.233.139-.353.209l.025-8.77c.12-.069.237-.139.353-.209"/></g></g></g><path class="j" d="M-548.278,114.418l-.025,8.77-3,1.745.025-8.77Z"/><path class="h" d="M-568.928,116.133l-.025,8.77-9.2-5.314.025-8.77Z"/><path class="i" d="M-544.723,107.3c1.931,2.518.352,4.848-3.555,7.118l-3,1.745a16.766,16.766,0,0,1-17.648-.03l-9.2-5.314,36.97-21.484,8.827,5.1c6.062,3.5,5.874,6.632.159,9.954l-1.314.763A15.286,15.286,0,0,1-544.723,107.3Zm-12.26,5.393,3.225-1.874c3.429-1.992,3.371-3.252.726-4.778l-2.61-1.507-11.362,6.6,3.348,1.933c1.975,1.14,3.927,1.219,6.673-.377m16.388-16.9-9.775,5.681,2.283,1.319c2.181,1.259,4.459,1.467,7.428-.258l2.047-1.19c2.644-1.537,2.911-2.726.833-3.926l-2.816-1.626"/><g class="b"><g class="ao"><g class="b"><path class="v" d="M-551.28,116.163l-.025,8.77a19.327,19.327,0,0,1-3.739,1.686l.025-8.77a19.293,19.293,0,0,0,3.739-1.686"/><path class="u" d="M-555.019,117.849l-.025,8.77a16.93,16.93,0,0,1-2.188.552l.025-8.77a16.93,16.93,0,0,0,2.188-.552"/><path class="t" d="M-557.207,118.4l-.025,8.77q-.635.114-1.271.178l.025-8.77q.636-.063,1.271-.178"/><path class="s" d="M-558.478,118.579l-.025,8.77c-.342.034-.685.058-1.028.069l.024-8.769q.516-.018,1.029-.07"/><path class="r" d="M-559.507,118.649l-.024,8.769c-.313.011-.625.013-.938,0l.025-8.77c.313.008.625.006.937,0"/><path class="q" d="M-560.444,118.653l-.025,8.77q-.456-.012-.912-.049l.024-8.77q.457.038.913.049"/><path class="p" d="M-561.357,118.6l-.024,8.77c-.314-.026-.627-.061-.941-.106l.025-8.77c.313.045.627.08.94.106"/><path class="o" d="M-562.3,118.5l-.025,8.77q-.514-.073-1.028-.18l.025-8.769c.343.071.685.131,1.028.179"/><path class="n" d="M-563.325,118.319l-.025,8.769q-.6-.125-1.2-.3l.025-8.77q.6.171,1.2.3"/><path class="m" d="M-564.529,118.022l-.025,8.77q-.84-.24-1.676-.569l.025-8.77q.836.33,1.676.569"/><path class="l" d="M-566.205,117.453l-.025,8.77a20.343,20.343,0,0,1-2.722-1.32l.024-8.77a20.411,20.411,0,0,0,2.723,1.32"/></g></g></g></g><g class="b"><path class="j" d="M-514,105.019l-.025,8.77-28.525,16.577.025-8.77Z"/><g class="b"><g class="ap"><g class="b"><path class="v" d="M-542.521,121.6l-.024,8.77-.159.094.025-8.77.158-.094"/><path class="u" d="M-542.679,121.69l-.025,8.77a6.8,6.8,0,0,0-1.109.806l.025-8.77a6.866,6.866,0,0,1,1.109-.806"/><path class="t" d="M-543.788,122.5l-.025,8.77a3.238,3.238,0,0,0-.347.37l.025-8.77a3.245,3.245,0,0,1,.347-.37"/><path class="s" d="M-544.135,122.866l-.025,8.77a2.077,2.077,0,0,0-.18.266l.025-8.769a2.022,2.022,0,0,1,.18-.267"/><path class="r" d="M-544.315,123.133l-.025,8.769a1.534,1.534,0,0,0-.1.219l.025-8.77a1.482,1.482,0,0,1,.1-.218"/><path class="q" d="M-544.418,123.351l-.025,8.77a1.234,1.234,0,0,0-.057.2l.025-8.77a1.241,1.241,0,0,1,.057-.2"/><path class="p" d="M-544.475,123.547l-.025,8.77a1.189,1.189,0,0,0-.021.186l.025-8.769a1.088,1.088,0,0,1,.021-.187"/><path class="o" d="M-544.5,123.734l-.025,8.769v.028l.025-8.77v-.027"/></g></g></g><path class="j" d="M-502.4,111.711l-.025,8.77-28.15,16.359.025-8.77Z"/><path class="i" d="M-502.4,111.711l-28.15,16.359c-5.92,3.441-12.269,3.689-18.021.367-5.736-3.311-5.329-6.989.591-10.43l28.15-16.359,5.839,3.371L-542.521,121.6c-2.644,1.537-2.432,2.766-.56,3.847,1.855,1.071,3.978,1.19,6.622-.347l28.525-16.577Z"/><g class="b"><g class="aq"><g class="b"><path class="v" d="M-530.554,128.07l-.025,8.77a21.145,21.145,0,0,1-4.1,1.851l.025-8.77a21.143,21.143,0,0,0,4.1-1.851"/><path class="u" d="M-534.658,129.921l-.025,8.77a18.338,18.338,0,0,1-2.379.6l.025-8.77a18.375,18.375,0,0,0,2.379-.6"/><path class="t" d="M-537.037,130.522l-.025,8.77q-.673.121-1.348.189l.025-8.77q.674-.067,1.348-.189"/><path class="s" d="M-538.385,130.711l-.025,8.77c-.364.037-.728.061-1.092.074l.025-8.77c.364-.013.728-.037,1.092-.074"/><path class="r" d="M-539.477,130.785l-.025,8.77c-.324.011-.649.012-.973,0l.025-8.769c.324.008.649.006.973,0"/><path class="q" d="M-540.45,130.79l-.025,8.769c-.311-.007-.621-.024-.932-.05l.025-8.769q.465.037.932.05"/><path class="p" d="M-541.382,130.74l-.025,8.769c-.315-.026-.631-.061-.945-.1l.025-8.77c.314.044.63.08.945.106"/><path class="o" d="M-542.327,130.634l-.025,8.77q-.512-.074-1.022-.178l.025-8.77c.34.07.68.129,1.022.178"/><path class="n" d="M-543.349,130.456l-.025,8.77q-.6-.126-1.2-.3l.025-8.77q.6.171,1.2.3"/><path class="m" d="M-544.548,130.16l-.025,8.77q-.792-.226-1.576-.536l.025-8.77q.783.309,1.576.536"/><path class="l" d="M-546.124,129.624l-.025,8.77a18.311,18.311,0,0,1-2.451-1.187c-2.75-1.588-4.088-3.26-4.083-4.949l.025-8.77c-.005,1.69,1.333,3.362,4.083,4.949a18.316,18.316,0,0,0,2.451,1.187"/></g></g></g></g><g class="b"><path class="h" d="M-494.556,122.369l-.025,8.77-3.3-1.9.025-8.77Z"/><g class="b"><g class="ar"><g class="b"><path class="l" d="M-493.177,124l-.025,8.77c0-.588-.5-1.127-1.379-1.636l.025-8.77c.882.509,1.38,1.048,1.379,1.636"/></g></g></g><g class="b"><g class="as"><g class="b"><path class="o" d="M-484.954,124.345l-.025,8.77c0,.027,0,.053,0,.079l.025-8.769c0-.027,0-.053,0-.08"/><path class="p" d="M-484.955,124.425l-.025,8.769a3.165,3.165,0,0,1-.061.529l.025-8.77a3.275,3.275,0,0,0,.061-.528"/><path class="q" d="M-485.016,124.953l-.025,8.77a3.424,3.424,0,0,1-.156.542l.025-8.77a3.425,3.425,0,0,0,.156-.542"/><path class="r" d="M-485.172,125.5l-.025,8.77a4.224,4.224,0,0,1-.277.589l.025-8.77a4.171,4.171,0,0,0,.277-.589"/><path class="s" d="M-485.449,126.084l-.025,8.77a5.479,5.479,0,0,1-.476.7l.025-8.77a5.478,5.478,0,0,0,.476-.7"/><path class="t" d="M-485.925,126.787l-.025,8.77a7.99,7.99,0,0,1-.862.921l.025-8.77a7.911,7.911,0,0,0,.862-.921"/><path class="u" d="M-486.787,127.708l-.025,8.77a15.2,15.2,0,0,1-2.475,1.806l.025-8.77a15.146,15.146,0,0,0,2.475-1.806"/><path class="v" d="M-489.262,129.514l-.025,8.77c-.106.064-.213.128-.323.192l.025-8.77.323-.192"/></g></g></g><path class="j" d="M-497.853,120.466l-.025,8.77-26.41,15.348.025-8.77Z"/><path class="j" d="M-489.585,129.706l-.025,8.77-18.7,10.866.025-8.77Z"/><path class="h" d="M-526.135,140.84l-.025,8.77-9.256-5.344.025-8.77Z"/><path class="i" d="M-489.164,119.355c5.855,3.381,5.5,6.911-.421,10.351l-18.7,10.866c-5.92,3.441-11.995,3.649-17.851.268l-9.255-5.344,36.97-21.485ZM-514.4,137.34l19.227-11.173c2.627-1.527,2.466-2.727.612-3.8l-3.3-1.9-26.41,15.347,3.3,1.9c1.855,1.071,3.926,1.16,6.571-.377"/><g class="b"><g class="at"><g class="b"><path class="v" d="M-508.284,140.572l-.025,8.77a21.127,21.127,0,0,1-4.1,1.856l.025-8.77a21.127,21.127,0,0,0,4.1-1.856"/><path class="u" d="M-512.386,142.428l-.025,8.77a17.749,17.749,0,0,1-2.291.579l.025-8.77a17.754,17.754,0,0,0,2.291-.579"/><path class="t" d="M-514.677,143.007l-.025,8.77q-.642.116-1.285.18l.025-8.769q.642-.064,1.285-.181"/><path class="s" d="M-515.962,143.188l-.025,8.769q-.52.053-1.041.071l.025-8.77c.347-.012.694-.036,1.041-.07"/><path class="r" d="M-517,143.258l-.025,8.77c-.31.01-.621.012-.932,0l.025-8.77c.311.008.621.007.932,0"/><path class="q" d="M-517.935,143.262l-.025,8.77q-.45-.011-.9-.048l.024-8.77c.3.025.6.041.9.048"/><path class="p" d="M-518.834,143.214l-.024,8.77c-.307-.025-.613-.06-.919-.1l.025-8.77q.459.066.918.1"/><path class="o" d="M-519.752,143.111l-.025,8.77q-.5-.07-.995-.174l.025-8.769q.5.1.995.173"/><path class="n" d="M-520.747,142.938l-.025,8.769q-.594-.123-1.187-.292l.025-8.77q.593.169,1.187.293"/><path class="m" d="M-521.934,142.645l-.025,8.77q-.8-.228-1.59-.54l.025-8.77q.793.312,1.59.54"/><path class="l" d="M-523.524,142.1l-.025,8.77a19.455,19.455,0,0,1-2.61-1.265l.024-8.77a19.523,19.523,0,0,0,2.611,1.265"/></g></g></g></g><g class="b"><path class="j" d="M-474.92,135.169l-.025,8.77-21.532,9.23.025-8.77Z"/><path class="j" d="M-502.206,146.888l-.025,8.77-7.718,3.311.025-8.77Z"/><path class="h" d="M-509.924,150.2l-.025,8.77-5.358-3.093.025-8.77Z"/><path class="h" d="M-495.028,151.032l-.025,8.77-7.178-4.144.025-8.77Z"/><path class="i" d="M-463.8,134l-31.012,24.925-5.907-3.411,5.692-4.481-7.178-4.144-7.718,3.311-5.358-3.093,42.912-18.054Zm-32.651,10.4,5.65,3.262,15.882-12.492-21.532,9.23"/><path class="aa" d="M-463.8,134l-.025,8.77-31.011,24.925.025-8.77Z"/><path class="h" d="M-494.813,158.924l-.025,8.77-5.907-3.411.025-8.77Z"/></g><g class="b"><path class="au" d="M-450.939,141.425l-.025,8.77-12.391,12.373.025-8.77Z"/><path class="av" d="M-436.429,149.8l-.025,8.77-32.1,10.1.025-8.77Z"/><path class="i" d="M-436.429,149.8l-32.1,10.1-12.249,7.119-5.856-3.381,12.249-7.119,17.337-18.629,6.113,3.53L-463.33,153.8l21.321-7.218Z"/><path class="j" d="M-468.534,159.905l-.025,8.77-12.249,7.119.025-8.77Z"/><path class="h" d="M-480.783,167.024l-.025,8.77-5.856-3.381.025-8.77Z"/><path class="j" d="M-434.84,158.309l-.025,8.77-21.515,9.24.025-8.77Z"/><path class="j" d="M-462.126,170.028l-.025,8.77-7.7,3.321.025-8.77Z"/><path class="h" d="M-469.827,173.349l-.025,8.77-5.375-3.1.025-8.77Z"/><path class="h" d="M-454.948,174.172l-.025,8.77-7.178-4.144.025-8.77Z"/><path class="aa" d="M-423.721,157.139l-.025,8.77-31.012,24.925.025-8.77Z"/><path class="h" d="M-454.733,182.064l-.025,8.77-5.907-3.411.025-8.77Z"/><path class="i" d="M-423.721,157.139l-31.012,24.925-5.907-3.411,5.692-4.481-7.178-4.144-7.7,3.321-5.375-3.1,42.929-18.044Zm-32.634,10.41,5.633,3.252,15.882-12.492-21.515,9.24"/></g></g><g transform="translate(381.523 3614)"><g transform="translate(0 45.174)"><g class="b"><g transform="translate(0.041)"><path class="aw" d="M28.048,268.19c10.458-6.131,27.6-6.173,38.225-.094l68.865,39.424c10.616,6.08,10.748,16.011.285,22.141l-68.01,39.861c-10.459,6.131-27.6,6.173-38.225.094L-39.677,330.2c-10.62-6.08-10.748-16.011-.285-22.146ZM131.9,309.416,63.037,269.992c-8.813-5.046-23.055-5-31.707.077l-68.01,39.866c-8.686,5.089-8.575,13.32.238,18.366L32.423,367.72c8.783,5.03,23.021,5.013,31.707-.076l68.01-39.861c8.652-5.072,8.545-13.337-.238-18.366" transform="translate(47.726 -263.564)"/></g><g transform="translate(4.644 2.672)"><path class="ax" d="M27.81,268.025c8.652-5.072,22.894-5.123,31.707-.077l68.865,39.423c8.783,5.029,8.894,13.294.238,18.366L60.61,365.6c-8.686,5.089-22.924,5.106-31.707.076l-68.865-39.419c-8.813-5.046-8.924-13.277-.238-18.366Z" transform="translate(46.644 -264.193)"/></g><path class="ay" d="M143.217,276.54c0,.259-.043.519-.068.778a8.508,8.508,0,0,1-.1.863c-.038.225-.111.451-.166.68-.072.272-.14.544-.238.816-.077.217-.179.434-.272.65-.123.285-.247.57-.4.85-.111.2-.238.4-.361.6-.2.319-.4.633-.633.944-.136.183-.285.361-.434.544a15.466,15.466,0,0,1-1.178,1.263c-.136.132-.255.268-.4.4-.259.234-.553.459-.833.689-.247.2-.476.4-.74.587-.306.225-.646.438-.978.655s-.625.425-.969.625l-68.01,39.866a28.906,28.906,0,0,1-3.758,1.794c-.353.144-.71.276-1.076.408-.821.3-1.684.544-2.547.787-.889.251-1.781.485-2.7.672-1.05.217-2.1.417-3.189.557-.293.038-.587.089-.884.123-1.492.161-3,.247-4.511.259-.247,0-.493.009-.74,0-1.5-.009-3-.085-4.485-.234l-.672-.077a43.389,43.389,0,0,1-4.37-.736c-.247-.055-.489-.123-.735-.183a36.447,36.447,0,0,1-3.694-1.11c-.255-.089-.519-.166-.765-.259a29.888,29.888,0,0,1-4.094-1.913l-68.865-39.424c-4.03-2.309-6.547-5.17-7.551-8.167a9.351,9.351,0,0,1-.5-3.027l-.043,15.041c-.013,4.056,2.674,8.12,8.048,11.2l68.865,39.419a29.672,29.672,0,0,0,3.809,1.82c.089.034.191.06.281.094.251.1.519.17.774.259.731.264,1.458.536,2.223.753.48.136.978.242,1.467.361.247.06.489.123.736.178.208.047.4.106.612.149.88.183,1.777.34,2.678.468.357.051.723.077,1.08.119.225.026.446.055.672.077.3.03.587.072.884.1.884.072,1.777.119,2.67.145.31.008.621-.009.931,0,.247,0,.489,0,.74,0,.366,0,.736.009,1.105,0,1-.034,2.007-.1,3-.2.136-.017.268-.043.4-.06.3-.03.587-.085.884-.123.727-.094,1.462-.174,2.177-.3.349-.064.667-.179,1.012-.251.923-.191,1.815-.425,2.7-.676.459-.128.948-.2,1.4-.344.4-.132.761-.3,1.148-.438.366-.132.723-.268,1.076-.408a28.929,28.929,0,0,0,3.758-1.8l68.01-39.861.259-.153c.255-.153.472-.323.714-.48.332-.212.667-.425.974-.646.264-.2.5-.4.744-.6.281-.225.57-.451.825-.68.047-.042.1-.077.14-.119.1-.089.17-.191.268-.285a16.179,16.179,0,0,0,1.173-1.263c.072-.085.17-.166.238-.255s.123-.2.2-.289c.23-.31.438-.625.633-.94.077-.127.183-.255.259-.383.038-.072.064-.149.1-.221.149-.281.272-.561.4-.846.068-.157.162-.315.221-.476.026-.06.03-.119.051-.179a8.005,8.005,0,0,0,.234-.812c.047-.178.119-.353.153-.531.013-.051.008-.1.017-.153a8.6,8.6,0,0,0,.1-.867c.013-.179.055-.357.06-.536l0-.238h0Z" transform="translate(47.736 -221.373)"/></g></g></g></g></svg>