<svg xmlns="http://www.w3.org/2000/svg" width="227" height="70.96" viewBox="0 0 227 70.96"><defs><style>.a{fill:#00b7d1;}</style></defs><g transform="translate(-51 -1009)"><g transform="translate(51 1009)"><path class="a" d="M-1144.812,1632.291v-26.445a9.074,9.074,0,0,0-4.519-7.833l-22.857-13.214a9.077,9.077,0,0,0-9.057,0l-22.856,13.214a9.076,9.076,0,0,0-4.433,6.6,8.684,8.684,0,0,0-.086,1.233v26.445a8.685,8.685,0,0,0,.086,1.233,9.076,9.076,0,0,0,4.433,6.6l22.856,13.214a9.052,9.052,0,0,0,4.236,1.205q.146.006.292.005t.292-.005a9.053,9.053,0,0,0,4.236-1.205l22.857-13.216A9.074,9.074,0,0,0-1144.812,1632.291Zm-57-12.822.049-7.6,5.844,3.413-.049,7.6Zm8.391,5.078.049-7.6,5.844,3.413-.049,7.6Zm44.635,7.745a5.089,5.089,0,0,1-2.536,4.4l-22.858,13.214a5.064,5.064,0,0,1-2.543.68l-.083-29.487a1.726,1.726,0,0,0-.849-1.486l-26.085-15.332a1.689,1.689,0,0,0-.59-.214,5.094,5.094,0,0,1,2.212-2.613l22.856-13.214a5.072,5.072,0,0,1,2.542-.68,5.072,5.072,0,0,1,2.542.68l22.858,13.214a5.092,5.092,0,0,1,2.536,4.4Z" transform="translate(1208.62 -1583.589)"/><path class="a" d="M-946.716,1737.871l.049,7.6,5.844-3.412-.049-7.6Z" transform="translate(995.805 -1706.18)"/><path class="a" d="M-946.716,1794.343l.049,7.6,5.844-3.412-.049-7.6Z" transform="translate(995.805 -1752.068)"/><path class="a" d="M-991.488,1764.962l.049,7.6,5.844-3.412-.049-7.6Z" transform="translate(1032.185 -1728.193)"/><path class="a" d="M-1084.619,1647.5l-12.167-7.025a1.509,1.509,0,0,0-1.513,0l-12.071,7.015a1.51,1.51,0,0,0,0,2.613l12.167,7.025a1.51,1.51,0,0,0,1.513,0l12.072-7.015A1.51,1.51,0,0,0-1084.619,1647.5Z" transform="translate(1129.397 -1629.646)"/><g transform="translate(72.467 20.707)"><path class="a" d="M-801.5,1709.656a5,5,0,0,0-1.309-1.329,8.62,8.62,0,0,0-1.647-.893,25.8,25.8,0,0,0-3.412-1.19q-1.865-.515-4.4-1.111a8.192,8.192,0,0,1-3.114-1.29,2.366,2.366,0,0,1-.972-1.924q0-3.214,4.682-3.214a6.127,6.127,0,0,1,3.809.992,4.138,4.138,0,0,1,1.468,3.015h5.237a9.174,9.174,0,0,0-.833-3.551,7.814,7.814,0,0,0-2.123-2.737,9.817,9.817,0,0,0-3.273-1.746,13.912,13.912,0,0,0-4.285-.615,13.257,13.257,0,0,0-4.265.615,9.165,9.165,0,0,0-3.035,1.666,6.54,6.54,0,0,0-1.825,2.48,7.863,7.863,0,0,0-.6,3.055,8.075,8.075,0,0,0,.675,3.531,6.045,6.045,0,0,0,2.1,2.36,13.054,13.054,0,0,0,3.63,1.627q2.2.655,5.217,1.29a11.947,11.947,0,0,1,2.063.615,4.148,4.148,0,0,1,1.25.774,2.218,2.218,0,0,1,.615.972,4.125,4.125,0,0,1,.159,1.17,3,3,0,0,1-1.349,2.579,6.865,6.865,0,0,1-3.968.952,6.66,6.66,0,0,1-4.027-1.17,3.842,3.842,0,0,1-1.646-3.194h-5.317a8.186,8.186,0,0,0,3.055,6.586q2.9,2.221,8.649,2.222a13.591,13.591,0,0,0,3.849-.536,9.876,9.876,0,0,0,3.174-1.547,7.569,7.569,0,0,0,2.142-2.48,6.979,6.979,0,0,0,.794-3.372,9.946,9.946,0,0,0-.318-2.7A6.66,6.66,0,0,0-801.5,1709.656Z" transform="translate(821.994 -1694.064)"/><path class="a" d="M-685.686,1735.273q-2.321-2.9-6.844-2.9a10.789,10.789,0,0,0-4.007.694,7.97,7.97,0,0,0-2.956,2,8.813,8.813,0,0,0-1.845,3.134,12.378,12.378,0,0,0-.635,4.087q0,10.633,9.76,10.633a8.992,8.992,0,0,0,5.4-1.627,8.56,8.56,0,0,0,3.174-4.642h-5.317a2.6,2.6,0,0,1-1.25,1.607,4.316,4.316,0,0,1-2.242.575,3.927,3.927,0,0,1-3.075-1.309,5.57,5.57,0,0,1-1.289-3.531h13.45Q-683.365,1738.17-685.686,1735.273Zm-10.97,5.475a4.824,4.824,0,0,1,1.29-3.154,3.66,3.66,0,0,1,2.678-1.131,4.288,4.288,0,0,1,1.468.258,3.551,3.551,0,0,1,1.269.793,3.949,3.949,0,0,1,.893,1.349,5.437,5.437,0,0,1,.377,1.885Z" transform="translate(724.469 -1725.196)"/><path class="a" d="M-576.3,1704.168h-6.308l-6.427,7.419v-14.561h-5.2v26.662h5.2v-6.19l2.5-2.579,4.285,8.768h5.793l-6.388-12.339Z" transform="translate(636.922 -1696.471)"/><path class="a" d="M-488.9,1735.174a8.923,8.923,0,0,0-3.115-2.063,10.982,10.982,0,0,0-4.126-.734,11.248,11.248,0,0,0-4.186.734,8.95,8.95,0,0,0-3.154,2.083,9.054,9.054,0,0,0-2,3.254,12.193,12.193,0,0,0-.694,4.205,12.389,12.389,0,0,0,.675,4.166,8.961,8.961,0,0,0,1.964,3.253,8.9,8.9,0,0,0,3.154,2.1,11.255,11.255,0,0,0,4.245.754,11.025,11.025,0,0,0,4.106-.734,8.735,8.735,0,0,0,3.134-2.083,9.238,9.238,0,0,0,1.984-3.234,12.162,12.162,0,0,0,.694-4.225,12.334,12.334,0,0,0-.694-4.245A9.013,9.013,0,0,0-488.9,1735.174Zm-7.241,13.43q-4.722,0-4.721-5.951,0-5.911,4.721-5.912t4.721,5.912Q-491.415,1748.6-496.136,1748.6Z" transform="translate(565.369 -1725.196)"/><path class="a" d="M-385.732,1706.976h-5.078v17.457a10.244,10.244,0,0,0,.436,3.015,6.484,6.484,0,0,0,1.408,2.5,6.9,6.9,0,0,0,2.48,1.706,9.4,9.4,0,0,0,3.65.635,9.02,9.02,0,0,0,3.551-.635,6.816,6.816,0,0,0,2.46-1.726,6.929,6.929,0,0,0,1.428-2.5,9.539,9.539,0,0,0,.456-2.956v-5.555h-4.8V1724a4.669,4.669,0,0,1-.734,2.817,2.65,2.65,0,0,1-2.281.992,2.566,2.566,0,0,1-2.281-1.012,5.05,5.05,0,0,1-.694-2.877V1715.9h10.792v-3.65h-10.792Z" transform="translate(471.628 -1704.556)"/><path class="a" d="M-283.252,1734.381a6.3,6.3,0,0,0-2.579-1.488,12.914,12.914,0,0,0-3.908-.516,13.749,13.749,0,0,0-3.968.5,6.871,6.871,0,0,0-2.638,1.408,5.324,5.324,0,0,0-1.468,2.182,8.836,8.836,0,0,0-.5,2.777h4.8a3.719,3.719,0,0,1,.972-2.1,3.47,3.47,0,0,1,2.559-.794,4.643,4.643,0,0,1,2.4.536,1.657,1.657,0,0,1,.893,1.488,1.664,1.664,0,0,1-.675,1.488,6.917,6.917,0,0,1-2.618.734q-1.944.278-3.591.615a8.986,8.986,0,0,0-2.837,1.051,5.028,5.028,0,0,0-1.865,1.964,7.078,7.078,0,0,0-.674,3.353,5.09,5.09,0,0,0,1.567,3.868q1.567,1.488,4.939,1.488a9.2,9.2,0,0,0,3.492-.615,6.381,6.381,0,0,0,2.42-1.646,7.906,7.906,0,0,0,.317,1.746h4.8v-12.339a11.351,11.351,0,0,0-.436-3.273A5.675,5.675,0,0,0-283.252,1734.381Zm-3.353,10.613a3.711,3.711,0,0,1-.377,1.647,4.568,4.568,0,0,1-.992,1.349,4.585,4.585,0,0,1-1.468.912,4.97,4.97,0,0,1-1.845.338q-2.5,0-2.5-2.182a2.356,2.356,0,0,1,.833-1.944A7.4,7.4,0,0,1-289.9,1744a20.983,20.983,0,0,0,2.182-.516,2.789,2.789,0,0,0,1.151-.635Z" transform="translate(396.981 -1725.196)"/><rect class="a" width="5.515" height="5.356" transform="translate(117.517 21.861)"/><rect class="a" width="5.515" height="26.344" transform="translate(124.817 0.873)"/><path class="a" d="M-95.616,1706.219a11.875,11.875,0,0,0-2.519-4.047,10.818,10.818,0,0,0-3.868-2.559,13.284,13.284,0,0,0-4.92-.893h-10.2v26.344h11.03a10.926,10.926,0,0,0,4.642-.972,10.471,10.471,0,0,0,3.61-2.738,12.406,12.406,0,0,0,2.321-4.245,17.567,17.567,0,0,0,.813-5.495A14.993,14.993,0,0,0-95.616,1706.219Zm-6.348,12.121q-1.627,2.242-5.237,2.242h-4.563v-17.3h4.087a10.9,10.9,0,0,1,3.372.456,5.1,5.1,0,0,1,2.281,1.468,6.089,6.089,0,0,1,1.29,2.6,15.914,15.914,0,0,1,.4,3.809Q-100.337,1716.1-101.964,1718.339Z" transform="translate(249.237 -1697.847)"/></g></g></g></svg>