<svg xmlns="http://www.w3.org/2000/svg" xmlns:xlink="http://www.w3.org/1999/xlink" width="123.066" height="124.489" viewBox="0 0 123.066 124.489"><defs><style>.a{fill:#8f8b87;}.b{fill:#fef1f2;}.c{fill:#acacad;}.d{fill:#c1c1c0;}.e{fill:#e3e3e3;}.f{fill:#f0f0f0;}.g{fill:#adacac;}.h{fill:#dcf0fa;}.i{fill:#d5d5d5;}.j{fill:#3d3d3d;}.k{fill:#273747;}.l{fill:#c2bebd;}.m{fill:url(#a);}.n{fill:#0d0e0d;}.o{fill:#ecb800;}.p{fill:url(#b);}.q{fill:url(#c);}.r{fill:url(#d);}</style><linearGradient id="a" x1="-7.632" y1="30.122" x2="-7.54" y2="30.03" gradientUnits="objectBoundingBox"><stop offset="0" stop-color="#2b2b2b"/><stop offset="0.096" stop-color="#2f2d2e"/><stop offset="0.301" stop-color="#312f30"/><stop offset="0.501" stop-color="#211f1f"/><stop offset="0.517" stop-color="#1f1d1e"/><stop offset="1" stop-color="#040505"/></linearGradient><linearGradient id="b" x1="-13.48" y1="53.54" x2="-13.349" y2="53.428" gradientUnits="objectBoundingBox"><stop offset="0" stop-color="#efc400"/><stop offset="1" stop-color="#f3e000"/></linearGradient><linearGradient id="c" x1="-10.243" y1="35.406" x2="-10.143" y2="35.307" xlink:href="#a"/><linearGradient id="d" x1="-17.546" y1="62.075" x2="-17.404" y2="61.956" xlink:href="#b"/></defs><path class="a" d="M-3.8,85.426l-6.913.34-3.4-15.105L-3.958,71Z" transform="translate(123.109 2.306)"/><path class="a" d="M-12.453,89.521l-6.913.34-3.4-15.105,10.157.34Z" transform="translate(94.977 15.621)"/><path class="b" d="M-34.934,79.007,13.881,95.914,67.644,70.831,19.684,53.5Z" transform="translate(55.417 -53.498)"/><path class="c" d="M-16.343,82.515l-9.217,35.5c26.882-12.631,36.528-17.069,62.641-29.356V57.593Z" transform="translate(85.896 -40.183)"/><path class="d" d="M-27.3,59.5l-9.987,34.479,49.924,17.58,9.132-35.244Z" transform="translate(47.78 -33.983)"/><g transform="translate(0.085 59.996)"><path class="e" d="M-39.732,77.082,10.01,94.747,20.591,85.19-29.32,67.61Z" transform="translate(39.732 -67.61)"/></g><path class="d" d="M-39.732,69.838v33.454L9.512,120.617,9.937,87.5Z" transform="translate(39.817 -0.37)"/><g transform="translate(0 91.742)"><path class="f" d="M-39.667,75.077l-.085,11.181L9.492,103.923l1.025-11.011Z" transform="translate(39.752 -75.077)"/></g><path class="d" d="M-39.732,69.838l.085,6.743L9.767,94.012l.17-6.488Z" transform="translate(39.817 -0.37)"/><path class="g" d="M45.653,64.88c-26.027,12.206-35.674,16.725-62.13,29.1l-11.1,9.642-.6,33.369,8.107-3.669c.85-22.443,24.658-31.405,25.177-11.776l13.826-6.5C18.856,93.713,38.923,86.456,41.9,104.125l3.669-1.535Z" transform="translate(77.413 -16.49)"/><path class="h" d="M-27.634,60.423l-9.047,27.821L8.21,104.638l8.022-29.016Z" transform="translate(49.737 -30.982)"/><path class="i" d="M-12.552,74.664a10.592,10.592,0,0,1,3.669,8.707l2.9-1.195.85-.34V71.263Z" transform="translate(128.191 4.264)"/><path class="i" d="M-28.02,82.8l-.17,11.266,8.107-3.754A29.636,29.636,0,0,1-16.924,78.1Z" transform="translate(77.345 26.507)"/><path class="i" d="M-1.28,73.893l-19.884,9.3a12.057,12.057,0,0,1,3.5,9.047l6.913-3.329,6.913-3.159A27.477,27.477,0,0,1-1.28,73.893Z" transform="translate(100.19 12.815)"/><g transform="translate(35.66 91.209)"><g transform="translate(0.079 1.633)"><path class="d" d="M-28.172,75.345c-2.049.17-3.329,3.669-3.159,6.913.255,3.329,2.049,5.718,4.1,5.463A4.618,4.618,0,0,0-23.9,83.967C-23.988,84.052-22.194,75.005-28.172,75.345Z" transform="translate(31.346 -75.336)"/></g><path class="j" d="M-27.087,74.974c-2.644.34-4.524,4.1-4.251,8.363s2.644,7.423,5.293,7c2.644-.34,4.524-4.1,4.251-8.278C-22.138,77.793-24.459,74.651-27.087,74.974Zm3.244,7.253c.255,3.329-1.195,6.228-3.244,6.488s-3.826-2.219-4.1-5.463c-.255-3.329,1.275-6.228,3.244-6.488,2.049-.251,3.839,2.223,4.1,5.467Z" transform="translate(31.364 -74.952)"/></g><g transform="translate(3.915 79.517)"><g transform="translate(0.079 1.628)"><path class="d" d="M-35.639,72.6c-2.049.17-3.329,3.669-3.159,6.913.255,3.329,2.049,5.718,4.1,5.463a4.618,4.618,0,0,0,3.329-3.754C-31.455,81.306-29.661,72.174-35.639,72.6Z" transform="translate(38.813 -72.585)"/></g><path class="j" d="M-34.554,72.224c-2.644.34-4.524,4.1-4.251,8.363s2.644,7.423,5.293,7c2.644-.34,4.524-4.1,4.251-8.278C-29.6,75.043-31.926,71.9-34.554,72.224Zm3.244,7.253c.255,3.329-1.195,6.228-3.244,6.488s-3.826-2.219-4.1-5.463c-.255-3.329,1.275-6.228,3.244-6.488,2.049-.251,3.839,2.138,4.1,5.467Z" transform="translate(38.831 -72.202)"/></g><path class="k" d="M7.46,105.634l-43.7-15.19a.8.8,0,0,1-.519-.995l.009-.03,8.792-28.591a.892.892,0,0,1,1.11-.51l42.939,15.19a.8.8,0,0,1,.523,1l-.013.026L8.582,105.018A.936.936,0,0,1,7.46,105.634Z" transform="translate(49.377 -31.472)"/><path class="k" d="M-18.913,71.887-24.121,93.57a2.551,2.551,0,0,0,1.875,3.082,2.549,2.549,0,0,0,1.709-.179L1.4,86.483a2.623,2.623,0,0,0,1.535-2.389L2.68,64.537a2.574,2.574,0,0,0-2.6-2.547,2.643,2.643,0,0,0-1.067.242l-16.555,7.852A2.875,2.875,0,0,0-18.913,71.887Z" transform="translate(90.341 -25.887)"/><path class="l" d="M-31.421,68.654l.77.255h0Z" transform="translate(66.84 -4.219)"/><path class="k" d="M3.85,83.33l-.34-23.213a1.007,1.007,0,0,0-.969-1.042,1.041,1.041,0,0,0-.48.1h0v.255l-19.289,9.217h0V93.733L3.254,84.261A1.038,1.038,0,0,0,3.85,83.33Z" transform="translate(112.984 -35.365)"/><g transform="translate(58.244 93.564)"><path class="m" d="M-7.064,76.247a7.66,7.66,0,0,0-7.852.769,24.382,24.382,0,0,0-11.1,19.2,7.86,7.86,0,0,0,3.244,7.168l3.924,2.3a7.769,7.769,0,0,1-3.244-7.168,24.382,24.382,0,0,1,11.1-19.2,7.66,7.66,0,0,1,7.852-.77Z" transform="translate(26.052 -75.506)"/><path class="n" d="M-25.069,96.761a7.86,7.86,0,0,0,3.244,7.168,7.649,7.649,0,0,0,7.852-.769,24.371,24.371,0,0,0,11.1-19.2A7.851,7.851,0,0,0-6.12,76.788a7.66,7.66,0,0,0-7.852.77A24.382,24.382,0,0,0-25.069,96.761Z" transform="translate(29.122 -73.747)"/><path class="o" d="M-24.617,93.532c0,5.718,4.009,8.107,9.047,5.2a20.125,20.125,0,0,0,9.047-15.62c0-5.718-4.009-8.107-9.047-5.208A19.907,19.907,0,0,0-24.617,93.532Z" transform="translate(30.719 -71.713)"/><path class="p" d="M-8.035,82.887a5.84,5.84,0,0,0-3.4-6.143,7.068,7.068,0,0,1,1.964,5.378,19.892,19.892,0,0,1-9.047,15.615,6.735,6.735,0,0,1-5.633.94,5.844,5.844,0,0,0,7.083-.17A20.125,20.125,0,0,0-8.035,82.887Z" transform="translate(32.231 -71.48)"/></g><g transform="translate(96.228 76.9)"><path class="q" d="M.584,72.262a7.136,7.136,0,0,0-7.338.769,22.931,22.931,0,0,0-10.327,17.92,7.362,7.362,0,0,0,3.074,6.743l3.669,2.126a7.362,7.362,0,0,1-3.074-6.743A22.8,22.8,0,0,1-3.085,75.157a7.557,7.557,0,0,1,7.338-.77Z" transform="translate(17.118 -71.586)"/><path class="n" d="M-16.218,91.433a7.362,7.362,0,0,0,3.074,6.743,7.135,7.135,0,0,0,7.338-.77A22.92,22.92,0,0,0,4.52,79.487a7.353,7.353,0,0,0-3.074-6.743,7.136,7.136,0,0,0-7.338.77A23.184,23.184,0,0,0-16.218,91.433Z" transform="translate(19.924 -70.019)"/><path class="o" d="M-15.784,88.421c0,5.378,3.754,7.6,8.448,4.864a18.6,18.6,0,0,0,8.448-14.6c0-5.378-3.754-7.6-8.448-4.864A18.613,18.613,0,0,0-15.784,88.421Z" transform="translate(21.454 -68.116)"/><path class="r" d="M-.326,78.512a5.65,5.65,0,0,0-3.159-5.8,6.658,6.658,0,0,1,1.794,5.034,18.461,18.461,0,0,1-8.448,14.6,6.785,6.785,0,0,1-5.2.94,5.459,5.459,0,0,0,6.573-.085A18.982,18.982,0,0,0-.326,78.512Z" transform="translate(22.891 -67.934)"/></g></svg>