<svg xmlns="http://www.w3.org/2000/svg" xmlns:xlink="http://www.w3.org/1999/xlink" width="94.386" height="110.49" viewBox="0 0 94.386 110.49"><defs><style>.a{fill:#b0afaf;}.b{fill:#e6e6e6;}.c{fill:url(#a);}.d{fill:url(#b);}.e{fill:#fff;}.f{fill:#76a52e;}.g{fill:#eaeaea;}.h{fill:#29383e;}</style><linearGradient id="a" x1="-0.249" y1="0.5" x2="0.751" y2="0.5" gradientUnits="objectBoundingBox"><stop offset="0" stop-color="#2b2b2b"/><stop offset="0.281" stop-color="#282727"/><stop offset="0.499" stop-color="#1f1e1e"/><stop offset="0.531" stop-color="#1d1c1c"/><stop offset="0.876" stop-color="#0b0b0b"/><stop offset="1" stop-color="#040505"/></linearGradient><linearGradient id="b" x1="-0.249" y1="0.5" x2="0.751" y2="0.5" xlink:href="#a"/></defs><g transform="translate(21.605 82.294)"><path class="a" d="M38.317,38.266c-11.452,0-20.735-5.362-20.735-11.975v4.248c0,6.612,9.283,11.975,20.735,11.975s20.739-5.362,20.739-11.975V26.291C59.055,32.9,49.773,38.266,38.317,38.266Z" transform="translate(-17.581 -14.318)"/><ellipse class="b" cx="20.738" cy="11.973" rx="20.738" ry="11.973"/></g><g transform="translate(25.451 10.283)"><g transform="translate(10.759 63.726)"><path class="a" d="M27.148,25.069c-3.385,0-6.132-1.586-6.132-3.542V41.522c0,1.956,2.747,3.542,6.132,3.542s6.136-1.586,6.136-3.542V21.527C33.284,23.483,30.537,25.069,27.148,25.069Z" transform="translate(-21.016 -21.527)"/></g><g transform="translate(10.759 31.234)"><path class="c" d="M27.148,17.424c-3.385,0-6.132-1.586-6.132-3.538V36.517c0,1.956,2.747,3.542,6.132,3.542s6.136-1.586,6.136-3.542V13.886C33.284,15.838,30.537,17.424,27.148,17.424Z" transform="translate(-21.016 -13.886)"/></g><g transform="translate(10.759)"><path class="d" d="M27.148,10.083c-3.385,0-6.132-1.586-6.132-3.542V29.176c0,1.956,2.747,3.538,6.132,3.538s6.136-1.582,6.136-3.538V6.541C33.284,8.5,30.537,10.083,27.148,10.083Z" transform="translate(-21.016 -6.541)"/></g><path class="e" d="M25.172,19.174l-.013.132,0,.026C25.189,18.906,25.168,19.25,25.172,19.174Z" transform="translate(3.217 34.351)"/><path class="f" d="M76.437,8.729a.842.842,0,0,1-.064.515c-.464.974-2.581,2.662-4.937,3.908-4.852,2.624-10.865,4.686-16.958,6.668-6.132,2-12.515,3.819-18.961,6a71.473,71.473,0,0,0-9.751,4.014,18.774,18.774,0,0,0-5.039,3.64,8.273,8.273,0,0,0-2.1,3.921,8.135,8.135,0,0,0-.136,1.425c.017.264,0,.264.047.77a8.509,8.509,0,0,0,.476,2.177,8.382,8.382,0,0,0,2.441,3.457,11.587,11.587,0,0,0,2.989,1.795,24.257,24.257,0,0,0,5.4,1.476c3.393.574,6.54.8,9.466,1.225,2.845.391,5.745,1.127,6.842,2.194a1.908,1.908,0,0,1,.536.748,2.213,2.213,0,0,1,.132.464l.034.281,0,.153,0,.081v.013l.013-.132c0,.077.017-.268-.009.157l0-.026-.034.412c-.013.2-.034.383-.055.357a1.757,1.757,0,0,1-.111.315,2.521,2.521,0,0,1-.587.859c-1.2,1.212-3.785,2.118-6.225,2.828-2.5.753-5.086,1.374-7.65,2.36a13.8,13.8,0,0,0-7,5.145A9.591,9.591,0,0,0,23.814,70.2a8.572,8.572,0,0,0-.06,1.1c.013.289,0,.455.043.906a9.112,9.112,0,0,0,.434,2.143A9.305,9.305,0,0,0,29.389,79.9a14.7,14.7,0,0,0,5.673,1.216,18.937,18.937,0,0,0,7.633-1.335,14.225,14.225,0,0,0,2.53-1.25l.264-.183.043-.03a2.637,2.637,0,1,0-3.083-4.278,9.821,9.821,0,0,1-1.726.884,13.862,13.862,0,0,1-5.515,1.05c-2.369-.034-5.375-1-6-3.245a3.958,3.958,0,0,1-.179-.863,5.967,5.967,0,0,1-.026-.663,4.5,4.5,0,0,1,.043-.5,4.344,4.344,0,0,1,.634-1.965,8.854,8.854,0,0,1,4.439-2.964,70.557,70.557,0,0,1,7.208-2.054c2.636-.8,5.647-1.34,8.722-4a8.166,8.166,0,0,0,1.892-2.615,7.074,7.074,0,0,0,.574-1.739,4.516,4.516,0,0,0,.119-.719l.064-.544.017-.289,0-.1v-.2l0-.391-.068-.816a8.334,8.334,0,0,0-.4-1.675,8.15,8.15,0,0,0-1.863-2.968A12.911,12.911,0,0,0,45.3,44.683a35.655,35.655,0,0,0-4.929-1.25c-3.2-.6-6.349-.965-9.245-1.59a17.881,17.881,0,0,1-3.84-1.191c-1.072-.527-1.429-1.05-1.429-1.276,0-.047-.043-.264-.017-.213a4.55,4.55,0,0,1,0-.455c.017.23.013.136,0,.208-.013.145.026-.009.323-.289a12.326,12.326,0,0,1,3.074-1.9A64.426,64.426,0,0,1,38,33.6c6.191-1.824,12.647-3.321,19.038-4.984,6.4-1.714,12.74-3.41,19.029-6.336,3.1-1.59,6.43-3.177,9.342-7.216a11.81,11.81,0,0,0,1.68-3.78c.094-.4.2-.991.225-1.225l.064-.549v0A33.26,33.26,0,0,0,76.437,8.729Z" transform="translate(-18.486 0.001)"/><g transform="translate(10.759 15.815)"><path class="d" d="M27.148,13.8c-3.385,0-6.132-1.586-6.132-3.542V32.891c0,1.956,2.747,3.542,6.132,3.542s6.136-1.586,6.136-3.542V10.26C33.284,12.216,30.537,13.8,27.148,13.8Z" transform="translate(-21.016 -10.26)"/></g><g transform="translate(10.759 50.527)"><path class="a" d="M27.148,21.965c-3.385,0-6.132-1.586-6.132-3.542V38.418c0,1.956,2.747,3.542,6.132,3.542s6.136-1.586,6.136-3.542V18.423C33.284,20.379,30.537,21.965,27.148,21.965Z" transform="translate(-21.016 -18.423)"/></g></g><g transform="translate(0 10.677)"><g transform="translate(0 24.444)"><path class="g" d="M97.187,12.382c0,13.5-18.957,24.447-42.345,24.447S12.5,25.883,12.5,12.382h0a42.343,42.343,0,0,0,84.686,0Z" transform="translate(-12.501 -12.382)"/></g><ellipse class="a" cx="42.341" cy="24.445" rx="42.341" ry="24.445" transform="translate(0.002)"/><ellipse class="g" cx="37.922" cy="21.894" rx="37.922" ry="21.894" transform="translate(4.421 2.551)"/></g><path class="f" d="M82.769,23.91l.03-.523,0-.242,0-.485c0-.319-.034-.651-.06-.974a13.2,13.2,0,0,0-2.781-6.842,23,23,0,0,0-9.053-6.57,43.1,43.1,0,0,0-8.666-2.768,61.086,61.086,0,0,0-15.47-1.331A43.638,43.638,0,0,0,33.986,6.522a25.843,25.843,0,0,0-8.909,5.294c-.519.493-.91.884-1.344,1.378l-.991,1.229-.4.468a10.407,10.407,0,0,0-1.616,2.585,10.05,10.05,0,0,0,18.468,7.935l.242-.566c.068-.145.034-.106-.008-.068a1.042,1.042,0,0,1-.123.077c-.077.026-.03-.115-.034-.2.034-.4.489-1.293,2.028-2.4a21.016,21.016,0,0,1,7.335-3.045A37.6,37.6,0,0,1,60.2,18.36a31.087,31.087,0,0,1,6.3,1.169,11.724,11.724,0,0,1,4.639,2.492,2.1,2.1,0,0,1,.685,1.114A33.26,33.26,0,0,1,82.769,23.91Z" transform="translate(11.578 -4.123)"/><path class="h" d="M26.366,6.81c5.52.774-.327,7.522-3.279,7.493C18.133,14.251,22.552,6.274,26.366,6.81Z" transform="translate(14.763 4.532)"/></svg>