<svg xmlns="http://www.w3.org/2000/svg" width="94.829" height="114.904" viewBox="0 0 94.829 114.904"><defs><style>.a{isolation:isolate;}.b{fill:#187868;}.c{fill:#71c1b7;}.d{fill:#279788;}.e{fill:#3bb6ec;}</style></defs><g class="a"><g transform="translate(58.21 98.414)"><path class="b" d="M25.081,472.667l12.176-7.076L39.43,475l-12.176,7.076Z" transform="translate(-25.081 -465.591)"/></g><g transform="translate(45.69 71.636)"><path class="c" d="M34.312,462.021,22.136,469.1a12.179,12.179,0,0,0,3.167-2.734l12.18-7.074A12.161,12.161,0,0,1,34.312,462.021Z" transform="translate(-22.136 -459.292)"/></g><g transform="translate(9.298 11.908)"><path class="d" d="M24.354,452.322l12.176-7.079c-6.547,3.805-10.739,12.393-10.777,25.917-.068,23.447,12.971,44.338,31.176,54.852,6.233,3.6,12.839,5.867,17.737,5.74l-12.176,7.074c-4.9.128-11.5-2.143-17.737-5.739-18.2-10.51-31.244-31.4-31.176-54.852C13.614,464.71,17.806,456.127,24.354,452.322Z" transform="translate(-13.576 -445.243)"/></g><g transform="translate(31.405 40.116)"><path class="b" d="M24,458.952l12.18-7.074c-3.193,1.854-5.212,6.237-5.229,12.3-.013,5.331,2.058,9.906,6.088,12.231a5.333,5.333,0,0,0,5.578.06l-12.176,7.079a5.352,5.352,0,0,1-5.578-.06c-4.03-2.33-6.1-6.9-6.088-12.236C18.793,465.189,20.812,460.81,24,458.952Z" transform="translate(-18.776 -451.878)"/></g><g transform="translate(58.121 66.611)"><path class="b" d="M25.6,465.184,37.78,458.11c-1.246,7.576-.4,11.862,3.019,13.975l-12.176,7.079C25.2,477.05,24.359,472.765,25.6,465.184Z" transform="translate(-25.06 -458.11)"/></g><g transform="translate(61.684 80.585)"><path class="d" d="M44.264,461.6l-12.176,7.074a5.969,5.969,0,0,1-6.19-.2L38.074,461.4A5.979,5.979,0,0,0,44.264,461.6Z" transform="translate(-25.898 -461.397)"/></g><g transform="translate(58.667 42.748)"><path class="b" d="M28.927,459.573,41.1,452.5l-3.739,23.862-12.176,7.076Z" transform="translate(-25.188 -452.497)"/></g><g transform="translate(27.422 26.611)"><path class="d" d="M17.839,457.585l12.176-7.074c4.944-2.874,11.93-2.5,20.449,2.415A60.238,60.238,0,0,1,65,464.838l-12.176,7.078A60.05,60.05,0,0,0,38.288,460C29.764,455.085,22.783,454.715,17.839,457.585Z" transform="translate(-17.839 -448.701)"/></g><g transform="translate(0 7.076)"><path class="e" d="M73.8,486.856l-3.741,23.859c-1.246,7.58-.4,11.866,3.019,13.979,5.378,3.1,11.874-.888,11.921-16.887.051-18.256-10.169-38.365-29.114-49.3-18.7-10.794-35.121-3.4-35.193,23.421-.068,23.451,12.971,44.342,31.176,54.852,6.233,3.6,12.839,5.867,17.737,5.739l2.172,9.413c-7.342-.438-13.7-2.848-22.375-7.857-20.288-11.713-38.084-38.722-38.008-66.25.081-28.646,18.243-43.054,45.86-27.111,21.508,12.419,36.86,38.3,36.792,61.892-.06,20.5-10.118,27.634-23.315,20.016a20.759,20.759,0,0,1-10.48-16.882c-4.056,4.834-9.561,5.31-16.036,1.573-7.942-4.587-13.668-14.646-13.639-26.163.051-17.125,11.092-26.367,28.689-16.206A60.048,60.048,0,0,1,73.8,486.856Zm-14.48,13.158,1.747-12.359a24.763,24.763,0,0,0-3.792-2.746c-8.061-4.655-14.442.8-14.476,11.615-.013,5.336,2.058,9.906,6.088,12.236,4.524,2.61,9.306-1.241,10.433-8.745" transform="translate(-11.389 -444.107)"/></g><g transform="translate(13.469)"><path class="d" d="M14.557,452.432l12.18-7.079c7.95-4.621,19.068-3.992,32.387,3.7,21.508,12.418,36.86,38.3,36.792,61.892-.034,11.364-3.138,18.621-8.15,21.533L75.59,539.557c5.012-2.912,8.116-10.17,8.15-21.538.068-23.591-15.284-49.474-36.792-61.892C33.629,448.44,22.511,447.811,14.557,452.432Z" transform="translate(-14.557 -442.442)"/></g></g></svg>