<svg xmlns="http://www.w3.org/2000/svg" width="124.395" height="109.811" viewBox="0 0 124.395 109.811"><defs><style>.a{fill:#f6750e;}.b{fill:#c5cfd4;}.c{fill:#eaeaea;}.d{fill:#ecf5f5;}.e{fill:#a0b1b9;}</style></defs><circle class="a" cx="31.293" cy="31.293" r="31.293" transform="translate(61.809)"/><g transform="translate(0 14.524)"><g transform="translate(35.436 0.874)"><path class="b" d="M67.9,152.2v-.009a15.682,15.682,0,0,0,1.11-6.109c0-10.267-7.2-22.749-16.092-27.881a22.342,22.342,0,0,0-6.041-2.462L16.74,108.49l42.6,73.779Z" transform="translate(-16.74 -108.49)"/></g><path class="c" d="M45.2,113.023c-9.578-5.531-18.247-6.054-24.526-2.432L10.8,116.3c6.275-3.622,14.948-3.1,24.526,2.432,19.157,11.058,34.687,37.957,34.687,60.077,0,11.062-3.886,18.834-10.161,22.456l9.885-5.705c6.275-3.622,10.157-11.394,10.157-22.456C79.889,150.98,64.363,124.081,45.2,113.023Z" transform="translate(-0.634 -108.285)"/><g transform="translate(0 5.705)"><path class="d" d="M8.405,134.389c0-11.058,3.882-18.83,10.161-22.456s14.948-3.1,24.526,2.432c19.157,11.058,34.687,37.957,34.687,60.077,0,11.062-3.886,18.834-10.161,22.456S52.671,200,43.092,194.47C23.935,183.408,8.405,156.513,8.405,134.389Z" transform="translate(-8.405 -109.626)"/></g><path class="e" d="M9.624,132.262c0-18.808,13.209-26.44,29.5-17.031s29.5,32.285,29.5,51.1-13.209,26.44-29.5,17.035S9.624,151.078,9.624,132.262Z" transform="translate(-4.442 -98.801)"/></g></svg>