<svg xmlns="http://www.w3.org/2000/svg" width="102.358" height="115.933" viewBox="0 0 102.358 115.933"><defs><style>.a{fill:#1d1b1b;}.b{fill:#282b3f;}.c{fill:#0d171b;}.d{opacity:0.62;}.e{fill:#242424;}.f{fill:#fff;}.g{fill:#c71621;}.h{fill:#dc2126;}</style></defs><g transform="translate(32.962)"><path class="a" d="M76.339,33.011,30.874,6.586a6.337,6.337,0,0,0-6.249-.568l-6.249,3.69a6.307,6.307,0,0,1,6.249.572l45.46,26.425a19.658,19.658,0,0,1,8.808,15.341v63.081a6.417,6.417,0,0,1-2.542,5.681l6.253-3.694a5.826,5.826,0,0,0,2.542-5.681V48.348A19.68,19.68,0,0,0,76.339,33.011Z" transform="translate(-15.81 -5.448)"/><g transform="translate(0 3.691)"><path class="b" d="M72.046,33.885a19.658,19.658,0,0,1,8.808,15.341v63.081a6.417,6.417,0,0,1-2.542,5.681,6.307,6.307,0,0,1-6.249-.572L26.6,90.992a19.652,19.652,0,0,1-8.808-15.341V12.574a6.4,6.4,0,0,1,2.542-5.681,6.317,6.317,0,0,1,6.249.568Z" transform="translate(-17.77 -6.32)"/><g transform="translate(4.557 25.221)"><g transform="translate(11.647)"><path class="c" d="M36.941,14.329c-8.529-4.83-15.346-.852-15.346,8.808A34.109,34.109,0,0,0,36.941,49.845c8.524,4.83,15.341.852,15.341-8.808A34.456,34.456,0,0,0,36.941,14.329ZM34.4,14.9a15.634,15.634,0,0,0-2.275,5.681,25.23,25.23,0,0,1-2.839-2.542,5.251,5.251,0,0,1,5.1-3.144ZM31.556,29.674a64.367,64.367,0,0,0,.568,7.389c-1.135-.284-2.271-.572-3.127-.852A31.718,31.718,0,0,1,27.577,27.4ZM27.577,25.98A16.583,16.583,0,0,1,29,18.879a31.542,31.542,0,0,0,3.127,2.843,47.678,47.678,0,0,0-.568,6.817Zm3.411-11.935a7.651,7.651,0,0,0-1.707,1.424c-.284.28-.568.852-1.135,1.419-.572-.852-1.14-1.419-1.14-1.991a10.072,10.072,0,0,1,3.966-.852Zm-4.546,1.424a5.913,5.913,0,0,0,1.7,2.271,19.5,19.5,0,0,0-1.424,7.669l-3.69-1.987a9.194,9.194,0,0,1,3.394-7.952Zm0,21.023a28.22,28.22,0,0,1-3.411-11.935l3.69,1.991a35.666,35.666,0,0,0,1.424,9.376,2.4,2.4,0,0,0-1.72.576Zm.852,1.424a1.473,1.473,0,0,1,1.135-.572l.852,2.542a30.173,30.173,0,0,0,1.707,3.127,23.582,23.582,0,0,1-3.711-5.1Zm1.987-.572a6.471,6.471,0,0,1,2.843.852,40.017,40.017,0,0,0,1.987,7.944,31.359,31.359,0,0,1-4.847-8.8ZM36.1,47.575h0a21.173,21.173,0,0,1-2.843-9.092A13.3,13.3,0,0,1,36.1,39.9Zm.28-8.808a15.089,15.089,0,0,0-3.127-1.424,56.089,56.089,0,0,1-.568-7.1l3.694,1.991Zm0-7.673-3.69-1.987a39.789,39.789,0,0,1,.568-6.537,18.944,18.944,0,0,0,3.127,1.987Zm0-7.944a24.356,24.356,0,0,1-2.839-1.987c.568-3.411,1.707-5.4,2.839-5.681h.284Zm10.8,4.262A28.237,28.237,0,0,1,50.6,39.347l-3.69-1.991a35.693,35.693,0,0,0-1.424-9.376,2.422,2.422,0,0,0,1.686-.576Zm-5.114,7.1a65.408,65.408,0,0,0-.568-7.389c1.135.284,2.271.572,3.127.852a31.718,31.718,0,0,1,1.419,8.808Zm3.978,3.411a16.571,16.571,0,0,1-1.419,7.1A31.449,31.449,0,0,0,41.5,42.185a47.789,47.789,0,0,0,.568-6.821Zm.284-11.935a1.484,1.484,0,0,1-1.14.568l-.852-2.542a31.432,31.432,0,0,0-1.7-3.127,23.74,23.74,0,0,1,3.673,5.093Zm-2.275.568A6.329,6.329,0,0,1,41.22,25.7a40.47,40.47,0,0,0-1.991-7.944,21.607,21.607,0,0,1,4.813,8.787ZM37.241,16.328h0a22.664,22.664,0,0,1,2.839,9.092A13.189,13.189,0,0,1,37.241,24Zm0,8.808a15.075,15.075,0,0,0,3.127,1.419,56.087,56.087,0,0,1,.568,7.1l-3.69-1.987Zm0,7.669,3.69,1.991a39.79,39.79,0,0,1-.568,6.537,18.966,18.966,0,0,0-3.127-1.991Zm.284,15.629h0l-.284-7.673a24.917,24.917,0,0,1,2.839,1.991c-.585,3.4-1.436,5.389-2.576,5.673Zm1.7.568A15.6,15.6,0,0,0,41.5,43.321a25.653,25.653,0,0,1,2.839,2.542A5.252,5.252,0,0,1,39.211,49Zm3.127.852a7.408,7.408,0,0,0,1.7-1.419c.284-.284.572-.852,1.14-1.419.568.852,1.135,1.419,1.135,1.987a8.255,8.255,0,0,1-4,.843Zm4.83-1.135a5.981,5.981,0,0,0-1.7-2.275A19.545,19.545,0,0,0,46.9,38.775l3.69,1.987a9.984,9.984,0,0,1-3.423,7.948Z" transform="translate(-21.595 -12.273)"/></g><g class="d" transform="translate(0 37.293)"><path class="e" d="M30.209,23.342l7.1,22.734-4.262-2.271-1.419-5.114-7.1-3.978-1.419,3.411-4.262-2.275,7.1-14.774Zm.284,11.651-2.271-8.24h0l-2.542,5.4Z" transform="translate(-18.846 -21.075)"/><path class="e" d="M22.668,25.625V22.214l15.346,8.808v3.411l-5.681-3.127V46.652l-3.978-2.275V29.035Z" transform="translate(-6.475 -17.388)"/><path class="f" d="M32.657,27.968,36.92,43.314h0L41.182,32.8l5.681,3.411V54.956l-3.978-2.271V39.34h0L38.339,49.855l-3.127-1.707L30.67,32.506h0V45.572L26.692,43.31V24.562Z" transform="translate(6.55 -9.788)"/></g></g></g></g><path class="g" d="M68.559,33.011,23.094,6.586a6.337,6.337,0,0,0-6.249-.568L10.6,9.713a6.316,6.316,0,0,1,6.249.568L62.31,36.705a19.689,19.689,0,0,1,8.808,15.346v63.077a6.408,6.408,0,0,1-2.542,5.681l6.249-3.69a5.825,5.825,0,0,0,2.542-5.681V48.348A19.68,19.68,0,0,0,68.559,33.011Z" transform="translate(-8.03 -5.448)"/><g transform="translate(0 3.691)"><path class="h" d="M64.27,33.885a19.681,19.681,0,0,1,8.808,15.341v63.081a6.417,6.417,0,0,1-2.542,5.681,6.314,6.314,0,0,1-6.253-.572L18.822,90.992a19.652,19.652,0,0,1-8.808-15.341V12.574a6.413,6.413,0,0,1,2.542-5.681,6.316,6.316,0,0,1,6.249.568Z" transform="translate(-9.99 -6.32)"/><g transform="translate(16.204 25.221)"><path class="e" d="M29.161,14.329c-8.524-4.83-15.346-.852-15.346,8.808A34.12,34.12,0,0,0,29.161,49.845c8.524,4.83,15.341.852,15.341-8.808A33.68,33.68,0,0,0,29.161,14.329Zm-2.542.568a15.551,15.551,0,0,0-2.271,5.681A24.908,24.908,0,0,1,21.5,18.036a5.251,5.251,0,0,1,5.1-3.144ZM23.776,29.674a64.369,64.369,0,0,0,.572,7.389c-1.14-.284-2.275-.572-3.127-.852A31.567,31.567,0,0,1,19.8,27.4ZM19.8,25.98a16.524,16.524,0,0,1,1.424-7.1,31.074,31.074,0,0,0,3.127,2.843,47.078,47.078,0,0,0-.572,6.817Zm3.694-11.935a7.651,7.651,0,0,0-1.707,1.424c-.284.28-.568.852-1.14,1.419-.568-.852-1.135-1.419-1.135-1.991a9.154,9.154,0,0,1,3.966-.852Zm-4.83,1.424a5.966,5.966,0,0,0,1.707,2.271,19.5,19.5,0,0,0-1.424,7.669l-3.69-1.987a9.981,9.981,0,0,1,3.389-7.952Zm0,21.023a28.22,28.22,0,0,1-3.411-11.935l3.694,1.991a35.487,35.487,0,0,0,1.419,9.376,3.057,3.057,0,0,0-1.72.576Zm.852,1.424a1.473,1.473,0,0,1,1.135-.572l.852,2.542a30.994,30.994,0,0,0,1.707,3.127,40.156,40.156,0,0,1-3.711-5.1Zm2.271-.572a6.437,6.437,0,0,1,2.839.852,40.321,40.321,0,0,0,1.991,7.944,21.594,21.594,0,0,1-4.855-8.8ZM28.6,47.575h0a21.225,21.225,0,0,1-2.839-9.092A13.173,13.173,0,0,1,28.6,39.9Zm0-8.808a15.157,15.157,0,0,0-3.122-1.424,55.319,55.319,0,0,1-.572-7.1L28.6,32.233Zm0-7.673-3.69-1.987a39.79,39.79,0,0,1,.568-6.537,19.122,19.122,0,0,0,3.127,1.987Zm0-7.944a24.357,24.357,0,0,1-2.839-1.987c.568-3.411,1.707-5.4,2.839-5.681h.284Zm10.8,4.262a28.237,28.237,0,0,1,3.411,11.935l-3.69-1.991A35.693,35.693,0,0,0,37.7,27.98a2.415,2.415,0,0,0,1.686-.576Zm-5.114,7.1a64.441,64.441,0,0,0-.568-7.389c1.135.284,2.271.572,3.127.852a31.717,31.717,0,0,1,1.419,8.808Zm3.978,3.411a16.571,16.571,0,0,1-1.419,7.1,30.985,30.985,0,0,0-3.127-2.839,47.789,47.789,0,0,0,.568-6.821Zm.568-11.935a1.469,1.469,0,0,1-1.135.568l-.852-2.542a31.465,31.465,0,0,0-1.707-3.127A39.86,39.86,0,0,1,38.82,25.98Zm-2.271.568a6.362,6.362,0,0,1-2.843-.852,40.164,40.164,0,0,0-1.987-7.944,25.558,25.558,0,0,1,4.809,8.787ZM29.745,16.328h0a22.67,22.67,0,0,1,2.843,9.092A13.319,13.319,0,0,1,29.745,24Zm0,8.808a15.278,15.278,0,0,0,3.127,1.419,55.322,55.322,0,0,1,.572,7.1L29.749,31.67Zm0,7.669L33.44,34.8a39.79,39.79,0,0,1-.568,6.537,19.146,19.146,0,0,0-3.127-1.991Zm0,15.629h0l-.28-7.673A24.917,24.917,0,0,1,32.3,42.753c-.305,3.4-1.44,5.389-2.58,5.673ZM31.453,49a15.522,15.522,0,0,0,2.271-5.681,25.318,25.318,0,0,1,2.843,2.542A5.252,5.252,0,0,1,31.431,49Zm3.411.852a7.521,7.521,0,0,0,1.707-1.419c.284-.284.568-.852,1.135-1.419.572.852,1.14,1.419,1.14,1.987a10.025,10.025,0,0,1-4,.843Zm4.546-1.135A5.948,5.948,0,0,0,37.7,46.443a19.473,19.473,0,0,0,1.424-7.669l3.69,1.987a9.969,9.969,0,0,1-3.428,7.948Z" transform="translate(-13.815 -12.273)"/></g></g><g class="d" transform="translate(4.557 66.21)"><g transform="translate(0 0)"><path class="f" d="M22.429,23.343l7.105,22.734-4.262-2.271-1.424-5.114-7.1-3.978L15.328,38.12,11.066,35.85l7.1-14.774Zm.284,11.651-2.271-8.24h0l-2.542,5.4Z" transform="translate(-11.066 -21.076)"/><path class="f" d="M14.888,25.626V22.215l15.346,8.808v3.411l-5.681-3.127V46.648l-3.978-2.271V29.032Z" transform="translate(1.305 -17.389)"/><path class="f" d="M24.944,27.973l4.262,15.346h0L33.469,32.8l5.681,3.411V54.961L35.172,52.69V39.344h0L30.626,49.855l-3.127-1.7L22.957,32.506h0v13.07L18.979,43.31V24.562Z" transform="translate(14.546 -9.793)"/></g></g></svg>