<svg xmlns="http://www.w3.org/2000/svg" width="87.804" height="114.918" viewBox="0 0 87.804 114.918"><defs><style>.a{fill:#e3e3e2;}.b{fill:#333;}.c{fill:#fff;}.d{fill:#181818;}.e{fill:#4ba935;}.f{fill:#ffc000;}.g{fill:#e82932;}.h{fill:#3e3e3e;}</style></defs><g transform="translate(69.553 58.339)"><path class="a" d="M31.48,77.379v40.235a7.313,7.313,0,0,1-3.036,6.726l15.182-8.783a7.437,7.437,0,0,0,3.036-6.726V68.6Z" transform="translate(-28.444 -68.596)"/></g><path class="b" d="M97.409,104.212A23.264,23.264,0,0,0,87,86.1L35.364,56.273a7.455,7.455,0,0,0-7.376-.757L12.806,64.3a7.194,7.194,0,0,1,7.376.761L71.807,94.885A23.264,23.264,0,0,1,82.219,113v5.314h0V122l15.19-8.783v-3.686h0Z" transform="translate(-9.737 -54.874)"/><path class="c" d="M74.155,88.058,22.53,58.34a7.467,7.467,0,0,0-7.376-.761A7.442,7.442,0,0,0,12.118,64.3v49.227A23.257,23.257,0,0,0,22.53,131.643l51.625,29.824a6.321,6.321,0,0,0,10.412-5.952V106.279A23.014,23.014,0,0,0,74.155,88.058Z" transform="translate(-12.084 -48.157)"/><path class="d" d="M84.673,111.593v-5.314A23.264,23.264,0,0,0,74.261,88.168L22.53,58.34a7.467,7.467,0,0,0-7.376-.761A7.442,7.442,0,0,0,12.118,64.3v9l72.555,41.864Z" transform="translate(-12.084 -48.157)"/><path class="e" d="M22.908,72.141c2.168,1.3,4.013.425,4.336-1.845v-.978a9.9,9.9,0,0,0-4.336-7.27c-2.279-1.3-4.12-.327-4.336,2.062v.978A9.621,9.621,0,0,0,22.908,72.141Z" transform="translate(9.011 -33.431)"/><path class="f" d="M20.255,70.695c2.279,1.3,4.12.425,4.336-2.062v-.978a10.047,10.047,0,0,0-4.336-7.164c-2.279-1.3-4.12-.327-4.336,2.062v.978A9.631,9.631,0,0,0,20.255,70.695Z" transform="translate(0.385 -38.494)"/><path class="g" d="M17.576,69.165c2.279,1.3,4.12.425,4.336-2.062v-.978a10.047,10.047,0,0,0-4.336-7.164c-2.279-1.3-4.12-.327-4.336,2.062V62A9.828,9.828,0,0,0,17.576,69.165Z" transform="translate(-8.326 -43.469)"/><path class="h" d="M44.259,71.844l2.819,3.036L33.63,102.088l-2.819-3.035ZM25.6,66.963,14.975,73.145,25.6,91.583l2.168-1.3L19.311,75.64l8.46-4.881Zm26.682,15.4-2.168,1.3L58.578,98.3l-8.46,4.881,2.168,3.8L62.914,100.8Z" transform="translate(-2.684 -15.567)"/></svg>