<svg xmlns="http://www.w3.org/2000/svg" xmlns:xlink="http://www.w3.org/1999/xlink" width="119.69" height="126.234" viewBox="0 0 119.69 126.234"><defs><style>.a{fill:#fff;}.b{fill:#2e68b1;}.c{fill:url(#a);}.d{fill:#b0afaf;}.e{fill:#f5f6f6;}.f{fill:#dc2126;}.g{fill:#f0f0f0;}</style><linearGradient id="a" y1="0.5" x2="1" y2="0.5" gradientUnits="objectBoundingBox"><stop offset="0" stop-color="#e2e1e1"/><stop offset="0.301" stop-color="#e3e3e3"/><stop offset="0.459" stop-color="#dddddc"/><stop offset="0.744" stop-color="#d9d8d7"/><stop offset="1" stop-color="#c9c9c9"/></linearGradient></defs><g transform="translate(28.347 84.781)"><path class="a" d="M51.915,41.779a28.928,28.928,0,0,1-5.473-.51C41.65,40.027,39.285,37.246,37.2,34.8a22.418,22.418,0,0,0-3.4-3.466c-3.321-2.53-11.89-2.4-15.283.238a3.038,3.038,0,1,1-3.734-4.792c5.558-4.325,17.231-4.461,22.708-.276a28.132,28.132,0,0,1,4.346,4.359c1.858,2.186,3.2,3.768,5.97,4.491,3.33.663,8.445.515,11.014-1.135A3.039,3.039,0,1,1,62.1,39.325C59.186,41.2,55.3,41.779,51.915,41.779Z" transform="translate(-13.608 -23.446)"/></g><g transform="translate(28.857)"><path class="b" d="M35.843,31.51l-5.375,3.1c3.938,2.275,7.505,2.492,10.087,1l5.375-3.1C43.348,34,39.781,33.785,35.843,31.51Z" transform="translate(40.719 87.563)"/><path class="b" d="M31,28.71l-5.377,3.1,20.618,11.9,5.377-3.1Z" transform="translate(24.948 78.458)"/><path class="b" d="M28.877,26.472l-5.379,3.1a26.113,26.113,0,0,0,9.019,9.521l5.375-3.1A26.09,26.09,0,0,1,28.877,26.472Z" transform="translate(18.05 71.178)"/><path class="c" d="M36.178,35.833c-2.377-4.116-2.377-8.569,0-9.942L30.8,29c-2.377,1.374-2.377,5.822,0,9.942s6.23,6.34,8.607,4.967l5.379-3.1C42.412,42.178,38.555,39.949,36.178,35.833Z" transform="translate(36.009 69.288)"/><path class="b" d="M36.842,27.06l-5.379,3.1c2.377,4.116,2.377,8.569,0,9.938L36.842,37C39.219,35.629,39.219,31.181,36.842,27.06Z" transform="translate(43.955 73.09)"/><path class="b" d="M34.814,26.2l-5.375,3.1c2.377-1.374,6.23.855,8.607,4.971l5.379-3.1C41.048,27.053,37.191,24.829,34.814,26.2Z" transform="translate(37.372 68.981)"/><rect class="b" width="6.208" height="79.206" transform="translate(1.956 32.15) rotate(-29.982)"/><path class="b" d="M21.052,7.792l-5.379,3.1c-2.594,1.5-2.594,6.353,0,10.839l5.379-3.1C18.458,14.141,18.458,9.289,21.052,7.792Z" transform="translate(-13.727 10.423)"/><path class="d" d="M75.808,77.991,36.188,9.371C33.6,4.88,29.4,2.456,26.8,3.949l-5.379,3.1c2.594-1.5,6.8.931,9.389,5.418L70.433,81.1A25.983,25.983,0,0,1,74.149,93.61v23.835c0,4.55-1.6,7.748-4.18,9.24l5.375-3.1c2.585-1.488,4.184-4.686,4.184-9.24V90.506A26,26,0,0,0,75.808,77.991Z" transform="translate(11.304 -3.508)"/><path class="e" d="M99.181,115.072V91.237a25.983,25.983,0,0,0-3.717-12.515L55.845,10.1c-2.594-4.486-6.8-6.914-9.389-5.418h0L15.673,22.451c-2.594,1.5-2.594,6.353,0,10.839l39.6,68.6a26.113,26.113,0,0,0,9.019,9.521l20.62,11.9c3.938,2.275,7.505,2.492,10.087,1S99.181,119.622,99.181,115.072Zm-18.642-5.711c-2.377-4.121-2.377-8.569,0-9.942s6.23.855,8.607,4.971,2.377,8.569,0,9.938S82.916,113.477,80.539,109.361Z" transform="translate(-13.727 -1.135)"/></g><g transform="translate(0 90.904)"><path class="a" d="M93.165,60.216c-5.881,0-10.316-3.381-14.343-6.447a32.645,32.645,0,0,0-7.642-4.818c-2.2-.846-4.873-.672-7.939.515l-.846.3c-6.132,2.215-12.485,4.512-20.131,2.87-6.621-1.556-11.043-6.71-15.317-11.694-5.048-5.881-9.4-10.924-16.474-9.806a3.038,3.038,0,0,1-.987-6c10.457-1.714,16.623,5.49,22.07,11.843,3.81,4.439,7.408,8.632,12.043,9.721,5.881,1.259,10.912-.549,16.733-2.653l.787-.285c4.461-1.718,8.6-1.888,12.251-.485a37.768,37.768,0,0,1,9.138,5.651c5.345,4.078,8.921,6.472,14.586,4.452,1.076-.357,1.259-.417,1.395-3.487.149-3.44.378-8.632,6.519-12.829a3.038,3.038,0,1,1,3.427,5.018c-3.627,2.483-3.742,5.077-3.874,8.08-.128,2.883-.323,7.246-5.49,8.964A17.52,17.52,0,0,1,93.165,60.216Z" transform="translate(-6.941 -24.886)"/></g><g transform="translate(51.414 30.954)"><path class="f" d="M59.876,48.95c0,13.025-9.143,18.307-20.42,11.8S19.032,38.4,19.032,25.371,28.175,7.064,39.456,13.579,59.876,35.925,59.876,48.95Z" transform="translate(-19.032 -10.788)"/><path class="g" d="M32.313,49.5l-9.606-5.546,0-31.293L32.313,18.2Z" transform="translate(-7.087 -4.705)"/><path class="g" d="M20.648,24.936V13.845l27.1,15.646v11.09Z" transform="translate(-13.777 -0.842)"/></g></svg>