<svg xmlns="http://www.w3.org/2000/svg" width="144.611" height="129.591" viewBox="0 0 144.611 129.591"><defs><style>.a{isolation:isolate;}.b{fill:#f9434d;}.c{fill:#d34045;}.d{fill:#fff;}.e{fill:#e9e8e8;}.f{fill:#6e2f14;}.g{fill:#ffd067;}.h{fill:#de981c;}.i{fill:#dbdbdb;}</style></defs><g transform="translate(-25.254 -5.829)"><g transform="translate(66.567 5.829)"><g class="a"><g transform="translate(0 5.008)"><path class="b" d="M100.206,36.078c3.844,2.636,6.931,8.347,7.089,13.416l1.28,38.322c.187,5.549-3.172,8.267-7.5,6.064L47.136,66.333a12.55,12.55,0,0,1-1.425-.859C37.793,60.04,25.768,41.746,18.42,30c-3.444-5.511-3.666-12.179-.481-14.3C25.16,10.882,38.8,4.661,45.188,7.906L99.125,35.431A9.792,9.792,0,0,1,100.206,36.078Z" transform="translate(-15.686 -7.007)"/></g><path class="c" d="M111.446,87.653l.013-.4c0-.132,0-.268,0-.4l0-.213-1.28-38.322-.013-.238c0-.14-.013-.276-.026-.417s-.026-.281-.038-.425-.034-.285-.055-.429-.038-.272-.06-.412l0-.009v-.017c-.026-.145-.051-.293-.081-.438s-.06-.293-.094-.438-.064-.289-.1-.434-.072-.281-.111-.421l-.047-.166-.013-.043-.06-.2c-.038-.132-.081-.268-.123-.4s-.094-.268-.14-.4-.094-.268-.145-.4c-.055-.149-.115-.3-.174-.447l-.013-.03-.008-.021c-.06-.145-.119-.285-.183-.429-.1-.238-.208-.472-.323-.706-.081-.17-.174-.332-.259-.5-.06-.115-.115-.225-.174-.336-.051-.094-.1-.191-.149-.285-.145-.255-.3-.51-.455-.761-.1-.166-.208-.332-.315-.493l-.03-.038-.017-.026c-.081-.123-.166-.247-.251-.366s-.187-.264-.285-.391l-.293-.383c-.1-.128-.2-.255-.31-.378l-.026-.03-.017-.021c-.094-.106-.187-.217-.281-.323-.111-.123-.221-.242-.336-.361s-.225-.238-.34-.353-.225-.217-.336-.319h0v0c-.115-.1-.225-.2-.34-.3s-.221-.187-.332-.276-.217-.174-.327-.255-.217-.162-.323-.238l-.077-.051-.247-.166c-.106-.068-.213-.132-.319-.2s-.213-.128-.323-.183l-.191-.1L48.064,6.731l-.081-.043c-.094-.047-.191-.089-.289-.132s-.2-.085-.3-.123-.2-.077-.306-.111c-.149-.047-.3-.094-.455-.136-.136-.038-.276-.068-.417-.1l-.026,0-.043-.013c-.217-.043-.434-.081-.655-.115-.264-.038-.532-.064-.8-.085-.157-.013-.323-.009-.481-.017-.106,0-.213,0-.319-.009-.136,0-.268-.013-.4-.013-.446.009-.919.055-1.386.1-.17.013-.336.013-.51.034l-.1,0c-.706.085-1.433.217-2.173.37-.208.043-.425.1-.634.149-.353.081-.7.149-1.055.242-.221.06-.451.136-.676.2-.327.094-.655.191-.987.3-.532.166-1.063.34-1.6.532-.319.111-.634.221-.953.34-.583.217-1.165.451-1.743.689-.264.111-.527.213-.791.327-.838.357-1.667.731-2.475,1.123L18,15.244c.808-.391,1.637-.765,2.471-1.123.268-.119.54-.221.808-.332.574-.238,1.152-.472,1.731-.689.319-.119.634-.23.953-.34.536-.187,1.067-.366,1.595-.532.336-.1.663-.2,1-.293.583-.166,1.157-.315,1.726-.446.213-.047.425-.1.634-.149.778-.162,1.539-.289,2.275-.374.174-.021.34-.017.515-.034a17.193,17.193,0,0,1,1.786-.081c.106,0,.213,0,.319.009a11.717,11.717,0,0,1,1.986.225l.026.009a7.692,7.692,0,0,1,1.846.642L91.6,39.261a9.792,9.792,0,0,1,1.08.646,13.134,13.134,0,0,1,1.4,1.127h0A15.779,15.779,0,0,1,95.376,42.4l.017.017a17.938,17.938,0,0,1,1.165,1.548l.017.026c.34.506.655,1.038.948,1.582.06.111.115.221.174.332.276.532.54,1.076.765,1.637l.008.017a19.38,19.38,0,0,1,.655,1.884l.013.043a17.3,17.3,0,0,1,.438,1.918v.009a14.8,14.8,0,0,1,.191,1.918l1.28,38.322a11.1,11.1,0,0,1-.136,2.245l0,.03a7.71,7.71,0,0,1-.544,1.824l-.008.017a5.108,5.108,0,0,1-.821,1.259c-.072.085-.149.166-.225.242a4.085,4.085,0,0,1-1.093.812l10.4-5.005a4.089,4.089,0,0,0,1.089-.812c.081-.081.157-.157.23-.242s.153-.145.217-.234a5.879,5.879,0,0,0,.349-.523c.085-.149.166-.306.238-.468l.013-.034.008-.021c.055-.115.106-.238.153-.361s.1-.268.14-.4.081-.264.115-.4.06-.251.085-.383c.021-.089.038-.183.051-.276l.009-.026.013-.081c.021-.128.038-.251.055-.383s.026-.251.038-.383S111.438,87.785,111.446,87.653Z" transform="translate(-8.161 -5.829)"/></g><path class="d" d="M23.687,12.143a7.7,7.7,0,0,0-1.029-1.152c-2.275-2.007-4.614-1.233-5.218,1.722a10.462,10.462,0,0,0,3.019,8.994c1.782,1.569,3.585,1.42,4.584-.123a4.624,4.624,0,0,0,.638-1.6A10.593,10.593,0,0,0,23.687,12.143Z" transform="translate(-10.454 7.328)"/><g transform="translate(33.278 21.258)"><path class="d" d="M39.148,35.96l4.873,10.329-6.442-3.368-4.1-8.709L30.205,32.49l.251,6.715-6.021-3.151-.923-25.225L33.224,15.9c.293.153.583.31.863.476a19.829,19.829,0,0,1,4.184,3.283,17.466,17.466,0,0,1,3.41,4.963,14.7,14.7,0,0,1,1.331,5.558A7.159,7.159,0,0,1,42.12,34.4,3.653,3.653,0,0,1,39.148,35.96Zm-3.057-6.727c.6-.319.889-1.046.846-2.237A6.05,6.05,0,0,0,35.9,23.772a7.206,7.206,0,0,0-2.39-2.181c-.145-.085-.3-.17-.451-.251L29.733,19.6l.272,7.386,3.33,1.739q1.85.963,2.756.506" transform="translate(-23.512 -10.828)"/><g transform="translate(22.402 17.294)"><path class="d" d="M47.58,34.307a8.988,8.988,0,0,1-.885,4.746,3.886,3.886,0,0,1-2.785,2.011,6.6,6.6,0,0,1-4.04-.893c-.17-.089-.336-.179-.5-.276a11.771,11.771,0,0,1-4.163-4.167l.315,8.709-5.758-3.015L28.78,14.9l5.5,2.879.068,1.948q1.524-1.429,4.775.259c.183.094.361.2.536.3a14.393,14.393,0,0,1,3.6,3.079A18.458,18.458,0,0,1,46.3,28.422,17.207,17.207,0,0,1,47.58,34.307Zm-6.68-.166c.621-.476.893-1.446.85-2.892a8.373,8.373,0,0,0-1.1-3.9,6.525,6.525,0,0,0-2.3-2.428c-.081-.047-.162-.089-.242-.132a2.128,2.128,0,0,0-2.441-.051c-.621.5-.893,1.467-.85,2.892a8.39,8.39,0,0,0,1.1,3.921,6.6,6.6,0,0,0,2.3,2.411c.081.047.162.089.242.132a2.128,2.128,0,0,0,2.441.051" transform="translate(-28.78 -14.895)"/></g></g></g><g transform="translate(59.937 21.38)"><path class="e" d="M28.768,54.923a3.721,3.721,0,0,1-2.594-6.387c2.079-2.02,1.314-4.138-4.112-11.345-3.721-4.941-7.935-10.537-7.935-16.933,0-5.647,3.317-9.712,8.654-10.614,4.422-.719,9.866,1.021,11.333,5.252a3.722,3.722,0,0,1-7.033,2.441,5.39,5.39,0,0,0-3.823-.149c-.787.3-1.688.927-1.688,3.07,0,3.908,3.274,8.254,6.438,12.459,4.478,5.949,10.614,14.1,3.359,21.151A3.714,3.714,0,0,1,28.768,54.923Z" transform="translate(-14.127 -9.486)"/></g><g transform="translate(25.254 54.957)"><path class="f" d="M63.736,35.876c.106-8.526-12.736-15.6-28.687-15.8S6.078,26.627,5.971,35.153a8.924,8.924,0,0,0,.974,4.031,43.7,43.7,0,0,1,2.3,6.919,7.121,7.121,0,0,0,.153.85c.017.106.047.221.06.323h.03c1.858,6.391,12.332,11.4,25.072,11.554C47.581,59,58.369,54.042,60.045,47.494l.047,0a29.769,29.769,0,0,1,2.6-7.6H62.66A8.924,8.924,0,0,0,63.736,35.876Z" transform="translate(-5.971 -8.64)"/><g transform="translate(4.79)"><ellipse class="g" cx="11.384" cy="23.966" rx="11.384" ry="23.966" transform="translate(0 36.851) rotate(-89.282)"/><path class="g" d="M7.315,40.213,26.557,19.844s5.494-5.626,10.576.132S53.717,42.692,53.717,42.692,25.166,59.574,7.315,40.213Z" transform="translate(-6.39 -17.382)"/><g transform="translate(12.926 7.64)"><g transform="translate(0 8.447)"><path class="h" d="M11.355,24.559l-1.218-1.391,2.282-2,1.218,1.391Z" transform="translate(-10.137 -21.165)"/></g><g transform="translate(10.627 10.857)"><rect class="h" width="3.464" height="1.847" transform="matrix(0.315, -0.949, 0.949, 0.315, 0, 3.288)"/></g><g transform="translate(23.11 16.685)"><path class="h" d="M16.429,25.9l-.857-1.637L17.8,23.1l.857,1.637Z" transform="translate(-15.572 -23.102)"/></g><g transform="translate(2.973 16.915)"><rect class="h" width="2.482" height="1.849"/></g><g transform="translate(19.861 6.483)"><rect class="h" width="3.78" height="1.849" transform="translate(0 3.779) rotate(-89.254)"/></g><g transform="translate(10.337)"><rect class="h" width="2.672" height="1.848" transform="translate(0 2.506) rotate(-69.724)"/></g></g></g></g><g transform="translate(60.511 58.763)"><path class="f" d="M102.461,45.96c0-13.017-19.744-23.571-44.1-23.571s-44.1,10.554-44.1,23.571A13.54,13.54,0,0,0,15.827,52.1a66.881,66.881,0,0,1,3.644,10.52,11.258,11.258,0,0,0,.251,1.3c.026.157.072.332.094.489h.047c2.955,9.721,19.042,17.158,38.5,17.158,19.884,0,36.256-7.765,38.684-17.8l.077-.008c.519-4.839,3.823-11.647,3.823-11.647h-.051A13.6,13.6,0,0,0,102.461,45.96Z" transform="translate(-14.262 -4.904)"/><g transform="translate(7.51)"><ellipse class="d" cx="36.589" cy="17.38" rx="36.589" ry="17.38" transform="translate(0 21.987)"/><path class="d" d="M16.3,53.605l28.98-31.463s8.284-8.7,16.151,0S87.181,56.506,87.181,56.506,43.917,82.819,16.3,53.605Z" transform="translate(-15.15 -18.277)"/><g transform="translate(19.491 24.893)"><rect class="i" width="4.635" height="2.468" transform="translate(0 3.101) rotate(-41.996)"/></g><g transform="translate(35.839 28.312)"><rect class="i" width="5.291" height="2.465" transform="matrix(0.303, -0.953, 0.953, 0.303, 0, 5.043)"/></g><g transform="translate(54.878 37.047)"><rect class="i" width="3.847" height="2.466" transform="translate(0 1.825) rotate(-28.316)"/></g><g transform="translate(24.039 37.805)"><rect class="i" width="3.789" height="2.465" transform="translate(0 0.044) rotate(-0.671)"/></g><g transform="translate(49.871 21.424)"><rect class="i" width="2.465" height="5.773"/></g><g transform="translate(35.17 11.749)"><path class="i" d="M26.619,25.713,24.3,24.885l1.367-3.844,2.321.828Z" transform="translate(-24.299 -21.04)"/></g></g></g></g></svg>