<svg xmlns="http://www.w3.org/2000/svg" width="104.431" height="117.738" viewBox="0 0 104.431 117.738"><defs><style>.a{fill:#9a673d;}.b{fill:#794a2c;}.c{fill:#4e2a0e;}.d{fill:#623a1d;}.e{fill:#682512;}</style></defs><g transform="translate(0.285)"><path class="a" d="M101.337,44.547,90.493,38.275,49.717,14.619,38.878,8.342a7.939,7.939,0,0,0-7.412-.855L10.931,19.466a7.217,7.217,0,0,1,7.416.855l10.844,6.272L69.967,50.262,80.81,56.539A23.982,23.982,0,0,1,91.361,74.79v42.49a7.271,7.271,0,0,1-3.138,6.846l20.531-11.966a7.264,7.264,0,0,0,3.138-6.842V62.811A23.209,23.209,0,0,0,101.337,44.547Z" transform="translate(-7.793 -6.938)"/><g transform="translate(0 19.656)"><path class="b" d="M72.363,35.229,31.582,11.56C31.008,24.394,21.6,29.811,10.193,24.1V40.931A52.23,52.23,0,0,1,31.582,78.293l40.78,23.669c.57-12.834,9.985-18.251,21.389-12.545V72.59A51.288,51.288,0,0,1,72.363,35.229Z" transform="translate(-10.193 -11.56)"/></g></g><path class="c" d="M72.585,41.1,83.42,47.364A24,24,0,0,1,93.97,65.619V78.462A51.27,51.27,0,0,1,72.585,41.1ZM31.813,17.436,20.97,11.159a7.939,7.939,0,0,0-7.412-.855,7.256,7.256,0,0,0-3.138,6.842V29.98a16.257,16.257,0,0,0,14.828.855C28.943,28.547,31.231,23.993,31.813,17.436Zm40.772,90.4,10.844,6.277a7.946,7.946,0,0,0,7.416.855,7.271,7.271,0,0,0,3.138-6.846V95.288a16.266,16.266,0,0,0-14.832-.855A15.729,15.729,0,0,0,72.585,107.833ZM10.126,46.807V59.641A23.987,23.987,0,0,0,20.68,77.892l10.844,6.277A51.3,51.3,0,0,0,10.126,46.807Z" transform="translate(-10.126 2.224)"/><path class="d" d="M111.887,92.471h0V105.3a7.571,7.571,0,0,1-2.853,6.561L88.5,123.845a5.582,5.582,0,0,0,2.551-4.278,5.533,5.533,0,0,0,.281-2.279V104.45ZM49.717,14.619,38.878,8.342a7.939,7.939,0,0,0-7.412-.855L10.931,19.177a8.15,8.15,0,0,1,7.416,1.144l10.844,6.272h0l20.53-11.979Zm62.17,48.192a23.994,23.994,0,0,0-10.55-18.264L90.493,38.275,69.967,50.262,80.81,56.539A23.982,23.982,0,0,1,91.361,74.79V87.624l20.531-11.979Z" transform="translate(-7.508 -6.938)"/><g transform="translate(34.789 6.019)"><path class="e" d="M19.934,13.574c-.285,0-.285.285-.285.57v4.567l5.992-3.423V10.725c0-.285,0-.574.285-.574Z" transform="translate(-13.943 -2.506)"/><path class="b" d="M42.95,16.857l-13.395-7.7c-2-.855-3.708-1.144-4.848-.285l-6,3.423c1.14-.855,2.849-.57,4.848.57l13.395,7.7a15.4,15.4,0,0,1,6.855,11.966V37.1L49.8,33.675V29.121A15.939,15.939,0,0,0,42.95,16.857Z" transform="translate(-16.993 -8.353)"/><path class="d" d="M24.013,17.473c0-.281,0-.57.285-.57h.855l13.4,7.7a2.342,2.342,0,0,1,1.144,1.709V30.88l5.7,3.419V29.737a15.878,15.878,0,0,0-6.846-11.979l-13.4-7.7a5.151,5.151,0,0,0-4.848-.574,5.159,5.159,0,0,0-1.994,4.278v4.563l5.7,3.423Z" transform="translate(-18.307 -5.835)"/></g></svg>