<svg xmlns="http://www.w3.org/2000/svg" width="142.997" height="156.629" viewBox="0 0 142.997 156.629"><defs><style>.a{fill:#868686;}.a,.b,.c,.d,.e,.f,.g,.h,.i,.j,.k,.l,.o{fill-rule:evenodd;}.b{fill:#c2c1c0;}.c{fill:#a5a5a5;}.d{fill:#545454;}.e{fill:#e0e0df;}.f{fill:#6d6e6e;}.g{fill:#ce7622;}.h{fill:#b1611b;}.i{fill:#285554;}.j{fill:#082423;}.k{fill:#9d927c;}.l{fill:#262626;}.m{fill:#733916;}.n{fill:#bd681b;}.o{fill:#fff;}</style></defs><path class="a" d="M96.693,57.621,94.038,74.046,21.667,32.256V14.282Z" transform="translate(46.304 42.726)"/><path class="b" d="M7.617,54.638l62.85-36.287,62.99,36.373L70.607,91.005Z" transform="translate(0.827 55.899)"/><path class="c" d="M7.75,54.028,70.6,17.736l62.99,36.373L70.741,90.4Z" transform="translate(1.259 53.908)"/><path class="d" d="M94.038,56.792V74.767L21.667,32.977V15Z" transform="translate(46.304 45.06)"/><path class="e" d="M5.624,57.4l5.252,14.889L83.247,30.5V12.52Z" transform="translate(-5.622 37.025)"/><path class="f" d="M6.864,55.032V73.006l72.371-41.79V13.242Z" transform="translate(-1.61 39.363)"/><path class="f" d="M23.529,34.449v42.9l52.589-30.36V19.232Z" transform="translate(52.329 58.749)"/><path class="b" d="M69.152,39.29v42.9L9.433,47.707V17.736Z" transform="translate(6.706 53.908)"/><path class="g" d="M78.753,86.55l-72.23-41.7v-2.6L70.433,8.419l67.211,38.709,4.7,2.706Z" transform="translate(-2.714 23.749)"/><path class="h" d="M23.572,56.9V51.575l63.6-33.994v2.6Z" transform="translate(52.468 53.403)"/><path class="i" d="M78.753,89.663l-72.23-41.7,68.13-41.31,67.695,46.294Z" transform="translate(-2.714 18.036)"/><path class="j" d="M26.7,89.663,22.6,6.654,90.3,52.947Z" transform="translate(49.336 18.036)"/><path class="g" d="M57.964,55.983,12.453,29.719l.01-2.883L52.712,6.772,95.053,31.153l2.969,1.7Z" transform="translate(16.48 18.419)"/><path class="h" d="M23.195,38.259V34.907L63.263,12.247l-.01,2.883Z" transform="translate(51.249 36.142)"/><path class="i" d="M57.956,57.661l-45.5-26.269L55.371,5.364,98.024,34.527Z" transform="translate(16.488 13.863)"/><path class="j" d="M25.17,57.661l-2.585-52.3L65.238,34.527Z" transform="translate(49.274 13.863)"/><path class="g" d="M40.014,29.874,17.6,16.933,17.577,14.7,37.44,5.624,58.3,17.635l1.454.838Z" transform="translate(33.066 14.704)"/><path class="h" d="M22.943,21.755l-.091-2.262L42.664,8.133l.02,2.221Z" transform="translate(50.137 22.823)"/><path class="i" d="M39.995,30.5,17.577,17.561,38.722,4.741l21.014,14.37Z" transform="translate(33.066 11.845)"/><path class="j" d="M23.841,30.5,22.568,4.741l21.014,14.37Z" transform="translate(49.22 11.845)"/><path class="k" d="M23.2,2.788l.767,8.851-.748.429-.838-.485.565-8.81Z" transform="translate(48.618 5.478)"/><path class="k" d="M26.26.826A4.46,4.46,0,0,1,27.3.949h-.03a3.983,3.983,0,1,0,3.3,6.211A4.639,4.639,0,1,1,26.26.826" transform="translate(46.125 -0.826)"/><path class="l" d="M40.4,27.2l-5.049-3.625L31.308,32.45V44.638L40.4,39.4Z" transform="translate(77.509 72.821)"/><path class="m" d="M41.4,27.269l-4.685-3.519-1.1-.641-.364.818L31.21,32.8l-.071.152V46.587l1.091.631.394-3.19V33.257l3.6-7.9,4.008,2.883V41.326l1.1.641.384-1.489V27.487Z" transform="translate(76.96 71.301)"/><path class="n" d="M41.666,27.422l-5.059-3.636-.727-.525-.373.813-4.04,8.871-.07.152V46.728l1.121-.641.364-.217V33.4l3.594-7.9,4.019,2.888V41.477l1.111-.641.364-.207V27.639Z" transform="translate(77.794 71.79)"/><path class="l" d="M36,29.734l-5.049-3.625-4.039,8.86v12.2L36,41.927Z" transform="translate(63.275 81.009)"/><path class="m" d="M37,29.8l-4.686-3.515-1.1-.641-.373.818L26.8,35.328l-.06.152V49.117l1.091.632.384-3.2V35.788l3.594-7.9,4.019,2.883V43.856l1.091.642.384-1.49V30.023Z" transform="translate(62.728 79.489)"/><path class="n" d="M37.257,29.941l-5.048-3.625-.728-.525-.373.813-4.039,8.872-.07.156V49.259l1.111-.641.363-.217V35.935l3.606-7.9,4.009,2.883V44.008l1.111-.642.373-.217V30.169Z" transform="translate(63.561 79.979)"/><path class="c" d="M23.707,59.776V77.761l63.727-36.8L90.09,24.53,84.8,24.505Z" transform="translate(52.907 75.818)"/><path class="f" d="M23.707,62.817V80.791l2.656-1.525v.016l63.726-36.8V24.511Z" transform="translate(52.907 75.837)"/><path class="l" d="M14.6,27.707l5.059-3.63,4.029,8.871V45.14L14.6,39.894Z" transform="translate(23.415 74.429)"/><path class="m" d="M14.73,27.768l4.685-3.524,1.09-.636.374.813,4.039,8.871.07.157V47.08l-1.09.632-.384-3.191V33.751l-3.606-7.9L15.9,28.738V41.824l-1.09.636-.394-1.484V27.985Z" transform="translate(22.837 72.913)"/><path class="n" d="M14.473,27.919l5.049-3.636.727-.525.373.818,4.03,8.871.081.152V47.226l-1.111-.637-.374-.217V33.907L19.653,26l-4.009,2.883V41.974l-1.121-.636-.364-.212V28.136Z" transform="translate(22.003 73.399)"/><path class="l" d="M10.632,25.4l5.049-3.63,4.039,8.866v12.2l-9.088-5.246Z" transform="translate(10.586 66.961)"/><path class="m" d="M10.756,25.451l4.685-3.515,1.1-.636.374.813,4.039,8.871.06.157V44.773l-1.09.631-.384-3.2V31.443l-3.6-7.9L11.927,26.43V39.517l-1.09.636-.384-1.484V25.678Z" transform="translate(10.008 65.446)"/><path class="n" d="M10.507,25.606l5.049-3.63.727-.525.373.818,4.039,8.871.071.152V44.918l-1.111-.636-.364-.217V31.6l-3.6-7.9-4.009,2.883V39.667l-1.112-.636-.373-.217V25.829Z" transform="translate(9.166 65.931)"/><path class="l" d="M19,30.233l5.058-3.625,4.039,8.86v12.2L19,42.415Z" transform="translate(37.656 82.622)"/><path class="m" d="M19.13,30.288l4.685-3.515,1.1-.636.363.818,4.039,8.866.071.157V48.328l-.01,1.287-1.091.627-.373-3.2V36.287l-3.6-7.9-4.019,2.883V44.354l-1.091.637-.384-1.5V30.516Z" transform="translate(37.077 81.102)"/><path class="n" d="M18.862,30.443l5.059-3.63.727-.525.373.818,4.04,8.872.06.151V49.756l-1.1-.636-.373-.217V36.437l-3.6-7.9-4.019,2.883V44.505l-1.1-.637-.374-.217V30.671Z" transform="translate(36.244 81.588)"/><path class="o" d="M27.151,50.511l-17.307-10L5.632,23.145l5.177-.042L32.671,35.69,30.019,48.854ZM82.211,64.327V82.3L51.677,64.661V49.744l2.635-1.529Z" transform="translate(-5.598 71.279)"/><path class="e" d="M30.045,55.184,9.869,43.525,5.624,41.089V23.112l24.421,14.1ZM82.237,67.344V85.32L51.7,67.687V49.715Z" transform="translate(-5.624 71.308)"/><path class="f" d="M14.043,44.064V26.074l-2.655,1.571V45.6Z" transform="translate(13.032 80.897)"/></svg>