<svg xmlns="http://www.w3.org/2000/svg" width="36.18" height="100.924" viewBox="0 0 36.18 100.924"><defs><style>.a{fill:#ae251b;}.b{fill:#eb401d;}</style></defs><path class="a" d="M30.932,94.182a20.2,20.2,0,0,1-9.113-15.836v-62.6a9.006,9.006,0,0,1,3.687-8.245L23.443,8.7a9.008,9.008,0,0,0-3.687,8.241v62.6a20.306,20.306,0,0,0,9.113,15.836,6.564,6.564,0,0,0,6.51.651l1.952-1.195A6.379,6.379,0,0,1,30.932,94.182Z" transform="translate(-15.363 -1.109)"/><path class="a" d="M25.049,14.266,23.1,15.461a3.931,3.931,0,0,0-1.629,3.581V49.522l1.952-1.195V17.847A4.19,4.19,0,0,1,25.049,14.266Z" transform="translate(-9.697 20.877)"/><path class="a" d="M33.893,8.274A12.09,12.09,0,0,0,21.85,7.079L19.9,8.274A12.08,12.08,0,0,1,31.941,9.482,37.583,37.583,0,0,1,48.972,38.989V89.2l1.952-1.195V37.781A37.873,37.873,0,0,0,33.893,8.274Z" transform="translate(-14.744 -6.002)"/><path class="b" d="M32.192,104.228a27.739,27.739,0,0,1-9.547-10.087,27.947,27.947,0,0,1-3.9-13.233V18.419A12.222,12.222,0,0,1,23.73,7.363,12.08,12.08,0,0,1,35.772,8.558,37.586,37.586,0,0,1,52.8,38.057V88.281l-4.337-2.5V35.56a26.429,26.429,0,0,0-3.687-12.583,26.477,26.477,0,0,0-9-9.547,8.933,8.933,0,0,0-9-.85,9.009,9.009,0,0,0-3.7,8.233V83.4a20.306,20.306,0,0,0,9.113,15.836,5.617,5.617,0,0,0,9.219-5.315V51.073a10.764,10.764,0,0,0-1.629-5.426,11.006,11.006,0,0,0-3.9-4.121,3.99,3.99,0,0,0-3.9-.425h0a3.931,3.931,0,0,0-1.629,3.581V75.163l-4.337-2.5V42.394A6.8,6.8,0,0,1,28.828,36.1a6.629,6.629,0,0,1,6.834.651A19.307,19.307,0,0,1,42.5,44.018a19.637,19.637,0,0,1,2.824,9.538v42.86a9.45,9.45,0,0,1-3.9,8.679h0A8.834,8.834,0,0,1,32.192,104.228Z" transform="translate(-18.686 -5.082)"/><path class="a" d="M36.767,21.464A21.1,21.1,0,0,0,29.933,14.2a6.647,6.647,0,0,0-6.834-.651l-1.952,1.195a6.629,6.629,0,0,1,6.834.651,19.307,19.307,0,0,1,6.834,7.267,19.619,19.619,0,0,1,2.819,9.547V75.044a9.45,9.45,0,0,1-3.9,8.679l1.952-1.195a9.565,9.565,0,0,0,3.9-8.679V31A18.546,18.546,0,0,0,36.767,21.464Z" transform="translate(-10.678 16.405)"/></svg>