<svg xmlns="http://www.w3.org/2000/svg" width="91.861" height="113.362" viewBox="0 0 91.861 113.362"><defs><style>.a{fill:#d9d9d8;}.b{fill:#fff;}.c{fill:#cc271b;}.d{fill:#76cbdb;}.e{fill:#a7dde7;}.f{fill:#42a89b;}.g{fill:#f0f0f0;}</style></defs><path class="a" d="M29.508,11.488a15.571,15.571,0,0,1-14.075,0c-1.94-1.123-2.915-2.593-2.915-4.063v75.05c0,1.47.974,2.94,2.915,4.063a15.545,15.545,0,0,0,14.075,0c1.945-1.123,2.915-2.593,2.915-4.063V7.425C32.423,8.9,31.453,10.365,29.508,11.488Z" transform="translate(-12.519 -1.678)"/><path class="b" d="M29.508,15.879a15.571,15.571,0,0,1-14.075,0c-1.94-1.123-2.915-2.593-2.915-4.063s.974-2.94,2.915-4.063a15.545,15.545,0,0,1,14.075,0c1.945,1.123,2.915,2.593,2.915,4.063S31.453,14.756,29.508,15.879Z" transform="translate(-12.519 -6.069)"/><g transform="translate(13.646 25.003)"><path class="a" d="M15.74,18.859v-6.1l21.136,12.2v6.1Z" transform="translate(-15.74 -9.421)"/><path class="c" d="M20.729,24.289v-6.1L26.51,14.85v6.1Z" transform="translate(0.408 -2.649)"/><path class="b" d="M42.656,24.172,21.519,11.97c-.966,1.5-3.351,2.86-5.779,3.334L36.877,27.51Z" transform="translate(-15.739 -11.97)"/></g><g transform="translate(13.646 53.868)"><path class="a" d="M15.74,25.673v-6.1l21.136,12.2v6.1Z" transform="translate(-15.74 -16.232)"/><path class="c" d="M20.729,31.1V25l5.781-3.338v6.1Z" transform="translate(0.408 -9.459)"/><path class="b" d="M42.656,30.989,21.519,18.783c-.966,1.5-3.351,2.86-5.779,3.339l21.137,12.2Z" transform="translate(-15.739 -18.783)"/></g><g transform="translate(21.455 16.85)"><path class="d" d="M72.743,97.621V59.63c0-7.961-5.643-17.731-12.537-21.713l-32.9-18.993c-3.449-1.991-6.584-2.173-8.855-.86l12.431-7.177c2.271-1.313,5.406-1.131,8.851.86l32.9,18.993c6.893,3.983,12.537,13.753,12.537,21.718V90.444c0,3.983-1.411,6.787-3.682,8.1l-12.431,7.173C71.332,104.408,72.743,101.6,72.743,97.621Z" transform="translate(-14.767 -10.046)"/><path class="e" d="M63.022,99.378l-32.9-19C23.226,76.4,17.583,66.628,17.583,58.667V20.676c0-3.978,1.411-6.787,3.686-8.1s5.406-1.131,8.855.86l32.9,18.993c6.893,3.983,12.537,13.753,12.537,21.713V92.138c0,3.983-1.411,6.787-3.682,8.1S66.471,101.365,63.022,99.378Z" transform="translate(-17.583 -4.563)"/></g><g transform="translate(26.001 30.008)"><path class="f" d="M59.27,32.952c4.563,2.631,8.27,9.058,8.27,14.324V84.624c0,5.266-3.707,7.41-8.27,4.775L26.926,70.727c-4.559-2.635-8.27-9.062-8.27-14.329V19.052c0-5.266,3.711-7.406,8.27-4.775Z" transform="translate(-18.656 -13.151)"/></g><path class="g" d="M55.125,43.284,43.89,36.8V23.823L31.55,16.7V29.673L20.317,23.188V37.433L31.55,43.918V56.891l12.34,7.124V51.042l11.235,6.487Z" transform="translate(12.722 28.338)"/></svg>