<svg xmlns="http://www.w3.org/2000/svg" width="158.393" height="113.991" viewBox="0 0 158.393 113.991"><defs><style>.a{fill:#f5a129;}.b{fill:#ffc241;}.c{fill:#6d3721;}.d{fill:#7c4b37;}.e{fill:#e71f24;}.f{fill:#ea3d3f;}.g{fill:#e0cb70;}.h{fill:#ffee85;}.i{fill:#ffbf35;}</style></defs><g transform="translate(19.557 30.544)"><path class="a" d="M113.776,28.751c-24.09-13.91-63.144-13.91-87.229,0-8.33,4.809-18.06,13.284-18.06,13.284s-.089,9.508,0,12.528c.272,8.9,6.289,17.758,18.056,24.549,24.085,13.905,63.139,13.905,87.229,0,11.72-6.766,17.737-15.581,18.051-24.447.191-5.32,0-13.408,0-13.408S119.113,31.83,113.776,28.751Z" transform="translate(-8.449 -6.094)"/><ellipse class="b" cx="61.68" cy="35.611" rx="61.68" ry="35.611" transform="translate(0.032)"/></g><g transform="translate(20.296 18.183)"><path class="c" d="M112.8,24.948c-23.83-13.761-62.467-13.761-86.3,0C16.078,30.965,8.64,43.42,8.64,43.42s.009,5.018-.013,6c-.2,9.16,5.762,18.358,17.869,25.353,23.835,13.756,62.472,13.756,86.3,0,11.915-6.88,17.873-15.9,17.873-24.915v-9.3A62.836,62.836,0,0,0,112.8,24.948Z" transform="translate(-8.623 -5.74)"/><path class="d" d="M112.8,22.858C88.968,9.1,50.33,9.1,26.5,22.858s-23.83,36.064,0,49.825,62.472,13.756,86.3,0S136.628,36.614,112.8,22.858Z" transform="translate(-8.623 -12.537)"/></g><path class="e" d="M64.589,26.7c-11.111-6.417-29.129-6.417-40.24,0-4.856,2.807-8.326,8.611-8.326,8.611s0,2.343,0,2.8c-.089,4.274,2.688,8.56,8.33,11.822,11.111,6.417,29.129,6.417,40.24,0,5.554-3.206,8.33-7.412,8.33-11.618V35.033A25.628,25.628,0,0,0,64.589,26.7Z" transform="translate(35.72 36.05)"/><path class="f" d="M64.59,25.927c-11.111-6.417-29.129-6.417-40.24,0s-11.111,16.814,0,23.231,29.129,6.413,40.24,0S75.7,32.339,64.59,25.927Z" transform="translate(35.719 33.543)"/><g transform="translate(0 4.261)"><path class="g" d="M3.85,52.34V55.8l79.2,45.724,79.2-45.724V52.34l-79.2-42.263Z" transform="translate(-3.85 -6.616)"/><path class="h" d="M3.85,54.987l79.2,45.724,79.2-45.724L83.046,9.263Z" transform="translate(-3.85 -9.263)"/></g><path class="i" d="M72.608,8.261c-48.566,0-64.7,37.417-65.21,46.649-.561,10.044,5.8,20.19,19.076,27.857,25.48,14.709,66.792,14.709,92.272,0,13.28-7.667,19.637-17.813,19.076-27.857C137.823,40,121.179,8.261,72.608,8.261Z" transform="translate(7.579 -8.261)"/></svg>