<svg xmlns="http://www.w3.org/2000/svg" xmlns:xlink="http://www.w3.org/1999/xlink" width="118.897" height="79.419" viewBox="0 0 118.897 79.419"><defs><style>.a{fill:#fff;}.b{fill:#132a31;}.c{fill:#eaeaea;}.d{fill:url(#a);}.e{fill:#bebe1d;}.f{fill:#d0d41f;}</style><linearGradient id="a" x1="-213.268" y1="213.959" x2="-211.755" y2="213.959" gradientUnits="objectBoundingBox"><stop offset="0" stop-color="#c5d015"/><stop offset="0.469" stop-color="#c0ce18"/><stop offset="1" stop-color="#b1c01f"/></linearGradient></defs><path class="a" d="M22.474,18.857a17.767,17.767,0,0,1,9.463,11.514,10.762,10.762,0,0,0,.111-1.851v3.7a13.663,13.663,0,0,1-.546,3.591h0l.546.328.111.111L60.335,52.569l6.529-3.808,3.591-2.068Z" transform="translate(33.443 -9.716)"/><path class="b" d="M24.592,22.836" transform="translate(40.358 3.274)"/><path class="c" d="M44.087,21.768a28.817,28.817,0,0,0-26.014,0,9.048,9.048,0,0,0-5.318,7.506v10.99a9.05,9.05,0,0,1,5.331-7.506,28.817,28.817,0,0,1,26.014,0,9.05,9.05,0,0,1,5.331,7.506V29.274A9.058,9.058,0,0,0,44.087,21.768Z" transform="translate(1.715 -10.341)"/><path class="a" d="M65.279,22.26a51.179,51.179,0,0,0-46.343,0A16.151,16.151,0,0,0,9.362,35.646a16.158,16.158,0,0,0,9.574,13.382A50.423,50.423,0,0,0,48.2,54.244a42.61,42.61,0,0,0,16.973-5.22A19.116,19.116,0,0,0,74.2,39.216a10.278,10.278,0,0,0,.546-3.591C74.853,30.75,71.7,25.961,65.279,22.26ZM55.164,43.041a28.817,28.817,0,0,1-26.014,0,9.05,9.05,0,0,1-5.331-7.506A9.05,9.05,0,0,1,29.15,28.03a28.817,28.817,0,0,1,26.014,0,9.05,9.05,0,0,1,5.331,7.506A9.05,9.05,0,0,1,55.164,43.041Z" transform="translate(-9.362 -16.714)"/><path class="c" d="M25.244,23.262l-.652-.426v7.288l.652.426L53.421,46.871v-7.4Z" transform="translate(40.358 3.274)"/><path class="d" d="M29.923,26.714V37.7a4.857,4.857,0,0,1,2.827,3.915V30.74A4.656,4.656,0,0,0,29.923,26.714Z" transform="translate(57.761 15.934)"/><path class="c" d="M74.662,22.978a10.159,10.159,0,0,1-.426,1.74,18.311,18.311,0,0,1-9.028,9.809,44.4,44.4,0,0,1-16.973,5.22,49.4,49.4,0,0,1-29.264-5.22,16.157,16.157,0,0,1-9.583-13.4v10.99A16.158,16.158,0,0,0,18.962,45.5a50.425,50.425,0,0,0,29.264,5.22A42.61,42.61,0,0,0,65.2,45.5a19.126,19.126,0,0,0,9.011-9.8V28.415a10.278,10.278,0,0,0,.546-3.591v-3.7C74.773,21.779,74.662,22.432,74.662,22.978Z" transform="translate(-9.277 -2.305)"/><path class="c" d="M11.607,25.132V32.42L59.695,60.161V52.873Z" transform="translate(-2.033 10.769)"/><path class="a" d="M69.835,47,40.9,30.369a49.406,49.406,0,0,1-29.264-5.237L59.72,52.873,63.31,50.8Z" transform="translate(-1.951 10.769)"/><path class="e" d="M74.342,41.618a51.179,51.179,0,0,1-46.343,0L22.881,38.68V49.67L28,52.608a51.179,51.179,0,0,0,46.343,0,16.158,16.158,0,0,0,9.574-13.382V28.347A16.23,16.23,0,0,1,74.342,41.618Z" transform="translate(34.772 21.265)"/><path class="f" d="M74.182,27.458,69.064,24.52l-3.591,2.068L58.944,30.4,52.85,33.987a4.124,4.124,0,0,1,0,7.834,15.212,15.212,0,0,1-13.706,0L33.05,45.412l-6.529,3.808L22.93,51.289l5.118,2.938a51.179,51.179,0,0,0,46.343,0,16.158,16.158,0,0,0,9.574-13.382A17.151,17.151,0,0,0,74.182,27.458Z" transform="translate(34.932 8.772)"/></svg>