<svg xmlns="http://www.w3.org/2000/svg" width="116.351" height="96.868" viewBox="0 0 116.351 96.868"><defs><style>.a{fill:#1e1e1e;}.b{fill:#b2b1a4;}.c{fill:#d5d4c8;}.d{fill:#f9820a;}.e{fill:#858379;}.f{fill:#545454;}.g{fill:#fe9700;}.h{fill:#333;}.i{fill:#fff;}.j{fill:#4e4f4f;}.k{fill:#181818;}.l{fill:#3d3d3d;}</style></defs><path class="a" d="M13.953,58.216c5.97,4.036,15.415.5,21.1-7.905S40.5,31.826,34.535,27.79s-15.415-.5-21.1,7.9S7.987,54.181,13.953,58.216Zm5.911-18.175c2.445-3.623,5.817-5.962,8.841-6.472a2.485,2.485,0,0,1,.289.174c2.628,1.773,2.16,7.042-1.033,11.771s-7.918,7.118-10.542,5.345a3.179,3.179,0,0,1-.268-.2C16.5,47.657,17.415,43.66,19.864,40.041Z" transform="translate(-9.322 36.984)"/><path class="b" d="M11.431,45.243c2.624,1.773,7.344-.617,10.542-5.345s3.661-10,1.033-11.771a2.485,2.485,0,0,0-.289-.174,5.781,5.781,0,0,1,4.291.787c3.521,2.381,3.347,8.785-.387,14.305s-9.61,8.063-13.131,5.681a5.76,5.76,0,0,1-2.326-3.687A3.179,3.179,0,0,0,11.431,45.243Z" transform="translate(-3.334 42.6)"/><path class="b" d="M12.9,31.507c1.45-2.143,3.738-3.134,5.107-2.207l2.275,1.539c1.365.923,1.3,3.415-.149,5.558s-3.738,3.13-5.1,2.207l-2.279-1.539C11.388,36.138,11.451,33.65,12.9,31.507Z" transform="translate(-1.36 46.195)"/><path class="c" d="M13.436,31.869c-1.45,2.143-1.514,4.631-.145,5.558s3.653-.064,5.1-2.207,1.514-4.635.149-5.558S14.886,29.722,13.436,31.869Z" transform="translate(0.381 47.372)"/><path class="c" d="M14.835,44.49a1.616,1.616,0,0,0,1.5-1.021L22.1,28.934a1.615,1.615,0,1,0-3-1.191L13.334,42.278a1.617,1.617,0,0,0,1.5,2.211Z" transform="translate(3.353 38.949)"/><path class="c" d="M23.314,26.744a1.288,1.288,0,0,0,1.28-1.148l.493-4.388a6.044,6.044,0,0,0-1.837-5.026l-4.809-4.546a1.29,1.29,0,1,0-1.773,1.875l4.805,4.546a3.445,3.445,0,0,1,1.046,2.866l-.489,4.388a1.287,1.287,0,0,0,1.14,1.425A.825.825,0,0,0,23.314,26.744Z" transform="translate(13.257 -11.281)"/><path class="d" d="M16.816,28.4,21,13.784l9.164,2.485L25.98,30.885Z" transform="translate(15.052 -3.137)"/><ellipse class="a" cx="18.367" cy="13.047" rx="18.367" ry="13.047" transform="translate(74.157 49.256) rotate(-55.928)"/><path class="e" d="M32.652,24.343c-2.968,4.393-2.645,9.8.731,12.081S41.9,37,44.869,32.605s2.645-9.8-.731-12.085S35.624,19.95,32.652,24.343Z" transform="translate(59.953 15.487)"/><path class="b" d="M33.394,23.751c-1.7,2.513-1.633,5.532.153,6.74s4.614.149,6.315-2.364,1.633-5.532-.153-6.74S35.095,21.238,33.394,23.751Z" transform="translate(64.961 19.965)"/><path class="f" d="M31.141,25.82c3.466-3.453,7.744-4.958,9.555-3.368l3.844,3.317c1.812,1.59.468,5.677-3,9.126s-7.748,4.958-9.555,3.368l-3.844-3.317C26.331,33.355,27.675,29.268,31.141,25.82Z" transform="translate(49.268 22.991)"/><path class="b" d="M32.045,26.6c-3.466,3.449-4.809,7.535-3,9.126s6.089.081,9.555-3.368,4.809-7.535,3-9.126S35.51,23.147,32.045,26.6Z" transform="translate(52.209 25.528)"/><path class="g" d="M86.876,14.913,108,30.753,78.358,50.471,73.375,60.537a14.649,14.649,0,0,1-5.018,5.7l-8.93,5.928A26.53,26.53,0,0,1,49.4,76.181l-7.846,1.4a15.758,15.758,0,0,1-11.537-2.428L18.485,67.409,14.028,50.029a16.294,16.294,0,0,1-.51-4.057,47.921,47.921,0,0,1,6.6-24.268V21.7a6.985,6.985,0,0,1,9.989-2.207c.825.57,1.654,1.144,2.479,1.709a18.361,18.361,0,0,1,7.948,15.1v.013a34.8,34.8,0,0,1-.464,5.643l-.744,4.537Z" transform="translate(4.326 0.534)"/><path class="d" d="M27.426,55.689a2.554,2.554,0,0,0,3.529-2.267c.408-9.317,2.292-18.289,6.863-26.084l.111-.179A18.335,18.335,0,0,1,40.387,36.3v.03a34.51,34.51,0,0,1-.459,5.613l-.748,4.55,47.55-31.578,21.122,15.84L78.212,50.471,73.228,60.537a14.649,14.649,0,0,1-5.018,5.7l-8.93,5.928a26.423,26.423,0,0,1-8.233,3.627l-.162.043c-.54.132-1.08.251-1.629.349l-7.846,1.4a15.9,15.9,0,0,1-8.254-.765c-.306-.115-.612-.234-.914-.366a15.636,15.636,0,0,1-2.369-1.3L18.338,67.409,13.882,50.029a15.958,15.958,0,0,1-.319-1.616A89.594,89.594,0,0,0,27.426,55.689Z" transform="translate(4.472 0.534)"/><path class="h" d="M19.451,45.215l1.612-9.827V35.4L46.777,18.323l10.6,6.225L60.1,39.381,27.08,61.268a3.729,3.729,0,0,1-5.4-1.437A23.912,23.912,0,0,1,19.451,45.215Z" transform="translate(22.589 11.624)"/><path class="g" d="M55.9,12.849,67.214,15.3c2.237.489,3.372,1.514,5.269,2.926a16.258,16.258,0,0,1,4.18,4.559l3.517,5.728a13.427,13.427,0,0,1,1.956,6.149A2.56,2.56,0,0,1,81,36.96L50.6,57.184l-6.7.821a22.344,22.344,0,0,1-15.4-3.657A9.016,9.016,0,0,1,24.7,48.59l-2.649-13.8Z" transform="translate(32.088 -6.179)"/><path class="c" d="M26.344,48.643C26.7,26.539,48.92,11.532,63.416,16.86l1.952.719.859,1.395a13.427,13.427,0,0,1,1.956,6.149,2.56,2.56,0,0,1-1.14,2.3l-30.4,20.224-6.7.821A22.245,22.245,0,0,1,26.344,48.643Z" transform="translate(46.041 3.358)"/><path class="i" d="M14.543,22.434c-.429,3.045.961,5.758,3.1,6.06s4.227-1.922,4.656-4.967-.961-5.758-3.1-6.06S14.972,19.389,14.543,22.434Z" transform="translate(7.405 8.751)"/><path class="j" d="M63.511,20.857a10.037,10.037,0,0,1-3.364,7.5l-10.18,9.07A22.078,22.078,0,0,1,22.654,39.04a1.411,1.411,0,0,1-.6-1.242,9.314,9.314,0,0,1,2.3-5.647,34.245,34.245,0,0,1,7.633-6.5,30.076,30.076,0,0,0,6.1-5.052c6.8-7.365,12.047-12.034,20.79-6.068l2.543,1.735a4.816,4.816,0,0,1,2.1,3.976Z" transform="translate(32.067 -9.548)"/><path class="g" d="M37.489,31.829a8.627,8.627,0,0,0-3.912-4.775L28.406,24.1a2.994,2.994,0,0,0-2.662-.149,44.938,44.938,0,0,0-10.282,6.153L13.8,31.434a11.591,11.591,0,0,0-3.491,4.635,1.894,1.894,0,0,0,.621,2.245l1.658,1.225a8.958,8.958,0,0,0,6.766,1.633l5.864-.961a20.471,20.471,0,0,1,12.77,2.045l1.59.829A.905.905,0,0,0,40.853,42Z" transform="translate(-6.582 29.148)"/><path class="k" d="M24.562,32.285a11.562,11.562,0,0,1,4.529-5.617,27.378,27.378,0,0,1,9.4-3.848,51.594,51.594,0,0,0,17.949-7.4l3.317-2.181a4.8,4.8,0,0,1,.638,2.39v.612a10.037,10.037,0,0,1-3.364,7.5L46.849,32.8a22.084,22.084,0,0,1-23.843,3.6Z" transform="translate(35.184 -4.927)"/><ellipse class="l" cx="6.25" cy="3.24" rx="6.25" ry="3.24" transform="translate(80.756 56.915) rotate(-43.14)"/><path class="c" d="M41.181,23.318a1.291,1.291,0,0,0,.646-2.411l-8.913-5.133a5.8,5.8,0,0,0-6.57.561L24.465,17.9a3.2,3.2,0,0,1-3.627.31l-.179-.106a1.293,1.293,0,1,0-1.288,2.241l.179.1a5.8,5.8,0,0,0,6.57-.561L28,18.322a3.207,3.207,0,0,1,3.627-.31l8.913,5.137A1.308,1.308,0,0,0,41.181,23.318Z" transform="translate(21.249 0.846)"/><path class="c" d="M17.809,14.186c-.187.7,1.709,1.816,4.244,2.5s4.733.676,4.92-.017-1.709-1.816-4.24-2.5S18,13.493,17.809,14.186Z" transform="translate(18.24 -3.54)"/><path class="d" d="M56.054,21.247,28.9,39.315a23.782,23.782,0,0,1,4.129-11.333c5.792-8.56,15.415-12.166,21.5-8.054A9.448,9.448,0,0,1,56.054,21.247Z" transform="translate(54.347 11.32)"/><path class="b" d="M11.627,38.333A15.909,15.909,0,0,1,15.616,33.6L17.9,31.793a61.5,61.5,0,0,1,11.46-7.216,8.59,8.59,0,0,1,3.376,4.435L36.1,39.18a.905.905,0,0,1-1.276,1.089l-1.59-.829a20.471,20.471,0,0,0-12.77-2.045l-5.864.961A9.027,9.027,0,0,1,11.627,38.333Z" transform="translate(-1.824 31.965)"/></svg>