<svg xmlns="http://www.w3.org/2000/svg" xmlns:xlink="http://www.w3.org/1999/xlink" width="118.24" height="118.24" viewBox="0 0 118.24 118.24"><defs><style>.a{fill:none;}.b{fill:#ea4145;}.c{fill:#dc2126;}.d{clip-path:url(#a);}.e{fill:#fce6ea;}</style><clipPath id="a"><ellipse class="a" cx="59.12" cy="59.12" rx="59.12" ry="59.12"/></clipPath></defs><ellipse class="b" cx="59.12" cy="59.12" rx="59.12" ry="59.12"/><path class="c" d="M69.035,7.465a65.02,65.02,0,0,1,14.13,40.563A65.285,65.285,0,0,1,17.88,113.312h-.11A59.13,59.13,0,0,0,69.035,7.465Z" transform="translate(21.289 1.435)"/><g class="d"><path class="e" d="M207.4,75.211q.292-3.178.3-6.414c0-47.1-47.6-85.422-106.1-85.422S-4.5,21.7-4.5,68.8c0,36.991,29.365,68.563,70.313,80.414q.483,4,1.33,7.893c-3.665-.746-6.686-.216-9,1.589-5.139,4.008-4.605,12.753-4.58,13.121l2.834-.191c-.008-.076-.47-7.6,3.491-10.689,1.873-1.462,4.559-1.707,7.986-.729A85.415,85.415,0,1,0,207.4,75.211ZM-1.655,68.8c0-45.532,46.32-82.579,103.258-82.579S204.857,23.264,204.857,68.8q0,2.072-.127,4.127A85.368,85.368,0,0,0,65.811,128.751a10.98,10.98,0,0,1-7.363-4.97c-4.6-7.58-.03-20.62.017-20.752l-2.678-.958c-.208.585-5.067,14.435.225,23.175a13.794,13.794,0,0,0,9.507,6.342c-.208,2.432-.322,4.889-.322,7.372,0,2.428.11,4.826.309,7.2C26.316,134.432-1.655,104.178-1.655,68.8ZM68.04,138.961c0-2.347.106-4.669.3-6.969.928.085,1.839.131,2.737.131,14.346,0,24.607-10.566,34.563-20.815,11.537-11.88,23.463-24.158,42.287-22.061l.314-2.826c-20.205-2.25-32.627,10.537-44.638,22.908-9.944,10.236-19.383,19.955-32.5,19.955-.809,0-1.631-.042-2.47-.119a82.53,82.53,0,0,1,135.8-52.794c-4.8,41.995-49.079,75-102.818,75A126.527,126.527,0,0,1,68.434,147Q68.046,143.031,68.04,138.961Zm82.579,82.579A82.726,82.726,0,0,1,71.137,161.4a143.437,143.437,0,0,1,13.1,6.986c15.672,8.982,38.932,22.315,67.75,22.315,1.606,0,3.228-.038,4.864-.123l-.148-2.839c-30.242,1.585-53.828-11.943-71.05-21.815-5.982-3.432-11.194-6.419-15.4-7.931q-.928-3.915-1.47-7.961a129.38,129.38,0,0,0,32.818,4.186c54.349,0,99.28-33.076,105.381-75.537A82.536,82.536,0,0,1,150.618,221.54Z" transform="translate(-50.787 -76.538)"/></g></svg>