<svg xmlns="http://www.w3.org/2000/svg" width="162.166" height="132.223" viewBox="0 0 162.166 132.223"><defs><style>.a{fill:#2f424b;}.b{fill:#283a40;}.c{isolation:isolate;}.d{fill:#2a3c44;}.e{fill:#293b43;}.f{fill:#293a42;}.g{fill:#283941;}.h{fill:#273840;}.i{fill:#27373f;}.j{fill:#26363e;}.k{fill:#25353d;}.l{fill:#24353c;}.m{fill:#24343b;}.n{fill:#23333a;}.o{fill:#29383e;}.p{fill:#feb015;}</style></defs><g transform="translate(29.623 7.971)"><path class="a" d="M61.655,4.447a51.043,51.043,0,0,0-51.044,51.04V77.658A51.04,51.04,0,0,0,61.655,128.7h0V4.447Z" transform="translate(-10.611 -4.447)"/><path class="b" d="M73.7,77.658V55.487A51.043,51.043,0,0,0,22.659,4.447h0V128.7h0A51.04,51.04,0,0,0,73.7,77.658Z" transform="translate(28.385 -4.447)"/></g><g class="c" transform="translate(76.113 92.664)"><path class="d" d="M25.3,24.438l-.021,8.215a8.421,8.421,0,0,1-1.614.708l.021-8.215a8.307,8.307,0,0,0,1.614-.708" transform="translate(-14.848 -24.434)"/><path class="e" d="M24.754,24.6l-.021,8.215a10.533,10.533,0,0,1-1.4.347l.025-8.215a10.475,10.475,0,0,0,1.394-.347" transform="translate(-15.916 -23.893)"/><path class="f" d="M24.079,24.687,24.054,32.9c-.309.055-.623.1-.941.131l.025-8.215c.318-.03.631-.076.941-.131" transform="translate(-16.635 -23.628)"/><path class="g" d="M23.763,24.718l-.025,8.215c-.271.025-.542.047-.818.055l.025-8.215c.271-.008.547-.025.818-.055" transform="translate(-17.26 -23.527)"/><path class="h" d="M23.522,24.731,23.5,32.946c-.25.008-.5.008-.754,0l.021-8.215c.254,0,.5,0,.758,0" transform="translate(-17.836 -23.485)"/><path class="i" d="M23.32,24.761,23.3,32.976c-.241-.008-.487-.021-.729-.038l.025-8.215q.362.025.724.038" transform="translate(-18.393 -23.511)"/><path class="j" d="M23.142,24.784,23.117,33c-.237-.021-.479-.047-.716-.081l.025-8.215c.237.034.475.059.716.08" transform="translate(-18.94 -23.573)"/><path class="k" d="M22.986,24.8l-.025,8.215c-.246-.038-.491-.08-.733-.127l.025-8.215c.242.047.483.089.733.127" transform="translate(-19.5 -23.67)"/><path class="l" d="M22.839,24.82l-.025,8.215c-.258-.055-.517-.119-.767-.191l.021-8.215c.254.072.508.136.771.191" transform="translate(-20.085 -23.816)"/><path class="m" d="M22.754,24.859l-.021,8.215c-.309-.089-.61-.186-.9-.3l.025-8.215c.288.114.585.212.894.3" transform="translate(-20.772 -24.045)"/><path class="n" d="M22.673,24.95l-.025,8.215a8.224,8.224,0,0,1-1.063-.513l.021-8.215a7.756,7.756,0,0,0,1.068.513" transform="translate(-21.584 -24.437)"/></g><path class="o" d="M163.641,16.686,90.184,59.376a11.5,11.5,0,0,1-10.431,0L5.818,16.686a3.683,3.683,0,0,1-2.173-3.042l-.025,8.215A3.7,3.7,0,0,0,5.8,24.9L79.732,67.586a11.5,11.5,0,0,0,10.431,0L163.62,24.9a3.669,3.669,0,0,0,2.14-3l.025-8.215A3.661,3.661,0,0,1,163.641,16.686Z" transform="translate(-3.619 33.293)"/><g transform="translate(0.024)"><path class="a" d="M163.585,46.5c2.894,1.669,2.906,4.372.038,6.042L90.166,95.234a11.5,11.5,0,0,1-10.431,0L5.8,52.544c-2.885-1.665-2.9-4.372-.034-6.042L79.227,3.817a11.48,11.48,0,0,1,10.427,0Z" transform="translate(-3.625 -2.565)"/></g><path class="p" d="M58.73,95.3H70.194L66.046,82.7h0a4.014,4.014,0,0,0,0-7.2V39.642L25.073,13.53a1.778,1.778,0,0,0-1.911,3L62.488,41.59v33.9a4.014,4.014,0,0,0,0,7.2h0Z" transform="translate(56.976 32.017)"/></svg>