<svg xmlns="http://www.w3.org/2000/svg" width="89.121" height="129.687" viewBox="0 0 89.121 129.687"><defs><style>.a{fill:#1c2f41;}.b{fill:#676767;}.c{fill:#f8fafa;}.d{fill:#ffc081;}.e{fill:#121212;}.f{fill:#ffd336;}.g{fill:#2d1a10;}</style></defs><g transform="translate(0 1.238)"><path class="a" d="M59.705,70.486C32.387,68.46,9.8,50.713,12.283,32.961c1.835-13.138,18.146-11.833,45.469-9.808s43.465,12.456,43.465,25.819C101.217,62.732,81.694,72.117,59.705,70.486Z" transform="translate(-12.096 57.78)"/><path class="b" d="M62.346,15.294c-21.891-5.432-49.926,4.2-50.062,43.194a4.213,4.213,0,0,1-.038.568c-2.2,17.659,20.286,35.233,47.46,37.245,21.989,1.631,41.512-7.753,41.512-21.514C101.218,54.438,97.744,24.073,62.346,15.294Z" transform="translate(-12.097 31.964)"/><path class="c" d="M54.817,24.653c-3.949,3.839-10.253,11.249-17.5,21.023-4.41,5.953-8.2,4.932-10.977-.83C20.482,32.7,17.8,22.234,17.334,17.01c-.2-2.233,3.783-3.322,7.249-3.076l15.574,1.093a8.753,8.753,0,0,1,2.381.5l9.978,3.665C55.592,20.323,56.664,22.852,54.817,24.653Z" transform="translate(4.833 31.965)"/><path class="d" d="M65.874,50.223c-5.707,9.1-14.223,20.5-23.832,22.883-15,3.716-26.018-21.972-26.018-37.745S25.4,6.148,40.6,3.432C60.37-.1,82.952,22.989,65.874,50.223Z" transform="translate(0.615 -3.075)"/><g transform="translate(17.71 0)"><path class="e" d="M70.83,27.293C68.724,11.473,53.578.97,39.783,3.432A28.9,28.9,0,0,0,17.938,21.3a33.572,33.572,0,0,0-1.483,4.432,5.18,5.18,0,0,0,1.335,5.05c6.042,5.8,23.179,5.22,26.1,3.22,1.407-.962.958-1.678,1.784-1.818a2.805,2.805,0,0,1,.881-.271,5.183,5.183,0,0,1,5.2,2.4c2.809,4.4,4.571,12.757,11.859,10.384a20.944,20.944,0,0,0,4.016-2.224,5.311,5.311,0,0,0,2.284-3.084A30.34,30.34,0,0,0,70.83,27.293Z" transform="translate(-16.277 -3.075)"/></g></g><path class="f" d="M23.31,25.175v6.482l6.249,7.109,6.249-4.792V27.421s-2.915-.229-4.372-1.4a8.892,8.892,0,0,1-1.877-2.373,6.452,6.452,0,0,1-2.686,2.008A5.478,5.478,0,0,1,23.31,25.175Z" transform="translate(24.198 64.748)"/><path class="g" d="M55.751,2.84C39.058,1.781,26.124,15.69,26.124,15.69l-.911,11.719c.021.038.047.08.068.119-1.589.826-11.418,5.927-12.477,6.381-1.152.5,22.23,15.189,44.143,11.033l13.863-4.389c8.592-1.267,12.583-5.974,12.583-5.974l1.246-16.015S72.444,3.9,55.751,2.84Z" transform="translate(-9.942 -2.782)"/><path class="f" d="M18.832,7.361l-.5,4.881,4.16,5.838,5.076-3.127.508-4.94A6.233,6.233,0,0,1,25.34,8.649c-.669-.695-1.682-1.957-1.682-1.957a4.877,4.877,0,0,1-2.178,1.3A4.138,4.138,0,0,1,18.832,7.361Z" transform="translate(8.085 9.872)"/></svg>