<svg xmlns="http://www.w3.org/2000/svg" width="132.126" height="114.97" viewBox="0 0 132.126 114.97"><defs><style>.a{fill:#66b031;}.b{fill:#7bb62d;}.c{fill:#95bf27;}.d{fill:#afc81f;}.e{fill:#ffc300;}.f{fill:#ffd800;}.g{fill:#ffe60f;}.h{fill:#ffbf00;}</style></defs><g transform="translate(0 23.412)"><g transform="translate(48.056 27.662)"><path class="a" d="M52.862,40.926V25.617L18.367,35.7V51.012Z" transform="translate(-18.367 -5.656)"/><path class="a" d="M44.054,36.232V20.923L26.479,40.884V56.192Z" transform="translate(8.016 -20.923)"/><path class="a" d="M22.984,53.763V38.357l34.5-10.087v15.4Z" transform="translate(-3.351 2.972)"/><path class="a" d="M31.1,58.939v-15.4L48.562,23.576v15.4Z" transform="translate(23.036 -12.294)"/><path class="b" d="M25.893,55.447V40.041L60.5,29.954v15.4Z" transform="translate(6.11 8.449)"/><path class="b" d="M34.03,60.623v-15.4L51.495,25.26v15.4Z" transform="translate(32.575 -6.817)"/></g><path class="c" d="M55.118,64.433V49.124L7.066,21.484V36.793Z" transform="translate(-7.066 8.563)"/><path class="c" d="M19.438,43.936V28.627L34.517,37.2V52.6Z" transform="translate(33.172 31.795)"/><path class="c" d="M24.056,46.589V31.28l7.812,4.448v15.4Z" transform="translate(48.192 40.424)"/><path class="d" d="M89.617,62.045l-34.5,10.082L7.066,44.465,41.672,34.379,59.136,14.418,107.188,42.08Zm37.1-8.679-14.968-8.679L94.282,64.643,59.676,74.73l14.968,8.679,34.606-10.087Zm12.477,7.161-7.807-4.563L113.92,75.924,79.314,86.015l7.812,4.554,34.606-10.087Z" transform="translate(-7.066 -14.418)"/></g><g transform="translate(22.346)"><path class="e" d="M43.374,39,21.785,51.37V30L43.374,17.632Z" transform="translate(18.46 19.448)"/><rect class="f" width="24.949" height="47.839" transform="translate(23.898 12.467) rotate(-29.98)"/><path class="g" d="M60.16,53.28,36.3,11.841,12.321,25.619l7.595,4.448V51.439L52.57,70.2V48.837Z" transform="translate(-12.321 0.613)"/><path class="h" d="M32.017,42.39,16.071,33.17V17.224l15.946,9.33Z" transform="translate(-0.125 18.121)"/></g></svg>