<svg xmlns="http://www.w3.org/2000/svg" xmlns:xlink="http://www.w3.org/1999/xlink" width="136.442" height="121.661" viewBox="0 0 136.442 121.661"><defs><style>.a{fill:#343333;}.b{fill:#333;}.c{fill:#2d2d2d;}.d{fill:url(#a);}.e{fill:url(#b);}.f{fill:url(#c);}.g{fill:#54a4dc;}.h{fill:#0962ae;}.i{fill:#181818;}.j{fill:#ffcb00;}.k{fill:#ffe300;}.l{fill:#e0e4d6;}.m{fill:#c5cfd4;}.n{fill:#d1d6c9;}.o{fill:url(#d);}.p{fill:#232322;}.q{fill:#3890cf;}.r{fill:#0e5ba8;}.s{fill:#b0afaf;}.t{fill:#f8fbfb;}.u{fill:#7d949e;}.v{fill:#626262;}</style><linearGradient id="a" x1="-1.682" y1="0.999" x2="-0.956" y2="0.048" gradientUnits="objectBoundingBox"><stop offset="0" stop-color="#151515"/><stop offset="0.256" stop-color="#373737"/><stop offset="0.463" stop-color="#3c3c3c"/><stop offset="0.699" stop-color="#4b4b4b"/><stop offset="0.904" stop-color="#484848"/><stop offset="1" stop-color="#434343"/></linearGradient><linearGradient id="b" x1="-0.763" y1="0.855" x2="-0.159" y2="0.004" xlink:href="#a"/><linearGradient id="c" x1="-1.686" y1="0.995" x2="-0.96" y2="0.044" xlink:href="#a"/><linearGradient id="d" x1="0.142" y1="0.818" x2="0.641" y2="0.062" gradientUnits="objectBoundingBox"><stop offset="0" stop-color="#ced4c2"/><stop offset="0.336" stop-color="#dce2cf"/><stop offset="0.737" stop-color="#dae0cd"/><stop offset="0.881" stop-color="#d5dcc6"/><stop offset="0.984" stop-color="#ccd4ba"/><stop offset="1" stop-color="#cbd3b8"/></linearGradient></defs><g transform="translate(14.688 38.177)"><g transform="translate(0 20.939)"><path class="a" d="M11.535,42.7c-.017-6.944,4.86-15.415,10.89-18.915,3.04-1.769,5.792-1.939,7.778-.787,1.956,1.135,3.172,3.559,3.181,7.008.021,6.94-4.86,15.415-10.895,18.923-3.036,1.76-5.787,1.931-7.773.778C12.755,48.568,11.544,46.145,11.535,42.7Z" transform="translate(-4.629 -18.257)"/><path class="b" d="M28.575,22.053c-1.986-1.152-4.737-.982-7.773.782-6.034,3.5-10.907,11.97-10.89,18.915,0,3.449,1.22,5.873,3.181,7.008L20,52.768c-1.96-1.135-3.172-3.559-3.181-7.008-.017-6.944,4.86-15.415,10.89-18.919,3.04-1.765,5.792-1.935,7.778-.782Z" transform="translate(-9.911 -21.321)"/></g><g transform="translate(11.822 31.326)"><path class="c" d="M20.907,25.719a5.883,5.883,0,0,0-.323-1.935,5.978,5.978,0,0,0-1.9.714A13.267,13.267,0,0,0,12.691,34.9a5.929,5.929,0,0,0,.323,1.939,6,6,0,0,0,1.9-.719A13.256,13.256,0,0,0,20.907,25.719Z" transform="translate(-12.691 -23.696)"/><path class="d" d="M22.709,24.136h0a3.391,3.391,0,0,0-2.373-.285,5.883,5.883,0,0,1,.323,1.935,13.256,13.256,0,0,1-5.992,10.406,6,6,0,0,1-1.9.719,3.378,3.378,0,0,0,1.425,1.914h0c1.093.638,2.607.54,4.278-.425a13.293,13.293,0,0,0,5.992-10.41C24.457,26.1,23.789,24.761,22.709,24.136Z" transform="translate(-12.444 -23.763)"/></g><g transform="translate(36.047)"><path class="a" d="M20.013,37.772c-.021-6.94,4.856-15.415,10.89-18.919,3.036-1.765,5.787-1.935,7.773-.782,1.96,1.135,3.172,3.559,3.181,7.008C41.875,32.023,37,40.494,30.967,44c-3.036,1.76-5.787,1.931-7.773.778C21.233,43.645,20.017,41.221,20.013,37.772Z" transform="translate(-13.103 -13.333)"/><path class="e" d="M37.052,17.129c-1.986-1.152-4.733-.982-7.769.778C23.249,21.416,18.367,29.886,18.388,36.83c.008,3.449,1.225,5.868,3.181,7.008l6.91,4.006c-1.96-1.135-3.177-3.559-3.181-7.008-.021-6.94,4.856-15.415,10.89-18.919,3.036-1.765,5.787-1.935,7.773-.782Z" transform="translate(-18.388 -16.397)"/></g><g transform="translate(47.873 10.387)"><path class="c" d="M29.385,20.795a6,6,0,0,0-.323-1.935,6,6,0,0,0-1.905.714A13.276,13.276,0,0,0,21.169,29.98a5.89,5.89,0,0,0,.323,1.939,6.082,6.082,0,0,0,1.9-.714A13.293,13.293,0,0,0,29.385,20.795Z" transform="translate(-21.169 -18.772)"/><path class="f" d="M31.187,19.212a3.391,3.391,0,0,0-2.373-.285,6,6,0,0,1,.323,1.935,13.293,13.293,0,0,1-5.992,10.41,6.082,6.082,0,0,1-1.9.714A3.37,3.37,0,0,0,22.67,33.9h0c1.093.634,2.607.54,4.274-.429a13.273,13.273,0,0,0,5.992-10.406C32.931,21.172,32.263,19.837,31.187,19.212Z" transform="translate(-20.922 -18.839)"/></g><g transform="translate(11.47 21.301)"><path class="g" d="M16.054,39.323,57.541,63.37,54.1,46.854,12.608,22.807Z" transform="translate(-12.608 -16.848)"/><path class="h" d="M71.024,41.92,25.81,67.928,22.365,51.412,74.529,21.406Z" transform="translate(19.123 -21.406)"/></g><g transform="translate(50.059 30.364)"><g transform="translate(0 20.939)"><path class="i" d="M23.308,49.833c-.017-6.944,4.86-15.411,10.89-18.915,3.04-1.765,5.792-1.935,7.778-.782,1.956,1.135,3.172,3.559,3.181,7.008.021,6.94-4.86,15.411-10.895,18.919-3.036,1.765-5.787,1.935-7.773.782C24.528,55.705,23.317,53.282,23.308,49.833Z" transform="translate(-16.398 -25.395)"/><path class="b" d="M40.351,29.192c-1.986-1.152-4.737-.978-7.773.787-6.034,3.5-10.907,11.97-10.895,18.915.008,3.449,1.225,5.873,3.185,7.008l6.906,4.01c-1.96-1.14-3.172-3.563-3.181-7.012-.017-6.944,4.86-15.411,10.89-18.915,3.04-1.765,5.792-1.935,7.778-.782Z" transform="translate(-21.683 -28.461)"/></g><g transform="translate(11.826 31.324)"><path class="j" d="M32.68,32.863a5.929,5.929,0,0,0-.323-1.939,6.1,6.1,0,0,0-1.9.719,13.267,13.267,0,0,0-5.992,10.406,5.883,5.883,0,0,0,.323,1.935,5.978,5.978,0,0,0,1.9-.714A13.269,13.269,0,0,0,32.68,32.863Z" transform="translate(-24.464 -30.836)"/><path class="k" d="M34.482,31.28h0a3.368,3.368,0,0,0-2.373-.289,5.929,5.929,0,0,1,.323,1.939,13.269,13.269,0,0,1-5.992,10.406,5.978,5.978,0,0,1-1.9.714,3.374,3.374,0,0,0,1.425,1.918h0c1.093.634,2.607.54,4.278-.429a13.278,13.278,0,0,0,5.992-10.406C36.23,33.236,35.562,31.905,34.482,31.28Z" transform="translate(-24.217 -30.903)"/></g><g transform="translate(36.052)"><path class="i" d="M31.786,44.913c-.021-6.94,4.856-15.415,10.89-18.923,3.036-1.76,5.787-1.931,7.773-.778,1.96,1.135,3.172,3.559,3.181,7.008.017,6.944-4.86,15.415-10.89,18.923-3.036,1.76-5.787,1.931-7.773.778C33.006,50.786,31.79,48.362,31.786,44.913Z" transform="translate(-24.876 -20.472)"/><path class="b" d="M48.825,24.267c-1.986-1.148-4.733-.982-7.769.782C35.022,28.558,30.14,37.029,30.161,43.969c.008,3.449,1.225,5.873,3.181,7.012l6.91,4.006c-1.96-1.135-3.177-3.559-3.181-7.008-.021-6.94,4.856-15.415,10.89-18.923,3.036-1.76,5.787-1.931,7.773-.778Z" transform="translate(-30.161 -23.537)"/></g><g transform="translate(47.878 10.385)"><path class="j" d="M41.158,27.939A6.044,6.044,0,0,0,40.834,26a6.015,6.015,0,0,0-1.905.719,13.262,13.262,0,0,0-5.987,10.406,5.929,5.929,0,0,0,.323,1.939,5.994,5.994,0,0,0,1.9-.719A13.278,13.278,0,0,0,41.158,27.939Z" transform="translate(-32.942 -25.912)"/><path class="k" d="M42.96,26.356a3.371,3.371,0,0,0-2.373-.289,6.044,6.044,0,0,1,.323,1.939,13.278,13.278,0,0,1-5.992,10.406,5.994,5.994,0,0,1-1.9.719,3.359,3.359,0,0,0,1.425,1.914v0c1.093.629,2.607.54,4.274-.429a13.281,13.281,0,0,0,5.992-10.41C44.7,28.312,44.036,26.981,42.96,26.356Z" transform="translate(-32.695 -25.979)"/></g></g></g><g transform="translate(6.349 0.195)"><path class="l" d="M15.936,22.743a3.452,3.452,0,0,1-1.561,2.7L9.511,28.254a1.09,1.09,0,0,1-1.1.106,1.091,1.091,0,0,1-.459-1.008V21.735a3.478,3.478,0,0,1,1.561-2.7l4.865-2.807a1.09,1.09,0,0,1,1.1-.106,1.086,1.086,0,0,1,.459,1.008Z" transform="translate(-7.95 20.335)"/><path class="l" d="M26.514,16.633a3.454,3.454,0,0,1-1.561,2.7l-4.865,2.811c-.855.493-1.561.089-1.561-.9V15.629a3.478,3.478,0,0,1,1.561-2.7l4.865-2.807c.859-.5,1.561-.094,1.561.9Z" transform="translate(26.454 0.471)"/><g transform="translate(0 36.347)"><path class="m" d="M15.477,16.118a1.09,1.09,0,0,0-1.1.106L9.511,19.031a3.478,3.478,0,0,0-1.561,2.7v5.617a1.091,1.091,0,0,0,.459,1.008l6.634,3.831a1.1,1.1,0,0,1-.459-1.008V25.566a3.478,3.478,0,0,1,1.561-2.7l4.869-2.807a1.072,1.072,0,0,1,1.1-.106Z" transform="translate(-7.95 -16.012)"/><path class="n" d="M17.5,23.641a3.461,3.461,0,0,1-1.556,2.7l-4.869,2.811a1.1,1.1,0,0,1-1.1.106,1.1,1.1,0,0,1-.459-1.008V22.637a3.478,3.478,0,0,1,1.561-2.7l4.869-2.807a1.072,1.072,0,0,1,1.1-.106,1.086,1.086,0,0,1,.459,1.008Z" transform="translate(-2.876 -13.083)"/></g><g transform="translate(44.982 10.377)"><path class="o" d="M26.055,10.011a1.09,1.09,0,0,0-1.1.106l-4.865,2.807a3.478,3.478,0,0,0-1.561,2.7v5.617a1.1,1.1,0,0,0,.459,1.008l6.634,3.831a1.1,1.1,0,0,1-.459-1.008V19.459a3.472,3.472,0,0,1,1.561-2.7l4.865-2.811a1.1,1.1,0,0,1,1.1-.106Z" transform="translate(-18.528 -9.905)"/><path class="n" d="M28.074,17.535a3.461,3.461,0,0,1-1.556,2.7L21.649,23.05a.953.953,0,0,1-1.561-.9V16.531a3.472,3.472,0,0,1,1.561-2.7l4.869-2.811a.952.952,0,0,1,1.556.906Z" transform="translate(-13.454 -6.977)"/></g><g transform="translate(3.682)"><path class="p" d="M12.8,20.4,8.816,18.1l3.006-1.736,3.984,2.3Z" transform="translate(-8.816 21.494)"/><path class="p" d="M23.315,14.33l-3.984-2.3,3-1.733,3.984,2.3Z" transform="translate(25.384 1.751)"/><path class="q" d="M22.81,10.795l-3.984-2.3c1.327.765,2.147,2.39,2.147,4.695V17.9l3.984,2.3V15.489C24.958,13.18,24.137,11.56,22.81,10.795Z" transform="translate(23.741 -4.117)"/><path class="q" d="M53.5,8.163c-1.909-1.1-4.559-.936-7.488.753L19.332,24.322c-5.8,3.351-10.516,11.435-10.516,18.03v4.712l3.984,2.3V44.653c0-6.6,4.716-14.683,10.516-18.03L50,11.216c2.93-1.692,5.579-1.854,7.488-.753Z" transform="translate(-8.816 -7.465)"/><path class="r" d="M46.953,9.458,20.269,24.864C14.469,28.211,9.753,36.3,9.753,42.894V47.6l3.006-1.735V41.159c0-4.682,3.372-10.435,7.51-12.825L46.953,12.928c2.1-1.212,4-1.335,5.367-.544,1.327.765,2.147,2.386,2.147,4.695v4.707l3-1.731V15.343c0-3.266-1.157-5.562-3.028-6.638C52.532,7.6,49.883,7.765,46.953,9.458Z" transform="translate(-5.768 -5.706)"/></g></g><path class="s" d="M137.915,22.187l-67.77,39.13c-6.646,3.836-17.52,3.836-24.166,0L11.441,41.378C8.115,39.456,6.457,36.93,6.457,34.4V48.352c0,2.53,1.658,5.06,4.984,6.978L45.979,75.269c6.646,3.836,17.52,3.836,24.166,0l67.77-39.126c3.325-1.922,4.984-4.448,4.984-6.978V15.213C142.9,17.739,141.24,20.269,137.915,22.187Z" transform="translate(-6.457 17.93)"/><path class="t" d="M70.145,84.105c-6.646,3.836-17.52,3.836-24.166,0L11.441,64.166c-3.325-1.922-4.984-4.448-4.984-6.978s1.658-5.056,4.984-6.978l67.77-39.126c6.646-3.836,17.52-3.836,24.166,0l34.538,19.939C141.24,32.94,142.9,35.471,142.9,38s-1.658,5.056-4.984,6.974Z" transform="translate(-6.457 -4.858)"/><g transform="translate(70.692 37.344)"><path class="l" d="M31.067,31.478a3.462,3.462,0,0,1-1.556,2.7l-4.865,2.807a.955.955,0,0,1-1.565-.9V30.47a3.457,3.457,0,0,1,1.565-2.7l4.865-2.811a.95.95,0,0,1,1.556.9Z" transform="translate(-23.081 11.6)"/><path class="l" d="M41.645,25.371a3.448,3.448,0,0,1-1.556,2.7l-4.865,2.811c-.859.493-1.565.089-1.565-.9V24.363a3.471,3.471,0,0,1,1.565-2.7l4.865-2.807c.859-.493,1.556-.089,1.556.9Z" transform="translate(11.323 -8.263)"/><g transform="translate(0 36.348)"><path class="m" d="M30.612,24.852a1.1,1.1,0,0,0-1.1.106l-4.865,2.811a3.457,3.457,0,0,0-1.565,2.7v5.617a1.1,1.1,0,0,0,.459,1.008l6.634,3.831a1.1,1.1,0,0,1-.455-1.008V34.3a3.467,3.467,0,0,1,1.561-2.7l4.865-2.807a1.089,1.089,0,0,1,1.1-.106Z" transform="translate(-23.081 -24.749)"/><path class="u" d="M32.628,32.38a3.452,3.452,0,0,1-1.561,2.7L26.2,37.891a.952.952,0,0,1-1.561-.9V31.372a3.467,3.467,0,0,1,1.561-2.7l4.865-2.807a.953.953,0,0,1,1.561.9Z" transform="translate(-18.004 -21.82)"/></g><g transform="translate(44.982 10.377)"><path class="m" d="M41.19,18.747a1.089,1.089,0,0,0-1.1.106l-4.865,2.811a3.457,3.457,0,0,0-1.565,2.7v5.617a1.1,1.1,0,0,0,.459,1.008l6.634,3.831a1.1,1.1,0,0,1-.459-1.008V28.2a3.471,3.471,0,0,1,1.565-2.7l4.865-2.807a1.089,1.089,0,0,1,1.1-.106Z" transform="translate(-33.659 -18.641)"/><path class="u" d="M43.206,26.269a3.454,3.454,0,0,1-1.561,2.7l-4.865,2.811a.952.952,0,0,1-1.561-.9V25.265a3.467,3.467,0,0,1,1.561-2.7l4.865-2.807a.953.953,0,0,1,1.561.9Z" transform="translate(-28.582 -15.711)"/></g><g transform="translate(3.683)"><path class="p" d="M27.931,29.139l-3.984-2.3L26.954,25.1l3.984,2.3Z" transform="translate(-23.946 12.758)"/><path class="p" d="M38.446,23.066l-3.984-2.3,3-1.733,3.984,2.3Z" transform="translate(10.254 -6.985)"/><path class="q" d="M37.942,19.531l-3.984-2.3c1.327.765,2.147,2.39,2.147,4.695v4.712l3.98,2.3V24.225C40.086,21.916,39.269,20.3,37.942,19.531Z" transform="translate(8.613 -12.854)"/><path class="q" d="M68.64,16.9c-1.909-1.1-4.563-.936-7.488.757L34.463,33.062c-5.8,3.347-10.516,11.435-10.516,18.026V55.8l3.984,2.3V53.388c0-6.6,4.716-14.683,10.516-18.03L65.136,19.952c2.926-1.692,5.579-1.854,7.488-.753Z" transform="translate(-23.947 -16.201)"/><path class="r" d="M62.088,18.194,35.4,33.6c-5.8,3.347-10.516,11.435-10.516,18.03v4.712L27.89,54.6V49.9c0-4.682,3.372-10.435,7.51-12.825L62.088,21.664c2.1-1.212,4-1.331,5.367-.544,1.327.765,2.143,2.386,2.143,4.695v4.712l3-1.735V24.079c0-3.262-1.152-5.558-3.023-6.638C67.667,16.34,65.014,16.5,62.088,18.194Z" transform="translate(-20.9 -14.443)"/></g></g><g transform="translate(69.293)"><path class="s" d="M47.9,7.857c-1.446-.833-3.963-.493-6.812,1.152L30.857,14.92c-4.456,2.573-8.105,7.4-8.105,10.725a2.712,2.712,0,0,0,1.293,2.522L55.368,46.252a2.716,2.716,0,0,1-1.293-2.522c0-3.325,3.649-8.152,8.105-10.725l10.235-5.911c2.849-1.646,5.367-1.986,6.812-1.152Z" transform="translate(-22.752 -7.419)"/><path class="v" d="M56.564,14.632c0,3.325-3.644,8.152-8.105,10.725L38.223,31.267c-2.849,1.646-5.367,1.986-6.812,1.152A2.716,2.716,0,0,1,30.118,29.9c0-3.325,3.649-8.152,8.105-10.725l10.235-5.911c2.849-1.646,5.367-1.986,6.812-1.152A2.712,2.712,0,0,1,56.564,14.632Z" transform="translate(1.205 6.413)"/></g></svg>