<svg xmlns="http://www.w3.org/2000/svg" width="129.477" height="118.159" viewBox="0 0 129.477 118.159"><defs><style>.a{fill:#ffcb00;}.b{fill:#eaeaea;}.c{fill:#d9d9d8;}.d{fill:#b0afaf;}.e{fill:#fff;}.f{fill:#040505;}</style></defs><path class="a" d="M24.984,56.964c0,5.579,3.955,12.43,8.79,15.219L71.22,93.8c4.835,2.794,8.79.51,8.79-5.073V45.491c0-5.579-3.955-12.43-8.79-15.224L33.774,8.648c-4.835-2.79-8.79-.506-8.79,5.077V56.964Z" transform="translate(49.467 -3.824)"/><path class="b" d="M27.364,8.094l5.894,3.4c-5.209-3.006-11.29-1.391-11.29,4.2v72.95l-5.894-3.4,0-72.945C16.07,6.7,22.155,5.088,27.364,8.094Z" transform="translate(20.475 -6.603)"/><path class="c" d="M19.564,48.428c5.043-2.909,9.13-9.985,9.126-15.806,0-2.909-1.021-4.954-2.675-5.907l5.894,3.4c1.654.957,2.675,3,2.679,5.911,0,5.822-4.087,12.9-9.13,15.806-2.517,1.454-4.8,1.595-6.451.638l-5.894-3.4C14.763,50.022,17.046,49.882,19.564,48.428Z" transform="translate(10.858 58.807)"/><path class="c" d="M34.028,32.561c3.563-6.17,3.559-12.842,0-14.9l5.894,3.4c3.563,2.058,3.568,8.73,0,14.9s-9.342,9.508-12.906,7.454l-5.9-3.4C24.681,42.07,30.46,38.74,34.028,32.561Z" transform="translate(36.893 29.36)"/><path class="c" d="M25.327,27.01A12.824,12.824,0,0,1,31.455,25.1l5.894,3.4a12.79,12.79,0,0,0-6.128,1.914c-7.722,4.452-13.982,15.3-13.982,24.217,0,4.465,1.565,7.6,4.1,9.058l-5.894-3.4c-2.53-1.459-4.1-4.593-4.1-9.053C11.345,42.31,17.6,31.466,25.327,27.01Z" transform="translate(5.095 53.541)"/><path class="b" d="M14.042,15.01l5.894,3.4c-5.992-3.457-11.1,23.983-.085,30.341l-5.9-3.4C2.939,38.994,8.046,11.553,14.042,15.01Z" transform="translate(-7.476 19.764)"/><g transform="translate(5.898 3.401)"><g transform="translate(16.436)"><path class="d" d="M16.823,121.23c2.53,1.463,6.026,1.25,9.887-.982,7.727-4.461,13.986-15.3,13.986-24.217V59.362c0-9.287,10.754-23.881,10.754-35.669,0-7.705-3.419-12.549-7.323-14.8-5.209-3-11.29-1.391-11.29,4.206V86.042a12.79,12.79,0,0,0-6.128,1.914c-7.722,4.452-13.982,15.3-13.982,24.217C12.728,116.638,14.293,119.772,16.823,121.23Zm3.436-5.953c-1.654-.953-2.675-3-2.675-5.907,0-5.817,4.087-12.9,9.126-15.806,2.517-1.454,4.8-1.595,6.451-.642s2.675,3,2.679,5.911c0,5.822-4.087,12.9-9.13,15.806C24.192,116.093,21.909,116.229,20.259,115.277Z" transform="translate(-12.728 -7.403)"/></g><g transform="translate(0 34.475)"><path class="d" d="M83.216,44.939C77.752,54.405,68.9,59.512,63.438,56.361L40.986,43.4C35.3,40.113,22.56,50.318,15.34,46.151h0c-11.014-6.357-5.907-33.8.085-30.341h0L60.1,41.605a32.192,32.192,0,0,1,3.338-8.084C68.9,24.064,77.752,18.949,83.212,22.1h0C88.676,25.255,88.676,35.482,83.216,44.939Zm-3.44-16.882h0C76.208,26,70.434,29.333,66.87,35.5s-3.563,12.851,0,14.909h0c3.563,2.054,9.338-1.276,12.906-7.454S83.34,30.115,79.776,28.057Z" transform="translate(-8.863 -15.51)"/></g></g><path class="c" d="M22.86,28.39c5.46-9.457,14.314-14.569,19.778-11.418l5.894,3.4c-5.46-3.151-14.314,1.965-19.774,11.422a32.192,32.192,0,0,0-3.338,8.084l-5.894-3.4A32.173,32.173,0,0,1,22.86,28.39Z" transform="translate(31.715 24.095)"/><path class="e" d="M22.04,21.171a3.5,3.5,0,0,1-3.5,6.068h0c-.965-.561-.965-2.369,0-4.044s2.539-2.581,3.5-2.024Z" transform="translate(26.14 40.24)"/><g transform="translate(98.335 17.533)"><path class="f" d="M33.02,20.09V11.947L30.6,10.727V18.87Z" transform="translate(-30.601 -10.727)"/><path class="f" d="M33.02,22.951V14.808L30.6,13.588v8.144Z" transform="translate(-30.601 -1.421)"/><path class="f" d="M33.02,25.813V17.669L30.6,16.449v8.144Z" transform="translate(-30.601 7.885)"/><path class="f" d="M33.02,28.674V20.531L30.6,19.311v8.144Z" transform="translate(-30.601 17.191)"/><path class="f" d="M33.02,31.535V23.392L30.6,22.172v8.144Z" transform="translate(-30.601 26.497)"/></g><path class="f" d="M47.435,31.456l-2.394-1.369.021,5.422a1.467,1.467,0,0,1-2.4,1.4L38.33,34.428a5.345,5.345,0,0,1-2.42-4.155l-.021-5.422L33.5,23.478c-1.327-.757-1.646-1.82-.714-2.364l5.945-3.466c.931-.544,2.466.336,3.406,1.952l6,10.3c.574.991.68,1.637.37,1.816C48.315,31.826,47.949,31.749,47.435,31.456Z" transform="translate(73.091 28.794)"/></svg>