<svg xmlns="http://www.w3.org/2000/svg" width="150.345" height="99.694" viewBox="0 0 150.345 99.694"><defs><style>.a{fill:#eaeaea;}.b{fill:#b0afaf;}.c{fill:#191818;}.d{fill:#181818;}.e{fill:#4e4f4f;}.f{fill:#3890cf;}.g{fill:#0962ae;}.h{fill:#3e4985;}.i{fill:#fa0;}.j{fill:#ffcd00;}.k{fill:#ffd300;}.l{fill:#fb0;}</style></defs><path class="a" d="M46.372,36.414,8.189,26.208C2.98,24.15,2.449,13.625,7.322,12l44.586-.974Z" transform="translate(-3.957 -11.023)"/><g transform="translate(37.795 0.147)"><path class="b" d="M73.328,54.2c3.687-6.4,9.759-9.887,13.45-7.812L28.1,12.658c-7.918-4.559-12.587,1.3-14.539,9-1.841,7.161,0,11.932,4.235,14.973l55.43,33.084C69.637,67.548,69.637,60.6,73.328,54.2Z" transform="translate(-12.845 -11.058)"/><g transform="translate(43.448 61.372)"><path class="c" d="M52.487,34.433,31.659,46.475a15.865,15.865,0,0,0,4.559-4.121L57.046,30.312A17.7,17.7,0,0,1,52.487,34.433Z" transform="translate(4.899 -9.807)"/><path class="d" d="M73.94,43.822,53.108,55.865c-7.591,4.337-15.946-4.559-29.18-18.332L44.756,25.49C57.994,39.268,66.35,48.159,73.94,43.822Z" transform="translate(-20.245 -25.49)"/><path class="e" d="M26.638,28.322l-3.576,2.709C31.414,39.71,38.9,47.845,45.842,51.859c4.882,2.819,9.436,3.581,13.671,1.084a15.794,15.794,0,0,0,4.554-4.121L59.4,43.4a14.493,14.493,0,0,1-3.687,3.253C48.334,50.991,39.876,42.1,26.638,28.322Z" transform="translate(-23.062 -16.279)"/></g><g transform="translate(56.248 53.561)"><path class="f" d="M38.876,52.5a8.852,8.852,0,0,0,3.253.757c.434-8.785-6.621-17.465-13.995-27.334l-2.062,1.518C34.428,38.727,39.96,45.45,38.876,52.5Z" transform="translate(-26.072 -16.27)"/><path class="g" d="M57.255,50.987l-16.7,9.653c.434-8.785-6.621-17.465-13.995-27.334l16.7-9.653C50.638,33.633,57.689,42.2,57.255,50.987Z" transform="translate(-24.495 -23.653)"/></g><g transform="translate(18.823 1.818)"><path class="h" d="M61.652,23.5,40.714,35.543,22.271,49.427,43.21,37.384Z" transform="translate(-1.009 27.592)"/><path class="i" d="M59.8,29.521,38.972,41.564,33.01,48.176,53.949,36.133Z" transform="translate(33.918 47.175)"/><path class="j" d="M49.179,20.745,28.24,32.788,54.494,70.1,75.322,58.06Z" transform="translate(18.404 18.632)"/><path class="i" d="M49.5,18.857,28.561,30.9l-.319,8.029L49.181,26.886Z" transform="translate(18.411 12.492)"/><path class="k" d="M38.312,12.2,17.373,24.242l9.219,4.125L47.425,16.213Z" transform="translate(-16.939 -9.163)"/><path class="j" d="M42.134,11.485,21.2,23.634,51.464,54.889,72.4,42.846Z" transform="translate(-4.492 -11.485)"/><path class="l" d="M17.271,44.384,17.7,17.275,26.924,21.4l7.05-7.055L64.243,45.6l-.319,8.028,26.25,37.315L84.208,97.56,61.645,66.534,38.537,79.228,27.8,73.015,23.454,52.081Z" transform="translate(-17.271 -2.183)"/></g></g></svg>