<svg xmlns="http://www.w3.org/2000/svg" width="62.129" height="113.449" viewBox="0 0 62.129 113.449"><defs><style>.a{fill:#b0afaf;}.b{fill:#f2f3f3;}.c{fill:#4b6c70;}.d{fill:#8a8b8e;}.e{fill:#545454;}</style></defs><path class="a" d="M39.242,37.966a13.036,13.036,0,0,1-5.894-10.214c0-1.88.659-3.2,1.726-3.814L19.941,32.676c-1.067.617-1.726,1.939-1.731,3.819a13.033,13.033,0,0,0,5.9,10.21c1.629.94,3.1,1.029,4.172.417l15.134-8.739C42.347,38.995,40.871,38.91,39.242,37.966Z" transform="translate(-5.388 58.721)"/><path class="a" d="M40.226,47.609c-2.432-18.689-6.574-22.64-.77-27.657L24.318,28.686c-5.8,5.022-1.663,8.973.77,27.662.612,4.69-.3,7.875-2.067,9.649l15.134-8.739C39.929,55.485,40.835,52.3,40.226,47.609Z" transform="translate(4.888 45.76)"/><path class="a" d="M71.879,63.548,43.618,28.4c-.889-1.114-1.195-2.607-.68-3.338,1.327-1.888,4.184-5.958,9.33-13.28A2.34,2.34,0,0,0,51.4,8.832c-7.48-4.439-13.455-5.911-19.7-2.309L16.573,15.266c6.243-3.606,12.217-2.135,19.7,2.3a2.345,2.345,0,0,1,.863,2.947C31.988,27.84,29.126,31.91,27.8,33.8c-.519.731-.213,2.228.68,3.338l28.257,35.15c.893,1.114,1.3,2.751.629,3.27l15.138-8.739C73.176,66.3,72.772,64.662,71.879,63.548Z" transform="translate(-10.712 -4.499)"/><path class="b" d="M25.712,54.576C22.723,42.767,9.8,17.72,17.73,10.959a22.156,22.156,0,0,1,3.325-2.377c6.243-3.606,12.217-2.135,19.7,2.3a2.345,2.345,0,0,1,.863,2.947c-5.145,7.323-8.007,11.392-9.33,13.28-.519.731-.213,2.228.68,3.338L61.224,65.6c.893,1.114,1.3,2.751.629,3.27a5.42,5.42,0,0,1-.608.408c-4.418,2.551-12.872-.451-16.844,2.981-5.8,5.022-1.663,8.973.77,27.662.612,4.69-.3,7.875-2.067,9.649-2.271,2.267-5.958,2.224-9.7.068C26.754,105.8,19.925,94.152,22.493,85.622,25.2,76.624,28.927,67.286,25.712,54.576Zm8.2,48.664c1.629.94,3.1,1.029,4.172.417s1.726-1.939,1.726-3.819a13.036,13.036,0,0,0-5.9-10.214c-1.629-.94-3.1-1.029-4.167-.412s-1.726,1.939-1.731,3.819A13.04,13.04,0,0,0,33.915,103.24Z" transform="translate(-15.195 2.185)"/><g transform="translate(30.529 22.576)"><path class="c" d="M34.723,17.648l-9.087,5.243a1.73,1.73,0,0,0,.153-.349L34.881,17.3A1.53,1.53,0,0,1,34.723,17.648Z" transform="translate(-11.765 14.556)"/><path class="a" d="M35.556,11.224C35.131,10.11,34.451,9.6,33.94,9.889l-9.087,5.243c.51-.3,1.191.221,1.616,1.339,4.72,12.4,4.074,19.637,1.867,30.434l9.092-5.243C39.63,30.862,40.281,23.637,35.556,11.224Z" transform="translate(-14.311 -9.808)"/><path class="b" d="M34.532,12.463c-.425-1.118-1.106-1.637-1.616-1.339a.918.918,0,0,0-.272.259C24.968,22.307,22.374,25.99,22.374,25.99L36.245,43.246A1.73,1.73,0,0,0,36.4,42.9C38.605,32.1,39.252,24.871,34.532,12.463Z" transform="translate(-22.374 -5.799)"/></g><g transform="translate(16.243 43.804)"><path class="d" d="M19.014,22.146l11.98,14.9,5.162-7.343L24.175,14.8Z" transform="translate(-19.014 -14.8)"/><g transform="translate(0.655 0.754)"><path class="e" d="M21.235,25.925l1.154,1.436,5.889-8.378-1.154-1.435Z" transform="translate(-12.447 -6.616)"/><path class="e" d="M20.718,25.283l1.154,1.435,5.889-8.377-1.154-1.436Z" transform="translate(-14.128 -8.707)"/><path class="e" d="M20.2,24.64l1.154,1.435L27.244,17.7,26.09,16.262Z" transform="translate(-15.809 -10.798)"/><path class="e" d="M19.685,24l1.154,1.435,5.889-8.378-1.154-1.435Z" transform="translate(-17.489 -12.889)"/><path class="e" d="M19.168,23.354l1.154,1.436,5.887-8.38-1.152-1.433Z" transform="translate(-19.168 -14.977)"/></g></g></svg>