<svg xmlns="http://www.w3.org/2000/svg" width="114.113" height="129.317" viewBox="0 0 114.113 129.317"><defs><style>.a{isolation:isolate;}.b{fill:#ea4145;}.c{fill:#c72b31;}.d{fill:#fff;}</style></defs><g transform="translate(0)"><g class="a"><g transform="translate(0 10.448)"><path class="b" d="M186.42,488.521c7.3,4.217,13.2,14.429,13.179,22.821l-.128,44.7c-.025,8.392-5.96,11.772-13.264,7.559l-69.57-40.167c-7.3-4.217-13.2-14.429-13.175-22.822l.128-44.7c.026-8.392,5.961-11.772,13.26-7.559Z" transform="translate(-103.462 -446.541)"/></g><path class="c" d="M201.353,486.061,131.782,445.9c-3.673-2.122-7-2.321-9.4-.923L104.4,455.421c2.4-1.394,5.731-1.2,9.408.923l69.566,40.168c7.3,4.213,13.2,14.429,13.179,22.821l-.128,44.7c-.013,4.167-1.484,7.1-3.856,8.482l17.979-10.45c2.372-1.377,3.843-4.311,3.856-8.477l.123-44.7C214.553,500.495,208.657,490.279,201.353,486.061Z" transform="translate(-100.415 -444.083)"/></g><path class="d" d="M112.025,453.668v46.057l30.485-7.457Z" transform="translate(-75.621 -412.917)"/></g></svg>