<svg xmlns="http://www.w3.org/2000/svg" width="55.666" height="87.087" viewBox="0 0 55.666 87.087"><defs><style>.a{fill:#76a52e;}.b{fill:#a9cc6a;}.c{fill:#f6f4f6;}.d{fill:#344952;}</style></defs><path class="a" d="M11.8,272.009A44.745,44.745,0,0,0-3.364,255.887c-5.777-3.369-11.07-3.85-15.161-1.446L-31.281,261.9c4.091-2.408,9.383-1.686,15.161,1.443A44.746,44.746,0,0,1-.96,279.469c6.254,11.07,7.941,22.861,4.575,29.84a.237.237,0,0,1-.237.24h0c-.24.721-.721,1.2-.965,1.923l-16.363,27.673c-.237.24-.237.484-.481.484l12.753-7.46c.24,0,.24-.24.484-.484l16.363-27.673a4.838,4.838,0,0,0,.962-1.923h0a.241.241,0,0,1,.233-.24h.007C19.738,294.633,18.292,283.083,11.8,272.009Z" transform="translate(37.539 -252.938)"/><g transform="translate(0 7.22)"><path class="b" d="M-11.606,257.9c-5.777-3.369-11.07-3.85-15.161-1.446h0c-4.105,2.411-6.258,7.223-6.258,13.962a40.612,40.612,0,0,0,2.889,14.436l16.363,46.688a5.451,5.451,0,0,0,2.153,2.885,1.52,1.52,0,0,0,1.687.24c.237,0,.237-.24.481-.481L6.909,306.51a4.877,4.877,0,0,0,.962-1.927h0a.237.237,0,0,1,.237-.237h0c3.369-7.223,1.687-18.774-4.575-29.84A42.678,42.678,0,0,0-11.606,257.9Z" transform="translate(33.025 -254.95)"/><path class="c" d="M-3.286,271.337a30.638,30.638,0,0,0-11.795-12.272,11.862,11.862,0,0,0-11.791-1.2c-3.129,1.683-4.812,5.537-4.812,10.585a33.547,33.547,0,0,0,1.2,8.181c.24.484.24.965.481,1.443s.24.965.481,1.446a47.924,47.924,0,0,0,2.408,5.056,30.629,30.629,0,0,0,11.791,12.272,11.868,11.868,0,0,0,11.795,1.2A11.59,11.59,0,0,0-.878,295.9c.24-.24.24-.481.481-.721s.24-.481.481-.721C2.732,288.906,1.526,279.763-3.286,271.337Z" transform="translate(36.496 -250.099)"/><path class="d" d="M-8.6,268.639l-1.687-2.889c-1.2-2.153-3.369-3.369-4.575-2.648l-6.014,3.61-2.153-3.85c-1.2-2.153-3.369-3.369-4.575-2.648l-1.687.962c-1.2.721-1.2,3.129,0,5.3l6.258,10.586c1.2,2.153,3.369,3.37,4.575,2.648l10.108-5.774A4.72,4.72,0,0,0-8.6,268.639Z" transform="translate(40.365 -241.867)"/></g></svg>