<svg xmlns="http://www.w3.org/2000/svg" width="435.721" height="529.866" viewBox="0 0 435.721 529.866"><defs><style>.a{fill:#006163;}.b{fill:#08ebfc;}.c{fill:#00b7d1;stroke:#fff;stroke-width:4px;}.d{isolation:isolate;}.e{fill:#b0b2b2;}.f{fill:#2d2d2c;}.g{fill:#6e7072;}.h{fill:#ea4145;}.i{fill:#c72b31;}.j,.k{fill:#fff;}.k{font-size:25px;font-family:HelveticaNeue-Bold, Helvetica Neue;font-weight:700;}</style></defs><g transform="translate(-1328.09 -4644.492)"><g transform="translate(-4236.112 5985.015)"><rect class="a" width="214" height="307.597" rx="27" transform="translate(5679.012 -1225.165)"/><rect class="b" width="211.9" height="304.045" rx="26.735" transform="translate(5671.112 -1233.613)"/><path class="c" d="M5698.771-1233.025h163.152c15.206,0,27.532,10.373,27.532,23.169v264.3c0,12.8-12.326,23.168-27.532,23.168H5698.771c-15.206,0-27.532-10.372-27.532-23.168v-264.3C5671.239-1222.652,5683.565-1233.025,5698.771-1233.025Z"/></g><g transform="translate(1465.05 4798.667)"><g transform="translate(0)"><g transform="translate(0 36.464)"><g class="d"><g transform="translate(0.038)"><path class="e" d="M158.737,458.149c8.831-5.174,23.3-5.21,32.266-.079l58.12,33.271c8.964,5.131,9.071,13.514.244,18.688l-57.4,33.648c-8.831,5.174-23.3,5.21-32.266.079l-58.12-33.274c-8.964-5.131-9.071-13.514-.244-18.688Zm87.655,34.792-58.12-33.271c-7.442-4.259-19.459-4.216-26.762.065l-57.4,33.644c-7.331,4.3-7.241,11.242.2,15.5l58.12,33.274c7.417,4.245,19.434,4.231,26.765-.065l57.4-33.648c7.3-4.281,7.213-11.256-.2-15.5" transform="translate(-94.785 -454.245)"/></g><g transform="translate(3.922 2.255)"><path class="f" d="M158.709,458.108c7.3-4.281,19.319-4.324,26.762-.065l58.12,33.271c7.417,4.245,7.507,11.221.2,15.5l-57.4,33.648c-7.331,4.3-19.348,4.31-26.765.065l-58.12-33.274c-7.442-4.259-7.532-11.206-.2-15.5Z" transform="translate(-95.867 -454.874)"/></g><path class="g" d="M255.947,467.22c0,.219-.036.438-.057.657-.022.244-.039.488-.083.728-.036.194-.093.384-.144.574a6.893,6.893,0,0,1-.2.693c-.065.183-.151.366-.23.549-.1.241-.208.477-.337.714-.09.172-.2.341-.3.51-.165.265-.341.531-.538.8-.115.154-.237.305-.362.456a12.506,12.506,0,0,1-.994,1.069c-.115.111-.219.226-.337.334-.222.2-.466.391-.707.585-.2.165-.4.334-.621.5-.258.187-.549.37-.825.549s-.527.359-.818.531l-57.4,33.644a24.386,24.386,0,0,1-3.172,1.518c-.3.122-.6.233-.908.345-.693.255-1.421.456-2.149.664-.75.208-1.507.406-2.282.567-.886.183-1.78.352-2.691.47-.251.032-.5.075-.746.1-1.26.136-2.533.2-3.811.219-.208,0-.413,0-.621,0-1.267-.007-2.533-.072-3.786-.2-.19-.018-.377-.04-.567-.065a35.3,35.3,0,0,1-3.689-.621c-.208-.047-.413-.1-.621-.151a30.583,30.583,0,0,1-3.118-.94c-.215-.075-.438-.137-.649-.215a25.43,25.43,0,0,1-3.456-1.618l-58.12-33.271c-3.4-1.948-5.53-4.363-6.376-6.893a8.113,8.113,0,0,1-.42-2.559l-.036,12.7c-.007,3.423,2.261,6.854,6.8,9.448l58.12,33.274a24.56,24.56,0,0,0,3.215,1.532c.079.032.165.054.24.083.212.083.434.143.649.219.621.222,1.234.449,1.88.635.4.115.825.2,1.238.3.208.05.409.108.621.154.172.036.341.09.517.126.743.154,1.5.284,2.261.395.3.04.606.064.911.1l.567.065c.248.025.5.061.746.082.746.061,1.5.1,2.25.119.266.007.527,0,.789,0,.208,0,.413,0,.621,0,.312,0,.624.007.937,0,.847-.029,1.694-.083,2.533-.169.115-.011.226-.032.341-.047.251-.029.5-.072.746-.1.614-.079,1.231-.147,1.834-.255.294-.054.567-.154.858-.215.779-.162,1.529-.355,2.282-.567.384-.108.8-.172,1.177-.294.337-.108.646-.248.972-.37.309-.111.61-.222.908-.344a24.143,24.143,0,0,0,3.172-1.514l57.4-33.648.215-.129c.219-.129.4-.269.606-.4.276-.183.563-.359.818-.549.226-.162.423-.334.632-.5.237-.19.481-.377.7-.574.036-.032.083-.065.118-.1.086-.079.143-.161.226-.244a12.875,12.875,0,0,0,.987-1.062c.061-.072.143-.144.2-.215s.1-.165.165-.244c.194-.262.366-.527.531-.793.068-.111.158-.215.219-.327.036-.061.054-.122.086-.183.129-.237.233-.474.337-.714.057-.136.136-.265.187-.4.018-.05.025-.1.043-.151.083-.23.136-.459.2-.689.039-.147.1-.3.129-.449.007-.039.007-.083.014-.126.043-.244.061-.488.082-.732.014-.151.047-.3.054-.452l0-.2h0Z" transform="translate(-94.774 -420.662)"/></g></g><g transform="translate(31.175)"><g class="d"><g transform="translate(0 8.818)"><path class="h" d="M173.481,481.973c6.165,3.56,11.142,12.179,11.124,19.262l-.108,37.724c-.021,7.083-5.031,9.936-11.2,6.38l-58.719-33.9c-6.161-3.56-11.138-12.179-11.12-19.262l.108-37.724c.022-7.083,5.031-9.936,11.192-6.38Z" transform="translate(-103.462 -446.541)"/></g><path class="i" d="M186.231,479.514l-58.719-33.9c-3.1-1.791-5.91-1.959-7.937-.779L104.4,453.653c2.027-1.177,4.837-1.012,7.941.779l58.716,33.9c6.165,3.556,11.142,12.179,11.124,19.262l-.108,37.724c-.011,3.517-1.252,5.993-3.255,7.159l15.175-8.82c2-1.162,3.244-3.638,3.255-7.155l.1-37.727C197.372,491.7,192.4,483.074,186.231,479.514Z" transform="translate(-101.037 -444.083)"/></g><path class="j" d="M112.025,453.668v38.873l25.73-6.294Z" transform="translate(-81.299 -419.274)"/></g></g><text class="k" transform="translate(75.85 184.333)"><tspan x="-33.325" y="0">Video</tspan></text></g></g></svg>